<svg width="30" height="30" viewBox="0 0 30 30" fill="none" xmlns="http://www.w3.org/2000/svg">
<mask id="mask0_3_4488" style="mask-type:luminance" maskUnits="userSpaceOnUse" x="0" y="0" width="30" height="30">
<path d="M0 0H29.9V29.3106H0V0Z" fill="white"/>
</mask>
<g mask="url(#mask0_3_4488)">
<mask id="mask1_3_4488" style="mask-type:luminance" maskUnits="userSpaceOnUse" x="-10" y="-15" width="50" height="59">
<path d="M9.46055 -14.5369L39.9818 5.29198L21.0844 43.5235L-9.43854 23.6946L9.46055 -14.5369Z" fill="white"/>
</mask>
<g mask="url(#mask1_3_4488)">
<mask id="mask2_3_4488" style="mask-type:luminance" maskUnits="userSpaceOnUse" x="-10" y="-15" width="50" height="59">
<path d="M9.46055 -14.5369L39.9818 5.29198L21.0844 43.5235L-9.43854 23.6946L9.46055 -14.5369Z" fill="white"/>
</mask>
<g mask="url(#mask2_3_4488)">
<mask id="mask3_3_4488" style="mask-type:luminance" maskUnits="userSpaceOnUse" x="-10" y="-15" width="50" height="59">
<path d="M9.46055 -14.5369L39.9818 5.29198L21.0844 43.5235L-9.43854 23.6946L9.46055 -14.5369Z" fill="white"/>
</mask>
<g mask="url(#mask3_3_4488)">
<path d="M0.787106 25.3771C0.881898 25.2509 0.848044 25.1287 0.666924 24.9327C0.529815 24.7832 0.453643 24.6163 0.499346 24.5601C0.550127 24.4999 0.443487 24.3466 0.228513 24.1719C-0.0541698 23.941 -0.0694039 23.91 0.150648 24.0245C0.353773 24.1293 0.391013 24.1196 0.286065 23.9934C0.106638 23.7761 0.35208 23.6868 0.546742 23.8983C0.717705 24.0827 1.29661 24.0439 1.25091 23.8518C1.23398 23.778 1.1595 23.7373 1.08502 23.7586C0.934372 23.8032 0.844658 23.5704 0.959763 23.4306C1.00039 23.3821 1.10026 23.4112 1.18151 23.4986C1.26276 23.584 1.42187 23.6732 1.53359 23.6946C1.68593 23.7237 1.66731 23.6849 1.45911 23.5451C1.13919 23.3297 1.1375 23.3375 1.59284 23.0697C1.77903 22.9591 1.98216 22.9242 2.04479 22.9901C2.1108 23.0619 2.20729 23.0231 2.27838 22.897C2.45442 22.5807 2.80989 22.3594 2.85052 22.5399C2.87252 22.6311 2.89961 22.6214 2.91992 22.5147C2.93854 22.4138 3.05026 22.3206 3.16875 22.3032C3.28724 22.2876 3.35325 22.2372 3.31432 22.1925C3.27539 22.1479 3.34479 22.1382 3.47005 22.1731C3.60208 22.2081 3.78997 22.1207 3.9237 21.9577C4.05065 21.8064 4.20976 21.6977 4.27916 21.7132C4.51445 21.7695 4.53984 21.3775 4.33841 20.772C4.21823 20.4072 4.19622 20.1511 4.28424 20.1239C4.3638 20.1006 4.51614 19.9842 4.62278 19.8658C4.73112 19.7474 4.90547 19.6698 5.0138 19.695C5.14583 19.7261 5.1763 19.7028 5.10521 19.6252C4.95625 19.4583 5.14245 19.2875 5.43359 19.3244C5.67226 19.3554 5.67734 19.3496 5.54023 19.1963C5.3388 18.9692 5.56393 18.7499 5.9431 18.8043L6.26302 18.8509L6.01419 18.6587C5.77552 18.4744 5.7806 18.4472 6.13437 18.0397C6.3358 17.8049 6.5914 17.5875 6.70143 17.5565C6.9638 17.4827 7.07213 17.3547 7.03659 17.1587C7.01627 17.0519 7.07552 16.9976 7.20924 16.9937C7.36497 16.9879 7.41237 17.0364 7.41575 17.2091C7.4276 17.6283 7.58502 17.6108 7.58502 17.1917C7.58672 16.7162 7.70013 16.4892 7.74075 16.8792C7.75599 17.0209 7.82031 17.1354 7.88125 17.1354C8.04883 17.1296 7.92864 16.7007 7.72213 16.5629C7.46484 16.3921 7.71367 16.1496 8.13346 16.1631C8.37044 16.1709 8.42122 16.1437 8.29258 16.0797C8.19101 16.0273 8.11146 15.8798 8.11992 15.7498C8.13008 15.5674 8.19609 15.5363 8.42291 15.6081C8.71067 15.6993 8.71067 15.6974 8.5194 15.2627C8.39075 14.9677 8.38567 14.8824 8.50416 14.9969C8.66159 15.1502 8.67005 15.1308 8.58034 14.8086C8.49401 14.4923 8.46015 14.4613 8.29258 14.5486C8.18932 14.6029 8.14531 14.5893 8.19609 14.5214C8.24856 14.4515 8.21471 14.3138 8.1233 14.2148C8.03021 14.1139 8.00143 13.978 8.0556 13.9121C8.1233 13.8306 8.03021 13.654 7.7763 13.3823C7.48515 13.0679 7.39883 12.8816 7.40898 12.5808C7.42422 12.1655 7.11445 11.6804 7.0332 11.9928C7.00781 12.0899 6.98919 12.0084 6.99258 11.8124C6.99427 11.6164 6.98073 11.3291 6.96041 11.1739C6.92825 10.9255 6.90963 10.9216 6.79284 11.1273C6.62526 11.4301 6.52877 11.3253 6.60156 10.9177C6.64219 10.6888 6.58802 10.5471 6.41198 10.4171C6.23424 10.2871 6.20885 10.2152 6.32057 10.1551C6.41705 10.1027 6.41367 10.0076 6.30703 9.89311C6.21731 9.79608 6.18008 9.67188 6.22409 9.61755C6.26979 9.56321 6.19531 9.45066 6.04635 9.35363C5.85338 9.22943 5.81953 9.14987 5.91263 9.03731C5.9888 8.94611 5.97357 8.85684 5.872 8.80832C5.7806 8.76563 5.6875 8.64725 5.6638 8.5444C5.6401 8.44155 5.55208 8.26302 5.46745 8.14852C5.15091 7.71189 4.78698 7.03075 4.6888 6.69308C4.63294 6.50097 4.44843 6.17495 4.27916 5.96924C3.96432 5.58501 3.92539 5.18525 4.20299 5.17749C4.43997 5.17166 4.57877 4.94268 4.43828 4.78937C4.36888 4.71563 4.25039 4.72921 4.17422 4.81848C4.05573 4.9582 4.04049 4.9485 4.07265 4.75832C4.09974 4.60501 4.2013 4.52545 4.39765 4.50992C4.55508 4.49634 4.65833 4.54485 4.62955 4.61666C4.5957 4.69816 4.69726 4.77384 4.90039 4.81654C5.17799 4.87475 5.2237 4.84759 5.21692 4.62248C5.21354 4.48081 5.18646 4.33721 5.15768 4.30422C5.06797 4.20719 5.05781 2.87207 5.14245 2.5247C5.20508 2.27243 5.2457 2.22973 5.33034 2.319C5.4082 2.40245 5.42513 2.3714 5.38958 2.21227C5.28294 1.73489 5.79583 2.02403 6.11406 2.62173C6.24101 2.85848 6.36289 2.98462 6.44414 2.96134C6.51523 2.93999 6.60664 3.00209 6.64726 3.09912C6.68789 3.19809 6.7539 3.24078 6.79114 3.19421C6.82838 3.14763 6.92148 3.22331 6.99596 3.35916C7.08906 3.52993 7.14153 3.55322 7.16185 3.43484C7.20416 3.20197 7.41914 3.44066 7.42591 3.72787C7.43099 3.90252 7.46484 3.91222 7.58164 3.77056C7.69843 3.63084 7.73229 3.6386 7.73737 3.81325C7.74414 4.06941 7.87448 4.25571 7.91002 4.05971C7.92356 3.98597 8.09622 4.05195 8.29427 4.20525C8.99505 4.75056 9.45039 4.97372 9.49101 4.79325C9.5164 4.66905 9.53333 4.68846 9.54349 4.85729C9.56041 5.14644 9.68906 5.31721 9.72799 5.10374C9.74153 5.0203 9.79401 4.99507 9.8431 5.04747C9.89219 5.1018 9.89896 5.18331 9.86002 5.22988C9.82109 5.2784 9.88203 5.37543 9.99713 5.44917C10.1105 5.52097 10.2358 5.54232 10.2747 5.49574C10.3137 5.44917 10.3678 5.44723 10.3983 5.48992C10.4271 5.53455 10.549 5.66651 10.6708 5.78295C10.8452 5.95372 10.879 5.95178 10.8401 5.76936C10.8012 5.58501 10.8283 5.57919 10.9806 5.74414C11.0923 5.86251 11.1211 6.00418 11.0534 6.08568C10.9552 6.20406 10.9891 6.24869 11.2616 6.36124C11.4393 6.43499 11.6543 6.47574 11.7355 6.45245C11.8185 6.42916 11.959 6.52619 12.0487 6.66786C12.1418 6.81534 12.3195 6.92207 12.4685 6.91819C12.609 6.91431 12.8392 7.03269 12.9763 7.18405C13.1151 7.33348 13.281 7.44021 13.347 7.4208C13.4113 7.4014 13.5264 7.49843 13.6009 7.63621C13.7075 7.83221 13.7533 7.83997 13.8125 7.6789C13.8684 7.5256 13.9868 7.52365 14.2645 7.67308C14.4727 7.78563 14.6792 7.83415 14.7232 7.77981C14.7672 7.72548 14.8434 7.77399 14.8908 7.88654C14.9517 8.03403 14.9957 8.03597 15.0465 7.89431C15.0956 7.76041 15.1701 7.75458 15.2818 7.87684C15.3715 7.97581 15.4815 8.01268 15.5255 7.96029C15.5678 7.90789 15.6728 7.93312 15.7557 8.01656C15.8471 8.10583 15.8827 8.10195 15.8437 8.00492C15.754 7.78175 15.8979 7.64203 16.0486 7.80504C16.118 7.88072 16.2128 7.89625 16.2585 7.83997C16.3076 7.78175 16.25 7.68666 16.1264 7.6168C16.0062 7.55082 15.9267 7.47514 15.9504 7.44603C16.0706 7.30049 16.6004 7.13554 16.6799 7.22092C16.7375 7.28108 16.7561 7.25003 16.7307 7.13554C16.7003 6.99388 16.7595 6.92595 16.9914 6.83281C17.2081 6.74548 17.3536 6.58441 17.5178 6.25451C17.682 5.92267 17.8158 5.77519 18.0053 5.72085C18.2169 5.65681 18.2592 5.60441 18.2254 5.43752C18.1915 5.27063 18.2322 5.23764 18.4404 5.26287C18.6672 5.29004 18.6977 5.26093 18.6909 5.0203C18.6841 4.73697 18.8212 4.5565 19.1022 4.47305C19.1919 4.44588 19.2766 4.36826 19.2884 4.30228C19.3003 4.23436 19.5948 3.81907 19.9401 3.3805C20.2871 2.94193 20.5376 2.54993 20.5004 2.50724C20.4615 2.46649 20.5495 2.31706 20.6967 2.1754C20.844 2.03568 21.1335 1.60875 21.3366 1.23033C21.7513 0.461861 21.8224 0.440514 22.2134 0.966413C22.403 1.22063 22.4538 1.22645 22.6467 1.00134C22.7669 0.861621 22.9091 0.747126 22.9633 0.745186C23.0191 0.743245 23.1309 0.591879 23.2138 0.409464L23.3661 0.0756836L24.0585 0.842215C24.4393 1.26526 24.7254 1.6398 24.6932 1.68055C24.6611 1.71936 24.5866 1.69995 24.5307 1.6398C24.4732 1.5777 24.441 1.76011 24.4562 2.04732C24.4749 2.34811 24.4326 2.53829 24.3581 2.49754C24.1414 2.3811 24.0178 2.66249 24.1634 2.94193C24.2921 3.19227 24.2802 3.19809 23.9163 3.04866C23.4525 2.85654 23.3374 2.93029 23.7165 3.1748C23.9095 3.299 23.9451 3.36304 23.8401 3.39603C23.7521 3.42125 23.7453 3.49888 23.8215 3.58232C23.896 3.66189 23.8841 3.80355 23.7927 3.91416C23.7064 4.01896 23.5879 4.05195 23.5286 3.98791C23.4694 3.92387 23.3492 3.95686 23.2629 4.06165C23.1546 4.19361 23.1613 4.38573 23.2832 4.66517C23.4863 5.12509 23.4592 5.21242 23.1309 5.18719C22.9447 5.17166 22.9328 5.1542 23.0598 5.08434C23.1647 5.02612 23.1342 4.75444 22.965 4.246C22.8279 3.83072 22.6975 3.5144 22.6755 3.53963C22.6078 3.62308 22.6603 4.03642 22.7602 4.20719C22.9345 4.50216 22.9057 4.94656 22.7026 5.09016C22.491 5.24152 22.5926 5.46663 22.816 5.33855C22.9853 5.23958 22.9937 5.36766 22.838 5.72473C22.7669 5.89162 22.684 5.96342 22.6298 5.90521C22.5807 5.85087 22.5807 5.75966 22.6298 5.6995C22.6789 5.64129 22.5452 5.61994 22.3319 5.65681C22.1169 5.69174 21.9443 5.77713 21.946 5.84893C21.9477 5.91879 22.0475 5.94208 22.1677 5.89938C22.5469 5.76548 22.5672 5.99059 22.1897 6.14196C21.7564 6.31273 21.6396 6.42916 21.9053 6.4214C22.1948 6.41364 22.2185 6.49126 22.0103 6.78817C21.8698 6.98805 21.8021 7.00746 21.7428 6.8658C21.6988 6.761 21.6294 6.71637 21.5871 6.76683C21.5109 6.85803 21.6565 7.09479 21.9138 7.30631C22.0001 7.37617 21.9815 7.44797 21.8613 7.51395C21.7073 7.5974 21.7276 7.64785 21.9815 7.82251C22.2303 7.99522 22.2523 8.04761 22.1085 8.12718C21.99 8.19122 21.8275 8.10777 21.6074 7.86908C21.428 7.67502 21.2435 7.56441 21.1961 7.62068C21.1385 7.69249 21.2638 7.85161 21.582 8.11359C21.9697 8.43185 22.0323 8.52694 21.9324 8.64531C21.8664 8.72488 21.731 8.73846 21.6294 8.67636C21.4771 8.57933 21.4686 8.6065 21.5803 8.83937C21.7208 9.13046 21.5296 9.37498 21.384 9.09165C21.0708 8.48036 20.9134 8.34452 20.7475 8.5444C20.6561 8.65502 20.6206 8.78892 20.6697 8.84131C20.7187 8.89371 20.7712 8.87042 20.7848 8.78698C20.8 8.70353 20.8711 8.69965 20.9422 8.77727L21.1148 8.96357C21.1385 8.9888 21.1199 9.02955 21.0759 9.05672C21.0319 9.08389 20.9777 9.06448 20.954 9.01403C20.9303 8.96357 20.8576 8.98686 20.7932 9.06448C20.6392 9.25078 20.8796 9.51276 21.0962 9.39438C21.1876 9.34393 21.301 9.34587 21.3467 9.39632C21.3958 9.44872 21.3383 9.50111 21.2113 9.51858C21.0319 9.54187 20.9777 9.62531 20.927 9.94551C20.8863 10.2055 20.7628 10.4287 20.5664 10.5956L20.2685 10.8479L20.6561 10.6344C20.8694 10.518 21.0759 10.4617 21.1148 10.5102C21.1538 10.5587 21.323 10.6441 21.4923 10.7004C21.753 10.7858 21.8021 10.8518 21.8224 11.139C21.8461 11.465 21.8529 11.463 22.0678 11.0808C22.2574 10.7411 22.2845 10.7256 22.2676 10.9643C22.2523 11.1991 22.2879 11.2476 22.5062 11.2787C22.6467 11.3 22.7754 11.2496 22.7889 11.1661C22.8245 10.9721 23.075 11.0303 23.1241 11.2457C23.1512 11.3641 23.1156 11.4009 23.0005 11.3718C22.9108 11.3505 22.8076 11.4126 22.7703 11.5077C22.728 11.6222 22.816 11.6319 23.0293 11.5368C23.207 11.4572 23.4034 11.4475 23.466 11.5135C23.527 11.5814 23.6116 11.5931 23.6539 11.5426C23.6962 11.4922 23.7639 11.5329 23.8062 11.6338C23.8486 11.7347 23.813 11.855 23.725 11.9016C23.6133 11.9637 23.6336 12.0588 23.7961 12.2354C23.9891 12.445 24.0263 12.443 24.0382 12.2257C24.05 12.0181 24.0771 11.9967 24.1888 12.117C24.2633 12.1985 24.3564 12.2257 24.397 12.1752C24.4647 12.0957 24.9437 12.2917 24.9691 12.4081C24.9759 12.4353 25.1316 12.4411 25.3161 12.4217C25.6005 12.3906 25.631 12.4101 25.5159 12.5498C25.4279 12.6546 25.4414 12.7574 25.5531 12.837C25.6581 12.9127 25.7749 12.8816 25.8443 12.7613C25.9154 12.641 25.9763 12.6235 25.9983 12.7186C26.0186 12.8059 26.1743 12.901 26.3436 12.9301C26.5129 12.9612 26.7194 13.0563 26.8006 13.1455C26.8819 13.2329 26.9801 13.2678 27.019 13.2212C27.0579 13.1766 27.1934 13.2057 27.322 13.2872C27.5353 13.425 27.5336 13.4347 27.3017 13.4036C27.0596 13.3706 27.0529 13.3765 27.1629 13.5705C27.2255 13.6811 27.4117 13.8674 27.5742 13.9858L27.8704 14.2032L27.5742 13.6035L27.8484 13.7277C27.9991 13.7956 28.2902 14.0033 28.4951 14.1896C28.7016 14.3759 28.8895 14.4787 28.9132 14.4186C28.9368 14.3584 29.1044 14.4147 29.2855 14.5428C29.4667 14.6708 29.5936 14.83 29.5682 14.8959C29.5445 14.9619 29.5767 15.0725 29.641 15.1424C29.707 15.2142 29.7257 15.3132 29.6833 15.3636C29.641 15.4141 29.5665 15.3617 29.5191 15.2452C29.4582 15.1016 29.4193 15.09 29.3973 15.2103C29.3803 15.3073 29.4193 15.4451 29.487 15.5169C29.553 15.5887 29.5936 15.6644 29.5767 15.6838C29.4497 15.8371 28.5932 16.2485 28.3867 16.2544C28.2445 16.2582 28.1007 16.3417 28.0651 16.4387C28.0296 16.5377 27.9635 16.5784 27.9195 16.5299C27.8755 16.4814 27.7943 16.495 27.7384 16.561C27.6842 16.6269 27.5184 16.6522 27.3694 16.6172C27.1493 16.5668 27.0461 16.6347 26.8227 16.9724C26.6618 17.2188 26.5129 17.3547 26.4621 17.3003C26.4164 17.2479 26.452 17.1664 26.5434 17.116C26.6365 17.0655 26.6737 16.986 26.628 16.9355C26.4875 16.7822 25.9661 17.1334 25.9509 17.3915C25.9357 17.6749 25.675 17.768 25.5734 17.5293C25.499 17.3488 25.3212 17.4847 24.9691 17.9834C24.8794 18.1115 24.766 18.1717 24.7169 18.1173C24.6678 18.0649 24.6814 17.9562 24.7457 17.8786C24.8185 17.7913 24.788 17.6574 24.6695 17.539C24.5629 17.4303 24.5053 17.4148 24.5409 17.5041C24.6171 17.6943 24.3395 18.0707 24.2193 17.9388C24.1736 17.8903 24.0822 17.9136 24.0178 17.9912C23.9434 18.0804 23.8198 18.0494 23.6911 17.9077C23.576 17.7835 23.4423 17.7292 23.3932 17.7874C23.3441 17.8476 23.3983 17.9524 23.5134 18.0261C23.6285 18.0979 23.6911 18.1949 23.6522 18.2415C23.6133 18.2881 23.4626 18.2473 23.3171 18.1542C23.1444 18.0416 23.053 18.0455 23.0547 18.1639C23.0581 18.2823 22.9599 18.356 22.7737 18.3774C22.4741 18.4142 22.1372 18.1561 22.271 17.9951C22.315 17.9427 22.3048 17.8495 22.2507 17.7913C22.1762 17.7098 22.1508 17.737 22.1542 17.8903C22.1576 18.0048 22.0848 18.1387 21.9951 18.1891C21.8698 18.257 21.8816 18.3094 22.0475 18.4006C22.2337 18.5054 22.232 18.552 22.0306 18.717C21.7191 18.9712 21.3146 18.9576 21.5262 18.6995C21.6447 18.5539 21.6362 18.5307 21.4805 18.5753C21.3755 18.6044 21.2807 18.6801 21.2706 18.7402C21.2587 18.8004 21.1521 18.7946 21.0319 18.7286C20.7255 18.5578 20.624 18.7383 20.8745 19.01C20.9896 19.1342 21.0471 19.2797 21.0048 19.3321C20.9608 19.3845 20.8118 19.305 20.6747 19.1555C20.5376 19.0061 20.4022 18.9207 20.3751 18.9654C20.2448 19.1827 20.15 19.1905 20.1839 18.9828C20.2126 18.7965 20.1855 18.7926 20.0417 18.9654C19.935 19.0915 19.913 19.2332 19.9875 19.3147C20.0569 19.3884 20.1517 19.4039 20.1974 19.3496C20.2431 19.2933 20.2956 19.3108 20.3125 19.3845C20.3294 19.4602 20.4073 19.4893 20.4852 19.4486C20.5867 19.3942 20.602 19.4078 20.5393 19.4951C20.4919 19.5611 20.3227 19.5941 20.1652 19.5669C19.9706 19.532 19.9012 19.5669 19.9503 19.6717C19.9993 19.7785 19.9621 19.7979 19.8284 19.7358C19.7014 19.6756 19.6743 19.596 19.7522 19.5048C19.8148 19.4272 19.8385 19.3321 19.803 19.2933C19.7674 19.2545 19.5982 19.3962 19.4272 19.6096C19.1225 19.9861 18.9431 20.0327 19.0565 19.7047C19.0921 19.6038 19.0599 19.598 18.9736 19.6931C18.8957 19.7785 18.85 19.9182 18.8703 20.0074C18.894 20.1142 18.8246 20.1743 18.657 20.1937C18.327 20.2287 18.1052 20.5217 18.2626 20.7099C18.332 20.7934 18.2491 20.7934 18.0798 20.708C17.8716 20.6051 17.7159 20.6226 17.6025 20.7623C17.4891 20.9021 17.5432 20.9506 17.7667 20.9118C18.0629 20.8594 18.0967 20.8827 18.0849 21.1175C18.0764 21.263 17.985 21.4978 17.8818 21.6356C17.7802 21.7753 17.721 21.917 17.7531 21.9519C17.7836 21.9849 17.6871 22.144 17.5382 22.3051C17.3215 22.5399 17.2995 22.6253 17.4349 22.7301C17.6245 22.8756 17.4518 23.1803 17.2419 23.0678C17.1522 23.0192 17.0913 23.1512 17.0523 23.483C17.0185 23.7508 16.9457 23.9721 16.8881 23.974C16.8323 23.974 16.8238 24.0167 16.8695 24.0672C16.9152 24.1176 16.8289 24.3291 16.6766 24.5368C16.5242 24.7444 16.3634 24.9676 16.3177 25.0336C16.272 25.0976 16.3025 25.1849 16.3871 25.2237C16.4937 25.2742 16.4819 25.3285 16.3499 25.4003C16.2449 25.4586 16.1721 25.5692 16.1874 25.6507C16.2009 25.7302 16.0062 26.1494 15.7523 26.5783C15.5001 27.0091 15.2598 27.4477 15.2208 27.5563C15.1717 27.6941 15.0448 27.6922 14.7926 27.5544C14.5962 27.4438 14.4964 27.4302 14.5725 27.5233C14.6487 27.6165 14.6572 27.7562 14.5911 27.8338C14.5268 27.9134 14.5116 28.0182 14.5573 28.0686C14.7486 28.2763 14.3254 28.5169 14.0376 28.3617L13.7363 28.2006L13.9124 28.5189C14.0224 28.7168 14.0342 28.8546 13.9411 28.8837C13.8396 28.9147 13.8599 28.9613 14.0105 29.0312C14.1951 29.1204 14.1764 29.134 13.8734 29.1321C13.5535 29.1282 13.4943 29.0797 13.2573 28.6314C13.1134 28.3597 12.9035 27.8882 12.7935 27.5874C12.6818 27.2846 12.5091 26.8907 12.4092 26.7122C12.3077 26.5317 12.0724 25.9456 11.8845 25.41C11.6966 24.8744 11.4884 24.3757 11.4224 24.3039C11.3564 24.2321 11.3141 24.1079 11.3293 24.0264C11.3428 23.9468 11.2768 23.6558 11.182 23.3802C11.0872 23.1046 11.0178 22.8058 11.0297 22.7126C11.0635 22.4545 10.9281 22.6641 10.8503 22.994C10.8096 23.1628 10.7656 23.2249 10.7453 23.1415C10.7267 23.0619 10.6116 23.0076 10.4914 23.0251C10.3695 23.0406 10.2003 22.9785 10.1139 22.8834C10.0276 22.7902 9.92096 22.7573 9.87864 22.8097C9.83463 22.8621 9.85156 22.961 9.91419 23.0309C9.97851 23.0988 9.95989 23.2812 9.87187 23.4365C9.78554 23.5917 9.68567 23.6849 9.64843 23.646C9.61289 23.6072 9.48763 23.6344 9.37252 23.7062C9.23203 23.7955 9.08815 23.7605 8.94427 23.6053C8.55664 23.1822 8.73437 23.6907 9.14401 24.1681C9.28789 24.3369 9.26927 24.3485 8.9595 24.2942C8.33659 24.1836 8.26719 24.2049 8.3095 24.4883C8.34166 24.725 8.32812 24.7328 8.1707 24.5678C8.04375 24.4339 7.94726 24.4436 7.82539 24.6008C7.71198 24.7502 7.49531 24.7852 7.14323 24.7114C6.72005 24.6222 6.60495 24.6532 6.49153 24.8841C6.36289 25.1442 6.33919 25.1403 6.15299 24.8259C5.97864 24.5329 5.92955 24.5135 5.78737 24.6843C5.66211 24.8356 5.5707 24.8259 5.39804 24.6396C5.18138 24.4029 5.17461 24.4048 5.21185 24.7192C5.23893 24.9404 5.20677 25.0239 5.11198 24.9831C5.01041 24.9404 4.93763 25.0161 4.8513 25.2529C4.74974 25.5323 4.71758 25.5517 4.64479 25.3771C4.58385 25.2315 4.53815 25.2257 4.49075 25.3518C4.45013 25.4663 4.33841 25.4818 4.19622 25.3965C4.0625 25.315 3.97617 25.3227 3.9914 25.4178C4.02695 25.6565 3.70195 26.1067 3.65286 25.8894C3.62409 25.771 3.58515 25.7846 3.53268 25.9301C3.47513 26.0912 3.40742 26.097 3.26862 25.9476C3.09596 25.7632 2.59153 25.5614 2.75065 25.7419C2.78958 25.7846 2.73372 25.8331 2.62369 25.8486C2.38672 25.8816 2.37148 26.0563 2.58815 26.2911C2.67617 26.3862 2.68802 26.4812 2.61692 26.5026C2.54414 26.5239 2.41549 26.4638 2.32916 26.3706C2.24284 26.2775 2.10403 26.2212 2.02109 26.2464C1.93138 26.2736 1.92799 26.3047 2.01432 26.326C2.10403 26.3473 2.09218 26.4289 1.98724 26.5395C1.8095 26.7238 1.61484 26.6578 1.77226 26.4677C1.83659 26.392 1.80273 26.357 1.65039 26.3454C1.50651 26.3338 1.44896 26.2775 1.46927 26.1708C1.50989 25.9476 0.966533 25.3887 0.797263 25.476C0.712627 25.5207 0.709242 25.4799 0.787106 25.3771ZM1.86198 25.4042C1.87383 25.3906 1.79765 25.3266 1.69609 25.2626C1.59284 25.1985 1.43034 25.2257 1.33554 25.3227C1.16966 25.4954 1.17643 25.5012 1.50312 25.4644C1.68932 25.445 1.85013 25.4178 1.86198 25.4042ZM0.908981 24.8317C0.951299 24.7794 0.92083 24.6668 0.83958 24.5795C0.71432 24.4456 0.700778 24.4553 0.741403 24.6513C0.804033 24.9385 0.812497 24.9482 0.908981 24.8317ZM2.06849 25.7283C2.1108 25.6759 2.10742 25.5905 2.05833 25.5381C2.01093 25.4857 1.95846 25.509 1.94323 25.5925C1.92799 25.6759 1.93307 25.7613 1.95169 25.7846C1.972 25.8059 2.02448 25.7807 2.06849 25.7283ZM2.88099 25.0549C2.9233 24.9346 2.9233 24.8376 2.8776 24.8376C2.83359 24.8395 2.7608 24.9385 2.71849 25.0588C2.67448 25.1811 2.67617 25.2781 2.72018 25.2761C2.76419 25.2742 2.83698 25.1752 2.88099 25.0549ZM3.38372 25.5905C3.42773 25.4702 3.53945 25.3906 3.63424 25.412C3.77304 25.443 3.78489 25.4275 3.69857 25.3324C3.64101 25.2684 3.51914 25.2567 3.42773 25.3053C3.33633 25.3557 3.2483 25.3363 3.23138 25.2626C3.21445 25.1888 3.16536 25.1714 3.12304 25.2218C3.04856 25.3111 3.10442 25.5439 3.23984 25.7225C3.27539 25.7691 3.3414 25.7089 3.38372 25.5905ZM1.96523 23.5587C1.98216 23.5374 1.96015 23.4345 1.91614 23.3297C1.87213 23.2249 1.80273 23.1803 1.76041 23.2308C1.7181 23.2812 1.7401 23.3841 1.8095 23.4598C1.87721 23.5335 1.9483 23.5781 1.96523 23.5587ZM3.62239 24.8609C3.61901 24.7502 3.54114 24.6396 3.44974 24.6183C3.32448 24.5872 3.30924 24.6416 3.38711 24.8201C3.51745 25.1151 3.62916 25.1364 3.62239 24.8609ZM2.33763 23.4908C2.38164 23.4384 2.37995 23.355 2.33255 23.3045C2.28685 23.254 2.21406 23.256 2.17005 23.3084C2.12773 23.3608 2.12942 23.4462 2.17513 23.4947C2.22083 23.5451 2.29362 23.5432 2.33763 23.4908ZM4.25377 24.3388C4.25208 24.2826 4.16067 24.2379 4.05065 24.2418C3.89153 24.2476 3.89153 24.269 4.05403 24.3466C4.16575 24.399 4.25547 24.3971 4.25377 24.3388ZM3.84752 23.9643C3.86614 23.941 3.86614 23.8556 3.84752 23.7722C3.8289 23.6907 3.77643 23.6693 3.72903 23.7237C3.68333 23.7799 3.68333 23.8653 3.72903 23.9158C3.77474 23.9662 3.8289 23.9876 3.84752 23.9643ZM3.75781 23.4753C3.84922 23.4811 3.96263 23.0833 3.88984 23.0095C3.8526 22.9727 3.66471 22.9765 3.47174 23.0154L3.12135 23.0891L3.4108 23.2812C3.56992 23.386 3.72565 23.4733 3.75781 23.4753ZM4.21823 22.4701C4.34179 22.1751 4.14713 21.8821 3.9694 22.0955C3.90338 22.1751 3.90677 22.2993 3.97617 22.375C4.04557 22.4487 4.05911 22.5613 4.00833 22.6214C3.95924 22.6835 3.96093 22.732 4.01341 22.7301C4.06588 22.7282 4.15729 22.6117 4.21823 22.4701ZM6.07005 23.7101C6.1056 23.6034 6.06836 23.6053 5.97187 23.712C5.88554 23.8091 5.85846 23.8867 5.91263 23.8847C5.96679 23.8828 6.03789 23.8032 6.07005 23.7101ZM7.3108 24.3776C7.44284 24.2166 7.32773 24.0167 7.15677 24.1098C7.0569 24.1642 7.03997 24.2535 7.11445 24.333C7.18047 24.4068 7.27018 24.4262 7.3108 24.3776ZM7.88633 24.2573C7.92695 24.2069 7.90495 24.1079 7.83724 24.0342C7.76276 23.9527 7.68828 23.9779 7.64427 24.0963C7.57317 24.2961 7.75429 24.4165 7.88633 24.2573ZM6.45768 18.3871C6.46614 18.2008 6.42044 18.0378 6.35781 18.0222C6.20547 17.9854 6.18346 18.4414 6.32903 18.6005C6.41705 18.6956 6.44752 18.6471 6.45768 18.3871ZM10.5422 22.3167C10.5371 22.1266 10.3458 22.1964 10.3086 22.4002C10.2815 22.5554 10.3018 22.5768 10.4102 22.5108C10.4829 22.4642 10.5439 22.3769 10.5422 22.3167ZM10.8384 22.6738C10.9349 22.406 10.8706 22.3788 10.6793 22.6078C10.5896 22.7165 10.5743 22.8174 10.6437 22.8349C10.7131 22.8504 10.8012 22.7786 10.8384 22.6738ZM12.3889 24.2127C12.3889 23.9818 12.438 23.7916 12.499 23.7897C12.6005 23.7877 12.4668 23.5626 12.2061 23.3006C12.1469 23.2405 12.1299 23.1531 12.1672 23.1066C12.2061 23.06 12.157 22.9339 12.0555 22.8252C11.8913 22.6466 11.8777 22.6816 11.9184 23.2172C11.9421 23.5432 12.0284 23.8789 12.1079 23.9682C12.1892 24.0555 12.2434 24.1952 12.2281 24.2787C12.2129 24.3621 12.2434 24.4747 12.2941 24.531C12.3449 24.5853 12.3872 24.4436 12.3889 24.2127ZM11.7575 21.688C11.8236 21.6104 11.8405 21.5056 11.7965 21.459C11.7508 21.4105 11.6831 21.459 11.6441 21.5657C11.6052 21.6725 11.59 21.7753 11.6069 21.7947C11.6255 21.8161 11.6932 21.7676 11.7575 21.688ZM15.5391 23.5335C15.6135 23.5121 15.5932 23.4598 15.4917 23.4112C15.2953 23.3181 15.2124 23.3569 15.3326 23.4869C15.3749 23.5335 15.468 23.5548 15.5391 23.5335ZM9.00351 15.9691C9.00351 15.907 8.93411 15.8255 8.85117 15.7867C8.75807 15.7459 8.75976 15.7886 8.85286 15.8992C8.9375 16.0001 9.00521 16.0292 9.00351 15.9691ZM17.0253 22.7941C17.1895 22.8291 17.1911 22.798 17.0405 22.6331C16.9389 22.5186 16.8915 22.3827 16.9355 22.3284C16.9829 22.2702 16.9254 22.2275 16.8001 22.2255C16.4311 22.2197 16.6241 22.7068 17.0253 22.7941ZM15.4595 20.805C15.4578 20.7429 15.3901 20.6614 15.3072 20.6246C15.2141 20.5819 15.2158 20.6265 15.3089 20.7352C15.3935 20.8361 15.4612 20.8671 15.4595 20.805ZM17.4044 22.0004C17.3706 21.9131 17.2758 21.8103 17.1962 21.7753C17.1167 21.7385 17.1471 21.8103 17.2605 21.9364C17.3757 22.0606 17.44 22.0897 17.4044 22.0004ZM10.9772 13.588C10.9755 13.5259 10.9061 13.4444 10.8232 13.4075C10.7318 13.3648 10.7318 13.4095 10.8266 13.5201C10.9095 13.619 10.9789 13.6501 10.9772 13.588ZM11.094 13.163C11.0585 13.0737 10.9654 12.9728 10.8858 12.936C10.8062 12.901 10.8367 12.9728 10.9501 13.097C11.0652 13.2212 11.1296 13.2523 11.094 13.163ZM16.3837 18.7325C16.382 18.6723 16.3143 18.5908 16.2297 18.552C16.1383 18.5113 16.14 18.5539 16.2331 18.6646C16.3177 18.7635 16.3854 18.7946 16.3837 18.7325ZM13.5958 15.4548C13.6381 15.4024 13.6365 15.319 13.5908 15.2685C13.545 15.2181 13.4723 15.22 13.4283 15.2724C13.3842 15.3248 13.3876 15.4083 13.4333 15.4587C13.479 15.5092 13.5518 15.5072 13.5958 15.4548ZM16.6935 18.2997C16.7544 18.2803 16.6952 18.1852 16.5615 18.0882C16.4277 17.9892 16.3042 17.9252 16.2872 17.9446C16.2263 18.0183 16.5852 18.3327 16.6935 18.2997ZM9.98867 10.877C10.0462 10.875 10.1004 10.7722 10.1072 10.6461C10.1173 10.4714 10.1512 10.4501 10.251 10.5587C10.3238 10.6364 10.4931 10.679 10.6285 10.6519C10.8841 10.6034 11.0771 10.6849 11.3428 10.9546C11.4275 11.04 11.5206 11.04 11.551 10.9566C11.5883 10.8576 11.7051 10.9216 11.8997 11.1487C12.179 11.4747 12.2112 11.4766 12.5413 11.1914C12.7309 11.0264 12.8866 10.8479 12.8849 10.7974C12.8781 10.5374 12.4397 10.2657 12.1147 10.32C11.8557 10.3627 11.6729 10.2929 11.4698 10.0716C11.2514 9.83683 11.1702 9.80967 11.116 9.95909C11.0517 10.1376 10.852 10.0464 10.6607 9.75533C10.5523 9.59232 10.1342 9.68353 10.0615 9.88535C10.0039 10.0484 9.94297 10.027 9.76185 9.78056C9.54349 9.47977 9.53502 9.48171 9.48086 9.82907C9.45039 10.0231 9.51133 10.3103 9.61627 10.4656C9.72122 10.6208 9.82448 10.7761 9.84479 10.8129C9.8651 10.8498 9.92942 10.8789 9.98867 10.877ZM9.68737 10.1861C9.77031 10.223 9.83971 10.3045 9.8414 10.3666C9.8431 10.4287 9.77539 10.3977 9.69075 10.2968C9.59765 10.1881 9.59596 10.1434 9.68737 10.1861ZM14.5793 15.6062C14.6199 15.5577 14.6216 15.4839 14.5844 15.4412C14.5454 15.4005 14.4625 15.4277 14.3999 15.5053C14.3355 15.581 14.3339 15.6547 14.3948 15.6702C14.4557 15.6838 14.5387 15.6567 14.5793 15.6062ZM5.00026 5.11151C4.99857 5.05135 4.92916 4.96984 4.84622 4.93103C4.75482 4.88834 4.75651 4.93297 4.84961 5.04359C4.93424 5.14255 5.00195 5.1736 5.00026 5.11151ZM5.26263 5.32497C5.33372 5.30362 5.35403 5.24347 5.30495 5.19107C5.25586 5.13673 5.18138 5.13673 5.13737 5.18913C5.09336 5.24153 5.07474 5.30362 5.09505 5.32497C5.11536 5.34632 5.19153 5.34632 5.26263 5.32497ZM17.1285 17.9504C17.2132 17.9039 17.2826 17.8146 17.2809 17.7564C17.2775 17.5953 16.8865 17.5914 16.8577 17.7486C16.8221 17.9485 16.9525 18.0455 17.1285 17.9504ZM11.5561 11.7929C11.529 11.6687 11.4698 11.5251 11.4241 11.4747C11.3784 11.4242 11.3615 11.4863 11.3885 11.6125C11.4156 11.7386 11.4749 11.8822 11.5206 11.9307C11.5663 11.9812 11.5815 11.9191 11.5561 11.7929ZM16.5868 16.9045C16.6546 16.885 16.6952 16.8113 16.6799 16.7414C16.663 16.6716 16.5987 16.6774 16.5344 16.7531C16.4023 16.9142 16.4176 16.9568 16.5868 16.9045ZM18.916 19.2739C18.9143 19.2176 18.8229 19.173 18.7129 19.1769C18.5521 19.1827 18.5538 19.204 18.7146 19.2817C18.8263 19.3341 18.9177 19.3321 18.916 19.2739ZM6.99258 6.29914C7.00781 6.2157 6.98242 6.10703 6.93672 6.05657C6.89101 6.00806 6.84023 6.03523 6.825 6.11867C6.81146 6.20018 6.83685 6.30885 6.88255 6.3593C6.92825 6.40976 6.97734 6.38259 6.99258 6.29914ZM9.9125 9.56903C9.93112 9.54575 9.93112 9.45842 9.9125 9.37691C9.89219 9.29541 9.83971 9.27212 9.79401 9.3284C9.74831 9.38274 9.74831 9.47006 9.79401 9.52052C9.83971 9.56903 9.89219 9.59038 9.9125 9.56903ZM17.1759 17.3508C17.2487 17.3294 17.269 17.2712 17.2233 17.2208C17.1776 17.1723 17.0811 17.149 17.01 17.1703C16.9372 17.1917 16.9169 17.2499 16.9626 17.3003C17.0083 17.3488 17.1048 17.3721 17.1759 17.3508ZM6.84531 5.55202C6.87578 5.46081 6.81315 5.4938 6.70482 5.62382C6.59648 5.75578 6.57109 5.82952 6.64726 5.78877C6.72513 5.74996 6.81484 5.64129 6.84531 5.55202ZM7.86432 7.06568L8.13685 7.2151L7.93372 6.98029C7.8237 6.85221 7.64088 6.72607 7.53086 6.70279C7.35143 6.66397 7.34297 6.67368 7.45976 6.78623C7.53255 6.85803 7.71536 6.98223 7.86432 7.06568ZM8.68867 7.65756C8.75468 7.4732 8.5651 7.01328 8.42461 7.01716C8.37383 7.0191 8.32474 7.13166 8.31797 7.2675C8.30104 7.56829 8.60573 7.88849 8.68867 7.65756ZM14.9923 14.6534C15.0126 14.5369 14.3863 13.9257 14.322 14.0033C14.3051 14.0227 14.4439 14.2051 14.6301 14.4069C14.8163 14.6107 14.9788 14.7213 14.9923 14.6534ZM7.10599 4.99313C7.10091 4.92909 7.03659 4.91163 6.96211 4.95432C6.88593 4.99895 6.80807 4.96208 6.78776 4.87475C6.76745 4.78549 6.67096 4.60695 6.57448 4.47693C6.28841 4.09076 6.18346 4.43618 6.44414 4.9058C6.65065 5.2784 6.71159 5.31915 6.89778 5.22212C7.01627 5.16002 7.10937 5.05717 7.10599 4.99313ZM17.4501 16.9258C17.4941 16.8734 17.5128 16.8113 17.4924 16.79C17.4721 16.7686 17.396 16.7667 17.3249 16.79C17.2538 16.8113 17.2335 16.8715 17.2826 16.9239C17.3316 16.9763 17.4061 16.9782 17.4501 16.9258ZM5.74505 3.95104C5.78398 3.8443 5.75521 3.74339 5.68242 3.72593C5.60117 3.70652 5.56901 3.7725 5.59609 3.89864C5.65703 4.1742 5.66549 4.17614 5.74505 3.95104ZM8.3569 6.7319C8.41445 6.71443 8.39414 6.61546 8.3112 6.51261C8.22825 6.40782 8.12838 6.36318 8.08776 6.41364C7.99804 6.52231 8.21302 6.77653 8.3569 6.7319ZM15.2293 14.1527C15.3004 14.1314 15.319 14.0712 15.2716 14.0169C15.2225 13.9645 15.1464 13.9645 15.104 14.0169C15.06 14.0693 15.0414 14.1294 15.0617 14.1527C15.082 14.174 15.1565 14.174 15.2293 14.1527ZM17.8631 16.7026C17.9461 16.658 18.0392 16.4853 18.068 16.3223C18.1306 15.9633 17.9258 15.6838 17.8174 15.9827C17.7768 16.0952 17.682 16.2641 17.6059 16.3553C17.4417 16.5513 17.6431 16.8229 17.8631 16.7026ZM10.29 8.24943C10.3628 8.22809 10.3628 8.14852 10.2917 8.06896C10.2189 7.99134 10.1258 7.97193 10.0818 8.02433C10.0378 8.07672 10.0378 8.15823 10.0818 8.2048C10.1241 8.25138 10.2189 8.27272 10.29 8.24943ZM8.39752 5.8955C8.36198 5.80624 8.26888 5.70533 8.18932 5.66845C8.10976 5.63352 8.13854 5.70533 8.25364 5.82952C8.36875 5.95372 8.43307 5.98477 8.39752 5.8955ZM10.8587 8.61621C10.8756 8.59486 10.8553 8.49201 10.8113 8.38722C10.7673 8.28242 10.6962 8.23779 10.6539 8.29019C10.6133 8.34064 10.6336 8.44349 10.703 8.51724C10.7724 8.59292 10.8418 8.63755 10.8587 8.61621ZM17.6262 15.8507C17.6414 15.7673 17.616 15.6586 17.5703 15.6081C17.5246 15.5596 17.4755 15.5868 17.4603 15.6702C17.4451 15.7517 17.4704 15.8624 17.5161 15.9109C17.5618 15.9613 17.6126 15.9342 17.6262 15.8507ZM18.4945 16.3572C18.6062 16.1748 18.6469 15.6508 18.547 15.6547C18.481 15.6567 18.3219 16.4232 18.376 16.4833C18.3896 16.4969 18.4421 16.4407 18.4945 16.3572ZM19.7658 17.4983C19.7607 17.31 19.5711 17.378 19.5339 17.5837C19.5068 17.737 19.5254 17.7583 19.6337 17.6923C19.7082 17.6477 19.7674 17.5604 19.7658 17.4983ZM18.1577 15.6896C18.1949 15.6431 18.1492 15.5713 18.0544 15.5266C17.9613 15.482 17.853 15.482 17.8158 15.5266C17.7785 15.5713 17.8242 15.645 17.919 15.6896C18.0121 15.7343 18.1204 15.7343 18.1577 15.6896ZM20.3396 17.3954C20.3328 17.1102 20.321 17.0966 20.2042 17.2363C20.1331 17.3217 20.106 17.4614 20.1449 17.5487C20.2566 17.8029 20.348 17.7311 20.3396 17.3954ZM18.3134 15.0784C18.3168 14.8203 18.1746 14.7096 18.0443 14.8688C18.0036 14.9173 18.0477 15.0415 18.1408 15.1424C18.2829 15.2957 18.3117 15.2841 18.3134 15.0784ZM19.2783 15.2918C19.3223 15.2394 19.3172 15.154 19.2698 15.1016C19.2207 15.0492 19.1682 15.0725 19.153 15.156C19.1378 15.2394 19.1428 15.3248 19.1632 15.3481C19.1835 15.3694 19.2359 15.3442 19.2783 15.2918ZM20.4411 15.9109C20.3937 15.6004 20.3954 15.5965 20.6714 15.6314C20.9134 15.6625 20.9439 15.6353 20.9049 15.4354C20.822 15.0182 20.7272 15.0454 20.3497 15.5946C20.1432 15.8934 19.9621 16.1631 19.9469 16.1923C19.9299 16.2194 20.0467 16.2388 20.2025 16.233C20.4767 16.2233 20.4868 16.2078 20.4411 15.9109ZM14.5319 9.4526C14.5302 9.39438 14.4388 9.34975 14.3271 9.35363C14.168 9.35945 14.168 9.3808 14.3305 9.45842C14.4422 9.51276 14.5319 9.50887 14.5319 9.4526ZM20.9964 14.698C20.9964 14.6359 20.927 14.5544 20.844 14.5156C20.7509 14.4748 20.7526 14.5175 20.8457 14.6281C20.9303 14.7291 20.998 14.7601 20.9964 14.698ZM22.249 15.7246C22.2693 15.7013 22.2693 15.6159 22.2507 15.5325C22.2303 15.451 22.1779 15.4296 22.1322 15.4839C22.0865 15.5402 22.0848 15.6256 22.1322 15.6761C22.1779 15.7265 22.2303 15.7479 22.249 15.7246ZM22.948 15.647C22.9887 15.5984 22.9853 15.5169 22.9396 15.4665C22.8922 15.418 22.8008 15.4432 22.7331 15.5247C22.6654 15.6062 22.6687 15.6877 22.7415 15.7052C22.8143 15.7226 22.9074 15.6974 22.948 15.647ZM22.2219 14.9425C22.2202 14.8804 22.1508 14.7989 22.0678 14.7601C21.9764 14.7193 21.9781 14.762 22.0712 14.8727C22.1559 14.9716 22.2236 15.0027 22.2219 14.9425ZM21.5397 11.4165C21.582 11.3641 21.5414 11.2379 21.4466 11.1351C21.3518 11.0322 21.2621 11.0167 21.2469 11.1002C21.2316 11.1817 21.274 11.3097 21.34 11.3815C21.406 11.4533 21.4957 11.4689 21.5397 11.4165ZM20.6426 9.82131C20.6612 9.79802 20.6612 9.7107 20.6426 9.62919C20.624 9.54769 20.5698 9.5244 20.5241 9.58068C20.4784 9.63695 20.4784 9.72234 20.5241 9.77279C20.5698 9.82131 20.624 9.8446 20.6426 9.82131ZM24.8608 12.6701C25.025 12.6196 24.915 12.5013 24.6526 12.443C24.4783 12.4062 24.4698 12.4217 24.59 12.5556C24.6678 12.639 24.788 12.6914 24.8608 12.6701ZM21.1182 7.52365C21.1622 7.47126 21.1809 7.4111 21.1605 7.38975C21.1402 7.36647 21.0658 7.36647 20.993 7.38781C20.9219 7.40916 20.9033 7.47126 20.9506 7.52365C20.9997 7.57605 21.0759 7.57605 21.1182 7.52365ZM26.7939 13.685C26.9581 13.7199 26.9615 13.6889 26.8091 13.522C26.7076 13.4095 26.5874 13.3609 26.5451 13.4133C26.4452 13.5317 26.5332 13.6287 26.7939 13.685ZM28.2276 14.4807C28.2242 14.306 28.1785 14.2575 28.0279 14.2633C27.8755 14.2672 27.8772 14.3157 28.0329 14.4865C28.1887 14.6553 28.2327 14.6534 28.2276 14.4807ZM23.576 3.66771C23.5202 3.54157 23.4152 3.45424 23.3424 3.47559C23.268 3.495 23.1901 3.4232 23.1613 3.31064C23.1207 3.14181 23.1105 3.15345 23.0953 3.38438C23.0801 3.61143 23.1292 3.68129 23.3763 3.78026C23.6471 3.88505 23.6674 3.87535 23.576 3.66771ZM0.546742 23.355C0.590752 23.3026 0.663539 23.3006 0.709242 23.3511C0.756638 23.3996 0.75833 23.483 0.71432 23.5354C0.670309 23.5878 0.597523 23.5898 0.55182 23.5413C0.506117 23.4908 0.504424 23.4074 0.546742 23.355ZM4.46875 25.8932C4.53476 25.8137 4.60247 25.7671 4.6194 25.7865C4.63802 25.8059 4.62109 25.9088 4.58216 26.0155C4.54323 26.1242 4.47552 26.1727 4.43151 26.1242C4.3875 26.0757 4.40442 25.9709 4.46875 25.8932ZM5.5013 24.9928C5.58424 25.0316 5.65364 25.1131 5.65534 25.1752C5.65703 25.2373 5.58932 25.2063 5.50468 25.1054C5.41159 24.9948 5.40989 24.9521 5.5013 24.9928ZM6.56601 25.2393C6.64896 25.2781 6.71836 25.3596 6.72005 25.4217C6.72005 25.4838 6.65234 25.4527 6.56771 25.3518C6.47461 25.2432 6.47461 25.1985 6.56601 25.2393ZM6.9181 24.8997C7.07044 24.8958 7.1957 24.954 7.19739 25.0297C7.19909 25.1073 7.11106 25.1481 7.00442 25.1248C6.67942 25.051 6.62526 24.9094 6.9181 24.8997ZM8.52617 24.6319C8.62265 24.5174 8.89179 24.5542 8.89518 24.6823C8.89687 24.7289 8.79531 24.7599 8.67005 24.7502C8.52786 24.7386 8.47539 24.694 8.52617 24.6319ZM8.35521 3.79385C8.39752 3.74145 8.4737 3.74145 8.52278 3.79579C8.57018 3.84818 8.55156 3.90834 8.48047 3.92969C8.40768 3.95104 8.3332 3.95104 8.31289 3.92969C8.29258 3.90834 8.3112 3.84624 8.35521 3.79385ZM26.1507 17.3294C26.1947 17.277 26.2674 17.2751 26.3132 17.3256C26.3589 17.376 26.3622 17.4595 26.3182 17.5119C26.2742 17.5643 26.2014 17.5662 26.1557 17.5157C26.11 17.4672 26.1083 17.3818 26.1507 17.3294ZM22.0424 7.07926C22.0577 6.99582 22.1288 6.99193 22.1999 7.06956C22.271 7.14718 22.2947 7.25391 22.2507 7.30631C22.2066 7.35871 22.1372 7.36259 22.0932 7.31601C22.0509 7.26944 22.0272 7.16271 22.0424 7.07926ZM22.6704 6.2254C22.7365 6.14584 22.8228 6.11867 22.8634 6.1633C22.9057 6.20794 22.9074 6.33213 22.8685 6.43887C22.8262 6.55724 22.75 6.58247 22.6755 6.50097C22.6078 6.42722 22.6061 6.30303 22.6704 6.2254Z" fill="#21272A"/>
</g>
</g>
</g>
</g>
</svg>
