<svg width="77" height="19" viewBox="0 0 77 19" fill="none" xmlns="http://www.w3.org/2000/svg">
<g clip-path="url(#clip0_10_22)">
<mask id="mask0_10_22" style="mask-type:luminance" maskUnits="userSpaceOnUse" x="0" y="0" width="77" height="19">
<path d="M76.9648 0H0V19H76.9648V0Z" fill="white"/>
</mask>
<g mask="url(#mask0_10_22)">
<path d="M19.9609 0.00368628C20.3342 -0.0250463 73.8027 0.0363922 74.9983 0.036156C75.7022 0.102023 75.9711 0.153848 76.3432 0.504654C76.7153 0.855459 76.8819 1.23136 76.9621 2.00714C76.9621 3.37233 76.9763 13.9035 76.9769 17.0102C76.977 17.4867 76.8145 18.1347 76.5355 18.4547C76.2565 18.7747 75.5588 19.0063 75.0609 19.0064C68.2914 19.0091 20.0176 19.0216 19.832 18.9997C19.6551 18.9789 19.1933 18.6308 19.0287 18.4456C18.597 17.9602 18.6421 17.5065 18.6379 16.9049C18.635 16.4901 18.6372 16.0972 18.6376 15.6938L18.6379 12.0678L18.6372 5.29924C18.6373 4.11685 18.6344 2.93205 18.6422 1.74913C18.6463 1.11788 18.7235 0.712347 19.2695 0.32193C19.4482 0.194174 19.7277 0.0216386 19.9609 0.00368628Z" fill="#4253E7"/>
<path d="M29.7258 13.6535C29.1133 13.1758 28.7448 12.4491 28.6381 12.0938C28.0713 10.2062 28.4986 8.11883 30.3832 7.21881C31.273 6.79874 32.2927 6.74583 33.2213 7.07154C34.0633 7.36529 34.7507 7.98658 35.1275 8.79427C35.612 9.8387 35.6714 11.0304 35.293 12.1177C34.4398 14.5048 31.7191 15.0806 29.7258 13.6535Z" fill="#F9FAF8"/>
<path d="M31.6488 7.89604C34.8109 7.45957 35.2026 12.7909 32.379 13.3778C31.8209 13.4308 31.0795 13.3615 30.6402 12.9854C29.1209 11.6848 29.3564 8.21972 31.6488 7.89604Z" fill="#4253E7"/>
<path d="M67.8335 3.86164L69.9831 3.8595C69.9985 4.70737 69.9696 5.56376 69.9824 6.41459C69.9874 6.74955 69.9824 7.26955 69.9824 7.60158C70.6284 7.03376 71.4698 6.68742 72.353 6.70973C74.9513 6.77536 74.751 9.20057 74.7468 11.0781L74.7367 14.2477C74.0234 14.2287 73.2759 14.2395 72.5604 14.2395L72.5642 11.1574C72.5649 10.5677 72.6946 9.11976 72.1399 8.76083C71.3995 8.28185 70.439 8.72553 69.9824 9.41509C70.0019 11.022 70.0064 12.6291 69.9959 14.2362L67.8377 14.2322L67.8335 3.86164Z" fill="#F9FAF8"/>
<path d="M55.1712 6.73655C56.8029 6.53419 58.4952 7.21879 58.8762 8.94558C59.054 9.75105 59.0029 10.637 58.9995 11.4606L58.9875 14.2418C58.4099 14.2283 57.8007 14.2403 57.2208 14.243C57.1641 13.9316 57.1017 13.6485 57.0299 13.3401C56.9788 13.3894 56.9254 13.4362 56.8698 13.4804C55.5492 14.541 53.5255 14.9575 52.3391 13.4796C52.1317 13.1542 51.9731 12.7824 51.9441 12.3922C51.7589 9.88397 55.0321 9.62338 56.8758 9.48317C56.1689 7.83779 54.2238 8.46048 53.0336 9.13407C52.7344 8.66688 52.4849 8.21926 52.2185 7.73356C53.0231 7.18894 54.2099 6.82358 55.1712 6.73655Z" fill="#F9FAF8"/>
<path d="M56.7574 10.8343L56.789 10.8475C56.851 10.999 56.7992 11.834 56.7875 12.0455C56.5432 12.2639 56.2618 12.4368 55.9566 12.5563C55.4489 12.7521 54.8532 12.7811 54.35 12.5585C54.3297 12.543 54.3094 12.5268 54.2899 12.5101C54.152 12.3925 54.0855 12.2735 54.0697 12.0894C54.0047 11.3171 54.854 11.066 55.4635 10.9592C55.8773 10.8867 56.3294 10.8639 56.7574 10.8343Z" fill="#4253E7"/>
<path d="M51.0426 13.575C49.3578 14.5372 47.2811 14.8385 45.5848 13.7159C44.811 13.1992 44.277 12.3939 44.1022 11.4805C43.8906 10.4269 44.0849 9.25137 44.6704 8.35094C46.0778 6.18712 50.0204 6.05915 51.0208 8.67146C51.1407 8.98504 51.1967 9.23493 51.2609 9.56566C51.3342 10.1488 51.397 10.8404 51.329 11.2217L51.3023 11.2261C51.0523 11.253 49.9869 11.2231 49.6972 11.2217L46.1913 11.209C46.2266 11.3206 46.2668 11.4308 46.3108 11.5393C46.7516 12.6127 47.8306 12.844 48.8753 12.717C49.3894 12.6546 49.8355 12.4516 50.3083 12.2539C50.5491 12.6998 50.8178 13.1114 51.0426 13.575Z" fill="#F9FAF8"/>
<path d="M47.6795 8.37857C48.6611 8.24876 49.1545 8.87592 49.4214 9.71368C48.9974 9.73486 48.4491 9.72277 48.0155 9.72581L46.2631 9.72134C46.5017 8.87036 46.8257 8.57169 47.6795 8.37857Z" fill="#4253E7"/>
<path d="M63.6877 6.73669C64.9436 6.60354 65.9327 6.96924 66.9365 7.67798C66.5907 8.13496 66.2694 8.6103 65.9211 9.06258C64.7463 8.30408 63.0319 8.11524 62.3302 9.60678C61.9274 10.531 62.1611 11.9925 63.1728 12.424C64.4235 12.9575 65.0654 12.4293 66.1533 12.0145C66.2837 12.1762 66.4013 12.3822 66.5103 12.5613L66.985 13.3659C64.6475 15.3752 60.1551 14.5052 59.9089 11.0322C59.7342 8.56693 61.2814 6.93901 63.6877 6.73669Z" fill="#F9FAF8"/>
<path d="M23.319 7.05178C23.3573 6.09149 23.3117 4.93801 24.0849 4.23479C25.1495 3.26644 27.1006 3.3216 28.3204 3.90848C28.24 4.20971 28.1536 4.56898 28.0579 4.86111C26.9838 4.44567 25.2084 4.08485 24.683 5.48973C24.5057 5.96379 24.5354 6.54212 24.5347 7.04472C25.5397 7.02103 26.5458 7.0344 27.5511 7.04472V8.02578L24.5262 8.02555C24.5722 10.1011 24.5094 12.164 24.5257 14.2341L23.33 14.2248C23.3197 12.929 23.316 11.6332 23.3189 10.3373C23.3188 9.68201 23.3189 8.6594 23.319 8.02555C22.6291 8.02555 21.6201 8.02555 21.3286 8.02555L21.2704 7.97444C21.275 7.65568 21.2582 7.36089 21.2704 7.04472C21.9532 7.03151 22.6361 7.04908 23.319 7.05178Z" fill="#F9FAF8"/>
<path d="M38.6117 8.74525C39.974 7.12379 41.2604 6.42331 43.3641 7.15657C43.254 7.51502 43.1507 7.87561 43.0548 8.23818C42.2461 7.97241 41.7346 7.84583 40.897 8.09861C40.0815 8.34606 39.3953 8.90285 38.9856 9.64967C38.8524 9.89251 38.9023 9.81253 38.7812 10.1953C38.7617 10.4531 38.7578 10.3945 38.7305 11.1836V11.6484C38.7102 12.4733 38.753 13.3962 38.7568 14.242L37.5139 14.2376L37.5131 7.03074C37.856 7.02117 38.2671 7.03123 38.6117 7.03074C38.6117 7.53519 38.6117 8.25394 38.6117 8.74525Z" fill="#F9FAF8"/>
<path d="M12.5828 5.04828C13.6987 5.07243 14.402 5.21727 15.3438 5.85546C15.4696 5.94077 15.793 6.17577 15.8633 6.3203C15.8154 6.58364 14.8904 7.68579 14.6704 7.92209C14.5382 7.87583 14.1867 7.69559 14.0488 7.62417C13.3509 7.26265 12.3438 7.03515 11.8366 7.36883C11.0725 8.13616 12.1597 8.51428 12.7242 8.73684C14.4124 9.4024 16.3581 9.89189 16.1845 12.1521C16.1231 12.9395 15.7469 13.6691 15.1408 14.1761C14.2207 14.959 12.9689 15.1085 11.8059 15.0159C10.6425 14.8836 9.47994 14.4559 8.60785 13.6565C9.0094 13.1716 9.6642 12.3405 10.093 11.9313C10.9537 12.546 11.5969 12.8455 12.6774 12.8207C13.4486 12.8029 14.0854 12.2114 13.2145 11.7068C12.442 11.259 11.4767 10.9834 10.658 10.5889C10.3547 10.4461 10.074 10.2597 9.82474 10.0358C9.26686 9.53146 9.01515 8.97456 8.98268 8.23041C8.88997 6.10534 10.7067 5.1428 12.5828 5.04828Z" fill="#4253E7"/>
<path d="M0.118415 8.60162C0.690229 6.10665 3.02108 4.63182 5.54842 5.14527C6.33472 5.305 6.93826 5.78211 7.57818 6.22729C7.45383 6.51162 6.48789 7.69532 6.22919 7.7934C5.51385 7.43019 4.86784 7.07335 4.03487 7.36027C2.09607 8.02805 2.02812 11.7746 3.83021 12.6331C4.29421 12.8542 4.83533 12.887 5.3173 12.7325C5.64778 12.6496 6.25978 12.0806 6.40184 12.1973C6.73082 12.4674 7.45717 13.2282 7.65725 13.6306C7.6713 13.6497 7.62982 13.7418 7.61591 13.7591C7.21816 14.2556 6.52976 14.645 5.9299 14.8272C3.62394 15.5275 0.931571 14.4763 0.221866 12.0391C0.185323 11.9118 0.150835 11.784 0.118415 11.6556C0.118415 11.6556 -0.148019 9.76414 0.118415 8.60162Z" fill="#4253E7"/>
</g>
</g>
<defs>
<clipPath id="clip0_10_22">
<rect width="77" height="19" fill="white"/>
</clipPath>
</defs>
</svg>
