<svg width="46" height="52" viewBox="0 0 46 52" fill="none" xmlns="http://www.w3.org/2000/svg">
<mask id="mask0_7_58773" style="mask-type:luminance" maskUnits="userSpaceOnUse" x="0" y="0" width="46" height="52">
<path d="M0 0H45.0441V51.1697H0V0Z" fill="white"/>
</mask>
<g mask="url(#mask0_7_58773)">
<path d="M32.9577 0.753691C26.4078 0.062994 22.0105 -0.145427 19.7708 0.123581C15.8306 0.516188 12.4154 0.741573 9.525 0.797314C5.45669 1.64554 3.12987 1.96786 2.54454 1.75944C3.09359 6.3132 3.23388 9.74972 2.96782 12.0714L-0.00480652 44.0228C0.128223 47.1104 0.437821 49.0613 0.919149 49.8804C3.01861 49.0976 11.2084 49.5169 25.4911 51.1406C25.4064 51.6156 26.4392 50.7141 28.5894 48.436C37.5654 38.599 42.7511 31.7672 44.1516 27.9381L45.1481 10.3968C44.6305 7.62673 44.408 5.30017 44.4829 3.41469L32.9577 0.753691Z" fill="#FFC107"/>
</g>
</svg>
