<svg width="13" height="13" viewBox="0 0 13 13" fill="none" xmlns="http://www.w3.org/2000/svg">
<mask id="mask0_7_81528" style="mask-type:luminance" maskUnits="userSpaceOnUse" x="0" y="0" width="14" height="13">
<path d="M0 0H13.0031V12.4083H0V0Z" fill="white"/>
</mask>
<g mask="url(#mask0_7_81528)">
<mask id="mask1_7_81528" style="mask-type:luminance" maskUnits="userSpaceOnUse" x="-44" y="-5" width="76" height="80">
<path d="M-43.5541 10.3508L14.9623 -4.53436L31.1896 59.5066L-27.3268 74.3917L-43.5541 10.3508Z" fill="white"/>
</mask>
<g mask="url(#mask1_7_81528)">
<mask id="mask2_7_81528" style="mask-type:luminance" maskUnits="userSpaceOnUse" x="-44" y="-5" width="76" height="80">
<path d="M-43.5541 10.3508L14.9623 -4.53436L31.1896 59.5066L-27.3268 74.3917L-43.5541 10.3508Z" fill="white"/>
</mask>
<g mask="url(#mask2_7_81528)">
<mask id="mask3_7_81528" style="mask-type:luminance" maskUnits="userSpaceOnUse" x="-44" y="-5" width="76" height="80">
<path d="M-43.5541 10.3508L14.9623 -4.53436L31.1896 59.5066L-27.3268 74.3917L-43.5541 10.3508Z" fill="white"/>
</mask>
<g mask="url(#mask3_7_81528)">
<path d="M0.215286 7.81336C1.07635 6.06359 1.97612 4.30655 3.29433 2.867C4.61496 1.42744 6.42175 0.332017 8.37125 0.283547C10.3208 0.232653 12.3549 1.42744 12.8725 3.30807C11.8591 1.88063 9.62416 1.79823 8.13422 2.72643C6.64428 3.65221 5.77353 5.30988 5.16401 6.94817C4.55449 8.5913 4.13121 10.3241 3.22177 11.8218C2.2954 10.4453 1.3666 9.08327 0.215286 7.81336Z" fill="#AA305C"/>
</g>
</g>
</g>
</g>
</svg>
