<svg width="43" height="37" viewBox="0 0 43 37" fill="none" xmlns="http://www.w3.org/2000/svg">
<mask id="mask0_7_81545" style="mask-type:luminance" maskUnits="userSpaceOnUse" x="0" y="0" width="43" height="37">
<path d="M0 0H42.1053V36.6045H0V0Z" fill="white"/>
</mask>
<g mask="url(#mask0_7_81545)">
<mask id="mask1_7_81545" style="mask-type:luminance" maskUnits="userSpaceOnUse" x="-17" y="-37" width="76" height="80">
<path d="M-16.3095 -21.2904L42.2069 -36.1755L58.4341 27.8654L-0.0822582 42.7505L-16.3095 -21.2904Z" fill="white"/>
</mask>
<g mask="url(#mask1_7_81545)">
<mask id="mask2_7_81545" style="mask-type:luminance" maskUnits="userSpaceOnUse" x="-17" y="-37" width="76" height="80">
<path d="M-16.3095 -21.2904L42.2069 -36.1755L58.4341 27.8654L-0.0822582 42.7505L-16.3095 -21.2904Z" fill="white"/>
</mask>
<g mask="url(#mask2_7_81545)">
<mask id="mask3_7_81545" style="mask-type:luminance" maskUnits="userSpaceOnUse" x="-17" y="-37" width="76" height="80">
<path d="M-16.3095 -21.2904L42.2069 -36.1755L58.4341 27.8654L-0.0822582 42.7505L-16.3095 -21.2904Z" fill="white"/>
</mask>
<g mask="url(#mask3_7_81545)">
<path d="M13.1603 0.511362C11.9413 1.22145 10.7126 2.0212 9.97242 3.22568C9.22987 4.42774 9.14763 6.1363 10.1345 7.13721C11.1213 8.13811 12.7201 8.09691 14.1254 7.98301C17.0932 7.75035 20.0634 7.52254 23.0336 7.28746C25.4184 7.10085 27.8154 6.91667 30.193 7.15902C32.5682 7.40137 34.9458 8.10176 36.8566 9.53162C39.3552 11.4026 40.8451 14.3883 41.3772 17.4613C41.965 20.8445 41.3942 24.5719 39.1859 27.2183C37.0985 29.7266 33.8864 30.9626 30.8267 32.092C26.7415 33.6067 22.6296 35.1189 18.3388 35.846C15.6564 36.2967 12.8797 36.4349 10.224 35.8435C7.5682 35.2546 5.03579 33.8805 3.37653 31.7309C1.71728 29.5812 1.05213 26.6076 1.98093 24.0508C2.9073 21.4916 5.55581 19.5601 8.26721 19.783C6.27418 20.4737 4.89308 22.4973 4.73344 24.5961C4.57139 26.6948 5.51711 28.7887 7.01673 30.2622C8.51876 31.7357 10.5263 32.6203 12.5943 33.0274C17.6325 34.0211 23.1448 32.1114 26.4803 28.2095C27.9218 26.53 28.9909 24.1259 28.0258 22.1362C27.484 21.0214 26.398 20.2701 25.2782 19.7418C22.412 18.3992 19.1394 18.2635 15.9636 18.2393C12.7927 18.2199 9.54914 18.2805 6.54266 17.2699C3.53859 16.2617 0.761885 13.9351 0.195902 10.8233C-0.321707 7.94908 1.18516 4.96575 3.4491 3.10451C5.71303 1.24084 8.61551 0.334447 13.1603 0.511362Z" fill="#AA305C"/>
</g>
</g>
</g>
</g>
</svg>
