<svg width="30" height="32" viewBox="0 0 30 32" fill="none" xmlns="http://www.w3.org/2000/svg">
<mask id="mask0_7_81511" style="mask-type:luminance" maskUnits="userSpaceOnUse" x="0" y="0" width="30" height="32">
<path d="M0 0H29.1022V31.0208H0V0Z" fill="white"/>
</mask>
<g mask="url(#mask0_7_81511)">
<mask id="mask1_7_81511" style="mask-type:luminance" maskUnits="userSpaceOnUse" x="-21" y="-9" width="76" height="80">
<path d="M-20.0247 6.62823L38.4917 -8.2569L54.719 55.784L-3.79742 70.6692L-20.0247 6.62823Z" fill="white"/>
</mask>
<g mask="url(#mask1_7_81511)">
<mask id="mask2_7_81511" style="mask-type:luminance" maskUnits="userSpaceOnUse" x="-21" y="-9" width="76" height="80">
<path d="M-20.0247 6.62823L38.4917 -8.2569L54.719 55.784L-3.79742 70.6692L-20.0247 6.62823Z" fill="white"/>
</mask>
<g mask="url(#mask2_7_81511)">
<mask id="mask3_7_81511" style="mask-type:luminance" maskUnits="userSpaceOnUse" x="-21" y="-9" width="76" height="80">
<path d="M-20.0247 6.62823L38.4917 -8.2569L54.719 55.784L-3.79742 70.6692L-20.0247 6.62823Z" fill="white"/>
</mask>
<g mask="url(#mask3_7_81511)">
<path d="M19.2289 7.81334C19.8844 6.24533 18.5928 4.33804 16.9287 3.98906C15.2646 3.6425 13.5231 4.55858 12.471 5.90362C11.4261 7.24624 10.952 8.94269 10.6352 10.6149C9.88052 14.604 9.88778 18.7312 10.64 22.7179C10.8722 23.9248 11.1842 25.1583 11.9098 26.1447C12.6355 27.1383 13.8569 27.8557 15.0784 27.6618C17.0158 27.3516 17.918 25.1244 18.3388 23.2171C19.2507 19.0438 19.553 14.7494 19.2507 10.4937C19.1467 9.09295 18.9774 7.68005 19.2047 6.29623C19.4297 4.90999 20.1093 3.5189 21.3284 2.80881C23.0215 1.82487 25.3169 2.47195 26.6689 3.88969C28.0186 5.30502 28.5846 7.29471 28.8119 9.24078C29.6803 16.5258 26.1441 24.1744 20.0247 28.2652C17.323 30.0683 14.0625 31.2146 10.8335 30.8729C6.12907 30.3713 2.1043 26.5736 0.829625 22.032C-0.442629 17.4879 0.839299 12.4228 3.71033 8.65914C6.57895 4.89545 10.8819 2.36774 15.4484 1.11721C17.6834 0.508913 20.1021 0.191435 22.2886 0.940296C24.4752 1.69158 26.3352 3.75155 26.2674 6.0563" fill="#AA305C"/>
</g>
</g>
</g>
</g>
</svg>
