<svg width="56" height="78" viewBox="0 0 56 78" fill="none" xmlns="http://www.w3.org/2000/svg">
<mask id="mask0_7_58797" style="mask-type:luminance" maskUnits="userSpaceOnUse" x="0" y="0" width="56" height="78">
<path d="M0 0H55.7276V77.5519H0V0Z" fill="white"/>
</mask>
<g mask="url(#mask0_7_58797)">
<mask id="mask1_7_58797" style="mask-type:luminance" maskUnits="userSpaceOnUse" x="-11" y="-2" width="76" height="80">
<path d="M-10.7368 13.4528L47.7796 -1.43231L64.0069 62.6086L5.49051 77.4938L-10.7368 13.4528Z" fill="white"/>
</mask>
<g mask="url(#mask1_7_58797)">
<mask id="mask2_7_58797" style="mask-type:luminance" maskUnits="userSpaceOnUse" x="-11" y="-2" width="76" height="80">
<path d="M-10.7368 13.4528L47.7796 -1.43231L64.0069 62.6086L5.49051 77.4938L-10.7368 13.4528Z" fill="white"/>
</mask>
<g mask="url(#mask2_7_58797)">
<mask id="mask3_7_58797" style="mask-type:luminance" maskUnits="userSpaceOnUse" x="-11" y="-2" width="76" height="80">
<path d="M-10.7368 13.4528L47.7796 -1.43231L64.0069 62.6086L5.49051 77.4938L-10.7368 13.4528Z" fill="white"/>
</mask>
<g mask="url(#mask3_7_58797)">
<path d="M11.9364 11.1844C25.4088 7.43282 28.3282 3.49463 41.9747 0.455566C41.9747 0.455566 50.3169 8.43372 50.2854 8.44342C50.2854 8.44342 42.7197 35.0219 43.1163 35.3273C46.4082 40.4942 55.4325 64.7486 55.4325 64.7486L5.45182 77.009L0.541794 57.8149L6.78454 31.0837L8.90093 17.4613L11.9364 11.1844Z" fill="#F8D038"/>
</g>
</g>
</g>
</g>
</svg>
