<svg width="54" height="58" viewBox="0 0 54 58" fill="none" xmlns="http://www.w3.org/2000/svg">
<mask id="mask0_7_58766" style="mask-type:luminance" maskUnits="userSpaceOnUse" x="0" y="0" width="54" height="58">
<path d="M0 0H53.87V57.6987H0V0Z" fill="white"/>
</mask>
<g mask="url(#mask0_7_58766)">
<path fill-rule="evenodd" clip-rule="evenodd" d="M48.8995 12.7912L48.1642 11.5965L47.9538 11.6498C47.8788 11.6789 47.8014 11.7273 47.7264 11.7564C46.0333 12.3865 46.3502 11.2354 46.0091 13.0457C47.5257 13.0457 48.4013 13.0287 48.8995 12.7912ZM20.1335 1.37414L18.5976 0.00244141L16.8392 0.976688C16.9795 1.38141 17.1972 2.07938 17.5286 3.31294C18.4767 3.06817 19.3837 2.31446 20.1335 1.37414ZM2.77671 17.6237L3.49749 23.0475C3.83853 23.0451 4.22069 23.0329 4.65606 23.0329C4.4287 19.0584 5.28977 20.544 4.30777 16.9039C2.31231 16.9524 3.38623 16.6664 2.77671 17.6237ZM2.65094 31.3819L2.43809 32.7391C2.66303 32.7851 2.93151 32.8045 3.2532 32.8045C4.51336 32.8045 3.37897 32.916 4.22069 32.4434C3.65713 31.6679 3.31367 31.4425 2.65094 31.3819ZM0.788512 43.3419L0.37249 46.0174C0.940892 45.586 1.29645 44.8881 1.24565 43.9792C1.23114 43.7127 1.0449 43.4679 0.788512 43.3419ZM35.5505 54.725L37.3138 55.2921C37.5895 54.9819 37.7758 54.4584 38.095 53.712C38.8932 54.2718 39.2222 54.6814 40.4654 54.7953C40.1268 53.5375 39.5898 52.8177 38.9827 51.9113H36.0125C36.1867 54.9989 35.6037 53.0504 35.5505 54.725ZM42.7898 57.0516L44.7925 57.6962L45.91 56.8189C45.5447 56.659 45.5254 56.7268 44.9449 56.4966C44.1854 56.1961 44.9255 56.4893 44.2217 56.1864C44.0354 56.1064 44.1636 56.0676 43.4961 55.8762C43.4961 55.8762 43.1405 56.3851 42.7898 57.0516ZM51.5504 52.4033L51.8044 52.2046C51.7198 52.2264 51.6327 52.2482 51.5432 52.27L51.5504 52.4033ZM53.5024 43.9623L53.7902 41.0613C53.4443 41.248 53.2266 41.4443 52.0753 41.4733C52.3486 43.5236 52.6002 41.9387 52.8783 43.9962C53.1202 43.9914 53.3258 43.9768 53.5024 43.9623ZM49.9251 18.0914C50.6483 18.026 51.8431 17.8685 50.9554 16.9548C50.5951 16.584 50.4935 16.6761 50.2129 16.9718C49.6687 17.5413 49.9807 16.8021 49.9251 18.0914ZM46.1615 22.6452L45.5205 21.8527C44.4902 22.7349 44.9134 21.6927 44.882 23.365C46.3478 23.2317 45.5133 23.76 46.1615 22.6452ZM27.5082 10.6755C27.1309 9.42015 27.1309 9.35472 25.7764 9.23355C26.1659 10.6755 25.9433 10.6368 27.5082 10.6755ZM41.5949 16.6519C41.2152 15.3941 41.2152 15.3311 39.8631 15.2075C40.2526 16.6519 40.0276 16.6131 41.5949 16.6519ZM31.4169 10.5228L31.3347 9.08086H30.0141L30.0963 10.5228H31.4169ZM16.5756 19.9212C16.7328 18.9566 16.8658 19.2426 16.8247 18.4792C16.7908 17.9242 15.7653 17.0324 15.3033 17.9363C14.6817 19.165 15.8185 19.7273 16.5756 19.9212ZM28.6765 17.6455C27.7719 17.6334 28.7128 17.5655 27.9243 18.0042C28.5241 19.9987 30.2197 19.6134 30.2825 19.5819C30.7421 19.3468 30.6792 18.8839 30.372 18.4671C30.7808 17.9824 31.0662 17.7594 31.2742 16.4265C29.8302 16.4628 30.447 16.2883 29.4916 16.9669C29.0127 17.3062 28.7999 17.4322 28.6765 17.6455ZM34.0267 19.8654C32.7642 19.8654 33.8985 19.754 33.0568 20.2241C33.6542 22.2186 35.3522 21.8333 35.4127 21.8018C36.3584 21.3195 35.0958 19.8654 34.0267 19.8654ZM42.5479 31.3601C43.3026 31.3601 42.9228 31.2365 43.8468 30.999L43.7234 28.8348C42.7197 28.8615 42.5286 28.9996 41.7643 29.1959C41.8151 30.0999 41.7256 31.3601 42.5479 31.3601ZM32.9528 27.7733L34.9144 27.4122C34.45 26.5543 34.0824 26.1835 33.8018 25.248C31.0372 25.5001 31.5838 27.7733 32.9528 27.7733ZM51.594 35.7078L53.5532 35.3467C53.0888 34.4912 52.7211 34.118 52.4405 33.185C49.6784 33.437 50.2226 35.7078 51.594 35.7078ZM50.9046 24.7076C50.7378 25.7376 50.9845 25.2504 50.3048 25.7885C50.6991 26.5809 50.9627 27.2062 51.1102 28.3137C52.4405 28.1901 52.4817 28.1417 52.3898 26.5107C52.2978 24.8796 52.2519 24.8312 50.9046 24.7076ZM37.8895 14.6549C39.2077 14.6549 39.7277 14.8706 40.4896 13.9327C40.1123 13.0506 39.9647 13.259 38.5522 12.3308C34.4524 9.63827 37.3235 13.8091 37.8895 14.6549ZM39.2101 8.19386C40.8258 8.19386 38.9658 6.74946 42.7584 6.74946C42.3302 3.53105 40.1147 6.56527 37.7661 6.02968C37.8677 7.33837 38.0346 8.19386 39.2101 8.19386ZM24.0591 27.6206C24.0978 25.7642 23.6963 26.9396 24.6566 26.5373C24.6856 25.0687 25.8296 23.6219 26.4126 22.5725C24.0277 22.5725 24.7993 21.8527 22.412 21.8527C22.2717 22.8803 22.3201 23.4207 22.7192 24.9354C23.0529 26.2005 23.2972 27.0366 24.0591 27.6206ZM9.66284 16.4822C11.2592 15.2608 9.94341 15.7382 10.9254 13.339C11.027 13.0918 11.951 12.687 10.6134 9.9921C9.25891 10.3411 9.0243 10.6828 8.4051 11.7952C8.93238 13.5401 8.99285 12.212 9.51772 13.9569C8.2237 13.9909 8.73888 13.86 7.88991 14.318C8.43896 16.1405 8.80661 16.235 9.66284 16.4822ZM20.6245 19.308L20.7068 20.75C21.6404 20.1926 22.6393 19.8872 20.6245 19.308ZM13.3514 7.4135C14.2391 7.3311 14.2391 7.24143 14.9816 7.0524C14.2197 6.00545 14.9889 6.37139 13.2885 6.33019L13.3514 7.4135ZM17.4947 10.6561L18.184 10.0066C17.3085 8.82882 18.2929 9.35472 16.7521 9.21416C16.8658 10.0624 16.7908 10.5277 17.4947 10.6561ZM39.6866 46.8632L39.6043 45.4212H38.6151L38.6973 46.8632H39.6866ZM43.5614 51.1891C43.4114 50.6487 43.4283 50.1083 42.8406 50.1083C41.9263 50.1083 42.0618 50.3845 41.9118 51.1891H43.5614ZM28.2822 8.85306L28.2194 7.77218H26.5698L26.6109 8.49195C27.3752 8.68583 27.3873 8.77066 28.2822 8.85306ZM10.0982 37.1304C11.3584 37.1304 10.2216 37.2419 11.0657 36.7693C10.4344 35.8242 10.8577 36.0253 9.68461 35.6884C9.50804 36.6433 9.72815 35.9865 9.41613 36.7693C9.42339 36.7766 10.0523 37.1304 10.0982 37.1304ZM17.9615 37.6951C18.0945 38.6863 18.0365 38.4779 18.3727 39.1371C19.1951 38.5094 19.2313 38.7711 19.2604 37.334L17.9615 37.6951C17.3859 36.8372 17.5407 37.3195 17.219 36.2531H16.2297C16.2708 36.7742 16.0894 38.6694 17.9615 37.6951ZM23.8487 6.33019C23.0433 5.22266 24.0301 5.74856 22.4894 5.61042L22.5716 7.0524C24.0374 6.9191 23.2029 7.445 23.8487 6.33019ZM25.6869 38.7736C25.1984 38.9044 24.7025 38.8535 24.7388 39.4958C24.7775 40.1889 25.029 40.7099 25.6555 40.4627C26.2723 40.2204 25.8224 39.7817 25.6869 38.7736ZM27.4381 18.5882H26.7778L26.9205 21.1111C27.9702 20.2314 27.8275 20.0302 27.4381 18.5882ZM30.7179 35.3152C30.5849 34.3264 30.6405 34.5324 30.3043 33.8757H28.9861L29.0683 35.3152H30.7179ZM19.2942 36.4107C19.183 35.5624 18.8951 34.6076 18.2034 34.6076C16.9408 34.6076 18.0776 34.4961 17.2335 34.9662C17.8696 36.1416 17.7293 36.2677 19.2942 36.4107ZM45.0078 47.5854C44.108 47.3527 44.3644 47.2243 43.6654 47.2243C42.7535 47.2243 42.889 47.503 42.739 48.3052C44.4176 48.4579 44.6522 49.4806 45.0078 47.5854ZM43.4767 55.5151C43.4163 54.7202 43.4743 53.712 42.7148 53.712H42.0545C41.6893 54.6693 41.7739 54.0973 41.8271 55.5151H43.4767ZM36.5084 49.0274C37.7685 48.6542 37.7685 48.5403 37.7056 46.8632C36.98 46.8802 36.0512 46.7541 36.0972 47.5854C36.102 47.6751 36.4624 48.9111 36.5084 49.0274ZM7.57306 50.828C8.7921 50.101 8.09067 50.7747 8.57683 49.8247L8.86224 49.1001C8.98802 48.7317 8.89852 49.2746 9.07993 48.3052C7.99633 47.6993 5.79529 46.5748 7.00949 48.7463C7.36263 49.3788 7.21992 48.9377 7.35053 49.6187C7.48114 50.2973 7.05787 49.7569 7.57306 50.828ZM11.0415 47.9441C11.264 46.5675 11.9413 45.4212 8.91545 45.4212L9.03881 47.5854C10.045 47.6096 10.2506 47.7478 11.0415 47.9441ZM40.2816 51.5502L40.833 50.0089C41.2128 48.9959 41.2031 50.3312 41.1499 49.3885C41.0145 46.9771 38.5086 49.357 38.5304 49.7472C38.5981 50.9226 39.5463 51.1383 40.2816 51.5502ZM22.7845 41.2988C22.7433 40.5524 22.5861 40.567 22.2016 40.058C21.5654 39.2098 21.9476 39.6581 21.014 39.1371C20.4238 40.1962 20.3923 39.8544 20.4963 41.66H19.5071L19.5676 42.7408C21.9887 43.3491 22.7941 41.4612 22.7845 41.2988ZM47.6442 53.3533C47.0903 51.9283 46.6307 52.9292 46.4905 50.4694C45.6947 50.5421 45.4407 50.4524 45.119 51.0922C44.8917 51.5478 44.9884 51.2134 45.1142 51.6957L45.6246 52.6311C43.5856 53.2346 44.1201 55.1346 45.8519 54.6354C46.9452 54.3203 46.875 53.9398 47.6442 53.3533ZM33.572 39.4982C34.8467 39.4982 35.4223 36.3258 33.9251 34.0914C32.8222 35.0147 33.7026 33.8442 33.1705 35.3492C32.7134 36.6433 32.486 39.4982 33.572 39.4982ZM34.3436 44.699C33.7703 43.2183 33.8695 43.9841 30.9622 43.257C29.8907 45.1813 28.6257 45.3558 27.992 43.257C26.6254 43.3806 27.3752 43.2425 26.6931 43.955L25.4547 45.0577C27.8662 45.0577 32.694 45.5884 34.3436 44.699ZM3.4733 42.5373C4.09008 41.4297 4.46982 41.4176 4.99953 40.0192C5.05032 39.8859 5.41797 38.6936 5.41313 38.4052C5.39862 36.5367 3.95947 38.2889 2.72834 39.7357C2.01481 40.5766 1.39561 41.3013 1.16342 42.5373H3.4733ZM11.5978 28.6433C11.4987 26.8863 11.2108 27.0026 12.0284 26.0357L14.0117 24.6785C13.9126 23.3771 13.9754 23.983 13.6586 23.1687C12.5823 20.3865 12.396 19.9599 11.0875 19.6328C9.98695 22.5022 11.6462 22.5652 8.71228 24.3174C9.41129 25.7303 8.90578 25.6624 8.87433 27.2014C10.0305 28.0132 9.82973 28.4834 11.5978 28.6433Z" fill="#E8E2D6"/>
</g>
</svg>
