<svg width="1" height="1" viewBox="0 0 1 1" fill="none" xmlns="http://www.w3.org/2000/svg">
<path d="M0.287671 0.487209C0.333626 0.55022 0.437632 0.496904 0.507775 0.387846C0.573081 0.283636 0.602106 0.128532 0.415864 0.135802C0.348139 0.145497 0.297346 0.16246 0.261065 0.184272C0.25139 0.046132 0.190922 -0.00233732 0.147384 8.60274e-05C0.101428 8.60274e-05 0.0772411 0.0485563 0.0216101 0.072791C-0.0243453 0.0994496 0.0070979 0.177002 0.077241 0.232742C0.106266 0.25213 0.140128 0.269094 0.171572 0.273941C0.166734 0.288482 0.164315 0.303024 0.164315 0.317564C0.169153 0.382999 0.241714 0.414504 0.285252 0.489633L0.287671 0.487209Z" fill="#616739"/>
</svg>
