<svg width="40" height="43" viewBox="0 0 40 43" fill="none" xmlns="http://www.w3.org/2000/svg">
<path d="M24.4565 9.22868L24.8048 9.23353C26.51 9.22141 27.7508 9.65522 28.5272 10.5325C28.7498 10.7603 29.0086 11.1432 29.3012 11.6813C29.4512 11.989 29.5552 12.2968 29.6132 12.607C29.6979 13.0408 29.7148 13.2711 29.6665 13.2953C29.5238 13.7267 29.3593 14.1048 29.173 14.4271C28.5538 15.3456 27.5839 16.1478 26.2633 16.836C26.0263 16.9403 25.7384 17.0445 25.395 17.1487L19.2562 18.9711C19.1426 17.5873 19.0893 16.7924 19.0966 16.5888C19.1764 15.7018 19.2224 15.1081 19.2345 14.81C19.1885 13.9133 19.2079 12.7331 19.2949 11.2668C19.3433 10.7434 19.4183 10.4017 19.5175 10.2393C19.6215 10.0284 19.7569 9.90241 19.9262 9.85879C21.1308 9.72792 22.3329 9.52192 23.5277 9.2408L24.4565 9.22868ZM17.5776 0L17.2535 0.0024235C16.0369 0.0872461 14.9968 0.215691 14.1309 0.390183C7.03438 2.27809 3.21279 3.1142 2.67099 2.89366C2.03244 4.72097 1.86555 6.415 2.16789 7.97331L6.46114 7.85213C6.65464 7.88849 6.77316 8.07267 6.81428 8.40469C6.52887 11.7007 6.33053 14.5483 6.22169 16.9451L5.82985 35.6448L0.305469 38.2743C-0.125065 40.0944 -0.100878 41.4976 0.38045 42.4839L2.58875 41.8902C7.8761 42.038 15.0017 41.5678 23.9631 40.4797C24.2316 40.2083 24.2001 39.2728 23.8663 37.6733C23.46 37.5109 22.1636 37.4842 19.9794 37.5957C19.7497 37.54 19.6118 37.4527 19.5707 37.3388L18.5693 25.8393C20.9735 25.2674 24.1663 24.3028 28.1499 22.9505C30.2977 22.175 32.1215 21.3971 33.6187 20.6143C35.3021 19.4195 36.3252 18.61 36.6905 18.1884C37.8708 16.5573 38.5626 15.3916 38.7657 14.6912C39.4768 12.4786 39.4454 10.5883 38.669 9.02268C38.2771 7.99754 36.3349 6.00301 32.8423 3.03907C29.964 1.11723 24.875 0.104211 17.5776 0Z" fill="#FE5721"/>
</svg>
