<svg width="45" height="38" viewBox="0 0 45 38" fill="none" xmlns="http://www.w3.org/2000/svg">
<path fill-rule="evenodd" clip-rule="evenodd" d="M29.6633 34.879L32.1643 11.6304C32.3336 10.0381 32.3941 7.86183 31.5862 6.415C30.9598 5.29292 29.9802 4.85427 28.72 4.85427C27.6292 4.85427 26.5843 5.35835 25.7063 5.96665C24.4606 6.82457 23.3432 7.88364 22.3394 9.01299C21.2437 10.249 20.2158 11.5455 19.2749 12.9076C18.4912 14.0393 17.7366 15.2196 17.0883 16.441L15.1074 34.9056L18.7282 35.6036L18.5299 37.4673H0L0.203174 35.577L4.04654 34.8766L7.28764 4.7137H3.23868L3.44911 2.75309L18.8564 0L17.664 11.1093C18.8153 9.31835 20.1021 7.61221 21.5485 6.04905C23.1521 4.3114 24.9928 2.81368 27.0946 1.71584C29.1143 0.661615 31.2766 0.140563 33.5551 0.140563C35.2313 0.140563 37.0163 0.356254 38.5498 1.07603C39.8559 1.6916 40.9225 2.60041 41.6627 3.84852C42.4173 5.11843 42.8333 6.55072 43.0365 8.00724C43.2711 9.71338 43.2421 11.4607 43.0583 13.1693L40.7242 34.896L44.6982 35.5963L44.4974 37.4673H25.6869L25.8901 35.5794L29.6633 34.879Z" fill="#BF6463"/>
</svg>
