<svg width="24" height="38" viewBox="0 0 24 38" fill="none" xmlns="http://www.w3.org/2000/svg">
<path d="M13.5693 12.3817H22.492C22.492 12.3817 23.4667 0 14.1739 0C4.87392 0 0.500854 5.38986 0.500854 11.2668C0.500854 24.361 19.8894 16.5331 19.8894 26.4113C19.8894 30.6985 17.0547 32.3707 13.8087 32.3707C11.4432 32.3707 13.1992 27.245 13.1992 27.245H0.000176127C0.000176127 27.245 -0.17881 37.1862 10.8748 37.1862C19.9765 37.1862 23.4208 32.0483 23.4208 25.7109C23.4208 11.4026 3.90401 20.7209 3.90401 10.6561C3.90401 6.64766 7.24912 5.04088 10.3161 5.04088C13.383 5.04088 15.7751 9.72308 13.5693 12.3817Z" fill="#DD91BE"/>
</svg>
