<svg width="39" height="37" viewBox="0 0 39 37" fill="none" xmlns="http://www.w3.org/2000/svg">
<path fill-rule="evenodd" clip-rule="evenodd" d="M24.7098 34.1713L24.8017 33.3158C25.9191 33.454 25.982 33.3425 26.398 34.4185C25.3652 34.9759 23.0844 34.9759 20.9341 34.8984L20.9365 34.8717L24.7098 34.1713ZM25.2588 29.0747L25.8103 23.949C25.8611 23.9078 25.9167 23.8642 25.9796 23.8109C27.4768 26.0453 26.9011 29.2177 25.6265 29.2177C25.4813 29.2177 25.3604 29.1644 25.2588 29.0747ZM26.5335 17.2117L26.6085 16.5137C26.7222 16.6979 26.8407 16.8966 26.9689 17.1317L26.5335 17.2117ZM27.1406 11.5674L27.2107 10.9227C27.2373 10.6634 27.2615 10.3895 27.2809 10.1084C27.8009 10.5737 28.0428 11.2256 27.4671 11.5213C27.4526 11.5286 27.3268 11.5625 27.1406 11.5674ZM14.7615 11.5746C14.643 11.7394 14.5269 11.9042 14.4108 12.069C14.4229 11.9139 14.4423 11.7491 14.4664 11.5722C14.5729 11.5722 14.6696 11.5722 14.7615 11.5746ZM11.1237 25.1486L11.0222 26.0962C9.8007 25.9629 9.87568 25.7739 9.28793 24.6858C10.1321 24.2156 8.99527 24.3271 10.2578 24.3271C10.6811 24.3271 10.9496 24.6809 11.1237 25.1486ZM10.9061 27.1674L10.7513 28.6239C10.6594 28.687 10.5529 28.7621 10.4272 28.8566C10.091 28.1974 10.149 28.4058 10.016 27.4146C8.14387 28.3889 8.32528 26.4937 8.28416 25.9726H9.27584C9.59511 27.039 9.44031 26.5567 10.016 27.4146L10.9061 27.1674ZM3.27013 36.7596H1.06182L0.969912 35.1407C3.29673 35.1407 3.4346 35.8193 3.27013 36.7596ZM0.945724 16.933L1.08117 15.68C1.11504 15.5055 1.13922 15.3529 1.13439 15.1808L1.2916 13.7097C3.49023 12.2629 2.11397 12.0327 3.14193 9.35228C4.45047 9.67945 4.63671 10.106 5.71305 12.8882C6.0299 13.7025 5.96701 13.0966 6.06618 14.398L4.08282 15.7552C3.26529 16.7221 3.55312 16.6058 3.65229 18.3628C1.89387 18.2053 2.08253 17.74 0.945724 16.933ZM2.13574 5.86244L2.33408 4.00604H0C0.769157 3.58435 0.307179 3.70795 1.57218 3.67645C1.06666 1.99212 0.991681 3.17236 0.512771 1.68675L3.25803 1.19478C3.63294 2.58103 3.0597 2.867 2.97988 3.05846C2.1043 5.20325 3.05728 5.05057 2.13574 5.86244ZM9.08718 0.15268L9.95066 0L9.54916 0.375642C9.32905 0.334443 9.18393 0.261738 9.08718 0.15268ZM12.8507 9.07843L12.7419 10.1084L12.679 9.02753C12.7395 9.0445 12.7951 9.06146 12.8507 9.07843ZM12.754 10.3314C12.9789 9.98239 13.2111 9.63825 13.4457 9.29654C14.3624 9.71338 13.5401 10.0042 12.7612 10.4695L12.754 10.3314ZM38.1265 12.2556C38.1192 12.3235 38.1144 12.3913 38.1047 12.4616L38.0926 12.5901C37.6814 13.4044 38.291 12.9609 36.9365 13.0845C36.9679 11.4123 36.5446 12.4544 37.575 11.5722L38.1265 12.2556ZM29.7673 36.7596H28.3766C28.691 36.5415 29.2715 36.5948 29.7601 36.5827L29.7673 36.7596ZM33.6494 6.37138C33.2697 5.11358 33.2697 5.05057 31.9176 4.92697C32.307 6.37138 32.0821 6.3326 33.6494 6.37138ZM8.63004 9.64068C8.78725 8.67612 8.92028 8.9621 8.87917 8.1987C8.8453 7.64371 7.81976 6.75187 7.35778 7.65583C6.73617 8.88455 7.87297 9.4468 8.63004 9.64068ZM34.6024 21.0796C35.357 21.0796 34.9773 20.956 35.9012 20.7185L35.7779 18.5543C34.7741 18.581 34.583 18.7191 33.8187 18.9154C33.8695 19.8194 33.78 21.0796 34.6024 21.0796ZM29.9439 4.37441C31.2621 4.37441 31.7821 4.59011 32.544 3.65221C32.1667 2.77006 32.0192 2.97848 30.6066 2.05028C26.5069 -0.642227 29.3779 3.52861 29.9439 4.37441ZM31.741 36.5827L31.6588 35.1407H30.6695L30.7518 36.5827H31.741ZM2.15267 26.8499C3.41283 26.8499 2.27845 26.9614 3.12016 26.4888C2.48888 25.5437 2.91215 25.7448 1.73907 25.408C1.5625 26.3628 1.78261 25.706 1.47059 26.4888C1.47785 26.4961 2.10672 26.8499 2.15267 26.8499Z" fill="#B05F5D"/>
</svg>
