<svg width="20" height="53" viewBox="0 0 20 53" fill="none" xmlns="http://www.w3.org/2000/svg">
<path d="M7.25862 52.7062C4.70443 52.7062 2.85894 52.0737 1.71488 50.8111C0.570821 49.5484 0 47.6217 0 45.0334C0 42.4451 1.30612 35.5042 3.92076 24.2132L0.491003 19.0754C5.59211 16.0193 9.61688 14.4901 12.5556 14.4901C14.2294 14.4901 15.4146 14.8488 16.1088 15.5613C16.8005 16.2738 17.1488 17.425 17.1488 19.0148C17.1488 19.6279 16.3942 23.2147 14.8825 29.7775C13.3708 36.3404 12.6161 41.0274 12.6161 43.8411C12.6161 46.6523 13.2498 48.6105 14.5148 49.7108C12.2291 51.7078 9.81038 52.7062 7.25862 52.7062ZM19.1709 4.79853C19.1709 6.36895 18.3533 7.71399 16.7207 8.83365C15.0856 9.95573 13.2305 10.5156 11.1479 10.5156C9.06541 10.5156 7.42067 10.1084 6.21614 9.29412C5.01161 8.47982 4.40935 7.37713 4.40935 5.99089C4.40935 4.11752 5.28735 2.64888 7.04335 1.58981C8.79935 0.530746 10.6569 0 12.6161 0C14.5777 0 16.1595 0.407148 17.3641 1.22144C18.5686 2.03816 19.1709 3.23052 19.1709 4.79853Z" fill="#C2E2E1"/>
</svg>
