<svg width="43" height="36" viewBox="0 0 43 36" fill="none" xmlns="http://www.w3.org/2000/svg">
<path d="M12.5677 35.5091C10.4997 35.5091 8.77516 34.9808 7.39407 33.9217C6.01055 32.8626 4.98259 31.4837 4.30776 29.7799C3.63536 28.0787 3.29673 26.2901 3.29673 24.4143V13.288C3.29673 12.481 3.23143 11.9066 3.10082 11.5674C2.9702 11.2305 2.60014 10.7894 1.99062 10.2441C1.51171 9.80547 1.06182 9.39833 0.636127 9.01541C0.212848 8.63493 0 8.07267 0 7.33108C0 6.47801 0.275735 5.8067 0.832044 5.31716C1.38835 4.82519 2.02448 4.43985 2.74284 4.1563L9.92406 1.30869C10.773 0.959705 11.6268 0.654344 12.4855 0.392607C13.3441 0.130868 14.2439 0 15.18 0C16.116 0 16.757 0.310208 17.2359 0.933047C17.7148 1.55589 17.9543 2.28051 17.9543 3.10935V20.8784C17.9543 21.4892 18.0268 22.1435 18.1671 22.8415C18.3074 23.5394 18.5855 24.1356 18.9991 24.6276C19.4127 25.1171 20.0126 25.3643 20.7963 25.3643C21.5799 25.3643 22.308 25.185 22.9175 24.8239C23.527 24.4652 24.0833 24.0217 24.584 23.5007V13.288C24.584 12.4592 24.5114 11.8533 24.3711 11.4728C24.2284 11.0899 23.8221 10.6367 23.1473 10.1157C22.6466 9.72308 22.2112 9.34016 21.8436 8.96937C21.4711 8.59857 21.2873 8.05329 21.2873 7.33351C21.2873 6.48043 21.563 5.80913 22.1193 5.31958C22.6756 4.82761 23.3117 4.44227 24.0301 4.15872L31.2113 1.31111C32.0603 0.962129 32.9141 0.654344 33.7728 0.39503C34.6314 0.133292 35.5312 0.0024235 36.4672 0.0024235C37.4033 0.0024235 38.0515 0.307784 38.5401 0.918506C39.0287 1.52923 39.2754 2.2587 39.2754 3.11177V24.71C39.2754 25.3207 39.302 25.9266 39.3552 26.5276C39.4108 27.1262 39.6551 27.6788 40.0905 28.1804C40.6347 28.7694 41.1136 29.2613 41.5272 29.6515C41.9408 30.0441 42.1488 30.6888 42.1488 31.583C42.1488 32.5645 41.8537 33.3061 41.266 33.8078C40.6782 34.3095 39.9067 34.5615 38.9488 34.5615H31.5064C29.852 34.5615 28.3983 33.9387 27.1479 32.6954C25.8974 31.4522 25.2709 30.0126 25.2709 28.3767C24.0736 29.5328 22.7699 30.6573 21.355 31.7478C19.9376 32.8384 18.4864 33.7375 16.9964 34.4476C15.5065 35.1553 14.0311 35.5115 12.5726 35.5115L12.5677 35.5091Z" fill="#FCDFB9"/>
</svg>
