<svg width="45" height="51" viewBox="0 0 45 51" fill="none" xmlns="http://www.w3.org/2000/svg">
<mask id="mask0_7_1035" style="mask-type:luminance" maskUnits="userSpaceOnUse" x="0" y="0" width="45" height="51">
<path d="M0 0H44.5137V50.5203H0V0Z" fill="white"/>
</mask>
<g mask="url(#mask0_7_1035)">
<path d="M32.5702 0.746699C26.0954 0.0648011 21.7525 -0.143357 19.5369 0.122224C15.6457 0.512221 12.2709 0.734735 9.41467 0.789766C5.39447 1.62718 3.09517 1.94301 2.51676 1.73964C3.05932 6.23299 3.19795 9.62573 2.93503 11.9203L-0.00243378 43.4646C0.129023 46.5104 0.434959 48.4389 0.910595 49.2476C2.98523 48.4724 11.0782 48.8863 25.1919 50.4893C25.1082 50.9583 26.1288 50.0706 28.2537 47.8216C37.121 38.1099 42.2479 31.3651 43.6293 27.5848L44.6165 10.2646C44.105 7.53218 43.8851 5.23526 43.9592 3.3738L32.5702 0.746699Z" fill="#FFC107"/>
</g>
</svg>
