<svg width="54" height="57" viewBox="0 0 54 57" fill="none" xmlns="http://www.w3.org/2000/svg">
<mask id="mask0_7_1028" style="mask-type:luminance" maskUnits="userSpaceOnUse" x="0" y="0" width="54" height="57">
<path d="M0 0H53.8448V56.9636H0V0Z" fill="white"/>
</mask>
<g mask="url(#mask0_7_1028)">
<path fill-rule="evenodd" clip-rule="evenodd" d="M48.5506 12.6283L47.8241 11.4464L47.6161 11.5014C47.542 11.5301 47.4655 11.578 47.3914 11.6067C45.7183 12.2287 46.0315 11.0923 45.6944 12.8795C47.1931 12.8795 48.0559 12.8628 48.5506 12.6283ZM20.1249 1.35667L18.6071 0.00244141L16.8695 0.964276C17.0081 1.36384 17.2232 2.05292 17.5507 3.27077C18.4876 3.02911 19.3839 2.28501 20.1249 1.35667ZM2.97092 17.3992L3.68556 22.7539C4.02257 22.7515 4.40021 22.7372 4.83043 22.7372C4.60576 18.8156 5.45665 20.2823 4.48626 16.6886C2.5144 16.7365 3.57562 16.4517 2.97092 17.3992ZM2.84902 30.9821L2.63869 32.322C2.86097 32.3675 3.12627 32.3866 3.44416 32.3866C4.68942 32.3866 3.56845 32.4967 4.40021 32.0301C3.84331 31.2645 3.50391 31.042 2.84902 30.9821ZM1.00862 42.7897L0.597519 45.4312C1.1592 45.0053 1.51055 44.3162 1.46035 43.419C1.44601 43.1558 1.26197 42.9118 1.00862 42.7897ZM35.3595 54.0279L37.0995 54.5878C37.3744 54.2815 37.5585 53.7647 37.874 53.0278C38.6603 53.5805 38.9878 53.9848 40.2163 54.0973C39.8817 52.8555 39.351 52.1449 38.7511 51.2477H35.816C35.9881 54.2983 35.4097 52.3746 35.3595 54.0279ZM42.5132 56.3248L44.4922 56.9612L45.5965 56.0951C45.2355 55.9372 45.2164 56.0042 44.6428 55.7769C43.8923 55.4802 44.6237 55.7697 43.9281 55.4706C43.7441 55.3917 43.8708 55.3534 43.2111 55.162C43.2111 55.1644 42.8598 55.6668 42.5132 56.3248ZM51.1702 51.7358L51.4212 51.5396C51.3375 51.5611 51.2515 51.5826 51.1631 51.6042L51.1702 51.7358ZM53.0991 43.4022L53.3835 40.5383C53.0393 40.7225 52.8266 40.9163 51.6889 40.945C51.959 42.9692 52.2075 41.4044 52.4824 43.4357C52.7214 43.4286 52.9246 43.4166 53.0991 43.4022ZM49.5641 17.861C50.2787 17.7964 51.4594 17.6409 50.5823 16.7365C50.2261 16.3728 50.1257 16.4637 49.8485 16.7556C49.3107 17.3179 49.619 16.5881 49.5641 17.861ZM45.845 22.3567L45.2116 21.5743C44.1934 22.4453 44.6117 21.4164 44.5806 23.0673C46.0291 22.9357 45.2045 23.4573 45.845 22.3567ZM27.4124 10.5396C27.0395 9.29778 27.0395 9.23558 25.701 9.11595C26.0858 10.5396 25.8659 10.5013 27.4124 10.5396ZM41.3325 16.4374C40.9572 15.198 40.9572 15.1358 39.6211 15.0138C40.0059 16.4374 39.7837 16.3991 41.3325 16.4374ZM31.2748 10.3888L31.1935 8.96521H29.8885L29.9698 10.3888H31.2748ZM16.609 19.6674C16.7643 18.7152 16.8958 18.9975 16.8528 18.2438C16.8217 17.6935 15.8083 16.8154 15.3518 17.7079C14.7375 18.9209 15.8609 19.476 16.609 19.6674ZM28.5668 17.4207C27.6729 17.4088 28.6026 17.3418 27.8235 17.7749C28.4162 19.744 30.0917 19.3636 30.1538 19.3324C30.608 19.1004 30.5458 18.6434 30.2423 18.2318C30.6462 17.7533 30.9282 17.5332 31.1338 16.2173C29.7069 16.2531 30.3164 16.0809 29.3699 16.7508C28.899 17.0858 28.6887 17.2102 28.5668 17.4207ZM33.8538 19.61C32.6061 19.61 33.7271 19.5023 32.8953 19.9665C33.4857 21.9356 35.1612 21.5552 35.2233 21.5241C36.1578 21.048 34.9102 19.61 33.8538 19.61ZM42.2718 30.9606C43.0199 30.9606 42.6446 30.8386 43.5577 30.6041L43.4358 28.4675C42.4439 28.4914 42.2551 28.6302 41.4998 28.824C41.55 29.7164 41.4615 30.9606 42.2718 30.9606ZM32.7925 27.4195L34.7309 27.063C34.272 26.216 33.9087 25.85 33.6315 24.9264C30.8996 25.1752 31.4397 27.4195 32.7925 27.4195ZM51.2133 35.253L53.1493 34.8965C52.6903 34.0519 52.3271 33.6834 52.0498 32.7622C49.3203 33.0111 49.858 35.253 51.2133 35.253ZM50.5321 24.3928C50.3671 25.4097 50.6109 24.9288 49.9393 25.46C50.3289 26.24 50.5894 26.8596 50.7328 27.9531C52.0498 27.831 52.0904 27.7808 51.9996 26.173C51.9088 24.5627 51.8634 24.5149 50.5321 24.3928ZM37.6708 14.4682C38.9734 14.4682 39.4873 14.6812 40.2402 13.7552C39.8673 12.8819 39.7215 13.0901 38.3257 12.1737C34.272 9.51551 37.1115 13.6332 37.6708 14.4682ZM38.9758 8.08951C40.5724 8.08951 38.7344 6.66351 42.4821 6.66351C42.0591 3.4861 39.8697 6.48167 37.5489 5.9529C37.6493 7.24491 37.8142 8.08951 38.9758 8.08951ZM24.004 27.2688C24.0423 25.436 23.6455 26.5965 24.5944 26.1993C24.6231 24.7493 25.7536 23.321 26.3296 22.2849C23.973 22.2849 24.733 21.5743 22.3764 21.5743C22.2377 22.5888 22.2855 23.12 22.6799 24.6154C23.0097 25.8667 23.2511 26.6922 24.004 27.2688ZM9.778 16.2723C11.3555 15.0664 10.0553 15.5377 11.0256 13.1691C11.126 12.925 12.0391 12.5254 10.7173 9.86484C9.37885 10.2094 9.14701 10.5467 8.53513 11.6449C9.05618 13.3676 9.11593 12.0565 9.63459 13.7792C8.35587 13.8103 8.86497 13.6835 8.02365 14.1357C8.5662 15.9349 8.93189 16.0282 9.778 16.2723ZM20.6101 19.0621L20.6913 20.4857C21.6139 19.9354 22.601 19.6315 20.6101 19.0621ZM13.4229 7.31909C14.3001 7.23774 14.3001 7.14921 15.0339 6.96258C14.281 5.92897 15.0411 6.29026 13.3608 6.24958L13.4229 7.31909ZM17.5172 10.5204L18.1984 9.87919C17.3332 8.71398 18.306 9.23558 16.7835 9.0968C16.8958 9.93422 16.8217 10.3912 17.5172 10.5204ZM39.4467 46.2662L39.3654 44.8426H38.3878L38.4691 46.2662H39.4467ZM43.2756 50.537C43.1274 50.0035 43.1442 49.4699 42.5634 49.4699C41.6599 49.4699 41.7938 49.7427 41.6456 50.537H43.2756ZM28.1772 8.7403L28.1151 7.67319H26.485L26.5256 8.3838C27.2809 8.57282 27.2929 8.65895 28.1772 8.7403ZM10.2082 36.6574C11.4535 36.6574 10.3301 36.7675 11.1643 36.3009C10.5404 35.3678 10.9587 35.5664 9.79951 35.2338C9.62503 36.1765 9.84253 35.5257 9.53421 36.3009C9.54138 36.3081 10.1628 36.6574 10.2082 36.6574ZM17.9785 37.2149C18.11 38.1935 18.0526 37.9877 18.3848 38.6385C19.1975 38.0188 19.2333 38.2772 19.262 36.8584L17.9785 37.2149C17.4097 36.3679 17.5626 36.8441 17.2448 35.7913H16.2672C16.3078 36.3057 16.1286 38.1744 17.9785 37.2149ZM23.7961 6.24958C23.0002 5.15615 23.9754 5.67535 22.4528 5.53897L22.5317 6.96258C23.9825 6.8286 23.1579 7.35019 23.7961 6.24958ZM25.6126 38.2796C25.1298 38.4064 24.6398 38.3586 24.6757 38.9902C24.7139 39.6769 24.9625 40.1913 25.5815 39.9473C26.191 39.708 25.7464 39.275 25.6126 38.2796ZM27.343 18.3515H26.6905L26.8316 20.8422C27.8689 19.9737 27.7279 19.7751 27.343 18.3515ZM30.5841 34.8654C30.4526 33.8892 30.5076 34.0925 30.1753 33.4441H28.8727L28.954 34.8654H30.5841ZM19.2955 35.9444C19.1855 35.107 18.9011 34.1643 18.2175 34.1643C16.9699 34.1643 18.0933 34.0567 17.2591 34.5208C17.8877 35.6812 17.7491 35.8057 19.2955 35.9444ZM44.7049 46.9792C43.8158 46.7495 44.0692 46.6227 43.3784 46.6227C42.4773 46.6227 42.6112 46.8979 42.4606 47.6898C44.1217 47.8406 44.3536 48.8503 44.7049 46.9792ZM43.192 54.8079C43.1322 54.0231 43.1896 53.0278 42.4391 53.0278H41.7866C41.4257 53.9729 41.5093 53.4082 41.5619 54.8079H43.192ZM36.306 48.4028C37.5513 48.0344 37.5513 47.9219 37.4891 46.2662C36.7721 46.283 35.8543 46.1585 35.8997 46.9792C35.9045 47.0677 36.2606 48.288 36.306 48.4028ZM7.71293 50.1805C8.91755 49.4628 8.22442 50.1279 8.70483 49.19L8.98687 48.4722C9.10876 48.1109 9.02272 48.6469 9.20198 47.6898C8.12881 47.0917 5.95619 45.9791 7.15603 48.1253C7.5026 48.7498 7.36397 48.3143 7.49304 48.9866C7.6221 49.6566 7.20383 49.123 7.71293 50.1805ZM11.138 47.3333C11.3603 45.9743 12.0295 44.8426 9.03945 44.8426L9.16135 46.9792C10.1556 47.0031 10.3588 47.1395 11.138 47.3333ZM40.0346 50.8936L40.5796 49.3718C40.9548 48.3717 40.9453 49.6901 40.8927 48.7593C40.7564 46.3787 38.2827 48.7282 38.3042 49.1134C38.3711 50.2739 39.308 50.4844 40.0346 50.8936ZM22.7444 40.7728C22.7038 40.0358 22.5485 40.0502 22.1684 39.5477C21.5398 38.7103 21.9175 39.1529 20.9925 38.6385C20.4117 39.6841 20.3806 39.3467 20.4834 41.1293H19.5058L19.5656 42.1964C21.9581 42.7969 22.754 40.9331 22.7444 40.7728ZM47.3102 52.6737C46.7628 51.2668 46.3063 52.255 46.1701 49.8264C45.3837 49.8982 45.1328 49.8097 44.8149 50.4389C44.5902 50.8888 44.6858 50.561 44.8101 51.0371L45.3144 51.9607C43.2995 52.5564 43.8254 54.4322 45.5367 53.9394C46.6194 53.6283 46.5501 53.2527 47.3102 52.6737ZM33.4044 38.995C34.664 38.995 35.2329 35.8631 33.7534 33.6547C32.6635 34.5687 33.5335 33.413 33.0076 34.8989C32.5559 36.1765 32.3312 38.995 33.4044 38.995ZM34.1669 44.1296C33.6004 42.6677 33.6984 43.4238 30.8255 42.706C29.7666 44.6057 28.5166 44.778 27.8904 42.706C26.54 42.828 27.2809 42.6916 26.6069 43.3951L25.3831 44.4837C27.7637 44.4837 32.5368 45.0077 34.1669 44.1296ZM3.66166 41.9954C4.27115 40.902 4.6464 40.89 5.16983 39.5094C5.22003 39.3778 5.58094 38.2007 5.57855 37.916C5.5642 36.0712 4.13969 37.8011 2.9255 39.2295C2.22042 40.0597 1.60854 40.7751 1.37909 41.9954H3.66166ZM11.6877 28.2785C11.5897 26.5438 11.3077 26.6587 12.1155 25.7016L14.0754 24.3641C13.9775 23.0793 14.0396 23.6775 13.7265 22.8735C12.6605 20.1268 12.4788 19.7057 11.1834 19.3827C10.0983 22.2156 11.7379 22.2778 8.83868 24.0076C9.52943 25.4025 9.02989 25.3355 8.99882 26.8549C10.1413 27.6564 9.94292 28.1206 11.6877 28.2785Z" fill="#E8E2D6"/>
</g>
</svg>
