<svg width="43" height="45" viewBox="0 0 43 45" fill="none" xmlns="http://www.w3.org/2000/svg">
<mask id="mask0_7_1753" style="mask-type:luminance" maskUnits="userSpaceOnUse" x="0" y="0" width="43" height="45">
<path d="M42.2192 0H0V44.1008H42.2192V0Z" fill="white"/>
</mask>
<g mask="url(#mask0_7_1753)">
<mask id="mask1_7_1753" style="mask-type:luminance" maskUnits="userSpaceOnUse" x="3" y="0" width="4" height="4">
<path d="M3.6712 0.368408H6.11869V3.67501H3.6712V0.368408Z" fill="white"/>
</mask>
<g mask="url(#mask1_7_1753)">
<path d="M5.07901 0.569366C5.07901 0.576544 5.07901 0.576544 5.07901 0.576544C5.03599 0.808628 5.16984 1.03114 5.02882 1.37568C4.87107 1.12924 4.6703 1.00243 4.38109 1.18188C4.14208 1.79917 3.92697 2.44279 3.73337 3.08401C3.81702 3.09837 3.89829 3.1223 3.97955 3.13665C4.35241 2.85193 4.35958 2.7634 4.49343 2.18199C4.73005 2.02408 5.04316 2.06954 5.16983 1.57666C5.22003 1.3685 5.64547 1.38286 5.74107 0.925867C5.74825 0.897156 5.76259 0.868444 5.77932 0.83734C5.53313 0.777524 5.30368 0.696175 5.07901 0.569366Z" fill="#C29B17"/>
</g>
<path d="M26.0476 28.7617C26.3296 28.6708 25.8755 28.4411 26.0978 28.2688C26.3655 28.0583 26.4037 27.941 26.1958 27.7903C26.4396 27.2089 26.6858 26.6275 26.9319 26.0365C26.9606 26.0891 26.975 26.1418 26.9678 26.2016C26.9534 26.3117 27.3837 26.4552 27.5629 26.6418C27.8235 26.917 27.6012 27.0581 27.6012 27.2687C27.6012 27.4625 28.1581 27.5008 28.0911 27.7975C28.0314 28.0439 28.2776 28.3813 28.127 28.6947C27.8975 28.5894 27.6585 28.4913 27.3908 28.3741C27.5342 29.2019 27.3837 29.2378 26.0476 28.7617Z" fill="#C29B17"/>
<path d="M35.7901 12.3916C35.7326 12.3629 35.6201 12.3317 35.6201 12.3101C35.6057 12.2046 35.723 12.2502 35.7901 12.3916Z" fill="#C29B17"/>
<path d="M32.2308 14.8318C32.2524 14.6835 32.0444 14.4753 32.0444 14.2648C32.3934 13.6762 32.728 13.1019 33.0172 12.5038C33.5598 12.7359 34.0665 12.968 34.5636 13.0708C34.4895 13.2431 34.4083 13.4154 34.3485 13.5565C34.2887 13.4967 34.1477 13.3771 33.9541 13.1976C33.6578 13.3316 33.2036 13.1905 32.8332 13.212C32.8188 13.8843 33.5598 14.6691 32.869 15.2146C32.6252 15.1165 32.1639 15.2816 32.2308 14.8318Z" fill="#C29B17"/>
<path d="M26.7527 33.2766C26.7742 33.0373 26.5232 32.8148 26.136 32.6114C25.6819 32.3745 25.364 32.0444 25.6532 31.7979C25.9568 31.5371 25.854 31.2691 25.5791 30.9485C25.3855 30.7236 25.1847 30.5083 24.984 30.2906C25.0294 30.2164 25.0796 30.1494 25.1178 30.0752C25.1847 30.0441 25.2134 30.0082 25.1919 29.9484C25.3401 29.6781 25.4596 29.4029 25.5935 29.1277C25.7632 29.2019 25.9496 29.3742 26.2101 29.6565C26.0093 29.6948 25.7727 29.7618 25.9496 29.8575C26.4706 30.1422 25.9639 30.604 26.7742 30.8074C26.4491 31.2093 27.0658 31.762 26.9248 32.1951C26.8578 32.4032 26.9917 32.5755 27.2594 32.7239C27.4004 32.798 27.6083 32.822 27.496 32.9559C27.3167 33.1713 27.6514 33.5086 27.4362 33.724C27.1399 33.6211 26.724 33.6283 26.7527 33.2766Z" fill="#C29B17"/>
<path d="M32.7065 25.8953C32.2906 25.5149 32.3862 25.2302 32.2978 24.9383C32.1926 24.6105 32.3121 24.23 31.6214 23.9549C31.5616 23.931 31.4564 23.8568 31.4564 23.8568C31.8365 23.4979 31.0262 23.0888 31.0334 22.7514C31.0477 22.4236 30.639 22.5648 30.5219 22.4308C30.5147 22.9093 30.5052 23.3878 30.8995 23.9022C31.0477 24.0961 30.78 24.2085 30.878 24.3568C31.0788 24.6775 31.0406 24.9981 31.3752 25.3211C31.5999 25.5292 31.9321 25.7972 31.9177 25.9695C31.8747 26.4839 32.5272 26.7088 33.108 27.0581C32.8547 26.6418 33.0483 26.3284 32.7065 25.8953Z" fill="#C29B17"/>
<path d="M26.3153 29.635C26.4706 29.9484 26.8124 30.068 27.214 30.0297C27.4817 30.001 27.7183 29.9245 27.9573 29.8742C28.2776 30.0154 27.9573 30.0967 28.1127 30.2379C28.4019 30.5083 28.6696 30.7906 28.6624 31.104C28.6624 31.2548 28.9372 31.4175 29.279 31.5084C29.5467 31.0227 29.4057 30.5753 28.9301 29.9245C28.6935 29.6038 28.7006 29.2832 28.8632 28.977C28.6552 28.9172 28.4544 28.8573 28.3063 28.8143C27.9501 28.8047 28.1055 29.0679 27.845 29.111C27.6896 29.1421 27.735 29.3048 27.355 29.2306C26.865 29.1492 26.6714 29.4699 26.3153 29.635Z" fill="#C29B17"/>
<path d="M31.815 22.1844C31.9703 22.2968 32.1496 22.3495 32.3719 22.4165C32.728 22.3112 32.7065 21.902 33.077 21.8949C33.598 21.8781 34.1621 21.8422 34.7716 22.0049C34.8982 22.103 34.9365 22.2083 34.9054 22.2442C35.1803 22.3351 35.5005 22.4308 35.7826 22.5217C35.7228 22.2083 35.7754 21.7513 35.4934 21.268C34.958 21.2154 34.5875 21.1699 34.2075 21.3876C33.5454 21.7752 32.6993 21.5503 31.3608 20.7584C31.7337 21.2823 31.7409 21.7011 31.815 22.1844Z" fill="#C29B17"/>
<path d="M36.349 16.1693C36.3992 16.655 36.3992 16.655 36.0813 16.9612C36.5259 17.1837 37.2095 17.0426 37.4485 17.5713C37.8357 17.3177 37.819 17.3249 37.5441 17.0785C37.3218 16.8847 37.0613 16.6909 37.0756 16.4444C37.1211 15.8176 36.7339 15.1309 36.6908 14.4896C35.6201 14.1164 35.6201 14.1164 35.2544 14.5351C35.4551 14.7504 35.9308 14.6835 36.1483 15.0041C35.8352 15.1237 35.7898 15.4012 35.7085 15.662C36.0742 15.729 36.2152 15.93 36.349 16.1693Z" fill="#C29B17"/>
<path d="M16.4727 4.4502C17.032 4.58419 17.2902 4.45738 17.2328 4.03867C17.2017 3.82333 17.2997 3.64389 17.0153 3.30174C16.6137 2.81604 16.7404 2.71076 17.3212 2.44997C17.2471 2.24899 17.173 2.05518 17.0894 1.83028C16.0951 1.40439 15.7892 1.94273 15.2848 2.20353C15.4856 2.53849 15.8274 2.54567 16.0951 2.71794C16.2887 2.99549 15.7461 3.20364 16.3915 3.56254C16.4895 3.61518 16.6066 3.93579 16.444 4.07695C16.3843 4.12959 16.1023 4.15112 16.4727 4.4502Z" fill="#C29B17"/>
<path d="M10.0887 0.868469C9.8449 0.890003 9.59872 0.904358 9.35254 0.911536C9.27844 0.949818 9.20435 0.995278 9.18284 1.07663C9.51029 1.35896 9.66564 1.67239 9.63696 1.95711C9.61306 2.15092 9.43619 2.20355 9.11592 2.01693C9.05616 1.97865 9.12308 2.17245 9.15894 2.34472C9.61306 2.33036 10.1341 2.65097 10.5643 2.67251C11.1141 2.70361 11.3316 3.03858 11.5754 3.31612C11.6734 3.24195 11.7761 3.15821 11.91 3.04576C11.2933 2.44999 10.5954 2.1222 9.78515 1.74895C10.17 1.59104 10.0218 1.1819 10.0887 0.868469Z" fill="#C29B17"/>
<path d="M25.6532 41.7775C25.1991 41.5024 25.0581 41.8685 24.7689 41.7417C24.3148 41.5479 24.0184 41.6364 23.6909 41.7034C23.624 41.7177 23.4973 41.7106 23.4591 41.6818C22.9333 41.2942 22.4863 41.4737 21.9892 41.4354C21.9437 41.4354 21.8983 41.4282 21.8481 41.4282C21.7573 41.2775 21.6617 41.1291 21.5422 40.988C21.8242 40.9425 21.9963 40.8899 22.2784 40.9425C22.9691 41.0693 23.7579 41.2942 24.3219 41.1435C24.8956 41.0023 25.3258 41.189 25.7727 41.4809C26.203 41.1291 26.203 41.1291 26.9678 41.4737C26.8124 41.6148 26.6642 41.756 26.5232 41.89C26.2101 41.8613 25.8301 41.8828 25.6532 41.7775Z" fill="#C29B17"/>
<path d="M38.5336 21.2297C38.5695 21.1244 38.6077 21.0813 38.6005 21.0287C38.5551 20.7679 38.101 20.5358 38.058 20.2966C38.0126 20.0645 38.2133 19.885 37.9528 19.5812C37.8429 19.4448 37.5441 19.0572 38.0652 18.9902C37.9767 18.648 37.9982 18.2963 37.4031 17.9518C36.9346 18.0953 37.0995 18.4973 36.8916 18.7294C37.1593 18.8634 37.5083 18.9232 37.3887 19.1912C37.2931 19.4017 36.8916 19.4759 36.949 19.6099C37.0828 19.9448 37.3959 19.9305 37.5823 20.0884C37.8859 20.3277 37.1354 20.5358 37.7759 20.7966C38.2588 20.9904 37.7449 21.3637 38.4285 21.4761C38.4595 21.4235 38.4882 21.3565 38.5336 21.2297Z" fill="#C29B17"/>
<path d="M34.9293 20.6244C35.3667 20.5143 35.6272 20.3492 34.9723 20.0573C34.7285 19.9449 34.5493 19.7678 34.5636 19.6912C34.6616 19.1912 33.9398 18.5643 34.5134 18.1312C34.2529 18.0427 34.0521 17.9757 33.8203 17.9016C33.5096 18.1312 33.5693 18.4614 33.3901 18.7222C33.7462 19.0715 34.0521 19.4376 34.0665 19.8252C34.0808 20.141 34.2601 20.4234 34.9293 20.6244Z" fill="#C29B17"/>
<path d="M12.0367 5.92167C12.5266 6.06283 12.5266 5.69676 12.7202 5.51731C12.7872 5.45032 12.6462 5.22541 12.6151 5.10817C12.1394 4.75646 12.1992 5.17517 11.9387 5.15124C11.7021 5.12971 11.6136 5.47185 11.2192 5.09143C11.0543 5.25652 10.8703 5.11535 10.6241 4.95744C10.1628 4.65118 9.67284 4.4502 9.19003 4.51002C9.07052 4.66554 9.4649 4.73493 9.47924 4.89045C9.48641 5.0029 9.5605 5.13689 9.61308 5.27805C9.92619 5.22541 10.0959 4.98854 10.5046 5.29241C10.55 5.33069 11.4344 5.53167 11.5156 5.53167C11.7164 5.51731 11.8216 5.74222 12.0367 5.92167Z" fill="#C29B17"/>
<path d="M33.5908 27.5295C33.4116 27.4697 33.3231 27.4481 33.2036 27.4099C33.0411 27.7903 32.8762 28.1779 32.7137 28.544C33.0626 28.9914 33.598 28.7832 34.0139 28.9627C34.186 28.5966 34.327 28.2305 34.0521 27.7616C33.947 27.5821 33.7773 27.6419 33.5908 27.5295Z" fill="#C29B17"/>
<path d="M28.9444 20.7751C29.1165 21.0359 29.3699 21.2752 29.5467 21.5288C29.7045 21.7441 29.9937 21.7585 30.2231 21.8638C30.7131 21.4092 29.9865 20.7895 29.9626 20.2583C29.8001 20.1913 29.5993 20.11 29.3842 20.0286C29.0854 20.244 29.1165 20.5359 28.9444 20.7751Z" fill="#C29B17"/>
<path d="M30.6558 27.3716C30.6629 27.2759 30.6486 27.1945 30.639 27.1945C30.3642 27.1562 30.0678 27.1634 30.0678 27.3285C30.075 27.7161 29.5539 27.8884 29.5396 28.2831C30.1275 28.343 30.6629 28.575 31.1983 28.7904C31.2342 28.6779 31.2724 28.5822 31.3011 28.4841C30.8326 28.2305 30.7514 28.1037 30.6558 27.3716Z" fill="#C29B17"/>
<path d="M23.3921 36.8822C23.3563 37.009 23.3348 37.076 23.3109 37.1502C24.0016 37.4277 23.7793 36.6501 24.4486 36.9205C25.0294 37.1574 24.7306 36.2769 25.4883 36.808C25.4978 36.6214 25.7058 36.509 25.4811 36.3152C25.3999 36.2841 25.2803 36.2242 25.2517 36.2338C24.6709 36.4707 23.6981 36.3367 23.3921 36.8822Z" fill="#C29B17"/>
<path d="M37.0087 24.1774C36.6382 24.1248 36.5044 23.9478 36.2295 23.8568C35.9762 23.7755 36.0574 23.6104 36.1244 23.4764C35.9475 23.4238 35.7754 23.3783 35.5818 23.3281C35.5149 23.4094 35.381 23.5649 35.5149 23.6343C36.0144 23.864 36.208 24.0961 36.2295 24.4382C36.2439 24.656 36.5402 24.8881 37.047 24.9168C37.2334 24.8426 37.0685 24.5579 37.3887 24.4693C37.568 24.4167 37.3816 24.2373 37.0087 24.1774Z" fill="#C29B17"/>
<path d="M40.5915 17.3345C40.1756 17.2053 39.9892 16.9158 39.5972 16.9373C39.5662 17.0186 39.5303 17.1239 39.4992 17.2292C39.7143 17.2962 39.9295 17.3632 40.1541 17.4302C40.2282 17.8345 40.429 18.1839 41.1723 18.3489C41.3946 18.1623 41.1413 17.8848 41.1867 17.6623C41.2153 17.4972 40.8975 17.423 40.5915 17.3345Z" fill="#C29B17"/>
<path d="M31.9847 19.8707C31.999 19.4974 31.9918 19.1768 31.9847 18.8251C30.9139 18.7509 31.3011 19.3706 30.9975 19.641C31.3465 19.8563 31.6214 20.0214 31.9847 19.8707Z" fill="#C29B17"/>
<path d="M29.3531 31.5969C29.1309 31.7477 28.8416 31.8816 28.8034 32.1807C29.1309 32.4702 29.5706 32.6114 30.106 32.7238C30.6175 32.5899 30.6247 32.554 30.1706 32.3673C30.008 32.298 29.8288 32.2549 29.5921 32.1807C29.6806 32.0539 29.7618 31.9247 29.8527 31.7979C29.6376 31.7237 29.5181 31.6807 29.3531 31.5969Z" fill="#C29B17"/>
<path d="M32.7519 17.0426C32.9527 17.3345 33.1678 17.5714 33.3829 17.8107C34.2218 17.5881 34.2362 17.2747 33.4713 16.856C33.0029 16.6024 33.0554 17.0043 32.7519 17.0426Z" fill="#C29B17"/>
<path d="M30.0009 19.9544C30.1706 20.1171 30.4622 20.0501 30.4167 20.2367C30.3881 20.3564 30.3426 20.4688 30.2757 20.6554C30.8709 20.4975 31.6285 20.7751 32.0301 20.4162C31.65 20.3109 31.3226 20.141 30.9378 20.141C30.5578 20.1482 30.3642 19.7151 29.9483 19.7965C29.9268 19.8037 29.9339 19.8491 30.0009 19.9544Z" fill="#C29B17"/>
<path d="M31.3393 34.681C31.6811 34.5757 31.3011 34.4035 31.227 34.2623C31.1457 34.114 31.4206 33.9704 31.0047 33.8149C30.7585 33.8077 30.4621 33.7694 30.4837 34.0302C30.5052 34.3437 30.1275 34.6571 30.9521 34.9107C30.8709 34.7552 30.737 34.6356 30.9139 34.5757C31.0477 34.5303 31.2126 34.5159 31.3393 34.681Z" fill="#C29B17"/>
<path d="M30.0678 37.5761C30.216 37.4349 30.2614 37.3153 30.29 37.2244C30.0606 36.978 29.7857 36.9564 29.5252 36.8966C29.3173 37.0761 29.0042 37.1957 28.9755 37.4948C29.3244 37.7029 29.6519 37.7101 30.0678 37.5761Z" fill="#C29B17"/>
<path d="M32.5272 23.5577C32.5416 23.8711 32.5416 23.8711 33.1367 24.0219C33.4952 23.9166 33.108 23.4476 33.8203 23.5051C33.3375 23.2826 33.3375 23.2826 33.3446 23.0648C32.9742 23.0218 32.7208 23.1103 32.4842 23.2084C32.52 23.328 33.1749 23.4907 32.5272 23.5577Z" fill="#C29B17"/>
<path d="M13.6118 2.34473C13.1289 2.43565 13.0907 2.45718 13.3584 2.73233C13.6357 3.01705 13.65 3.04577 13.3584 3.17497C12.9736 3.33049 13.5448 3.56257 13.7838 3.80183C13.8436 3.70374 13.9846 3.61521 13.9392 3.52429C13.7528 3.12233 13.9918 2.81607 13.6118 2.34473Z" fill="#C29B17"/>
<path d="M33.0029 15.4084C32.5655 15.43 32.2763 15.5042 32.4316 15.8176C32.8547 15.8559 32.5655 16.1238 32.7591 16.1454C33.0698 16.1765 33.1606 16.5713 33.598 16.4014C33.4785 16.1023 33.108 15.7649 33.0029 15.4084Z" fill="#C29B17"/>
<path d="M41.1197 14.6021C41.691 14.4514 41.2608 14.1307 41.3492 13.9441C41.0457 13.7288 40.8162 13.968 40.5628 13.7719C40.2139 13.9226 40.5844 14.2504 40.4816 14.4585C40.6585 14.5183 40.8305 14.571 41.1197 14.6021Z" fill="#C29B17"/>
<path d="M13.301 1.05508C13.062 1.14361 12.7059 1.15797 12.5721 1.41876C12.8158 1.59821 13.0692 1.77766 13.3226 1.9571C13.6118 1.85901 13.4182 1.47858 13.6189 1.33024C13.5162 1.25606 13.4182 1.18189 13.301 1.05508Z" fill="#C29B17"/>
<mask id="mask2_7_1753" style="mask-type:luminance" maskUnits="userSpaceOnUse" x="25" y="42" width="3" height="2">
<path d="M25.6986 42.2632H27.5342V43.8807H25.6986V42.2632Z" fill="white"/>
</mask>
<g mask="url(#mask2_7_1753)">
<path d="M26.9534 43.3232C26.8268 43.1151 26.6786 42.95 26.5304 42.7873C25.9735 42.8232 25.9735 42.8232 25.7871 43.1294C25.9735 43.2275 26.0978 43.1294 26.277 43.1677C26.5065 43.2706 26.2316 43.3304 26.344 43.4285C26.5065 43.4812 26.6786 43.5338 26.8578 43.5936C26.8794 43.517 26.908 43.45 26.9534 43.3232Z" fill="#C29B17"/>
</g>
<path d="M26.8937 38.6958C27.4434 38.5834 26.8722 38.2412 27.0586 38.0833C26.6929 38.0379 26.4921 38.1503 26.2388 38.1958C26.1432 38.3298 26.485 38.5307 26.2842 38.6575C26.4778 38.6743 26.7073 38.9877 26.8937 38.6958Z" fill="#C29B17"/>
<path d="M33.4498 29.434C33.4642 29.6565 33.5024 29.8216 33.5311 29.9914C33.6721 30.0369 33.7988 30.0752 33.8131 30.0824C33.9111 29.8957 33.9995 29.7163 34.1023 29.5153C33.9326 29.3813 33.7175 29.2689 33.4498 29.434Z" fill="#C29B17"/>
<path d="M22.9094 37.6814C22.1589 37.2244 22.1589 37.2244 21.9437 37.5378C22.2258 37.6287 22.5389 37.7245 22.8735 37.8297C22.8735 37.8824 22.8807 37.8082 22.9094 37.6814Z" fill="#C29B17"/>
<path d="M31.1816 29.4244C31.6214 29.6421 32.0588 29.7761 32.0157 29.3359C31.4206 29.1182 31.4206 29.1182 31.1816 29.4244Z" fill="#C29B17"/>
<path d="M12.498 4.36887C12.8995 4.93592 12.8995 4.93592 13.2843 4.59139C13.0405 4.43587 12.8015 4.07697 12.498 4.36887Z" fill="#C29B17"/>
<path d="M14.1926 5.98152C14.0133 5.85232 13.9177 5.77815 13.8125 5.70398C13.7384 5.78533 13.6715 5.87625 13.5974 5.9576C13.932 6.27103 14.2523 6.46483 14.5702 6.27103C14.4674 6.18968 14.3623 6.11551 14.1926 5.98152Z" fill="#C29B17"/>
<path d="M3.69034 8.4435C3.80028 8.63012 3.95086 8.61576 4.09188 8.62294C4.1588 8.63012 4.26875 8.6373 4.27592 8.60859C4.31416 8.4435 4.26158 8.24969 4.44084 8.12288C3.86721 7.96497 3.90545 8.29515 3.69034 8.4435Z" fill="#C29B17"/>
<path d="M28.2465 35.3438C28.3063 35.1739 28.4019 35.0543 28.1509 34.8964C27.8378 34.7839 27.7565 34.9777 27.5342 34.9418C27.5701 35.3007 27.9788 35.284 28.2465 35.3438Z" fill="#C29B17"/>
<path d="M24.0925 42.9571C24.5824 43.1509 24.8501 43.1151 25.1178 42.8543C24.6422 42.9141 24.255 42.7777 23.8989 42.6605C23.8033 42.7705 23.9443 42.8471 24.0925 42.9571Z" fill="#C29B17"/>
<path d="M40.123 24.6942C40.5987 24.9239 40.4816 24.5363 40.6513 24.4095C40.429 24.431 39.9008 24.029 40.123 24.6942Z" fill="#C29B17"/>
<path d="M32.1568 30.5012C32.2834 30.4342 32.3193 30.3289 32.3504 30.2308C32.2834 30.2021 32.2093 30.1638 32.1424 30.1423C31.8819 30.0513 31.5688 29.9556 31.5616 30.1877C31.5544 30.3432 31.8436 30.4102 32.1568 30.5012Z" fill="#C29B17"/>
<path d="M30.1801 32.8076C29.9865 33.1043 29.9865 33.1043 30.3642 33.4776C30.2901 33.2622 30.4311 33.0756 30.1801 32.8076Z" fill="#C29B17"/>
<path d="M28.6194 34.8748C28.5811 35.2098 28.9755 35.083 29.1237 35.2026C29.1619 35.1045 29.1906 35.0016 29.2289 34.9035C29.0353 34.9035 28.7962 34.5829 28.6194 34.8748Z" fill="#C29B17"/>
<path d="M31.0406 34.9418C31.65 35.1954 31.65 35.1954 31.7839 34.8748C31.6572 34.8365 31.5329 34.8006 31.3154 34.7313C31.1672 34.7767 31.2413 34.9179 31.0406 34.9418Z" fill="#C29B17"/>
<path d="M3.36313 6.0252C3.63852 6.11629 3.79418 6.11629 3.69839 5.88376C3.65289 5.77109 3.56428 5.71116 3.43737 5.69678C3.16916 5.65123 3.20747 5.80226 3.36313 6.0252Z" fill="#C29B17"/>
<path d="M35.8352 24.5746C36.0359 24.3951 35.6726 24.2755 35.5818 24.0506C35.3308 24.2683 35.6941 24.4023 35.8352 24.5746Z" fill="#C29B17"/>
<path d="M29.6807 33.5015C29.4867 33.6813 29.8387 33.8011 29.9345 34.0241C30.1884 33.8083 29.822 33.6813 29.6807 33.5015Z" fill="#C29B17"/>
<path d="M38.3333 22.118C38.4745 22.2091 38.6015 22.2235 38.6015 22.2163C38.5871 22.0509 38.453 21.9023 38.2063 21.7752C37.9908 21.8351 38.2063 21.9454 38.3333 22.118Z" fill="#C29B17"/>
<path d="M5.12443 32.03C4.78981 31.6352 4.938 31.3289 4.90214 31.0155C4.8639 30.6638 5.05033 30.2475 4.42651 29.9771C4.36676 29.9556 4.28549 29.8814 4.28549 29.8814C4.72288 29.4699 4.00824 29.0751 4.08472 28.7018C4.15881 28.3429 3.73337 28.5152 3.64494 28.3812C3.54933 28.9028 3.45134 29.4172 3.73337 29.9556C3.84571 30.1637 3.56367 30.2977 3.62343 30.4556C3.75727 30.7906 3.65928 31.1495 3.92697 31.4773C4.10623 31.695 4.3811 31.963 4.33568 32.1496C4.19467 32.7095 4.79698 32.9176 5.29412 33.2694C5.12443 32.8363 5.37778 32.4846 5.12443 32.03Z" fill="#C29B17"/>
<path d="M4.96188 28.0439C5.09573 28.1564 5.25826 28.2018 5.45903 28.2688C5.82233 28.142 5.88925 27.6874 6.25494 27.6563C6.7736 27.6108 7.32333 27.5438 7.89696 27.6874C8.00691 27.7831 8.02364 27.8956 7.98539 27.9314C8.23875 28.0152 8.53512 28.1037 8.78848 28.1875C8.78848 27.8429 8.92949 27.35 8.74306 26.8356C8.23158 26.8045 7.87545 26.7758 7.45718 27.0366C6.73775 27.4912 5.94901 27.2974 4.78262 26.515C5.05032 27.0749 4.98339 27.5295 4.96188 28.0439Z" fill="#C29B17"/>
<path d="M2.41878 26.6705C2.53111 26.9409 2.73905 27.1945 2.86573 27.4553C2.97568 27.6874 3.25771 27.6874 3.45848 27.7831C4.03211 27.2615 3.43697 26.6275 3.51107 26.058C3.36288 25.9982 3.18362 25.9169 2.98285 25.8355C2.65779 26.0891 2.63389 26.4026 2.41878 26.6705Z" fill="#C29B17"/>
<path d="M5.57853 25.5221C5.6598 25.1105 5.71955 24.7684 5.7793 24.388C4.73721 24.364 5.0049 25.0148 4.65594 25.3283C4.94515 25.5436 5.19133 25.7015 5.57853 25.5221Z" fill="#C29B17"/>
<path d="M6.8716 22.4021C7.01261 22.7083 7.17514 22.9548 7.34006 23.2084C8.20768 22.9237 8.28416 22.5743 7.61493 22.1628C7.20622 21.9092 7.18231 22.3494 6.8716 22.4021Z" fill="#C29B17"/>
<path d="M3.60906 25.723C3.74291 25.8881 4.03928 25.8044 3.96519 26.0077C3.91261 26.1346 3.84568 26.2614 3.74291 26.4695C4.35239 26.2685 5.05031 26.5293 5.5116 26.1106C5.15308 26.0221 4.87105 25.8498 4.49341 25.8714C4.12055 25.9025 4.01777 25.4383 3.59233 25.5508C3.57082 25.5675 3.56365 25.6106 3.60906 25.723Z" fill="#C29B17"/>
<path d="M7.43569 20.61C7.00546 20.6554 6.69953 20.7511 6.79752 21.0885C7.20624 21.1029 6.87162 21.4163 7.05566 21.4235C7.36159 21.4378 7.36876 21.8637 7.83723 21.6556C7.77031 21.3421 7.47393 20.9976 7.43569 20.61Z" fill="#C29B17"/>
<path d="M17.5077 5.41205C17.7658 5.36898 18.012 5.26371 18.2414 5.12254C18.3681 5.0699 18.9178 4.82346 19.0373 4.70383C18.9776 4.73494 18.9107 4.76365 18.8509 4.79236C18.9178 4.76365 18.9848 4.72537 19.0517 4.69666C19.0684 4.74929 19.0756 4.80911 19.0445 4.88328C18.9848 5.09144 18.7195 5.15125 18.7338 5.47904C18.882 5.44315 19.023 5.4288 19.0517 5.67524C18.8748 6.18247 18.3179 6.6299 18.674 7.24959C18.7553 7.39075 18.5402 7.56302 18.533 7.66829C18.5187 7.94345 18.2582 8.19706 18.3084 8.36215C18.4518 8.83111 18.2056 9.35509 18.2199 9.92932C18.0335 9.89104 17.8781 9.86233 17.7228 9.83123C17.6702 10.1614 17.8996 10.2786 17.8566 10.3767C17.6033 10.9582 17.6774 11.6089 17.3666 12.1832C17.3882 12.4894 17.6917 12.5421 17.6176 12.944C17.4909 13.1019 17.3738 13.2575 17.2471 13.4154C17.1659 13.3245 17.1563 13.078 16.9794 13.1833C16.9484 13.4226 17.0153 13.5254 17.24 13.5039C17.3356 13.5948 17.4479 13.6546 17.3738 13.803C17.24 14.0638 17.0679 14.2815 16.8671 14.4442C16.5181 14.1906 16.4584 13.6977 16.652 13.1235C16.7643 12.7957 16.7117 12.4081 16.8002 12.2717C17.0894 11.8315 16.8599 11.6688 16.7476 11.585C16.5636 11.451 16.2289 11.5491 16.1381 11.908C15.9756 12.5851 15.5071 12.81 15.292 13.2957C15.1964 13.7647 15.151 14.1762 15.2107 14.5567C15.2251 14.6452 15.1725 14.7816 15.151 14.8916C14.9048 14.9084 14.6754 14.9227 14.4363 14.9371C14.3192 15.0878 14.1687 15.2218 14.0802 15.4084C13.9249 15.7051 13.9105 16.1765 13.5233 16.1238C13.4253 16.1095 13.1433 16.4827 13.1146 16.6693C13.0549 17.1024 12.8158 17.2508 12.6461 17.5211C12.2159 18.1982 11.8502 18.9758 11.3148 19.5046C11.1523 19.6697 11.1595 19.9018 11.1451 20.0956C11.1212 20.4617 10.9731 20.3348 10.8535 20.4018C10.789 20.4377 10.6169 20.5717 10.7651 20.8277C10.7651 20.8421 10.9205 20.6172 10.9061 20.878C10.7508 21.0718 10.5882 21.2895 10.2608 21.701C10.1413 21.6628 9.90227 21.5958 9.68716 21.5288C9.47922 22.0575 9.35971 22.2609 9.04183 22.4691C8.88408 22.5648 8.72155 22.7299 8.68331 22.8878C8.5877 23.3639 8.28416 23.7156 8.15031 24.2013C7.8372 24.1941 7.548 24.2683 7.2803 24.3951C7.42849 24.1104 7.57668 23.8281 7.72487 23.5434V23.5362C7.99973 22.9835 8.26743 22.4308 8.52078 21.8781C8.55902 21.9762 8.64746 22.0049 8.68331 21.9235C8.74306 21.7967 8.67614 21.7824 8.55902 21.7896C8.8554 21.1483 9.1446 20.4975 9.4362 19.8563C9.52463 19.8252 9.61307 19.7965 9.69433 19.7822C9.86642 19.751 10.0361 19.7152 10.2154 19.6769C10.2536 19.4544 10.2966 19.2079 10.3349 18.9615C10.5715 18.6098 10.9372 18.8179 11.1308 18.3777C11.3148 17.9614 11.5084 17.6479 11.8359 17.6096C11.9626 17.3632 11.7761 16.856 12.2064 16.8416C12.2518 16.1693 12.8828 16.0186 12.9664 15.3319C12.9951 15.1022 13.3154 15.3103 13.4182 15.0184C13.5018 14.7816 13.4636 14.4586 13.5687 14.2719C13.7767 13.9154 14.0515 13.6307 14.281 13.3316C14.3933 13.078 14.0802 12.944 14.3407 12.6521C14.6371 12.3243 14.8379 12.0181 14.704 11.4654C14.6299 11.1687 14.8451 10.6758 14.9574 10.2571C15.0697 9.83123 15.4713 10.1686 15.4259 9.60153C15.1438 9.19 14.7112 9.66853 14.3264 9.7116C14.422 10.348 13.8938 10.6447 13.7313 11.1974C13.5687 11.7645 13.2843 12.3554 12.9067 12.6976C12.9425 12.9512 13.203 12.7885 13.1289 12.9153C12.8684 13.3484 13.1003 13.6834 12.9736 14.0638C12.7346 14.0853 12.4908 14.4897 12.2064 14.2432C12.1848 14.1834 12.3259 13.9154 12.2064 13.8413C12.1251 13.8413 12.0582 13.803 12.0223 13.8413L12.0151 13.8484C12.4525 12.7813 12.8756 11.7118 13.2843 10.6447C14.5415 9.02491 15.8274 7.40511 17.0153 5.74941C17.1946 5.63696 17.3499 5.5245 17.5077 5.41205Z" fill="#C29B17"/>
<path d="M0.783938 20.8493C0.924956 20.7368 1.05163 20.6172 1.18548 20.5047C1.446 20.342 1.69697 20.1626 1.94315 19.976C1.99573 20.0047 2.04832 20.0358 2.11524 20.0812C1.96466 20.1626 1.81647 20.2367 1.66829 20.3181C2.53112 20.3851 3.07368 20.8708 3.65209 21.4163C4.00822 21.7513 4.30699 22.1556 4.84237 22.3781C5.39928 22.6102 5.1985 22.8638 5.079 23.0959C4.47669 22.9476 3.98671 22.737 3.63775 22.2226C3.52541 22.0504 2.78208 21.6412 2.37337 21.4235C2.22519 21.3421 2.08417 21.2225 1.95032 21.1101C1.86189 21.0431 1.81647 21.0359 1.79496 21.1172C1.66112 21.3637 2.43313 21.5575 2.18216 21.8183C1.98139 21.8183 1.72087 21.9164 1.56312 21.6843C1.35518 21.3709 0.984709 21.1627 0.738525 20.9019C0.745696 20.878 0.769597 20.8636 0.783938 20.8493Z" fill="#C29B17"/>
<path d="M2.33752 26.0078C2.02441 25.6848 1.66828 25.7446 1.42927 25.491C1.35517 25.5747 1.28825 25.6561 1.20699 25.7542C1.46751 25.948 1.72086 26.1489 1.9288 26.3045C2.2921 26.381 2.28493 26.1561 2.33752 26.0078Z" fill="#C29B17"/>
<path d="M8.63312 20.5646C8.53512 20.6627 8.47537 20.7153 8.40845 20.7679C8.58771 20.8948 8.72155 20.9976 8.87691 21.1173C8.94384 21.0431 9.01793 20.9689 9.12309 20.8565C8.97491 20.744 8.81716 20.6316 8.63312 20.5646Z" fill="#C29B17"/>
<path d="M5.18417 23.0959C5.2272 23.2826 5.20568 23.4764 5.49489 23.7443C5.56181 23.6343 5.62157 23.529 5.68132 23.4237C5.52596 23.3113 5.38494 23.2084 5.18417 23.0959Z" fill="#C29B17"/>
<path d="M2.71518 25.8499C2.46421 25.9623 2.74625 26.1776 2.74625 26.4169C3.0737 26.2901 2.7821 26.058 2.71518 25.8499Z" fill="#C29B17"/>
<path d="M2.90246 26.9323C2.80667 26.7549 2.67256 26.6278 2.46423 26.4169C2.40436 26.822 2.51451 26.9634 2.90246 26.9323Z" fill="#C29B17"/>
<path d="M26.3224 35.8606C26.0978 35.918 25.7273 35.8151 25.7799 36.0472C26.0978 36.1046 26.3296 36.0759 26.3224 35.8606Z" fill="#C29B17"/>
<path d="M8.82741 4.51011C8.66218 4.46456 8.56639 4.45737 8.48497 4.48853C8.4251 4.50292 8.46821 4.57723 8.56639 4.61559C8.72204 4.66593 8.84896 4.66593 8.82741 4.51011Z" fill="#C29B17"/>
<path d="M37.8716 15.9446C37.8931 16.0117 37.9386 16.0285 37.9769 16.0357C38.1469 16.0573 38.3481 16.0285 38.2739 15.923C38.1853 15.796 38.0128 15.8703 37.8716 15.9446Z" fill="#C29B17"/>
<path d="M12.2833 3.18996C12.2666 3.05572 12.2306 2.96462 12.1636 2.88312C12.1109 2.82319 12.0439 2.83038 12.0367 2.90469C12.0295 3.01736 12.0894 3.13722 12.2833 3.18996Z" fill="#C29B17"/>
<path d="M28.352 35.2698C28.2682 35.1811 28.1437 35.1355 28.1652 35.2482C28.1652 35.2626 28.2778 35.301 28.352 35.2698Z" fill="#C29B17"/>
<path d="M35.3452 14.9084C35.4266 14.9971 35.5535 15.0427 35.532 14.93C35.532 14.9156 35.4194 14.8773 35.3452 14.9084Z" fill="#C29B17"/>
<path d="M38.8233 12.729C38.8233 12.6307 38.682 12.5635 38.6221 12.6019C38.5192 12.6522 38.6533 12.705 38.8233 12.729Z" fill="#C29B17"/>
<path d="M38.9352 12.7048C38.9352 12.8031 39.0765 12.8702 39.1363 12.8318C39.2321 12.7815 39.1052 12.7216 38.9352 12.7048Z" fill="#C29B17"/>
<path d="M16.9938 0.823016C17.0393 0.926095 17.1351 1.01 17.1566 0.90452C17.1662 0.882946 17.0752 0.815824 16.9938 0.823016Z" fill="#C29B17"/>
<path d="M15.6482 3.69674C15.7679 3.70394 15.8278 3.6512 15.6793 3.57689C15.6482 3.5625 15.6123 3.61524 15.6482 3.69674Z" fill="#C29B17"/>
<path d="M32.4177 23.5819C32.4177 23.4836 32.2764 23.4165 32.2166 23.4549C32.1112 23.5148 32.2453 23.5651 32.4177 23.5819Z" fill="#C29B17"/>
<path d="M34.6833 24.3281C34.5708 24.3569 34.5277 24.424 34.6977 24.448C34.736 24.4552 34.7504 24.3952 34.6833 24.3281Z" fill="#C29B17"/>
</g>
</svg>
