<svg width="38" height="37" viewBox="0 0 38 37" fill="none" xmlns="http://www.w3.org/2000/svg">
<path fill-rule="evenodd" clip-rule="evenodd" d="M24.4175 33.736L24.5084 32.889C25.6126 33.0278 25.6748 32.9177 26.0859 33.98C25.0653 34.5303 22.8114 34.5303 20.6866 34.4538L20.6889 34.4275L24.4175 33.736ZM24.9601 28.7043L25.5051 23.6439C25.5552 23.6032 25.6102 23.5578 25.6724 23.5051C27.1518 25.7135 26.583 28.8455 25.3234 28.8455C25.18 28.8455 25.0605 28.7928 24.9601 28.7043ZM26.2197 16.9924L26.2938 16.3033C26.4061 16.4852 26.5232 16.6814 26.6499 16.9135L26.2197 16.9924ZM26.8196 11.42L26.8889 10.7836C26.9152 10.5275 26.9391 10.2572 26.9583 9.97724C27.4721 10.439 27.7111 11.0826 27.1423 11.3745C27.1256 11.3817 27.0037 11.4128 26.8196 11.42ZM14.5869 11.4272C14.4698 11.5899 14.3551 11.7502 14.2404 11.9153C14.2523 11.7621 14.2715 11.5994 14.2954 11.4248C14.4005 11.4248 14.4961 11.4248 14.5869 11.4272ZM10.9922 24.8283L10.8918 25.7638C9.6848 25.6322 9.75889 25.4456 9.17809 24.3713C10.0122 23.9071 8.88888 24.0148 10.1365 24.0148C10.5548 24.0148 10.8201 24.3665 10.9922 24.8283ZM10.7771 26.8213L10.6241 28.2569C10.5333 28.3215 10.4281 28.3957 10.3038 28.489C9.97161 27.8382 10.029 28.0439 9.89752 27.0654C8.04756 28.0248 8.22682 26.1562 8.18619 25.6418H9.16375C9.48164 26.6945 9.32867 26.2184 9.89752 27.0654L10.7771 26.8213ZM3.23145 36.2913H1.04927L0.958441 34.6931C3.25774 34.6931 3.39398 35.363 3.23145 36.2913ZM0.93454 16.7173L1.066 15.4803C1.10185 15.308 1.12575 15.1549 1.11858 14.9874L1.27633 13.5351C3.44895 12.1067 2.08897 11.877 3.10239 9.23314C4.39783 9.55614 4.57948 9.97724 5.64548 12.724C5.95859 13.5279 5.89644 12.9297 5.99444 14.2146L4.03454 15.5521C3.22667 16.5091 3.50871 16.3943 3.6067 18.1289C1.87147 17.9734 2.0579 17.5116 0.93454 16.7173ZM2.11048 5.78776L2.30647 3.95501H0C0.760061 3.53869 0.303546 3.66072 1.55358 3.62961C1.05405 1.96674 0.979953 3.12955 0.506707 1.66287L3.2195 1.17956C3.58997 2.54575 3.02351 2.83047 2.94464 3.01949C2.07941 5.13457 3.02112 4.98623 2.11048 5.78776ZM8.97971 0.150735L9.83298 0L9.43622 0.370857C9.21872 0.330182 9.07531 0.258403 8.97971 0.150735ZM12.6987 8.96277L12.5912 9.97724L12.529 8.91252C12.5888 8.92927 12.6438 8.94602 12.6987 8.96277ZM12.6031 10.1998C12.8254 9.85522 13.0549 9.51307 13.2867 9.17571C14.1926 9.58964 13.3799 9.87675 12.6103 10.3361L12.6031 10.1998ZM37.6756 12.0995C37.6684 12.1665 37.6636 12.2335 37.6541 12.3029L37.6421 12.4297C37.2358 13.2312 37.8381 12.7958 36.4996 12.9178C36.5307 11.2669 36.1124 12.2957 37.1306 11.4248L37.6756 12.0995ZM29.4153 36.2913H28.041C28.3517 36.076 28.9253 36.1286 29.4081 36.1167L29.4153 36.2913ZM33.2515 6.28782C32.8762 5.04844 32.8762 4.98623 31.5401 4.8642C31.9249 6.28782 31.7027 6.24953 33.2515 6.28782ZM8.52798 9.51786C8.68333 8.56559 8.81479 8.84792 8.77177 8.09425C8.7407 7.54394 7.72728 6.66585 7.27077 7.5583C6.65651 8.77136 7.77987 9.32645 8.52798 9.51786ZM34.1908 20.811C34.9389 20.811 34.5636 20.689 35.4767 20.4545L35.3548 18.3179C34.3629 18.3419 34.174 18.4806 33.4188 18.6744C33.469 19.5669 33.3805 20.811 34.1908 20.811ZM29.5898 4.31869C30.8924 4.31869 31.4063 4.53163 32.1592 3.60568C31.7863 2.73238 31.6405 2.94053 30.2447 2.02416C26.191 -0.634046 29.0305 3.48366 29.5898 4.31869ZM31.3656 36.1167L31.2844 34.6931H30.3068L30.3881 36.1167H31.3656ZM2.12721 26.5079C3.37247 26.5079 2.24911 26.6179 3.08326 26.1514C2.45944 25.2183 2.87771 25.4168 1.7185 25.0843C1.54402 26.027 1.76152 25.3762 1.4532 26.1514C1.46037 26.1586 2.0818 26.5079 2.12721 26.5079Z" fill="#B05F5D"/>
</svg>
