<svg width="42" height="47" viewBox="0 0 42 47" fill="none" xmlns="http://www.w3.org/2000/svg">
<path d="M35.491 16.0634C33.6697 16.8458 31.8485 17.6306 30.0272 18.4226C31.098 14.7786 31.7959 10.5532 29.671 7.41171C27.5319 4.26301 22.6919 3.44713 19.6014 5.65791C16.5086 7.8663 15.6697 12.6444 17.7419 15.8313C19.6229 18.7121 23.1149 19.9514 26.1862 21.5043C28.6672 22.758 31.031 24.3563 32.7997 26.512C34.5684 28.6702 35.7061 31.4384 35.5364 34.2234C35.3428 37.3721 33.5072 40.2552 31.1123 42.2985C26.9726 45.8444 21.2793 47.158 15.8465 46.9187C10.4066 46.6818 5.13638 45.0238 0 43.2245C2.49768 38.1497 3.37486 32.283 2.48334 26.6915C4.69182 27.2131 7.01742 27.1843 9.20916 26.5958C8.16229 28.5362 7.10585 30.5197 6.73538 32.6922C6.36252 34.8647 6.79513 37.3051 8.38457 38.8364C9.82582 40.2241 11.922 40.6285 13.9082 40.8295C16.3461 41.0759 18.9083 41.0687 21.0953 39.9634C23.2798 38.858 24.9362 36.372 24.3865 33.977C23.777 31.3116 20.9614 29.9167 18.5737 28.596C15.2753 26.7656 12.2207 24.3778 10.1079 21.2435C7.99737 18.1067 6.89791 14.19 7.63407 10.479C8.70485 5.05976 13.7217 0.872664 19.176 0.133343C24.6327 -0.605977 30.2447 1.79143 34.0641 5.77754C34.762 3.88976 36.1531 2.26996 37.9074 1.29855C38.775 2.39677 40.2259 2.99253 41.6073 2.82026C37.372 6.09098 34.4274 10.9791 35.491 16.0634Z" fill="#AA305C"/>
</svg>
