<svg width="45" height="37" viewBox="0 0 45 37" fill="none" xmlns="http://www.w3.org/2000/svg">
<path fill-rule="evenodd" clip-rule="evenodd" d="M29.3125 34.4346L31.7839 11.4822C31.9512 9.91025 32.011 7.76167 31.2127 6.33328C30.5936 5.22549 29.6232 4.79243 28.378 4.79243C27.3 4.79243 26.2699 5.2877 25.3999 5.89064C24.1714 6.73763 23.0671 7.78321 22.0752 8.89817C20.9925 10.1184 19.9767 11.3985 19.0469 12.7407C18.2725 13.8605 17.5268 15.0233 16.8863 16.2316L14.9263 34.461L18.5068 35.15L18.3108 36.99H0L0.200771 35.1237L3.99868 34.4323L7.20145 4.65365H3.20038L3.40832 2.71802L18.6334 0L17.4527 10.9678C18.5928 9.19964 19.8644 7.51523 21.2936 5.97199C22.8783 4.25648 24.6972 2.77784 26.7718 1.69398C28.77 0.653186 30.9044 0.138772 33.1582 0.138772C34.8146 0.138772 36.5785 0.349323 38.0939 1.06233C39.3845 1.67005 40.4386 2.56729 41.1699 3.79949C41.9133 5.05322 42.3268 6.46726 42.5275 7.90523C42.7594 9.58964 42.7307 11.3147 42.5491 13.0015L40.2426 34.449L44.1696 35.1429L43.9712 36.99H25.3832L25.5839 35.1261L29.3125 34.4346Z" fill="#BF6463"/>
</svg>
