<svg width="24" height="37" viewBox="0 0 24 37" fill="none" xmlns="http://www.w3.org/2000/svg">
<path d="M13.4088 12.2215H22.226C22.226 12.2215 23.1892 0 14.0063 0C4.81628 0 0.49493 5.3212 0.49493 11.1233C0.49493 24.0507 19.6542 16.3225 19.6542 26.0748C19.6542 30.3074 16.853 31.9583 13.6454 31.9583C11.3079 31.9583 13.0431 26.8979 13.0431 26.8979H0.000174045C0.000174045 26.8979 -0.176696 36.71 10.7462 36.71C19.7402 36.71 23.1438 31.6377 23.1438 25.3833C23.1438 11.2573 3.85784 20.4569 3.85784 10.5204C3.85784 6.56297 7.16339 4.97666 10.1941 4.97666C13.2248 4.97666 15.5886 9.59921 13.4088 12.2215Z" fill="#DD91BE"/>
</svg>
