<svg width="29" height="36" viewBox="0 0 29 36" fill="none" xmlns="http://www.w3.org/2000/svg">
<path d="M6.99351 17.6001C6.99351 18.928 7.18711 20.1507 7.57431 21.2704C7.96152 22.3902 8.48256 23.364 9.14224 24.1894C9.80191 25.0149 10.5691 25.6561 11.4463 26.1131C12.3211 26.5701 13.2485 26.7998 14.226 26.7998C15.2036 26.7998 16.131 26.5701 17.0058 26.1131C17.8829 25.6561 18.6573 25.0149 19.3266 24.1894C19.9982 23.364 20.5264 22.3902 20.9136 21.2704C21.2984 20.1507 21.4944 18.928 21.4944 17.6001C21.4944 16.2722 21.2984 15.0496 20.9136 13.9299C20.5264 12.8101 19.9982 11.8363 19.3266 11.0109C18.6573 10.1854 17.8829 9.54418 17.0058 9.08718C16.131 8.63019 15.2036 8.4005 14.226 8.4005C13.2485 8.4005 12.3211 8.63019 11.4463 9.08718C10.5691 9.54418 9.80191 10.1854 9.14224 11.0109C8.48256 11.8363 7.96152 12.8101 7.57431 13.9299C7.18711 15.0496 6.99351 16.2722 6.99351 17.6001ZM0 17.6001C0 15.1238 0.353739 12.8173 1.05883 10.6783C1.76152 8.54167 2.74148 6.67781 3.99151 5.08433C5.24155 3.49323 6.73777 2.24667 8.47778 1.34705C10.2178 0.447421 12.1347 0 14.226 0C16.2959 0 18.2056 0.447421 19.9576 1.34705C21.7095 2.24667 23.2153 3.49323 24.4773 5.08433C25.7417 6.67781 26.724 8.54167 27.4291 10.6783C28.1342 12.8173 28.4879 15.1238 28.4879 17.6001C28.4879 20.0765 28.1342 22.383 27.4291 24.522C26.724 26.6586 25.7417 28.5225 24.4773 30.116C23.2153 31.7071 21.7095 32.9536 19.9576 33.8532C18.2056 34.7529 16.2959 35.2003 14.226 35.2003C12.1347 35.2003 10.2178 34.7529 8.47778 33.8532C6.73777 32.9536 5.24155 31.7071 3.99151 30.116C2.74148 28.5225 1.76152 26.6586 1.05883 24.522C0.353739 22.383 0 20.0765 0 17.6001Z" fill="#703B3B"/>
</svg>
