<svg width="39" height="42" viewBox="0 0 39 42" fill="none" xmlns="http://www.w3.org/2000/svg">
<path d="M24.1673 9.11111L24.5115 9.1135C26.1965 9.10154 27.4226 9.52982 28.1899 10.3983C28.4098 10.6232 28.6655 11.0013 28.9547 11.5324C29.1029 11.8339 29.2057 12.1402 29.263 12.444C29.3467 12.8747 29.3634 13.102 29.3156 13.1235C29.1746 13.5518 29.0121 13.9227 28.828 14.2409C28.2162 15.1477 27.2577 15.9421 25.9527 16.6216C25.7185 16.7244 25.434 16.8273 25.0947 16.9302L19.0285 18.7295C18.9162 17.3633 18.8636 16.5785 18.8708 16.3751C18.9496 15.4994 18.995 14.9156 19.007 14.6213C18.9616 13.7361 18.9807 12.5685 19.0667 11.1209C19.1146 10.6041 19.1886 10.2667 19.2866 10.1064C19.3894 9.90068 19.5233 9.77387 19.6906 9.73319C20.8809 9.60399 22.0687 9.39823 23.2495 9.12068L24.1673 9.11111ZM17.3698 0H17.0495C15.8472 0.0861344 14.8195 0.212943 13.9638 0.38282C6.95119 2.24907 3.17479 3.07213 2.6394 2.8544C2.00841 4.65844 1.84349 6.33088 2.14225 7.87173L6.38473 7.7521C6.57594 7.78799 6.69306 7.96983 6.73369 8.29762C6.45165 11.5516 6.25566 14.3629 6.14811 16.7292L5.76091 35.1907L0.301856 37.7867C-0.123586 39.5836 -0.0996852 40.9689 0.37595 41.9403L2.55814 41.3541C7.78296 41.5024 14.8243 41.0383 23.6797 39.964C23.945 39.696 23.9115 38.7701 23.5841 37.1909C23.1825 37.0306 21.9014 37.0067 19.7432 37.1144C19.5161 37.0593 19.3799 36.9756 19.3392 36.8608L18.3497 25.5078C20.7255 24.9431 23.8805 23.9932 27.817 22.6558C29.9394 21.8925 31.7416 21.1221 33.2211 20.3493C34.8846 19.1721 35.8956 18.373 36.2565 17.9542C37.4229 16.3464 38.1065 15.1956 38.3073 14.5041C39.01 12.3196 38.9789 10.4534 38.2117 8.90534C37.8245 7.89327 35.9052 5.92414 32.4539 3.00035C29.6096 1.10061 24.5808 0.100491 17.3698 0Z" fill="#FE5721"/>
</svg>
