<svg width="1" height="5" viewBox="0 0 1 5" fill="none" xmlns="http://www.w3.org/2000/svg">
<mask id="mask0_3_2446" style="mask-type:luminance" maskUnits="userSpaceOnUse" x="0" y="0" width="2" height="5">
<path d="M0 0H1.00716V4.9679H0V0Z" fill="white"/>
</mask>
<g mask="url(#mask0_3_2446)">
<path d="M0.974995 4.20524C0.942834 4.29839 0.925907 4.40513 0.820959 4.44006C0.81588 4.40707 0.80911 4.37214 0.800646 4.34109C0.749865 4.26152 0.697391 4.18196 0.644917 4.10239C0.65338 4.09269 0.663537 4.08299 0.672 4.07134C0.687235 4.01507 0.687235 3.96267 0.665229 3.9161C0.765099 3.88505 0.802339 3.79578 0.832808 3.69681C0.863277 3.3999 0.964839 3.08941 0.721089 2.83713C0.905594 2.69353 0.859891 2.43737 0.89036 2.22002C0.870047 2.12688 0.827729 2.05702 0.749865 2.02597C0.75325 2.01238 0.756636 1.9988 0.758328 1.98521C0.744787 1.90953 0.704162 1.86296 0.64661 1.83773C0.644917 1.78727 0.644917 1.73682 0.643224 1.6883C0.744787 1.59904 0.717703 1.46514 0.738016 1.34676C0.732938 1.30407 0.729553 1.26332 0.724474 1.22256C0.744787 1.17793 0.760021 1.12942 0.77187 1.07702C0.800646 0.81504 0.776948 0.566645 0.648302 0.339597C0.573823 0.291082 0.504422 0.302726 0.438407 0.360943C0.470568 0.683081 0.414709 0.993574 0.36562 1.30601C0.369005 1.03433 0.457027 0.735476 0.152339 0.566645C0.0643184 0.6792 0.0660109 0.795634 0.137104 0.917891C0.137104 1.21092 0.137104 1.50201 0.137104 1.79504C0.194657 2.0085 0.0660107 2.26272 0.242052 2.4529C0.218354 2.55769 0.118485 2.64307 0.182808 2.76921C0.264058 2.73816 0.345307 2.70711 0.424865 2.67412C0.438407 2.71099 0.450255 2.74786 0.462104 2.78474C0.455334 2.81967 0.44687 2.8546 0.440099 2.88953C0.316532 2.8119 0.24036 2.9167 0.160802 3.01178L0.143875 3.00014C0.152339 3.10687 0.15911 3.21166 0.167573 3.3184C0.226818 3.32034 0.287755 3.32228 0.347 3.32422C0.42825 3.37079 0.429943 3.462 0.441792 3.54933C0.578902 3.62113 0.426557 3.69875 0.445177 3.77249C0.330073 3.88311 0.460412 3.98984 0.448563 4.09851C0.411323 4.1742 0.375777 4.24794 0.340229 4.32362C0.457027 4.40124 0.436714 4.53126 0.440099 4.65352C0.479032 4.67875 0.517964 4.67487 0.555203 4.64964C0.614448 4.6574 0.673693 4.6671 0.734631 4.67681C0.773563 4.69039 0.807417 4.68263 0.837886 4.65546C0.863277 4.67875 0.886975 4.70009 0.910672 4.72338L0.973302 4.29645V4.20719L0.974995 4.20524Z" fill="#E1067E"/>
</g>
</svg>
