<svg width="2" height="2" viewBox="0 0 2 2" fill="none" xmlns="http://www.w3.org/2000/svg">
<mask id="mask0_3_3407" style="mask-type:luminance" maskUnits="userSpaceOnUse" x="0" y="0" width="2" height="2">
<path d="M0 0H1.3V1.88431H0V0Z" fill="white"/>
</mask>
<g mask="url(#mask0_3_3407)">
<path d="M0.357147 0.238689C0.362225 0.357065 0.34022 0.483204 0.448553 0.562768C0.511184 0.564708 0.573814 0.566649 0.636444 0.568589C0.644908 0.599638 0.644907 0.632629 0.641522 0.665619C0.716001 0.727717 0.648293 0.925657 0.814178 0.90237C0.819257 0.898489 0.822642 0.892667 0.82772 0.886846C0.82772 0.890727 0.82772 0.896548 0.82772 0.896548C0.82772 0.97029 0.826027 1.04597 0.824335 1.11972C0.716001 1.26914 0.834491 1.41469 0.829413 1.56217C1.03085 1.36617 0.886965 1.1236 0.893736 0.90237C0.90897 0.752945 0.922512 0.60352 0.936053 0.454095C0.920819 0.452154 0.905585 0.452154 0.888658 0.452154C0.890351 0.409461 0.888657 0.366768 0.885272 0.322135C0.885272 0.318253 0.885272 0.314373 0.885272 0.310491C0.94621 0.227046 0.939439 0.147482 0.892043 0.0717988C0.892043 0.0562741 0.89035 0.0426904 0.89035 0.0291061H0.433319C0.436704 0.0582151 0.44009 0.0873235 0.436705 0.114492C0.409621 0.155244 0.384231 0.195996 0.357147 0.236749V0.238689Z" fill="#E1067E"/>
</g>
</svg>
