<svg width="2" height="7" viewBox="0 0 2 7" fill="none" xmlns="http://www.w3.org/2000/svg">
<mask id="mask0_3_2682" style="mask-type:luminance" maskUnits="userSpaceOnUse" x="0" y="0" width="2" height="7">
<path d="M0 0H1.73333V6.35542H0V0Z" fill="white"/>
</mask>
<g mask="url(#mask0_3_2682)">
<path d="M0.463794 0.374536C0.45533 0.438575 0.448559 0.504555 0.441788 0.566653C0.446867 0.694732 0.450251 0.82087 0.457023 0.947008C0.458715 1.00329 0.477335 1.04792 0.529809 0.997464C0.550122 0.979999 0.548429 0.931484 0.556893 0.896553C0.570434 0.836395 0.583976 0.776237 0.590747 0.718019C0.604288 0.739366 0.622908 0.758772 0.648299 0.778178C0.678767 0.758772 0.700773 0.735485 0.714314 0.710257C0.69908 0.877147 0.722778 1.01687 0.983455 1.00911C0.910668 1.06538 0.868351 1.14689 0.837882 1.24198C0.849731 1.35453 0.704158 1.53501 0.90559 1.568C0.888663 1.5874 0.871737 1.61263 0.854809 1.6398C0.792179 1.86685 0.783715 2.08807 0.878507 2.30542C0.89882 2.32483 0.91744 2.33647 0.934367 2.34617C0.934367 2.3811 0.934367 2.41603 0.934367 2.45096C0.936059 2.51888 0.937752 2.58874 0.939445 2.65667C0.932674 2.81967 0.86158 2.93611 0.741398 3.01761L0.73632 2.99045C0.526424 3.29706 0.692309 3.64442 0.653377 3.9685C0.814184 3.70652 0.704158 3.40573 0.74309 3.12629C0.804028 3.19615 0.863273 3.26407 0.92421 3.33393C0.930982 3.40379 0.939445 3.47365 0.946215 3.54351C0.94283 3.691 0.937752 3.84042 0.934367 3.98985C0.827726 4.12763 0.936059 4.27511 0.920825 4.41678C0.895434 4.45753 0.868351 4.49828 0.841268 4.53903C0.846346 4.65547 0.82434 4.78355 0.932674 4.86311C0.995304 4.86505 1.05793 4.86699 1.12056 4.86893C1.12903 4.89998 1.13072 4.93297 1.12564 4.96596C1.20181 5.02806 1.13241 5.226 1.2983 5.20271C1.30338 5.19689 1.30845 5.19107 1.31184 5.18719C1.31184 5.19107 1.31184 5.19689 1.31184 5.19689C1.31184 5.27063 1.31015 5.34438 1.31015 5.41812C1.20181 5.56754 1.31861 5.71503 1.31353 5.86251C1.51497 5.66457 1.37278 5.42394 1.37955 5.20271C1.39309 5.05135 1.40832 4.90192 1.42017 4.75444C1.40494 4.7525 1.3897 4.7525 1.37278 4.7525C1.37447 4.70981 1.37278 4.66517 1.36939 4.62248C1.36939 4.6186 1.36939 4.61472 1.36939 4.61084C1.43033 4.52739 1.42356 4.44783 1.37616 4.3702C1.37616 4.34109 1.37616 4.31199 1.37278 4.28094C1.3677 4.25571 1.35754 4.23048 1.34569 4.20719C1.45234 4.21884 1.45403 4.12181 1.45234 4.02284C1.43202 3.99179 1.40833 3.96074 1.38463 3.93357C1.36601 3.87729 1.34739 3.82102 1.32877 3.76474C1.3203 3.6289 1.40494 3.4853 1.32369 3.35334C1.35077 3.31646 1.3677 3.27183 1.37447 3.22332C1.37447 3.17674 1.36601 3.12823 1.35247 3.08359C1.34908 3.07389 1.34569 3.06225 1.34062 3.0506C1.36093 3.02926 1.37447 3.00015 1.38463 2.96716C1.40325 2.82162 1.36431 2.68577 1.33046 2.54799C1.33046 2.54411 1.33046 2.54023 1.32877 2.53635C1.33215 2.53247 1.33723 2.53247 1.34062 2.52859C1.39478 2.48201 1.4371 2.42768 1.39986 2.34423C1.3677 2.30154 1.33723 2.25884 1.30507 2.21809C1.32707 2.19869 1.35077 2.18122 1.37447 2.16958C1.43879 1.99104 1.44049 1.82027 1.31861 1.67085C1.31015 1.6398 1.30338 1.61069 1.2983 1.57964C1.34569 1.35453 1.45572 1.14107 1.3914 0.896553C1.38463 0.636515 1.48619 0.360952 1.31861 0.120319C1.31861 0.0892695 1.31353 0.0582201 1.30338 0.0310516H0.731242C0.732934 0.0543387 0.732934 0.0776257 0.734627 0.100913C0.732934 0.0756852 0.727857 0.0543387 0.721085 0.0310516H0.438403C0.438403 0.0310516 0.438403 0.0329926 0.438403 0.034933C0.389315 0.130022 0.404549 0.230932 0.414705 0.329902C0.42994 0.351248 0.446867 0.366773 0.463794 0.374536Z" fill="#E1067E"/>
</g>
</svg>
