<svg width="2" height="2" viewBox="0 0 2 2" fill="none" xmlns="http://www.w3.org/2000/svg">
<mask id="mask0_3_665" style="mask-type:luminance" maskUnits="userSpaceOnUse" x="0" y="0" width="2" height="2">
<path d="M0 0H1.73333V1.38752H0V0Z" fill="white"/>
</mask>
<g mask="url(#mask0_3_665)">
<path d="M0.563686 0.708318C0.594155 0.74519 0.629702 0.770417 0.673712 0.782061C0.876837 0.791764 0.939468 0.605467 1.02918 0.459923C1.04103 0.754893 0.958087 1.05956 1.11551 1.33513C1.1883 1.35065 1.20522 1.29049 1.22554 1.23422L1.21369 0.733546C1.22384 0.737427 1.234 0.743249 1.24585 0.74519C1.28986 0.737427 1.32371 0.716081 1.3491 0.673388C1.41004 0.529785 1.40666 0.3823 1.36772 0.234816C1.3491 0.18242 1.32371 0.137786 1.28986 0.100915C1.29324 0.0659847 1.29494 0.0349353 1.29832 0.0019455H1.1172C1.1172 0.00776688 1.1172 0.0135888 1.1172 0.0213511C1.10197 0.025232 1.08843 0.0310539 1.07658 0.0388163C1.08166 0.025232 1.08673 0.0135888 1.09012 0.0019455H0.480744C0.482436 0.0155292 0.485822 0.0310539 0.487514 0.0446381C0.475665 0.054341 0.463816 0.0659847 0.451968 0.079569C0.363947 0.285271 0.468894 0.444399 0.551837 0.609349C0.556915 0.642339 0.560301 0.677269 0.563686 0.710259V0.708318Z" fill="#EFEEE8"/>
</g>
</svg>
