<svg width="1" height="2" viewBox="0 0 1 2" fill="none" xmlns="http://www.w3.org/2000/svg">
<mask id="mask0_3_705" style="mask-type:luminance" maskUnits="userSpaceOnUse" x="0" y="0" width="1" height="2">
<path d="M0 0H0.866667V1.88431H0V0Z" fill="white"/>
</mask>
<g mask="url(#mask0_3_705)">
<path d="M0.154027 0.671443C0.1371 0.683086 0.120173 0.69473 0.104939 0.706373C0.104939 0.776235 0.104939 0.848036 0.104939 0.919838C0.110016 0.952828 0.11848 0.981937 0.126944 1.01299C0.120173 1.16241 0.0541571 1.32348 0.19973 1.44186C0.23697 1.35647 0.308064 1.35065 0.379157 1.34871C0.38085 1.38752 0.382542 1.42633 0.384235 1.4632C0.44348 1.42051 0.504418 1.37782 0.563663 1.33512C0.567048 1.29825 0.568741 1.26138 0.572126 1.22451C0.565356 1.11972 0.556892 1.01493 0.548428 0.910135C0.528116 0.871324 0.507803 0.832511 0.487491 0.7937C0.448558 0.768472 0.411319 0.741304 0.370694 0.718017C0.409626 0.655918 0.409626 0.531721 0.4621 0.490968C0.458715 0.357068 0.455329 0.227049 0.451944 0.0931482C0.451944 0.0620988 0.453637 0.0310494 0.453637 0H0.160798C0.152334 0.00970281 0.143871 0.0194061 0.1371 0.0310494C0.108324 0.102851 0.0930897 0.180474 0.0880115 0.260039C0.0829333 0.407523 0.0897041 0.549186 0.169262 0.669503C0.164183 0.669503 0.159105 0.669503 0.154027 0.671443Z" fill="#EFEEE8"/>
</g>
</svg>
