<svg width="1" height="2" viewBox="0 0 1 2" fill="none" xmlns="http://www.w3.org/2000/svg">
<mask id="mask0_3_2942" style="mask-type:luminance" maskUnits="userSpaceOnUse" x="0" y="0" width="1" height="2">
<path d="M0 0H0.866667V1.38752H0V0Z" fill="white"/>
</mask>
<g mask="url(#mask0_3_2942)">
<path d="M0.245437 0.931479C0.30976 0.879083 0.374082 0.826687 0.438405 0.774291C0.504421 0.776232 0.570437 0.778173 0.636452 0.780113C0.704161 0.442451 0.573822 0.481263 0.429942 0.543361C0.419785 0.514253 0.409629 0.485144 0.399473 0.457976C0.399473 0.457976 0.399473 0.456035 0.399473 0.454095C0.450254 0.322135 0.467181 0.180472 0.458718 0.0329876C0.458718 0.0329876 0.462103 0.0310466 0.463796 0.0291061H0.17265C0.17265 0.0291061 0.17265 0.0291061 0.17265 0.0310466C0.162494 0.246452 0.152337 0.459916 0.142181 0.677262C0.165879 0.766529 0.148952 0.879083 0.245437 0.931479Z" fill="#E1067E"/>
</g>
</svg>
