<svg width="6" height="23" viewBox="0 0 6 23" fill="none" xmlns="http://www.w3.org/2000/svg">
<mask id="mask0_3_2254" style="mask-type:luminance" maskUnits="userSpaceOnUse" x="0" y="0" width="6" height="23">
<path d="M0 0H5.63333V22.2527H0V0Z" fill="white"/>
</mask>
<g mask="url(#mask0_3_2254)">
<path d="M1.27969 11.6396C1.25938 11.5989 1.23737 11.5737 1.21537 11.562C1.22214 11.5271 1.22891 11.4922 1.23399 11.4572C1.27631 11.172 1.29154 10.8848 1.31355 10.5976C1.3 10.5258 1.27292 10.4598 1.2323 10.4035C1.25092 10.3763 1.27461 10.3608 1.31693 10.3686C1.49636 10.3957 1.40834 10.2715 1.3948 10.1881C1.31016 10.1008 1.3237 9.86983 1.12565 9.94746L1.11719 10.2929C1.07657 10.2618 1.03256 10.2385 0.986852 10.2153C0.968233 10.2075 0.94792 10.2017 0.930993 10.1978C1.00547 10.0173 0.946228 9.8349 0.934379 9.65249C0.946228 9.65249 0.958077 9.65443 0.969925 9.65249C1.0224 9.6389 1.06133 9.60397 1.08672 9.54964C1.09688 9.51859 1.10365 9.48754 1.10873 9.45649C1.12227 9.47395 1.13581 9.49142 1.15782 9.50694C1.24076 9.41962 1.3 9.33035 1.33386 9.24496C1.33386 9.2896 1.33386 9.33617 1.33217 9.38275C1.32878 9.56128 1.32539 9.73981 1.32201 9.91835C1.49467 9.77086 1.37448 9.56322 1.40495 9.38469C1.42526 9.26049 1.4405 9.13047 1.55222 9.08001C1.53868 9.15376 1.55052 9.22168 1.59792 9.27795L1.62162 9.27407C1.62162 9.54964 1.62162 9.82714 1.61993 10.1027C1.60469 10.1143 1.58946 10.1279 1.57422 10.1415C1.51836 10.2541 1.52683 10.3608 1.59453 10.4637C1.6267 10.5296 1.65717 10.5956 1.68763 10.6597C1.67917 10.6558 1.67071 10.6499 1.66224 10.6461C1.49974 10.6558 1.42019 10.7237 1.50651 10.9197C1.54206 11.0284 1.47774 11.1642 1.57422 11.2554C1.58776 11.2903 1.59961 11.3272 1.61146 11.3621C1.60469 11.725 1.59961 12.0899 1.59284 12.4528C1.59284 12.5634 1.59115 12.674 1.59115 12.7865C1.603 12.936 1.61485 13.0834 1.6267 13.2309L1.58776 13.2232C1.59454 13.4444 1.603 13.6637 1.61146 13.883L1.62839 13.8713C1.62839 14.011 1.6267 14.1546 1.625 14.2944C1.54375 14.3371 1.50144 14.4205 1.45235 14.502C1.41342 14.5835 1.36602 14.665 1.41511 14.764C1.47943 14.764 1.54375 14.7621 1.60808 14.7621C1.60638 14.9833 1.603 15.2064 1.59961 15.4277C1.60977 15.4704 1.62839 15.4995 1.65547 15.5189C1.57422 15.6276 1.52175 15.7537 1.47435 15.8837C1.46081 15.9594 1.45065 16.0351 1.52006 16.0875L1.51667 16.0778C1.54375 16.0836 1.57084 16.0894 1.59623 16.0914C1.60131 16.235 1.60638 16.3766 1.61146 16.5202C1.71472 16.5241 1.77396 16.6231 1.86198 16.6638C1.92969 16.625 1.96355 16.559 1.98386 16.4814C2.00417 16.3436 1.99909 16.2156 1.91276 16.1127C1.91446 16.1108 1.91446 16.1088 1.91615 16.1088C1.95677 16.0157 1.82644 15.8915 1.95847 15.8138C2.00079 15.6838 1.9974 15.5596 1.92631 15.4413C1.91615 15.4335 1.90769 15.4277 1.89922 15.4219C1.9974 15.3287 1.99909 15.1987 1.99571 15.0667C1.99063 15.0143 1.98047 14.96 1.96355 14.9115C1.93815 14.8416 1.89922 14.7834 1.85013 14.7329C1.95847 14.665 1.91954 14.5466 1.8569 14.4186C1.83659 14.3933 1.81459 14.3739 1.79258 14.3545C1.79935 14.273 1.80274 14.1954 1.80951 14.1139C1.84675 14.0169 1.80274 13.9684 1.75026 13.9276C1.93477 13.7937 1.84167 13.621 1.80951 13.456C1.87045 13.4153 1.92969 13.3745 1.98894 13.3338C2.07019 13.1785 2.06849 13.033 1.93815 12.9069C1.92631 12.8991 1.91615 12.8933 1.9043 12.8913C2.07696 12.7924 1.95508 12.6002 1.99909 12.4605C1.99571 12.381 1.99063 12.3014 1.98724 12.2218C2.01602 12.1772 2.03972 12.1287 2.05157 12.0724C2.06003 11.9967 2.04649 11.9269 2.01094 11.8628C2.02448 11.8453 2.03633 11.8259 2.0431 11.8027C2.04649 11.8356 2.04987 11.8686 2.05834 11.8997C2.16159 11.9055 2.2056 11.8764 2.22253 11.8337C2.20222 11.9327 2.15651 12.0258 2.07357 12.1054C2.03802 12.2238 2.08204 12.2917 2.16667 12.3305C2.12943 12.3771 2.10404 12.4275 2.08881 12.4877C2.06849 12.6216 2.05664 12.7516 2.09896 12.868C2.09896 12.9476 2.09727 13.0252 2.09727 13.1067C2.12774 13.0757 2.1599 13.0466 2.19206 13.0155C2.34948 13.1087 2.16498 13.2814 2.21914 13.3978C2.21068 13.423 2.20222 13.4483 2.19714 13.4754C2.21068 13.652 2.22253 13.8286 2.26823 13.9994C2.26485 14.0712 2.26315 14.143 2.25977 14.2148C2.26823 14.2517 2.275 14.2885 2.28347 14.3274C2.35795 14.4651 2.07526 14.6747 2.35287 14.7718C2.42565 14.9503 2.27162 15.1385 2.37657 15.3132C2.56784 15.1754 2.44935 14.9755 2.45612 14.8009C2.46967 14.795 2.48321 14.7892 2.49675 14.7776C2.52891 14.731 2.54922 14.6805 2.56446 14.6301C2.56784 14.7155 2.56954 14.8028 2.57292 14.8901C2.57461 15.0706 2.57631 15.2511 2.578 15.4316L2.62032 15.4335C2.62032 15.4335 2.62709 15.4335 2.63555 15.4316C2.69818 15.5713 2.67448 15.7382 2.74219 15.8759C2.74219 15.9827 2.74219 16.0875 2.74219 16.1942C2.72357 16.1961 2.70495 16.1981 2.68802 16.1981C2.68802 16.1961 2.68802 16.1942 2.68802 16.1923C2.66094 15.9594 2.60847 15.7556 2.34102 15.8138C2.30209 15.8449 2.27839 15.8779 2.26146 15.9109C2.24623 15.8624 2.22253 15.8119 2.18698 15.7653C2.15651 15.7304 2.12266 15.6955 2.09219 15.6586C2.08373 15.7304 2.07696 15.8022 2.06849 15.8759L2.10573 16.3009C2.15651 16.3378 2.20052 16.3281 2.23438 16.2679C2.24623 16.2408 2.25638 16.2136 2.26315 16.1864C2.28516 16.2757 2.31224 16.3669 2.29024 16.4504C2.28516 16.5416 2.28347 16.6328 2.27839 16.722C2.24792 16.722 2.22253 16.7356 2.20052 16.7667C2.16329 16.8346 2.12774 16.9006 2.0905 16.9685C2.00756 16.887 1.92292 16.8851 1.83828 16.9394C1.83659 16.9355 1.83659 16.9316 1.8349 16.9258C1.7875 16.8113 1.80105 16.6289 1.61823 16.6619C1.58269 16.8346 1.4642 16.986 1.52683 17.182C1.59792 17.3275 1.61823 17.4808 1.60131 17.6361C1.58269 17.6302 1.5573 17.6361 1.52344 17.6477C1.52344 17.8612 1.52175 18.0746 1.52006 18.2881C1.5793 18.2454 1.63855 18.2008 1.69948 18.1581C1.76381 18.2765 1.82813 18.3929 1.89245 18.5113C1.84336 18.2997 2.08373 18.096 1.9043 17.8806C1.89245 17.8767 1.8806 17.8786 1.87214 17.8806C1.9043 17.7913 1.91615 17.6982 1.91953 17.607C2.07019 17.4323 1.94831 17.1509 2.09219 16.9743C2.12435 17.0093 2.15651 17.0461 2.18698 17.0811L2.22761 17.0869H2.26654C2.30547 17.3353 2.34271 17.5837 2.38164 17.8321L2.56446 17.5157C2.72696 17.572 2.62878 17.7447 2.67787 17.8515C2.68464 17.999 2.69141 18.1445 2.69818 18.292L2.67787 18.6238C2.6711 18.6956 2.66433 18.7694 2.65586 18.8431C2.65925 19.0643 2.66094 19.2856 2.66263 19.5068L2.7642 19.6116C2.84883 19.6659 2.85052 19.7513 2.82683 19.8444C2.83529 19.8774 2.84037 19.9104 2.84206 19.9454C2.62201 20.2151 2.71172 20.5256 2.75573 20.8303C2.75235 20.8671 2.74896 20.904 2.74558 20.9409C2.74558 21.0088 2.74558 21.0767 2.74558 21.1466C2.75065 21.296 2.75743 21.4454 2.7642 21.5929C2.77266 21.752 2.71342 21.9267 2.86068 22.0451C2.88946 22.0063 2.91823 21.9655 2.94701 21.9267C2.9487 21.9015 2.95209 21.8762 2.95378 21.853C2.95039 21.754 2.93177 21.6647 2.85899 21.6026C2.87592 21.5929 2.89115 21.5813 2.90469 21.558C2.925 21.5056 2.94024 21.4513 2.95378 21.3969C2.95378 21.5347 2.95378 21.6705 2.95547 21.8083C2.98763 21.7734 3.0181 21.7385 3.05026 21.7055C3.02657 21.5677 3.09258 21.4047 2.9724 21.296C2.99948 21.1097 2.97748 20.9254 2.89115 20.741C2.88099 20.7313 2.86914 20.7235 2.85899 20.7197C2.9267 20.708 2.98256 20.6673 3.02995 20.611C3.08073 20.5489 3.11289 20.4771 3.13321 20.3956C3.16198 20.2229 3.16706 20.056 3.05196 19.9163C3.21107 19.7105 3.18907 19.4913 3.06719 19.2681C3.06211 19.2642 3.05873 19.2642 3.05534 19.2623C3.07565 19.2293 3.0892 19.1924 3.0892 19.1497C3.07565 19.0643 3.0655 18.9751 3.04688 18.8955C3.05365 18.6238 3.06042 18.3502 3.06719 18.0785C3.10782 18.0028 3.10782 17.9252 3.06888 17.8495C3.05704 17.8398 3.04519 17.8321 3.03334 17.8262C3.03334 17.7234 3.03334 17.6205 3.03334 17.5177C3.03334 17.3954 3.03503 17.2732 3.03672 17.149C3.04688 17.1354 3.05873 17.1218 3.06719 17.1063C3.07735 17.0616 3.07058 17.0209 3.04688 16.984C3.05534 16.9821 3.0655 16.9782 3.07396 16.9743C3.11967 16.9045 3.13828 16.8268 3.13828 16.7434C3.13659 16.6561 3.11459 16.5765 3.06888 16.5066C3.11967 16.4407 3.12305 16.3592 3.10782 16.2718C3.09258 16.2272 3.06719 16.1903 3.03164 16.1632C3.0181 16.1573 3.00625 16.1535 2.9944 16.1496C3.06042 16.0351 3.13321 15.9206 3.04519 15.7692C2.90469 15.6004 2.95886 15.3986 2.96563 15.2045C3.01472 15.0764 3.06042 14.9483 2.9961 14.8106C2.98086 14.7873 2.96394 14.7718 2.94532 14.7621C2.93855 14.5874 2.93347 14.4108 2.92839 14.2362C2.92839 14.0828 2.93008 13.9315 2.93008 13.7782C2.93855 13.7452 2.94701 13.7122 2.95378 13.6792C2.89961 13.3493 3.05873 12.9903 2.85222 12.6817C2.8573 13.0485 2.86237 13.4172 2.86745 13.7859C2.82852 13.7859 2.78959 13.7859 2.75235 13.7879C2.73204 13.5725 2.82513 13.3415 2.67787 13.1455C2.61693 13.3163 2.73034 13.5317 2.57461 13.6773C2.58308 13.5938 2.58138 13.5104 2.56953 13.4289C2.55599 13.3493 2.52722 13.2775 2.47136 13.227C2.52552 13.132 2.50521 13.0252 2.50183 12.9204C2.49336 12.8098 2.49675 12.6953 2.48151 12.5847C2.48151 12.3654 2.42904 12.1384 2.48151 11.923H2.51706L2.5543 11.9269C2.56276 12.0724 2.57123 12.216 2.58138 12.3615C2.57631 12.4702 2.56954 12.5789 2.56276 12.6895C2.65925 12.5246 2.75743 12.5168 2.8556 12.6876C2.88946 12.6488 2.90977 12.6002 2.91823 12.5478C2.91654 12.5284 2.91485 12.509 2.91315 12.4916C2.99102 12.3324 2.94024 12.152 2.93855 11.9793C2.9487 11.9249 2.95547 11.8667 2.96055 11.8104C2.98933 11.8046 3.0198 11.8007 3.04857 11.8027C3.05704 11.8842 3.0655 11.9676 3.07396 12.0627C3.19076 11.9501 3.10274 11.8104 3.14506 11.6998H3.18568H3.22631C3.23477 11.8434 3.24323 11.989 3.25 12.1326C3.2517 12.3907 3.25339 12.6488 3.25339 12.9069C3.2517 13.1261 3.24831 13.3454 3.24493 13.5647C3.22969 13.5705 3.21446 13.5764 3.19753 13.5861C3.1806 13.6132 3.16706 13.6443 3.15521 13.6734C3.12644 13.6773 3.09597 13.6773 3.0655 13.6792C3.06042 14.0421 3.05365 14.4069 3.04688 14.7698C3.10443 14.7271 3.12813 14.6708 3.13828 14.6107C3.16368 14.6844 3.21784 14.7465 3.32956 14.7776C3.32956 14.7776 3.32956 14.7776 3.33125 14.7776C3.32279 14.7815 3.31433 14.7853 3.30586 14.7912C3.24831 14.8979 3.24323 15.0007 3.31602 15.1036L3.32279 15.4781C3.30925 15.4839 3.29571 15.4898 3.28217 15.4975C3.17552 15.5926 3.22969 15.6994 3.26185 15.8061C3.26693 15.8197 3.27032 15.8333 3.2737 15.8468C3.19076 16.0312 3.26016 16.2447 3.22461 16.4368C3.20261 16.4601 3.19414 16.4834 3.20092 16.5086C3.20769 16.5338 3.21446 16.5455 3.22292 16.5455L3.24831 16.5299C3.26524 16.7531 3.13659 16.9724 3.23815 17.1955C3.27201 17.1742 3.29401 17.149 3.30925 17.1218C3.30079 17.2072 3.29401 17.2906 3.2737 17.3721C3.26016 17.4498 3.26185 17.5254 3.28386 17.5992C3.30586 17.6458 3.33802 17.6788 3.38204 17.6982C3.38711 17.6982 3.3905 17.6982 3.39558 17.6982C3.37526 17.7292 3.36003 17.7622 3.34987 17.7952C3.32956 17.7797 3.2974 17.77 3.24831 17.7641C3.23646 17.8689 3.22461 17.9757 3.21276 18.0805C3.21784 18.4453 3.22461 18.8121 3.22969 19.1769C3.26524 19.1769 3.2974 19.1769 3.33295 19.1769C3.33464 18.9207 3.33633 18.6665 3.33802 18.4104C3.37188 18.4104 3.40573 18.4084 3.43959 18.4084C3.45313 18.5054 3.39388 18.6258 3.50222 18.6917C3.51914 18.7014 3.57839 18.6685 3.57839 18.6607C3.56823 18.5753 3.55131 18.4919 3.53776 18.4065C3.59532 18.4045 3.65287 18.4026 3.71042 18.4007C3.65625 18.3347 3.5987 18.2668 3.54284 18.1988C3.59532 18.0902 3.64948 17.9815 3.70196 17.8709C3.6681 17.7874 3.6461 17.6943 3.56823 17.6535C3.60378 17.6225 3.63086 17.5817 3.6444 17.5274C3.66472 17.3818 3.68503 17.2382 3.70365 17.0927C3.63763 16.9821 3.70026 16.8365 3.63086 16.7279C3.62409 16.724 3.61901 16.722 3.61394 16.7201C3.62409 16.6561 3.63763 16.594 3.64948 16.5319C3.63256 16.4698 3.61732 16.4077 3.60209 16.3456C3.61901 16.3417 3.63594 16.3339 3.65118 16.3223C3.70026 16.2194 3.7849 16.1224 3.69349 15.9943C3.67826 15.9575 3.66133 15.9186 3.6461 15.8798C3.63256 15.7673 3.62071 15.6547 3.60717 15.5402C3.61732 15.4296 3.62579 15.319 3.63594 15.2103C3.59532 15.1036 3.65795 14.9581 3.54623 14.8746C3.67318 14.698 3.45821 14.5214 3.54623 14.3448C3.62071 14.2362 3.62748 14.11 3.60717 13.9781C3.60039 13.9392 3.58855 13.9024 3.575 13.8655C3.65287 13.7821 3.60039 13.6152 3.72058 13.5628C3.7155 13.4502 3.71211 13.3377 3.70703 13.227C3.70703 12.9728 3.70703 12.7186 3.70703 12.4644C3.67826 12.4644 3.64948 12.4644 3.62071 12.4644C3.60717 12.1675 3.68503 11.8589 3.51576 11.5873C3.55638 11.4883 3.63086 11.4669 3.71719 11.4747V11.4766L3.72058 11.4747C3.74597 11.8007 3.85599 12.1151 3.82214 12.4508C3.95925 12.3363 3.87969 12.1617 3.91862 12.0181C3.85599 11.8027 4.02865 11.5387 3.81537 11.3544C3.78321 11.3641 3.75782 11.3854 3.7375 11.4145C3.7849 11.2399 3.80183 11.0691 3.6918 10.9061C3.65964 10.9119 3.63256 10.9255 3.60886 10.941C3.58347 10.9333 3.55808 10.9255 3.53438 10.9158C3.5293 10.8828 3.5293 10.8518 3.5293 10.8188C3.90508 10.714 3.64271 10.3744 3.71381 10.157C3.7155 10.1551 3.71888 10.1532 3.72058 10.1512C3.74766 10.2114 3.78151 10.2618 3.83737 10.2909C3.87461 10.2871 3.9017 10.2696 3.9237 10.2463C3.9237 10.3977 3.87461 10.5568 3.97279 10.6946C3.97956 10.6985 3.98464 10.7023 3.98972 10.7062C3.99141 10.714 3.9931 10.7237 3.9948 10.7315C3.95756 10.7936 3.95417 10.8615 3.99141 10.9313C3.99649 10.9896 4.00157 11.0478 4.00664 11.106C3.9948 11.1545 3.99141 11.2069 3.98802 11.2612C3.9931 11.3253 3.99987 11.3893 4.01849 11.4456C4.01849 11.531 4.02019 11.6144 4.02019 11.6998C3.9948 11.7677 3.97956 11.8376 3.96094 11.9094C3.95417 11.954 3.95417 12.0006 3.95925 12.0452C3.96771 12.1151 3.97956 12.183 3.98633 12.2529C3.99141 12.313 3.9931 12.3751 3.99987 12.4353C3.97618 12.6313 4.01342 12.8253 4.08789 13.0194C4.08789 13.0931 4.08789 13.1649 4.08959 13.2387C4.09805 13.2697 4.10313 13.3027 4.10651 13.3357C4.10482 13.4017 4.10482 13.4657 4.10313 13.5317C4.07943 13.5317 4.05404 13.5356 4.02865 13.5434C3.88815 13.6579 3.89323 13.8306 3.88308 13.9994C3.88308 14.0013 3.88308 14.0033 3.88308 14.0052C3.85938 14.0052 3.83568 14.0052 3.81368 14.0033C3.81368 14.0402 3.81368 14.079 3.81198 14.1158C3.81706 14.2556 3.82383 14.3953 3.82891 14.535C3.85092 14.5466 3.87461 14.5505 3.89831 14.5525C3.90508 14.6146 3.91524 14.6728 3.93724 14.731C3.94232 14.7426 3.94909 14.7523 3.95417 14.7621C3.90847 14.7543 3.87292 14.7853 3.83907 14.8261C3.8323 14.8494 3.82722 14.8688 3.82045 14.8921C3.88815 15.0066 3.88815 15.2453 4.10144 15.0881C4.10144 15.0163 4.10144 14.9445 4.10144 14.8746C4.23177 14.8707 4.36211 14.8707 4.49245 14.8688L4.4823 14.9154C4.51276 14.9057 4.54662 14.894 4.57709 14.8843C4.66849 14.632 4.63464 14.3759 4.59401 14.1217C4.58386 13.9742 4.57032 13.8247 4.55847 13.6773C4.56355 13.4599 4.56862 13.2406 4.5737 13.0233C4.57709 12.9476 4.58047 12.8739 4.58386 12.7982C4.58217 12.7206 4.57878 12.6429 4.57709 12.5653C4.58555 12.4566 4.59232 12.348 4.60079 12.2393C4.60417 12.02 4.60586 11.8007 4.60586 11.5795C4.59232 11.5737 4.58047 11.5698 4.56693 11.564C4.57709 11.4941 4.58724 11.4262 4.5974 11.3583C4.67188 11.2457 4.66003 11.1215 4.6431 10.9973C4.66511 11.0245 4.69219 11.0517 4.72774 11.0749C4.75651 11.0808 4.7836 11.0788 4.80899 11.0711C4.853 11.2632 4.79883 11.4514 4.76836 11.6396C4.76159 11.7794 4.7599 11.9191 4.85977 12.0258L4.97826 12.2354C4.9461 12.3829 4.87839 12.5246 4.95625 12.6779C4.92748 12.6779 4.8987 12.6798 4.86823 12.6856L4.875 13.4483C4.95964 13.4638 5.0375 13.4522 5.07813 13.3493C5.24063 13.2853 5.03243 13.0893 5.16784 13.0155C5.16276 12.9806 5.16107 12.9437 5.15599 12.9069C5.10521 12.8409 5.1323 12.7303 5.06289 12.674C5.05951 12.672 5.05782 12.672 5.05443 12.672C5.07136 12.6546 5.08829 12.6391 5.10521 12.6216C5.16107 12.4838 5.16615 12.3577 5.0612 12.2509C5.08151 12.2432 5.09844 12.2276 5.11368 12.2005C5.13399 12.152 5.14753 12.1034 5.15938 12.053C5.15938 12.152 5.16107 12.2509 5.16107 12.3499L5.20339 12.3518L5.24571 12.348C5.25248 12.1326 5.25586 11.9152 5.26263 11.6998C5.26263 11.4786 5.26094 11.2574 5.26094 11.0342C5.23724 11.0342 5.21355 11.0342 5.19154 11.0342C5.19662 10.8595 5.24909 10.6868 5.20847 10.5083C5.19154 10.4753 5.17461 10.4442 5.1543 10.421C5.15599 10.4035 5.15938 10.3899 5.16276 10.3724C5.05951 10.2075 5.05274 10.0212 5.06628 9.82714C5.21862 9.91253 5.25079 9.87371 5.21016 9.6816C5.12722 9.309 5.23047 8.9597 5.34558 8.61621C5.3168 8.57546 5.27787 8.55217 5.23386 8.54247C4.98334 8.53083 4.853 8.6492 4.8987 8.95C4.89701 8.95 4.89701 8.95 4.89532 8.95C4.89193 9.01792 4.88855 9.08972 4.88516 9.15764C4.90547 9.16928 4.92071 9.18287 4.93256 9.19645C4.93425 9.31288 4.9224 9.42738 4.91901 9.54575C4.91901 9.55158 4.91901 9.55934 4.92071 9.56516C4.89532 9.52829 4.85638 9.49724 4.80052 9.47201C4.53646 9.73011 4.7125 10.1143 4.60079 10.4171C4.5974 10.4268 4.5974 10.4384 4.59401 10.4481C4.55339 10.4345 4.51107 10.4481 4.46706 10.4831C4.48737 10.3278 4.50769 10.1726 4.51954 10.0154C4.54154 10.027 4.56185 10.0406 4.58386 10.0542C4.53646 9.88148 4.67019 9.63502 4.4823 9.52053C4.46875 9.47589 4.45013 9.43514 4.42644 9.39827C4.41628 9.38663 4.40612 9.38081 4.39427 9.37498C4.50599 9.19645 4.42136 9.01597 4.39427 8.8355C4.55508 8.68025 4.45183 8.46679 4.48568 8.28437C4.67188 8.10196 4.54662 7.9176 4.48568 7.73519C4.57878 7.69443 4.56693 7.60129 4.57032 7.5159C4.69896 7.35095 4.49753 7.29856 4.4823 7.18212C4.49414 7.09673 4.49076 7.00165 4.58386 6.96477C4.58724 6.76877 4.59232 6.57278 4.46368 6.41559C4.63295 6.22929 4.55 5.97702 4.59909 5.75967C4.63972 5.68011 4.6431 5.60442 4.59232 5.5268C4.58386 5.38902 4.53138 5.29975 4.39935 5.29393C4.39597 5.26288 4.39258 5.23571 4.3892 5.20466C4.37058 5.18914 4.35026 5.17361 4.32995 5.15615C4.25547 5.13674 4.18776 5.15421 4.12852 5.21242C3.93894 5.49769 4.10482 5.80236 4.09297 6.09733C4.10821 6.17107 4.13529 6.23705 4.18607 6.28557C4.17592 6.29527 4.16407 6.30498 4.15391 6.3205C4.10313 6.41365 4.08959 6.5165 4.08789 6.62517C4.08789 6.78624 4.11667 6.93761 4.20469 7.06957C4.22162 7.09674 4.24193 7.12002 4.26394 7.13943C4.25547 7.13943 4.2487 7.13943 4.24193 7.14137C4.13868 7.21899 4.12683 7.32184 4.17253 7.4441C4.17761 7.44992 4.18099 7.45574 4.18607 7.45962C4.11836 7.57412 4.1099 7.67115 4.24532 7.72743C4.15222 7.80699 4.11498 7.92148 4.12683 8.06509C4.13529 8.10972 4.15222 8.15047 4.17761 8.18734C4.24193 8.23198 4.31641 8.23004 4.38581 8.25332C4.33672 8.30378 4.31641 8.35812 4.31472 8.41633C4.28425 8.39693 4.24024 8.38722 4.17592 8.39499C4.12852 8.45903 4.1099 8.53471 4.1099 8.61621C4.11498 8.7016 4.14714 8.77146 4.19454 8.83356C4.37396 8.97716 4.14375 9.21974 4.28086 9.37304C4.24362 9.41574 4.21823 9.46425 4.20131 9.51859C4.19961 9.52635 4.19961 9.53411 4.19792 9.54187C4.12683 9.60397 4.0862 9.68742 4.09467 9.80579L4.08789 9.81744C4.03204 9.85237 3.97448 9.8873 3.92032 9.92417C3.92032 9.81356 3.91862 9.70682 3.91693 9.59815C3.91524 9.57486 3.91355 9.54964 3.91185 9.52635C3.90677 9.46037 3.91016 9.39439 3.90847 9.32841C3.90847 9.2372 3.91016 9.14793 3.91016 9.05673C3.88477 9.05479 3.85938 9.05091 3.83568 9.04508C3.8323 8.93641 3.8306 8.82968 3.82891 8.72101C3.85599 8.67831 3.86446 8.62786 3.86276 8.57546C3.85092 8.53277 3.82722 8.50172 3.79506 8.48425C3.78659 8.30184 3.89493 8.09808 3.7155 7.94865C3.72227 8.12525 3.72904 8.30378 3.73581 8.48231C3.70365 8.49396 3.67826 8.51724 3.65964 8.55023C3.64102 8.59099 3.62917 8.63174 3.62071 8.67443C3.61055 8.60651 3.61394 8.53083 3.52592 8.5153C3.61055 8.35423 3.60547 8.19705 3.51237 8.0418C3.51745 7.75847 3.5987 7.46545 3.4362 7.20347C3.43282 7.28691 3.42943 7.3723 3.42435 7.45768C3.4142 7.3199 3.37188 7.17824 3.43789 7.05598C3.54284 6.98612 3.50899 6.86192 3.5293 6.76101C3.56654 6.78624 3.60209 6.81341 3.63933 6.84058C3.63933 6.84058 3.63933 6.84252 3.64102 6.84446C3.64102 6.84446 3.64102 6.84252 3.63933 6.84058C3.63933 7.07151 3.63933 7.30244 3.63933 7.53337C3.67995 7.62263 3.70365 7.73131 3.81537 7.74101L3.80352 7.07927C3.82722 6.95895 3.78321 6.81341 3.9017 6.72802C3.96433 6.49709 3.76628 6.31662 3.80691 6.08763C3.81706 6.01001 3.82722 5.93238 3.83737 5.85476C3.82383 5.67428 3.8086 5.49381 3.79336 5.31334C3.86615 5.20466 3.70704 5.08823 3.80352 4.9815V4.76803C3.80352 4.58173 3.80352 4.39932 3.80352 4.21496C3.77813 4.21884 3.75105 4.21496 3.72565 4.20914C3.72227 4.17227 3.71719 4.13734 3.71381 4.10047C3.89154 3.95881 3.7155 3.72594 3.81706 3.56487L3.91693 3.44067C3.91693 3.26019 3.91524 3.08166 3.91524 2.90119C3.93894 2.82744 3.9237 2.79251 3.88138 2.77893C3.92878 2.63338 3.80352 2.4762 3.9017 2.33259C3.90339 2.30155 3.90339 2.27244 3.9017 2.24139C3.84414 2.15988 3.7849 2.07838 3.72565 1.99687C3.75105 1.90178 3.77474 1.80475 3.80013 1.70967C3.81706 1.69802 3.83568 1.68832 3.8543 1.67862C3.94571 1.54472 4.01849 1.40693 3.91524 1.2381C3.91355 1.16436 3.91016 1.09062 3.90847 1.01688C3.91016 0.989709 3.90847 0.9606 3.90847 0.931491C3.92201 0.919848 3.93555 0.908204 3.94401 0.89462C4.17422 0.818937 4.09974 0.640403 4.01511 0.459928C4.01342 0.434701 4.00834 0.411414 4.00157 0.388127C4.02188 0.372602 4.0405 0.353196 4.05573 0.327969C4.09974 0.236761 4.11498 0.137791 4.12175 0.0368805H3.65287C3.65287 0.0368805 3.65287 0.038821 3.65287 0.0407614C3.6444 0.120326 3.65456 0.197949 3.68842 0.269751C3.68842 0.271691 3.6918 0.271691 3.6918 0.275573C3.6224 0.452166 3.68672 0.636522 3.67487 0.818937C3.67826 0.826699 3.67995 0.834462 3.68334 0.842224C3.66133 0.859689 3.63933 0.877154 3.61901 0.892679C3.51914 0.871333 3.52591 0.770422 3.50391 0.690858C3.4819 0.648165 3.4599 0.603532 3.43789 0.560839C3.43112 0.475453 3.43789 0.39977 3.51068 0.351255C3.51914 0.215414 3.47175 0.135851 3.3448 0.137791C3.3668 0.104801 3.39219 0.0718108 3.41758 0.0368805H3.22461C3.23138 0.0679299 3.23815 0.10092 3.24493 0.13391C3.24493 0.287216 3.24662 0.440522 3.24831 0.593829C3.24323 0.626819 3.23646 0.657868 3.22631 0.688918C3.23308 0.799531 3.23985 0.906263 3.24493 1.01494V1.78923L3.21107 1.78535C3.1569 1.93089 3.18907 2.04927 3.2974 2.1463C3.31094 2.15212 3.32448 2.15794 3.33802 2.16182C3.29232 2.24721 3.20599 2.31319 3.24831 2.43739L3.23985 3.22332C3.21615 3.38633 3.30586 3.3941 3.39727 3.39798C3.37865 3.44649 3.35834 3.49695 3.33802 3.54546C3.32787 3.68712 3.38034 3.78027 3.47175 3.84819C3.43789 3.86178 3.40912 3.88312 3.38711 3.90641C3.41081 3.80162 3.40235 3.70653 3.23477 3.6619C3.228 3.73758 3.22292 3.81326 3.21615 3.887C3.28555 4.05584 3.16537 4.27318 3.31094 4.42067C3.31433 4.42649 3.31602 4.43231 3.31771 4.44007C3.30756 4.46724 3.2974 4.49829 3.29401 4.52934C3.29401 4.53128 3.29401 4.53322 3.29571 4.53516C3.27878 4.54098 3.26016 4.54292 3.24323 4.54874C3.1806 4.61472 3.11797 4.67876 3.05534 4.74474L3.03334 4.53516L3.05196 3.77445C3.01641 3.73758 2.98086 3.69877 2.94532 3.6619C2.94701 3.58039 2.94701 3.49889 2.9487 3.41932C2.84206 3.41156 2.8556 3.31259 2.84206 3.23497C2.8319 3.11659 2.69818 2.98269 2.87761 2.89148C2.92162 2.744 3.1112 2.59263 2.88099 2.45097C3.00118 2.35976 2.98594 2.19481 3.00795 2.04927C3.01641 1.95224 2.95886 1.8785 2.93516 1.79117C2.94024 1.75624 2.93685 1.72325 2.925 1.6922C2.67618 1.68638 2.79128 2.08032 2.57461 2.10749C2.53737 1.9503 2.65417 1.69996 2.38164 1.68056C2.26315 1.90178 2.35118 2.14436 2.32578 2.37529C2.33256 2.43156 2.35625 2.46455 2.38672 2.48396C2.38164 2.58293 2.37657 2.67996 2.37149 2.77893L2.34948 2.75758C2.32579 2.79639 2.31394 2.84103 2.31055 2.8876C2.37149 3.02927 2.31055 3.21168 2.41719 3.33782C2.42227 3.34364 2.42735 3.34558 2.43243 3.34946C2.40534 3.37857 2.37657 3.40574 2.34948 3.43485C2.35118 3.47366 2.35287 3.51441 2.35456 3.55516C2.35456 3.95687 2.35287 4.36051 2.35118 4.76415C2.36302 4.91163 2.37487 5.05912 2.38503 5.20466C2.38334 5.41813 2.37995 5.63159 2.37657 5.84506C2.41211 5.81595 2.44597 5.78684 2.47982 5.75579C2.59154 5.72668 2.65925 5.82565 2.74388 5.87417C2.71172 6.01583 2.68125 6.15943 2.6474 6.30303C2.71172 6.23317 2.77435 6.16331 2.83868 6.09345C2.84037 6.14973 2.84206 6.20601 2.84375 6.26228C2.82852 6.31468 2.81159 6.36707 2.77774 6.40977C2.71342 6.4641 2.6474 6.43305 2.58308 6.41559C2.57969 6.34185 2.56784 6.27004 2.54584 6.20212C2.52383 6.14585 2.48998 6.10315 2.44597 6.07211C2.42058 6.07405 2.39349 6.07793 2.3698 6.07987C2.36472 6.29721 2.35964 6.5165 2.35625 6.73579C2.24454 6.794 2.15651 6.53396 2.10573 6.64846C2.00586 6.88715 2.2056 6.97836 2.35287 7.07345C2.36472 7.29467 2.37487 7.51396 2.38672 7.73519L2.34779 7.72548C2.35795 7.9797 2.36641 8.23198 2.37657 8.48619C2.55769 8.34647 2.41888 8.11942 2.48828 7.94865C2.52383 7.87879 2.51875 7.80893 2.49506 7.73907C2.4849 7.72743 2.47474 7.7216 2.46289 7.71772C2.52552 7.66145 2.51198 7.59158 2.48659 7.51784L2.47644 6.96283C2.62539 6.89103 2.73542 6.59024 2.94193 6.85222C2.97579 6.85222 3.00964 6.85028 3.0418 6.84834C3.0418 6.92402 3.0418 6.99776 3.0418 7.07345C3.02487 7.28109 3.03842 7.48291 3.11628 7.67115C3.10274 7.67697 3.0892 7.68085 3.07735 7.68861C2.93855 7.93507 2.86407 8.18346 3.07904 8.42798C3.10274 8.44156 3.12474 8.44156 3.14844 8.43574C3.14844 8.49978 3.14844 8.56382 3.14844 8.6298C3.10951 8.73265 3.07227 8.8355 3.03334 8.94029C3.04011 8.97522 3.04519 9.01015 3.05196 9.04702C3.05196 9.04702 3.03503 9.05285 3.03334 9.05285C3.03672 9.08001 3.04011 9.10718 3.04349 9.13241C3.03164 9.14405 3.02149 9.15376 3.01133 9.1654C3.00118 9.22362 2.99102 9.28378 2.98933 9.34005C2.96732 9.30706 2.93008 9.27601 2.87592 9.25079C2.79974 9.31288 2.79128 9.39439 2.83021 9.48754C2.69141 9.41185 2.66433 9.6292 2.58138 9.69324C2.66094 9.53993 2.68125 9.39051 2.55599 9.25079C2.54922 9.25079 2.54584 9.25273 2.53907 9.25273C2.54245 9.25273 2.54414 9.25079 2.54584 9.2469C2.45274 9.113 2.46967 8.98104 2.55599 8.85102C2.51368 8.77728 2.49506 8.65114 2.37487 8.73653C2.34102 8.76758 2.30717 8.80057 2.275 8.83162C2.26315 8.74623 2.275 8.60457 2.23607 8.58516C2.15821 8.54247 2.11081 8.6492 2.07019 8.72295C2.07526 8.83162 2.08034 8.94029 2.08542 9.04896L2.17344 9.30512C1.97539 9.55934 2.12266 9.86595 2.08373 10.1415C2.29532 10.0134 2.11589 9.78445 2.1819 9.6195C2.20052 9.62532 2.21914 9.62726 2.23607 9.62144C2.23607 9.62532 2.23438 9.63114 2.23269 9.63696C2.23269 9.76698 2.2056 9.90088 2.27839 10.0193C2.16159 10.0988 2.23946 10.2599 2.17175 10.3589C2.17175 10.3589 2.17683 10.3686 2.18021 10.3744C2.15144 10.3686 2.12097 10.3686 2.08542 10.3783C2.03972 10.4675 2.01602 10.5568 2.01771 10.6441C1.99909 10.615 1.97032 10.5898 1.93138 10.5665C1.91615 10.5723 1.90599 10.5801 1.89414 10.5878C1.96862 10.5044 1.98894 10.4016 1.97539 10.2871C1.96862 10.2463 1.95508 10.2114 1.93815 10.1764C2.06342 9.96492 1.94493 9.71653 1.97878 9.49142C1.98386 9.23138 1.98894 8.97328 1.99401 8.71518L1.96524 8.73071C2.00079 8.54635 2.03633 8.35812 2.07188 8.17182C2.01433 8.13883 1.95677 8.10778 1.90092 8.07479C1.89076 8.21451 1.87891 8.35229 1.86875 8.49008C1.87722 8.56188 1.88737 8.63368 1.89584 8.70548C1.89076 8.70936 1.88737 8.7113 1.8823 8.71518C1.8823 8.72877 1.8823 8.74429 1.8823 8.75788C1.83321 8.69578 1.79258 8.71324 1.75703 8.75788C1.76381 8.70354 1.77227 8.6492 1.79935 8.60069C1.82982 8.37558 1.85521 8.15047 1.68933 7.96806C1.52513 8.06509 1.63685 8.24556 1.59284 8.37752C1.4168 8.25138 1.59454 7.97582 1.42357 7.84774C1.31355 8.05538 1.42019 8.27467 1.39141 8.48619C1.36263 8.59681 1.41511 8.6298 1.49636 8.63756C1.51159 8.62786 1.52513 8.61815 1.53868 8.60845C1.63855 8.68801 1.62331 8.7637 1.51667 8.83938C1.45573 8.83938 1.3948 8.84132 1.33217 8.84132C1.33217 8.88013 1.33217 8.917 1.33217 8.95582C1.3017 8.87625 1.24245 8.79863 1.15274 8.72101C1.15951 8.7113 1.16459 8.70354 1.16966 8.68996C1.18659 8.61815 1.17474 8.55412 1.13073 8.49784C1.00039 8.4338 1.13073 8.35035 1.11719 8.27855C1.05456 8.28049 0.993623 8.28243 0.930993 8.28631C0.936071 8.10972 0.861592 8.09614 0.746488 8.16988C0.74818 8.3096 0.74818 8.45126 0.751566 8.59293C0.812504 8.52307 0.873441 8.45126 0.934379 8.38334C0.956384 8.53277 0.86667 8.71518 1.03425 8.81998C1.16628 8.90342 1.12396 9.03926 1.11211 9.16346C1.10196 9.19645 1.0918 9.2275 1.08334 9.26049C1.06641 9.22362 1.04271 9.19063 1.00886 9.15958C0.919144 9.16346 0.831123 9.1654 0.74141 9.16928C0.739717 9.23914 0.739717 9.31288 0.738024 9.38469C0.697399 9.41962 0.66016 9.45649 0.619535 9.49142C0.619535 9.59815 0.619535 9.70488 0.619535 9.81161C0.631383 9.85043 0.64154 9.8873 0.651696 9.92417C0.59753 10.1415 0.729561 10.3996 0.54167 10.5878C0.62292 10.7218 0.66016 10.8654 0.639847 11.0264C0.501045 11.0905 0.558597 11.2438 0.524743 11.3544C0.536592 11.4262 0.550134 11.496 0.561983 11.5659C0.563675 11.7425 0.516279 11.9249 0.582295 12.0937C0.580603 12.0996 0.577217 12.1054 0.575524 12.1093C0.548441 12.2199 0.548441 12.3266 0.616149 12.4217C0.619535 12.4392 0.621228 12.4586 0.624613 12.476C0.536592 12.4857 0.490888 12.5226 0.470576 12.5731C0.46042 12.5634 0.448571 12.5556 0.436722 12.5517C0.567061 12.4023 0.575524 12.2335 0.494274 12.0491C0.477347 12.0239 0.458728 12.0084 0.43503 11.9987C0.445186 11.7852 0.455342 11.5678 0.463806 11.3544C0.482425 11.3292 0.489196 11.3059 0.484118 11.2787C0.480732 11.2535 0.475654 11.2399 0.470576 11.2399C0.457035 11.2282 0.443493 11.2244 0.429951 11.2224L0.445186 10.7101C0.264066 10.8615 0.380863 11.0652 0.374092 11.2457C0.362243 11.3156 0.350394 11.3854 0.338545 11.4553C0.340238 11.5717 0.34193 11.6862 0.343623 11.8007C0.352087 11.8648 0.357165 11.9288 0.365628 11.9928C0.36055 11.9928 0.355472 11.9928 0.348701 11.9948C0.289456 12.1093 0.296228 12.2296 0.338545 12.3499C0.348702 12.4198 0.358858 12.4916 0.369014 12.5614C0.369014 12.8506 0.370707 13.1397 0.372399 13.4289H0.411332C0.463805 13.5802 0.42318 13.7646 0.539977 13.8927C0.545055 13.9606 0.548441 14.0305 0.553519 14.1003C0.558597 14.3254 0.561983 14.5505 0.567061 14.7776C0.563675 14.9173 0.56029 15.0551 0.556905 15.1948C0.611071 15.2394 0.612764 15.3695 0.653389 15.4354C0.611071 15.4607 0.570446 15.4898 0.529821 15.515C0.507816 15.5558 0.487504 15.5984 0.463806 15.6392C0.455342 15.7498 0.448571 15.8604 0.440108 15.971C0.4418 16.0098 0.445186 16.0487 0.448571 16.0875C0.511202 16.1321 0.575524 16.1787 0.638155 16.2233C0.639847 16.1826 0.64154 16.1418 0.643233 16.1011C0.719404 16.103 0.793884 16.1088 0.832816 16.2C0.983467 16.0758 0.915759 15.9051 0.908988 15.7459C0.919144 15.7149 0.927608 15.6819 0.932686 15.6489C0.932686 15.5732 0.932686 15.4975 0.932686 15.4238C0.915758 15.4102 0.898832 15.3986 0.880212 15.385C0.875134 15.385 0.868363 15.385 0.863285 15.385C0.946227 15.2588 0.954691 15.1075 0.94792 14.9522C0.944535 14.8688 0.9293 14.7873 0.897139 14.7116C0.888676 14.6941 0.876827 14.6805 0.864977 14.6689C0.897139 14.6728 0.925915 14.6534 0.932686 14.6087C0.94792 14.5292 0.902217 14.4768 0.84128 14.4438C0.84128 14.4419 0.84128 14.4399 0.84128 14.436C0.853129 14.4438 0.86667 14.4516 0.883597 14.4593C1.10365 14.2983 1.0444 14.0615 1.01224 13.8325C0.98516 13.7724 0.964847 13.7044 0.930993 13.654C0.936071 13.5123 0.937764 13.3707 0.941149 13.229C0.9293 13.1979 0.915758 13.1649 0.90391 13.132C0.908988 13.1009 0.915759 13.0718 0.92253 13.0427C0.942842 12.9146 0.942842 12.7865 0.919144 12.6585C0.91068 12.6041 0.897139 12.5498 0.88529 12.4954C0.895446 12.478 0.905603 12.4605 0.915759 12.445C0.92253 12.3751 0.919144 12.3111 0.880212 12.2684C0.881904 12.2354 0.886983 12.2044 0.886983 12.1714C0.88529 12.1151 0.871749 12.0666 0.84128 12.0297C0.844665 12.0297 0.846358 12.0297 0.84805 12.0297H0.851436C1.2543 11.791 0.939457 12.3383 1.11719 12.346C1.11888 12.674 1.11888 13.0019 1.12227 13.3299H1.15951L1.19844 13.3338C1.20352 13.0039 1.2069 12.6759 1.21198 12.346L1.22552 11.9152C1.28477 11.8337 1.30508 11.7425 1.27461 11.6396H1.27969Z" fill="#E1067E"/>
</g>
</svg>
