<svg width="2" height="3" viewBox="0 0 2 3" fill="none" xmlns="http://www.w3.org/2000/svg">
<mask id="mask0_3_2932" style="mask-type:luminance" maskUnits="userSpaceOnUse" x="0" y="0" width="2" height="3">
<path d="M0 0H1.73333V2.3811H0V0Z" fill="white"/>
</mask>
<g mask="url(#mask0_3_2932)">
<path d="M0.304688 0.679197C0.313151 0.8228 0.319922 0.966404 0.326693 1.11001C0.326693 1.15076 0.326693 1.18957 0.326693 1.23032C0.330078 1.44767 0.333463 1.66113 0.336849 1.87654C0.335156 1.98715 0.333463 2.09777 0.330078 2.20644C0.413021 2.28018 0.512891 2.30153 0.611068 2.32481C0.782032 2.10553 0.741406 1.8843 0.619531 1.65919C0.680468 1.55052 0.741407 1.44185 0.802344 1.33317L0.805729 1.33706C0.805729 1.33706 0.804036 1.33512 0.804036 1.33317C0.983463 1.30213 1.05117 1.51365 1.18828 1.57187C1.55898 1.36422 1.36602 0.958642 1.43711 0.646207C1.42188 0.587989 1.38802 0.547237 1.33893 0.52395C1.32031 0.522009 1.30169 0.52395 1.28307 0.52395C1.27969 0.461851 1.27461 0.401693 1.26953 0.339594C1.26784 0.236743 1.26615 0.135833 1.26276 0.0329819H0.318229C0.340234 0.0407437 0.36224 0.0485066 0.385937 0.050447C0.236979 0.238684 0.370703 0.477376 0.304688 0.681138V0.679197Z" fill="#E1067E"/>
</g>
</svg>
