<svg width="1" height="2" viewBox="0 0 1 2" fill="none" xmlns="http://www.w3.org/2000/svg">
<mask id="mask0_3_2654" style="mask-type:luminance" maskUnits="userSpaceOnUse" x="0" y="0" width="1" height="2">
<path d="M0 0H0.866667V1.88431H0V0Z" fill="white"/>
</mask>
<g mask="url(#mask0_3_2654)">
<path d="M0.397781 1.22839C0.453641 1.40693 0.330073 1.62815 0.499344 1.77758C0.616141 1.66503 0.619526 1.50978 0.62799 1.35259C0.621219 1.11002 0.658458 0.861623 0.560281 0.628752C0.556896 0.62099 0.551818 0.617109 0.548432 0.611287C0.568745 0.613228 0.59075 0.603525 0.614448 0.584119C0.651687 0.504555 0.648302 0.428872 0.587365 0.362892C0.48411 0.29109 0.524735 0.141665 0.495958 0.0310516H0.414708C0.419787 0.215407 0.424865 0.399763 0.429943 0.582178L0.397781 0.570535C0.397781 0.789821 0.397781 1.00911 0.397781 1.22839Z" fill="#E1067E"/>
</g>
</svg>
