<svg width="26" height="49" viewBox="0 0 26 49" fill="none" xmlns="http://www.w3.org/2000/svg">
<mask id="mask0_3_4405" style="mask-type:luminance" maskUnits="userSpaceOnUse" x="0" y="0" width="26" height="49">
<path d="M1.52588e-05 1.52588e-05H25.2332V48.9707H1.52588e-05V1.52588e-05Z" fill="white"/>
</mask>
<g mask="url(#mask0_3_4405)">
<path d="M20.1348 0.269763H20.0806H20.2008H20.1348ZM24.568 14.2653L24.5578 13.8888V14.0635L24.568 14.2653ZM0.819275 29.0021C0.819275 29.039 0.819275 29.0525 0.831124 29.103C0.819275 29.0642 0.819275 29.0273 0.819275 29.0021ZM0.460421 22.6952C0.460421 22.7068 0.460421 22.7068 0.460421 22.6952V22.6952ZM25.179 45.598C25.113 45.6116 25.0267 45.6232 24.9285 45.6368C24.8405 45.6484 24.7542 45.662 24.6882 45.6737C24.5358 45.6989 24.3835 45.7125 24.2311 45.7377C24.2193 45.7377 24.2193 45.7377 24.199 45.7377H24.1871C24.0128 45.7629 23.8503 45.7862 23.6962 45.7998C23.8503 45.7862 23.9146 45.7746 23.8283 45.7998C23.6201 45.825 23.8283 45.7862 23.5236 45.825C23.4576 45.8367 23.3915 45.8503 23.3272 45.8503C23.1749 45.8755 23.0005 45.9007 22.9667 45.9124L23.3814 45.8503C23.1749 45.8871 22.8465 45.9259 22.6298 45.9628H22.662C22.3353 46.0133 22.1711 46.0249 21.9967 46.0501C21.8444 46.0754 21.7141 46.089 21.6057 46.1006L21.7039 46.089C21.6599 46.089 21.6159 46.1006 21.5719 46.1006C21.5076 46.1142 21.4534 46.1142 21.3552 46.1258H21.3654C21.1047 46.1646 20.8322 46.2151 20.6798 46.2267L20.6358 46.2403C20.4716 46.2655 20.1568 46.3024 19.8402 46.3393C19.8182 46.3393 19.7962 46.3393 19.7759 46.3529H19.7861C19.7319 46.3645 19.6777 46.3645 19.6219 46.3781C19.5677 46.3897 19.5034 46.3897 19.4475 46.4033C19.7201 46.3645 20.1449 46.3141 20.4293 46.2772C20.1889 46.3141 19.6016 46.3897 19.4814 46.4033L19.7962 46.3645C19.6337 46.3781 19.4374 46.4033 19.219 46.4402C19.0125 46.4654 18.7941 46.5042 18.5978 46.5275H18.5775C18.4895 46.5411 18.2931 46.578 18.0646 46.6032H18.0764C18.0003 46.6168 17.9563 46.6168 17.9224 46.6284C17.5635 46.6789 17.1708 46.7429 17.0083 46.7662C16.1586 46.8807 15.319 47.0185 14.3169 47.1563C14.6335 47.0942 14.1544 47.1815 14.0884 47.1699C14.0122 47.1815 13.9141 47.1951 13.8057 47.2067C13.9039 47.1951 14.0563 47.1815 13.7837 47.2203C14.0884 47.1699 13.3809 47.2688 13.6737 47.2203H13.6635L13.0423 47.3193C12.8798 47.3445 13.2607 47.2941 13.2387 47.2941C12.7275 47.3697 13.0322 47.3329 12.6936 47.3833C12.7596 47.3697 12.5193 47.395 12.2247 47.4454L12.6293 47.3833C11.9201 47.4706 12.0182 47.4842 11.2988 47.5832L11.529 47.558C11.1803 47.6084 10.2646 47.7346 9.87188 47.785C9.83972 47.785 9.80756 47.7967 9.7737 47.7967C9.71954 47.8102 9.69753 47.8102 9.82956 47.7967C8.95782 47.9228 7.87956 48.0606 7.19232 48.1751H7.25834C7.11615 48.2003 6.99597 48.2003 6.83347 48.2372C6.84362 48.2372 6.84362 48.2372 6.86563 48.2372C6.85547 48.2372 6.83347 48.2372 6.81146 48.2488C6.79961 48.2488 6.78946 48.2488 6.7793 48.2488L6.76745 48.2624C6.69128 48.2741 6.39675 48.3129 6.19024 48.3381H6.15808L6.29857 48.3245C5.80938 48.4002 5.44883 48.4506 5.10013 48.4875C5.08998 48.4875 5.08998 48.4875 5.07982 48.4875C5.07982 48.4875 5.04597 48.4875 5.00196 48.5011C4.95964 48.5127 4.88347 48.5127 4.81745 48.5263L4.95964 48.5127C4.83946 48.5263 4.71928 48.5516 4.56693 48.5768L4.8073 48.538C4.6431 48.5632 4.43659 48.5884 4.19623 48.6137C4.03373 48.6525 3.54284 48.7146 3.27032 48.765H3.28217C2.78112 48.8407 2.35625 48.8912 1.94154 48.9533C1.91954 48.439 1.88737 47.948 1.86537 47.3833C1.8112 46.7177 1.73503 45.1342 1.66901 44.0669C1.68086 44.2299 1.68086 44.0416 1.66901 43.8515C1.64701 43.6011 1.63685 43.1606 1.625 43.1994V43.2867C1.603 43.0985 1.58269 42.5843 1.54883 42.1806L1.56068 42.1185C1.48451 41.0764 1.40834 39.3668 1.36433 38.802C1.35248 38.5498 1.34232 38.2373 1.32032 37.9851L1.31016 37.9986C1.26615 37.2942 1.24415 36.943 1.20013 36.0755V36.2521C1.16797 35.7612 1.18998 35.635 1.15782 35.1829L1.13581 35.0451C1.0918 34.1912 1.02579 33.3238 0.993624 32.4816C0.993624 32.4951 0.993624 32.5204 0.993624 32.6581C0.971619 32.2681 0.907296 31.1755 0.917452 31.2376C0.917452 31.2124 0.907296 31.1755 0.907296 31.0999C0.907296 31.0125 0.895447 30.8864 0.885291 30.7486C0.873442 30.4711 0.851437 30.1334 0.84128 29.9064V29.9821C0.831124 29.592 0.831124 29.5804 0.79727 29.039C0.787113 28.94 0.787113 28.9264 0.787113 29.0021C0.765108 28.7013 0.775264 28.7129 0.743103 28.2491L0.753259 28.4374C0.732947 27.9969 0.732947 28.0357 0.721098 27.7834C0.710942 27.5078 0.666931 26.9412 0.656775 26.8791C0.656775 26.8403 0.656775 26.7529 0.644926 26.6268V26.5783C0.644926 26.489 0.63477 26.4017 0.63477 26.3144C0.63477 26.2756 0.63477 26.3765 0.63477 26.4269C0.590759 25.6856 0.57891 25.3344 0.546749 24.8182C0.546749 24.8065 0.536593 24.7813 0.536593 24.7309C0.568754 25.3092 0.590759 25.6973 0.590759 25.7477C0.578911 25.7477 0.558598 25.2703 0.568754 25.6468C0.546749 25.2703 0.524744 24.6183 0.492582 24.1526L0.482426 24.0905V24.1409L0.470577 23.8518C0.460421 23.7004 0.460421 23.6131 0.448572 23.4734C0.438416 23.4229 0.416411 22.9339 0.406254 22.6952C0.416411 22.7068 0.394405 22.4196 0.41641 22.6835C0.41641 22.67 0.416411 22.7573 0.426567 22.897V22.996V22.9843C0.438416 23.1357 0.448572 23.3356 0.460421 23.5743C0.448572 23.386 0.448572 23.1978 0.426567 22.9339C0.426567 22.8077 0.426566 22.6835 0.41641 22.6079C0.384249 22.2799 0.350395 21.6647 0.340238 21.5774C0.308077 20.8613 0.242062 19.8813 0.231905 19.4156C0.220056 19.2274 0.220056 19.1905 0.2099 19.1264L0.220056 19.4292C0.220056 19.3399 0.2099 19.2409 0.2099 19.1264C0.242061 18.7131 0.274223 18.1853 0.286072 18.1096C0.318233 17.5934 0.252217 18.3987 0.308077 17.6943L0.296228 17.7952C0.384249 16.3999 0.482426 15.5344 0.568754 13.9761L0.558598 14.1644C0.677088 12.4062 0.819275 10.5335 0.927608 8.787C0.961462 8.29797 0.971619 8.23393 0.993624 7.93314V7.82058L1.03763 7.30439C1.0918 6.57667 1.10196 6.03524 1.18998 5.1057V5.23184C1.21198 4.90582 1.26615 4.17616 1.25599 4.22662C1.25599 4.18975 1.26615 4.11406 1.27631 3.98793V3.97434L1.34232 3.1593C1.38633 2.53055 1.32032 3.25827 1.38633 2.32873C1.40834 1.99106 1.4625 1.34873 1.4625 1.47487C1.45066 1.61265 1.4405 1.82611 1.4405 1.8397L1.4625 1.52532C1.4625 1.51368 1.4625 1.50009 1.47266 1.48845V1.438H1.50651L1.54883 1.42441H1.53868L1.64701 1.41277L1.79935 1.39918C1.7892 1.39918 1.603 1.39918 1.48451 1.41277C1.37448 1.41277 1.91954 1.37396 2.22422 1.34873C3.03165 1.29827 2.38842 1.36231 2.94362 1.3235L3.65118 1.27499H3.66303C3.77136 1.27499 3.83737 1.2614 3.86954 1.2614C3.82553 1.27499 4.44675 1.22453 4.74128 1.21095H4.63295C5.50469 1.18572 5.96172 1.18572 6.60495 1.13526L7.05013 1.09839H7.14831C7.41068 1.07317 7.45469 1.05958 7.88972 1.04794C9.40469 0.972255 11.028 0.846117 12.5633 0.758791L12.3889 0.772374C13.7296 0.708335 14.4913 0.607425 15.7016 0.55891L15.6135 0.570554C16.2229 0.533683 15.5272 0.582197 15.9724 0.55891C16.0604 0.545326 16.7578 0.494871 17.1065 0.469644L16.8221 0.494871C16.8882 0.494871 16.9203 0.494871 17.0947 0.483227C17.4874 0.444416 18.3371 0.393961 18.9583 0.343505C19.0125 0.343505 19.329 0.331862 19.6117 0.318278C19.6557 0.318278 19.6879 0.306634 19.7319 0.306634H19.6879C19.8944 0.294991 19.9824 0.294991 20.0264 0.294991C20.0688 0.294991 20.1026 0.281406 20.1449 0.281406C20.3751 0.269763 20.5376 0.256179 20.7018 0.244535C20.5055 0.256179 20.3311 0.269763 20.1889 0.281406H20.2008L20.1348 0.269763C20.0146 0.281407 19.9503 0.281406 19.9503 0.281406C19.7099 0.294991 19.9706 0.269763 19.9604 0.269763C20.1669 0.256179 20.5918 0.230952 20.6358 0.230952C20.756 0.219308 20.8423 0.219308 20.9625 0.219308L21.213 0.205724H21.169H21.2249C21.235 0.205724 21.257 0.205724 21.2672 0.205724C21.4314 0.19408 21.4534 0.19408 21.4415 0.19408C21.8122 0.168853 22.249 0.130041 22.5198 0.104813C22.1931 0.143625 22.6078 0.118397 22.6078 0.118397C22.5638 0.118397 22.2371 0.143625 21.7259 0.168853C21.7581 0.168853 21.7902 0.168853 21.8021 0.168853C21.9324 0.155269 22.0408 0.155268 22.1609 0.143625H22.1829C22.3895 0.130041 22.596 0.118397 22.8803 0.0931697C22.9023 0.0931697 22.9023 0.0931697 22.9244 0.0931697H22.9447C23.0208 0.0931697 23.1089 0.0795853 23.1952 0.0795853C23.1749 0.0795853 23.141 0.0795855 23.119 0.0931697C23.251 0.0795855 23.4034 0.0679421 23.5557 0.0562983C23.5659 0.0562983 23.5879 0.0562983 23.5997 0.0562983H23.6319C23.7182 0.0562983 23.7944 0.0427142 23.8604 0.0427142C23.8604 0.0427142 23.9366 0.0427142 24.0246 0.0427142C23.9806 0.0427142 23.9264 0.0427142 23.8604 0.0427142L23.8926 0.0310709C23.9688 0.0310709 23.9908 0.0310709 24.0246 0.0310709C24.0788 0.0310709 24.1431 0.0174866 24.2413 0.0174866C24.2413 0.0795853 24.2413 0.180496 24.2531 0.294991C24.2633 0.444416 24.2633 0.483227 24.2751 0.859701L24.2633 0.671465C24.2633 0.784018 24.2633 0.846117 24.2633 0.910157C24.2633 0.947028 24.2633 0.997483 24.2633 1.05958C24.2633 1.16049 24.2751 1.24976 24.2751 1.41277C24.2751 1.39918 24.2751 1.38754 24.2751 1.37396C24.2751 1.58742 24.2853 1.82611 24.2954 2.03958C24.2954 2.14049 24.3073 2.22976 24.3175 2.39276L24.3073 2.32873C24.3073 2.34231 24.3073 2.36754 24.3073 2.37918V2.36754V2.40441C24.3175 2.6431 24.3293 2.95748 24.3293 3.20975C24.3293 3.33395 24.3293 3.44844 24.3395 3.53577C24.3395 3.59787 24.3395 3.63668 24.3395 3.66191C24.3513 3.59787 24.3733 4.69236 24.3733 5.08048C24.3733 4.9427 24.3615 4.91747 24.3615 4.90582C24.3936 5.7461 24.3936 6.61354 24.4156 7.4674V7.53144C24.4156 7.55666 24.4156 7.58189 24.4156 7.60712C24.4156 7.68086 24.4156 7.83223 24.4275 7.99524C24.4376 8.19706 24.4495 8.36007 24.4596 8.67444L24.4495 8.49785C24.4698 9.36529 24.4698 9.71654 24.4918 10.421L24.4816 10.4074C24.4918 10.6597 24.5037 10.974 24.5037 11.2244C24.5037 11.5135 24.5138 12.1035 24.5358 12.7439V12.7322C24.5358 12.8195 24.5358 12.8331 24.5358 12.8331C24.546 13.3221 24.5578 13.8248 24.568 14.2653C24.568 14.2905 24.5798 14.4166 24.5798 14.5796L24.59 14.6049C24.59 14.8552 24.6018 15.1327 24.6018 15.3578C24.612 15.7595 24.612 16.136 24.6238 16.5008C24.6238 16.5649 24.634 16.5765 24.634 16.4892C24.6441 16.8152 24.6441 17.1917 24.656 17.5817V17.6186C24.656 17.7952 24.6662 17.9582 24.6662 18.1348C24.6662 18.2357 24.678 18.323 24.678 18.3735C24.6882 18.6995 24.6882 18.8509 24.6882 19.0022C24.7 19.3283 24.7 19.6038 24.7 19.8056C24.7 19.957 24.7102 20.0812 24.7102 20.2209C24.7102 20.2073 24.7102 20.1957 24.7102 20.1705V20.0191C24.7102 19.8677 24.7102 19.6795 24.7102 19.8561V19.9182C24.7203 20.1453 24.7322 20.7604 24.7322 20.609C24.7322 20.9487 24.7322 20.7604 24.7203 20.4965C24.7203 20.6983 24.7322 20.873 24.7322 21.036C24.7423 21.6026 24.7643 22.1557 24.7762 22.833V22.8213C24.7762 23.0096 24.7863 23.2851 24.7863 23.5122C24.7863 23.4986 24.7863 23.3744 24.7863 23.2851C24.7863 23.8265 24.8083 24.2903 24.8185 24.6047V24.3156C24.8185 24.4922 24.8303 24.6299 24.8303 24.7677L24.8185 24.6047C24.8185 24.692 24.8185 24.7677 24.8303 24.8182C24.8303 24.8686 24.8303 24.9055 24.8303 24.9055C24.8303 25.0569 24.8185 24.8686 24.8185 25.0316C24.8185 25.1947 24.8303 25.3712 24.8303 25.5595C24.8303 25.5731 24.8405 25.7109 24.8303 25.3577C24.8303 25.4722 24.8405 25.6099 24.8405 25.7865V25.7225C24.8625 26.3881 24.8405 26.0369 24.8524 26.7277C24.8524 26.6404 24.8625 26.8907 24.8625 27.0052C24.8524 26.7277 24.8524 26.8655 24.8524 27.1294C24.8524 27.2303 24.8524 27.3177 24.8625 27.3817C24.8625 27.4069 24.8625 27.4438 24.8625 27.469V27.4438C24.8625 27.6068 24.8625 27.6825 24.8625 27.8455V27.6573C24.8744 28.1599 24.8947 28.775 24.9065 29.4038C24.9065 29.4174 24.9065 29.3921 24.9167 29.5163C24.9167 30.0578 24.9387 30.1082 24.9387 30.6729C24.9285 30.5352 24.9285 30.5099 24.9285 30.7098C24.9285 30.8748 24.9387 31.063 24.9505 31.2629C24.9505 31.3017 24.9505 31.3521 24.9505 31.389C24.9607 31.7907 24.9708 32.206 24.9708 32.4195L24.9607 32.1555C24.9708 32.6213 24.9708 32.7959 24.9708 32.9978C24.9708 33.0482 24.9708 33.0851 24.9708 33.1355V33.0346C24.9708 33.186 24.9708 33.3626 24.9827 33.6886V33.2112C24.9827 33.5508 24.9928 33.8264 25.0047 33.7507C25.0047 34.0651 25.0047 33.9137 25.0047 34.1408C25.0047 34.2029 25.0047 34.2669 25.0047 34.3426C25.0047 34.3659 25.0047 34.3795 25.0047 34.3911C25.0047 34.5172 25.0047 34.6298 25.0047 34.655L25.0149 35.0451C25.0267 35.3711 25.0267 35.5613 25.0267 35.7495C25.0267 35.7243 25.0267 35.6991 25.0267 35.6486C25.0267 35.8737 25.0369 36.0755 25.0369 36.289C25.0369 36.2521 25.0369 36.2385 25.0369 36.1764C25.0369 36.3899 25.0487 36.5781 25.0487 36.6034V36.6655C25.0487 36.7159 25.0487 36.78 25.0487 36.8537C25.0487 36.9934 25.0487 37.1176 25.0589 37.2573V37.4708V37.269C25.0589 37.3194 25.0589 37.3699 25.0589 37.4203V37.432C25.069 37.8842 25.0809 38.3111 25.091 38.7516C25.091 38.9398 25.1029 39.4056 25.1029 39.8189C25.113 40.0828 25.113 40.3351 25.1249 40.5233C25.135 40.9871 25.1452 41.5538 25.157 41.9807C25.157 41.9924 25.157 42.0176 25.157 42.0312V41.9555C25.157 42.1321 25.1672 42.2311 25.1672 42.3067C25.1672 42.4581 25.179 42.6095 25.179 42.7085C25.179 42.6211 25.1672 42.5202 25.1672 42.4193C25.1672 42.4698 25.1672 42.5202 25.1672 42.5707C25.1672 42.722 25.179 42.8715 25.179 42.9607V43.0364C25.201 43.3877 25.179 42.658 25.179 42.885C25.201 42.986 25.1892 43.7273 25.2112 44.2046V44.0901C25.2231 44.2667 25.2231 44.4802 25.2231 44.7189C25.2231 44.9712 25.2332 45.2467 25.2332 45.5359C25.2112 45.598 25.201 45.598 25.179 45.598ZM20.5816 0.230952C20.5596 0.230952 20.5156 0.230951 20.3853 0.244535L20.3311 0.256179H20.3531L20.5816 0.230952ZM0.482426 23.4229L0.470577 23.1473V23.1221V23.1842C0.482426 23.3492 0.482426 23.3996 0.482426 23.4229ZM24.9065 30.4711C24.9065 30.5216 24.9065 30.572 24.9167 30.6361V30.3838C24.9065 30.3721 24.9065 30.4226 24.9065 30.4711ZM0.470577 22.9339L0.460421 22.8465V22.996L0.470577 22.9339ZM23.3695 0.0679423C23.5879 0.0562985 23.5439 0.0562985 23.3594 0.0679423C23.3814 0.0562985 23.0869 0.0795856 23.3695 0.0679423ZM24.634 17.2809L24.6238 16.8521V16.9666L24.634 17.2809ZM25.1249 40.0324C25.1249 39.7432 25.113 39.782 25.113 39.9567L25.1249 40.0324ZM21.3992 46.1394C21.301 46.1511 21.1047 46.1763 20.9185 46.2151C21.0708 46.2015 21.3112 46.1646 21.3992 46.1394ZM1.50651 41.4529L1.52683 41.8294L1.51667 41.6295L1.50651 41.4529Z" fill="#DE3A3B"/>
</g>
</svg>
