<svg width="1" height="5" viewBox="0 0 1 5" fill="none" xmlns="http://www.w3.org/2000/svg">
<mask id="mask0_3_655" style="mask-type:luminance" maskUnits="userSpaceOnUse" x="0" y="0" width="1" height="5">
<path d="M0 0H0.866667V4.36826H0V0Z" fill="white"/>
</mask>
<g mask="url(#mask0_3_655)">
<path d="M0.174326 1.57188C0.159092 1.6301 0.145551 1.69026 0.130316 1.74847C0.142165 1.80669 0.154014 1.86685 0.16417 1.92701C0.159092 1.92895 0.154014 1.93089 0.147243 1.93283C0.0829199 2.03762 0.142165 2.1754 0.077842 2.28019C0.0964615 2.41798 0.116774 2.55382 0.133701 2.6916C0.147243 2.74205 0.172634 2.78087 0.206488 2.81191C0.133702 2.85073 0.111696 2.93805 0.0812274 3.01762C0.130316 3.12047 0.181097 3.22526 0.230186 3.32811C0.177712 3.39215 0.123545 3.45619 0.0710712 3.52023C0.126931 3.52217 0.181097 3.52411 0.236957 3.52411C0.223415 3.60561 0.206488 3.68518 0.198024 3.76668C0.198024 3.7725 0.255576 3.80355 0.270811 3.79579C0.374066 3.73175 0.316514 3.61726 0.328363 3.52605C0.360524 3.52605 0.392686 3.52799 0.424847 3.52993C0.42654 3.77056 0.428232 4.01314 0.429925 4.25571C0.462086 4.25571 0.495941 4.25571 0.528102 4.25571C0.533181 3.90835 0.539952 3.56098 0.54503 3.21556C0.533181 3.11659 0.521332 3.01568 0.509483 2.91671C0.463779 2.92059 0.435003 2.93223 0.414691 2.94582C0.404535 2.91282 0.3893 2.88372 0.370681 2.85461C0.375759 2.85461 0.379144 2.85461 0.384222 2.85267C0.424847 2.8352 0.457009 2.80415 0.477321 2.75952C0.499327 2.68966 0.499326 2.61786 0.487477 2.54411C0.467165 2.46649 0.460394 2.38887 0.453623 2.30736C0.468858 2.33259 0.48917 2.35782 0.521332 2.37722C0.617816 2.1657 0.495941 1.95612 0.511175 1.74653L0.534873 1.76206C0.543337 1.76206 0.550108 1.75041 0.555186 1.72713C0.561957 1.70384 0.555186 1.68055 0.533181 1.65727C0.499326 1.47485 0.565342 1.27303 0.487477 1.10032C0.490863 1.08673 0.494248 1.07315 0.497634 1.06151C0.529795 0.960595 0.578884 0.857744 0.477321 0.768477C0.465473 0.760714 0.451931 0.756833 0.440082 0.749071L0.446852 0.393944C0.516253 0.298855 0.509482 0.199885 0.457009 0.0989746C0.448545 0.0931527 0.440082 0.0892718 0.433311 0.0873308C0.499327 0.0679252 0.543337 0.0388163 0.573806 0.0019455H0.194639C0.18279 0.0621033 0.18279 0.120321 0.2268 0.180479C0.12016 0.260043 0.181097 0.395884 0.142165 0.498736C0.150628 0.603527 0.159092 0.708318 0.169248 0.81117C0.155707 0.917902 0.143857 1.02658 0.132009 1.13525C0.116774 1.17018 0.10154 1.20705 0.0863055 1.24392C-2.26982e-05 1.36424 0.0812274 1.45544 0.128623 1.55441C0.142165 1.56412 0.157399 1.56994 0.174326 1.57382V1.57188Z" fill="#EFEEE8"/>
</g>
</svg>
