<svg width="2" height="2" viewBox="0 0 2 2" fill="none" xmlns="http://www.w3.org/2000/svg">
<mask id="mask0_3_690" style="mask-type:luminance" maskUnits="userSpaceOnUse" x="0" y="0" width="2" height="2">
<path d="M0 0H1.3V1.88431H0V0Z" fill="white"/>
</mask>
<g mask="url(#mask0_3_690)">
<path d="M0.494277 0.702488C0.484121 0.706368 0.477349 0.71219 0.467193 0.719953C0.401178 0.832506 0.397793 0.950883 0.436725 1.07314C0.563678 1.14688 0.44011 1.26526 0.47735 1.35258C0.47735 1.35452 0.479042 1.35647 0.480735 1.35647C0.397792 1.45544 0.394407 1.57575 0.413027 1.70577C0.433339 1.77951 0.465501 1.84161 0.528131 1.87848C0.611073 1.83967 0.668626 1.74652 0.766803 1.74264C0.771881 1.6068 0.775266 1.47096 0.780344 1.33512C0.805735 1.33318 0.831126 1.3293 0.856516 1.32348L0.854824 1.33318C0.919147 1.28466 0.910683 1.21092 0.897141 1.13912C0.851438 1.01686 0.800657 0.896546 0.726178 0.793695C0.749876 0.77623 0.768496 0.747121 0.776959 0.708309C0.775266 0.496785 0.771881 0.287202 0.770188 0.075678C0.831126 0.0776184 0.892063 0.0776184 0.953001 0.0795594C0.966542 0.0504505 0.973313 0.023282 0.973313 -0.0019455H0.492584C0.50274 0.0174606 0.517974 0.0329853 0.53998 0.046569C0.494277 0.0950841 0.457037 0.14942 0.433339 0.2154C0.418105 0.263915 0.407948 0.31243 0.40287 0.362885C0.399485 0.487082 0.402871 0.61128 0.494277 0.700547V0.702488Z" fill="#EFEEE8"/>
</g>
</svg>
