<svg width="2" height="4" viewBox="0 0 2 4" fill="none" xmlns="http://www.w3.org/2000/svg">
<mask id="mask0_3_2937" style="mask-type:luminance" maskUnits="userSpaceOnUse" x="0" y="0" width="2" height="4">
<path d="M0 0H1.73333V3.37468H0V0Z" fill="white"/>
</mask>
<g mask="url(#mask0_3_2937)">
<path d="M0.165903 0.772356C0.255617 0.739366 0.347023 0.706376 0.436736 0.675326C0.321632 0.442456 0.50783 0.432753 0.612778 0.360952L0.638168 0.343486C0.665252 0.537545 0.539991 0.760712 0.727882 0.921781C0.726189 0.737425 0.724496 0.553069 0.722804 0.368714C0.726189 0.368714 0.729575 0.366773 0.73296 0.364833C0.746502 0.378417 0.761736 0.392001 0.778663 0.403644C0.690642 0.588 0.748194 0.782059 0.7702 0.974177C0.743116 1.10031 0.731267 1.22257 0.826059 1.32154C1.02411 1.1139 0.839601 0.801464 0.942856 0.566653C0.9327 0.663683 0.956398 0.751009 1.02411 0.824752C1.03934 0.838336 1.05796 0.849979 1.07489 0.859682C0.91408 1.17406 0.953012 1.50396 1.05288 1.83774C1.05627 1.84356 1.05796 1.84356 1.06135 1.84938C0.991944 1.81445 0.936085 1.85326 0.888689 1.94447C0.888689 1.95223 0.888689 1.95999 0.888689 1.96776C0.866684 1.95417 0.844679 1.94641 0.817595 1.95029C0.785434 1.95805 0.753273 1.96776 0.721111 1.97746C0.690643 1.99104 0.658481 2.00075 0.624627 2.00463C0.473976 2.11718 0.533221 2.28601 0.536606 2.43932L0.524757 2.43156C0.585694 2.68383 0.431658 2.97298 0.624627 3.20391C0.638168 3.18645 0.648325 3.1651 0.655095 3.14569C0.672022 3.20391 0.692335 3.26213 0.722804 3.31841C0.754965 3.32229 0.785434 3.31841 0.81421 3.30288C0.815903 3.16122 0.817595 3.01956 0.817595 2.87595C0.975017 2.85072 0.93947 3.16898 1.12228 3.09718C1.1426 3.09718 1.1646 3.09718 1.18661 3.09718C1.19338 3.1651 1.20015 3.23496 1.20692 3.30288C1.41681 3.23496 1.19168 2.93223 1.38973 2.85849C1.38635 2.83132 1.38465 2.80609 1.38127 2.77892C1.35757 2.75175 1.32879 2.73623 1.30002 2.73235C1.29494 2.70324 1.28986 2.67607 1.28478 2.64696C1.29325 2.57516 1.30171 2.5053 1.31017 2.4335L1.28478 2.44514C1.3051 2.31318 1.21538 2.17734 1.27293 2.04538C1.27801 2.04732 1.28309 2.04926 1.28817 2.0512C1.33049 2.0512 1.36603 2.0318 1.39142 1.99104C1.38635 1.81251 1.38127 1.63204 1.37788 1.45156C1.31694 1.45156 1.2577 1.45156 1.19845 1.45156C1.19845 1.26332 1.19845 1.07509 1.19845 0.886851C1.23062 0.890732 1.26447 0.892672 1.29832 0.896553C1.26108 0.714138 1.38804 0.498733 1.21538 0.343486C1.2577 0.228992 1.27463 0.0970318 1.38296 0.0310516H0.52645C0.52645 0.038814 0.524757 0.0465763 0.524757 0.0543387C0.523064 0.0465763 0.519679 0.038814 0.517986 0.0310516H0.194679C0.198064 0.0698634 0.20145 0.108675 0.196371 0.141665C0.184522 0.246457 0.216684 0.360952 0.155746 0.457981C0.159132 0.562773 0.160825 0.667564 0.16421 0.772356H0.165903Z" fill="#E1067E"/>
</g>
</svg>
