<svg width="1" height="2" viewBox="0 0 1 2" fill="none" xmlns="http://www.w3.org/2000/svg">
<mask id="mask0_3_431" style="mask-type:luminance" maskUnits="userSpaceOnUse" x="0" y="0" width="1" height="2">
<path d="M0 0H0.367318V1.49037H0V0Z" fill="white"/>
</mask>
<g mask="url(#mask0_3_431)">
<path d="M0.174329 1.23421C0.174329 1.23421 0.174329 1.22645 0.174329 1.22257C0.177714 1.14688 0.174329 1.07314 0.165865 0.997458C0.16248 0.923716 0.159094 0.851915 0.157402 0.778172C0.167558 0.774291 0.179407 0.77041 0.189563 0.760707C0.258964 0.622925 0.169251 0.456035 0.248808 0.320194C0.250501 0.302728 0.250501 0.287204 0.247115 0.271679C0.257272 0.263917 0.26912 0.258095 0.277584 0.248392C0.286047 0.232867 0.294511 0.215402 0.299589 0.197937L0.0422974 0.256154L0.174329 1.23421Z" fill="#EFEEE8"/>
</g>
</svg>
