<svg width="8" height="27" viewBox="0 0 8 27" fill="none" xmlns="http://www.w3.org/2000/svg">
<mask id="mask0_3_4400" style="mask-type:luminance" maskUnits="userSpaceOnUse" x="0" y="0" width="8" height="27">
<path d="M0 1.52588e-05H7.18893V26.8267H0V1.52588e-05Z" fill="white"/>
</mask>
<g mask="url(#mask0_3_4400)">
<path d="M6.81992 0.593841C6.80807 0.593841 6.80807 0.593841 6.80807 0.593841C6.80807 0.593841 6.89609 0.582198 6.90625 0.582198C6.9401 0.582198 6.97227 0.568614 7.00443 0.568614L6.86393 0.543387C6.84193 0.543387 6.81992 0.531743 6.78776 0.531743C6.75391 0.531743 6.72175 0.543387 6.68958 0.543387C6.65573 0.543387 6.62357 0.556971 6.59141 0.556971C6.5694 0.556971 6.53724 0.543387 6.51523 0.543387C6.48138 0.543387 6.44922 0.556971 6.41706 0.556971C6.39505 0.556971 6.36289 0.543387 6.34089 0.543387C6.35104 0.543387 6.42721 0.531743 6.43906 0.531743L6.36289 0.5201C6.36289 0.5201 6.44922 0.506515 6.46107 0.506515C6.46107 0.506515 6.39505 0.494872 6.3832 0.494872L6.18854 0.5201L6.11237 0.506515C6.09036 0.506515 6.06836 0.494872 6.0362 0.494872C6.02435 0.494872 5.95833 0.506515 5.93802 0.506515C5.91602 0.506515 5.88216 0.494872 5.86185 0.494872C5.828 0.494872 5.80599 0.481288 5.78568 0.481288C5.77383 0.481288 5.72982 0.469644 5.70781 0.469644C5.69766 0.469644 5.62148 0.481288 5.61133 0.481288C5.57747 0.481288 5.54531 0.494872 5.51315 0.494872C5.49115 0.494872 5.43698 0.506515 5.41497 0.506515C5.40313 0.506515 5.34896 0.494872 5.3388 0.494872L5.43698 0.481288L5.36081 0.469644C5.3388 0.469644 5.28294 0.481288 5.26263 0.481288C5.22878 0.481288 5.19662 0.494872 5.16445 0.494872C5.14245 0.494872 5.08828 0.506515 5.06628 0.506515C5.04427 0.506515 5.01211 0.494872 4.9901 0.494872L5.08828 0.481288C5.08828 0.481288 5.02227 0.469644 5.01211 0.469644C5.00026 0.469644 4.95625 0.45606 4.93594 0.45606C4.91393 0.45606 4.88008 0.444417 4.85807 0.444417C4.85807 0.444417 4.77174 0.45606 4.76159 0.45606C4.72773 0.45606 4.71758 0.444417 4.68372 0.444417C4.67357 0.444417 4.5974 0.45606 4.58724 0.45606C4.55339 0.45606 4.52122 0.469644 4.48906 0.469644C4.45521 0.469644 4.42305 0.481288 4.39089 0.481288C4.35703 0.481288 4.32487 0.494872 4.29271 0.494872C4.2707 0.494872 4.21654 0.506515 4.20469 0.506515C4.17253 0.506515 4.15052 0.494872 4.12852 0.494872C4.10651 0.494872 4.07435 0.481288 4.05234 0.481288L4.14037 0.469644C4.16237 0.469644 4.20469 0.45606 4.22669 0.45606C4.23854 0.45606 4.28086 0.469644 4.30287 0.469644C4.31471 0.469644 4.39089 0.45606 4.40104 0.45606C4.37904 0.45606 4.34688 0.444417 4.32487 0.444417C4.31471 0.444417 4.25885 0.430833 4.2487 0.430833C4.21654 0.430833 4.18268 0.444417 4.15052 0.444417C4.11836 0.444417 4.09635 0.430833 4.07435 0.419189C4.05234 0.419189 3.99818 0.430833 3.98802 0.430833C3.95417 0.430833 3.92201 0.444417 3.9 0.444417C3.88984 0.444417 3.82383 0.45606 3.81367 0.45606C3.80182 0.45606 3.74766 0.444417 3.7375 0.430833C3.7155 0.430833 3.68164 0.419189 3.66133 0.405605C3.64948 0.405605 3.58346 0.419189 3.57331 0.419189C3.56315 0.419189 3.50729 0.405605 3.49714 0.393961C3.48698 0.393961 3.43112 0.368734 3.42096 0.368734C3.39896 0.368734 3.34479 0.380377 3.33294 0.380377L3.24661 0.393961C3.22461 0.393961 3.19245 0.405605 3.15859 0.405605C3.13828 0.405605 3.09427 0.419189 3.07227 0.419189C3.0401 0.419189 3.0181 0.393961 2.99609 0.393961C2.96393 0.393961 2.93008 0.405605 2.90807 0.405605C2.88776 0.405605 2.85391 0.393962 2.8319 0.380377L2.91992 0.368734C2.93008 0.368734 3.00625 0.35515 3.00625 0.35515C3.00625 0.35515 2.94193 0.343506 2.93008 0.329922C2.90807 0.329922 2.87591 0.318279 2.85391 0.304694C2.8319 0.304694 2.78958 0.318279 2.76758 0.318279C2.74557 0.318279 2.71341 0.293051 2.69141 0.293051C2.6694 0.293051 2.62539 0.304694 2.60339 0.304694C2.57122 0.304694 2.53906 0.318278 2.51706 0.329922C2.50521 0.329922 2.44089 0.35515 2.42904 0.35515C2.40703 0.35515 2.36471 0.343506 2.35286 0.329922C2.35286 0.329922 2.37487 0.329922 2.39688 0.318279C2.41888 0.318279 2.44089 0.304694 2.44089 0.304694C2.44089 0.304694 2.36471 0.293051 2.35286 0.281407C2.34271 0.281407 2.27669 0.25618 2.26654 0.25618C2.24453 0.25618 2.20052 0.267823 2.17852 0.281407C2.16836 0.281407 2.09219 0.293051 2.09219 0.304694C2.09219 0.304694 2.17852 0.318278 2.17852 0.329922C2.16836 0.329922 2.11419 0.343506 2.09219 0.35515C2.08034 0.35515 2.00417 0.368734 2.00417 0.380377C2.00417 0.380377 1.92799 0.368734 1.91784 0.35515C1.89583 0.343506 1.86367 0.343506 1.82982 0.329922L1.67747 0.318279L1.50313 0.35515C1.49297 0.368734 1.4168 0.368734 1.4168 0.380377C1.4168 0.380377 1.49297 0.393962 1.50313 0.405605C1.50313 0.405605 1.52513 0.405605 1.54714 0.393961C1.56914 0.393961 1.59115 0.380377 1.59115 0.380377L1.67747 0.405605C1.67747 0.405605 1.6013 0.419189 1.59115 0.430833C1.5793 0.444417 1.52513 0.444416 1.50313 0.45606C1.47096 0.444416 1.44896 0.444417 1.4168 0.430833C1.40495 0.430833 1.35078 0.405605 1.32878 0.405605C1.30677 0.405605 1.26445 0.430833 1.24245 0.430833C1.22044 0.430833 1.17643 0.419189 1.15443 0.405605C1.15443 0.405605 1.17643 0.405605 1.19844 0.393961C1.22044 0.393961 1.24245 0.380377 1.24245 0.380377C1.24245 0.380377 1.16628 0.368734 1.15443 0.35515C1.14427 0.35515 1.07826 0.380377 1.0681 0.380377C1.05625 0.380377 0.991927 0.368734 0.980078 0.35515C0.980078 0.35515 1.05625 0.329922 1.0681 0.329922L0.89375 0.293051C0.859896 0.304694 0.839583 0.304694 0.805729 0.318279C0.795573 0.318279 0.719401 0.329922 0.719401 0.343506C0.719401 0.343506 0.805729 0.35515 0.805729 0.368734C0.795573 0.380378 0.719401 0.380377 0.719401 0.393961C0.719401 0.393961 0.805729 0.405605 0.805729 0.419189C0.795573 0.430833 0.741407 0.430833 0.719401 0.444417H0.653385L0.567057 0.419189C0.545052 0.419189 0.501042 0.405605 0.479037 0.393961C0.46888 0.393961 0.392708 0.380378 0.392708 0.368734C0.392708 0.368734 0.46888 0.35515 0.479037 0.343506C0.490886 0.343506 0.567057 0.329922 0.567057 0.318279C0.577214 0.329922 0.653385 0.329922 0.653385 0.318279C0.653385 0.318279 0.577214 0.293051 0.567057 0.293051C0.555208 0.293051 0.490886 0.318279 0.479037 0.318279C0.479037 0.318279 0.402865 0.329922 0.392708 0.343506L0.304688 0.368734C0.282682 0.368734 0.250521 0.380377 0.218359 0.393961H0.0321615V0.619069C0.0321615 0.644297 0.0220052 0.694753 0.0220052 0.708336C0.0220052 0.733564 0.0440104 0.770435 0.0440104 0.807306C0.0440104 0.820891 0.0321615 0.896574 0.0321615 0.908217C0.0321615 0.921801 0.0101563 0.807306 0.0101563 0.82089C0.0101563 0.82089 0 0.908217 0 0.921801C0 0.947028 0.0220052 0.997484 0.0220052 1.00913C0.0220052 1.03435 0.0440104 1.07123 0.0440104 1.09645C0.0440104 1.11004 0.0321615 1.17214 0.0321615 1.19736C0.0321615 1.22259 0.0541667 1.27305 0.0541667 1.29827C0.0541667 1.33515 0.0660154 1.37396 0.0761719 1.3856C0.0761719 1.41083 0.0981771 1.44964 0.0981771 1.47487C0.0981771 1.48651 0.0880208 1.54861 0.0880208 1.57384C0.0880208 1.61265 0.108333 1.63788 0.108333 1.6631C0.0981773 1.68833 0.0981771 1.73879 0.0981771 1.76207C0.0981771 1.77566 0.0880208 1.86299 0.0880208 1.86299C0.0761722 1.86299 0.0761721 1.77566 0.0660156 1.77566C0.0541666 1.77566 0.0541665 1.67475 0.0440104 1.67475C0.0440104 1.67475 0.0321615 1.76207 0.0321615 1.77566C0.0321615 1.76207 0.0541667 1.86299 0.0541667 1.87657C0.0541667 1.91344 0.0440104 1.93867 0.0440104 1.97748C0.0440104 2.00077 0.0660156 2.03958 0.0660156 2.06481C0.0660156 2.09003 0.0440106 2.14049 0.0541667 2.16572C0.0541667 2.19094 0.0660154 2.23946 0.0761719 2.25304L0.0981771 2.34037C0.0981771 2.35395 0.120182 2.41605 0.120182 2.42964C0.120182 2.45486 0.108333 2.50338 0.108333 2.52861C0.108333 2.55383 0.130339 2.59265 0.130339 2.61787C0.130339 2.65474 0.120182 2.67997 0.120182 2.71878C0.120182 2.75566 0.142188 2.78088 0.142188 2.80611C0.142188 2.83134 0.130339 2.88179 0.130339 2.90702C0.130339 2.93225 0.152344 2.96912 0.152344 3.00599C0.152344 3.00599 0.152344 2.98076 0.164193 2.95748C0.108333 2.91866 0.108333 2.89344 0.108333 2.89344L0.130339 2.98076C0.130339 2.99435 0.108333 3.07003 0.120182 3.08167C0.120182 3.12049 0.130339 3.14571 0.142188 3.18258C0.142188 3.19617 0.164193 3.25827 0.164193 3.26991C0.164193 3.30872 0.152344 3.33395 0.152344 3.37082C0.152344 3.37082 0.152344 3.34559 0.142188 3.32037C0.142188 3.29514 0.130339 3.26991 0.130339 3.26991C0.130339 3.26991 0.120182 3.35918 0.120182 3.37082C0.120182 3.39605 0.108333 3.43486 0.108333 3.47173L0.130339 3.55906C0.130339 3.57264 0.152344 3.63474 0.152344 3.64832C0.152344 3.65997 0.142188 3.73565 0.142188 3.74729C0.142188 3.74729 0.120182 3.64832 0.120182 3.65997C0.120182 3.65997 0.108333 3.7473 0.108333 3.76088C0.108333 3.78611 0.130339 3.83656 0.130339 3.84821C0.142187 3.87343 0.142187 3.91224 0.152344 3.94912C0.152344 3.97434 0.174349 4.0248 0.174349 4.03644C0.174349 4.06167 0.164193 4.10048 0.164193 4.13735C0.164193 4.13735 0.164192 4.11213 0.152344 4.0869C0.152344 4.06167 0.142188 4.03644 0.142188 4.03644C0.142188 4.03644 0.130339 4.12571 0.130339 4.13735C0.130339 4.15094 0.120182 4.21304 0.120182 4.23826C0.120182 4.26349 0.142188 4.30036 0.142188 4.33917C0.108333 4.33917 0.120182 4.4265 0.120182 4.4265C0.120182 4.4265 0.130339 4.33917 0.130339 4.32559L0.142188 4.22468L0.184505 4.41486C0.184505 4.43814 0.174349 4.47695 0.174349 4.51383C0.174349 4.52741 0.164193 4.61474 0.164193 4.61474C0.164193 4.61474 0.142188 4.51383 0.142188 4.52741C0.142188 4.53905 0.130339 4.62832 0.130339 4.62832L0.108333 4.52741C0.108333 4.53905 0.0981771 4.60309 0.0981771 4.62832L0.0761719 4.71565C0.0880205 4.75252 0.0880206 4.77775 0.0981771 4.80297C0.0981771 4.81656 0.120182 4.87866 0.120182 4.90388C0.120182 4.91553 0.108333 4.99121 0.108333 5.00479C0.108333 5.04167 0.120182 5.06689 0.130339 5.09212C0.142187 5.13093 0.142187 5.15616 0.152344 5.19303C0.152344 5.20467 0.174349 5.26871 0.174349 5.28036C0.174349 5.30559 0.164193 5.3444 0.164193 5.38127C0.164193 5.4065 0.184505 5.44337 0.184505 5.4686C0.184505 5.49382 0.174349 5.54428 0.174349 5.56951C0.174349 5.60832 0.164193 5.63354 0.164193 5.67042C0.164193 5.68206 0.152344 5.75774 0.152344 5.77133C0.152344 5.79655 0.164192 5.84701 0.174349 5.85865L0.218359 6.04689L0.240365 6.13422L0.282682 6.32439C0.272526 6.33604 0.272526 6.42336 0.272526 6.42336C0.272526 6.42336 0.250521 6.32439 0.250521 6.33604C0.250521 6.34962 0.240365 6.41172 0.240365 6.43695L0.228516 6.53786C0.228516 6.56309 0.218359 6.59996 0.218359 6.63683C0.218359 6.65041 0.240365 6.71251 0.240365 6.72609C0.240365 6.75132 0.218359 6.80178 0.228516 6.82701C0.228516 6.85223 0.240365 6.90075 0.250521 6.91433C0.250521 6.92597 0.272526 6.99001 0.272526 7.00166C0.272526 7.02689 0.26237 7.0657 0.26237 7.10257C0.26237 7.1278 0.250521 7.17825 0.250521 7.20348C0.250521 7.21512 0.240365 7.27916 0.240365 7.30439C0.240365 7.32962 0.26237 7.36649 0.26237 7.39172C0.26237 7.39172 0.26237 7.36649 0.272526 7.34126C0.272526 7.31603 0.282682 7.29081 0.282682 7.29081L0.304688 7.37813C0.304688 7.39172 0.294531 7.4674 0.294531 7.47904C0.294531 7.50427 0.316536 7.54308 0.316536 7.56831C0.228516 7.60518 0.218359 7.65564 0.218359 7.68086C0.218359 7.70609 0.240365 7.75655 0.240365 7.76819C0.240365 7.78177 0.26237 7.84387 0.26237 7.85552C0.26237 7.89433 0.250521 7.91956 0.250521 7.95643C0.250521 7.95643 0.250521 7.9312 0.240365 7.90597C0.228516 7.88074 0.218359 7.8691 0.218359 7.8691C0.218359 7.8691 0.20651 7.95643 0.20651 7.97001C0.20651 7.99524 0.196354 8.03211 0.196354 8.07092L0.218359 8.15825C0.218359 8.16989 0.240365 8.23393 0.240365 8.24557C0.240365 8.2708 0.228516 8.32126 0.228516 8.34648C0.228516 8.38336 0.218359 8.42217 0.218359 8.4474C0.218359 8.45904 0.20651 8.52308 0.20651 8.54831C0.20651 8.55995 0.228516 8.63563 0.228516 8.63563V8.73654C0.240365 8.76177 0.240365 8.79864 0.250521 8.82387C0.250521 8.83551 0.240365 8.91119 0.240365 8.92478C0.240365 8.93642 0.26237 9.01211 0.26237 9.01211C0.26237 9.02569 0.282682 9.08779 0.282682 9.09943C0.282682 9.11302 0.272526 9.1887 0.272526 9.20034C0.272526 9.21393 0.26237 9.27603 0.26237 9.30125C0.26237 9.32648 0.282682 9.37694 0.282682 9.38858C0.282682 9.42739 0.272526 9.45262 0.272526 9.48949C0.272526 9.51472 0.294531 9.55159 0.294531 9.57682C0.294531 9.60204 0.272526 9.6525 0.282682 9.67773C0.282682 9.70295 0.294531 9.75341 0.304688 9.76699L0.348698 9.94165C0.348698 9.96687 0.370703 10.0057 0.370703 10.029C0.370703 10.0426 0.358854 10.1047 0.358854 10.1299C0.358854 10.1687 0.380859 10.1939 0.380859 10.2192L0.348698 10.4074L0.326693 10.3181C0.316537 10.2929 0.316537 10.256 0.304688 10.2308C0.294531 10.2056 0.294531 10.1687 0.282682 10.1435C0.282682 10.1299 0.26237 10.0426 0.26237 10.0542C0.26237 10.0542 0.250521 10.1435 0.250521 10.1551C0.250521 10.1687 0.272526 10.2308 0.272526 10.2444L0.294531 10.3317C0.294531 10.3686 0.282682 10.3938 0.282682 10.4326C0.282682 10.4578 0.304688 10.4947 0.304688 10.5199C0.304688 10.5452 0.282682 10.5956 0.294531 10.6209C0.294531 10.6461 0.304687 10.6965 0.316536 10.7082C0.326693 10.7334 0.326693 10.7839 0.338542 10.7955C0.338542 10.8091 0.348698 10.8848 0.358854 10.8848L0.370703 10.7839C0.380859 10.7839 0.380859 10.8712 0.392708 10.8712L0.380859 10.9721L0.316536 11.1235C0.316536 11.1487 0.304688 11.1856 0.304688 11.2244C0.304688 11.236 0.326693 11.2981 0.326693 11.3233C0.326693 11.3369 0.316536 11.4126 0.316536 11.4243C0.316536 11.4495 0.304688 11.4999 0.304688 11.5252C0.304688 11.5504 0.326693 11.6008 0.326693 11.6125C0.326693 11.6513 0.316536 11.6765 0.316536 11.7134C0.316536 11.7503 0.338542 11.7755 0.338542 11.8007C0.338542 11.8143 0.326693 11.89 0.326693 11.9016C0.326693 11.9152 0.316536 11.989 0.316536 12.0025C0.316536 12.0142 0.338542 12.0782 0.338542 12.0899L0.358854 12.1791C0.358854 12.2044 0.380859 12.2412 0.380859 12.2665C0.380859 12.2781 0.370703 12.3538 0.370703 12.3674C0.370703 12.379 0.358854 12.4431 0.358854 12.4663C0.358854 12.4799 0.380859 12.5556 0.380859 12.5673C0.392708 12.5925 0.392708 12.6313 0.402865 12.6565C0.402865 12.6682 0.42487 12.7303 0.42487 12.7439C0.42487 12.7555 0.414714 12.8312 0.414714 12.8448C0.414714 12.87 0.402865 12.9069 0.402865 12.9437C0.402865 12.969 0.392708 13.0078 0.392708 13.0446C0.392708 13.0699 0.414714 13.1087 0.414714 13.1456C0.414714 13.1824 0.402865 13.2077 0.402865 13.2465C0.402865 13.2581 0.42487 13.3338 0.42487 13.3338L0.446875 13.4231C0.446875 13.4347 0.46888 13.4968 0.46888 13.522C0.46888 13.5356 0.457031 13.6113 0.457031 13.6229C0.457031 13.6365 0.446875 13.6986 0.446875 13.7238C0.446875 13.7491 0.46888 13.7859 0.46888 13.8112C0.46888 13.85 0.457031 13.8752 0.457031 13.9121C0.457031 13.9373 0.479037 13.9742 0.479037 13.9994C0.479037 14.0246 0.46888 14.0751 0.46888 14.1003L0.446875 14.013C0.446875 14.013 0.435026 14.1003 0.435026 14.1139C0.435026 14.1256 0.457031 14.1876 0.457031 14.2012C0.457031 14.2265 0.446875 14.2633 0.446875 14.3021C0.446875 14.3274 0.46888 14.3778 0.46888 14.3895C0.479036 14.4263 0.479036 14.4516 0.490885 14.4768C0.490885 14.502 0.512891 14.5408 0.512891 14.5661C0.512891 14.5777 0.501042 14.6398 0.501042 14.665C0.501042 14.6903 0.523047 14.7291 0.523047 14.7659C0.523047 14.8048 0.512891 14.83 0.512891 14.8669C0.512891 14.9037 0.533203 14.929 0.533203 14.9542C0.533203 14.9794 0.523047 15.0299 0.523047 15.0551C0.523047 15.0803 0.545052 15.1308 0.545052 15.1424C0.545052 15.1424 0.545052 15.1191 0.555208 15.0939C0.555208 15.0687 0.567057 15.0434 0.567057 15.0434C0.567057 15.0434 0.589063 15.1308 0.589063 15.1424C0.589063 15.156 0.609375 15.2181 0.609375 15.2317L0.599219 15.3326C0.599219 15.3326 0.577214 15.2317 0.577214 15.2433C0.577214 15.2569 0.567057 15.319 0.567057 15.3442C0.567057 15.3578 0.555208 15.4199 0.555208 15.4451C0.555208 15.482 0.577214 15.5072 0.577214 15.5325L0.589063 15.4316C0.589063 15.4316 0.609375 15.5072 0.609375 15.5208C0.609375 15.5208 0.599219 15.6082 0.599219 15.6198C0.599219 15.6334 0.621224 15.6955 0.621224 15.7207C0.621224 15.7343 0.643229 15.7964 0.643229 15.81C0.643229 15.8216 0.63138 15.9089 0.63138 15.9089C0.63138 15.9089 0.621224 15.81 0.609375 15.8216C0.609375 15.8216 0.599219 15.9089 0.599219 15.9225C0.599219 15.9342 0.621224 16.0099 0.621224 16.0099C0.621224 16.0351 0.609375 16.0855 0.609375 16.1108C0.609375 16.136 0.63138 16.1729 0.63138 16.1981C0.63138 16.2233 0.621224 16.2738 0.621224 16.299C0.621224 16.3242 0.609375 16.3611 0.609375 16.3999C0.609375 16.4116 0.63138 16.4756 0.63138 16.4872C0.63138 16.5125 0.609375 16.5629 0.621224 16.5882C0.621224 16.6134 0.631381 16.6638 0.643229 16.6755L0.665234 16.7647C0.665234 16.7764 0.68724 16.8385 0.68724 16.8521C0.68724 16.8637 0.675391 16.9394 0.675391 16.953C0.675391 16.9899 0.665234 17.0151 0.665234 17.0539C0.665234 17.0655 0.653385 17.1412 0.653385 17.1529C0.653385 17.1917 0.675391 17.2169 0.675391 17.2538C0.675391 17.279 0.665234 17.3295 0.665234 17.3547C0.665234 17.3799 0.68724 17.4168 0.68724 17.442C0.68724 17.4672 0.697396 17.5177 0.707552 17.5429C0.707552 17.5682 0.729557 17.605 0.729557 17.6302C0.729557 17.6438 0.719401 17.7059 0.719401 17.7312C0.719401 17.77 0.741406 17.7952 0.741406 17.8185C0.729557 17.8825 0.719401 17.9446 0.707552 18.0087C0.697396 17.9699 0.697396 17.9446 0.68724 17.9194C0.68724 17.9078 0.665234 17.8437 0.665234 17.8321C0.665234 17.8689 0.653385 17.8942 0.653385 17.933C0.653385 17.9582 0.675391 18.0087 0.675391 18.0203C0.675391 18.0455 0.665234 18.096 0.665234 18.1212C0.665234 18.1329 0.653385 18.2085 0.653385 18.2221C0.653385 18.2474 0.665234 18.2959 0.675391 18.3095C0.68724 18.3347 0.68724 18.3851 0.697396 18.4104C0.697396 18.422 0.707552 18.4977 0.719401 18.4977L0.729557 18.3968L0.751563 18.486C0.751563 18.486 0.741406 18.5734 0.741406 18.585C0.741406 18.5986 0.729557 18.6607 0.729557 18.6859C0.729557 18.6995 0.751563 18.7733 0.751563 18.7733C0.751563 18.7868 0.773568 18.8489 0.773568 18.8625C0.773568 18.8994 0.763412 18.9246 0.763412 18.9634C0.763412 19.0003 0.751563 19.0255 0.751563 19.0624C0.751563 19.0876 0.773568 19.1264 0.773568 19.1517C0.773568 19.1885 0.763412 19.2138 0.763412 19.2526C0.763412 19.2759 0.783724 19.3147 0.783724 19.3399C0.783724 19.3651 0.773568 19.4156 0.773568 19.4408C0.773568 19.4408 0.783724 19.466 0.783724 19.4913C0.783724 19.5146 0.795573 19.5398 0.795573 19.5398C0.795573 19.5534 0.783724 19.6291 0.783724 19.6407C0.783724 19.6543 0.773568 19.73 0.773568 19.7416C0.773568 19.7668 0.795573 19.8173 0.795573 19.8289L0.817578 19.9182C0.827734 19.9434 0.827734 19.9803 0.839583 20.0055C0.839583 20.0172 0.827734 20.0812 0.827734 20.1064C0.827734 20.1433 0.84974 20.1685 0.84974 20.2073C0.84974 20.2442 0.871745 20.2694 0.871745 20.2947C0.871745 20.3063 0.84974 20.382 0.859896 20.3956C0.859896 20.4325 0.871745 20.4577 0.881901 20.4829L0.925912 20.6711L0.915755 20.7721C0.903906 20.7721 0.903907 20.6711 0.89375 20.6847C0.881901 20.6847 0.881901 20.7837 0.881901 20.7837C0.871745 20.7837 0.871745 20.6964 0.859896 20.6964C0.859896 20.6964 0.84974 20.7837 0.84974 20.7973L0.839583 20.8982C0.839583 20.9351 0.859896 20.9603 0.859896 20.9855C0.859896 21.0108 0.84974 21.0612 0.84974 21.0864C0.84974 21.1117 0.871745 21.1621 0.871745 21.1738C0.871745 21.2106 0.881901 21.2359 0.89375 21.2747L0.915755 21.362L0.958073 21.5502C0.947917 21.5638 0.947917 21.6395 0.947917 21.6511C0.947917 21.6511 0.937761 21.5502 0.925912 21.5502C0.925912 21.5502 0.915755 21.6395 0.915755 21.6511L0.93776 21.7385C0.93776 21.7637 0.925912 21.8142 0.925912 21.8394C0.925912 21.8782 0.915755 21.9034 0.915755 21.9403C0.915755 21.9655 0.903906 22.0024 0.903906 22.0412C0.903906 22.0528 0.925912 22.1285 0.925912 22.1285C0.925912 22.1421 0.947917 22.2042 0.947917 22.2159C0.947917 22.2547 0.93776 22.2799 0.93776 22.3168C0.93776 22.3556 0.925912 22.3808 0.925912 22.4177C0.925912 22.4545 0.947917 22.4798 0.947917 22.505C0.947917 22.5438 0.93776 22.569 0.93776 22.6059C0.93776 22.6447 0.958073 22.668 0.958073 22.7068C0.958073 22.7437 0.947917 22.7689 0.947917 22.8077C0.947917 22.833 0.969922 22.8698 0.969922 22.8951C0.969922 22.9319 0.958073 22.9572 0.958073 22.996C0.958073 23.0212 0.980078 23.0581 0.980078 23.0969C0.980078 23.1221 0.969922 23.159 0.969922 23.1959C0.969922 23.2211 0.991927 23.2715 0.991927 23.2968L1.01393 23.386L1.03424 23.485C1.03424 23.5102 1.05625 23.549 1.05625 23.5743C1.05625 23.5859 1.04609 23.648 1.04609 23.6732C1.04609 23.712 1.0681 23.7373 1.0681 23.7625C1.0681 23.7994 1.05625 23.8246 1.05625 23.8634C1.05625 23.8867 1.07826 23.9255 1.07826 23.9507C1.07826 23.9876 1.0681 24.0128 1.0681 24.0516C1.0681 24.0769 1.05625 24.1137 1.05625 24.1506C1.05625 24.1758 1.07826 24.2147 1.07826 24.2515C1.07826 24.2768 1.0681 24.3272 1.0681 24.3524C1.0681 24.3524 1.04609 24.2651 1.04609 24.2515C1.04609 24.2515 1.03424 24.3408 1.03424 24.3524L0.653385 24.4281C0.665234 24.465 0.665234 24.4902 0.675391 24.529C0.675391 24.5407 0.697396 24.6047 0.697396 24.6164C0.697396 24.628 0.68724 24.7037 0.68724 24.7173C0.68724 24.7541 0.697396 24.7794 0.707552 24.8046C0.719401 24.8434 0.719401 24.8667 0.729557 24.9055C0.729557 24.9172 0.751563 24.9812 0.751563 24.9928C0.751563 25.0064 0.741406 25.0821 0.741406 25.0937C0.741406 25.1054 0.729557 25.1694 0.729557 25.1947C0.729557 25.2063 0.751563 25.282 0.751563 25.2956C0.751563 25.3072 0.773568 25.3693 0.773568 25.3829C0.773568 25.4081 0.763412 25.4586 0.763412 25.4838C0.763412 25.4954 0.751563 25.5711 0.751563 25.5828C0.751563 25.5828 0.741406 25.4838 0.729557 25.4954C0.719401 25.4954 0.719401 25.5828 0.719401 25.5964C0.719401 25.6332 0.741406 25.6585 0.741406 25.6837C0.741406 25.7089 0.719401 25.7594 0.729557 25.7846C0.729557 25.8098 0.741407 25.8603 0.751563 25.8719C0.751563 25.8971 0.763412 25.9612 0.773568 25.9612C0.773568 25.9728 0.783724 25.8603 0.783724 25.8603C0.783724 25.8603 0.795573 25.8855 0.795573 25.8971C0.795573 25.9224 0.805729 25.9476 0.805729 25.9476C0.805729 25.9612 0.795573 26.0369 0.795573 26.0485C0.795573 26.0737 0.783724 26.1106 0.783724 26.1494C0.783724 26.1494 0.783724 26.1611 0.783724 26.1747L0.839583 26.4386L0.980078 26.3998C1.00208 26.3998 1.03424 26.3881 1.04609 26.3881C1.05625 26.3881 1.12227 26.3998 1.13242 26.4133C1.14427 26.4133 1.19844 26.4386 1.22044 26.4386C1.24245 26.4386 1.28477 26.4133 1.30677 26.4133C1.32878 26.4133 1.37279 26.4386 1.39479 26.4386C1.42695 26.4386 1.44896 26.4133 1.48112 26.4133C1.50312 26.4133 1.53698 26.4386 1.56914 26.4386C1.6013 26.4386 1.62331 26.4133 1.65547 26.4133C1.68932 26.4133 1.70964 26.3881 1.74349 26.3881C1.77565 26.3881 1.79766 26.3998 1.82982 26.4133C1.85182 26.4133 1.89583 26.425 1.91784 26.4386L2.08034 26.4754C2.10234 26.4638 2.13451 26.4638 2.16836 26.4502C2.17852 26.4502 2.25469 26.4386 2.25469 26.425C2.25469 26.4133 2.17852 26.4133 2.16836 26.3998C2.16836 26.3998 2.10234 26.3881 2.08034 26.3745C2.07018 26.3745 1.99401 26.3629 1.99401 26.3493C1.99401 26.3377 2.07018 26.3377 2.08034 26.3241L2.16836 26.3493L2.25469 26.3745C2.27669 26.3881 2.30885 26.3881 2.34271 26.3998C2.37487 26.3998 2.39688 26.4133 2.42904 26.425C2.44089 26.425 2.49505 26.4502 2.51706 26.4502C2.53906 26.4502 2.58138 26.425 2.60339 26.425C2.59323 26.425 2.51706 26.4133 2.51706 26.3998C2.51706 26.3998 2.59323 26.3881 2.60339 26.3745C2.61523 26.3745 2.6694 26.3493 2.69141 26.3493C2.71341 26.3493 2.75573 26.3629 2.77773 26.3745L2.86576 26.3998C2.88776 26.3998 2.93008 26.4133 2.95208 26.425C2.96393 26.425 3.02826 26.4133 3.0401 26.3998C3.06211 26.3998 3.09427 26.3881 3.12643 26.3745C3.14844 26.3745 3.19245 26.3998 3.21445 26.3998C3.24661 26.3998 3.26862 26.3745 3.30078 26.3745C3.33294 26.3745 3.35495 26.3998 3.3888 26.3998C3.39896 26.3998 3.46497 26.3881 3.47513 26.3745C3.47513 26.3745 3.3888 26.3629 3.3888 26.3493C3.3888 26.3493 3.46497 26.3377 3.47513 26.3241L3.56315 26.3008C3.57331 26.3124 3.62747 26.3124 3.64948 26.3241C3.66133 26.3241 3.7375 26.3377 3.7375 26.3493C3.7375 26.3493 3.64948 26.3629 3.64948 26.3745C3.66133 26.3745 3.7155 26.3881 3.7375 26.3998L3.9 26.4386C3.93216 26.4386 3.95417 26.425 3.98802 26.4133C4.00833 26.4133 4.05234 26.4386 4.07435 26.4386C4.09635 26.4386 4.14037 26.425 4.16237 26.4133C4.19453 26.4133 4.21654 26.3998 4.2487 26.3881L4.33672 26.3629C4.35703 26.3629 4.39089 26.3493 4.42305 26.3377C4.44505 26.3377 4.48906 26.3629 4.51107 26.3629C4.53138 26.3629 4.57539 26.3377 4.5974 26.3377C4.6194 26.3377 4.66341 26.3493 4.68372 26.3629H4.69557L4.7819 26.3745L4.69557 26.3881C4.68372 26.3881 4.68372 26.3881 4.68372 26.3881H4.69557L4.82591 26.425L4.84792 26.3493L4.81576 26.3629L4.86992 26.1747C4.88008 26.1494 4.89193 26.099 4.89193 26.099C4.89193 26.099 4.89193 26.1494 4.90208 26.1747V26.1999L4.91393 26.1747C4.92409 26.1494 4.92409 26.1106 4.93594 26.099C4.93594 26.0854 4.95625 26.0233 4.95625 25.9981C4.95625 25.9864 4.94609 25.9107 4.94609 25.8971L4.93594 25.7982C4.93594 25.7594 4.92409 25.7341 4.92409 25.6973C4.92409 25.672 4.91393 25.6332 4.91393 25.5964C4.91393 25.5828 4.93594 25.5207 4.93594 25.4954C4.93594 25.4586 4.92409 25.4333 4.92409 25.3945C4.92409 25.3577 4.91393 25.3324 4.91393 25.2956C4.91393 25.2703 4.93594 25.2199 4.93594 25.1947C4.93594 25.1811 4.95625 25.0937 4.95625 25.0937C4.95625 25.0937 4.95625 25.0064 4.94609 24.9928C4.94609 24.9812 4.93594 24.9172 4.93594 24.8919L4.92409 24.793C4.92409 24.7794 4.91393 24.7173 4.91393 24.692C4.91393 24.6785 4.93594 24.6047 4.93594 24.5911C4.94609 24.5659 4.95625 24.529 4.95625 24.4902C4.95625 24.4786 4.94609 24.4145 4.94609 24.3893C4.94609 24.3777 4.9681 24.302 4.9681 24.2903C4.9681 24.2768 4.9901 24.2147 4.9901 24.1894C4.9901 24.1758 4.97826 24.1137 4.97826 24.0885C4.97826 24.0769 4.9681 24.0128 4.9681 23.9876C4.9681 23.9507 4.9901 23.9255 4.9901 23.8867C4.9901 23.8634 5.01211 23.813 5.01211 23.7877C5.02227 23.7625 5.03242 23.7237 5.03242 23.6868C5.03242 23.6616 5.02227 23.6111 5.02227 23.5859C5.02227 23.549 5.04427 23.5238 5.04427 23.485C5.04427 23.4481 5.03242 23.4229 5.03242 23.386C5.03242 23.3608 5.05443 23.3103 5.05443 23.2851C5.05443 23.2599 5.04427 23.2094 5.04427 23.1842C5.04427 23.1706 5.03242 23.1085 5.03242 23.0833C5.03242 23.0717 5.05443 22.996 5.05443 22.9824C5.05443 22.9455 5.04427 22.9203 5.04427 22.8834L5.03242 22.7825C5.03242 22.7573 5.02227 22.7185 5.02227 22.6816C5.02227 22.668 5.04427 22.5943 5.04427 22.5807C5.04427 22.569 5.06628 22.505 5.06628 22.4798C5.06628 22.4681 5.05443 22.3924 5.05443 22.3808L5.04427 22.2799C5.05443 22.2663 5.06628 22.179 5.06628 22.179C5.07643 22.179 5.06628 22.2799 5.07643 22.2799L5.09844 22.179C5.09844 22.1906 5.10859 22.2547 5.10859 22.2799C5.10859 22.2915 5.10859 22.3808 5.12044 22.3808C5.12044 22.3808 5.14245 22.2915 5.14245 22.2799C5.14245 22.2799 5.1306 22.1906 5.1306 22.179C5.1306 22.1538 5.12044 22.1169 5.12044 22.0781C5.12044 22.0528 5.10859 22.016 5.10859 21.9772C5.10859 21.9403 5.09844 21.9151 5.09844 21.8782C5.09844 21.8646 5.08828 21.8025 5.08828 21.7773C5.08828 21.7521 5.10859 21.7016 5.10859 21.6764C5.12044 21.6395 5.1306 21.6007 5.1306 21.5755C5.14245 21.5502 5.1526 21.4881 5.1526 21.4746C5.1526 21.4629 5.1526 21.5755 5.16445 21.5755C5.16445 21.5755 5.18646 21.4881 5.18646 21.4746C5.18646 21.4493 5.17461 21.4008 5.17461 21.3756C5.17461 21.3368 5.16445 21.3115 5.16445 21.2747C5.16445 21.2494 5.1526 21.2106 5.1526 21.1738C5.1526 21.1485 5.14245 21.1117 5.14245 21.0864C5.14245 21.0612 5.1306 21.0224 5.1306 20.9972C5.1306 20.9855 5.1526 20.9234 5.1526 20.8982C5.1526 20.873 5.14245 20.8342 5.14245 20.8089C5.14245 20.7721 5.16445 20.7468 5.16445 20.71C5.16445 20.6847 5.1526 20.6459 5.1526 20.6207C5.1526 20.5838 5.17461 20.5586 5.17461 20.5198C5.17461 20.4829 5.16445 20.4577 5.16445 20.4325C5.16445 20.4208 5.18646 20.3451 5.18646 20.3315L5.19662 20.4208L5.21862 20.3199C5.21862 20.2947 5.20677 20.2442 5.20677 20.2306L5.19662 20.1433C5.19662 20.1181 5.19662 20.0676 5.18646 20.056L5.16445 20.1569L5.1526 20.0676L5.14245 19.9803L5.16445 19.8794C5.16445 19.893 5.16445 19.9687 5.17461 19.9687L5.19662 19.8677C5.19662 19.8677 5.19662 19.9551 5.20677 19.9551C5.20677 19.9687 5.21862 20.0308 5.21862 20.0424C5.21862 20.056 5.21862 20.1317 5.22878 20.1317C5.22878 20.1317 5.25078 20.0424 5.25078 20.0308L5.24063 19.9434C5.24063 19.9046 5.26263 19.8794 5.26263 19.8425C5.26263 19.8037 5.28294 19.7785 5.28294 19.7416C5.28294 19.73 5.27279 19.6543 5.27279 19.6543L5.25078 19.7533L5.24063 19.6659C5.24063 19.6407 5.24063 19.5786 5.22878 19.5786C5.22878 19.5786 5.25078 19.4913 5.25078 19.4777C5.25078 19.4525 5.24063 19.4156 5.24063 19.3904C5.24063 19.3515 5.26263 19.3263 5.26263 19.2895C5.26263 19.2526 5.25078 19.2274 5.25078 19.2021C5.25078 19.1633 5.24063 19.1381 5.24063 19.1129C5.24063 19.0876 5.26263 19.0372 5.26263 19.0119C5.26263 18.9887 5.28294 18.9382 5.28294 18.913C5.28294 18.8994 5.27279 18.8373 5.27279 18.8237C5.27279 18.8121 5.26263 18.75 5.26263 18.7364C5.26263 18.7247 5.28294 18.6491 5.28294 18.6355C5.28294 18.6238 5.30495 18.5598 5.30495 18.5346C5.30495 18.5229 5.29479 18.4472 5.29479 18.4472C5.29479 18.4356 5.28294 18.3716 5.28294 18.3599C5.28294 18.3463 5.30495 18.2726 5.30495 18.259C5.30495 18.2474 5.32695 18.1717 5.32695 18.1581C5.32695 18.1329 5.3168 18.0824 5.3168 18.0708L5.30495 17.9834L5.28294 17.7952C5.29479 17.77 5.30495 17.7195 5.30495 17.6943C5.30495 17.6807 5.32695 17.5934 5.32695 17.5934C5.3388 17.5934 5.32695 17.6807 5.3388 17.6807C5.34896 17.6807 5.36081 17.5798 5.36081 17.5798C5.37096 17.5798 5.36081 17.6691 5.37096 17.6691L5.42513 17.4672C5.42513 17.4304 5.41497 17.4051 5.41497 17.3799C5.41497 17.3663 5.40313 17.3042 5.40313 17.2926C5.40313 17.2674 5.42513 17.2169 5.42513 17.1917C5.42513 17.1529 5.41497 17.1412 5.41497 17.1024C5.41497 17.0772 5.43698 17.0287 5.43698 17.0034C5.43698 16.9782 5.42513 16.9278 5.42513 16.9142C5.42513 16.9142 5.41497 16.9394 5.41497 16.9646C5.40313 16.9899 5.40313 17.0151 5.40313 17.0151C5.40313 17.0151 5.40313 16.9394 5.39297 16.9278C5.39297 16.9142 5.38112 16.8637 5.38112 16.8385L5.36081 16.6503C5.37096 16.6386 5.38112 16.5513 5.38112 16.5513C5.39297 16.5513 5.38112 16.6386 5.39297 16.6386L5.41497 16.5377C5.41497 16.5513 5.42513 16.6134 5.42513 16.625C5.42513 16.6386 5.42513 16.7143 5.43698 16.7143C5.43698 16.7143 5.45729 16.625 5.45729 16.6134C5.45729 16.625 5.45729 16.5261 5.44714 16.5261C5.44714 16.4872 5.46914 16.462 5.46914 16.4251C5.46914 16.3999 5.45729 16.3611 5.45729 16.3359C5.45729 16.299 5.44714 16.2738 5.44714 16.2486L5.43698 16.1612C5.43698 16.136 5.42513 16.0972 5.42513 16.0739C5.42513 16.0603 5.44714 15.9846 5.44714 15.973C5.44714 15.9478 5.43698 15.9089 5.43698 15.8837C5.43698 15.8585 5.45729 15.7964 5.45729 15.7848C5.45729 15.7595 5.44714 15.7091 5.44714 15.6955L5.42513 15.5208L5.44714 15.4199C5.44714 15.4063 5.46914 15.319 5.46914 15.319L5.4793 15.4063C5.4793 15.3947 5.5013 15.319 5.5013 15.3074C5.51315 15.2686 5.52331 15.2433 5.52331 15.2065C5.52331 15.1812 5.51315 15.1424 5.51315 15.1191C5.51315 15.1055 5.5013 15.0434 5.5013 15.0299C5.5013 15.0182 5.52331 14.9425 5.52331 14.929C5.52331 14.9173 5.54531 14.83 5.54531 14.83C5.54531 14.8048 5.53516 14.7659 5.53516 14.7407C5.53516 14.7155 5.53516 14.665 5.52331 14.6534L5.5013 14.7543C5.5013 14.7543 5.49115 14.6786 5.49115 14.665C5.49115 14.6398 5.49115 14.6029 5.4793 14.5777C5.49115 14.5661 5.5013 14.4904 5.5013 14.4768C5.5013 14.4652 5.5013 14.5661 5.51315 14.5661L5.53516 14.4652C5.53516 14.4652 5.54531 14.5408 5.54531 14.5525C5.54531 14.5661 5.54531 14.6398 5.55547 14.6398C5.56732 14.6398 5.57747 14.5525 5.57747 14.5408L5.56732 14.3642L5.55547 14.2769C5.55547 14.2517 5.55547 14.2129 5.54531 14.1876C5.54531 14.1624 5.53516 14.1391 5.53516 14.1003C5.53516 14.1003 5.55547 14.013 5.55547 13.9994L5.54531 13.9121C5.54531 13.9121 5.53516 13.9373 5.53516 13.9625C5.52331 13.9878 5.52331 14.013 5.52331 14.013C5.52331 13.9878 5.51315 13.949 5.51315 13.9237C5.51315 13.9004 5.53516 13.85 5.53516 13.8248C5.53516 13.7859 5.52331 13.7607 5.52331 13.7355C5.53516 13.7103 5.54531 13.6598 5.54531 13.6365C5.54531 13.6229 5.56732 13.5356 5.56732 13.5356C5.56732 13.5356 5.56732 13.6229 5.57747 13.6229C5.58932 13.6229 5.59948 13.5356 5.59948 13.522C5.59948 13.5104 5.59948 13.6113 5.61133 13.6113L5.63164 13.5104C5.63164 13.4852 5.62148 13.4347 5.62148 13.4211L5.61133 13.3338L5.59948 13.1591L5.62148 13.0582L5.67565 12.8564C5.6655 12.8564 5.67565 12.7691 5.6655 12.7691C5.65365 12.7691 5.64349 12.87 5.64349 12.87C5.64349 12.87 5.63164 12.7943 5.63164 12.7807C5.63164 12.7691 5.62148 12.7186 5.62148 12.6934C5.62148 12.6818 5.64349 12.6061 5.64349 12.5925C5.64349 12.5808 5.6655 12.5052 5.6655 12.4916C5.6655 12.5052 5.67565 12.5673 5.67565 12.5808L5.6875 12.6682L5.74167 12.4663L5.72982 12.379L5.71966 12.2917C5.71966 12.2665 5.70781 12.2277 5.70781 12.2024C5.70781 12.1791 5.72982 12.1287 5.72982 12.1035C5.72982 12.0782 5.71966 12.0394 5.71966 12.0142C5.71966 11.9773 5.74167 11.9521 5.74167 11.9152C5.74167 11.89 5.72982 11.8512 5.72982 11.826C5.72982 11.8007 5.75182 11.7503 5.75182 11.725C5.75182 11.7018 5.74167 11.6513 5.74167 11.6377C5.74167 11.6125 5.72982 11.5756 5.72982 11.5504C5.72982 11.5368 5.75182 11.4631 5.75182 11.4495C5.75182 11.4378 5.74167 11.3738 5.74167 11.3622C5.74167 11.3486 5.72982 11.2981 5.72982 11.2729C5.72982 11.2477 5.75182 11.1991 5.75182 11.1739C5.75182 11.1487 5.74167 11.1099 5.74167 11.0847C5.74167 11.0478 5.76367 11.009 5.76367 10.9857C5.76367 10.9605 5.75182 10.9352 5.75182 10.8964C5.75182 10.8595 5.77383 10.8207 5.77383 10.7955C5.77383 10.7586 5.76367 10.745 5.76367 10.7082C5.76367 10.683 5.78568 10.6325 5.78568 10.6073C5.78568 10.582 5.77383 10.5316 5.77383 10.5199C5.77383 10.4947 5.76367 10.4578 5.76367 10.4326C5.76367 10.419 5.78568 10.3433 5.78568 10.3317C5.78568 10.3065 5.77383 10.2677 5.77383 10.2444C5.77383 10.2191 5.79583 10.1687 5.79583 10.1435C5.79583 10.1299 5.81784 10.0426 5.81784 10.0426C5.81784 10.0426 5.81784 10.1435 5.828 10.1299C5.83984 10.1182 5.85 10.0542 5.85 10.029C5.85 10.0173 5.87201 9.94165 5.87201 9.93C5.87201 9.91642 5.86185 9.85432 5.86185 9.84074L5.85 9.75341C5.85 9.74177 5.83984 9.67773 5.83984 9.66608C5.83984 9.64086 5.86185 9.57682 5.86185 9.56517C5.86185 9.55159 5.88216 9.46426 5.88216 9.46426C5.88216 9.43903 5.87201 9.40216 5.87201 9.37694L5.86185 9.28767C5.86185 9.27603 5.85 9.22557 5.85 9.20034C5.85 9.1887 5.87201 9.11302 5.87201 9.09943C5.87201 9.08779 5.89401 9.0121 5.89401 9.00046C5.89401 8.97523 5.88216 8.93642 5.88216 8.91119C5.88216 8.87432 5.90417 8.8491 5.90417 8.81028C5.90417 8.787 5.89401 8.74819 5.89401 8.72296C5.89401 8.69773 5.91602 8.64727 5.91602 8.62205C5.91602 8.59682 5.90417 8.5483 5.90417 8.53472L5.89401 8.4474C5.89401 8.43381 5.88216 8.38336 5.88216 8.35813C5.88216 8.34648 5.90417 8.2708 5.90417 8.25916C5.91602 8.23393 5.92617 8.18348 5.92617 8.15825C5.92617 8.14466 5.91602 8.09421 5.91602 8.06898C5.91602 8.05734 5.93802 7.98165 5.93802 7.97001C5.93802 7.95643 5.96003 7.88074 5.96003 7.8691C5.96003 7.85552 5.94818 7.79342 5.94818 7.78177C5.94818 7.76819 5.93802 7.71773 5.93802 7.69251C5.93802 7.68086 5.96003 7.60518 5.96003 7.5916C5.96003 7.57995 5.98034 7.50427 5.98034 7.49263C5.98034 7.4674 5.97018 7.44217 5.97018 7.40336C5.98034 7.37813 5.99219 7.32962 5.99219 7.30439L6.0362 7.09093L6.46107 6.97643C6.46107 6.9512 6.46107 6.92597 6.44922 6.8891C6.44922 6.86388 6.43906 6.83865 6.43906 6.80178C6.43906 6.78819 6.46107 6.71251 6.46107 6.70087C6.46107 6.67564 6.44922 6.63683 6.44922 6.61354C6.44922 6.58831 6.44922 6.5495 6.43906 6.52427C6.43906 6.51263 6.42721 6.46217 6.42721 6.43695C6.42721 6.41172 6.44922 6.34962 6.44922 6.33604L6.46107 6.42336C6.46107 6.42336 6.48138 6.33604 6.48138 6.31081C6.48138 6.29917 6.50339 6.22348 6.50339 6.2099C6.50339 6.19826 6.50339 6.13422 6.49323 6.12257C6.49323 6.09734 6.49323 6.07212 6.48138 6.03525C6.48138 6.01002 6.48138 5.98479 6.47122 5.94598C6.47122 5.93434 6.46107 5.88388 6.46107 5.85865C6.46107 5.83343 6.48138 5.78297 6.48138 5.7461C6.48138 5.72087 6.50339 5.65683 6.50339 5.64519C6.51523 5.61996 6.52539 5.55786 6.52539 5.53263C6.52539 5.53263 6.52539 5.45695 6.51523 5.44337C6.51523 5.43172 6.51523 5.38127 6.50339 5.35604L6.49323 5.26871C6.50339 5.24349 6.50339 5.17945 6.51523 5.15616C6.51523 5.14258 6.53724 5.05525 6.53724 5.04167C6.53724 5.04167 6.53724 5.13093 6.5474 5.13093C6.55755 5.11735 6.5694 5.03002 6.5694 5.01644C6.5694 5.0048 6.5694 5.10571 6.57956 5.10571C6.57956 5.10571 6.60156 5.00479 6.60156 4.99121L6.64557 4.87866V4.79133C6.64557 4.7661 6.64557 4.74087 6.63542 4.70206C6.63542 4.69042 6.65573 4.61474 6.65573 4.58951C6.65573 4.56428 6.64557 4.52741 6.64557 4.50218C6.64557 4.47696 6.64557 4.43814 6.63542 4.41486C6.63542 4.40127 6.62357 4.35082 6.62357 4.32559C6.62357 4.30036 6.64557 4.24991 6.64557 4.21304C6.64557 4.18781 6.63542 4.15094 6.63542 4.12571C6.63542 4.0869 6.65573 4.05003 6.65573 4.01121C6.65573 3.97434 6.67773 3.93747 6.67773 3.89866C6.67773 3.88702 6.69974 3.81133 6.69974 3.78611C6.69974 3.74729 6.68958 3.73565 6.69974 3.69684C6.69974 3.71042 6.67773 3.79775 6.67773 3.81133C6.67773 3.82298 6.65573 3.91224 6.65573 3.92389C6.65573 3.92389 6.64557 3.84821 6.65573 3.83656C6.65573 3.83656 6.67773 3.73565 6.67773 3.72207C6.67773 3.71042 6.69974 3.63474 6.69974 3.60951C6.69974 3.58429 6.68958 3.55906 6.69974 3.52219C6.69974 3.5086 6.72175 3.43486 6.72175 3.40963C6.72175 3.39605 6.74375 3.30872 6.74375 3.29514C6.74375 3.29514 6.74375 3.37082 6.74375 3.38441L6.78776 3.17094C6.78776 3.14571 6.78776 3.12049 6.78776 3.08167C6.78776 3.07003 6.78776 2.99435 6.78776 2.99435L6.76576 3.1069V3.01957L6.74375 3.13213C6.74375 3.12049 6.74375 3.07003 6.74375 3.0448C6.74375 3.01957 6.74375 2.99435 6.74375 2.95748C6.74375 2.95748 6.76576 2.85657 6.76576 2.84298C6.76576 2.80611 6.75391 2.79253 6.76576 2.75566C6.76576 2.73043 6.78776 2.67997 6.78776 2.6431C6.78776 2.62952 6.78776 2.56742 6.78776 2.55383C6.78776 2.52861 6.78776 2.50338 6.78776 2.46651V2.45486L6.81992 2.07645C6.81992 2.07645 6.81992 2.07645 6.81992 2.09003C6.81992 2.11526 6.81992 2.14049 6.81992 2.16572C6.81992 2.19094 6.83008 2.22782 6.81992 2.23946C6.81992 2.25304 6.79792 2.34037 6.79792 2.35395C6.79792 2.37918 6.79792 2.40441 6.79792 2.44128C6.79792 2.46651 6.79792 2.51696 6.79792 2.52861C6.79792 2.52861 6.81992 2.42964 6.81992 2.41605C6.81992 2.40441 6.81992 2.50338 6.81992 2.50338C6.81992 2.50338 6.84193 2.40441 6.84193 2.39082L6.83008 2.22782C6.83008 2.20259 6.83008 2.17736 6.83008 2.14049C6.83008 2.1269 6.81992 2.09003 6.83008 2.06481C6.83008 2.03958 6.85208 1.97748 6.85208 1.95225C6.85208 1.92702 6.84193 1.88821 6.85208 1.87657C6.85208 1.83776 6.87409 1.7873 6.87409 1.76207C6.87409 1.75043 6.89609 1.6631 6.89609 1.64952C6.89609 1.62429 6.89609 1.58742 6.89609 1.57384C6.89609 1.54861 6.89609 1.5001 6.89609 1.5001C6.89609 1.5001 6.87409 1.59907 6.87409 1.61265V1.53697L6.89609 1.36037C6.89609 1.34873 6.9181 1.2614 6.9181 1.24782V1.3235V1.39919L6.96211 1.18572V1.03435C6.96211 1.00913 6.96211 0.972256 6.96211 0.958673C6.96211 0.958673 6.9401 1.05958 6.9401 1.07123V0.997483L6.98242 0.5201H6.81992V0.593841ZM6.66758 3.72207C6.66758 3.72207 6.66758 3.73565 6.66758 3.74729V3.71042C6.66758 3.72207 6.66758 3.72207 6.66758 3.72207ZM6.84193 1.82611V1.9018C6.84193 1.9018 6.81992 2.00077 6.81992 2.01435C6.81992 2.01435 6.81992 2.01435 6.81992 2.02599L6.84193 1.82611ZM4.66341 26.3629L4.71758 26.1999L4.72773 26.3377L4.66341 26.3629ZM4.80391 25.2451L4.79375 25.1442C4.79375 25.1442 4.81576 25.0569 4.81576 25.0433C4.81576 25.0821 4.82591 25.1054 4.82591 25.1442C4.82591 25.1694 4.80391 25.2451 4.80391 25.2451ZM5.63164 15.6838C5.63164 15.6703 5.65365 15.5965 5.65365 15.5829C5.65365 15.5965 5.6655 15.6703 5.6655 15.6703C5.6655 15.6838 5.64349 15.7712 5.64349 15.7712C5.64349 15.7712 5.63164 15.6955 5.63164 15.6838ZM5.92617 13.0835C5.91602 13.0835 5.92617 13.0078 5.91602 12.9942C5.91602 12.9942 5.93802 12.8816 5.93802 12.8952C5.93802 12.8952 5.94818 12.969 5.94818 12.9825L5.92617 13.0835ZM6.57956 5.64519C6.57956 5.64519 6.57956 5.55786 6.5694 5.55786C6.5694 5.55786 6.59141 5.45695 6.59141 5.44337C6.59141 5.46859 6.60156 5.49382 6.60156 5.53263C6.60156 5.54428 6.57956 5.64519 6.57956 5.64519ZM0.490885 17.7312C0.490885 17.7447 0.479037 17.8185 0.479037 17.8321C0.46888 17.7952 0.46888 17.77 0.457031 17.7312C0.457031 17.7195 0.435026 17.6555 0.435026 17.6438C0.435026 17.6302 0.446875 17.5429 0.446875 17.5429C0.446875 17.5429 0.46888 17.6186 0.46888 17.6302C0.479036 17.6555 0.490885 17.6943 0.490885 17.7312ZM0.533203 19.402C0.533203 19.4272 0.545052 19.4525 0.545052 19.4525L0.533203 19.5398C0.533203 19.5029 0.512891 19.4777 0.512891 19.4525L0.523047 19.3515C0.523047 19.3515 0.533203 19.3768 0.533203 19.402Z" fill="#EDD01F"/>
</g>
</svg>
