<svg width="1" height="2" viewBox="0 0 1 2" fill="none" xmlns="http://www.w3.org/2000/svg">
<mask id="mask0_3_2484" style="mask-type:luminance" maskUnits="userSpaceOnUse" x="0" y="0" width="1" height="2">
<path d="M0 0H0.433333V1.38752H0V0Z" fill="white"/>
</mask>
<g mask="url(#mask0_3_2484)">
<path d="M0.0863414 0.787881C0.101576 0.894612 0.140508 0.999404 0.21668 1.09837C0.301315 1.06538 0.36056 1.00523 0.384258 0.902375C0.36056 0.867444 0.336862 0.830573 0.313164 0.793702C0.424883 0.714138 0.389336 0.572475 0.419805 0.459921C0.407956 0.382298 0.394414 0.304674 0.384258 0.228992C0.387643 0.163011 0.391029 0.0970318 0.394414 0.0310516H0.120196C0.106654 0.0698634 0.0964973 0.112557 0.0914195 0.155249C0.0964973 0.343486 0.0626431 0.537545 0.0778778 0.723841C0.0694139 0.745187 0.0592581 0.768474 0.0474091 0.789821C0.0592581 0.789821 0.0727997 0.787881 0.0863414 0.787881Z" fill="#E1067E"/>
</g>
</svg>
