<svg width="7" height="12" viewBox="0 0 7 12" fill="none" xmlns="http://www.w3.org/2000/svg">
<mask id="mask0_3_2972" style="mask-type:luminance" maskUnits="userSpaceOnUse" x="0" y="0" width="7" height="12">
<path d="M0 0H6.06667V11.8201H0V0Z" fill="white"/>
</mask>
<g mask="url(#mask0_3_2972)">
<path d="M0.191277 3.67935C0.211589 3.8152 0.257292 3.92969 0.365626 3.99179C0.360547 3.99955 0.355469 4.00926 0.352084 4.01702C0.328386 4.02672 0.306381 4.0403 0.284376 4.05777C0.258985 4.10046 0.252214 4.15092 0.258985 4.20331C0.269142 4.22854 0.282683 4.24989 0.297917 4.27123C0.29961 4.41872 0.29961 4.56426 0.301303 4.71175C0.280991 4.72727 0.260678 4.74474 0.243751 4.76608C0.192969 4.86117 0.179427 4.96791 0.17435 5.07658C0.170964 5.21242 0.177735 5.34632 0.211589 5.48022C0.226824 5.52679 0.243751 5.57337 0.264063 5.61606C0.211589 5.80042 0.240365 5.98865 0.275912 6.17689C0.284376 6.50097 0.292839 6.82505 0.301303 7.14912C0.485808 6.96865 0.325001 6.72025 0.394402 6.51649C0.394402 6.51649 0.406251 6.51649 0.416407 6.51455C0.433334 6.55142 0.453647 6.58441 0.482423 6.61158C0.622918 6.56113 0.556902 6.42335 0.577214 6.32049C0.611068 6.34184 0.646615 6.35154 0.682162 6.34766C0.683855 6.40782 0.688933 6.46798 0.702475 6.52814C0.709246 6.54754 0.714324 6.56695 0.719402 6.58829C0.70586 6.6077 0.695704 6.63099 0.685548 6.65622C0.653386 6.77653 0.648308 6.89879 0.651693 7.02105C0.607683 6.96671 0.545053 6.95312 0.48073 6.94342C0.48073 7.09479 0.501042 7.25974 0.311459 7.28691C0.29961 7.31796 0.294532 7.349 0.296225 7.38005C0.341927 7.43827 0.387631 7.44992 0.436719 7.42275C0.367319 7.57994 0.387631 7.75071 0.384246 7.9176C0.385938 7.84968 0.372397 7.78564 0.29961 7.73906C0.333464 7.91954 0.204818 8.13106 0.377475 8.28631C0.413021 8.35229 0.448568 8.42021 0.485808 8.48813C0.517969 8.48037 0.550131 8.4726 0.583985 8.46484L0.568751 8.50171C0.668621 8.51336 0.572136 8.77922 0.753256 8.68607L0.754949 8.68995C0.758334 8.44738 0.761719 8.20286 0.765105 7.96029C0.795574 8.09031 0.749871 8.28825 0.959766 8.2669L1.03763 7.71189C1.03932 7.45962 1.04271 7.2054 1.04609 6.95118C1.06641 6.83087 1.04609 6.68144 1.16966 6.63875C1.16966 6.64263 1.16797 6.64651 1.16628 6.64845C1.1375 6.78041 1.14427 6.90849 1.19505 7.03269C1.20859 7.05404 1.22044 7.0715 1.23568 7.08703C1.17136 7.18211 1.17305 7.2772 1.24753 7.37035C1.17813 7.49261 1.22044 7.61681 1.23906 7.74294C1.25091 7.79922 1.26953 7.85162 1.30339 7.89625C1.3 7.90401 1.29662 7.91177 1.29492 7.92148C1.27969 7.99522 1.28646 8.06508 1.32201 8.13106C1.39987 8.19704 1.48789 8.1951 1.57591 8.19122C1.51497 8.23779 1.49297 8.31153 1.48789 8.39886C1.48789 8.40274 1.48958 8.40662 1.48958 8.41051C1.44388 8.43767 1.39648 8.46484 1.35078 8.49007C1.35078 8.49007 1.35078 8.49201 1.34909 8.49395C1.33386 8.4629 1.31185 8.43379 1.28138 8.40856C1.28138 8.54247 1.28307 8.67637 1.28307 8.81027C1.24414 8.82191 1.20521 8.8549 1.16628 8.86848C1.16628 8.7831 1.16628 8.69965 1.16797 8.61427C1.14427 8.60845 1.11888 8.60845 1.09518 8.61427C1.0918 8.69577 1.09011 8.77534 1.08503 8.8549C1.07487 8.8452 1.06302 8.83355 1.05117 8.81609C1.0207 8.67054 0.990235 8.525 0.959766 8.37946C0.834506 8.4532 0.871746 8.5968 0.853126 8.71324C0.817579 8.77728 0.817579 8.83355 0.84974 8.88401C0.832813 8.90535 0.817579 8.93058 0.802345 8.95775C0.760027 9.0703 0.753256 9.18674 0.771876 9.30512C0.80573 9.42349 0.842969 9.53411 0.981772 9.5147C1.01563 9.41573 1.04948 9.31288 1.10365 9.14987C1.1138 9.14987 1.12734 9.15181 1.12734 9.15181C1.12734 9.15181 1.13919 9.15181 1.14935 9.14987V9.5962C1.21367 9.48559 1.27969 9.37498 1.34401 9.2663C1.3457 9.30706 1.35078 9.34587 1.35755 9.38662C1.20182 9.45066 1.21875 9.69323 1.10195 9.79996C1.08672 9.83101 1.07656 9.86401 1.0681 9.89894C1.05287 9.82131 1.06133 9.7301 0.961459 9.71264C0.871746 9.79997 0.854818 9.9164 0.854818 10.0406C0.856511 10.0484 0.856511 10.0542 0.859897 10.06C0.802344 10.1008 0.810808 10.1745 0.856511 10.2657C0.861589 10.3394 0.86836 10.4113 0.875131 10.485C0.839584 10.5257 0.812501 10.5723 0.792188 10.6286C0.751563 10.7858 0.748178 10.941 0.810808 11.0905C0.836199 11.1351 0.875131 11.1584 0.920834 11.1661C0.932683 11.1623 0.942839 11.1584 0.954688 11.1545L0.941147 11.6823C0.963152 11.7444 0.981772 11.8065 1.05794 11.7891C1.22383 11.4999 1.1375 11.1758 1.14766 10.8653C1.24414 11.0187 1.30846 11.2147 1.52344 11.2049C1.56914 11.1933 1.60807 11.1661 1.63854 11.1273C1.64024 11.0905 1.64531 11.0555 1.65039 11.0187C1.73841 10.8459 1.84844 10.6791 1.75703 10.4598C1.74349 10.4462 1.72995 10.4345 1.7181 10.4229C1.72995 10.3627 1.7418 10.3045 1.75365 10.2463C1.75026 10.2094 1.74518 10.1726 1.7418 10.1337C1.73164 9.99014 1.72149 9.8446 1.70964 9.69905C1.70964 9.47395 1.71133 9.24884 1.71302 9.02373C1.71641 8.66278 1.7181 8.30377 1.72149 7.94282L1.72487 7.82445C1.70964 7.57023 1.81458 7.31601 1.72149 7.06374C1.72487 6.95118 1.72995 6.83863 1.73333 6.72608C1.81289 6.6795 1.82136 6.59218 1.83151 6.50679C1.83151 6.32243 1.83151 6.13808 1.83151 5.95372C1.80951 5.79654 1.85352 5.61994 1.72826 5.4938C1.73503 5.40842 1.73841 5.32497 1.64531 5.2881C1.63346 5.25705 1.63177 5.226 1.63854 5.19495C1.84505 5.18719 1.80443 4.98925 1.84336 4.85147C1.82982 4.78161 1.81458 4.71175 1.80104 4.64189C1.8112 4.41872 1.82305 4.19749 1.8332 3.97432C1.94831 4.0927 2.00925 3.9685 2.08542 3.90252C2.08542 3.91028 2.08542 3.91805 2.08542 3.92387C2.09388 4.06359 2.09388 4.20525 2.19206 4.31005C2.20221 4.34109 2.21068 4.37214 2.21406 4.40319C2.35625 4.43618 2.36979 4.30811 2.40365 4.20331C2.41888 4.16838 2.42396 4.13345 2.42396 4.09852C2.45951 4.00926 2.40873 3.8967 2.40534 3.79579C2.45443 3.83266 2.50859 3.85013 2.56615 3.85207C2.54076 3.99567 2.58477 4.13733 2.60846 4.279C2.62708 4.32751 2.65586 4.36632 2.69141 4.39931C2.72018 4.38185 2.7405 4.36244 2.75573 4.34304C2.75742 4.46723 2.75234 4.59531 2.77096 4.71563C2.75573 4.68846 2.73203 4.66323 2.69141 4.64189C2.65078 4.7001 2.63555 4.75832 2.63385 4.81654C2.58138 4.70981 2.53737 4.58367 2.40195 4.63024C2.36471 4.53904 2.2987 4.51381 2.21576 4.53127C2.24961 4.78743 2.11589 5.06687 2.30039 5.30169C2.35794 5.53456 2.22253 5.73638 2.21914 5.9576L2.19544 5.94596C2.19375 6.05657 2.19206 6.16719 2.18867 6.2778C2.19883 6.34766 2.20898 6.41752 2.21914 6.48933C2.28008 6.41752 2.33932 6.34572 2.40026 6.27586C2.40534 6.206 2.40873 6.13614 2.4138 6.06628C2.44089 6.02747 2.46797 5.98865 2.49336 5.94984C2.49167 5.83147 2.51029 5.70727 2.42057 5.61412C2.41888 5.46858 2.41719 5.32109 2.4138 5.17555L2.37656 5.20078C2.37656 5.18137 2.37826 5.16196 2.37995 5.14256C2.3918 5.1542 2.40195 5.1639 2.4155 5.17361C2.49844 5.18137 2.56615 5.15614 2.60508 5.06299C2.62878 5.02806 2.64232 4.99119 2.6474 4.95044C2.65586 4.98925 2.66602 5.02612 2.67617 5.06493C2.68464 5.17361 2.6931 5.28034 2.70156 5.38707C2.5543 5.57143 2.67956 5.7616 2.68971 5.94984C2.71511 5.94984 2.74219 5.9479 2.76927 5.94596C2.77096 5.76161 2.77266 5.57531 2.77435 5.39095C2.78281 5.28228 2.79128 5.17361 2.79974 5.06493C2.76081 4.98925 2.79297 4.89028 2.79128 4.80296C2.80482 4.84953 2.82513 4.89804 2.85052 4.94268C2.8776 4.9582 2.89961 4.96791 2.91992 4.96985C2.94362 5.10957 2.96224 5.25317 3.03503 5.37543C3.05365 5.38707 3.07057 5.39677 3.08412 5.4026C3.08412 5.4026 3.08242 5.4026 3.08242 5.40454C3.01641 5.45887 2.99271 5.5365 2.99102 5.62382C2.99609 5.70339 3.0181 5.77131 3.07565 5.814C3.06888 5.81594 3.06211 5.81788 3.05534 5.81982C2.94701 5.94208 2.85052 6.0721 2.85729 6.26034C2.87591 6.29333 2.89792 6.30303 2.92331 6.29915C2.7862 6.51649 2.83021 6.71831 2.96393 6.91043C2.88607 6.98029 2.84206 7.07344 2.81159 7.18017C2.78958 7.29273 2.78451 7.4014 2.86068 7.49261C2.87083 7.5256 2.88268 7.55665 2.89284 7.58964C2.89453 7.74294 2.89622 7.89431 2.89792 8.04762C2.89792 8.14076 2.89792 8.23779 2.89961 8.33288C2.89115 8.33482 2.88268 8.33676 2.87591 8.34258C2.81836 8.42021 2.8319 8.49977 2.86745 8.58322C2.87083 8.69577 2.8776 8.80833 2.88268 8.91894C2.88607 9.14987 2.88945 9.38274 2.89284 9.61367C2.86745 9.64084 2.84544 9.67383 2.82682 9.71264C2.79635 9.83296 2.79805 9.94163 2.89115 10.0251C2.69141 10.0697 2.72188 10.2735 2.72865 10.4598C2.72018 10.6131 2.69987 10.7683 2.68971 10.9197C2.68971 10.9139 2.68971 10.908 2.68802 10.9003C2.62031 10.9003 2.5526 10.9003 2.4849 10.9022C2.4612 10.8304 2.43581 10.7586 2.41211 10.6868C2.32917 10.5743 2.36641 10.4559 2.38333 10.3356C2.39011 10.3356 2.39518 10.3356 2.40195 10.3356C2.46797 10.3181 2.5306 10.2948 2.578 10.2327C2.4849 10.0639 2.5069 9.86983 2.48828 9.68353C2.48828 9.61173 2.49167 9.53993 2.49167 9.46618C2.49167 9.32646 2.48997 9.18868 2.48997 9.04896C2.28685 9.14987 2.253 9.27989 2.29193 9.42349C2.25638 9.37304 2.19714 9.32064 2.1362 9.27018C2.13451 9.40797 2.13112 9.54381 2.12774 9.67965C2.26654 9.62531 2.3207 9.57098 2.3224 9.5147C2.34271 9.55933 2.36641 9.60785 2.39349 9.65636C2.38672 9.65636 2.37826 9.6583 2.37149 9.66218C2.24115 9.75533 2.12774 9.86594 2.07865 10.0425C2.08034 10.124 2.10742 10.1881 2.15143 10.2405C2.04987 10.2735 2.02787 10.3841 2.00247 10.4928C1.98893 10.6771 1.97878 10.8595 2.10912 11.0012C2.10404 11.0031 2.09896 11.0051 2.09388 11.007C2.04987 11.0788 2.06511 11.1526 2.0888 11.2263C2.09388 11.2573 2.09896 11.2865 2.10573 11.3175C2.09219 11.335 2.08034 11.3524 2.07018 11.3718C2.03802 11.5251 2.09219 11.6338 2.20221 11.7153C2.27669 11.7444 2.3444 11.7347 2.40534 11.6746C2.49505 11.4902 2.59323 11.6377 2.68802 11.6687C2.68464 11.529 2.68294 11.3912 2.67956 11.2535C2.62031 11.1855 2.5543 11.2321 2.48828 11.2341C2.48828 11.2224 2.48828 11.2088 2.48828 11.1972C2.58646 11.1797 2.63555 11.0924 2.68802 11.0109C2.68633 11.0749 2.68802 11.137 2.69479 11.2011C2.71341 11.3777 2.73711 11.5834 2.97747 11.4533C3.01471 11.3796 3.05534 11.3039 3.09258 11.2302C3.05365 11.1254 2.95039 11.0478 2.98594 10.908C3.01641 10.8712 3.04857 10.8343 3.07904 10.7974C3.14167 10.8324 3.2043 10.8673 3.26862 10.9003C3.26862 10.8653 3.27201 10.8304 3.28047 10.7974C3.28047 10.6635 3.28047 10.5296 3.28047 10.3918C3.16029 10.3647 3.16706 10.5413 3.07734 10.5646C3.06042 10.3705 3.07227 10.1861 3.17044 10.0212C3.20091 9.85236 3.19414 9.69711 3.08242 9.56709C3.11289 9.53216 3.14167 9.49723 3.17214 9.46036C3.23477 9.57098 3.29909 9.67965 3.36341 9.79026C3.39557 9.79414 3.42774 9.79996 3.4599 9.80385C3.42604 9.65248 3.39219 9.50111 3.35833 9.34975C3.2974 9.38468 3.23646 9.41961 3.17552 9.45648C3.04349 9.27989 3.21953 9.09553 3.16706 8.917C3.17214 8.7831 3.02656 8.81997 2.99948 8.721C3.06888 8.61427 3.17044 8.51724 3.09596 8.36587C3.12813 8.32706 3.16029 8.28825 3.19245 8.24944C3.18229 8.10777 3.17214 7.96611 3.16198 7.82445C3.17214 7.78952 3.17721 7.75653 3.1806 7.7216C3.35495 7.45574 3.13151 7.19958 3.16367 6.93566C3.17721 6.90849 3.1806 6.87744 3.17552 6.84445C3.34987 6.64457 3.23307 6.40006 3.25 6.17689C3.25846 6.09927 3.26862 6.02358 3.27708 5.9479C3.24154 5.91103 3.20768 5.8761 3.17383 5.83923C3.33971 5.64905 3.21784 5.39095 3.29063 5.17749C3.3888 5.09016 3.26862 5.03389 3.26693 4.96014C3.29401 4.94074 3.31771 4.91551 3.33633 4.8864C3.21276 4.66323 3.26862 4.42066 3.28216 4.18197C3.29909 4.18197 3.31432 4.18197 3.33125 4.18391C3.33802 4.30811 3.35495 4.42648 3.4362 4.52157C3.43958 4.55844 3.44974 4.59143 3.46667 4.62248C3.46497 4.90969 3.46328 5.19883 3.46159 5.48798L3.50391 5.50545H3.54961C3.55469 5.32303 3.55807 5.14062 3.56315 4.9582C3.55469 4.84565 3.54453 4.73503 3.53607 4.62054C3.54284 4.45559 3.54961 4.2887 3.55638 4.12181C3.56146 4.18973 3.58008 4.25571 3.61055 4.32169C3.61563 4.32751 3.61901 4.33333 3.62409 4.33915C3.54115 4.43813 3.5513 4.56426 3.57331 4.69428C3.58854 4.72921 3.60208 4.76802 3.61732 4.80296C3.60039 4.85147 3.60547 4.90387 3.63932 4.9582C3.65794 5.04553 3.63255 5.15032 3.67487 5.22794C3.67487 5.23959 3.67149 5.25123 3.67318 5.26482C3.68164 5.37349 3.73073 5.45499 3.80859 5.51515C3.81537 5.51709 3.82214 5.51903 3.82891 5.52097C3.81367 5.53262 3.79844 5.54426 3.7832 5.5559C3.74089 5.6083 3.7138 5.6704 3.69857 5.73832C3.60716 5.76355 3.58854 5.82176 3.59024 5.89162C3.56146 5.86252 3.52083 5.84505 3.4582 5.84893C3.42943 5.91879 3.40065 5.99059 3.37018 6.06046C3.4582 6.22929 3.46328 6.41364 3.44466 6.60188C3.3194 6.72414 3.36003 6.88715 3.36341 7.04045C3.42096 7.00552 3.47852 6.97059 3.53438 6.93566C3.57331 6.89297 3.59531 6.84833 3.60378 6.80564C3.61055 6.85027 3.6224 6.89297 3.64609 6.93566C3.6444 6.97447 3.6444 7.01328 3.64102 7.05015C3.65456 7.19958 3.63086 7.37811 3.8306 7.37617C3.82383 7.38394 3.81706 7.3917 3.81198 7.39946C3.77982 7.46932 3.79167 7.5353 3.82044 7.60128C3.83906 7.70607 3.85938 7.81281 3.878 7.9176C3.79675 8.08255 3.94909 8.21257 3.93047 8.36781C3.96094 8.36587 3.9931 8.36393 4.02357 8.36199C4.02865 8.21645 4.09636 8.11748 4.20469 8.0515C4.20469 8.09031 4.20638 8.12912 4.20807 8.16987C4.19284 8.28437 4.19623 8.39886 4.21654 8.51336C4.22162 8.69383 4.225 8.8743 4.23008 9.05672C4.20469 9.05866 4.1793 9.06254 4.1556 9.0703C4.14544 9.07419 4.13529 9.08001 4.12513 9.08389C4.09297 8.88789 4.21823 8.66084 4.03542 8.49783C4.03711 8.70936 4.03711 8.92282 4.0388 9.13628C4.02188 9.14793 4.00326 9.15957 3.98802 9.17316C3.93893 9.22167 3.90508 9.27795 3.91693 9.35751C3.92878 9.36915 3.93893 9.37692 3.95078 9.3808C3.95078 9.3808 3.94909 9.3808 3.9474 9.3808C3.78828 9.55157 3.81875 9.7301 3.93555 9.91058C3.94063 9.91058 3.9474 9.91058 3.95248 9.91058C3.95078 10.0231 3.9457 10.1337 3.94401 10.2463C3.94401 10.2521 3.94401 10.256 3.9457 10.2618C3.92539 10.2948 3.90169 10.3259 3.8763 10.3589C3.89154 10.2871 3.89323 10.2153 3.85599 10.1434C3.98125 10.0658 3.83568 9.99208 3.8543 9.91446C3.84753 9.84266 3.84076 9.77086 3.83568 9.69905C3.79675 9.57292 3.71211 9.45842 3.81875 9.31288C3.93216 9.15763 3.85599 9.02761 3.74258 8.91894C4.01511 8.89371 3.88138 8.71906 3.83229 8.57545C3.7138 8.65696 3.74089 8.79086 3.7375 8.91506C3.61055 8.92282 3.55807 9.01597 3.53099 9.14211C3.5293 9.16927 3.52761 9.19644 3.52591 9.22167C3.5293 9.40797 3.50899 9.5962 3.56823 9.76892C3.56823 9.81355 3.56823 9.85818 3.56823 9.90282C3.58854 9.90282 3.60547 9.9067 3.62578 9.91252C3.61901 9.99014 3.63763 10.0581 3.69011 10.1124C3.52253 10.2696 3.5987 10.4093 3.72396 10.5432C3.64102 10.615 3.60378 10.7101 3.61563 10.8304C3.61563 10.8304 3.61563 10.8304 3.61563 10.8324C3.56654 10.9333 3.57839 11.0264 3.64271 11.1137C3.67656 11.1894 3.71042 11.2651 3.74427 11.3427C3.80859 11.2787 3.87292 11.2147 3.93724 11.1526C3.95925 11.1215 3.97956 11.0924 4.00156 11.0633C4.0168 11.0672 4.03542 11.071 4.05404 11.073C4.08451 11.0672 4.11159 11.0516 4.13698 11.0322C4.18268 11.1137 4.18945 11.2341 4.29609 11.2515C4.30287 11.2515 4.32318 11.1584 4.33672 11.1099C4.33164 10.9371 4.32487 10.7644 4.32149 10.5917C4.33841 10.518 4.35365 10.4423 4.36719 10.3666C4.37227 10.2812 4.36042 10.1939 4.38242 10.0872C4.3655 10.2191 4.36719 10.3259 4.4349 10.4171C4.55 10.516 4.59063 10.6888 4.70742 10.7858L4.80221 10.6791C4.76159 10.2754 4.90886 9.85042 4.70404 9.46618C4.65495 9.50694 4.63125 9.56709 4.60586 9.62531C4.60586 9.46424 4.60586 9.30317 4.60586 9.14017C4.57539 9.13628 4.54492 9.14017 4.51615 9.15569C4.49922 9.1751 4.48568 9.19838 4.47721 9.22167C4.46029 9.18092 4.43828 9.14211 4.40951 9.10912C4.38242 9.08971 4.35365 9.07613 4.32318 9.06642C4.32487 8.96939 4.32826 8.87042 4.32995 8.77339C4.37565 8.81609 4.43151 8.83355 4.50768 8.8025L4.51953 8.67054C4.55 8.64532 4.58047 8.62009 4.61094 8.59292C4.6431 8.5968 4.67695 8.59874 4.70742 8.60456C4.84453 8.48231 4.86654 8.32512 4.81745 8.14659C4.77513 8.03791 4.73112 7.93118 4.6905 7.82445C4.66511 7.82445 4.64141 7.81863 4.61602 7.81086C4.61263 7.77982 4.61432 7.74682 4.61771 7.71578C4.72774 7.59158 4.70065 7.42857 4.71419 7.2772C4.91224 7.25974 4.89701 7.08703 4.90716 6.93178C4.87162 6.89491 4.83607 6.85998 4.80052 6.82117C4.79883 6.90849 4.79544 6.99582 4.71419 7.04433C4.70573 6.8658 4.69557 6.68726 4.68542 6.50873C4.68711 6.32049 4.6888 6.13032 4.6905 5.94208L4.72096 5.95566C4.7125 5.76937 4.70404 5.58113 4.69557 5.39483C4.70573 5.43559 4.71589 5.47634 4.73112 5.51709C4.82083 5.2978 4.99688 5.07852 4.73112 4.85923C4.71927 4.8961 4.70912 4.93297 4.70065 4.96985C4.70912 4.63995 4.71589 4.31005 4.72604 3.98015C4.7599 3.86759 4.76498 3.76862 4.64479 3.72011C4.62448 3.72593 4.60417 3.73369 4.58555 3.74339C4.56693 3.71235 4.55 3.6813 4.53138 3.65025C4.64987 3.64054 4.70065 3.5668 4.70065 3.44454C4.75143 3.4232 4.7836 3.36886 4.81068 3.31258C4.80729 3.27571 4.8056 3.23884 4.80221 3.20197C4.95456 2.97492 4.72774 2.75758 4.79037 2.53247C4.79714 2.46455 4.8056 2.39469 4.81237 2.32677C4.83776 2.26855 4.8293 2.22003 4.78698 2.17734C4.79206 2.15794 4.79375 2.13853 4.78698 2.11718C4.84284 2.09972 4.86654 2.04732 4.88008 1.98134C4.91901 1.94253 4.95456 1.90178 4.9918 1.86297C5.05612 1.92895 5.08151 2.00657 5.09167 2.08807C5.07982 2.13659 5.0832 2.1851 5.09505 2.23362C5.09167 2.33841 5.0832 2.44708 5.10859 2.54605C5.10521 2.57516 5.10352 2.60815 5.10521 2.6392C5.11029 2.67219 5.12214 2.69936 5.13568 2.72653C5.13399 2.72653 5.13229 2.72653 5.12891 2.72653C4.87331 3.17674 4.88516 3.53769 5.16953 3.86759C5.20508 3.86565 5.24063 3.86177 5.27448 3.85983C5.27617 3.8249 5.27787 3.78997 5.28125 3.75504C5.22878 3.57844 5.5707 3.31064 5.18477 3.21361C5.21862 3.06807 5.25248 2.92641 5.28633 2.78086C5.4556 2.75564 5.21524 2.56934 5.36081 2.53247C5.38451 2.43932 5.36758 2.35976 5.28971 2.30736C5.32526 2.20645 5.39974 2.11524 5.3625 1.99105C5.39297 1.95223 5.42513 1.91342 5.45729 1.87461C5.45729 1.80863 5.45899 1.74071 5.46068 1.67279C5.44037 1.63204 5.41328 1.60099 5.37435 1.58158C5.37266 1.58158 5.37096 1.58158 5.36927 1.58158C5.3625 1.49037 5.38451 1.40887 5.41667 1.3293C5.43698 1.37394 5.46068 1.41663 5.48945 1.45738C5.49623 1.48649 5.503 1.5156 5.50469 1.54665C5.66211 1.45156 5.51484 1.11778 5.77044 1.1042C5.8043 1.00135 5.83477 0.902376 5.86862 0.801465C5.60794 0.762654 5.72305 0.516199 5.68073 0.357071C5.64011 0.378417 5.60117 0.392002 5.56224 0.395883C5.57748 0.300794 5.58932 0.203765 5.55039 0.108676C5.55039 0.0815078 5.55208 0.0543393 5.55208 0.0252304H5.09336C5.09675 0.095092 5.09844 0.164953 5.10182 0.234814C5.10352 0.240636 5.10521 0.246458 5.10521 0.250339C5.10352 0.260042 5.10013 0.271685 5.09675 0.281388C5.06289 0.483209 5.04258 0.68503 5.14414 0.873267C5.18307 0.921782 5.22878 0.931484 5.27956 0.902376C5.31511 0.865505 5.35234 0.826693 5.38789 0.787881C5.34896 0.921782 5.3405 1.04986 5.36419 1.17212C5.33711 1.15659 5.30833 1.14301 5.27956 1.12942C5.17969 1.25362 5.1763 1.40693 5.16953 1.55829C5.13737 1.56023 5.10521 1.56606 5.07305 1.57576C5.03412 1.58934 5.00026 1.61457 4.97149 1.64756C4.9681 1.65532 4.96471 1.66503 4.96302 1.67473C4.93932 1.67279 4.91563 1.67085 4.89193 1.66891C4.79883 1.66309 4.72096 1.69025 4.66341 1.77952C4.60925 1.75429 4.58047 1.70384 4.55508 1.64756C4.61094 1.62816 4.63971 1.57382 4.62279 1.48067C4.62109 1.47291 4.6194 1.46709 4.61771 1.46126C4.64479 1.42633 4.67357 1.39334 4.70065 1.35841C4.70234 1.36035 4.70234 1.36229 4.70404 1.36229C4.77344 1.40111 4.83438 1.3914 4.88854 1.32736C4.90716 1.21093 4.85638 1.06733 4.98333 0.989702C4.99011 0.956712 4.9918 0.921782 4.99011 0.886851C4.9224 0.782059 4.85469 0.675327 4.78698 0.570536C4.72096 0.397823 4.88685 0.182418 4.73789 0.0252304H3.87969C3.88307 0.0485179 3.88815 0.069864 3.89492 0.0912106C3.90169 0.102854 3.91016 0.110617 3.91693 0.116438C3.88646 0.1242 3.85599 0.112557 3.82552 0.100913C3.82552 0.0756859 3.82891 0.0504584 3.8306 0.0252304H2.44596C2.43581 0.0485179 2.42396 0.0737454 2.4138 0.0970325C2.38672 0.0737454 2.35794 0.0485179 2.32917 0.0252304H2.01432C2.03464 0.211527 2.04987 0.397823 1.91445 0.562773C1.91107 0.456041 1.90599 0.349309 1.90261 0.242576C1.9043 0.170775 1.90768 0.0970325 1.90938 0.0252304H0.993621C1.00716 0.0504584 1.0224 0.0776264 1.04102 0.102854C1.0224 0.095092 1.00208 0.0873292 0.978386 0.0853887C0.936069 0.110617 0.903907 0.147487 0.883595 0.197943C0.914064 0.572476 0.712631 0.991643 1.02747 1.3099C0.956381 1.36812 0.917449 1.44186 0.934376 1.54665L0.959766 1.55247C0.954688 1.55635 0.947918 1.55829 0.942839 1.56412C0.881902 1.6301 0.848048 1.71354 0.820964 1.80281C0.771876 1.7116 0.722787 1.62233 0.673699 1.53113C0.639844 1.53889 0.605991 1.54471 0.572136 1.55053C0.479037 1.55247 0.384246 1.55441 0.291147 1.55635C0.289454 1.73683 0.287761 1.91924 0.286068 2.10166C0.292839 2.10942 0.29961 2.1133 0.304688 2.11912C0.29961 2.12883 0.296225 2.14047 0.292839 2.15211C0.240366 2.3617 0.2556 2.57904 0.2556 2.79251C0.274219 2.91476 0.272527 3.04866 0.343621 3.14569C0.341927 3.14763 0.340235 3.14957 0.33685 3.15152C0.284376 3.20585 0.242058 3.27183 0.214975 3.34751C0.182813 3.45425 0.176042 3.56292 0.186199 3.67547L0.191277 3.67935Z" fill="#E1067E"/>
</g>
</svg>
