<svg width="1" height="2" viewBox="0 0 1 2" fill="none" xmlns="http://www.w3.org/2000/svg">
<mask id="mask0_3_535" style="mask-type:luminance" maskUnits="userSpaceOnUse" x="0" y="0" width="1" height="2">
<path d="M0 0H0.433333V1.38752H0V0Z" fill="white"/>
</mask>
<g mask="url(#mask0_3_535)">
<path d="M0.218363 1.01299C0.226827 0.945066 0.236983 0.877145 0.247139 0.809225C0.277608 0.706373 0.299614 0.605463 0.233598 0.512315C0.243754 0.506493 0.25391 0.49679 0.262374 0.485147C0.340238 0.366771 0.341931 0.23093 0.331775 0.0912077C0.328389 0.0601583 0.323312 0.0291089 0.314848 0H0.113416C0.142191 0.102851 0.120186 0.201821 0.0321655 0.293029C0.0677123 0.360949 0.101567 0.43081 0.137113 0.500672C-0.0135375 0.667562 0.142192 0.846096 0.121879 1.02075C0.154041 1.01687 0.186202 1.01493 0.218363 1.01299Z" fill="#EFEEE8"/>
</g>
</svg>
