<svg width="2" height="6" viewBox="0 0 2 6" fill="none" xmlns="http://www.w3.org/2000/svg">
<mask id="mask0_3_2264" style="mask-type:luminance" maskUnits="userSpaceOnUse" x="0" y="0" width="2" height="6">
<path d="M0 0H1.3V5.36184H0V0Z" fill="white"/>
</mask>
<g mask="url(#mask0_3_2264)">
<path d="M0.108338 2.66054L0.101567 2.65278C0.076176 2.68189 0.0694051 2.71294 0.0795615 2.74011C0.0897176 2.76727 0.0998743 2.77892 0.11003 2.77892C0.115109 2.84684 0.118494 2.9167 0.123572 2.98462C0.0998743 3.14763 0.14727 3.29317 0.2099 3.4329L0.311463 3.43484C0.335161 3.51052 0.357166 3.58814 0.382556 3.66188L0.399483 3.65412C0.399483 3.87341 0.399483 4.09269 0.399483 4.31198C0.377478 4.31392 0.357166 4.3178 0.33516 4.31974C0.331775 4.31198 0.326697 4.30422 0.321619 4.29646C0.279301 4.27123 0.245447 4.28093 0.220056 4.32945C0.2099 4.54485 0.199744 4.76026 0.189588 4.97566C0.213286 5.06493 0.198051 5.17748 0.294535 5.22988C0.358858 5.17748 0.423181 5.12315 0.487504 5.07269C0.55352 5.07463 0.619536 5.07463 0.685551 5.07851C0.753259 4.73891 0.622921 4.77966 0.479041 4.84176C0.468884 4.81265 0.458728 4.78354 0.448572 4.75443V4.75249C0.499353 4.62053 0.51628 4.47887 0.507817 4.32945C0.531514 4.3081 0.556905 4.29452 0.585681 4.29257C0.714328 4.05388 0.641541 3.85012 0.502739 3.65994C0.51628 3.65218 0.529822 3.64054 0.541671 3.62307C0.631384 3.44066 0.61615 3.266 0.506124 3.09911C0.499353 3.07389 0.495968 3.04672 0.49089 3.01955C0.499353 3.01567 0.50951 3.01373 0.517973 3.00791C0.548442 2.96909 0.570447 2.9264 0.585681 2.87789C0.589067 2.8546 0.592452 2.83131 0.59753 2.80997C0.612765 2.87012 0.641541 2.92834 0.690629 2.98268C0.694014 2.83713 0.680473 2.67801 0.870056 2.67024C0.875135 2.80803 0.880212 2.94775 0.885291 3.08553C0.993624 3.07195 0.966541 2.95551 1.00209 2.88565C1.08503 2.67995 1.13073 2.47619 1.12227 2.27242C1.25261 2.08419 1.20183 1.86878 1.16967 1.65532C1.08503 1.76011 1.06641 1.8746 1.0681 1.99104C1.04441 1.91924 1.01224 1.84938 0.969926 1.77757C0.790499 1.76981 0.851437 1.9367 0.827739 2.04343C0.812504 2.02985 0.795578 2.01627 0.775265 2.00656C0.714328 2.08031 0.65339 2.15211 0.590759 2.22585C0.602609 2.28989 0.599223 2.35781 0.595838 2.42573C0.582296 2.36945 0.563676 2.31512 0.533207 2.26078C0.511202 2.25496 0.490889 2.25302 0.470577 2.25108C0.477348 2.23943 0.482426 2.22779 0.487504 2.21615C0.506124 2.19868 0.524744 2.18122 0.541671 2.16569C0.617843 2.01239 0.617843 1.85132 0.599223 1.68831C0.644926 1.72518 0.702478 1.73682 0.782035 1.69801C0.817582 1.65338 0.834509 1.60292 0.837895 1.54276C0.814197 1.32348 0.844666 1.08673 0.695707 0.90237C0.660161 0.719955 0.763416 0.502609 0.594145 0.353184C0.594145 0.351243 0.595838 0.351243 0.595838 0.349303L0.592452 0.353184C0.561983 0.244511 0.531514 0.137779 0.499353 0.0291061H0.262374C0.264067 0.2057 0.184509 0.391996 0.296228 0.562768C0.296228 0.751004 0.296228 0.937301 0.296228 1.12554C0.311462 1.23227 0.325004 1.339 0.340239 1.44573C0.326697 1.58934 0.311463 1.73294 0.297921 1.87654C0.225134 1.94252 0.196359 2.05508 0.116801 2.11524C-0.0626257 2.29377 0.0490928 2.47619 0.11003 2.6586L0.108338 2.66054Z" fill="#E1067E"/>
</g>
</svg>
