<svg width="1" height="2" viewBox="0 0 1 2" fill="none" xmlns="http://www.w3.org/2000/svg">
<mask id="mask0_3_3024" style="mask-type:luminance" maskUnits="userSpaceOnUse" x="0" y="0" width="1" height="2">
<path d="M0 0H0.866667V1.38752H0V0Z" fill="white"/>
</mask>
<g mask="url(#mask0_3_3024)">
<path d="M0.40963 0.343486C0.497652 0.378417 0.501037 0.467684 0.506115 0.55501C0.506115 0.739366 0.504422 0.925662 0.504422 1.11196C0.682157 1.1857 0.607678 0.842217 0.773563 0.898494C0.773563 0.783999 0.775255 0.669505 0.775255 0.55501C0.782027 0.452159 0.788797 0.347367 0.795568 0.244516C0.792182 0.172715 0.788797 0.102853 0.785412 0.0310516H0.416401C0.429943 0.0407544 0.445177 0.0485173 0.460412 0.0582201C0.391011 0.137784 0.340229 0.22317 0.40963 0.345427V0.343486Z" fill="#E1067E"/>
</g>
</svg>
