<svg width="2" height="6" viewBox="0 0 2 6" fill="none" xmlns="http://www.w3.org/2000/svg">
<mask id="mask0_3_2279" style="mask-type:luminance" maskUnits="userSpaceOnUse" x="0" y="0" width="2" height="6">
<path d="M0 0H1.73333V5.85863H0V0Z" fill="white"/>
</mask>
<g mask="url(#mask0_3_2279)">
<path d="M0.30467 5.14449C0.301285 5.31138 0.301285 5.47633 0.299592 5.64128C0.299592 5.67815 0.299592 5.71502 0.299592 5.74996C0.387613 5.781 0.433316 5.73443 0.455321 5.64128C0.418082 5.45693 0.612743 5.28033 0.465478 5.09404C0.455321 5.09598 0.443473 5.09598 0.433316 5.09404C0.438394 5.08822 0.445165 5.08433 0.450243 5.07851C0.514566 4.9679 0.546728 4.84564 0.572118 4.7195C0.570426 4.60695 0.589045 4.49246 0.597509 4.37796C0.626285 4.46917 0.685529 4.55649 0.790478 4.63606C0.815868 4.58948 0.831103 4.53903 0.834488 4.48275C0.822639 4.27123 0.832795 4.05388 0.749853 3.85982C0.839566 3.95103 0.930972 3.95491 1.02576 3.84236C1.09009 3.71816 1.08839 3.5862 1.04777 3.4523C1.02915 3.40961 1.00714 3.36886 0.981754 3.33393C1.00714 3.15151 0.996988 2.98462 0.81079 2.89147C0.861571 2.87012 0.907275 2.83519 0.9479 2.78862C0.978368 2.75369 1.00714 2.71682 1.03423 2.67801C1.17642 2.47813 1.23227 2.27242 1.06639 2.0512C1.0647 2.0512 1.063 2.04926 1.06131 2.04732C1.17642 1.92312 1.22043 1.78922 1.2035 1.64756C1.22043 1.76787 1.24582 1.88625 1.27629 2.00656C1.29998 2.0085 1.32537 2.01044 1.34907 2.01239C1.40324 1.97551 1.43371 1.91924 1.45402 1.85714C1.45402 1.86684 1.45402 1.87654 1.45233 1.88625C1.48957 1.92506 1.52681 1.96387 1.56574 2.00462C1.6453 1.89595 1.6436 1.78534 1.57928 1.67084C1.53019 1.57187 1.63345 1.40498 1.47095 1.35841V1.3914C1.44725 1.28855 1.39477 1.19928 1.27121 1.13524C1.24582 1.13524 1.22043 1.13524 1.19673 1.13912C1.17134 1.31183 1.1798 1.48066 1.2035 1.64561C1.19165 1.56799 1.16287 1.48843 1.11717 1.40692C1.12563 1.38558 1.13748 1.36423 1.14595 1.34288C1.17303 1.2672 1.18488 1.1857 1.18826 1.10225C1.18826 0.993577 1.17303 0.888786 1.11209 0.799519C1.17303 0.811163 1.2035 0.764589 1.22889 0.70443C1.23735 0.657856 1.23905 0.613223 1.23227 0.566648C1.18657 0.411402 1.20688 0.254214 1.21365 0.0970268C1.20688 0.0698583 1.19503 0.0485123 1.18149 0.0291061H0.814176V0.0310466C0.612743 0.287204 0.819254 0.47156 0.900504 0.679203C0.864957 0.718014 0.82941 0.754885 0.795556 0.791757C0.797248 0.828628 0.795556 0.863558 0.79217 0.900429C0.656754 1.13718 0.64152 1.3914 0.719384 1.65532C0.697379 1.73294 0.599201 1.8028 0.704149 1.89207L0.690608 2.00074C0.776936 2.2569 0.68553 2.515 0.697379 2.77115C0.668603 2.86624 0.717691 2.89341 0.785399 2.89923C0.788785 2.89923 0.79217 2.89729 0.795556 2.89535C0.79217 3.00014 0.790478 3.10299 0.788785 3.20585C0.732926 3.21555 0.677066 3.22331 0.621207 3.23107C0.599201 3.41737 0.61105 3.59784 0.700764 3.76279L0.697379 3.75891C0.697379 3.75891 0.699071 3.76085 0.700764 3.76279C0.653368 3.88699 0.605973 4.00925 0.587353 4.12762C0.573811 4.06941 0.551806 4.01313 0.514566 3.95685C0.297899 3.85982 0.282665 4.05388 0.240347 4.20719C0.230191 4.35273 0.221728 4.49634 0.211571 4.63994C0.120165 4.80101 0.148941 4.9582 0.214957 5.11538C0.243733 5.13091 0.274201 5.14061 0.306363 5.14449H0.30467Z" fill="#E1067E"/>
</g>
</svg>
