<svg width="1" height="2" viewBox="0 0 1 2" fill="none" xmlns="http://www.w3.org/2000/svg">
<mask id="mask0_3_3197" style="mask-type:luminance" maskUnits="userSpaceOnUse" x="0" y="0" width="1" height="2">
<path d="M0 0H0.866667V1.38752H0V0Z" fill="white"/>
</mask>
<g mask="url(#mask0_3_3197)">
<path d="M0.507835 0.890732C0.477366 0.989702 0.44859 1.08673 0.418121 1.18376C0.445204 1.20123 0.473981 1.21481 0.502757 1.22645C0.609397 1.21481 0.731272 1.25944 0.800673 1.11584C0.700804 1.10614 0.612782 1.07897 0.609397 0.933425C0.734657 0.844157 0.677105 0.68503 0.716038 0.562773C0.831142 0.485149 0.878538 0.384239 0.805751 0.238695C0.785439 0.168833 0.765126 0.0989723 0.746507 0.0310516H0.41135C0.397809 0.0834476 0.389345 0.139724 0.380882 0.196001C0.370726 0.392001 0.314866 0.595762 0.424892 0.780118C0.451975 0.816989 0.480751 0.85386 0.507835 0.890732Z" fill="#E1067E"/>
</g>
</svg>
