<svg width="1" height="2" viewBox="0 0 1 2" fill="none" xmlns="http://www.w3.org/2000/svg">
<mask id="mask0_3_1040" style="mask-type:luminance" maskUnits="userSpaceOnUse" x="0" y="0" width="1" height="2">
<path d="M0 0H0.866667V1.38752H0V0Z" fill="white"/>
</mask>
<g mask="url(#mask0_3_1040)">
<path d="M0.240365 0.663676C0.228516 0.780111 0.204817 0.896546 0.186198 1.01104C0.435026 0.941179 0.299609 0.624864 0.44349 0.487082C0.479036 0.492904 0.514583 0.496785 0.548438 0.500667C0.69401 0.357063 0.633073 0.172708 0.626302 -0.0019455H0.465495C0.470573 0.0194011 0.475651 0.0368662 0.480729 0.0562719C0.470573 0.0873212 0.463802 0.118371 0.458724 0.151361C0.457031 0.180469 0.457032 0.207638 0.455339 0.236747C0.435026 0.159123 0.419792 0.0776184 0.407943 -0.0019455H0.135417C0.145573 0.100905 0.142187 0.201816 0.101562 0.300786C0.101562 0.395875 0.101562 0.492904 0.101562 0.589933C0.159115 0.589933 0.258984 0.492904 0.240365 0.663676Z" fill="#EFEEE8"/>
</g>
</svg>
