<svg width="2" height="2" viewBox="0 0 2 2" fill="none" xmlns="http://www.w3.org/2000/svg">
<mask id="mask0_3_695" style="mask-type:luminance" maskUnits="userSpaceOnUse" x="0" y="0" width="2" height="2">
<path d="M0 0H1.73333V1.38752H0V0Z" fill="white"/>
</mask>
<g mask="url(#mask0_3_695)">
<path d="M0.316522 0.500672C0.37746 0.467682 0.436704 0.436632 0.497642 0.403642C0.526418 0.438573 0.556887 0.473503 0.585663 0.508434C0.619517 0.638453 0.52134 0.714136 0.482408 0.813106C0.519647 0.882967 0.556887 0.954769 0.594126 1.02463C0.820949 1.14883 0.844647 0.952828 0.861574 0.785937C0.868345 0.723839 0.870038 0.665621 0.868345 0.605463C0.917434 0.681146 0.964829 0.764591 1.05624 0.780116C1.05624 0.791759 1.05624 0.805344 1.05624 0.816987C0.995298 0.815046 0.932668 0.770413 0.876809 0.834452C0.873423 0.966412 0.870038 1.09643 0.868345 1.22645C0.958059 1.19734 1.05116 1.05762 1.13579 1.23421C1.19334 1.29049 1.25936 1.30019 1.32876 1.27302C1.43371 1.1954 1.48618 1.09255 1.45571 0.947006C1.44387 0.927601 1.43371 0.910135 1.42186 0.896551C1.42525 0.867442 1.43032 0.838333 1.4354 0.809225C1.46079 0.739363 1.47433 0.669503 1.43202 0.601582C1.42694 0.597701 1.42186 0.597701 1.41848 0.59576C1.54035 0.46186 1.53019 0.287207 1.51835 0.114495C1.50988 0.075683 1.50142 0.0349308 1.48957 0H1.16118C1.1798 0.10091 1.20012 0.201821 1.12902 0.298851C1.10532 0.366771 1.08163 0.434691 1.05962 0.502612C0.995299 0.502612 0.930976 0.502612 0.866652 0.500672C0.866652 0.508434 0.866652 0.514256 0.86496 0.520077C0.856496 0.374534 0.836184 0.228989 0.82772 0.0853858C0.82772 0.0562769 0.829413 0.0291089 0.831106 0.00194096H0.50272C0.506106 0.0601583 0.504413 0.120317 0.499335 0.182415C0.413006 0.163009 0.419778 -0.00582188 0.306366 0.0213466C0.306366 0.149425 0.306366 0.277504 0.306366 0.403642C0.313137 0.436632 0.316522 0.469622 0.316522 0.502612V0.500672Z" fill="#EFEEE8"/>
</g>
</svg>
