<svg width="2" height="5" viewBox="0 0 2 5" fill="none" xmlns="http://www.w3.org/2000/svg">
<mask id="mask0_3_2824" style="mask-type:luminance" maskUnits="userSpaceOnUse" x="0" y="0" width="2" height="5">
<path d="M0 0H1.3V4.36826H0V0Z" fill="white"/>
</mask>
<g mask="url(#mask0_3_2824)">
<path d="M0.416414 1.52918C0.358862 1.88625 0.267456 2.2472 0.521362 2.56157C0.541675 2.55381 0.560294 2.54605 0.578914 2.5344C0.578914 2.54605 0.577221 2.55381 0.575529 2.56351C0.523055 2.62755 0.512899 2.70129 0.523055 2.7828C0.531518 2.81191 0.543367 2.83714 0.556909 2.86236C0.499357 2.84878 0.465503 2.89729 0.433341 2.95357C0.414721 3.00014 0.402873 3.0506 0.394409 3.10105C0.385945 3.17674 0.38256 3.25436 0.380867 3.33004C0.431649 3.5241 0.228524 3.79384 0.512899 3.91998C0.529825 3.91804 0.548445 3.91222 0.56368 3.9064C0.512899 4.00537 0.514591 4.10046 0.590763 4.19361C0.683862 4.12374 0.776961 4.13733 0.87006 4.18778C0.864982 4.0403 0.861597 3.89281 0.856518 3.74533C0.87006 3.67547 0.883601 3.60561 0.895451 3.53575C0.886987 3.49888 0.878524 3.46394 0.87006 3.42707C0.721102 3.20585 0.956388 2.98268 0.87006 2.76145C0.968237 2.51888 0.98855 2.26466 0.968237 2.00268C0.949617 1.95417 0.91407 1.94252 0.878523 1.93282C0.880216 1.93088 0.880216 1.927 0.881909 1.92506C0.986857 1.58352 0.87006 1.22257 0.953003 0.881024C0.956388 0.849974 0.958081 0.818925 0.956388 0.787876C0.900529 0.749064 0.844669 0.712193 0.790503 0.673381C0.793888 0.638451 0.798966 0.60546 0.805737 0.57053C1.10027 0.492906 0.920841 0.209581 0.983471 0.0291061H0.468888C0.470581 0.0368685 0.470581 0.0465713 0.472274 0.0543336C0.490893 0.0795616 0.502742 0.10673 0.514591 0.135839C0.385945 0.20764 0.385945 0.360947 0.365633 0.500669C0.389331 0.813103 0.277612 1.15465 0.494279 1.43215C0.460425 1.45544 0.431649 1.48455 0.414721 1.52724L0.416414 1.52918Z" fill="#E1067E"/>
</g>
</svg>
