<svg width="1" height="2" viewBox="0 0 1 2" fill="none" xmlns="http://www.w3.org/2000/svg">
<mask id="mask0_3_2952" style="mask-type:luminance" maskUnits="userSpaceOnUse" x="0" y="0" width="1" height="2">
<path d="M0 0H0.866667V1.88431H0V0Z" fill="white"/>
</mask>
<g mask="url(#mask0_3_2952)">
<path d="M0.253893 0.846098C0.2522 1.01299 0.250508 1.17794 0.248815 1.34289C0.250508 1.37976 0.250508 1.41663 0.248815 1.45156C0.336836 1.48261 0.384232 1.43604 0.404545 1.34289C0.367305 1.15853 0.561967 0.981939 0.414701 0.795643C0.404545 0.795643 0.392696 0.795643 0.382539 0.795643C0.387618 0.789821 0.394388 0.78594 0.401159 0.778178C0.465482 0.669505 0.495951 0.547248 0.523034 0.42111C0.519649 0.308556 0.538269 0.194061 0.546732 0.0795667C0.575508 0.170774 0.634753 0.25616 0.741394 0.337665C0.765091 0.289149 0.780326 0.238694 0.783711 0.184358C0.780326 0.131962 0.780326 0.0815071 0.778633 0.0310516H0.179414C0.172644 0.133903 0.165872 0.238695 0.159102 0.341545C0.0660027 0.500674 0.0964715 0.657861 0.162487 0.816989C0.191263 0.832514 0.221732 0.842217 0.252201 0.844157L0.253893 0.846098Z" fill="#E1067E"/>
</g>
</svg>
