<svg width="2" height="6" viewBox="0 0 2 6" fill="none" xmlns="http://www.w3.org/2000/svg">
<mask id="mask0_3_2274" style="mask-type:luminance" maskUnits="userSpaceOnUse" x="0" y="0" width="2" height="6">
<path d="M0 0H1.44049V5.46469H0V0Z" fill="white"/>
</mask>
<g mask="url(#mask0_3_2274)">
<path d="M0.21667 2.68966C0.306383 2.65861 0.396097 2.62562 0.487503 2.59263C0.372399 2.3617 0.558597 2.35006 0.663545 2.2802L0.687243 2.26079C0.716019 2.45485 0.589066 2.67802 0.778649 2.83909C0.776956 2.65667 0.775263 2.47038 0.773571 2.28796C0.776956 2.28602 0.780341 2.28408 0.783727 2.28214C0.797269 2.29766 0.812503 2.30931 0.827737 2.32289C0.74141 2.50531 0.798962 2.69936 0.820967 2.89148C0.792191 3.01762 0.780341 3.13988 0.876826 3.23885C1.07318 3.03121 0.890368 2.71877 0.993623 2.4859C0.983466 2.58099 1.00547 2.66832 1.07318 2.74206C1.09011 2.75758 1.10873 2.76729 1.12565 2.77699C0.963154 3.09136 1.00378 3.42126 1.10365 3.75698C1.10534 3.76087 1.10873 3.76087 1.11211 3.76669C1.04102 3.73176 0.985159 3.77251 0.939456 3.86372C0.939456 3.87148 0.939456 3.8773 0.939456 3.88506C0.917451 3.87148 0.893753 3.86372 0.868362 3.86954C0.836201 3.87536 0.80404 3.887 0.771878 3.89671C0.74141 3.90835 0.709248 3.91805 0.675394 3.92193C0.524743 4.03449 0.582295 4.20332 0.58568 4.35663L0.573831 4.34886C0.636461 4.60114 0.482425 4.89029 0.675394 5.12122C0.688935 5.10375 0.699092 5.08435 0.705862 5.063C0.721097 5.12122 0.743102 5.17943 0.773571 5.23571C0.805732 5.23959 0.834508 5.23571 0.864977 5.22213C0.864977 5.07852 0.86667 4.93686 0.868362 4.79326C1.02578 4.76803 0.990237 5.08629 1.17136 5.01448C1.19336 5.01448 1.21537 5.01448 1.23568 5.01448C1.24245 5.08435 1.24922 5.15227 1.25599 5.22019C1.4405 5.16003 1.28985 4.92134 1.38295 4.81266V4.6613C1.3711 4.65742 1.36094 4.65159 1.34909 4.64965C1.34401 4.62055 1.33894 4.59338 1.33386 4.56621C1.34232 4.49441 1.35078 4.42261 1.36094 4.3508L1.33386 4.36245C1.35417 4.23049 1.26446 4.09465 1.32201 3.96269C1.32709 3.96463 1.33216 3.96851 1.33724 3.97045C1.35417 3.97045 1.36771 3.96463 1.38295 3.96075V3.37081C1.33724 3.37081 1.29154 3.37081 1.24753 3.37081C1.24753 3.18257 1.24753 2.99239 1.24753 2.80416C1.27969 2.80804 1.31354 2.80998 1.3474 2.81386C1.31016 2.63144 1.4388 2.41604 1.26446 2.26079C1.29831 2.16764 1.31693 2.06285 1.37956 1.99299V1.40499C1.33724 1.44575 1.31016 1.50202 1.29662 1.57188C1.278 1.568 1.26107 1.568 1.24076 1.57771C1.22891 1.58547 1.21875 1.59517 1.2069 1.60487H1.15612C1.12735 1.46321 1.10026 1.32155 1.07318 1.17795C1.14597 1.16242 1.22045 1.15078 1.25261 1.05569H1.3L1.34909 1.05375C1.35417 0.869392 1.35925 0.685036 1.36433 0.50068C1.32878 0.469631 1.29154 0.438582 1.25599 0.407532C1.17136 0.485156 1.14935 0.591888 1.14258 0.708323C1.07995 0.685036 1.02748 0.634581 0.968232 0.601591C0.771878 0.576363 0.760029 0.737432 0.736331 0.886857C0.731253 0.848045 0.731253 0.807293 0.736331 0.766541C0.741409 0.69474 0.673701 0.588007 0.638154 0.626819C0.377477 0.910144 0.553519 0.487097 0.458727 0.479334C0.424873 0.477394 0.380862 0.382305 0.313154 0.374542C0.284378 0.397829 0.272529 0.426938 0.274222 0.456047C0.2793 0.489037 0.284378 0.504562 0.292842 0.504562C0.294535 0.915966 0.629691 1.18571 0.678779 1.57965C0.644925 1.63592 0.619534 1.69802 0.600915 1.764C0.58568 1.83386 0.575524 1.90372 0.573831 1.97359C0.534899 1.83969 0.54167 1.64369 0.350394 1.69026C0.172659 1.73101 0.264066 1.93089 0.247138 2.06285C0.23529 2.16764 0.267451 2.28214 0.208206 2.37917C0.209899 2.48396 0.211591 2.58875 0.214977 2.69354L0.21667 2.68966Z" fill="#E1067E"/>
</g>
</svg>
