<svg width="2" height="2" viewBox="0 0 2 2" fill="none" xmlns="http://www.w3.org/2000/svg">
<mask id="mask0_3_675" style="mask-type:luminance" maskUnits="userSpaceOnUse" x="0" y="0" width="2" height="2">
<path d="M0 0H1.3V1.38752H0V0Z" fill="white"/>
</mask>
<g mask="url(#mask0_3_675)">
<path d="M0.169248 0.698611C0.18279 0.745185 0.199718 0.832511 0.206488 0.832511C0.309744 0.815046 0.314821 0.702493 0.358832 0.624869C0.38253 0.644275 0.40792 0.657859 0.438389 0.663681C0.455316 0.66174 0.472243 0.657859 0.487478 0.653978C0.50779 0.681146 0.528103 0.710255 0.548415 0.737423C0.609353 0.799522 0.67029 0.85968 0.731228 0.917898C0.763389 0.846096 0.795551 0.774294 0.827712 0.702493C0.88865 0.619047 0.900499 0.531721 0.854795 0.436632V0.434691C0.864952 0.320197 0.829405 0.23093 0.75154 0.161069C0.800629 0.108673 0.839561 0.0543364 0.861566 0H0.140472C0.154014 0.0718016 0.167556 0.139722 0.184483 0.207643C0.179405 0.372593 0.174327 0.535602 0.169248 0.698611Z" fill="#EFEEE8"/>
</g>
</svg>
