<svg width="1" height="4" viewBox="0 0 1 4" fill="none" xmlns="http://www.w3.org/2000/svg">
<mask id="mask0_3_2692" style="mask-type:luminance" maskUnits="userSpaceOnUse" x="0" y="0" width="1" height="4">
<path d="M0 0H0.866667V3.37468H0V0Z" fill="white"/>
</mask>
<g mask="url(#mask0_3_2692)">
<path d="M0.243753 1.87267C0.243753 1.87267 0.247138 1.86685 0.250524 1.86297C0.220055 1.95805 0.192971 2.05508 0.167581 2.15211C0.138805 2.28601 0.140498 2.41991 0.172659 2.55381C0.231904 2.73041 0.265758 2.93999 0.487503 2.94581C0.646618 2.91864 0.724482 2.77698 0.814196 2.6489C0.81081 2.62368 0.809118 2.59845 0.809118 2.57128C0.473961 2.43738 0.695706 2.11912 0.638154 1.89401C0.529821 1.77176 0.751565 1.45156 0.438414 1.45156C0.391019 1.48843 0.36055 1.53695 0.336852 1.59128C0.340237 1.53695 0.340237 1.48261 0.340237 1.42633C0.340237 1.33513 0.340237 1.24392 0.336852 1.15271C0.355471 1.16047 0.374091 1.16435 0.397789 1.1663C0.40456 1.16435 0.407946 1.16047 0.413024 1.15659C0.409638 1.1663 0.409638 1.17794 0.414716 1.18764C0.424873 1.20511 0.433336 1.21481 0.443493 1.21481C0.501044 1.14689 0.56029 1.08091 0.617841 1.01299C0.621227 0.85192 0.650003 0.673386 0.438414 0.657861C0.46719 0.632634 0.497659 0.605465 0.528128 0.580238C0.644925 0.504555 0.62292 0.372595 0.624612 0.252279C0.594144 0.248397 0.565368 0.244516 0.533206 0.242575C0.492581 0.170774 0.451956 0.100913 0.409638 0.0310516H0.343623C0.345315 0.139724 0.347008 0.248397 0.350394 0.359011C0.340237 0.392001 0.338545 0.426931 0.345315 0.459921L0.250524 0.570535C0.247138 0.424991 0.247138 0.279447 0.245446 0.133903C0.245446 0.0989723 0.245446 0.064042 0.245446 0.0310516H0.155732C0.155732 0.0659824 0.155732 0.100913 0.155732 0.135844C0.16081 0.314377 0.162503 0.49097 0.165888 0.669505C0.160811 0.747128 0.157425 0.826692 0.152347 0.906256C0.147269 1.01493 0.143883 1.12748 0.138805 1.23616C0.19805 1.4438 0.0473987 1.69608 0.243753 1.87267Z" fill="#E1067E"/>
</g>
</svg>
