<svg width="38" height="47" viewBox="0 0 38 47" fill="none" xmlns="http://www.w3.org/2000/svg">
<mask id="mask0_3_415" style="mask-type:luminance" maskUnits="userSpaceOnUse" x="0" y="0" width="38" height="47">
<path d="M0 0H37.7V46.2189H0V0Z" fill="white"/>
</mask>
<g mask="url(#mask0_3_415)">
<path fill-rule="evenodd" clip-rule="evenodd" d="M34.2469 10.2463L33.7306 9.28765L33.5833 9.33228C33.5309 9.35557 33.4784 9.39438 33.4242 9.41767C32.241 9.92222 32.4611 8.9985 32.2241 10.4501C33.2837 10.4501 33.8965 10.4365 34.2469 10.2463ZM14.1256 1.10031L13.0491 0L11.8202 0.782056C11.9184 1.10613 12.0707 1.66502 12.3026 2.65278C12.9645 2.45678 13.5992 1.85326 14.1256 1.10031ZM1.98216 14.1178L2.48828 18.4627C2.72526 18.4608 2.9944 18.4492 3.29739 18.4492C3.13997 15.2685 3.74088 16.4581 3.05364 13.5395C1.65716 13.5802 2.41041 13.3493 1.98216 14.1178ZM1.89583 25.1384L1.74687 26.227C1.90429 26.2639 2.09049 26.2794 2.31562 26.2794C3.19922 26.2794 2.40534 26.3687 2.9944 25.9903C2.6 25.3693 2.35794 25.1888 1.89583 25.1384ZM0.592446 34.721L0.3013 36.8634C0.699087 36.518 0.947915 35.9591 0.912368 35.2313C0.902211 35.0179 0.771873 34.8199 0.592446 34.721ZM24.9082 43.8398L26.1405 44.2939C26.3335 44.0455 26.4638 43.6263 26.6872 43.0286C27.2458 43.4769 27.476 43.8049 28.3461 43.8961C28.1091 42.8889 27.7333 42.3125 27.3085 41.5848H25.2315C25.3534 44.0591 24.9437 42.4988 24.9082 43.8398ZM29.9711 45.7047L31.3727 46.2189L32.1547 45.5184C31.8991 45.3884 31.8855 45.4447 31.4793 45.2584C30.9478 45.0177 31.4658 45.2525 30.9732 45.01C30.8428 44.9459 30.9326 44.9149 30.4671 44.7616C30.4671 44.7616 30.2165 45.1691 29.9711 45.7047ZM36.1004 41.9807L36.2781 41.8196C36.2189 41.8371 36.1579 41.8546 36.0953 41.874L36.1004 41.9807ZM37.4647 35.2178L37.6661 32.8949C37.4241 33.0443 37.2734 33.2015 36.466 33.2228C36.6573 34.8665 36.835 33.5954 37.028 35.2449C37.199 35.2391 37.3428 35.2294 37.4647 35.2178ZM34.9629 14.4923C35.469 14.4399 36.3052 14.3138 35.684 13.5802C35.4318 13.2833 35.3607 13.359 35.1643 13.5938C34.7835 14.0518 35.0018 13.4599 34.9629 14.4923ZM32.3307 18.1406L31.8822 17.5041C31.1628 18.2124 31.4573 17.376 31.4353 18.717C32.4611 18.6102 31.8771 19.0333 32.3307 18.1406ZM19.2833 8.55022C19.0193 7.545 19.0193 7.49454 18.0714 7.39557C18.3439 8.55022 18.1881 8.51917 19.2833 8.55022ZM29.1349 13.3377C28.8708 12.3305 28.8708 12.28 27.9246 12.183C28.1971 13.3377 28.0397 13.3066 29.1349 13.3377ZM22.0154 8.42797L21.9595 7.27332H21.0353L21.0928 8.42797H22.0154ZM11.6357 15.9594C11.7457 15.1851 11.8388 15.4141 11.8083 14.8028C11.7863 14.3565 11.0686 13.6443 10.747 14.3681C10.3103 15.352 11.1059 15.8022 11.6357 15.9594ZM20.0992 14.1333C19.4678 14.1255 20.1246 14.0712 19.5728 14.4224C19.9943 16.0195 21.1792 15.711 21.2232 15.6858C21.5448 15.4975 21.5008 15.1269 21.2858 14.7931C21.5719 14.405 21.7716 14.2245 21.9172 13.1572C20.9066 13.1863 21.3383 13.0485 20.6697 13.5919C20.3345 13.8616 20.1855 13.9645 20.0992 14.1333ZM23.8418 15.9128C22.9599 15.9128 23.7538 15.8255 23.163 16.202C23.5828 17.7991 24.7694 17.4905 24.8117 17.4633C25.4736 17.0791 24.59 15.9128 23.8418 15.9128ZM29.8018 25.1209C30.3299 25.1209 30.0659 25.0239 30.7108 24.8317L30.6245 23.0988C29.922 23.1182 29.79 23.2308 29.2534 23.3879C29.2906 24.1137 29.228 25.1209 29.8018 25.1209ZM23.0919 22.2469L24.463 21.9597C24.138 21.2727 23.8807 20.9739 23.6844 20.2248C21.7513 20.4286 22.1322 22.2469 23.0919 22.2469ZM36.1292 28.6062L37.5003 28.317C37.177 27.6301 36.9197 27.3312 36.7233 26.5841C34.7902 26.7859 35.1711 28.6062 36.1292 28.6062ZM35.6484 19.792C35.5316 20.6168 35.7043 20.2287 35.2286 20.6595C35.5029 21.2921 35.6891 21.7947 35.7906 22.6816C36.7233 22.5826 36.7504 22.5419 36.6861 21.2358C36.6217 19.9318 36.5896 19.891 35.6484 19.792ZM26.5434 11.7386C27.4659 11.7386 27.8298 11.9113 28.363 11.1603C28.099 10.452 27.9957 10.6208 27.0072 9.87758C24.1397 7.71965 26.149 11.0613 26.5434 11.7386ZM27.4676 6.56306C28.5983 6.56306 27.2966 5.40647 29.9491 5.40647C29.6495 2.82743 28.1006 5.25899 26.4587 4.82818C26.5281 5.87804 26.6449 6.56306 27.4676 6.56306ZM16.8695 22.1246C16.8966 20.6401 16.6173 21.5793 17.2893 21.2591C17.3079 20.0812 18.1086 18.9227 18.5165 18.0824C16.8475 18.0824 17.3875 17.5041 15.7185 17.5041C15.6203 18.3288 15.6542 18.7596 15.9318 19.9745C16.1654 20.9874 16.338 21.6569 16.8695 22.1246ZM6.79961 13.2037C7.91679 12.2257 6.99596 12.608 7.6832 10.6849C7.75429 10.4869 8.39922 10.1629 7.46484 8.00492C6.51862 8.28436 6.35273 8.55799 5.92109 9.44677C6.28841 10.8459 6.33073 9.78056 6.69974 11.1817C5.79414 11.2069 6.15469 11.1021 5.55885 11.4689C5.9431 12.9282 6.20039 13.0058 6.79961 13.2018V13.2037ZM14.4676 15.4665L14.5251 16.6211C15.1785 16.1748 15.8776 15.9303 14.4676 15.4665ZM9.38099 5.93625C10.0005 5.87221 10.0022 5.80041 10.5202 5.64905C9.98698 4.80877 10.5253 5.10374 9.33698 5.07075L9.38099 5.93625ZM12.2789 8.53664L12.7613 8.01656C12.1469 7.0715 12.8375 7.4926 11.7592 7.38005C11.8388 8.05925 11.7863 8.43185 12.2789 8.53664ZM27.801 37.5426L27.7435 36.386H27.0512L27.1087 37.5426H27.801ZM30.5111 41.0065C30.4078 40.5738 30.418 40.141 30.0066 40.141C29.3685 40.141 29.4633 40.3642 29.3583 41.0065H30.5111ZM19.8233 7.0909L19.781 6.2254H18.6266L18.6553 6.80175C19.1902 6.957 19.197 7.02492 19.8233 7.0909ZM7.10429 29.7453C7.9862 29.7453 7.19232 29.8326 7.78138 29.4562C7.33958 28.6993 7.63581 28.8604 6.81653 28.5887C6.69297 29.3533 6.84531 28.8274 6.62864 29.4562C6.63203 29.46 7.07383 29.7453 7.10429 29.7453ZM12.6056 30.1955C12.6987 30.9892 12.6581 30.8243 12.8934 31.3521C13.4672 30.8495 13.4943 31.0591 13.5146 29.9083L12.6056 30.1955C12.2027 29.5086 12.3111 29.8967 12.0859 29.0409H11.3936C11.4224 29.46 11.2954 30.9756 12.6056 30.1955ZM16.724 5.07075C16.1603 4.1839 16.8492 4.60307 15.771 4.49246L15.8285 5.64905C16.8543 5.54037 16.272 5.96342 16.724 5.07075ZM18.0087 31.061C17.6668 31.1639 17.3198 31.1251 17.3452 31.6393C17.3723 32.1963 17.5483 32.6116 17.9867 32.4156C18.4184 32.2215 18.1035 31.8683 18.0087 31.061ZM19.2342 14.8901H18.7721L18.872 16.9122C19.6049 16.2078 19.5068 16.0448 19.2342 14.8901ZM21.5279 28.2918C21.4348 27.4981 21.4737 27.6631 21.2384 27.1372H20.3159L20.3734 28.2918H21.5279ZM13.5383 29.167C13.4587 28.4878 13.259 27.7232 12.7732 27.7232C11.8913 27.7232 12.6852 27.6339 12.0961 28.0104C12.5413 28.9535 12.4414 29.0545 13.5383 29.167ZM31.5233 38.1189C30.8953 37.9346 31.073 37.8298 30.5855 37.8298C29.9474 37.8298 30.0405 38.053 29.9355 38.6972C31.1103 38.8176 31.2745 39.6384 31.5233 38.1189ZM30.4518 44.4724C30.4095 43.8359 30.4518 43.0286 29.9203 43.0286H29.4582C29.2009 43.7952 29.2618 43.3372 29.2974 44.4724H30.4518ZM25.5785 39.2755C26.4587 38.9747 26.4587 38.8835 26.4164 37.5426C25.9086 37.5562 25.2586 37.4533 25.2908 38.1189C25.2941 38.1927 25.5464 39.1824 25.5785 39.2755ZM5.3388 40.7174C6.19193 40.1352 5.69935 40.6747 6.04127 39.914L6.23932 39.3318C6.32734 39.0388 6.26471 39.4735 6.39336 38.6972C5.63333 38.2101 4.09635 37.3097 4.9444 39.0504C5.18984 39.5569 5.08997 39.2037 5.18307 39.749C5.27448 40.2924 4.97825 39.8596 5.3388 40.7174ZM7.76445 38.4081C7.92018 37.3039 8.39414 36.386 6.27825 36.386L6.36458 38.1189C7.06875 38.1383 7.21263 38.2509 7.76445 38.4081ZM28.2174 41.2957L28.6034 40.0615C28.8691 39.2503 28.8624 40.3196 28.8251 39.5647C28.7286 37.6338 26.9767 39.5394 26.9919 39.8519C27.0393 40.7931 27.7029 40.9658 28.2174 41.2957ZM15.9792 33.0831C15.9487 32.4874 15.8404 32.499 15.5712 32.0895C15.126 31.4103 15.3918 31.7693 14.7384 31.3521C14.3271 32.2001 14.3051 31.9265 14.3779 33.3723H13.6855L13.7279 34.2397C15.4223 34.7249 15.9859 33.2131 15.9792 33.0831ZM33.3667 42.7395C32.9807 41.6003 32.6574 42.4018 32.5609 40.4302C32.004 40.4884 31.8246 40.4166 31.6012 40.9289C31.4421 41.2937 31.5098 41.0259 31.5978 41.4141L31.9549 42.1631C30.528 42.6463 30.9021 44.1677 32.1124 43.768C32.8775 43.5157 32.8301 43.211 33.3667 42.7395ZM23.5236 31.6413C24.4156 31.6413 24.8185 29.0991 23.7707 27.3079C23.0005 28.0492 23.615 27.1119 23.2443 28.317C22.9243 29.3533 22.7652 31.6413 23.5236 31.6413ZM24.0635 35.8077C23.6624 34.622 23.7318 35.2352 21.6988 34.6511C20.949 36.1939 20.0637 36.3336 19.6219 34.6511C18.6655 34.752 19.1902 34.6414 18.7129 35.2119L17.8462 36.0949C19.5322 36.0949 22.9091 36.5199 24.0635 35.8077ZM2.47135 34.0767C2.90299 33.1898 3.16706 33.1801 3.53945 32.0585C3.57331 31.9518 3.8306 30.995 3.8289 30.7661C3.81875 29.2699 2.80989 30.6729 1.95 31.8314C1.45065 32.5068 1.01732 33.087 0.854816 34.0767H2.47135ZM8.15208 22.9455C8.08268 21.5366 7.88294 21.6317 8.45508 20.8555L9.8414 19.7688C9.772 18.7267 9.81601 19.2118 9.59596 18.5598C8.84101 16.33 8.71237 15.9904 7.79661 15.7265C7.02643 18.0261 8.18763 18.0746 6.13607 19.4796C6.62526 20.611 6.26979 20.5566 6.24948 21.7908C7.05859 22.4409 6.9181 22.8174 8.15208 22.9455Z" fill="#E8E2D6"/>
</g>
</svg>
