<svg width="1" height="1" viewBox="0 0 1 1" fill="none" xmlns="http://www.w3.org/2000/svg">
<mask id="mask0_3_660" style="mask-type:luminance" maskUnits="userSpaceOnUse" x="0" y="0" width="1" height="1">
<path d="M0 0H0.866667V0.890729H0V0Z" fill="white"/>
</mask>
<g mask="url(#mask0_3_660)">
<path d="M0.206506 0.2154L0.19635 0.170767C0.319918 0.172708 0.443486 0.174648 0.567053 0.176588C0.567053 0.244509 0.567053 0.31243 0.567053 0.38035C0.768486 0.527835 0.770178 0.300786 0.832808 0.192113C0.82773 0.172708 0.822653 0.151361 0.815881 0.131955C0.78372 0.0931431 0.749866 0.0640347 0.705855 0.0717965C0.712626 0.0620937 0.717704 0.0523909 0.722782 0.0407472C0.727861 0.0271634 0.731246 0.0135792 0.734631 -0.0019455H0.069397C0.0778608 0.0620937 0.0914023 0.124193 0.113407 0.186291C0.143876 0.195994 0.174345 0.205697 0.204814 0.2154H0.206506Z" fill="#EFEEE8"/>
</g>
</svg>
