<svg width="2" height="8" viewBox="0 0 2 8" fill="none" xmlns="http://www.w3.org/2000/svg">
<mask id="mask0_3_670" style="mask-type:luminance" maskUnits="userSpaceOnUse" x="0" y="0" width="2" height="8">
<path d="M0 0H1.73333V7.349H0V0Z" fill="white"/>
</mask>
<g mask="url(#mask0_3_670)">
<path d="M0.264053 4.95625C0.15572 5.08821 0.160798 5.24734 0.187881 5.41035C0.206501 5.48797 0.238663 5.55589 0.286058 5.61411C0.331762 5.66651 0.382543 5.70532 0.448558 5.71502C0.438402 5.72278 0.428246 5.72861 0.416397 5.73637C0.335147 5.91102 0.314834 6.08567 0.340225 6.26227C0.226814 6.36512 0.289444 6.52037 0.265746 6.65038C0.296215 6.68337 0.326683 6.71442 0.357152 6.74935C0.357152 6.61739 0.358845 6.48932 0.358845 6.3593C0.370694 6.40975 0.385928 6.46021 0.404548 6.5126C0.41809 6.53201 0.431632 6.54365 0.448558 6.55336C0.379157 6.61157 0.360537 6.69696 0.358845 6.79011C0.360537 6.81339 0.36223 6.83668 0.363923 6.85997C0.391006 6.89684 0.419782 6.93565 0.446866 6.97252C0.585668 6.85997 0.529808 6.69502 0.538272 6.54559C0.545042 6.40393 0.550121 6.26227 0.556892 6.1206C0.556892 6.05657 0.556892 5.99059 0.556892 5.92655C0.553507 5.89162 0.550121 5.85863 0.546735 5.82175C0.589053 5.53261 0.673689 5.23958 0.463793 4.98342C0.465486 4.95043 0.470564 4.91938 0.479027 4.88833C0.455329 4.79907 0.457022 4.7195 0.538272 4.66516C0.570433 4.63412 0.602595 4.59919 0.634756 4.5662C0.636449 4.35661 0.638142 4.14703 0.639834 3.93744C0.633064 3.86952 0.626292 3.79966 0.619522 3.7298L0.600902 3.41737C0.60598 3.2757 0.614444 3.13792 0.619522 2.9982C0.665225 2.89729 0.573819 2.73428 0.726163 2.68189L0.902204 2.98074C0.937751 2.74398 0.973298 2.50917 1.01054 2.27436H1.04778L1.08502 2.26854C1.11549 2.23555 1.14595 2.20256 1.17642 2.16763C1.31353 2.33452 1.19674 2.60232 1.33892 2.76727C1.34231 2.8546 1.35416 2.94192 1.38463 3.02731C1.37616 3.02343 1.3677 3.02343 1.35585 3.02731C1.18489 3.22913 1.4134 3.42319 1.36601 3.62307C1.42694 3.51246 1.48788 3.3999 1.54882 3.28929C1.60637 3.33004 1.66223 3.37273 1.71978 3.41349C1.71809 3.21167 1.7164 3.00984 1.7147 2.80802C1.68424 2.79638 1.65885 2.7925 1.64192 2.79638C1.62668 2.64696 1.64361 2.50335 1.71301 2.36557C1.77056 2.18121 1.66054 2.03567 1.62668 1.87266C1.45233 1.84355 1.46588 2.01432 1.42017 2.123C1.42017 2.12688 1.41848 2.13076 1.41679 2.13658C1.33723 2.08419 1.25598 2.08613 1.17812 2.16375C1.14257 2.09971 1.10871 2.03567 1.07317 1.97163C1.05286 1.94252 1.02746 1.92894 0.998689 1.93088C0.995303 1.84549 0.991918 1.75817 0.988532 1.67278C0.96822 1.59322 0.991917 1.50589 1.01392 1.4205C1.02069 1.44767 1.02916 1.4729 1.04101 1.50007C1.07317 1.55635 1.11379 1.56605 1.16457 1.52918L1.19843 1.12748C1.19166 1.05956 1.18319 0.991635 1.17642 0.923714C1.14595 0.956704 1.11549 0.989694 1.08502 1.02268C1.05286 1.06732 1.03085 1.11389 1.01562 1.16241C1.00038 1.12942 0.976683 1.09837 0.941137 1.06926C0.685537 1.01298 0.636449 1.20704 0.611058 1.42827C0.611058 1.43021 0.611058 1.43215 0.611058 1.43409C0.592439 1.43215 0.575512 1.43021 0.558584 1.42827C0.558584 1.3293 0.558584 1.22839 0.558584 1.12748C0.622908 0.997457 0.600902 0.840269 0.660147 0.706368C0.666917 0.706368 0.675381 0.708309 0.675381 0.708309L0.714314 0.706368C0.717699 0.535597 0.717699 0.364825 0.719392 0.192113C0.721084 0.128074 0.72447 0.0640347 0.726163 -0.0019455H0.367308C0.367308 0.0213415 0.365616 0.0446286 0.365616 0.0659752C0.346996 0.0776184 0.331762 0.0912027 0.31822 0.112549C0.25559 0.244509 0.297908 0.366766 0.346996 0.487082C0.353767 0.671438 0.404548 0.863556 0.270824 1.02074C0.186189 1.16629 0.25559 1.27302 0.31822 1.38363C0.308064 1.38557 0.296215 1.38945 0.284366 1.39528C0.248819 1.4205 0.225121 1.45544 0.211579 1.49813C0.196345 1.58157 0.199731 1.65726 0.247126 1.71935C0.204809 1.78728 0.184496 1.86102 0.181111 1.94446C0.182803 2.02403 0.199731 2.09777 0.243741 2.16375C0.252204 2.16763 0.260667 2.16957 0.267439 2.17345C0.247126 2.20838 0.240355 2.24525 0.248819 2.28795C0.258975 2.30347 0.269132 2.31706 0.279288 2.33064C0.279288 2.44707 0.279287 2.56157 0.28098 2.67994C0.28098 2.77697 0.28098 2.874 0.28098 2.96909C0.270824 2.97686 0.258975 2.98268 0.247126 2.99238C0.211579 3.06612 0.211579 3.13792 0.248819 3.20973C0.25559 3.46782 0.262361 3.72592 0.269131 3.98402C0.250511 4.0597 0.240355 4.14315 0.228506 4.22465C0.230199 4.2654 0.240356 4.30228 0.260668 4.33138C0.25559 4.33332 0.253897 4.33332 0.248819 4.33527C0.133715 4.54873 0.113402 4.75637 0.264053 4.95237V4.95625Z" fill="#EFEEE8"/>
</g>
</svg>
