<svg width="1" height="2" viewBox="0 0 1 2" fill="none" xmlns="http://www.w3.org/2000/svg">
<mask id="mask0_3_2675" style="mask-type:luminance" maskUnits="userSpaceOnUse" x="0" y="0" width="1" height="2">
<path d="M0 0H0.433333V1.88431H0V0Z" fill="white"/>
</mask>
<g mask="url(#mask0_3_2675)">
<path d="M0.208189 1.56412C0.269127 1.56412 0.330064 1.56217 0.392695 1.56217C0.391002 1.41663 0.38931 1.26915 0.387616 1.1236C0.394387 1.04792 0.401158 0.974177 0.407929 0.898494C0.401158 0.714138 0.392694 0.533664 0.384231 0.351248C0.375768 0.246457 0.424856 0.128081 0.391002 0.0310516H0.253893C0.201418 0.163012 0.192955 0.302734 0.230195 0.450218C0.226809 0.568594 0.225116 0.68697 0.221731 0.803405C0.216653 1.05762 0.211575 1.3099 0.208189 1.56412Z" fill="#E1067E"/>
</g>
</svg>
