<svg width="2" height="3" viewBox="0 0 2 3" fill="none" xmlns="http://www.w3.org/2000/svg">
<mask id="mask0_3_591" style="mask-type:luminance" maskUnits="userSpaceOnUse" x="0" y="0" width="2" height="3">
<path d="M0 0H1.3V2.3811H0V0Z" fill="white"/>
</mask>
<g mask="url(#mask0_3_591)">
<path d="M0.856532 0.0931482C0.773589 0.0853858 0.687261 0.0776235 0.604318 0.0718016C0.604318 0.0718016 0.606011 0.0698611 0.607704 0.0679207C0.61786 0.0446336 0.629709 0.0213466 0.639865 0H0.514605C0.514605 0.0271685 0.511219 0.0562769 0.511219 0.0853858C0.512912 0.256157 0.516298 0.42887 0.51799 0.599641C0.51122 0.634572 0.504448 0.671443 0.497678 0.704433C0.460438 0.799522 0.495985 0.853858 0.556923 0.89461C0.502756 0.904314 0.463823 0.941184 0.429969 0.989699C0.413042 1.02075 0.394422 1.04986 0.375803 1.08091C0.375803 1.02463 0.357183 0.972234 0.323329 0.917898C0.308095 0.89267 0.306402 0.867442 0.316558 0.840274C0.18622 1.06344 0.170985 1.28467 0.299631 1.50395C0.306402 1.51754 0.31148 1.53112 0.321636 1.54277L0.306402 1.56023C0.279318 1.69607 0.253928 1.83191 0.226844 1.96581C0.347026 1.99298 0.416428 1.87267 0.516298 1.83774L0.553537 1.84938H0.592469C0.594162 1.67667 0.594162 1.5059 0.597548 1.33318C0.68049 1.28661 0.675412 1.20122 0.672027 1.1139C0.683876 1.0518 0.694032 0.987758 0.705881 0.92566C0.766818 0.820868 0.773589 0.716077 0.716037 0.609344C0.704188 0.597701 0.690647 0.589938 0.678798 0.582176C0.683876 0.556948 0.687261 0.531721 0.688954 0.504553C0.712652 0.487087 0.739735 0.473503 0.766818 0.465741L0.773589 0.500672C0.76174 0.655919 0.804058 0.791759 0.888693 0.912076C0.907313 0.910135 0.925933 0.904314 0.944553 0.900432C0.94286 0.803403 0.941167 0.708314 0.939475 0.611285C0.946245 0.434691 0.953016 0.260039 0.959787 0.0834453C0.92424 0.0873263 0.890387 0.0892672 0.856532 0.0931482Z" fill="#EFEEE8"/>
</g>
</svg>
