<svg width="1" height="4" viewBox="0 0 1 4" fill="none" xmlns="http://www.w3.org/2000/svg">
<mask id="mask0_3_1021" style="mask-type:luminance" maskUnits="userSpaceOnUse" x="0" y="0" width="1" height="4">
<path d="M0 0H0.866667V3.87147H0V0Z" fill="white"/>
</mask>
<g mask="url(#mask0_3_1021)">
<path d="M0.213294 2.69159C0.225143 2.76339 0.253919 2.82743 0.265768 2.89923C0.26069 3.08165 0.275924 3.25824 0.365638 3.41737C0.392721 3.41931 0.418112 3.42125 0.445195 3.42125C0.499362 3.41543 0.555221 3.40961 0.609388 3.40378C0.622929 3.37662 0.622929 3.35139 0.609388 3.32422C0.516289 3.23689 0.555221 3.10493 0.52983 2.99626C0.538294 2.82161 0.545064 2.64695 0.551836 2.47424C0.551836 2.4102 0.550143 2.34616 0.54845 2.28212C0.721106 2.10359 0.533216 1.80668 0.712643 1.63009C0.631393 1.50977 0.614466 1.37393 0.631393 1.23033L0.617851 0.815041C0.621237 0.675319 0.624622 0.533656 0.6297 0.393934C0.655091 0.391994 0.682174 0.390053 0.709258 0.390053C0.716028 0.260034 0.722799 0.130014 0.72957 -0.0019455H0.287773C0.287773 0.0174606 0.287773 0.0368662 0.287773 0.0562718C0.265768 0.135836 0.236992 0.2154 0.214987 0.294964C0.208216 0.370647 0.218372 0.438568 0.270846 0.490963C0.38595 0.564706 0.328398 0.708309 0.36733 0.813101C0.36733 0.882962 0.36733 0.950883 0.36733 1.02074C0.301315 1.23615 0.348711 1.48842 0.264075 1.69801C0.243763 1.89207 0.213294 2.08613 0.34194 2.24525C0.328398 2.28018 0.326705 2.31706 0.338554 2.35005C0.184518 2.36557 0.203138 2.53246 0.211601 2.68965L0.213294 2.69159Z" fill="#EFEEE8"/>
</g>
</svg>
