<svg width="6" height="18" viewBox="0 0 6 18" fill="none" xmlns="http://www.w3.org/2000/svg">
<mask id="mask0_3_2957" style="mask-type:luminance" maskUnits="userSpaceOnUse" x="0" y="0" width="6" height="18">
<path d="M-3.05176e-05 0H5.6333V17.7816H-3.05176e-05V0Z" fill="white"/>
</mask>
<g mask="url(#mask0_3_2957)">
<path d="M1.22888 7.34123C1.20857 7.30048 1.18826 7.27525 1.16625 7.26361C1.17133 7.22868 1.1781 7.19375 1.18318 7.15882C1.2255 6.87355 1.24073 6.58634 1.26274 6.29914C1.25089 6.22733 1.2238 6.16135 1.18318 6.10508C1.2001 6.07597 1.2255 6.06238 1.26612 6.07015C1.44724 6.09731 1.35753 5.97312 1.34568 5.88967C1.26104 5.80235 1.27458 5.57141 1.07654 5.64904L1.06807 5.99252C1.02576 5.96341 0.981746 5.94013 0.936042 5.91684C0.917423 5.90908 0.898803 5.90326 0.880183 5.89937C0.954662 5.7189 0.895417 5.53454 0.883568 5.35213C0.895417 5.35407 0.907266 5.35407 0.919115 5.35213C0.973282 5.33854 1.01052 5.30555 1.0376 5.25122C1.04776 5.22017 1.05453 5.18912 1.05961 5.15807C1.07146 5.17554 1.085 5.19106 1.10701 5.20853C1.18995 5.1212 1.25089 5.03193 1.28305 4.94461C1.28305 4.99118 1.28305 5.03775 1.28305 5.08433C1.27966 5.26286 1.27458 5.4414 1.2712 5.61993C1.44385 5.47245 1.32537 5.26286 1.35414 5.08627C1.37445 4.96013 1.38969 4.83205 1.50141 4.7816C1.48956 4.85534 1.49971 4.92326 1.54711 4.97954L1.57081 4.97566C1.57081 5.25122 1.57081 5.52678 1.56912 5.80429C1.55388 5.81399 1.53865 5.82757 1.5251 5.8431C1.46755 5.95565 1.47602 6.06238 1.54372 6.16524C1.57589 6.22927 1.60635 6.29525 1.63852 6.36123C1.63005 6.35735 1.62159 6.35153 1.61143 6.34765C1.45063 6.35735 1.36938 6.42527 1.4557 6.62127C1.49294 6.72995 1.42693 6.86579 1.5251 6.95699C1.53695 6.99192 1.5488 7.02685 1.56065 7.06373C1.55388 7.42662 1.5488 7.78951 1.54203 8.15434C1.54203 8.26495 1.54034 8.37556 1.54034 8.48812C1.55219 8.63754 1.56404 8.78503 1.57589 8.93251L1.53695 8.92475C1.54542 9.14598 1.55388 9.36332 1.56065 9.58455L1.57927 9.5729C1.57758 9.71263 1.57589 9.85429 1.57419 9.99595C1.49294 10.0386 1.45063 10.1221 1.40323 10.2036C1.3626 10.2851 1.31521 10.3666 1.3643 10.4656C1.42862 10.4656 1.49464 10.4636 1.55896 10.4617C1.55557 10.6849 1.55219 10.908 1.5505 11.1293C1.56065 11.1719 1.57927 11.2011 1.60466 11.2205C1.5251 11.3291 1.47263 11.4553 1.42354 11.5853C1.41 11.661 1.39984 11.7367 1.46925 11.7891L1.46586 11.7794C1.49294 11.7852 1.52003 11.7891 1.54711 11.7929C1.55219 11.9346 1.55727 12.0782 1.56065 12.2218C1.66391 12.2237 1.72484 12.3247 1.81117 12.3635C1.87888 12.3266 1.91273 12.2606 1.93305 12.1811C1.95336 12.0452 1.94997 11.9171 1.86365 11.8143C1.86365 11.8123 1.86534 11.8104 1.86703 11.8104C1.90596 11.7173 1.77563 11.5911 1.90935 11.5154C1.94997 11.3854 1.94659 11.2612 1.8755 11.1428C1.86703 11.1351 1.85688 11.1293 1.84841 11.1234C1.94659 11.0303 1.94997 10.9003 1.9449 10.7683C1.94151 10.714 1.92966 10.6616 1.91443 10.6131C1.88734 10.5432 1.84841 10.485 1.80102 10.4345C1.90935 10.3666 1.87042 10.2463 1.80609 10.1201C1.78578 10.0949 1.76547 10.0736 1.74346 10.0561C1.74854 9.97461 1.75362 9.89504 1.7587 9.81548C1.79594 9.71845 1.75362 9.66993 1.70115 9.62918C1.88565 9.49528 1.79255 9.32257 1.76039 9.15762C1.81964 9.11687 1.87888 9.07611 1.93813 9.03536C2.02107 8.87817 2.01768 8.73457 1.88734 8.60649C1.8755 8.60067 1.86534 8.59485 1.85349 8.59097C2.02784 8.492 1.90427 8.30182 1.94997 8.1621C1.9449 8.08253 1.94151 8.00297 1.93643 7.92341C1.9669 7.87877 1.98891 7.83026 2.00076 7.77398C2.00922 7.6983 1.99568 7.62844 1.96013 7.5644C1.97367 7.54693 1.98552 7.52559 1.99398 7.5023C1.99568 7.53529 2.00076 7.56828 2.00753 7.60127C2.11078 7.60709 2.15648 7.57798 2.17341 7.53335C2.15141 7.63232 2.1057 7.72741 2.02276 7.80697C1.98721 7.92535 2.03122 7.99133 2.11586 8.03208C2.08031 8.07865 2.05323 8.12911 2.038 8.18927C2.01768 8.32123 2.00583 8.45125 2.04815 8.56768C2.04815 8.64724 2.04646 8.72681 2.04646 8.80831C2.07862 8.77726 2.10909 8.74621 2.14125 8.71711C2.29867 8.81025 2.11417 8.98297 2.16833 9.0994C2.15987 9.12269 2.15141 9.14986 2.14633 9.17702C2.15987 9.35362 2.17172 9.53021 2.21742 9.70098C2.21404 9.77279 2.21234 9.84459 2.20896 9.91639C2.21742 9.95326 2.22419 9.99013 2.23266 10.027C2.30714 10.1648 2.02445 10.3763 2.30206 10.4733C2.37484 10.6499 2.22081 10.8401 2.32576 11.0148C2.51703 10.877 2.40023 10.6771 2.40531 10.5024C2.41885 10.4966 2.43409 10.4908 2.44763 10.4772C2.4781 10.4326 2.5001 10.3821 2.51365 10.3317C2.51703 10.4171 2.52042 10.5044 2.52211 10.5898C2.5255 10.7702 2.5255 10.9527 2.52719 11.1331H2.56951C2.56951 11.1331 2.57797 11.1331 2.58643 11.1331C2.64737 11.2729 2.62537 11.4397 2.69138 11.5775C2.69138 11.6823 2.69138 11.7891 2.69138 11.8938C2.67276 11.8958 2.65583 11.8997 2.63721 11.8997C2.63721 11.8977 2.63721 11.8958 2.63721 11.8938C2.61013 11.661 2.55766 11.4572 2.29021 11.5154C2.25128 11.5465 2.22758 11.5795 2.21234 11.6125C2.19542 11.5639 2.17172 11.5135 2.13787 11.4669C2.1057 11.432 2.07354 11.3951 2.04138 11.3602C2.03461 11.432 2.02615 11.5038 2.01768 11.5756L2.05492 12.0006C2.1074 12.0394 2.14971 12.0297 2.18357 11.9695C2.19542 11.9424 2.20557 11.9152 2.21404 11.8861C2.23604 11.9773 2.26143 12.0666 2.23943 12.1519C2.23604 12.2432 2.23266 12.3344 2.22927 12.4236C2.1988 12.4236 2.17172 12.4353 2.14971 12.4683C2.11417 12.5342 2.07693 12.6022 2.04138 12.6701C1.95675 12.5886 1.87211 12.5847 1.78747 12.641C1.78747 12.6371 1.78578 12.6313 1.78409 12.6274C1.73669 12.5129 1.75193 12.3305 1.56742 12.3635C1.53188 12.5342 1.41508 12.6875 1.47602 12.8835C1.54711 13.0291 1.56742 13.1805 1.5505 13.3376C1.53188 13.3318 1.50648 13.3376 1.47432 13.3493C1.47263 13.5627 1.47094 13.7762 1.46925 13.9897C1.53018 13.945 1.58943 13.9024 1.64867 13.8597C1.713 13.9761 1.77901 14.0945 1.84333 14.2128C1.79255 14.0013 2.03292 13.7956 1.85349 13.5822C1.84164 13.5783 1.83148 13.5802 1.82302 13.5822C1.85349 13.4929 1.86534 13.3997 1.87042 13.3085C2.01938 13.1339 1.8975 12.8525 2.04307 12.6759C2.07354 12.7108 2.1057 12.7458 2.13787 12.7826L2.1768 12.7865H2.21573C2.25466 13.0349 2.2919 13.2852 2.33083 13.5336L2.51534 13.2173C2.67784 13.2736 2.57966 13.4444 2.62706 13.5511C2.63383 13.6986 2.64229 13.8461 2.64906 13.9936L2.62875 14.3254C2.62029 14.3972 2.61352 14.4709 2.60675 14.5427C2.60844 14.764 2.61182 14.9852 2.61352 15.2064L2.71339 15.3112C2.79802 15.3675 2.79971 15.4529 2.77602 15.546C2.78448 15.579 2.79125 15.612 2.79125 15.6469C2.5712 15.9167 2.66091 16.2272 2.70492 16.5318C2.70154 16.5687 2.69815 16.6056 2.69477 16.6425C2.69477 16.7104 2.69477 16.7783 2.69477 16.8462C2.69984 16.9976 2.70662 17.147 2.71339 17.2945C2.72185 17.4517 2.6643 17.6283 2.80987 17.7467C2.83865 17.7059 2.86912 17.6671 2.89789 17.6283C2.89958 17.6031 2.90128 17.5778 2.90297 17.5545C2.89958 17.4556 2.88096 17.3663 2.80818 17.3042C2.8251 17.2945 2.84034 17.2809 2.85388 17.2596C2.87589 17.2052 2.89112 17.1528 2.90297 17.0985C2.90297 17.2363 2.90466 17.3721 2.90466 17.5099C2.93682 17.475 2.96898 17.44 2.99945 17.4071C2.97745 17.2693 3.04177 17.1063 2.92159 16.9976C2.94867 16.8113 2.92667 16.625 2.84203 16.4426C2.83018 16.4329 2.81833 16.4251 2.80818 16.4193C2.87589 16.4096 2.93175 16.3688 2.97914 16.3126C3.02992 16.2505 3.06378 16.1787 3.08409 16.0972C3.11117 15.9244 3.11794 15.7576 3.00284 15.6178C3.16026 15.4102 3.13995 15.1928 3.01807 14.9677C3.013 14.9658 3.00961 14.9658 3.00453 14.9639C3.02654 14.9309 3.03839 14.894 3.04008 14.8513C3.02654 14.764 3.01469 14.6747 2.99607 14.5971C3.00284 14.3254 3.0113 14.0518 3.01807 13.7801C3.05701 13.7044 3.05701 13.6268 3.01977 13.5511C3.00622 13.5414 2.99607 13.5336 2.98422 13.5259C2.98422 13.425 2.98422 13.3221 2.98422 13.2193C2.98422 13.097 2.98422 12.9748 2.98591 12.8506C2.99607 12.837 3.00792 12.8214 3.01807 12.8059C3.02654 12.7632 3.01977 12.7225 2.99776 12.6856C3.00622 12.6817 3.01469 12.6798 3.02315 12.674C3.06885 12.606 3.08747 12.5284 3.08917 12.443C3.08578 12.3576 3.06378 12.2781 3.01977 12.2063C3.07055 12.1422 3.07224 12.0607 3.05701 11.9734C3.04177 11.9288 3.01638 11.8919 2.98083 11.8647C2.96898 11.8589 2.95714 11.8531 2.94359 11.8512C3.0113 11.7367 3.08409 11.6222 2.99438 11.4689C2.85388 11.302 2.90805 11.1001 2.91482 10.9061C2.96391 10.778 3.0113 10.6499 2.94529 10.5102C2.93175 10.4889 2.91313 10.4733 2.89451 10.4617C2.88943 10.287 2.88435 10.1124 2.87758 9.93579C2.87758 9.78443 2.87927 9.63112 2.87927 9.47976C2.88943 9.44677 2.8962 9.41184 2.90297 9.37885C2.8488 9.05089 3.00961 8.69188 2.8031 8.38332C2.80648 8.7501 2.81156 9.11881 2.81664 9.48558C2.77771 9.48558 2.74047 9.48752 2.70154 9.48946C2.68122 9.27405 2.77432 9.04118 2.62706 8.84713C2.56612 9.01596 2.67953 9.23136 2.5255 9.37691C2.53227 9.2954 2.53057 9.21196 2.52042 9.13045C2.50518 9.04895 2.4781 8.97908 2.42224 8.92669C2.47641 8.83354 2.4544 8.72681 2.45102 8.62202C2.44255 8.50946 2.44594 8.39497 2.4307 8.2863C2.4307 8.06507 2.37992 7.83802 2.4307 7.62456H2.46625L2.50349 7.62844C2.51365 7.77204 2.52211 7.91758 2.53057 8.06313C2.5255 8.1718 2.51872 8.28047 2.51365 8.39109C2.60844 8.22614 2.70662 8.21838 2.80479 8.38721C2.83865 8.35034 2.85896 8.30182 2.86912 8.24748C2.86742 8.23002 2.86404 8.21061 2.86234 8.19121C2.94021 8.03402 2.89112 7.85354 2.88773 7.68083C2.89789 7.62456 2.90635 7.56828 2.91143 7.51006C2.94021 7.50618 2.96898 7.5023 2.99945 7.5023C3.00622 7.58574 3.01469 7.66919 3.02315 7.76234C3.13995 7.65172 3.05362 7.512 3.09425 7.40139H3.13487H3.17719C3.18396 7.54499 3.19242 7.68859 3.19919 7.83414C3.20089 8.0903 3.20258 8.35034 3.20427 8.60649C3.20089 8.82772 3.1975 9.04701 3.19581 9.26629C3.18057 9.27211 3.16365 9.27794 3.14672 9.28764C3.12979 9.31481 3.11625 9.34391 3.10609 9.37496C3.07563 9.37691 3.04516 9.37885 3.01469 9.38079C3.00961 9.74368 3.00284 10.1085 2.99776 10.4714C3.05362 10.4268 3.07732 10.3724 3.08747 10.3123C3.11287 10.386 3.16703 10.4481 3.28044 10.4792C3.27367 10.483 3.26352 10.4869 3.25505 10.4927C3.19919 10.5995 3.19242 10.7023 3.26521 10.8032L3.27367 11.1797C3.26013 11.1855 3.2449 11.1914 3.23305 11.1991C3.12641 11.2942 3.17888 11.4009 3.21273 11.5077C3.21612 11.5213 3.21951 11.5348 3.22289 11.5484C3.13995 11.7328 3.20935 11.9443 3.1738 12.1384C3.1518 12.1616 3.14503 12.1849 3.1501 12.2102C3.15688 12.2354 3.16365 12.247 3.17211 12.247L3.1975 12.2315C3.21443 12.4527 3.08578 12.672 3.18734 12.8952C3.2212 12.8758 3.2432 12.8506 3.25844 12.8234C3.25167 12.9088 3.2449 12.9922 3.22289 13.0737C3.20935 13.1494 3.21104 13.227 3.23305 13.3008C3.25505 13.3473 3.28891 13.3784 3.33122 13.3997C3.3363 13.3997 3.34138 13.3997 3.34646 13.3997C3.32615 13.4308 3.30922 13.4638 3.29906 13.4968C3.27875 13.4812 3.24659 13.4696 3.19919 13.4657C3.18565 13.5705 3.1755 13.6772 3.16195 13.7801C3.16872 14.1469 3.1738 14.5136 3.18057 14.8785C3.21443 14.8785 3.24828 14.8785 3.28214 14.8785C3.28383 14.6223 3.28721 14.3681 3.28891 14.1119C3.32276 14.1119 3.35492 14.11 3.39047 14.1081C3.40232 14.207 3.34307 14.3273 3.45141 14.3933C3.46833 14.403 3.52758 14.37 3.52758 14.3623C3.51912 14.2769 3.50219 14.1934 3.48695 14.1081C3.54451 14.1061 3.60206 14.1042 3.6613 14.1022C3.60544 14.0343 3.54789 13.9683 3.49372 13.9004C3.5462 13.7917 3.59867 13.6811 3.65115 13.5725C3.61898 13.489 3.59529 13.3959 3.51912 13.3551C3.55466 13.3221 3.58005 13.2814 3.59529 13.229C3.6156 13.0834 3.63422 12.9398 3.65453 12.7943C3.58682 12.6837 3.64945 12.5381 3.58005 12.4275C3.57497 12.4256 3.5682 12.4236 3.56313 12.4197C3.57497 12.3576 3.58682 12.2955 3.59867 12.2315C3.58344 12.1713 3.5682 12.1073 3.55297 12.0472C3.5682 12.0413 3.58513 12.0355 3.60037 12.0239C3.64945 11.921 3.73409 11.824 3.64438 11.6959C3.62914 11.6571 3.61221 11.6202 3.59698 11.5814C3.58344 11.4689 3.5699 11.3544 3.55805 11.2399C3.56651 11.1312 3.57667 11.0206 3.58682 10.9119C3.54451 10.8032 3.60714 10.6577 3.49542 10.5742C3.62406 10.3996 3.4074 10.223 3.49542 10.0464C3.5699 9.93579 3.57667 9.8116 3.55805 9.67964C3.54958 9.64083 3.53943 9.60395 3.52589 9.56514C3.60206 9.48364 3.55128 9.31675 3.66977 9.26435C3.66638 9.1518 3.6613 9.03924 3.65792 8.92669C3.65792 8.67247 3.65792 8.41826 3.65622 8.16404C3.62745 8.16598 3.59867 8.16598 3.5699 8.16404C3.55805 7.86907 3.63422 7.55858 3.46664 7.28689C3.50557 7.18792 3.58175 7.16852 3.66638 7.17434V7.17822L3.66977 7.17434C3.69685 7.50036 3.80518 7.81667 3.77133 8.1524C3.90844 8.0379 3.83057 7.86131 3.86781 7.71964C3.80518 7.5023 3.97953 7.23838 3.76456 7.05596C3.7324 7.06567 3.70701 7.08701 3.68669 7.11418C3.73409 6.94147 3.75271 6.7707 3.64099 6.60769C3.60883 6.61351 3.58175 6.62515 3.55805 6.64068C3.53266 6.63292 3.50896 6.62515 3.48357 6.61545C3.48018 6.5844 3.47849 6.55141 3.47849 6.52036C3.85427 6.41557 3.5919 6.07597 3.66469 5.85862C3.66638 5.85668 3.66807 5.85474 3.66977 5.8528C3.69685 5.91102 3.7307 5.96341 3.78826 5.99252C3.8238 5.98864 3.85258 5.97118 3.87458 5.94789C3.87458 6.09926 3.8238 6.25644 3.92367 6.39422C3.92875 6.40005 3.93383 6.40199 3.93891 6.40781C3.9406 6.41557 3.94398 6.42527 3.94568 6.43304C3.90675 6.49513 3.90336 6.56306 3.9406 6.63292C3.94568 6.69113 3.95076 6.74935 3.95583 6.80563C3.94398 6.85608 3.9406 6.90848 3.93891 6.96088C3.94229 7.02685 3.94906 7.09089 3.96768 7.14717C3.96768 7.23062 3.96938 7.316 3.97107 7.40139C3.94568 7.46737 3.92875 7.53917 3.91013 7.60903C3.90336 7.65561 3.90336 7.70218 3.90844 7.74681C3.9169 7.81667 3.92875 7.88459 3.93552 7.95251C3.9406 8.01461 3.94398 8.07477 3.94906 8.13687C3.92537 8.33287 3.9626 8.52499 4.03708 8.72099C4.03708 8.79473 4.03878 8.86653 4.03878 8.94027C4.04724 8.97132 4.05232 9.00431 4.0557 9.0373C4.05401 9.10328 4.05401 9.16732 4.05232 9.2333C4.02862 9.2333 4.00323 9.23718 3.97784 9.24495C3.83904 9.35944 3.84412 9.53215 3.83227 9.69904C3.83227 9.70292 3.83227 9.70486 3.83227 9.70681C3.81026 9.70681 3.78656 9.70486 3.76287 9.70486C3.76287 9.74174 3.76287 9.78055 3.76117 9.81742C3.76794 9.95714 3.77302 10.0969 3.77979 10.2366C3.8018 10.2463 3.8238 10.2521 3.8475 10.2541C3.85427 10.3142 3.86612 10.3744 3.88643 10.4326C3.89151 10.4442 3.89828 10.4539 3.90336 10.4636C3.85935 10.4559 3.82211 10.485 3.78826 10.5277C3.78318 10.549 3.77641 10.5704 3.76964 10.5917C3.83734 10.7081 3.83904 10.9449 4.05063 10.7897C4.05063 10.7179 4.05063 10.646 4.05063 10.5742C4.18096 10.5723 4.3113 10.5723 4.44164 10.5704L4.43149 10.6169C4.46365 10.6072 4.49581 10.5956 4.52797 10.5859C4.61768 10.3336 4.58552 10.0775 4.5449 9.8213C4.53305 9.67382 4.5212 9.52633 4.50935 9.37885C4.51443 9.1615 4.51951 8.94221 4.52289 8.72293C4.52628 8.64919 4.52966 8.5735 4.53305 8.49976C4.53135 8.42214 4.52797 8.34451 4.52628 8.26689C4.53474 8.15822 4.5432 8.04954 4.55167 7.94087C4.55336 7.72159 4.55505 7.50036 4.55675 7.28107C4.5432 7.27525 4.52966 7.27137 4.51612 7.26555C4.52797 7.19569 4.53643 7.12777 4.54828 7.0579C4.62107 6.94729 4.60922 6.82115 4.59229 6.69696C4.6143 6.72606 4.64138 6.75323 4.67862 6.77652C4.7074 6.7804 4.73448 6.7804 4.75818 6.7707C4.80219 6.96476 4.74971 7.15299 4.71925 7.34123C4.71247 7.48095 4.70909 7.62067 4.80896 7.72741L4.92914 7.93699C4.89529 8.08253 4.82927 8.22614 4.90714 8.37944C4.87667 8.37944 4.84789 8.37944 4.81912 8.38721L4.82419 9.14792C4.90883 9.16344 4.98669 9.15374 5.02732 9.04895C5.19151 8.98491 4.98162 8.79085 5.11703 8.71711C5.11365 8.68023 5.11026 8.6453 5.10688 8.60649C5.0544 8.54051 5.08149 8.43184 5.01208 8.37556C5.0087 8.37362 5.00701 8.37362 5.00531 8.37362C5.02055 8.35616 5.03917 8.33869 5.0544 8.32317C5.11026 8.18538 5.11534 8.05731 5.01039 7.95251C5.0307 7.94475 5.04763 7.92729 5.06456 7.90206C5.08318 7.85355 5.09672 7.80309 5.10857 7.75457C5.11026 7.85355 5.11026 7.95252 5.11195 8.05149L5.15427 8.05342L5.19659 8.04954C5.20167 7.83414 5.20675 7.61679 5.21182 7.40139C5.21182 7.18016 5.21013 6.95893 5.21013 6.73577C5.18643 6.73577 5.16443 6.73577 5.14073 6.73577C5.14581 6.56111 5.19828 6.38646 5.15766 6.20987C5.14242 6.17688 5.1255 6.14583 5.10349 6.12254C5.10688 6.10508 5.11026 6.08955 5.11365 6.07403C5.0087 5.90908 5.00193 5.72084 5.01547 5.52872C5.16781 5.61411 5.19997 5.57336 5.15935 5.38318C5.07641 5.01059 5.17966 4.66128 5.29646 4.3178C5.26599 4.27704 5.22706 4.25376 5.18305 4.24405C4.93253 4.23241 4.80219 4.35079 4.84958 4.64964C4.84789 4.64964 4.8462 4.64964 4.84451 4.64964C4.84112 4.7195 4.83774 4.78936 4.83435 4.85922C4.85635 4.87086 4.8699 4.88445 4.88344 4.89803C4.88513 5.01447 4.87159 5.12896 4.8682 5.2454C4.8699 5.25316 4.8699 5.26092 4.8699 5.26674C4.84451 5.22987 4.80727 5.19688 4.75141 5.17165C4.48565 5.43169 4.66339 5.81399 4.54997 6.11672C4.54828 6.12836 4.54659 6.14001 4.5432 6.14971C4.50258 6.13613 4.46026 6.14971 4.41625 6.1827C4.43656 6.02939 4.45688 5.87415 4.47042 5.71696C4.49073 5.7286 4.51273 5.74219 4.53305 5.75577C4.48734 5.58306 4.61938 5.3366 4.43149 5.22211C4.41794 5.17748 4.40102 5.13672 4.37563 5.09791C4.36547 5.08821 4.35531 5.08239 4.34516 5.07463C4.45518 4.89803 4.37224 4.71562 4.34516 4.53708C4.50596 4.38184 4.40271 4.16837 4.43656 3.98596C4.62276 3.80354 4.49581 3.61919 4.43656 3.43677C4.52797 3.39602 4.51612 3.30287 4.5212 3.21748C4.64984 3.05059 4.44672 3.00014 4.43149 2.8837C4.44503 2.79832 4.43995 2.70323 4.53305 2.66636C4.53643 2.47036 4.5432 2.27242 4.41287 2.11523C4.58383 1.93088 4.50089 1.6786 4.54828 1.46125C4.58891 1.38169 4.59229 1.30407 4.5432 1.22838C4.53474 1.0906 4.48057 0.999394 4.35023 0.993572C4.34516 0.964463 4.34177 0.935354 4.33839 0.906245C4.31977 0.890721 4.29945 0.875196 4.28083 0.857731C4.20466 0.836384 4.13695 0.853849 4.07771 0.912067C3.88813 1.19927 4.05401 1.50201 4.04385 1.79697C4.0574 1.87266 4.08617 1.93864 4.13695 1.98715C4.1251 1.99685 4.11326 2.00656 4.1031 2.02208C4.05232 2.11523 4.03878 2.21808 4.03708 2.32675C4.03708 2.48588 4.06586 2.63919 4.15388 2.77115C4.1725 2.79638 4.19281 2.81966 4.21313 2.84101C4.20635 2.84101 4.19958 2.84101 4.19112 2.84295C4.08787 2.91863 4.07602 3.02343 4.12172 3.14568C4.1268 3.14956 4.13018 3.15539 4.13526 3.16121C4.06755 3.2757 4.05909 3.37273 4.19451 3.42707C4.10141 3.50857 4.06586 3.62307 4.07602 3.76473C4.08448 3.8113 4.10141 3.85206 4.1268 3.88893C4.19112 3.93356 4.26729 3.93162 4.33669 3.95491C4.28591 4.00536 4.26729 4.0597 4.26391 4.11792C4.23513 4.09851 4.18943 4.08881 4.1251 4.09657C4.0794 4.16061 4.06078 4.23629 4.05909 4.3178C4.06417 4.40124 4.09633 4.47304 4.14372 4.5332C4.32315 4.67875 4.09294 4.91938 4.23005 5.07463C4.19451 5.11538 4.16742 5.16389 4.15219 5.22017C4.1505 5.22793 4.1505 5.23569 4.14711 5.24346C4.07771 5.30555 4.03539 5.38706 4.04385 5.50738L4.03708 5.51902C3.98122 5.55395 3.92537 5.58888 3.86951 5.62381C3.86951 5.51514 3.86781 5.40841 3.86781 5.29973C3.86612 5.27645 3.86443 5.25122 3.86104 5.22793C3.85766 5.16195 3.85935 5.09597 3.85935 5.02999C3.85935 4.93878 3.85935 4.84952 3.86104 4.75637C3.83565 4.75637 3.81026 4.75249 3.78487 4.74667C3.78318 4.63799 3.78149 4.53126 3.77979 4.42259C3.80518 4.37795 3.81534 4.32944 3.81195 4.27704C3.8001 4.23435 3.77641 4.2033 3.74594 4.18584C3.73578 4.00342 3.84412 3.79966 3.66469 3.64829C3.67146 3.82683 3.67823 4.00536 3.685 4.18196C3.65453 4.19554 3.62914 4.21883 3.60883 4.25182C3.59021 4.29257 3.58005 4.33332 3.5699 4.37601C3.55974 4.30809 3.56313 4.23241 3.4768 4.21689C3.56143 4.05582 3.55466 3.89863 3.46156 3.74338C3.46833 3.46006 3.54789 3.16703 3.38708 2.90311C3.38201 2.98849 3.37862 3.07388 3.37354 3.15733C3.36339 3.02148 3.32107 2.87788 3.38708 2.75562C3.49203 2.6877 3.45818 2.56351 3.48018 2.46065C3.51573 2.48782 3.55297 2.51499 3.59021 2.54216C3.59021 2.54216 3.59021 2.5441 3.59021 2.54604V2.54216C3.59021 2.77309 3.59021 3.00402 3.59021 3.23495C3.62914 3.32422 3.65284 3.43289 3.76456 3.44259L3.75271 2.77891C3.77641 2.66054 3.7324 2.51499 3.85258 2.42961C3.91352 2.19674 3.71547 2.01626 3.75609 1.78921C3.76625 1.71159 3.77641 1.63397 3.78826 1.55634C3.77302 1.37587 3.75948 1.19539 3.74425 1.01492C3.81703 0.906245 3.65622 0.78981 3.7544 0.683078V0.467673C3.7544 0.32601 3.7544 0.182407 3.7544 0.0388031H3.20935C3.21951 0.067912 3.23813 0.0989614 3.26352 0.124189C3.2669 0.130011 3.26859 0.135833 3.27029 0.141655C3.26013 0.170763 3.24997 0.201812 3.24659 0.232862C3.24659 0.234803 3.24659 0.236743 3.24828 0.238684C3.23135 0.244506 3.21273 0.246446 3.19581 0.252268C3.13318 0.318248 3.07055 0.382287 3.00961 0.448267L2.98591 0.238684C2.9876 0.172704 2.9893 0.104783 2.99099 0.0388031H2.80479C2.80818 0.0989614 2.82172 0.16106 2.85727 0.217337C2.86065 0.221218 2.86404 0.223159 2.86742 0.22704C2.82003 0.197931 2.77602 0.168823 2.72862 0.141655C2.73201 0.139714 2.7337 0.137773 2.73539 0.137773C2.75401 0.104783 2.76755 0.0717929 2.77602 0.0388031H2.30544C2.30544 0.182407 2.30544 0.324069 2.30544 0.467673C2.31729 0.615157 2.32745 0.762642 2.3393 0.908186C2.33591 1.12165 2.33422 1.33511 2.33083 1.54858C2.36469 1.51947 2.39854 1.49036 2.43409 1.45931C2.54412 1.42826 2.61182 1.52917 2.69815 1.57575C2.66599 1.71935 2.63383 1.86295 2.60167 2.00656C2.6643 1.9367 2.72862 1.86684 2.79294 1.79697C2.79464 1.85325 2.79633 1.90953 2.79802 1.96581C2.78279 2.0182 2.76417 2.0706 2.73201 2.11329C2.66768 2.16763 2.60167 2.13658 2.53734 2.11717C2.53396 2.04537 2.52042 1.97357 2.49841 1.90371C2.4781 1.84937 2.44425 1.80668 2.39854 1.77563C2.37315 1.77757 2.34776 1.78145 2.32237 1.78339C2.31898 2.00074 2.31391 2.22002 2.30883 2.43931C2.1988 2.49753 2.10909 2.23749 2.06 2.35198C1.95844 2.59067 2.15818 2.68188 2.30714 2.77697C2.31898 2.9982 2.32914 3.21748 2.34099 3.43677L2.30206 3.42901C2.31221 3.68322 2.32068 3.9355 2.32914 4.18972C2.51195 4.05 2.37146 3.82101 2.44086 3.65218C2.47641 3.58231 2.47133 3.51245 2.44932 3.44259C2.43747 3.43095 2.42732 3.42513 2.41716 3.41931C2.4781 3.36497 2.46625 3.29511 2.44086 3.22136L2.42901 2.66636C2.57966 2.59262 2.68969 2.29377 2.8962 2.55574C2.93005 2.55574 2.96221 2.5538 2.99607 2.55186C2.99607 2.62755 2.99607 2.70129 2.99607 2.77697C2.97745 2.98461 2.99268 3.18643 3.07055 3.37467C3.05701 3.37855 3.04346 3.38437 3.03162 3.39214C2.89112 3.63859 2.81833 3.88699 3.03331 4.1315C3.05531 4.14508 3.07901 4.14508 3.10271 4.13926C3.10271 4.2033 3.10271 4.26734 3.10271 4.33332C3.06378 4.43617 3.02484 4.53902 2.98591 4.64187C2.99268 4.67875 2.99945 4.71368 3.00622 4.75055C3.00622 4.75055 2.9893 4.75637 2.9876 4.75637C2.99099 4.78354 2.99438 4.81071 2.99776 4.83593C2.98591 4.84564 2.97576 4.85728 2.96391 4.86892C2.95375 4.92714 2.94529 4.98536 2.94359 5.04358C2.9199 5.01059 2.88435 4.97954 2.83018 4.95431C2.75401 5.01641 2.74555 5.09791 2.78279 5.19106C2.64568 5.11538 2.61859 5.33272 2.53396 5.39482C2.61352 5.24346 2.63552 5.09209 2.51026 4.95431C2.50349 4.95431 2.49841 4.95625 2.49333 4.95625C2.49672 4.95625 2.49841 4.95237 2.5001 4.95043C2.40531 4.81653 2.42224 4.68457 2.50857 4.55455C2.46625 4.48081 2.44932 4.35467 2.32914 4.44005C2.29529 4.4711 2.26143 4.50215 2.22758 4.53514C2.21573 4.44976 2.22758 4.30809 2.19034 4.28869C2.11247 4.24599 2.06508 4.35273 2.02445 4.42647C2.02953 4.53514 2.03461 4.64382 2.038 4.75249L2.12771 5.00864C1.92966 5.26286 2.07693 5.56753 2.038 5.84504C2.24958 5.71502 2.07016 5.48797 2.13617 5.32108C2.1531 5.32884 2.17172 5.33078 2.19034 5.32496C2.18865 5.32884 2.18695 5.33466 2.18526 5.33854C2.18526 5.46856 2.15818 5.6044 2.23096 5.72278C2.11586 5.80234 2.19372 5.96147 2.12432 6.06238C2.12432 6.06238 2.1294 6.07209 2.13448 6.07791C2.1057 6.07209 2.07354 6.07209 2.038 6.08179C1.99398 6.17106 1.97029 6.26032 1.97198 6.34571C1.95167 6.31854 1.92458 6.29331 1.88565 6.27003C1.87042 6.27585 1.86026 6.28361 1.84841 6.29137C1.92289 6.20793 1.9432 6.10508 1.92966 5.99058C1.92289 5.94983 1.90935 5.9149 1.89242 5.87997C2.01768 5.66844 1.89919 5.42005 1.93135 5.19494C1.93813 4.9349 1.9432 4.6768 1.94828 4.41871L1.91781 4.43423C1.95336 4.24793 1.9906 4.06164 2.02615 3.87534C1.96859 3.84235 1.91104 3.8113 1.85349 3.77831C1.84333 3.91804 1.83318 4.05582 1.82302 4.1936C1.83148 4.2654 1.84164 4.3372 1.8501 4.409C1.84503 4.41289 1.84164 4.41483 1.83656 4.41871C1.83656 4.43229 1.83656 4.44782 1.83656 4.4614C1.78578 4.3993 1.74685 4.41677 1.7113 4.4614C1.71638 4.40706 1.72654 4.35273 1.75193 4.30421C1.78409 4.0791 1.80779 3.854 1.64359 3.67158C1.4794 3.76861 1.59112 3.94908 1.54711 4.08104C1.36938 3.95491 1.54711 3.67934 1.37615 3.55127C1.26781 3.75891 1.37276 3.97819 1.34568 4.18972C1.3169 4.30033 1.36768 4.33332 1.45063 4.34108C1.46586 4.33138 1.4794 4.32168 1.49294 4.31197C1.59281 4.39154 1.57589 4.46722 1.46925 4.5429C1.40831 4.5429 1.34737 4.5429 1.28643 4.54485C1.28643 4.58366 1.28643 4.62053 1.28643 4.65934C1.25596 4.57978 1.19672 4.50215 1.10701 4.42453C1.11208 4.41483 1.11885 4.40706 1.12393 4.39348C1.13917 4.32168 1.12732 4.2557 1.08331 4.20136C0.95297 4.13732 1.08331 4.05388 1.06977 3.98207C1.00883 3.98402 0.946199 3.98596 0.883568 3.98984C0.89034 3.81324 0.81586 3.79966 0.700756 3.8734C0.702448 4.01312 0.702449 4.15479 0.704141 4.29645C0.766771 4.22659 0.826016 4.15479 0.888646 4.08687C0.910652 4.23629 0.819245 4.41871 0.988516 4.5235C1.12055 4.60694 1.07823 4.74278 1.06638 4.86698C1.05622 4.89997 1.04607 4.93102 1.0376 4.96401C1.02068 4.92714 0.99698 4.89415 0.961433 4.8631C0.873412 4.86698 0.783699 4.86892 0.695678 4.87086C0.693985 4.94267 0.692292 5.01641 0.6906 5.08821C0.651667 5.12314 0.612735 5.15807 0.573803 5.19494C0.573803 5.30167 0.573803 5.40841 0.573803 5.51514C0.583959 5.55395 0.595808 5.59082 0.605964 5.62769C0.551798 5.84504 0.683829 6.10314 0.495938 6.29137C0.575496 6.42527 0.614428 6.56888 0.594115 6.72995C0.455313 6.79398 0.512866 6.94729 0.477318 7.0579C0.49086 7.12971 0.504402 7.19957 0.516251 7.26943C0.517943 7.44602 0.470548 7.62844 0.536563 7.79727C0.533178 7.80309 0.531485 7.80891 0.5281 7.81279C0.501016 7.92341 0.502709 8.03014 0.568725 8.12523C0.57211 8.14269 0.575496 8.1621 0.577188 8.17956C0.49086 8.18927 0.445157 8.22614 0.424844 8.27659C0.412995 8.26495 0.401146 8.25913 0.39099 8.25525C0.519636 8.10582 0.529792 7.93699 0.448542 7.75263C0.429923 7.72741 0.411303 7.71188 0.389298 7.70218C0.399454 7.48871 0.407917 7.27137 0.418074 7.0579C0.435 7.03268 0.441771 7.00939 0.438386 6.98222C0.435 6.95699 0.429923 6.94341 0.424844 6.94341C0.411303 6.93177 0.397761 6.92789 0.384219 6.92594L0.399454 6.41363C0.218334 6.565 0.335131 6.76876 0.326667 6.94923C0.314818 7.01909 0.304662 7.08895 0.29112 7.15882C0.292813 7.27525 0.294506 7.38974 0.297891 7.50424C0.304662 7.56828 0.311433 7.63232 0.319896 7.69636C0.313126 7.69636 0.308048 7.69636 0.302969 7.6983C0.242032 7.81279 0.248803 7.93311 0.29112 8.05149C0.301276 8.12329 0.313125 8.19509 0.323282 8.26495C0.323282 8.5541 0.324975 8.84324 0.326667 9.13239H0.3656C0.418074 9.28376 0.377449 9.46811 0.492553 9.59619C0.497631 9.66411 0.501016 9.73397 0.506094 9.80383C0.511173 10.0289 0.51625 10.2541 0.519636 10.4811C0.517943 10.6208 0.512865 10.7586 0.511173 10.8983C0.565339 10.943 0.567032 11.073 0.605964 11.139C0.563646 11.1642 0.524714 11.1933 0.484089 11.2185C0.462084 11.2593 0.440079 11.302 0.418074 11.3427C0.40961 11.4533 0.401146 11.5639 0.392683 11.6746C0.396068 11.7134 0.399454 11.7522 0.402839 11.7891C0.465469 11.8356 0.5281 11.8822 0.59073 11.9268C0.592423 11.8861 0.595808 11.8453 0.597501 11.8046C0.67198 11.8065 0.746459 11.8123 0.787084 11.9035C0.937735 11.7794 0.868334 11.6086 0.863256 11.4495C0.873412 11.4184 0.881875 11.3854 0.885261 11.3524C0.885261 11.2767 0.885261 11.2011 0.886954 11.1254C0.870026 11.1137 0.8531 11.1001 0.83448 11.0885C0.827709 11.0885 0.822631 11.0885 0.817553 11.0885C0.900495 10.9624 0.908959 10.811 0.902188 10.6558C0.898803 10.5723 0.883568 10.4908 0.851407 10.4151C0.84125 10.3957 0.831094 10.3841 0.817553 10.3705C0.851407 10.3763 0.87849 10.355 0.886954 10.3123C0.902188 10.2327 0.854792 10.1803 0.795548 10.1473C0.795548 10.1454 0.795548 10.1415 0.795548 10.1396C0.805704 10.1473 0.819245 10.1551 0.837865 10.1628C1.05792 10.0018 0.998673 9.76502 0.966511 9.53603C0.939428 9.47587 0.919115 9.40795 0.885261 9.3575C0.888646 9.21584 0.892032 9.07417 0.895417 8.93251C0.883568 8.90146 0.870027 8.86847 0.856485 8.83548C0.863256 8.80443 0.868334 8.77532 0.876798 8.74621C0.89711 8.61814 0.89711 8.49006 0.873412 8.36198C0.863256 8.30764 0.849714 8.25331 0.839558 8.19897C0.848021 8.1815 0.859871 8.16404 0.868334 8.14851C0.876798 8.07865 0.873412 8.01461 0.832787 7.97192C0.836173 7.93893 0.839558 7.90788 0.841251 7.87489C0.839558 7.81861 0.824323 7.7701 0.795548 7.73129C0.79724 7.73129 0.800626 7.73129 0.802318 7.73129H0.805704C1.20857 7.49454 0.892032 8.04178 1.06977 8.04954C1.07315 8.3775 1.07315 8.70546 1.07484 9.03342H1.11378L1.15271 9.03536C1.15609 8.7074 1.16117 8.37944 1.16625 8.04954L1.17979 7.61873C1.23734 7.53723 1.25935 7.44602 1.22719 7.34317L1.22888 7.34123Z" fill="#E1067E"/>
</g>
</svg>
