<svg width="2" height="6" viewBox="0 0 2 6" fill="none" xmlns="http://www.w3.org/2000/svg">
<mask id="mask0_3_2647" style="mask-type:luminance" maskUnits="userSpaceOnUse" x="0" y="0" width="2" height="6">
<path d="M0 0H1.3V5.36184H0V0Z" fill="white"/>
</mask>
<g mask="url(#mask0_3_2647)">
<path d="M0.204811 0.461851C0.299602 0.525891 0.377467 0.648148 0.511191 0.574405C0.519654 0.547237 0.526426 0.518128 0.529811 0.489019C0.54166 0.52395 0.558587 0.551118 0.587363 0.574405C0.443483 0.72189 0.465488 0.943117 0.402858 1.12747C0.365618 1.32929 0.348691 1.53306 0.428248 1.73099C0.450253 1.76787 0.473951 1.78921 0.499342 1.79697C0.495956 1.90759 0.462102 2.02402 0.556894 2.10553C0.451946 2.2142 0.411321 2.35974 0.389316 2.51693C0.37916 2.77309 0.389316 3.02731 0.448561 3.27764C0.472259 3.32228 0.507806 3.35332 0.550123 3.37467C0.550123 3.37467 0.551816 3.37467 0.553509 3.37467C0.521347 3.42125 0.499342 3.4717 0.4858 3.5241C0.484108 3.50275 0.484108 3.4814 0.482415 3.46006C0.46041 3.45424 0.438404 3.4523 0.416399 3.4523C0.414706 3.69875 0.413014 3.94326 0.411321 4.18972C0.426555 4.15479 0.443483 4.11792 0.46041 4.08104C0.463795 4.18196 0.470566 4.28093 0.497649 4.37795C0.502727 4.39348 0.507806 4.40706 0.514576 4.41871C0.475644 4.42841 0.46041 4.46916 0.470566 4.5429C0.507805 4.69039 0.545045 4.83787 0.582285 4.98536C0.753248 4.86504 0.66692 4.68263 0.665228 4.52156C0.677077 4.41677 0.688926 4.31197 0.699082 4.20524C0.690618 3.9161 0.682154 3.62501 0.673691 3.33392C0.707545 3.25824 0.743092 3.18061 0.776946 3.10493C0.771868 3.03507 0.768483 2.96327 0.763405 2.89341C0.607675 2.64307 0.810801 2.35198 0.694004 2.09777C0.687233 2.09388 0.678769 2.09194 0.671998 2.09C0.677077 1.96775 0.705852 1.83967 0.636451 1.73682C0.739707 1.59321 0.697389 1.39333 0.770175 1.23615C0.76679 1.00716 0.765097 0.776226 0.761712 0.545297C0.807415 0.506484 0.841269 0.452149 0.863274 0.384228C0.89205 0.265852 0.907285 0.149417 0.91067 0.0329819H0.514576C0.507806 0.0640313 0.49765 0.0950806 0.480722 0.12613C0.475644 0.135833 0.470566 0.145536 0.467181 0.155238C0.392701 0.271674 0.126946 0.184347 0.204811 0.465732V0.461851Z" fill="#E1067E"/>
</g>
</svg>
