<svg width="1" height="2" viewBox="0 0 1 2" fill="none" xmlns="http://www.w3.org/2000/svg">
<path d="M0.428255 0.0352053C0.385938 -0.0133098 0.347005 -0.0113685 0.308073 0.0390865C0.299609 0.174928 0.291146 0.306887 0.282682 0.440788C0.221745 0.504827 0.172656 0.576629 0.142188 0.663955C0.128646 0.605738 0.0930988 0.570807 0.0169271 0.58051C0.0118489 0.830846 0.00507823 1.08118 0 1.33152C0.030469 1.36645 0.0609378 1.40526 0.093099 1.44019C0.18112 1.33928 0.184505 1.22673 0.170964 1.11223C0.186198 1.12776 0.203125 1.13552 0.220052 1.14134C0.214974 1.31405 0.208203 1.48676 0.203125 1.65948C0.330078 1.65754 0.282682 1.46542 0.38763 1.43631C0.435026 1.36063 0.458724 1.28882 0.365625 1.23255C0.340235 1.20344 0.314844 1.17239 0.289453 1.14328C0.294531 1.14134 0.299609 1.14134 0.304688 1.13746C0.399479 1.03849 0.433333 0.902647 0.470573 0.768747C0.512891 0.576629 0.519661 0.38257 0.490885 0.186571C0.479036 0.130294 0.458724 0.0798384 0.428255 0.0352053Z" fill="#E1067E"/>
</svg>
