<svg width="1" height="2" viewBox="0 0 1 2" fill="none" xmlns="http://www.w3.org/2000/svg">
<path d="M0.106641 1.29631C0.164193 1.33318 0.223438 1.37005 0.282682 1.40693C0.431641 1.18958 0.333463 0.968353 0.291146 0.749066C0.292838 0.605463 0.296224 0.459919 0.299609 0.316316C0.355469 0.184355 0.352083 0.0853861 0.192969 0.0815046L0.191276 0.0989699C0.132031 0.0659796 0.0727866 0.0329898 0.0135417 0C0.0101565 0.0310494 0.00677094 0.0601581 0.00169271 0.089267C0.00169271 0.275563 0 0.459919 0 0.644275C0.0338546 0.673384 0.0660156 0.702492 0.0998698 0.729661C0.101563 0.917897 0.104948 1.10808 0.106641 1.29631Z" fill="#E1067E"/>
</svg>
