<svg width="1" height="4" viewBox="0 0 1 4" fill="none" xmlns="http://www.w3.org/2000/svg">
<path d="M0.0947917 0.127389C0.0829426 0.338913 0.104948 0.556259 0 0.748377C0.0253907 0.779426 0.052474 0.812416 0.0795573 0.843466C0.0558592 0.95796 0.104947 0.979307 0.179427 0.971544C0.179427 1.00259 0.18112 1.03364 0.182812 1.06469C0.179427 1.27039 0.177734 1.4761 0.176042 1.6818C0.0203125 1.78853 0.120182 1.96901 0.08125 2.10873C0.0897134 2.34548 0.0964845 2.58223 0.104948 2.81898C0.0981775 2.85779 0.093099 2.89855 0.0863281 2.93736C0.130338 3.04797 0.201432 3.10619 0.311458 3.09455C0.360547 3.08096 0.396094 3.04797 0.419792 2.99558C0.457031 2.85779 0.463802 2.72583 0.377474 2.60552C0.341927 2.58417 0.308072 2.57447 0.274219 2.57641C0.284375 2.45027 0.277604 2.32219 0.308073 2.19799C0.318229 2.15724 0.326693 2.11455 0.331771 2.07186C0.336849 2.00588 0.331771 1.94184 0.311458 1.87974C0.308073 1.87198 0.304687 1.86421 0.302995 1.85645C0.308073 1.85063 0.314844 1.84287 0.319922 1.83705C0.357162 1.76524 0.375781 1.68568 0.380859 1.60418C0.392708 1.43923 0.377474 1.2801 0.309766 1.13649C0.330078 1.15396 0.345313 1.17919 0.367318 1.19083C0.401172 1.19859 0.431641 1.19083 0.457031 1.16366C0.451953 1.06663 0.446875 0.969604 0.441797 0.872574C0.450261 0.868693 0.460417 0.866752 0.470573 0.860931C0.477344 0.860931 0.484114 0.847347 0.489193 0.820179C0.492578 0.793011 0.484114 0.765842 0.462109 0.740614C0.458724 0.538793 0.453646 0.333091 0.45026 0.12933C0.397786 0.193369 0.372396 0.26323 0.36224 0.333091C0.358854 0.288458 0.353776 0.241884 0.345313 0.19725C0.319922 0.0206572 0.236979 -0.105481 0.0964844 0.125449L0.0947917 0.127389Z" fill="#EFEEE8"/>
</svg>
