<svg width="1" height="8" viewBox="0 0 1 8" fill="none" xmlns="http://www.w3.org/2000/svg">
<path d="M0 1.63203C0.0389324 1.71354 -0.0423176 1.83968 0.0744792 1.88431C0.0795574 1.88625 0.108333 1.80475 0.126953 1.76011C0.1625 1.75817 0.198047 1.75623 0.233594 1.75429C0.223437 1.78534 0.221745 1.81833 0.228516 1.85132C0.220052 2.00269 0.211588 2.15405 0.203125 2.30542C0.209896 2.44708 0.216667 2.58874 0.22513 2.73041C0.252214 2.73623 0.279297 2.74011 0.309766 2.74205C0.304687 2.93999 0.297917 3.13987 0.292839 3.33975C0.252214 3.28929 0.201432 3.26213 0.126953 3.30094C0.121875 3.33393 0.115104 3.36692 0.104948 3.39797C0.111719 3.54545 0.11849 3.691 0.12526 3.83654C0.154036 3.83654 0.182813 3.83848 0.211589 3.84236C0.214974 3.98985 0.21836 4.13733 0.221745 4.28481C0.21836 4.4323 0.213281 4.57784 0.209896 4.72339C0.22513 4.87669 0.20651 5.0203 0.123568 5.14644C0.311458 5.33273 0.113411 5.64517 0.296224 5.8334C0.294531 5.90132 0.292838 5.96924 0.291146 6.03716C0.29961 6.21958 0.30638 6.40394 0.314844 6.58829C0.289453 6.70279 0.328385 6.84057 0.231901 6.93372C0.218359 6.96282 0.218359 6.98999 0.231901 7.01716C0.289453 7.02492 0.347005 7.03074 0.404557 7.03657C0.433333 7.03657 0.460417 7.03463 0.4875 7.03269C0.582292 6.8658 0.599219 6.67756 0.594141 6.48544C0.60599 6.40976 0.636458 6.34184 0.648307 6.26615C0.656771 6.1012 0.677083 5.92461 0.516276 5.90909C0.528125 5.87027 0.52474 5.83534 0.511198 5.79653C0.648307 5.62964 0.616146 5.42394 0.594141 5.22018C0.50612 4.99895 0.555208 4.73115 0.484115 4.5041C0.484115 4.4323 0.484115 4.35856 0.484115 4.28676C0.526432 4.17614 0.465495 4.02478 0.58737 3.94521C0.641537 3.88893 0.653386 3.81713 0.644922 3.73951C0.622917 3.65412 0.592448 3.57262 0.56875 3.48723C0.56875 3.42319 0.56875 3.35916 0.570443 3.29512C0.573828 3.18256 0.577213 3.07001 0.580599 2.95551C0.580599 2.66248 0.582292 2.36946 0.582292 2.07449C0.590755 2.00657 0.597526 1.93671 0.60599 1.86684C0.60599 1.79116 0.604297 1.71742 0.604297 1.6398C0.673698 1.52336 0.695703 1.40887 0.639844 1.30213C0.643229 1.27497 0.648307 1.24974 0.655078 1.22257C0.663542 1.10613 0.643229 1.00134 0.551823 0.931482C0.517969 0.914016 0.482422 0.906254 0.445182 0.902373C0.482422 0.811165 0.489193 0.708314 0.497656 0.607404C0.501041 0.66368 0.516276 0.714136 0.582292 0.745185C0.555208 0.49679 0.682162 0.227049 0.499349 0C0.495963 0.106732 0.492578 0.211524 0.490885 0.318256C0.385937 0.333781 0.26237 0.289147 0.198047 0.434691C0.385938 0.576355 0.159115 0.809225 0.270833 0.966412C0.182813 1.06538 0.142188 1.18958 0.108333 1.3196C0.082943 1.30407 0.0558597 1.3196 0.0270833 1.33512C0.0186199 1.43409 0.00846343 1.53306 0 1.63203Z" fill="#E1067E"/>
</svg>
