<svg width="3" height="15" viewBox="0 0 3 15" fill="none" xmlns="http://www.w3.org/2000/svg">
<path d="M2.77325 3.24186C2.7614 3.21663 2.75124 3.18947 2.74278 3.16036C2.70893 3.19723 2.67338 3.23022 2.63952 3.26515C2.61921 3.2962 2.60567 3.32725 2.59551 3.35636C2.59044 3.32337 2.58367 3.29038 2.57689 3.25739C2.50919 3.1196 2.6463 2.91584 2.46687 2.81493C2.40762 2.88479 2.37546 2.96048 2.35684 3.0381C2.35684 2.99347 2.35684 2.94883 2.35684 2.9042C2.40085 2.82852 2.3907 2.74119 2.36023 2.64998C2.36531 2.59371 2.37208 2.53743 2.37716 2.48309C2.32468 2.26769 2.46348 2.01347 2.27221 1.82717C2.30606 1.7088 2.33992 1.59042 2.37208 1.47011C2.40424 1.51086 2.43471 1.55161 2.46518 1.59236C2.63614 1.40413 2.54643 1.16932 2.55489 0.95391C2.37038 1.03736 2.55827 1.30904 2.38393 1.3983C2.37377 1.35367 2.36192 1.30904 2.35176 1.2644C2.3433 0.992722 2.31114 0.726862 2.17911 0.492051C2.24174 0.420249 2.30437 0.350388 2.36531 0.280527C2.40424 0.243656 2.44317 0.206785 2.4821 0.169914C2.47702 0.133042 2.46687 0.0981119 2.44994 0.0670625C2.27898 0.00302276 2.10294 -0.0823623 1.98614 0.171854C1.92859 0.230072 1.91335 0.303814 1.92182 0.387259C1.94044 0.466823 1.98106 0.52116 2.04877 0.544447C2.02676 0.583258 2.0183 0.627892 2.0183 0.678347C2.02507 0.767614 2.02169 0.856881 1.99122 0.942267C1.96752 1.01795 1.94213 1.09557 1.9726 1.16932C1.86257 1.21783 1.82702 1.31098 1.84564 1.43906C1.83887 1.43129 1.8338 1.42353 1.82702 1.41771C1.8084 1.38472 1.78301 1.35173 1.74577 1.3168C1.74577 1.31874 1.74577 1.32068 1.74577 1.32068C1.72885 1.30128 1.71361 1.27993 1.69499 1.26052C1.6696 1.25664 1.6476 1.26052 1.62898 1.26829C1.62729 1.23918 1.6239 1.20813 1.62221 1.17902C1.53249 1.21783 1.5308 1.31292 1.51726 1.40025C1.51895 1.40607 1.51895 1.41189 1.52064 1.41965C1.49187 1.55937 1.49525 1.68939 1.58666 1.79612C1.58327 1.80001 1.5782 1.80195 1.57481 1.80583C1.52742 1.87375 1.50372 1.95137 1.49187 2.03482C1.47494 2.22888 1.47156 2.41905 1.52064 2.60729C1.53757 2.65386 1.56296 2.69462 1.59682 2.72955C1.6239 2.73925 1.65268 2.74701 1.68314 2.75477C1.65945 2.84598 1.63575 2.93525 1.61036 3.02646C1.63067 3.04974 1.65606 3.06139 1.68145 3.06721C1.68145 3.16812 1.68145 3.26903 1.68145 3.36994C1.65945 3.41263 1.65945 3.45533 1.68653 3.49802C1.64252 3.5543 1.6476 3.61834 1.67976 3.6882C1.68484 3.80851 1.74408 3.94435 1.60697 4.02392C1.63236 4.06661 1.65775 4.1093 1.68484 4.152C1.68653 4.17334 1.69161 4.19469 1.69669 4.21604C1.68314 4.22574 1.6696 4.23738 1.65775 4.25097C1.5765 4.39845 1.5782 4.56146 1.59512 4.72641C1.60528 4.77881 1.62221 4.82732 1.64421 4.87195C1.65945 4.88942 1.67637 4.90494 1.6933 4.91659C1.6696 4.9457 1.65775 4.98257 1.65606 5.02526C1.66452 5.10871 1.67299 5.19409 1.6933 5.27366C1.68992 5.37263 1.68653 5.4716 1.68314 5.57057C1.68822 5.67924 1.6933 5.78597 1.69838 5.89464H1.74577C1.74577 5.89464 1.75593 5.89464 1.76609 5.89464C1.54096 6.1411 1.59174 6.41084 1.73054 6.68446C1.75255 6.67476 1.77455 6.66894 1.79486 6.667C1.79486 6.66894 1.79317 6.67088 1.79148 6.67476C1.74747 6.69222 1.71869 6.72521 1.70176 6.77373C1.70346 6.83777 1.70346 6.90375 1.70684 6.96779C1.68484 6.98137 1.66283 7.00078 1.64421 7.02989C1.56635 7.21036 1.57989 7.38113 1.67807 7.54802C1.68653 7.66834 1.69669 7.78866 1.70515 7.90897C1.67807 7.94584 1.65098 7.98659 1.63067 8.03123C1.60359 8.10303 1.59174 8.17871 1.58666 8.25634C1.58666 8.27962 1.58666 8.30291 1.58666 8.32426C1.51726 8.25051 1.44278 8.18648 1.3446 8.16901C1.30398 8.17677 1.28367 8.20394 1.26674 8.23499C1.22273 8.02541 1.19395 7.81194 1.21596 7.5946C1.24304 7.60818 1.27182 7.62371 1.29721 7.63729C1.31583 7.52085 1.28874 7.38501 1.40723 7.31515C1.40215 7.24723 1.39708 7.17737 1.39369 7.10945C1.37338 7.04929 1.3446 7.00078 1.29551 6.98913C1.28874 6.96973 1.28367 6.94838 1.2752 6.92898C1.26166 6.90957 1.24643 6.89599 1.23288 6.8824C1.38861 6.8824 1.36999 6.77567 1.33106 6.65729C1.32429 6.58549 1.31583 6.51369 1.30736 6.44383C1.33783 6.44383 1.3683 6.43995 1.39877 6.43801C1.59343 6.26335 1.38184 6.07512 1.414 5.89464C1.40554 5.78597 1.39708 5.6773 1.38861 5.56862C1.36661 5.39009 1.3446 5.21156 1.3226 5.03302C1.7407 4.99809 1.39538 4.64491 1.49864 4.47802C1.35137 4.5731 1.47156 4.81956 1.31413 4.90883C1.28705 4.90106 1.25827 4.89718 1.23119 4.89524L1.22442 4.68954C1.37169 4.48384 1.30059 4.24709 1.29382 4.02004C1.23966 3.9036 1.29213 3.76388 1.24981 3.64356C1.29044 3.6358 1.32937 3.62028 1.36492 3.59505C1.45124 3.49414 1.5071 3.38741 1.42416 3.24768C1.392 3.20887 1.35984 3.17006 1.32768 3.13125C1.32429 3.06139 1.31921 2.99153 1.31583 2.92166C1.3446 2.89644 1.37169 2.86927 1.40046 2.84404C1.27012 2.71402 1.33783 2.53355 1.30736 2.3783C1.24812 2.30844 1.18887 2.30844 1.12963 2.37636L1.12624 2.59565C1.09577 2.7082 1.067 2.81687 1.03653 2.92943C1.01622 3.15453 0.990827 3.38158 1.11778 3.58341C1.08223 3.61639 1.04669 3.65133 1.01283 3.68432C0.987441 3.71148 0.978978 3.73865 0.985749 3.76582C0.99252 3.79299 1.00098 3.80657 1.00775 3.80657C1.01791 4.0278 1.02807 4.24903 1.03822 4.47025C1.03314 4.50324 1.02468 4.53623 1.01622 4.56922C0.921426 4.69924 0.926504 4.84479 0.968822 4.99615C0.989134 5.17274 0.9739 5.35322 0.980671 5.52981C0.965436 5.52593 0.951895 5.53758 0.940046 5.56862C0.938353 5.75104 0.93666 5.93151 0.933275 6.11199C0.948509 6.11393 0.963744 6.11587 0.978978 6.11781C0.948509 6.30023 0.972207 6.4904 0.934967 6.67476C0.926504 6.70775 0.929889 6.7388 0.943431 6.76791C0.943431 6.80866 0.943431 6.84941 0.943431 6.88822C0.933275 6.96003 0.923119 7.02989 0.912962 7.10169C0.912962 7.46846 0.911269 7.83717 0.909577 8.20394C0.882493 8.27768 0.853717 8.35143 0.824941 8.42517C0.884186 8.64251 0.745384 8.89285 0.914655 9.09079C0.926504 9.49055 0.938353 9.89031 0.948509 10.2901C0.857103 10.389 0.887572 10.585 0.736921 10.6355C0.731842 10.6025 0.725072 10.5695 0.716608 10.5365C0.665827 10.4589 0.613353 10.3774 0.560879 10.2978C0.569342 10.2881 0.579499 10.2804 0.587962 10.2668C0.603197 10.2105 0.603197 10.1581 0.581191 10.1115C0.681061 10.0824 0.718301 9.99122 0.74877 9.89419C0.779238 9.59534 0.880801 9.28485 0.637051 9.03451C0.819863 8.88897 0.775853 8.63475 0.806322 8.41546C0.784317 8.32232 0.741999 8.2544 0.665827 8.22335C0.669212 8.20782 0.672597 8.19618 0.67429 8.18065C0.660749 8.10691 0.620124 8.06034 0.562572 8.03317C0.560879 7.98465 0.560879 7.9342 0.559186 7.88374C0.660749 7.79642 0.633665 7.66058 0.653978 7.5422C0.6489 7.50145 0.645514 7.4607 0.640436 7.418C0.660749 7.37337 0.675983 7.32486 0.687832 7.2744C0.716608 7.01242 0.692911 6.76403 0.564264 6.53698C0.489786 6.48652 0.420384 6.49817 0.354368 6.55832C0.38653 6.87852 0.328978 7.18901 0.281582 7.50145C0.284967 7.22977 0.372988 6.93092 0.0683007 6.76209C-0.0197201 6.87464 -0.0197203 6.99302 0.0513737 7.11527C0.0513737 7.40636 0.0513737 7.69939 0.0513737 7.99048C0.110619 8.20588 -0.01972 8.4601 0.158014 8.64833C0.134317 8.75313 0.0344464 8.83851 0.0987695 8.96465C0.180019 8.9336 0.261269 8.90255 0.340827 8.8715C0.354368 8.90643 0.364525 8.9433 0.378066 8.98018C0.371296 9.01511 0.362832 9.05004 0.356061 9.08497C0.232494 9.00928 0.156322 9.11213 0.0767643 9.20916L0.0581445 9.19558C0.0683005 9.30231 0.0750713 9.4071 0.0835351 9.51384C0.14278 9.51772 0.203717 9.51772 0.262962 9.51966C0.344212 9.56817 0.345905 9.65938 0.357754 9.74477C0.494863 9.81657 0.34252 9.89419 0.361139 9.96987C0.246036 10.0785 0.376374 10.1853 0.364525 10.2959C0.327285 10.3696 0.291738 10.4453 0.256191 10.5191C0.371296 10.5967 0.352676 10.7267 0.356061 10.849C0.394994 10.8742 0.433926 10.8722 0.471165 10.8451C0.53041 10.8548 0.589655 10.8645 0.650592 10.8722C0.689525 10.8858 0.723379 10.8781 0.753848 10.8509C0.784317 10.88 0.816478 10.9111 0.846947 10.9382C0.875723 10.9751 0.904499 11.01 0.933275 11.045C1.16856 11.0799 1.09747 10.8878 1.10762 10.7558C1.12624 10.7733 1.14825 10.7869 1.17364 10.7946C1.17702 10.7946 1.18041 10.7946 1.1838 10.7946C1.089 10.9576 1.09747 11.1226 1.21088 11.2895C1.24473 11.2895 1.27859 11.2895 1.31075 11.2895C1.30736 11.109 1.30229 10.9285 1.29721 10.748C1.33106 10.7015 1.36661 10.6549 1.40046 10.6103C1.5088 10.5404 1.49695 10.4143 1.5088 10.2998L1.49187 10.0766C1.50372 10.0417 1.5071 10.0067 1.50033 9.96987C1.47325 9.97182 1.44786 9.96987 1.42247 9.96211C1.41739 9.74283 1.414 9.52742 1.41062 9.30813C1.35476 9.24992 1.2989 9.18976 1.24304 9.13154C1.24981 9.11602 1.25658 9.09855 1.26505 9.08497C1.29044 9.01122 1.29551 8.93748 1.28028 8.8618C1.42416 8.81523 1.44617 8.59982 1.5782 8.53578C1.57989 8.49309 1.58158 8.4504 1.58497 8.40576C1.58497 8.54548 1.60189 8.67938 1.72038 8.77835C1.74239 8.78224 1.76439 8.78224 1.78471 8.77447C1.7627 8.80358 1.75424 8.83657 1.75762 8.87344C1.45463 9.09467 1.68145 9.378 1.71361 9.63609H1.71531C1.66622 9.74088 1.63744 9.84762 1.68145 9.96987C1.71869 10.0339 1.75593 10.098 1.79148 10.1601C1.76778 10.1698 1.74408 10.1853 1.72377 10.2047C1.60189 10.4861 1.50541 10.7675 1.69669 11.0566C1.67807 11.0721 1.65945 11.0915 1.64083 11.1168C1.60867 11.2138 1.61882 11.305 1.6713 11.3884C1.68822 11.4932 1.70346 11.598 1.72208 11.7009C1.70176 11.7067 1.68314 11.7164 1.66622 11.7319C1.63406 11.7766 1.61205 11.827 1.59851 11.8833C1.56127 12.1084 1.56635 12.3335 1.60867 12.5586C1.63067 12.6285 1.64929 12.7022 1.6713 12.7721C1.63575 12.9351 1.63744 13.0981 1.67976 13.263C1.71361 13.3717 1.67468 13.5037 1.71192 13.6124C1.71192 13.6415 1.71531 13.6706 1.72038 13.6997C1.72885 13.7327 1.74408 13.7598 1.76439 13.7851C1.75085 13.8316 1.74916 13.8782 1.75593 13.9267C1.7627 13.9461 1.77117 13.9636 1.77963 13.9791C1.75085 14.0373 1.72038 14.0936 1.69161 14.1518C1.70346 14.2741 1.67468 14.4119 1.78979 14.4953C1.86596 14.4468 1.88627 14.3634 1.89135 14.2722C1.95567 14.3769 2.01661 14.4779 2.08093 14.5826C2.07755 14.5497 2.07755 14.5167 2.08093 14.4817C2.07755 14.3304 2.07247 14.1809 2.07077 14.0296C2.07755 13.9481 2.08262 13.8685 2.08939 13.7889C2.14018 13.8452 2.19942 13.8802 2.28236 13.8472C2.40593 13.7657 2.46348 13.657 2.38223 13.4959C2.58536 13.3465 2.37208 13.0903 2.49734 12.9196C2.44994 12.7624 2.35684 12.6285 2.30945 12.4713C2.37716 12.3937 2.35684 12.2889 2.35007 12.186C2.35515 12.1103 2.32468 12.0579 2.27051 12.0191C2.27559 11.9997 2.27559 11.9803 2.27051 11.9609C2.25697 11.8969 2.25528 11.8367 2.25528 11.7727C2.26205 11.796 2.26713 11.8173 2.27559 11.8387C2.51088 11.7106 2.36361 11.4835 2.38223 11.2972C2.40762 11.2895 2.43471 11.2837 2.46179 11.2778C2.46518 11.208 2.5752 11.1439 2.46856 11.0682C2.50411 10.9169 2.39239 10.7286 2.55658 10.6083C2.55658 10.5288 2.56505 10.4453 2.4821 10.4065C2.4821 10.3347 2.4821 10.2648 2.4838 10.193C2.44656 10.0824 2.51088 9.92524 2.36869 9.8612C2.36192 9.82239 2.35515 9.78358 2.34838 9.74477C2.3907 9.67102 2.43471 9.59728 2.47702 9.52354C2.47025 9.48667 2.46179 9.45174 2.45502 9.41487C2.52104 9.30425 2.64799 9.19946 2.48041 9.06556L2.44994 7.8721C2.45841 7.65281 2.46687 7.43547 2.47533 7.21812C2.45502 7.09587 2.5989 6.94838 2.42624 6.85329C2.35515 6.86494 2.30098 6.89793 2.25867 6.9445C2.29421 6.79508 2.31791 6.64177 2.28744 6.47876C2.28575 6.47682 2.28575 6.47294 2.28406 6.46906C2.33992 6.54086 2.32807 6.72327 2.46179 6.66312C2.46348 6.62819 2.46687 6.5952 2.47025 6.56026C2.52273 6.41666 2.28744 6.37397 2.37716 6.21678C2.47533 6.18379 2.45671 6.08288 2.47364 6.00138C2.48041 5.97615 2.48549 5.95092 2.49226 5.92569C2.50072 5.95286 2.51257 5.97809 2.53288 6.00138C2.57012 6.03631 2.60736 6.03242 2.64291 5.99943L2.6683 5.46189C2.66322 5.38621 2.65814 5.31053 2.65307 5.23484C2.62429 5.12035 2.5532 5.07184 2.45333 5.06989C2.38393 5.08542 2.33653 5.13393 2.30945 5.20768C2.29252 5.27948 2.29421 5.34934 2.31791 5.41726C2.33314 5.45025 2.35684 5.47548 2.38562 5.49488C2.37715 5.67924 2.37038 5.86359 2.36361 6.04601C2.33653 6.00914 2.30437 5.98003 2.26205 5.9645C2.25867 5.9645 2.25867 5.9645 2.25697 5.9645C2.25697 5.72193 2.25697 5.47742 2.25697 5.23484C2.23158 5.19991 2.20619 5.16498 2.1808 5.12811C2.36531 5.10871 2.27729 4.88166 2.37377 4.79433C2.37715 4.79045 2.37716 4.78657 2.37885 4.78075C2.39239 4.82344 2.41101 4.86419 2.4364 4.90106C2.57859 4.99227 2.66322 4.89136 2.74617 4.78075C2.75463 4.74776 2.75632 4.71671 2.74955 4.68372C2.71908 4.64879 2.68861 4.61192 2.65814 4.57699C2.56335 4.26261 2.61752 3.93659 2.61413 3.61639C2.62768 3.63968 2.64291 3.66491 2.66492 3.6882C2.90359 3.60475 2.73262 3.38935 2.77494 3.2438L2.77325 3.24186Z" fill="#E1067E"/>
</svg>
