<svg width="6" height="5" viewBox="0 0 6 5" fill="none" xmlns="http://www.w3.org/2000/svg">
<path d="M5.3862 0C5.34388 0.0582174 5.30664 0.124198 5.25417 0.16495C4.95286 0.390058 4.70742 0.76071 4.27747 0.653978C4.23008 0.642334 4.17083 0.69667 4.11667 0.718017C3.92201 0.79176 3.85599 1.06732 3.6444 1.11778C3.62747 1.36811 3.42943 1.45738 3.2974 1.59322C3.16198 1.731 2.97747 1.80475 2.82005 1.91924C2.54245 2.12106 2.26484 2.32482 1.9957 2.54217C1.93477 2.59262 1.90938 2.70324 1.86875 2.78474C1.59961 2.82161 1.60299 2.82938 1.3931 2.97298C1.14935 3.14181 0.895443 3.28735 0.653385 3.46007C0.448568 3.60561 0.264062 3.79385 0.0304688 3.88505C0.0220053 3.90446 0.0118486 3.92193 0 3.93745C0.0270833 3.93939 0.0541668 3.94327 0.0829427 3.94909C0.133724 3.9588 0.186198 3.97044 0.236979 3.98208C0.194662 4.05389 0.154037 4.13151 0.115104 4.19749C0.196354 4.13733 0.279297 4.07911 0.36224 4.0209C0.363932 4.02478 0.363932 4.02866 0.365625 4.03254L0.36901 4.01507C2.07018 2.79056 3.76458 1.58546 5.44036 0.333781C5.42175 0.213464 5.40313 0.106732 5.3862 0.00194059V0Z" fill="#392726"/>
</svg>
