<svg width="2" height="2" viewBox="0 0 2 2" fill="none" xmlns="http://www.w3.org/2000/svg">
<path d="M0.626302 0.605463C0.413021 0.741304 0.204818 0.886847 0 1.03433L0.0152344 1.09837L0.0964844 1.43797C0.0964844 1.43797 0.0964841 1.43797 0.0981771 1.43797C0.0947915 1.40887 0.0914062 1.3817 0.0897136 1.35453C0.209896 1.25944 0.30638 1.16241 0.36901 1.07703C0.270833 1.14689 0.174349 1.21481 0.0778646 1.28467C0.0660155 1.22257 0.0524741 1.17211 0.0338542 1.13136C0.555208 0.782056 1.06302 0.407523 1.55221 0C1.38971 0.0853858 1.23398 0.209583 1.06471 0.244514C0.854817 0.287207 0.783724 0.502612 0.626302 0.603522V0.605463Z" fill="#392726"/>
</svg>
