<svg width="36" height="38" viewBox="0 0 36 38" fill="none" xmlns="http://www.w3.org/2000/svg">
<path d="M18.0189 37.5309C15.8234 37.5309 13.9462 37.2321 12.438 36.6402C11.0348 36.091 9.59089 35.1828 8.14023 33.937L6.7793 35.243C5.96172 36.0348 5.29818 36.5626 4.75482 36.8576C4.18776 37.1622 3.54961 37.3175 2.85391 37.3175C2.01771 37.3175 1.33385 37.073 0.820964 36.5898C0.275911 36.0794 0 35.3808 0 34.5133C0 34.0922 0.0727865 33.6459 0.214974 33.1898L2.49844 25.1946C2.78112 24.137 3.17383 23.3938 3.70026 22.9164C4.22839 22.439 4.90039 22.1964 5.70104 22.1964C6.54063 22.1964 7.30742 22.536 7.97773 23.2036C8.59219 23.8149 9.35898 24.8686 10.3255 26.425C11.2802 28.0085 12.1672 29.1107 12.9628 29.7123C13.7279 30.2887 14.6605 30.5817 15.7354 30.5817C16.4768 30.5817 17.0405 30.4556 17.4078 30.2072C17.7464 29.9782 17.9833 29.6036 18.1306 29.0661L18.1441 29.0234C18.1594 28.9749 18.2 28.8196 18.2 28.4393C18.2 27.7562 17.9072 27.1313 17.3062 26.5278C16.6173 25.8389 15.5289 24.9928 14.0732 24.0128L14.0647 24.007C12.4685 22.8912 11.1499 21.8743 10.1461 20.9894C9.10508 20.0734 8.19271 18.9071 7.43268 17.5274C6.65065 16.1127 6.25456 14.4302 6.25456 12.5323C6.25456 11.2205 6.43568 9.91252 6.79115 8.64337C7.48008 6.04493 8.90195 3.92775 11.0195 2.35393C13.1168 0.791759 15.5509 0 18.2542 0C20.0366 0 21.709 0.252276 23.2273 0.749066C24.6374 1.21093 26.0863 1.92894 27.537 2.88177L28.3376 2.11912C29.1264 1.39916 29.7663 0.917897 30.291 0.646215C30.8395 0.360949 31.4691 0.217346 32.1615 0.217346C33.0197 0.217346 33.7204 0.446335 34.2469 0.900432C34.8122 1.38752 35.1102 2.11912 35.1102 3.01955C35.1102 3.36692 35.0543 3.73563 34.946 4.11598L32.9875 11.5251C32.7421 12.4916 32.4289 13.1766 32.0311 13.6113C31.6063 14.079 30.9918 14.3157 30.203 14.3157C29.4125 14.3157 28.6829 14.0246 28.0753 13.4541C27.5319 12.9418 26.7245 11.9424 25.6056 10.3977C24.5595 9.02179 23.6082 8.04373 22.7771 7.48872C21.9747 6.95506 21.1453 6.68338 20.3091 6.68338C19.7607 6.68338 19.3138 6.88326 18.9448 7.29466C18.5809 7.70025 18.4031 8.18345 18.4031 8.77145C18.4031 9.4526 18.7095 10.0872 19.3409 10.7062C20.0637 11.4184 21.2181 12.3305 22.7737 13.4192C24.3936 14.5311 25.7563 15.5538 26.8243 16.4581C27.928 17.3935 28.8827 18.5675 29.6596 19.9473C30.4586 21.3659 30.8632 23.0115 30.8632 24.8414C30.8632 26.0058 30.699 27.1876 30.374 28.352C29.5902 31.3502 28.0549 33.6595 25.8053 35.2178C23.5862 36.7547 20.9693 37.5348 18.0223 37.5348L18.0189 37.5309ZM8.11315 32.4L8.44492 32.695C9.91588 34.0107 11.3716 34.9558 12.7732 35.503C14.173 36.0542 15.9385 36.3317 18.0189 36.3317C20.7729 36.3317 23.2087 35.6098 25.2637 34.1873C27.2848 32.7862 28.6677 30.7059 29.3736 27.9988L29.377 27.9871C29.6698 26.9392 29.8188 25.8797 29.8188 24.8376C29.8188 23.2443 29.4701 21.818 28.7828 20.5974C28.0736 19.3379 27.2052 18.2706 26.2031 17.4206C25.1638 16.5416 23.8266 15.5383 22.232 14.4438C20.6257 13.3202 19.4272 12.3712 18.6604 11.6164C17.7971 10.7664 17.3587 9.80966 17.3587 8.76951C17.3587 7.85161 17.6482 7.06568 18.2169 6.42916C18.784 5.80041 19.4865 5.48216 20.3057 5.48216C21.3281 5.48216 22.3336 5.80818 23.2967 6.45051C24.2396 7.07926 25.2518 8.11165 26.391 9.60978L26.3995 9.62143C27.4608 11.0885 28.2462 12.0646 28.732 12.5226C29.1535 12.9204 29.6326 13.1125 30.1979 13.1125C30.7108 13.1125 31.0849 12.9883 31.3083 12.7419C31.4861 12.5478 31.7467 12.119 31.9854 11.1797L33.9507 3.74145C34.0268 3.48141 34.0641 3.23884 34.0641 3.01761C34.0641 2.48977 33.9236 2.12106 33.6189 1.85714C33.277 1.56217 32.7861 1.41469 32.1581 1.41469C31.613 1.41469 31.1289 1.52336 30.7159 1.73682C30.2758 1.96581 29.6952 2.40827 28.9859 3.05448L27.6352 4.33915L27.3186 4.12375C25.8409 3.11658 24.3665 2.36752 22.9396 1.90177C21.5143 1.43603 19.9367 1.19734 18.2508 1.19734C15.7523 1.19734 13.5078 1.92506 11.5815 3.35916C9.67552 4.77772 8.39753 6.67368 7.78307 8.99656L7.78138 9.00626C7.45638 10.159 7.29219 11.3427 7.29219 12.5304C7.29219 14.1973 7.63411 15.6625 8.30781 16.8831C9.00352 18.1445 9.83294 19.204 10.7758 20.0346C11.7508 20.8943 13.0372 21.884 14.5979 22.9785C16.1095 23.9934 17.2504 24.8822 17.9867 25.6196C18.8178 26.4541 19.2393 27.4011 19.2393 28.4374C19.2393 28.8643 19.1987 29.1922 19.1174 29.4426C18.8906 30.2576 18.4911 30.8611 17.9326 31.2396C17.3943 31.6025 16.6749 31.7771 15.732 31.7771C14.4523 31.7771 13.3284 31.42 12.3906 30.7117C11.4698 30.0189 10.5134 28.841 9.4724 27.1139C8.57187 25.6604 7.83724 24.6474 7.29557 24.106C6.81315 23.6266 6.2901 23.3938 5.69935 23.3938C5.11029 23.3938 4.68542 23.5451 4.3418 23.8556C3.9931 24.1719 3.70703 24.7405 3.49036 25.5498L3.48698 25.5595L1.19505 33.5838C1.0918 33.9137 1.03932 34.2242 1.03932 34.5094C1.03932 35.0121 1.17813 35.3769 1.47773 35.6563C1.80104 35.9591 2.26315 36.1124 2.85221 36.1124C3.39557 36.1124 3.88477 35.9959 4.31133 35.7669C4.76667 35.5205 5.37096 35.0334 6.11068 34.3193L8.11484 32.3962L8.11315 32.4Z" fill="#392726"/>
</svg>
