<svg width="1" height="2" viewBox="0 0 1 2" fill="none" xmlns="http://www.w3.org/2000/svg">
<path d="M0.274219 0.791759C0.248828 0.828631 0.230208 0.867442 0.211589 0.904313C0.204817 0.869383 0.198047 0.834452 0.187891 0.797581C0.160807 0.615166 0.338542 0.432751 0.194661 0.246454C0.177734 0.16495 0.160807 0.0834453 0.14388 0C0.0947913 0.0834453 0.0473958 0.16689 0 0.248395C0.142188 0.677265 0.0253906 1.11196 0.0186198 1.54277C0.0964842 1.55635 0.154036 1.52724 0.187891 1.44186C0.196354 1.40887 0.204817 1.37394 0.211589 1.339C0.226823 1.37588 0.247136 1.41275 0.272526 1.44962C0.299609 1.48261 0.326693 1.51366 0.353776 1.54471C0.365625 1.37005 0.377474 1.1954 0.389323 1.02075C0.357161 0.941185 0.379166 0.824749 0.274219 0.7937V0.791759Z" fill="#E1067E"/>
</svg>
