<svg width="1" height="1" viewBox="0 0 1 1" fill="none" xmlns="http://www.w3.org/2000/svg">
<path d="M0.194661 0.33184C0.172656 0.36289 0.155729 0.395879 0.142188 0.43081C0.135417 0.395879 0.126953 0.36289 0.11849 0.3299C0.0981771 0.250336 0.115104 0.145544 0.0186198 0.114495C0.011849 0.293029 0.00507823 0.471563 0 0.650096C0.0186199 0.72966 0.00169293 0.830571 0.0998698 0.85968C0.128646 0.811165 0.145573 0.76071 0.155729 0.710255C0.157422 0.716077 0.160807 0.723838 0.164193 0.731601C0.199739 0.783997 0.242057 0.791759 0.291146 0.756829C0.29961 0.574413 0.308073 0.391999 0.318229 0.211524C0.311458 0.141663 0.30638 0.0698611 0.299609 0C0.186198 0.0776235 0.226823 0.219287 0.196354 0.33184H0.194661Z" fill="#E1067E"/>
</svg>
