<svg width="1" height="2" viewBox="0 0 1 2" fill="none" xmlns="http://www.w3.org/2000/svg">
<path d="M0.463802 0.0968011C0.436719 0.0812765 0.409635 0.0638115 0.384245 0.0463459C0.363932 0.0502273 0.34362 0.0541085 0.323307 0.0579894C0.323307 0.0579894 0.321615 0.0579895 0.319922 0.05993C0.233594 -0.00216877 0.148959 -0.0526239 0.0660156 0.104563C0.0440105 0.170543 0.0220051 0.236523 0 0.302503C0.0287759 0.343256 0.0592451 0.35878 0.0914063 0.35878C0.0609377 0.525671 0.0236979 0.694502 0.0778646 0.867214C0.0863285 0.902145 0.08125 0.935135 0.0677083 0.966184C0.103255 1.03799 0.138802 1.07098 0.18112 0.972006C0.245443 0.972006 0.309765 0.973946 0.374089 0.973946C0.419792 0.865273 0.484114 0.762422 0.446875 0.632403C0.457031 0.49074 0.46888 0.349078 0.479037 0.207415C0.473958 0.170543 0.46888 0.131732 0.463802 0.0968011Z" fill="#E1067E"/>
</svg>
