<svg width="1" height="1" viewBox="0 0 1 1" fill="none" xmlns="http://www.w3.org/2000/svg">
<path d="M0.08125 0C0.0558593 0.00388142 0.0304687 0.00582151 0.00338542 0.00970293C0.00169282 0.293028 0.0016926 0.578295 0 0.86162C0.0592445 0.791759 0.082943 0.714136 0.0880208 0.636512C0.0964847 0.646216 0.106641 0.655918 0.115104 0.665621C0.157422 0.704433 0.204818 0.718017 0.257292 0.704433C0.423177 0.582176 0.409635 0.413345 0.352083 0.23287C0.265755 0.147485 0.181119 -0.0174652 0.0947917 0.23287C0.108333 0.267801 0.108334 0.300791 0.093099 0.335721C0.0880207 0.349306 0.0829429 0.364831 0.0795573 0.378414C0.0761721 0.324078 0.0744788 0.271682 0.0829427 0.221227C0.0829427 0.147485 0.08125 0.0737425 0.08125 0Z" fill="#E1067E"/>
</svg>
