<svg width="1" height="2" viewBox="0 0 1 2" fill="none" xmlns="http://www.w3.org/2000/svg">
<path d="M0.260677 0.774294C0.267448 0.768472 0.272526 0.76071 0.279297 0.749066C0.248828 0.500671 0.365625 0.23093 0.198047 0C0.0152344 0.225108 0.20651 0.508434 0.111719 0.749066C0.103255 0.785938 0.0947916 0.822809 0.0863281 0.86162C0.093099 0.890729 0.0947918 0.921778 0.0897136 0.950887C0.191276 1.15659 0.0287759 1.30407 0 1.47873C0.00677083 1.51366 0.0135417 1.54859 0.0203125 1.58546C0.0423176 1.65532 0.0660158 1.72518 0.0897136 1.79504C0.0981774 1.82221 0.106641 1.84938 0.111719 1.87849C0.30638 1.91148 0.270833 1.71936 0.314844 1.60486C0.313151 1.58158 0.311458 1.55829 0.309766 1.535C0.302995 1.52724 0.297917 1.51948 0.291146 1.51172C0.30638 1.49425 0.321615 1.47485 0.335156 1.4535C0.411328 1.21093 0.42487 0.978055 0.260677 0.774294Z" fill="#EFEEE8"/>
</svg>
