<svg width="1" height="2" viewBox="0 0 1 2" fill="none" xmlns="http://www.w3.org/2000/svg">
<path d="M0.0973916 0.553067C0.095699 0.706373 0.132938 0.869383 0.0296832 1.00522C0.0787717 1.10807 0.12786 1.21093 0.176949 1.31572C0.256506 1.27108 0.332678 1.22645 0.351298 1.1139C0.352991 1.08285 0.352991 1.05568 0.351298 1.02657C0.381767 0.987759 0.386845 0.92566 0.402079 0.873264C0.432548 0.729661 0.464709 0.587997 0.42747 0.448275C0.432548 0.415285 0.439319 0.384236 0.451168 0.359009C0.452861 0.275563 0.437626 0.195999 0.403772 0.122256C0.364839 0.0194055 0.281897 0.00776185 0.197261 0C0.161714 0.00582139 0.126168 0.0116433 0.0906207 0.0155247C0.0669226 0.00970281 0.0432247 0.00970271 0.019527 0.021346C0.0246048 0.201821 -0.0634158 0.39976 0.0973916 0.549186V0.553067Z" fill="#E1067E"/>
</svg>
