<svg width="1" height="2" viewBox="0 0 1 2" fill="none" xmlns="http://www.w3.org/2000/svg">
<path d="M0 1.24198C0.00677083 1.31184 0.0152345 1.38364 0.0236979 1.4535C0.0846359 1.53112 0.147266 1.61069 0.209896 1.68831C0.426563 1.61845 0.38763 1.4438 0.336849 1.2672C0.318229 1.24198 0.299609 1.22257 0.279297 1.20704C0.277604 1.12166 0.275911 1.03433 0.274219 0.947006C0.275911 0.772354 0.279297 0.5977 0.28099 0.423048C0.291146 0.312435 0.299609 0.199881 0.309766 0.0873264C0.318229 0.0873264 0.323308 0.0756828 0.326693 0.0504552C0.330078 0.0291087 0.316536 0.0116438 0.28776 0C0.0321614 0.0310494 0.140495 0.258098 0.113411 0.413345C0.0829425 0.485147 0.0541669 0.555008 0.0236979 0.626809C0.0186201 0.66174 0.0118491 0.69473 0.00677083 0.729661C0.0169273 0.834452 0.0270835 0.939244 0.0372396 1.04404C0.035547 1.10031 0.0321617 1.15853 0.028776 1.21481C0.0203126 1.22257 0.010156 1.23033 0 1.23809V1.24198Z" fill="#EFEEE8"/>
</svg>
