<svg width="1" height="1" viewBox="0 0 1 1" fill="none" xmlns="http://www.w3.org/2000/svg">
<path d="M0.380859 0.151366C0.35039 0.102851 0.319922 0.0543363 0.28776 0.00582176C0.191276 0.106732 0.0947917 0.104791 0 0C0.00338563 0.145544 0.00677094 0.293028 0.00846354 0.438573C0.0101561 0.580236 0.0118491 0.721898 0.0135417 0.863561C0.071094 0.832512 0.128646 0.799522 0.184505 0.768472C0.152344 0.655918 0.120182 0.547245 0.0880208 0.434691C0.174349 0.238692 0.208203 0.636512 0.292839 0.459919C0.433333 0.553067 0.370703 0.712195 0.389323 0.842215C0.538281 0.593819 0.538281 0.347365 0.385938 0.10091L0.382552 0.147485L0.380859 0.151366Z" fill="#E1067E"/>
</svg>
