<svg width="2" height="1" viewBox="0 0 2 1" fill="none" xmlns="http://www.w3.org/2000/svg">
<path d="M0.885286 0.657127C1.10872 0.70176 1.19674 0.550394 1.27799 0.375742C1.33047 0.263187 1.35755 0.133168 1.39818 0.00314903C1.16289 -0.0279004 1.13073 0.177802 1.04102 0.305881C0.898829 0.319465 0.760026 0.333049 0.60599 0.346633C0.585677 0.478593 0.526432 0.556216 0.431641 0.575622C0.440104 0.548454 0.433333 0.513523 0.397786 0.463068C0.26914 0.556216 0.0964843 0.5698 0 0.736691C0.0152343 0.76774 0.0304684 0.80073 0.0457031 0.831779C0.147265 0.771621 0.248828 0.715344 0.348698 0.653246C0.528125 0.647424 0.710937 0.622196 0.885286 0.657127Z" fill="#392726"/>
</svg>
