<svg width="4" height="4" viewBox="0 0 4 4" fill="none" xmlns="http://www.w3.org/2000/svg">
<path d="M3.01471 0.275563C3.00286 0.248395 2.99102 0.223167 2.98086 0.19794C2.88945 0.23287 2.74557 0.242573 2.71849 0.310494C2.63724 0.523959 2.46458 0.551126 2.31393 0.632631C2.35286 0.646215 2.3918 0.659799 2.43073 0.673384C2.36979 0.787878 2.30716 0.904314 2.24622 1.01881C2.23776 1.00911 2.2293 0.999402 2.22083 0.987759C2.13451 1.04792 2.04818 1.11002 1.96185 1.17211C1.96523 1.16047 1.96693 1.14883 1.97031 1.13718C1.93307 1.17405 1.90091 1.20704 1.87044 1.23809C1.44388 1.54471 1.01562 1.85326 0.589062 2.16181C0.558594 2.12688 0.51289 2.07449 0.440104 1.99298C0.365625 2.31318 0.299609 2.59068 0.236979 2.85654C0.164193 2.85848 0.101563 2.86042 0 2.86237C0.0626305 2.95357 0.0930991 3.01567 0.135417 3.05642C0.233594 3.14957 0.308073 3.09912 0.347005 2.98268C0.411328 2.78862 0.472266 2.59262 0.533203 2.39468C1.11888 2.03179 1.67747 1.61069 2.2276 1.17794C2.25638 1.15659 2.26315 1.10031 2.27839 1.05762C2.35117 0.979996 2.42565 0.902373 2.50013 0.822809C2.49674 0.844155 2.49844 0.871323 2.51029 0.904313C2.6474 0.935363 2.76589 0.840274 2.88437 0.776235C2.93346 0.749067 2.9724 0.681146 3.02487 0.731601C3.14674 0.846095 3.2026 0.714136 3.27708 0.652037C3.27539 0.650097 3.272 0.648156 3.27031 0.646215C3.35833 0.589938 3.44805 0.533661 3.53776 0.477384L3.55807 0C3.24661 0.228989 2.93516 0.459919 2.6237 0.690849C2.75404 0.553067 2.88437 0.415286 3.01471 0.277504V0.275563Z" fill="#392726"/>
</svg>
