<svg width="1" height="2" viewBox="0 0 1 2" fill="none" xmlns="http://www.w3.org/2000/svg">
<path d="M0.483432 0.781836C0.505437 0.601361 0.527442 0.422827 0.549448 0.244293C0.50713 0.188017 0.461427 0.135621 0.408953 0.0929277C0.334474 0.0347103 0.261687 -0.0429132 0.160125 0.0288883C0.0365573 0.314155 -0.0785469 0.601361 0.0704114 0.921558C0.0484063 0.950667 0.0331716 0.981716 0.0297864 1.02053C0.0348646 1.12144 0.0805677 1.19324 0.149969 1.25146C0.122885 1.42805 0.105958 1.6027 0.16351 1.77542C0.202443 1.7793 0.241375 1.78512 0.280307 1.79094C0.314161 1.7793 0.348016 1.76959 0.380177 1.75795L0.370021 1.7793C0.674708 1.67256 0.456349 1.42417 0.480047 1.24175C0.590073 1.09039 0.600229 0.935142 0.485125 0.779895L0.483432 0.781836Z" fill="#E1067E"/>
</svg>
