<svg width="1" height="2" viewBox="0 0 1 2" fill="none" xmlns="http://www.w3.org/2000/svg">
<path d="M0.000447374 1.07508C-0.00293783 1.19152 0.0122963 1.30601 0.066463 1.40887C0.278051 1.56023 0.313599 1.36229 0.371151 1.20899C0.383 1.10419 0.394849 0.999402 0.406697 0.894611C0.432088 0.853858 0.42701 0.818928 0.391463 0.789819C0.367765 0.785938 0.342375 0.783997 0.318677 0.778175C0.313599 0.632631 0.30852 0.489028 0.303442 0.345424C0.306827 0.215405 0.320369 0.0815049 0.200187 0C0.100317 0.0912077 0.122322 0.23093 0.095239 0.351247C0.0512288 0.457978 0.0241453 0.56277 0.0918536 0.669502C0.107088 0.671443 0.12063 0.673384 0.134171 0.675324C0.130786 0.675324 0.129093 0.679205 0.127401 0.679205C0.10201 0.700551 0.0935464 0.721898 0.10201 0.743245C0.103702 0.745185 0.105395 0.747125 0.107088 0.749066C0.107088 0.749066 0.107088 0.749066 0.105395 0.749066C0.0275305 0.838333 0.00721821 0.952828 0.000447374 1.07314V1.07508Z" fill="#E1067E"/>
</svg>
