<svg width="38" height="39" viewBox="0 0 38 39" fill="none" xmlns="http://www.w3.org/2000/svg">
<path d="M25.89 11.3483C25.8951 9.90452 25.78 8.42968 25.2772 7.10619C24.7762 5.78077 23.8232 4.62613 22.6044 4.25936C21.4212 3.89841 20.1399 4.32533 19.1039 5.07634C17.1878 6.47356 16.0063 8.84496 15.016 11.1911C12.9916 15.9999 11.4749 21.092 10.5067 26.3219C10.2291 27.82 10.0666 29.6015 11.0145 30.6785C11.9979 31.7924 13.6399 31.5091 14.8959 30.8532C18.6113 28.9087 20.9354 24.6549 22.9904 20.5972C23.3052 21.8741 23.6133 23.1432 23.9281 24.4201C22.4893 27.2301 21.0387 30.0575 19.1767 32.5143C17.313 34.9691 14.9856 37.0572 12.2688 38.0023C9.55366 38.9473 6.43061 38.6291 4.14884 36.6904C1.9297 34.8061 0.758349 31.6585 0.281006 28.5361C-0.560271 22.9996 0.52137 17.1487 3.07059 12.3535C5.61811 7.55641 9.5689 3.81302 14.0698 1.61045C16.4396 0.449984 19.0413 -0.302963 21.5939 0.118144C24.1482 0.539251 26.628 2.30324 27.6166 5.04141C27.9771 3.6927 28.3393 2.33817 28.6999 0.991408C31.7197 1.09426 34.7445 0.96618 37.7474 0.611053C33.1483 9.81913 29.636 19.7433 27.344 30.0226C27.1612 30.8357 27.1307 31.967 27.8264 32.2251C28.4121 32.4425 28.9403 31.7924 29.3025 31.2199C30.4011 29.4501 31.4996 27.6822 32.5982 25.9124C34.1623 26.9836 35.9735 27.5677 37.7102 27.5677C37.2498 28.9941 35.6332 29.7451 34.4348 29.0892C32.7861 32.3998 30.3164 35.1613 27.3965 36.9679C26.1354 37.75 24.5714 38.3458 23.3052 37.5695C22.447 37.0397 21.9341 35.9918 21.5567 34.9575C20.5326 32.1475 20.1653 29.0174 20.5732 26.0075C20.5901 25.7727 20.6409 25.7805 20.5833 25.4001C22.1169 22.0604 22.4419 20.634 23.1326 18.7633" fill="#AA305C"/>
</svg>
