<svg width="1" height="2" viewBox="0 0 1 2" fill="none" xmlns="http://www.w3.org/2000/svg">
<path d="M0.106641 1.29437C0.165885 1.33124 0.22513 1.36811 0.284375 1.40498C0.431641 1.18764 0.335156 0.968353 0.291146 0.747126C0.294531 0.603522 0.297917 0.457979 0.301302 0.314375C0.355469 0.182415 0.353776 0.0834455 0.194661 0.079564L0.192969 0.0989699C0.133724 0.0659796 0.0727861 0.0329898 0.0135417 0C0.0118491 0.0291084 0.00677105 0.0582176 0.00338542 0.089267C0.00338542 0.273623 0.0016926 0.457978 0 0.642334C0.0338542 0.671443 0.0677087 0.700552 0.0998698 0.72772C0.103255 0.917898 0.104948 1.10613 0.106641 1.29437Z" fill="#E1067E"/>
</svg>
