<svg width="2" height="2" viewBox="0 0 2 2" fill="none" xmlns="http://www.w3.org/2000/svg">
<path d="M0.282682 1.07897C0.36224 1.03627 0.458724 1.00134 0.538281 0.937303C0.629687 0.865502 0.699089 0.756828 0.788802 0.683086C0.86836 0.617106 0.964843 0.578295 1.04779 0.522018C1.13073 0.465741 1.23568 0.426929 1.26107 0.240633C1.31862 0.196 1.37617 0.130019 1.4862 0C1.3474 0.131959 1.10365 0.069861 1.02409 0.316316C0.836198 0.42887 0.666927 0.545305 0.497656 0.599641C0.497656 0.599641 0.497657 0.599641 0.495964 0.599641C0.477344 0.605463 0.458724 0.611285 0.438411 0.617106C0.311458 0.587998 0.216667 0.56471 0.121875 0.543364C0.00846344 0.752947 -0.0135418 0.791759 0.147266 0.950887C0.0914064 0.997461 0.0423176 1.05374 0 1.12166C0.0660157 1.08091 0.133724 1.0421 0.19974 1.00134C0.22513 1.02463 0.252213 1.04986 0.282682 1.07897Z" fill="#392726"/>
</svg>
