<svg width="1" height="2" viewBox="0 0 1 2" fill="none" xmlns="http://www.w3.org/2000/svg">
<path d="M0 0.335736C0.0338546 0.44829 0.00507823 0.589953 0.121875 0.659814C0.130339 0.655933 0.138802 0.652052 0.147266 0.64817C0.138802 0.653992 0.130339 0.657873 0.120182 0.663695C0.116797 0.698626 0.113411 0.733557 0.111719 0.768487C-0.0406252 0.882982 0.0304689 1.05763 0.0186198 1.21094C0.0490888 1.21676 0.0795572 1.22258 0.111719 1.22841C0.248828 1.23617 0.34362 1.48844 0.512891 1.31767C0.570443 1.09645 0.582292 0.888803 0.411328 0.723853C0.414714 0.518151 0.419792 0.310509 0.42487 0.104806C0.389323 0.0718164 0.353776 0.0407669 0.318229 0.00971752C0.275911 0.0465888 0.257292 0.0912218 0.248828 0.139737C0.236979 0.0951032 0.221745 0.0485293 0.208203 0.00195518L0.213281 1.45902e-05C0.00677105 -0.00192637 0.030469 0.190192 0 0.335736Z" fill="#E1067E"/>
</svg>
