<svg width="1" height="2" viewBox="0 0 1 2" fill="none" xmlns="http://www.w3.org/2000/svg">
<path d="M0.358854 0.840274C0.335156 0.836393 0.313151 0.830571 0.292839 0.822809L0.269141 0.638453C0.252213 0.638453 0.235286 0.634571 0.218359 0.632631C0.218359 0.615166 0.218359 0.59576 0.220052 0.578295C0.176041 0.370652 0.314844 0.0718016 0 0C0 0.281385 0 0.56083 0 0.840274C0.00338563 0.906254 0.00846343 0.970293 0.0135417 1.03627C0.0643231 1.07508 0.108333 1.06538 0.14388 1.00911C0.1625 0.974174 0.176041 0.939244 0.186198 0.902373C0.182812 0.981937 0.179427 1.06344 0.176042 1.14301C0.189583 1.17211 0.198047 1.20122 0.19974 1.23227C0.191276 1.31184 0.18112 1.38946 0.174349 1.46708C0.209896 1.53112 0.245443 1.5971 0.28099 1.66308C0.463802 1.40887 0.331771 1.1139 0.358854 0.840274Z" fill="#EFEEE8"/>
</svg>
