<svg width="1" height="1" viewBox="0 0 1 1" fill="none" xmlns="http://www.w3.org/2000/svg">
<path d="M0.258984 0.60552C0.321615 0.551183 0.384245 0.494906 0.446875 0.44057C0.670313 0.489085 0.692318 0.446392 0.881901 0.0893238C0.871745 0.0854424 0.863281 0.083502 0.853125 0.0815615C0.853125 0.0815615 0.854818 0.0796209 0.85651 0.0796209C0.841276 0.0776805 0.826042 0.0718588 0.810807 0.0679774C0.810807 0.0640965 0.809115 0.0582746 0.809115 0.0524527C0.802344 0.0311066 0.773568 0.00781896 0.751563 0.00393804C0.582292 -0.0271113 0.382552 0.128135 0.309766 0.37459C0.314843 0.37265 0.319922 0.370709 0.325 0.368768C0.216667 0.450273 0.108333 0.531778 0 0.611342C0.0863278 0.685084 0.174349 0.681202 0.258984 0.60552Z" fill="#392726"/>
</svg>
