<svg width="2" height="2" viewBox="0 0 2 2" fill="none" xmlns="http://www.w3.org/2000/svg">
<path d="M0.495964 0.512315C0.66862 0.436632 0.76849 0.551126 0.834505 0.704433C0.87513 0.799522 0.937761 0.848036 1.00208 0.910135C1.09518 0.999402 1.2069 1.07897 1.23229 1.23227C1.35755 1.10613 1.36602 0.933422 1.37786 0.737423C1.13581 0.712195 1.04271 0.473503 0.888672 0.33184C0.895443 0.228989 0.900521 0.137781 0.908984 0C0.81927 0.0426927 0.770182 0.0640395 0.724479 0.089267C0.675391 0.116435 0.633073 0.168831 0.583984 0.174653C0.391015 0.19794 0.194662 0.207643 0 0.223167H0.00169271C0.120182 0.424988 0.341927 0.391998 0.495964 0.512315Z" fill="#392726"/>
</svg>
