<svg width="1" height="2" viewBox="0 0 1 2" fill="none" xmlns="http://www.w3.org/2000/svg">
<path d="M0.409757 0.698611C0.39283 0.611284 0.345435 0.564711 0.270955 0.555008C0.242179 0.555008 0.21171 0.551126 0.182935 0.545305C0.144002 0.36483 0.265877 0.149425 0.0915283 0C0.0881426 0.180474 0.0864499 0.362889 0.0830647 0.543364C-0.0184982 0.626809 0.0001218 0.749066 0.00350743 0.865502C0.0661375 0.869383 0.127075 0.871324 0.188013 0.875205C0.18632 1.1333 0.184627 1.38946 0.181242 1.64562C0.216789 1.64562 0.254028 1.64562 0.291268 1.64562C0.284497 1.4011 0.279418 1.15659 0.272648 0.910135C0.284497 0.906254 0.298039 0.902373 0.309888 0.896551C0.369133 0.848036 0.402987 0.783997 0.409757 0.700552V0.698611Z" fill="#E1067E"/>
</svg>
