<svg width="1" height="1" viewBox="0 0 1 1" fill="none" xmlns="http://www.w3.org/2000/svg">
<path d="M0.392584 0.0291088C0.153912 0.0562768 0.17761 0.238692 0.211464 0.424988C0.035422 0.294969 0.245318 0.157188 0.204693 0.023287C0.174224 0.0155247 0.143755 0.00776235 0.111594 0C-0.0221298 0.228989 -0.0102814 0.483207 0.0184949 0.739363C-0.00520321 0.846096 0.0337292 0.875204 0.120057 0.844155C0.150526 0.809225 0.180995 0.774294 0.213156 0.739363C0.213156 0.634572 0.211464 0.531721 0.211464 0.426929C0.211464 0.428869 0.211464 0.43081 0.211464 0.432751C0.241933 0.467682 0.272401 0.502612 0.30287 0.535602C0.451828 0.436632 0.3655 0.254217 0.412896 0.118376C0.40274 0.0892673 0.394276 0.0601582 0.390891 0.0291088H0.392584Z" fill="#EFEEE8"/>
</svg>
