<svg width="1" height="2" viewBox="0 0 1 2" fill="none" xmlns="http://www.w3.org/2000/svg">
<path d="M0.113411 0.199881C0.113411 0.271682 0.111719 0.343484 0.110026 0.417226C-0.0609378 0.510374 0.0643227 0.706374 0 0.838333C0.0033852 1.1139 0.00677051 1.38946 0.00846354 1.66696V1.7737C0.0440103 1.80669 0.0761719 1.83968 0.110026 1.87073C0.138802 1.76981 0.167578 1.67084 0.196354 1.56993C0.230209 1.53306 0.26237 1.49619 0.294531 1.45932C0.316536 1.39722 0.336849 1.33318 0.358854 1.26914C0.370703 1.26914 0.382552 1.2672 0.394401 1.26332C0.433333 1.20704 0.441797 1.14495 0.429948 1.07897C0.509505 1.18958 0.418099 1.44962 0.636458 1.43797C0.639844 1.40887 0.638151 1.37976 0.634766 1.35065C0.702474 1.22645 0.704167 1.08673 0.700781 0.945066C0.700781 0.838333 0.627995 0.787878 0.567057 0.72772C0.470573 0.751007 0.44349 1.00522 0.289453 0.832511C0.287761 0.803403 0.286068 0.774294 0.286068 0.743245C0.301302 0.737423 0.316536 0.729661 0.335156 0.716076C0.4875 0.461859 0.578906 0.213464 0.28776 0C0.228516 0.00194046 0.169271 0.00194047 0.110026 0.00388094C0.110026 0.0698611 0.111719 0.1339 0.111719 0.199881H0.113411Z" fill="#EFEEE8"/>
</svg>
