<svg width="1" height="3" viewBox="0 0 1 3" fill="none" xmlns="http://www.w3.org/2000/svg">
<path d="M0.0840865 0.566651C0.0840865 0.566651 0.0790085 0.570532 0.0756229 0.574414C0.0231488 0.675324 0.0113001 0.783997 0.0129927 0.900432C0.0214561 1.00522 0.0383833 1.10807 0.112863 1.17794C0.0874718 1.20122 0.0637737 1.22645 0.0468469 1.25944C-0.0157832 1.40693 -0.0360955 1.54665 0.117941 1.6398C0.119634 1.71354 0.121326 1.78534 0.114555 1.8552C0.107784 2.05896 0.153487 2.2472 0.246586 2.41797C0.278748 2.41991 0.310909 2.42185 0.343071 2.42379C0.348149 2.20063 0.353227 1.97552 0.358305 1.75235C0.348149 1.72518 0.341378 1.69801 0.337993 1.6689C0.51742 1.67084 0.415857 1.51366 0.346456 1.37782C0.353227 1.30019 0.353227 1.22451 0.332915 1.15077C0.356613 1.09449 0.38031 1.03821 0.404008 0.979996C0.315988 0.919838 0.315988 0.820868 0.307524 0.725779C0.348149 0.698611 0.390467 0.669503 0.431092 0.642334C0.397238 0.537543 0.363383 0.436632 0.329529 0.33184L0.339685 0.337662C0.332915 0.333781 0.329529 0.33184 0.322758 0.3299C0.329529 0.213465 0.315988 0.10091 0.224581 0C0.224581 0.108673 0.172107 0.207642 0.143331 0.310494C0.0908572 0.351246 0.0840865 0.454097 0.0840865 0.564711V0.566651Z" fill="#E1067E"/>
</svg>
