<svg width="1" height="3" viewBox="0 0 1 3" fill="none" xmlns="http://www.w3.org/2000/svg">
<path d="M0.0431639 1.07165C0.0347005 1.07553 0.0262367 1.07747 0.0177733 1.0833C-0.00592442 1.12599 -0.00592442 1.16868 0.0177733 1.21331C0.0245441 1.42484 0.0313151 1.6383 0.0397785 1.84789C0.0668618 1.86341 0.0956376 1.86729 0.126107 1.86341C0.158268 1.93521 0.190429 2.00896 0.222591 2.08076C0.385091 1.92939 0.281836 1.71787 0.312305 1.53739C0.312305 1.39379 0.310612 1.24825 0.310612 1.1027C0.256445 1.09882 0.203971 1.09494 0.149805 1.093C0.144727 1.08718 0.143034 1.08135 0.136263 1.07553C0.131185 1.07359 0.126107 1.07165 0.121028 1.06971C0.124414 0.893118 0.129492 0.716524 0.13457 0.539931C0.187044 0.384684 0.197201 0.225556 0.168424 0.0644872C0.139648 0.0179132 0.0990231 -0.00343354 0.048242 0.000447876C0.036393 0.291536 0.0228514 0.582624 0.00930973 0.871771C0.0211588 0.937751 0.0313152 1.00373 0.0414712 1.07165H0.0431639Z" fill="#E1067E"/>
</svg>
