<svg width="2" height="4" viewBox="0 0 2 4" fill="none" xmlns="http://www.w3.org/2000/svg">
<path d="M0.0636426 0.0737423C0.0196319 0.170772 0.0077834 0.275563 0.00439777 0.382296C-0.000680468 0.516196 -0.000680252 0.652037 0.00101235 0.785938C0.00439798 0.923719 0.00778351 1.0615 0.0737988 1.1857C0.0754918 1.18764 0.0788772 1.19152 0.0822624 1.19346C0.0721063 1.22063 0.0619501 1.2478 0.0517936 1.27885C0.0382519 1.32736 0.0280955 1.37782 0.0247103 1.43215C0.019632 1.56605 0.0433302 1.69219 0.133044 1.79116C0.370023 2.05314 -0.095472 2.30348 0.121195 2.56546C0.119502 2.56546 0.119502 2.56546 0.117809 2.56546L0.121195 2.5674C-0.042998 2.71876 0.0433301 2.92058 0.0365592 3.103C0.127965 3.11076 0.221064 3.11464 0.314163 3.1224C0.476663 2.85848 0.38695 2.711 0.204137 2.60815C0.373409 2.60233 0.397106 2.43932 0.439424 2.29571C0.469893 2.1754 0.491898 2.0512 0.510518 1.92894C0.51221 1.9891 0.515595 2.04732 0.517288 2.10554C0.67471 2.12494 0.676403 1.98328 0.710257 1.87073C0.722106 1.69413 0.735648 1.5156 0.605309 1.38364C0.610387 1.3817 0.613773 1.3817 0.617158 1.37782C0.651012 1.33706 0.674711 1.28855 0.691637 1.23615C0.691637 1.23809 0.691637 1.23809 0.691637 1.24198C0.695023 1.31572 0.698408 1.38946 0.701794 1.4632L0.891377 1.46514C0.886299 1.54471 0.88122 1.62427 0.876143 1.70384C0.882913 1.91536 0.889684 2.12494 0.898148 2.33647C1.0251 2.37722 1.04372 2.26272 1.07757 2.16958C1.10127 1.94641 1.18422 1.71936 1.03695 1.50784C1.01833 1.49425 0.999711 1.48067 0.981091 1.46708C0.976012 1.46708 0.970934 1.46708 0.965856 1.46708C0.98109 1.46126 0.996325 1.45156 1.00987 1.43409C1.08265 1.18376 0.932002 1.05374 0.794893 0.915957L0.727184 0.842215C0.727184 0.7937 0.727184 0.745185 0.727184 0.698611C0.71872 0.523958 0.720414 0.345425 0.579919 0.223167C0.534215 0.201821 0.48682 0.19794 0.437731 0.213465C0.417419 0.227049 0.403877 0.242573 0.390335 0.260039C0.375101 0.246455 0.359867 0.242573 0.342939 0.246454C0.342939 0.238692 0.342939 0.23093 0.341247 0.223167C0.31247 0.124198 0.276924 0.0310494 0.178747 0C0.131351 0.00582139 0.0941113 0.0310493 0.067028 0.0756829L0.0636426 0.0737423Z" fill="#E1067E"/>
</svg>
