<svg width="1" height="2" viewBox="0 0 1 2" fill="none" xmlns="http://www.w3.org/2000/svg">
<path d="M0.365557 0.172712C0.333395 0.0853854 0.277536 0.0271685 0.196286 0C-0.140563 0.075683 0.0693329 0.376474 0.0202445 0.570532C0.0219371 0.714136 0.02363 0.85774 0.0253226 1.00134C0.0253226 1.3293 0.0236298 1.6592 0.0219372 1.98716C0.0456353 1.98716 0.0676404 1.99104 0.0896455 1.99492C0.240296 1.93282 0.352015 1.82803 0.387562 1.6398C0.418031 1.4632 0.416338 1.28855 0.350323 1.12166C0.338474 1.10225 0.326625 1.08479 0.313083 1.06732C0.423109 0.910135 0.421416 0.752948 0.299541 0.597701C0.301234 0.59576 0.30462 0.593819 0.308005 0.593819C0.401104 0.465741 0.404489 0.322138 0.365557 0.170772V0.172712Z" fill="#E1067E"/>
</svg>
