<svg width="1" height="2" viewBox="0 0 1 2" fill="none" xmlns="http://www.w3.org/2000/svg">
<path d="M0.441411 1.11002C0.443103 1.06732 0.443103 1.02657 0.441411 0.983877C0.510812 0.978056 0.573442 0.95865 0.605603 0.879086C0.680083 0.921778 0.702088 0.999402 0.708859 1.08479C0.732556 1.1333 0.75964 1.13718 0.791801 1.09643C0.783338 0.82669 0.730864 0.572473 0.614067 0.335721C0.610681 0.510374 0.605603 0.686968 0.602218 0.86162C0.554822 0.749067 0.505734 0.638453 0.451567 0.514255C0.432947 0.553067 0.424484 0.591879 0.417713 0.630691C0.399093 0.535601 0.358468 0.450216 0.268754 0.386177C0.260291 0.380355 0.250135 0.380355 0.239978 0.376474C0.241671 0.252276 0.317843 0.118376 0.221359 0C0.0588585 0.0815044 0.014848 0.223167 0.0402387 0.401701C-0.00546454 0.446335 -0.0122354 0.49679 0.0199262 0.555008C0.0250044 0.882967 0.0283896 1.21287 0.0334679 1.54083C0.0825563 1.4632 0.131645 1.38558 0.206124 1.26914C0.212895 1.42051 0.217973 1.53306 0.224744 1.64562C0.248442 1.6495 0.27214 1.65532 0.29753 1.6592C0.463416 1.51754 0.424484 1.30407 0.441411 1.11196V1.11002Z" fill="#E1067E"/>
</svg>
