<svg width="1" height="4" viewBox="0 0 1 4" fill="none" xmlns="http://www.w3.org/2000/svg">
<path d="M0.460344 3.65995C0.467115 3.21167 0.473886 2.76145 0.478964 2.31318C0.475579 2.24138 0.4705 2.16764 0.465422 2.09583C0.50774 1.96387 0.502662 1.83191 0.468808 1.69995C0.512818 1.67473 0.543287 1.63397 0.553443 1.57382C0.497584 1.47679 0.48912 1.37005 0.512818 1.25944C0.44511 1.19928 0.465422 1.11972 0.480657 1.04404C0.543287 0.939245 0.543287 0.836393 0.484042 0.731602C0.482349 0.729661 0.480656 0.729661 0.477271 0.72772C0.521281 0.706374 0.528052 0.650097 0.541594 0.601582C0.436646 0.490969 0.460345 0.353187 0.480657 0.217346C0.462037 0.13196 0.468808 0.0271685 0.367245 0L0.368938 0.00970341C0.255526 0.124198 0.253833 0.271683 0.270761 0.424989C0.265683 0.49291 0.262297 0.56277 0.257219 0.630691C0.265683 0.665621 0.275839 0.702493 0.285995 0.737424C0.280917 1.01687 0.277531 1.29825 0.272453 1.5777C0.24537 1.64368 0.218287 1.70966 0.191203 1.77758C0.219979 1.77952 0.248756 1.78146 0.277532 1.7834C0.302922 2.00851 0.231829 2.21227 0.169198 2.41797C0.172584 2.44126 0.174276 2.4626 0.179355 2.48589C0.18274 2.50142 0.189511 2.515 0.194589 2.53052C0.196281 2.68577 0.197974 2.8449 0.199667 3.00015C0.194589 3.00403 0.191203 3.00791 0.184433 3.01179C0.162428 3.03508 0.147193 3.06419 0.135344 3.09524C0.133651 3.08941 0.131959 3.08359 0.131959 3.07583C0.123495 3.00985 0.115031 2.94193 0.103183 2.87595C0.109953 2.72264 0.0659431 2.55963 0.0997972 2.41021C-0.0440829 2.44902 0.00839085 2.56546 0.0134691 2.66249C0.0117761 2.6586 0.00839129 2.6586 0.00669825 2.65666L0.128573 3.55515C0.133651 3.54545 0.138729 3.53963 0.143808 3.52993C0.148886 3.5144 0.153964 3.49888 0.157349 3.48141C0.165813 3.50664 0.174276 3.53187 0.189511 3.55515C0.252141 3.59785 0.314771 3.64248 0.379094 3.68517C0.404484 3.67159 0.431568 3.66189 0.460344 3.65801V3.65995Z" fill="#EFEEE8"/>
</svg>
