<svg width="3" height="3" viewBox="0 0 3 3" fill="none" xmlns="http://www.w3.org/2000/svg">
<path d="M2.74557 0.0388117C2.73372 0.025228 2.72018 0.0135837 2.70664 0C2.67786 0.0407522 0.788802 1.43603 0.196354 1.88625C0.206511 1.85132 0.214974 1.80669 0.228516 1.74265C0.135417 1.67667 0.0575523 1.63397 0 1.76981C0.133724 1.83968 -0.0220052 1.94253 0.0186198 2.02597C0.123567 1.9891 0.1625 1.97552 0.187891 1.91148C0.546745 1.66114 1.40833 1.04404 2.00924 0.619047C1.99063 0.700552 1.97539 0.783997 1.95846 0.865502C2.02617 0.834452 2.08372 0.782056 2.11927 0.721898C2.21237 0.863561 2.11758 1.14106 2.41211 1.12942C2.19544 0.921778 2.42227 0.657858 2.35625 0.372593C2.52891 0.250336 2.63893 0.174653 2.64063 0.176593C2.67617 0.130019 2.71003 0.0834452 2.74388 0.0368711L2.74557 0.0388117Z" fill="#392726"/>
</svg>
