<svg width="2" height="3" viewBox="0 0 2 3" fill="none" xmlns="http://www.w3.org/2000/svg">
<path d="M0.944531 1.45278C1.05964 1.32665 1.01732 1.16946 1.01224 1.02003C1.01393 0.919122 1.01562 0.818212 1.01901 0.719242C0.93099 0.686252 0.925911 0.64938 1.01562 0.608628C1.01393 0.505777 1.01224 0.402926 1.01055 0.298134L1.03932 0.307837C1.08164 0.220511 1.07825 0.135125 1.0207 0.0575016C0.892057 -0.0317656 0.771875 -0.0142998 0.656771 0.0904916C0.655078 0.367996 0.651693 0.645499 0.65 0.923003C0.607682 1.0375 0.573828 1.15199 0.621224 1.25872C0.621224 1.25872 0.621224 1.25872 0.619531 1.25872C0.548437 1.26261 0.484115 1.28783 0.440104 1.35963C0.440104 1.3771 0.438411 1.39457 0.436719 1.41203C0.416406 1.38098 0.392708 1.34993 0.36224 1.3247C0.340234 1.31694 0.319922 1.31694 0.304687 1.32082C0.411328 1.1908 0.465495 1.04138 0.407943 0.858964C0.375781 0.818212 0.338541 0.808509 0.294531 0.827914C0.260677 0.888073 0.228516 0.950171 0.194661 1.01033C0.164193 1.02003 0.133724 1.01615 0.104948 1.00063C0.0710937 1.04332 0.0355468 1.08601 0 1.12676C0.00846343 1.26649 0.0135418 1.40621 0.0220052 1.54399C0.0355469 1.7167 -0.0440104 1.90688 0.0981771 2.05631C0.0981771 1.88553 0.0998699 1.7167 0.101562 1.54593C0.123568 1.47413 0.0947917 1.36934 0.196354 1.34799C0.198047 1.3771 0.203125 1.40815 0.213281 1.43726C0.316536 1.71282 0.135417 2.02138 0.284375 2.29306C0.34362 2.25036 0.402865 2.20961 0.463802 2.16886C0.543359 2.17662 0.612761 2.15916 0.656771 2.07377C0.656771 2.03884 0.655078 2.00391 0.653385 1.96704C0.639844 1.86419 0.678776 1.78462 0.721094 1.70506C0.729557 1.7167 0.739713 1.72835 0.753255 1.73999C0.807422 1.74581 0.859896 1.74969 0.914062 1.75746C0.922526 1.6546 0.932682 1.55369 0.941146 1.45278H0.944531Z" fill="#EFEEE8"/>
</svg>
