<svg width="1" height="2" viewBox="0 0 1 2" fill="none" xmlns="http://www.w3.org/2000/svg">
<path d="M0.629496 0.102851C0.653194 0.052396 0.641345 0.0194056 0.597335 0L0.218168 0.106732C0.165694 0.172712 0.164001 0.242573 0.209704 0.314375C0.333272 0.442454 0.224939 0.632632 0.306189 0.789819C0.19447 0.646215 0.382361 0.386177 0.143689 0.318256C-0.0560506 0.572473 -0.0272749 0.838333 0.106449 1.10808C0.353584 1.32348 0.475459 1.24392 0.511006 0.898492C0.526241 0.76265 0.444991 0.617107 0.541475 0.492909C0.578715 0.49485 0.605799 0.479325 0.626111 0.446335C0.783533 0.333781 0.615954 0.217346 0.629496 0.10091V0.102851Z" fill="#E1067E"/>
</svg>
