<svg width="1" height="2" viewBox="0 0 1 2" fill="none" xmlns="http://www.w3.org/2000/svg">
<path d="M0.265755 1.54859C0.275911 1.54859 0.28776 1.53889 0.297917 1.52336C0.311458 1.50395 0.302994 1.48261 0.277604 1.45738C0.280989 1.38946 0.282683 1.32154 0.286068 1.25362C0.299609 0.937303 0.345312 0.620987 0.269141 0.306613C0.264062 0.194058 0.291146 0.0698611 0.177734 0C0.110026 0 0.0592448 0.0407521 0.0186198 0.0989699C0.0152346 0.238692 0.0135419 0.376474 0.0101562 0.516196C0.0101562 0.783997 0.0101561 1.0518 0.00846354 1.3196C0.0795575 1.42051 0.110026 1.23615 0.170964 1.25944C0.120183 1.3293 0.0710935 1.40304 0 1.45156C0 1.55635 0 1.6592 0 1.76205C0.103255 1.71548 0.120183 1.5253 0.265755 1.54859Z" fill="#EFEEE8"/>
</svg>
