<svg width="1" height="1" viewBox="0 0 1 1" fill="none" xmlns="http://www.w3.org/2000/svg">
<path d="M0.192969 0.601582C0.177734 0.679205 0.160807 0.754888 0.145573 0.832512C0.245443 0.815046 0.360546 0.7937 0.543359 0.76265C0.458724 0.708314 0.413021 0.644275 0.38763 0.574414C0.440104 0.539483 0.473958 0.518137 0.504427 0.490968C0.512891 0.485146 0.51289 0.465741 0.516276 0.452157C0.497656 0.454097 0.470573 0.446335 0.460417 0.457978C0.436719 0.487087 0.418099 0.522018 0.38763 0.574414C0.372396 0.53172 0.363933 0.487087 0.360547 0.440513C0.450261 0.339602 0.531511 0.232871 0.63138 0.153306C0.523047 0.186297 0.431641 0.223168 0.355469 0.261979C0.353776 0.176594 0.348698 0.0873263 0.321615 0C0.296224 0.116435 0.274219 0.225108 0.252214 0.326019C0.132032 0.417226 0.0558597 0.533661 0 0.700552C0.0727866 0.679205 0.13711 0.644275 0.194661 0.601582H0.192969Z" fill="#392726"/>
</svg>
