<svg width="1" height="2" viewBox="0 0 1 2" fill="none" xmlns="http://www.w3.org/2000/svg">
<path d="M0.532052 0.344232C0.440646 0.303479 0.410177 0.363637 0.383093 0.431558C0.325541 0.286014 0.335698 0.093896 0.176583 0.0162725C0.125802 -0.0128359 0.0817909 -0.00313307 0.0445516 0.0473219C-0.0316202 0.254965 -0.0214643 0.429617 0.164734 0.53635C0.0834839 0.619795 0.0767134 0.730408 0.0953328 0.848784C0.11226 0.957457 0.171505 1.01761 0.261218 1.04478C0.264604 1.01567 0.271374 0.988506 0.283223 0.961338C0.283223 0.858487 0.283223 0.755635 0.283223 0.654725C0.300151 0.654725 0.315385 0.652785 0.330619 0.650844C0.301843 0.808032 0.379708 0.93417 0.43726 1.06613C0.484656 1.14763 0.550671 1.16704 0.630229 1.14763C0.628536 1.11853 0.630229 1.08942 0.633614 1.06031C0.577755 0.825497 0.513431 0.592627 0.535437 0.344232H0.532052Z" fill="#EFEEE8"/>
</svg>
