<svg width="2" height="4" viewBox="0 0 2 4" fill="none" xmlns="http://www.w3.org/2000/svg">
<path d="M0.543359 3.15336C0.56875 3.17083 0.599219 3.17859 0.629688 3.17471C0.648307 3.16306 0.663541 3.14948 0.678776 3.13589C0.707552 3.26203 0.678776 3.41922 0.815885 3.48908C0.859896 3.50073 0.902214 3.49684 0.942839 3.47356C1.0901 3.2989 1.05286 3.13784 0.946224 2.98259C1.0444 2.92631 1.03255 2.8254 1.01055 2.72061C1.02578 2.70897 1.03763 2.6915 1.04948 2.67404C1.0681 2.68762 1.08841 2.69732 1.11211 2.70314C1.12057 2.70314 1.12904 2.70314 1.1375 2.70314C1.20182 2.82928 1.08841 3.00976 1.19336 3.12619C1.28646 3.16112 1.36432 3.33189 1.46758 3.21934C1.60299 3.07186 1.57253 2.87974 1.49466 2.7012C1.76549 2.51103 1.63516 2.30338 1.47266 2.09574C1.3237 2.16172 1.39479 2.36548 1.32878 2.48192C1.3237 2.19665 1.3457 1.91138 1.33385 1.62806C1.32878 1.60865 1.32201 1.59119 1.31523 1.57372C1.32708 1.57372 1.33893 1.57178 1.35078 1.57178C1.45911 1.45147 1.46927 1.33115 1.38633 1.20889C1.39141 1.20307 1.39648 1.19725 1.40156 1.19143C1.48958 1.01871 1.55052 0.840181 1.45742 0.642241L1.45234 0.648063C1.3694 0.679112 1.28815 0.710162 1.20521 0.741211C1.20013 0.67329 1.19167 0.603429 1.18659 0.533568C0.997005 0.818835 1.12734 1.14097 1.10703 1.44564C1.05964 1.47669 1.03932 1.53685 1.00208 1.57954C1.00208 1.61642 1.00208 1.65135 1.00208 1.68822C1.06302 1.82212 0.963151 1.97348 1.04271 2.10544C1.03425 2.14231 1.03255 2.17919 1.03594 2.21606C1.02747 2.16754 1.01732 2.12097 1.00378 2.07439C0.980078 2.05499 0.952995 2.0414 0.924219 2.03364C0.936068 1.95408 0.93776 1.87451 0.888672 1.80271C0.87513 1.74449 0.861589 1.68822 0.848047 1.63194C0.85651 1.61253 0.864974 1.59313 0.878516 1.57372C0.94961 1.46505 0.946224 1.35832 0.876823 1.25159C0.839583 1.19725 0.79388 1.15456 0.741406 1.12157C0.809115 1.04394 0.77526 0.931388 0.788802 0.8363C0.85651 0.609251 0.871745 0.380262 0.817578 0.147392C0.800651 0.0911146 0.773568 0.0425997 0.732943 0.00184747C0.651693 -0.0097963 0.616146 0.0348377 0.602604 0.100818C0.58737 0.0697685 0.567057 0.0406593 0.539974 0.0193127C0.50612 0.0212532 0.472266 0.023194 0.438412 0.0251345C0.465495 0.203668 0.304688 0.356974 0.382552 0.543271C0.374089 0.57432 0.365625 0.60537 0.355469 0.634479C0.296224 0.741211 0.308073 0.851824 0.340234 0.964378C0.284375 1.10798 0.36901 1.23994 0.375781 1.37772C0.377474 1.54461 0.379166 1.7115 0.380859 1.87839C0.374089 2.08992 0.367318 2.30338 0.358854 2.51491C0.336849 2.59253 0.313151 2.66821 0.291146 2.7439C0.314844 2.77301 0.340235 2.80405 0.363932 2.83316C0.291146 3.00976 0.00169303 2.85451 0 3.13978C0.0253907 3.14754 0.052474 3.15336 0.0795573 3.15724C0.238672 3.32219 0.397787 3.43086 0.541667 3.1553L0.543359 3.15336Z" fill="#EFEEE8"/>
</svg>
