<svg width="4" height="3" viewBox="0 0 4 3" fill="none" xmlns="http://www.w3.org/2000/svg">
<path d="M1.80104 1.48846C1.8112 1.47876 1.80443 1.43995 1.80443 1.438C1.74687 1.38561 1.68594 1.54862 1.63177 1.40501C1.66563 1.37202 1.70117 1.34486 1.73164 1.31187C1.85182 1.18573 1.96016 1.07123 2.14635 1.19737C2.24453 1.26335 2.34609 1.15274 2.39857 1.06541C2.4375 1.00137 2.41719 0.888819 2.42396 0.787909C2.7862 0.586088 3.14844 0.374564 3.44635 0.0194362C3.39896 -0.00579128 3.35326 -0.00579152 3.31771 0.0155551C3.11797 0.141693 2.91654 0.26395 2.72357 0.403672C2.40872 0.62878 2.10742 0.881056 1.78919 1.10034C1.42187 1.35262 1.04271 1.57967 0.670313 1.8203C0.621224 1.85329 0.560286 1.88822 0.538281 1.94062C0.50612 2.01824 0.458724 2.0687 0.404557 2.10751C0.384245 2.05705 0.347005 2.0163 0.26237 1.99495C0.245443 2.07646 0.255599 2.13662 0.279297 2.18319C0.252214 2.19483 0.226823 2.20842 0.19974 2.222C0.155729 2.24529 0.11849 2.2841 0 2.37531C0.1625 2.38695 0.267448 2.31903 0.360547 2.27246C0.394401 2.29769 0.429948 2.32097 0.463802 2.3462C0.34362 2.42964 0.170963 2.43353 0.147266 2.65475C0.221745 2.62564 0.296224 2.61206 0.353776 2.57131C0.45026 2.50339 0.53151 2.41024 0.624609 2.33844C0.719401 2.2647 0.819271 2.19871 0.919141 2.13856C1.04102 2.06676 0.99362 1.91927 1.03594 1.82612C1.09857 1.69222 1.24245 1.61848 1.40495 1.57579C1.37109 1.67088 1.3474 1.7388 1.30508 1.85911C1.49635 1.71551 1.6487 1.60489 1.80104 1.48846Z" fill="#392726"/>
</svg>
