<svg width="1" height="2" viewBox="0 0 1 2" fill="none" xmlns="http://www.w3.org/2000/svg">
<path d="M0.316149 1.00522C0.311071 0.974174 0.312763 0.941185 0.321227 0.910135C0.311071 0.869383 0.302608 0.830571 0.292451 0.789819C0.192581 0.537542 0.394013 0.238692 0.202738 0C0.0250032 0.242573 0.150264 0.52784 0.116409 0.791759C0.12318 0.803403 0.129951 0.811165 0.136722 0.818928C-0.0359342 1.03239 -0.0240854 1.27885 0.0571646 1.535C0.0723993 1.55829 0.0876334 1.5777 0.102868 1.5971C0.0960969 1.60487 0.0910192 1.61263 0.0842479 1.62039C0.0825553 1.64562 0.0808624 1.67084 0.0791698 1.69607C0.124873 1.81445 0.0876334 2.01821 0.292451 1.98328C0.299222 1.95223 0.307686 1.92312 0.316149 1.89401C0.339847 1.82027 0.365237 1.74653 0.388935 1.67279C0.395706 1.63591 0.402477 1.59904 0.410941 1.56023C0.378779 1.37588 0.209508 1.22257 0.316149 1.00522Z" fill="#E1067E"/>
</svg>
