<svg width="1" height="1" viewBox="0 0 1 1" fill="none" xmlns="http://www.w3.org/2000/svg">
<path d="M0.230208 0.0543364C0.214974 0.0504555 0.19974 0.0485149 0.187891 0.0523958C0.138802 0.0737424 0.115104 0.104792 0.108333 0.145544C0.0744792 0.168831 0.038932 0.196 0 0.225108C0.0440102 0.227049 0.0812502 0.227049 0.111719 0.227049C0.11849 0.256157 0.128646 0.287206 0.140495 0.320197C0.198047 0.26586 0.252213 0.223167 0.297917 0.168831C0.311458 0.155247 0.309765 0.0931483 0.299609 0.0873264C0.297917 0.0873264 0.296224 0.0853858 0.296224 0.0853858C0.297917 0.0601583 0.299609 0.0329898 0.301302 0C0.277604 0.0194056 0.253906 0.0368713 0.230208 0.0543364Z" fill="#392726"/>
</svg>
