<svg width="1" height="2" viewBox="0 0 1 2" fill="none" xmlns="http://www.w3.org/2000/svg">
<path d="M0.272579 0.663681C0.274272 0.5977 0.277657 0.52978 0.27935 0.46186C0.248881 0.421107 0.21672 0.380355 0.186251 0.339603C0.184558 0.217346 0.216719 0.0815044 0.09823 0C-0.0676557 0.159128 0.0271361 0.36483 0.0254435 0.553067C0.0254435 0.593819 0.0237508 0.634572 0.0237508 0.673384C0.0389855 0.898492 -0.0676555 1.14301 0.0948445 1.34871C0.121928 1.33318 0.152397 1.32542 0.182865 1.32542C0.194714 1.25944 0.206564 1.19346 0.218412 1.12942C0.243803 1.12166 0.267501 1.11196 0.292891 1.10419C0.286121 0.956709 0.279349 0.811165 0.274272 0.663681H0.272579Z" fill="#E1067E"/>
</svg>
