<svg width="1" height="2" viewBox="0 0 1 2" fill="none" xmlns="http://www.w3.org/2000/svg">
<path d="M0.495677 0.873264C0.614167 0.698611 0.493984 0.522018 0.482135 0.349306C0.451667 0.347365 0.421198 0.345424 0.389036 0.341543C0.380573 0.217346 0.416119 0.0776235 0.289166 0C0.21638 0.052396 0.194375 0.126138 0.204531 0.213464C0.0538801 0.357068 0.0809636 0.576354 0.0234113 0.76071C-0.00197946 0.873264 -0.00875008 0.987758 0.013255 1.10225C0.0267967 1.16047 0.052187 1.20899 0.0877342 1.25168C0.094505 1.25556 0.102969 1.2575 0.111432 1.26138L0.108047 1.34483C0.0961976 1.48649 0.0860417 1.62815 0.0758852 1.77176C0.114818 1.82027 0.0386455 2.02791 0.206224 1.89595C0.27224 1.81251 0.289167 1.71936 0.294245 1.62427C0.319635 1.731 0.368724 1.82415 0.488906 1.87849C0.521068 1.88431 0.551536 1.88625 0.58539 1.88625C0.609089 1.81639 0.634479 1.74653 0.65987 1.67473C0.580312 1.52142 0.624323 1.37005 0.658177 1.21675C0.668333 1.1857 0.670026 1.15659 0.663255 1.12554C0.60401 1.04404 0.575235 0.935363 0.499062 0.873264H0.495677Z" fill="#E1067E"/>
</svg>
