<svg width="2" height="2" viewBox="0 0 2 2" fill="none" xmlns="http://www.w3.org/2000/svg">
<path d="M1.63008 0.174653C1.55729 0.108673 1.50482 0.0620988 1.45234 0.0155247C1.45573 0.0116433 1.45911 0.00582139 1.4625 0C1.45742 0.00388092 1.45404 0.0038813 1.45065 0.00582176C1.42526 0.137782 1.32539 0.174653 1.23906 0.225108C1.03425 0.343484 0.85651 0.49679 0.778646 0.723839C0.678776 0.735482 0.602604 0.752948 0.528125 0.749066C0.435026 0.743245 0.34362 0.719957 0.238672 0.702492C0.270833 0.82863 0.299609 0.947006 0.325 1.04404C0.20651 1.22257 0.103255 1.37588 0 1.52724C0.192969 1.34677 0.413021 1.22645 0.63138 1.09643C1.00885 0.873264 1.31862 0.549186 1.63177 0.174653H1.63008Z" fill="#392726"/>
</svg>
