<svg width="1" height="2" viewBox="0 0 1 2" fill="none" xmlns="http://www.w3.org/2000/svg">
<path d="M0.203125 1.08673C0.203125 1.08673 0.165886 1.08673 0.164193 1.08673C0.192969 0.941184 0.289453 0.797581 0.182813 0.642334C0.213281 0.570533 0.245443 0.49679 0.275911 0.424988C0.28099 0.388117 0.28776 0.351246 0.294531 0.314375C0.1625 0.256157 0.198047 0.112554 0.176042 0C0 0.186296 0.148958 0.440513 0.0727865 0.644275C0.0473957 0.644275 0.0253908 0.648156 0.00169271 0.655918C0.0524742 0.774294 0.0930988 0.89461 0.0897136 1.02657C0.0863279 1.02657 0.0829426 1.02463 0.08125 1.02463C0.0440106 1.03045 0.0169273 1.0518 0 1.09061C0.0270833 1.19734 0.0541667 1.30407 0.08125 1.41081C0.0101565 1.46126 0.0016926 1.53889 0.00677083 1.62233C0.0490889 1.70966 0.0727866 1.81057 0.148958 1.86878C0.192969 1.89207 0.231901 1.88431 0.267448 1.8455C0.272526 1.70189 0.279297 1.55829 0.282682 1.41469C0.514583 1.22451 0.196354 1.2051 0.204818 1.08479L0.203125 1.08673Z" fill="#E1067E"/>
</svg>
