<svg width="1" height="2" viewBox="0 0 1 2" fill="none" xmlns="http://www.w3.org/2000/svg">
<path d="M0.0414556 1.33512C-0.011018 1.52142 -0.0533362 1.70384 0.17518 1.77952C0.241195 1.69607 0.307211 1.61457 0.371534 1.53112C0.379997 1.45738 0.388461 1.3817 0.396924 1.30796C0.386768 1.29825 0.376612 1.29049 0.366456 1.28079C0.36307 1.22063 0.359685 1.16241 0.356299 1.10225C0.368148 0.99164 0.378305 0.881027 0.390154 0.770413C0.383383 0.733542 0.376612 0.696671 0.371534 0.66174C0.339372 0.586057 0.308904 0.512314 0.276742 0.436632C0.249659 0.271682 0.36307 0.0310494 0.0939296 0C0.0634606 0.0116438 0.0499189 0.0291088 0.0533046 0.0523958C0.0566902 0.0795643 0.0617678 0.0912076 0.0702317 0.0912076C0.0803877 0.209583 0.0905439 0.327959 0.1007 0.446335C0.104086 0.63069 0.105779 0.815046 0.107471 0.999402C0.105779 1.09061 0.104086 1.18182 0.104086 1.27497C0.0820807 1.29049 0.0617681 1.31184 0.0414556 1.33706V1.33512Z" fill="#E1067E"/>
</svg>
