<svg width="1" height="3" viewBox="0 0 1 3" fill="none" xmlns="http://www.w3.org/2000/svg">
<path d="M0.107882 2.50991C0.128194 2.54872 0.151892 2.55454 0.180668 2.52543C0.33809 2.41094 0.268689 2.22464 0.292387 2.06745C0.314392 2.05193 0.326241 2.03446 0.326241 2.01894C0.432882 1.95102 0.471814 1.85399 0.490434 1.74726C0.492126 1.85399 0.493819 1.96266 0.497205 2.06939C0.527674 1.96072 0.558142 1.85011 0.588611 1.74143C0.561528 1.64634 0.598767 1.52409 0.515824 1.45423C0.51921 1.43094 0.522595 1.40571 0.527673 1.38242C0.537829 1.27375 0.512439 1.17672 0.468429 1.08357C0.415955 0.976842 0.383793 0.858467 0.317778 0.759497C0.309314 0.751734 0.299158 0.745913 0.290694 0.742031C0.336397 0.695457 0.363481 0.641121 0.378715 0.582903C0.370252 0.681873 0.363481 0.780843 0.461658 0.829358C0.476892 0.625596 0.490434 0.423775 0.505668 0.220014C0.51921 0.111341 0.569991 -0.02256 0.387179 0.0162522C0.370252 0.0298359 0.351632 0.0434204 0.334705 0.0589451C0.307621 0.012371 0.270382 -0.0147967 0.204366 0.00848986C0.199288 0.0395392 0.190824 0.0686479 0.178975 0.0977568C0.187439 0.315103 0.195903 0.534389 0.202673 0.749794C0.11296 1.07581 0.153585 1.43676 0.0046265 1.74726C-0.00722256 1.8404 -0.00214401 1.92773 0.0909546 1.96848C0.123116 2.14702 0.155277 2.32555 0.106189 2.50991H0.107882Z" fill="#E1067E"/>
</svg>
