<svg width="1" height="1" viewBox="0 0 1 1" fill="none" xmlns="http://www.w3.org/2000/svg">
<path d="M0.080388 0.00715606C0.0617681 0.0129779 0.0431481 0.0149184 0.0245286 0.0149184C0.0296064 0.274957 -0.0685702 0.54858 0.0956224 0.789212C0.161638 0.752341 0.229346 0.71547 0.295362 0.678599C0.214112 0.600976 0.207341 0.490362 0.205648 0.381689C0.217497 0.432144 0.242888 0.480659 0.291977 0.523352C0.298747 0.420501 0.303826 0.31765 0.310596 0.214799C0.303826 0.146878 0.298747 0.0770168 0.291977 0.00909665C0.263201 -0.000606653 0.234425 -0.00254699 0.205648 0.00327489C0.21242 0.0750765 0.202263 0.15076 0.195492 0.224502C0.185336 0.139116 0.158253 0.0634329 0.0786953 0.00715606H0.080388Z" fill="#E1067E"/>
</svg>
