<svg width="1" height="2" viewBox="0 0 1 2" fill="none" xmlns="http://www.w3.org/2000/svg">
<path d="M0.296834 0C0.293449 0.0931481 0.293449 0.188237 0.291756 0.281386C0.271443 0.190178 0.215584 0.118376 0.0750896 0.100911C0.0395424 0.145544 0.0158448 0.19794 0.00230314 0.256158C-0.0129316 0.467682 0.0513917 0.667562 0.078475 0.875204C0.078475 0.912076 0.078475 0.948947 0.078475 0.985818C0.03785 1.06538 0.0344646 1.13912 0.102173 1.20122C0.132641 1.20899 0.16311 1.21675 0.191886 1.22451L0.185116 1.18764C0.320532 1.26138 0.276522 1.40499 0.288371 1.52724L0.330689 1.53694L0.374699 1.535C0.523657 1.38752 0.484725 1.19734 0.467798 1.01299C0.457641 0.96059 0.439022 0.912076 0.410246 0.869383C0.40009 0.863561 0.391626 0.85968 0.384855 0.855799C0.540584 0.688908 0.452564 0.46186 0.474569 0.26392C0.457642 0.137782 0.454257 0 0.296834 0Z" fill="#E1067E"/>
</svg>
