<svg width="1" height="2" viewBox="0 0 1 2" fill="none" xmlns="http://www.w3.org/2000/svg">
<path d="M0.0852617 0.914016C0.100496 0.950887 0.100496 0.985818 0.0852617 1.02075C0.0446367 1.09837 0.0361728 1.17405 0.0852617 1.24974C0.100496 1.27885 0.112345 1.30796 0.11573 1.34289C0.17159 1.37976 0.217293 1.36811 0.25284 1.30795C0.286694 1.19734 0.308699 1.08479 0.322241 0.972234C0.427189 0.818927 0.442423 0.665621 0.329012 0.516196C0.318855 0.382295 0.301929 0.252276 0.27823 0.120316C0.254532 0.0620988 0.2156 0.0213461 0.163126 0C0.0344805 0.0213461 -0.0213788 0.102851 0.00739713 0.254216C0.149585 0.456037 0.0886469 0.690849 0.0852617 0.915957V0.914016Z" fill="#E1067E"/>
</svg>
