<svg width="2" height="1" viewBox="0 0 2 1" fill="none" xmlns="http://www.w3.org/2000/svg">
<path d="M0.910677 0.23093C0.8125 0.306613 0.726172 0.271682 0.629687 0.23287C0.670313 0.161068 0.707552 0.0970291 0.763411 0C0.580599 0.0620988 0.499349 0.178534 0.472266 0.293029C0.328386 0.353187 0.216667 0.399761 0.0829427 0.454097C0.116797 0.388118 0.138802 0.345424 0.159115 0.304672C0.138802 0.29691 0.11849 0.287206 0.0981771 0.279444C0.0660155 0.327959 0.0338537 0.376474 0 0.42887C0.038932 0.473503 0.0660157 0.518137 0.101562 0.541424C0.123568 0.555008 0.170964 0.551126 0.191276 0.533661C0.304687 0.438573 0.426562 0.457978 0.55013 0.479325C0.567057 0.483206 0.600911 0.475444 0.600911 0.471562C0.607682 0.318256 0.749869 0.440513 0.785417 0.351246C0.90052 0.393939 0.95638 0.289148 1.02917 0.225108C0.988542 0.223168 0.93776 0.209583 0.910677 0.23287V0.23093Z" fill="#392726"/>
</svg>
