<svg width="14" height="43" viewBox="0 0 14 43" fill="none" xmlns="http://www.w3.org/2000/svg">
<path d="M5.06289 42.2252C3.28216 42.2252 1.99401 41.7187 1.19505 40.7057C0.397786 39.6947 0 38.1519 0 36.0774C0 34.003 0.910677 28.4451 2.73372 19.3981L0.341927 15.2821C3.90169 12.8331 6.7082 11.6086 8.75807 11.6086C9.92604 11.6086 10.7521 11.8958 11.2362 12.4663C11.7203 13.0388 11.9624 13.9606 11.9624 15.2336C11.9624 15.7246 11.4359 18.5986 10.3814 23.8556C9.32852 29.1127 8.80208 32.8677 8.80208 35.1227C8.80208 37.3757 9.24219 38.9417 10.1258 39.8247C8.53125 41.4238 6.84193 42.2252 5.06289 42.2252ZM13.3724 3.8443C13.3724 5.1018 12.8036 6.18077 11.6645 7.07732C10.5236 7.97581 9.22865 8.42409 7.7763 8.42409C6.32396 8.42409 5.1763 8.09807 4.33672 7.44603C3.49544 6.79205 3.07565 5.91103 3.07565 4.79907C3.07565 3.299 3.68841 2.123 4.91393 1.27302C6.13776 0.424989 7.43438 0 8.80208 0C10.1681 0 11.2717 0.326019 12.113 0.979996C12.9526 1.63203 13.3724 2.5868 13.3724 3.8443Z" fill="#C2E2E1"/>
</svg>
