<svg width="2" height="5" viewBox="0 0 2 5" fill="none" xmlns="http://www.w3.org/2000/svg">
<path d="M1.11969 1.64474L1.13492 1.66415L1.15693 1.65056C1.14339 1.60981 1.13154 1.56906 1.11969 1.52831C1.13154 1.50114 1.13492 1.47397 1.12985 1.44292C0.953805 0.97524 1.09768 0.480391 1.03336 0.0030063C0.899638 -0.0202807 0.879325 0.0961546 0.848857 0.199006C0.835315 0.164075 0.816696 0.129144 0.791305 0.0942139C0.715133 0.0651049 0.677893 0.11556 0.654195 0.187362C0.655888 0.231996 0.657581 0.28051 0.657581 0.327084C0.608492 0.385302 0.603415 0.451282 0.628805 0.525024C0.635576 0.534727 0.644039 0.54249 0.652503 0.548311C0.65081 0.591004 0.65081 0.631756 0.649117 0.672509C0.62542 0.668628 0.601721 0.670568 0.578024 0.67833C0.45107 0.983002 0.786226 1.41769 0.373206 1.64086C0.410445 1.13437 0.356279 0.653103 0.093909 0.226174C0.093909 0.367836 0.0956017 0.509499 0.0956017 0.649222C0.0600549 1.02376 -0.14307 1.41381 0.180237 1.75342C0.242867 1.71654 0.30719 1.68161 0.36982 1.64862C0.36982 1.68744 0.369821 1.72431 0.371513 1.76312C0.518779 1.90478 0.462919 2.14153 0.564482 2.3026C0.572945 2.29096 0.581409 2.27931 0.589873 2.26767C0.601721 2.32395 0.615263 2.38022 0.628805 2.4365C0.65081 2.39575 0.672815 2.355 0.69482 2.31424C0.681279 2.23274 0.693128 2.14153 0.660966 2.06779C0.686357 1.89508 0.642347 1.70878 0.664352 1.53413C0.664352 1.44098 0.662659 1.34589 0.660966 1.25274C0.674508 1.3032 0.691435 1.35365 0.71344 1.40411C0.740524 1.4371 0.7693 1.45068 0.801461 1.4468C0.742216 1.53025 0.711748 1.62534 0.720211 1.73983C0.73206 1.78058 0.75068 1.81357 0.77607 1.84268C0.764221 2.12601 0.701591 2.41516 0.804847 2.69072C0.799768 2.69848 0.796383 2.70624 0.792998 2.71595C0.784534 2.76446 0.786226 2.81492 0.792998 2.86537C0.864091 2.98763 0.896253 3.09048 0.711748 3.10018C0.659273 3.19915 0.654195 3.302 0.672815 3.41068C0.684664 3.45143 0.703284 3.48636 0.726982 3.51935C0.584794 3.53293 0.666045 3.61444 0.708362 3.68624C0.578024 3.89582 0.593258 4.11705 0.701591 4.34798C0.718518 4.3635 0.735445 4.37903 0.752373 4.39649C0.742216 4.41008 0.733753 4.42172 0.726982 4.43725C0.708362 4.53816 0.748987 4.61578 0.799768 4.69146C0.815003 4.70505 0.83193 4.71669 0.848857 4.72833C0.91318 4.72639 0.979196 4.58861 1.04183 4.73222C1.0706 4.72833 1.09938 4.72639 1.12985 4.72445C1.14847 4.59443 1.08753 4.49546 1.03167 4.39455C1.03505 4.24901 1.04013 4.10541 1.04352 3.95986C1.03505 3.92105 1.02659 3.88612 1.01813 3.84731L1.05706 3.85119C1.0469 3.73669 1.03505 3.6222 1.0249 3.50771C1.03505 3.22244 1.0469 2.93717 1.05706 2.64997C1.08414 2.6422 1.10953 2.63832 1.13662 2.63832C1.1417 2.59951 1.14847 2.56458 1.15524 2.52577C1.11292 2.4171 1.0706 2.30648 1.02828 2.19781C1.14847 2.03286 1.16709 1.84656 1.1163 1.64862L1.11969 1.64474Z" fill="#E1067E"/>
</svg>
