<svg width="1" height="1" viewBox="0 0 1 1" fill="none" xmlns="http://www.w3.org/2000/svg">
<path d="M0.358201 0.219286C0.361586 0.163009 0.363278 0.104792 0.364971 0.0465741C0.359893 0.0349303 0.356508 0.0213464 0.356508 0.00582176C0.344659 0.00582176 0.331117 0.00582201 0.319268 0.00970293C0.282029 0.00776247 0.244789 0.00388092 0.209242 0L0.216013 0.00970293C0.192315 0.0485147 0.187237 0.0873265 0.18893 0.128079C0.153383 0.124198 0.116143 0.137782 0.0805965 0.149425C0.07044 0.16495 0.0602843 0.182415 0.0518204 0.19988C-0.0412782 0.318256 0.00442492 0.432751 0.0839819 0.516196C0.138149 0.572473 0.227862 0.574414 0.285414 0.500671C0.349737 0.415286 0.366664 0.327959 0.31419 0.244514C0.319268 0.238692 0.324347 0.23287 0.327732 0.227049C0.337888 0.223168 0.348044 0.221227 0.358201 0.219286Z" fill="#DAD7C5"/>
</svg>
