<svg width="1" height="6" viewBox="0 0 1 6" fill="none" xmlns="http://www.w3.org/2000/svg">
<path d="M0.871745 0.541424C0.873437 0.360949 0.876823 0.180474 0.880208 0C0.707552 0.149425 0.820964 0.36483 0.787109 0.545305C0.785417 0.690849 0.783724 0.838333 0.782031 0.985818C0.710938 1.0615 0.685547 1.16047 0.675391 1.26526C0.665235 1.38946 0.653385 1.51172 0.629687 1.63397C0.611068 1.7737 0.644922 1.91148 0.653385 2.0512C0.629688 1.9988 0.58737 1.95805 0.507812 1.94253C0.50612 1.94253 0.504427 1.94447 0.502734 1.94447C0.50612 1.88237 0.509505 1.82221 0.512891 1.76011C0.472266 1.65532 0.411329 1.57382 0.309766 1.54083C0.363932 1.7737 0.214974 1.96775 0.211589 2.18898C-0.00169293 2.02791 0.236979 1.68831 0.0186198 1.52918C0.0118485 1.60681 0.00677094 1.68443 0.00169271 1.76399C0.00169271 2.01821 0.0016926 2.27243 0 2.52858L0.0355469 2.515C0.0372395 2.75757 0.0220052 3.00791 0.218359 3.18062C0.18789 2.96716 0.258984 2.73623 0.137109 2.53829C0.142188 2.53635 0.148958 2.53441 0.155729 2.53052C0.177734 2.50336 0.198047 2.47425 0.214974 2.44514C0.220052 2.50142 0.233594 2.55769 0.257292 2.61203C0.270833 2.63338 0.28776 2.65084 0.304688 2.66637C0.165885 2.82355 0.20651 2.99821 0.289453 3.17674C0.296224 3.24078 0.304688 3.30676 0.311458 3.37274C0.338542 3.38826 0.36901 3.39797 0.401172 3.39991C0.402864 3.42708 0.404557 3.4523 0.404557 3.47753C0.367318 3.53575 0.340235 3.60173 0.323307 3.67547C0.311459 3.80937 0.294531 3.94521 0.396094 4.04418C0.394401 4.04418 0.392709 4.04612 0.389323 4.04612C0.365625 4.09464 0.352084 4.14703 0.350391 4.20137C0.352084 4.21107 0.353776 4.22272 0.353776 4.23242C0.245443 4.08687 0.331771 3.89864 0.299609 3.73757C0.272526 3.68517 0.24375 3.68323 0.216667 3.73951C0.211588 3.9685 0.233594 4.20525 0.0981771 4.40513C0.133724 4.44006 0.170964 4.47887 0.20651 4.5138C0.240365 4.51186 0.267448 4.50216 0.294531 4.48858C0.289453 4.55456 0.28776 4.62442 0.28776 4.6904C0.294531 4.82624 0.297917 4.96208 0.401172 5.05911C0.546745 4.99701 0.4875 4.84758 0.50612 4.73115C0.639843 4.65159 0.704167 4.63606 0.639844 4.85923C0.573828 5.08822 0.710938 4.95432 0.77526 4.93685C0.782031 4.75444 0.787109 4.57396 0.792188 4.38961L0.782031 4.39737C0.673698 4.30422 0.705859 4.1121 0.58737 4.02478C0.583984 4.02478 0.582292 4.02478 0.580599 4.0209C0.583985 3.9782 0.58737 3.93163 0.589063 3.88894C0.607682 3.97044 0.651693 4.03448 0.773568 4.04806C0.782031 3.87147 0.788802 3.69294 0.797266 3.51634C0.797266 3.33587 0.795573 3.15539 0.79388 2.97298C0.826042 2.92058 0.844662 2.86431 0.851432 2.80027C0.851432 2.7925 0.84974 2.78474 0.84974 2.77504C0.881901 2.69742 0.87513 2.60427 0.888672 2.51888C0.881901 1.85908 0.87513 1.19928 0.870052 0.541424H0.871745Z" fill="#E1067E"/>
</svg>
