<svg width="1" height="2" viewBox="0 0 1 2" fill="none" xmlns="http://www.w3.org/2000/svg">
<path d="M0.364532 0.170772C0.332371 0.0853858 0.278204 0.0271685 0.196954 0C-0.141587 0.075683 0.0700009 0.376474 0.0209125 0.570532C0.0226055 0.712195 0.024298 0.857739 0.0259906 0.999402C0.0259906 1.3293 0.0226052 1.6592 0.0226052 1.98716C0.0446103 1.98716 0.068308 1.9891 0.0903136 1.99492C0.240965 1.93282 0.352683 1.82803 0.38823 1.63786C0.418699 1.4632 0.417006 1.28855 0.350991 1.11972C0.339142 1.10225 0.3256 1.08479 0.313751 1.06732C0.423777 0.908194 0.420392 0.752948 0.298517 0.597701C0.301902 0.59576 0.305287 0.593819 0.30698 0.593819C0.401772 0.465741 0.405157 0.322138 0.364532 0.170772Z" fill="#E1067E"/>
</svg>
