<svg width="1" height="5" viewBox="0 0 1 5" fill="none" xmlns="http://www.w3.org/2000/svg">
<path d="M0.0794298 3.95504C0.072659 4.04236 0.0438829 4.13939 0.157294 4.1685C0.192841 4.10058 0.228388 4.03072 0.262242 3.9628C0.389196 4.18014 0.607555 3.7668 0.726044 4.05207C0.726044 4.01908 0.72943 3.98414 0.736201 3.9531C0.819143 3.79785 0.858076 3.63484 0.812373 3.45436C0.734508 3.33211 0.704039 3.06819 0.533076 3.20597C0.52292 3.1691 0.507685 3.13223 0.487373 3.09924C0.475524 3.08371 0.461982 3.07401 0.450133 3.06625C0.516148 3.01773 0.539847 2.94205 0.541539 2.85472L0.543232 2.85666C0.543232 2.85666 0.543232 2.85472 0.543232 2.85278L0.734508 2.74411C0.825914 2.49183 0.788675 2.23762 0.742972 1.9834C0.734508 1.83786 0.724352 1.69231 0.715888 1.54677C0.717581 1.39152 0.780211 1.22463 0.656643 1.09073C0.739586 0.838455 0.58555 0.867563 0.455211 0.871444C0.505992 0.727841 0.624482 0.780236 0.715888 0.753069C0.665107 0.646336 0.614325 0.539604 0.563544 0.432872C0.643101 0.314496 0.500914 0.227169 0.534768 0.116556C0.483987 0.0466951 0.417972 0.0098238 0.338414 0.000120995C0.258857 -0.00181947 0.187763 0.0195265 0.121748 0.0680415C-0.02044 0.240754 -0.0356744 0.419287 0.10482 0.601703C0.111591 0.605584 0.11667 0.609465 0.12344 0.613346C0.106513 0.65992 0.118362 0.710376 0.155602 0.762771C0.184378 0.762771 0.213154 0.766653 0.24193 0.770534C0.275784 0.927722 0.230081 1.06162 0.152216 1.18776C0.125133 1.19746 0.0980496 1.20911 0.0709663 1.22269C-0.0255184 1.31778 -0.0136691 1.42257 0.0472684 1.53512C-0.00859089 2.127 0.187763 2.70142 0.153909 3.2933C0.0523465 3.35345 0.0574246 3.44078 0.0709663 3.53199C0.0455756 3.5708 0.0235705 3.60961 0.0100288 3.65619C0.00833619 3.72993 0.0184924 3.79591 0.0743517 3.84248C0.148831 3.87741 0.16068 3.91428 0.0794298 3.95698V3.95504Z" fill="#E1067E"/>
</svg>
