<svg width="1" height="2" viewBox="0 0 1 2" fill="none" xmlns="http://www.w3.org/2000/svg">
<path d="M0.028776 0C0.028776 0.0291089 0.0186195 0.0523961 0 0.0718017C0.00677083 0.432751 0.0118493 0.7937 0.0169271 1.15465C0.20651 0.935363 0.0490885 0.653978 0.116797 0.413345C0.174349 0.483207 0.231901 0.553067 0.289453 0.624869C0.28099 0.751007 0.106641 0.89267 0.269141 0.987759C0.340234 1.03045 0.384245 0.851918 0.394401 0.741305C0.509505 0.813106 0.492578 0.941184 0.497656 1.0615C0.380859 1.18764 0.297917 1.32542 0.392708 1.5156C0.448568 1.43215 0.506119 1.34871 0.561979 1.26526C0.629687 1.20316 0.63138 1.13718 0.578906 1.0712C0.600911 1.06344 0.619531 1.04598 0.636458 1.01881C0.717708 0.801462 0.741406 0.59382 0.580599 0.407524C0.546744 0.405583 0.512891 0.401702 0.480729 0.39782C0.451953 0.366771 0.423177 0.335721 0.394401 0.304672C0.362239 0.300791 0.330078 0.29691 0.297917 0.293029C0.238672 0.291088 0.18112 0.289147 0.123568 0.285266C0.116797 0.178534 0.126953 0.0659802 0.028776 0Z" fill="#E1067E"/>
</svg>
