<svg width="1" height="2" viewBox="0 0 1 2" fill="none" xmlns="http://www.w3.org/2000/svg">
<path d="M0.101562 1.00223C0.137109 1.09926 0.174349 1.19629 0.209896 1.29332C0.365625 1.13419 0.301302 0.944015 0.284375 0.75966C0.302995 0.722789 0.323307 0.687858 0.34362 0.652928C0.369011 0.577245 0.367318 0.503502 0.340234 0.42782C0.335156 0.418117 0.326693 0.410354 0.319922 0.402592C0.362239 0.357959 0.380859 0.2978 0.385938 0.227939C0.385938 0.142554 0.357162 0.0668708 0.299609 0.00671253C0.0829427 -0.0359801 0.101562 0.132851 0.106641 0.290038C-0.0118492 0.373484 0.0253907 0.520968 0 0.643225C0.0440106 0.75772 -0.0270833 0.918788 0.101562 1.00223Z" fill="#E1067E"/>
</svg>
