<svg width="2" height="2" viewBox="0 0 2 2" fill="none" xmlns="http://www.w3.org/2000/svg">
<path d="M0.594141 0.871323C0.341927 0.948947 0.167578 1.14495 0 1.36035C0.0423176 1.40693 0.0643229 1.42827 0.0846354 1.44962C0.226823 1.38752 0.370703 1.32736 0.514583 1.2672C0.536588 1.25168 0.558594 1.23421 0.580599 1.22063C0.558594 1.23615 0.534896 1.25556 0.511198 1.27302C0.744792 1.25168 0.886979 1.05568 1.03255 0.879086C1.26107 0.603523 1.5099 0.36289 1.78242 0.149425C1.80781 0.13002 1.82135 0.0892672 1.87383 0C1.7638 0.0465741 1.69609 0.0543365 1.66055 0.0950887C1.54714 0.227049 1.41003 0.304672 1.26953 0.386177C1.15612 0.452156 1.03763 0.525899 0.952995 0.632631C0.849739 0.76071 0.734636 0.82669 0.594141 0.869383V0.871323Z" fill="#392726"/>
</svg>
