<svg width="1" height="2" viewBox="0 0 1 2" fill="none" xmlns="http://www.w3.org/2000/svg">
<path d="M0.299609 1.29631C0.360547 1.30601 0.385938 1.26526 0.397786 1.2051C0.457031 1.23227 0.516276 1.26138 0.575521 1.28855C0.573828 1.04015 0.573828 0.791759 0.570443 0.543364C0.570443 0.36289 0.573828 0.180474 0.573828 0C0.314844 0.143603 0.538281 0.368712 0.502734 0.549186C0.497656 0.652037 0.492578 0.754888 0.489193 0.857739C0.462109 0.830571 0.433333 0.805343 0.40625 0.780116C0.419792 0.76071 0.429948 0.739363 0.438411 0.714136C0.453646 0.516196 0.362239 0.436632 0.201432 0.43081C0.133724 0.502612 0.0660157 0.574414 0 0.644275C0.0050778 0.718017 0.0118494 0.791759 0.0186198 0.865502C0.0203128 1.11972 0.0236977 1.37394 0.0270833 1.63009C0.0541667 1.63203 0.0795576 1.63591 0.104948 1.63785C0.348698 1.40887 0.235286 1.17017 0.140495 0.931481C0.177735 0.929541 0.213281 0.921779 0.248828 0.906254C0.253906 0.902373 0.258984 0.898491 0.264062 0.896551C0.330078 1.01687 0.280989 1.16435 0.299609 1.29631Z" fill="#E1067E"/>
</svg>
