<svg width="1" height="2" viewBox="0 0 1 2" fill="none" xmlns="http://www.w3.org/2000/svg">
<path d="M0.00627051 0.978056C0.0113483 1.08285 0.0164268 1.1857 0.0231976 1.28855C0.226323 1.3914 0.0942912 1.09061 0.207703 1.08479C0.346505 1.01687 0.294031 0.879085 0.295724 0.76071C0.266948 0.754888 0.238171 0.752948 0.209396 0.752948C0.214473 0.638453 0.219552 0.523958 0.22463 0.409464C0.172156 0.279445 0.275411 0.0931481 0.116297 0C0.111218 0.139722 0.10614 0.277504 0.101062 0.415285C0.133223 0.52978 0.0892132 0.673384 0.204317 0.754888C0.0875206 0.770413 -0.0241981 0.791759 0.0045778 0.979996L0.00627051 0.978056Z" fill="#E1067E"/>
</svg>
