<svg width="1" height="3" viewBox="0 0 1 3" fill="none" xmlns="http://www.w3.org/2000/svg">
<path d="M0.282682 0.023287C0.148958 0.0892667 0.214974 0.244514 0.176042 0.353187C0.150651 0.419167 0.126953 0.483206 0.110026 0.549186C0.101563 0.520078 0.091406 0.490968 0.08125 0.46186C0.0541667 0.459919 0.0270833 0.457979 0 0.456038C0.00338563 0.815047 0.00677105 1.17405 0.0101562 1.535C0.0998701 1.50201 0.0914061 1.40498 0.116797 1.3293C0.118489 1.29631 0.121875 1.26526 0.12526 1.23227C0.138802 1.26526 0.154037 1.29825 0.170964 1.3293C0.18112 1.55053 0.189584 1.76981 0.19974 1.9891C0.220053 2.02791 0.250521 2.0512 0.289453 2.05508C0.330078 2.04926 0.357162 2.02403 0.372396 1.98134C0.374088 1.91342 0.375781 1.8455 0.375781 1.77758C0.353776 1.4438 0.352083 1.10807 0.367318 0.774294C0.372396 0.780115 0.377474 0.787878 0.382552 0.7937C0.546745 0.531721 0.514584 0.26586 0.389323 0C0.353776 0.00776235 0.318229 0.0155247 0.284375 0.023287H0.282682Z" fill="#E1067E"/>
</svg>
