<svg width="1" height="2" viewBox="0 0 1 2" fill="none" xmlns="http://www.w3.org/2000/svg">
<path d="M0.22002 1.19928C0.280957 1.1954 0.341895 1.18958 0.404525 1.1857C0.433301 1.16629 0.446843 1.14883 0.441765 1.12748C0.477312 1.1333 0.511166 1.1333 0.543327 1.1236C0.526401 1.14301 0.51963 1.16629 0.524708 1.1954C0.523015 1.22451 0.523015 1.25362 0.524708 1.28273C0.578874 1.32154 0.633041 1.36035 0.687208 1.39722C0.688901 1.28273 0.746452 1.14883 0.600879 1.09061L0.605958 1.08479C0.605958 1.08479 0.602572 1.08867 0.600879 1.09061C0.604265 1.04792 0.60765 1.00328 0.611036 0.96059L0.622885 0.952828C0.622885 0.947006 0.622885 0.941184 0.622885 0.935362C0.753223 0.624869 0.746452 0.314375 0.616114 0.00194059V0C0.58226 0.0291084 0.555176 0.0659796 0.536557 0.106732C0.456999 0.157187 0.389291 0.215405 0.389291 0.318256C0.38252 0.314375 0.374057 0.310494 0.367286 0.306612C-0.0237296 0.368711 -0.0728186 0.518136 0.081218 1.176C0.12015 1.23227 0.167546 1.24003 0.22002 1.19928Z" fill="#E1067E"/>
</svg>
