<svg width="1" height="4" viewBox="0 0 1 4" fill="none" xmlns="http://www.w3.org/2000/svg">
<path d="M0.426563 2.70906C0.302995 2.85848 0.411328 3.05254 0.350391 3.21167C0.401172 3.21361 0.451953 3.21361 0.502734 3.21555C0.502734 3.01179 0.502734 2.80609 0.502734 2.60039C0.50612 2.42379 0.507813 2.24526 0.509505 2.06867C0.509505 1.82803 0.509505 1.5874 0.507812 1.34677C0.551823 1.1857 0.497656 1.0518 0.418099 0.92566C0.419792 0.617106 0.421484 0.308553 0.423177 0C0.367317 0.0310494 0.309766 0.0620988 0.252214 0.0931481L0.264062 0.29885C0.253906 0.36677 0.24375 0.436632 0.233594 0.504552C0.233594 0.62875 0.231901 0.751007 0.230208 0.873264C0.199739 0.881026 0.172656 0.898492 0.152344 0.92566C0.152344 0.960591 0.157422 0.99358 0.170964 1.02463C0.113412 1.08673 0.0575523 1.14883 0 1.21287C0.165886 1.1954 0.240364 1.33318 0.323307 1.45932C0.301302 1.49037 0.280989 1.52336 0.258984 1.55441C0.252214 1.62233 0.24375 1.69025 0.236979 1.76011C0.221745 1.90954 0.250521 2.03179 0.36901 2.1036C0.291146 2.123 0.201433 2.1327 0.231901 2.28601C0.238672 2.31512 0.240364 2.34423 0.233594 2.37334C0.265755 2.50918 0.240364 2.68965 0.426563 2.70906Z" fill="#EFEEE8"/>
</svg>
