<svg width="36" height="38" viewBox="0 0 36 38" fill="none" xmlns="http://www.w3.org/2000/svg">
<path d="M34.2469 0.898492C33.7204 0.446335 33.0197 0.215405 32.1615 0.215405C31.4691 0.215405 30.8395 0.359008 30.291 0.644275C29.7646 0.917897 29.1281 1.39916 28.3376 2.11718L27.5353 2.87983C26.0863 1.927 24.6374 1.21093 23.2273 0.749066C21.709 0.252276 20.0366 0 18.2542 0C15.5509 0 13.1168 0.791759 11.0195 2.35199C8.90195 3.92775 7.47839 6.04493 6.79115 8.64337C6.43568 9.91252 6.25456 11.2205 6.25456 12.5304C6.25456 14.4302 6.65065 16.1108 7.43268 17.5274C8.19271 18.9071 9.10508 20.0715 10.1444 20.9874C11.1499 21.8743 12.4685 22.8892 14.0647 24.007L14.0715 24.0109C15.5289 24.9909 16.6173 25.837 17.3062 26.5259C17.9072 27.1294 18.2 27.7543 18.2 28.4393C18.2 28.8197 18.1611 28.973 18.1441 29.0234L18.1306 29.0642C17.9833 29.6036 17.7464 29.9782 17.4078 30.2052C17.0388 30.4536 16.4768 30.5798 15.7354 30.5798C14.6605 30.5798 13.7279 30.2867 12.9628 29.7104C12.1672 29.1107 11.2802 28.0065 10.3255 26.425C9.35898 24.8667 8.59219 23.8129 7.97773 23.2017C7.30742 22.5341 6.54063 22.1964 5.70104 22.1964C4.86146 22.1964 4.22669 22.439 3.70026 22.9164C3.17383 23.3918 2.78112 24.137 2.49844 25.1946L0.214974 33.1879C0.0727865 33.6459 0 34.0922 0 34.5114C0 35.3788 0.275911 36.0774 0.820964 36.5898C1.33385 37.071 2.01771 37.3155 2.85391 37.3155C3.54961 37.3155 4.18945 37.1603 4.75482 36.8556C5.29818 36.5626 5.96172 36.0328 6.7793 35.243L8.14023 33.935C9.59089 35.1809 11.0348 36.0891 12.438 36.6383C13.9462 37.2302 15.8234 37.5309 18.0189 37.5309C20.9642 37.5309 23.5811 36.7508 25.8003 35.2139C28.0499 33.6556 29.5868 31.3463 30.3689 28.3481C30.6939 27.1837 30.8598 26.0019 30.8598 24.8376C30.8598 23.0076 30.4535 21.362 29.6546 19.9434C28.8776 18.5637 27.9246 17.3896 26.8193 16.4542C25.7529 15.5499 24.3885 14.5272 22.7686 13.4133C21.2147 12.3266 20.0586 11.4145 19.3358 10.7023C18.7044 10.0833 18.398 9.45066 18.398 8.76757C18.398 8.17957 18.5758 7.69637 18.9397 7.29078C19.3087 6.87938 19.7556 6.6795 20.304 6.6795C21.1402 6.6795 21.9714 6.95118 22.7737 7.48484C23.6031 8.03985 24.5544 9.01791 25.6005 10.3938C26.7194 11.9385 27.5268 12.9379 28.0702 13.4502C28.6779 14.0227 29.3922 14.3118 30.1979 14.3118C31.002 14.3118 31.6029 14.0751 32.026 13.6074C32.4238 13.1727 32.737 12.4877 32.9824 11.5213L34.9409 4.1121C35.0509 3.73175 35.1051 3.36304 35.1051 3.01567C35.1051 2.11718 34.8072 1.38364 34.2435 0.896551L34.2469 0.898492Z" fill="#392726"/>
</svg>
