<svg width="1" height="2" viewBox="0 0 1 2" fill="none" xmlns="http://www.w3.org/2000/svg">
<path d="M0.379167 0.00194059C0.279297 0.155247 0.138802 0.281385 0.108333 0.485147C0.103255 0.520077 0.101563 0.556948 0.103255 0.589938C0.0964844 0.566651 0.0897134 0.543364 0.08125 0.518137C0.0541667 0.518137 0.0270833 0.518137 0 0.518137C0.0050778 0.76071 0.00846343 1.00328 0.0135417 1.24586C0.0355468 1.24586 0.0575518 1.24392 0.0795573 1.24198C0.0846351 1.22839 0.088021 1.21481 0.0914062 1.20316C0.108334 1.28661 0.138802 1.37199 0.186198 1.45544C0.28776 1.50395 0.326692 1.43603 0.350391 1.339C0.382552 1.27302 0.413021 1.20704 0.44349 1.14106C0.441797 1.06926 0.440104 0.999402 0.438411 0.9276C0.440104 0.624869 0.443489 0.322137 0.446875 0.0194059C0.424869 0.00970256 0.402864 0.00388142 0.379167 0V0.00194059Z" fill="#EFEEE8"/>
</svg>
