<svg width="1" height="2" viewBox="0 0 1 2" fill="none" xmlns="http://www.w3.org/2000/svg">
<path d="M0.378033 0.126114C0.344178 0.0873022 0.310325 0.0446092 0.27647 0.003857C0.0970432 -0.0271924 0.112277 0.135817 0.085194 0.256133C0.085194 0.310469 0.0885798 0.360925 0.100428 0.41138C0.115663 0.490944 0.157981 0.541399 0.207069 0.584092C0.198606 0.584092 0.190142 0.582152 0.179986 0.582152C0.000558803 0.640369 -0.00621214 0.801438 0.00225129 0.970269C0.0293346 1.07312 0.0462616 1.18761 0.179986 1.16627L0.352642 1.14298C0.359413 1.04207 0.366184 0.943101 0.372954 0.84219C0.389881 0.756805 0.361105 0.688884 0.312017 0.626785C0.308631 0.624845 0.306939 0.624845 0.303553 0.622904C0.503293 0.506469 0.38311 0.300767 0.379725 0.128055L0.378033 0.126114Z" fill="#EFEEE8"/>
</svg>
