<svg width="1" height="2" viewBox="0 0 1 2" fill="none" xmlns="http://www.w3.org/2000/svg">
<path d="M0.208203 1.02744C0.391016 0.843088 0.247135 0.588871 0.311458 0.377347C0.323307 0.342416 0.333464 0.305546 0.340234 0.270615C0.347005 0.305546 0.360547 0.340476 0.380859 0.377347L0.401172 1.01774C0.602604 0.796514 0.426563 0.507367 0.507812 0.262852C0.479036 0.18911 0.509505 0.0746156 0.399479 0.0590909C0.370703 0.0901403 0.353776 0.12313 0.34362 0.15612C0.335156 0.0998434 0.30638 0.0474472 0.242057 0.0047545C0.189583 -0.00882973 0.14388 0.00669497 0.106641 0.0513286C0.106641 0.125071 0.106641 0.198813 0.106641 0.270615C0.0710934 0.307486 0.0355468 0.344357 0 0.381228C0.0050778 0.557822 0.00846343 0.736355 0.0135417 0.912949C0.204818 0.732474 0.0609376 0.48602 0.110026 0.278377C0.323308 0.495723 0.123568 0.786811 0.208203 1.02744Z" fill="#E1067E"/>
</svg>
