<svg width="1" height="5" viewBox="0 0 1 5" fill="none" xmlns="http://www.w3.org/2000/svg">
<path d="M0.421706 2.49365C0.36754 2.45872 0.326915 2.4335 0.294753 2.41991C0.303217 2.41021 0.31168 2.40245 0.321837 2.39468C0.331993 2.36169 0.342149 2.3287 0.353998 2.29765C0.370925 2.25884 0.369232 2.22779 0.34892 2.20062C0.36754 2.1754 0.376003 2.14823 0.374311 2.11912C0.370925 2.08613 0.36754 2.07061 0.360769 2.07061C0.328607 2.00074 0.298138 1.93088 0.265977 1.86296C0.464024 1.84356 0.328607 1.58158 0.457253 1.51366C0.447097 1.48067 0.443712 1.44768 0.447097 1.41469C0.440327 1.24974 0.523269 1.03627 0.325222 0.972234C0.326915 0.968352 0.3303 0.964471 0.333686 0.962531C0.36754 0.948947 0.382774 0.929541 0.379389 0.902373C0.377696 0.873264 0.372618 0.857739 0.364154 0.857739C0.353998 0.822809 0.343842 0.785938 0.335378 0.751007C0.306602 0.752947 0.277826 0.752947 0.24905 0.749066C0.221967 0.498731 0.499571 0.203761 0.162722 0C0.154259 0.102851 0.147487 0.203762 0.137331 0.306613C0.137331 0.384236 0.135639 0.46186 0.133946 0.539483C0.10517 0.613225 0.0899358 0.683087 0.14918 0.737423C0.140717 0.741304 0.132253 0.747126 0.122097 0.754888C0.0967067 0.863561 0.0899356 0.968352 0.132253 1.07314C0.179649 1.17794 0.0967067 1.34094 0.243972 1.39916C0.243972 1.44574 0.243972 1.49037 0.243972 1.535C0.0357692 1.66502 0.208425 1.89983 0.133946 2.06478C0.14241 2.1036 0.152566 2.13853 0.162722 2.17734C0.155952 2.3714 0.14918 2.56351 0.142409 2.75757C0.140716 2.77698 0.137332 2.79444 0.133946 2.81579C0.117019 2.86625 0.091628 2.91476 0.0611595 2.95551C0.0611595 3.02731 0.0594666 3.09912 0.057774 3.17092C0.017149 3.29317 -0.0471734 3.41737 0.0543886 3.52799C0.0476182 3.58814 0.0425397 3.6483 0.0357688 3.70846C0.0730082 3.82296 0.110248 3.93745 0.147488 4.05194C0.183035 4.05583 0.220274 4.05971 0.255821 4.06359C0.281212 4.05777 0.308295 4.05 0.333686 4.04224C0.328607 3.86177 0.323529 3.68323 0.318451 3.50276C0.326915 3.46589 0.337071 3.42902 0.347227 3.39214C0.538503 3.10882 0.484337 2.80027 0.420014 2.49171L0.421706 2.49365Z" fill="#E1067E"/>
</svg>
