<svg width="2" height="1" viewBox="0 0 2 1" fill="none" xmlns="http://www.w3.org/2000/svg">
<path d="M0.851432 0.159128C0.853125 0.135841 0.854818 0.110613 0.854818 0.0815046C0.722786 0.145544 0.595833 0.236752 0.457031 0.267801C0.319922 0.29885 0.172656 0.269741 0.0304688 0.267801C0.0203123 0.296909 0.0101565 0.326018 0 0.355127C0.0609375 0.415285 0.115104 0.487087 0.182813 0.52978C0.223438 0.555008 0.321615 0.555008 0.333464 0.52978C0.384245 0.411404 0.455338 0.457978 0.533203 0.465741C0.523047 0.479325 0.514583 0.49485 0.504427 0.510374C0.555208 0.49873 0.602604 0.481266 0.646615 0.46186C0.714323 0.450216 0.761719 0.424988 0.79388 0.378414C0.947917 0.273622 1.07995 0.126138 1.22044 0C1.06641 0.052396 0.947917 0.104791 0.851432 0.159128Z" fill="#392726"/>
</svg>
