<svg width="1" height="1" viewBox="0 0 1 1" fill="none" xmlns="http://www.w3.org/2000/svg">
<path d="M0.475651 0.188237C0.467188 0.126138 0.460417 0.0620988 0.453646 0C0.209896 0.0310494 0.358854 0.285266 0.274219 0.407523C0.258984 0.432751 0.250521 0.454097 0.245443 0.477384C0.240364 0.454097 0.231901 0.432751 0.223438 0.411404C0.154037 0.337662 0.0846354 0.341543 0.0169271 0.413345C0.0118489 0.479325 0.00507823 0.545305 0 0.611285C0.0033852 0.681146 0.00677116 0.751007 0.011849 0.820868C0.0440105 0.82669 0.0761718 0.834452 0.108333 0.840274C0.260677 0.787878 0.289453 0.690849 0.270833 0.576354C0.277604 0.584117 0.284375 0.591879 0.292839 0.599641C0.553515 0.578295 0.323307 0.271682 0.477344 0.188237H0.475651Z" fill="#EFEEE8"/>
</svg>
