<svg width="1" height="3" viewBox="0 0 1 3" fill="none" xmlns="http://www.w3.org/2000/svg">
<path d="M0.170292 0.814554C0.161829 0.824258 0.15675 0.83396 0.155058 0.843663C0.14998 0.843663 0.146594 0.843663 0.141516 0.843663C0.0924272 0.855307 0.0568806 0.886356 0.0281046 0.934871C-0.0294477 1.07653 0.00948453 1.20461 0.0721151 1.33075C0.0856567 1.41225 0.100891 1.4957 0.116125 1.57915C0.117818 1.64707 0.119511 1.71499 0.121204 1.78485C0.107662 1.89352 0.0924276 2.00025 0.0788859 2.10698C0.0568808 2.53974 0.334485 2.25447 0.464823 2.32045C0.454667 2.24671 0.586699 2.19431 0.486829 2.10893C0.486829 2.03324 0.488521 1.9595 0.490214 1.88382C0.476672 1.66841 0.464823 1.45495 0.451282 1.23954C0.45636 1.19879 0.459745 1.1561 0.463131 1.1134C0.459745 1.00861 0.45636 0.903822 0.454667 0.79903C0.488521 0.608852 0.405579 0.389566 0.557922 0.228497C0.527454 0.156696 0.496985 0.0887754 0.466516 0.0169738C0.35649 -0.0334817 0.287089 0.0363793 0.224459 0.123706C0.155058 0.26925 0.109354 0.424497 0.0991984 0.591387C0.100891 0.676773 0.121204 0.752456 0.170292 0.814554Z" fill="#E1067E"/>
</svg>
