<svg width="1" height="1" viewBox="0 0 1 1" fill="none" xmlns="http://www.w3.org/2000/svg">
<path d="M0.0186198 0.00909652C0.013542 0.0731357 0.0067704 0.139116 0 0.203155C0.0067704 0.302125 0.013542 0.399155 0.0186198 0.496184C0.0660156 0.455432 0.0897139 0.408857 0.101562 0.360343C0.0998699 0.465135 0.0914061 0.569926 0.0152344 0.641728C0.0778645 0.678599 0.142187 0.711589 0.204818 0.74846C0.360547 0.51753 0.267448 0.261373 0.270833 0.0129777C0.253906 0.0129777 0.236979 0.0129773 0.220052 0.00715546C0.145573 0.0595514 0.118489 0.131353 0.108333 0.210918C0.103255 0.141056 0.093099 0.0711954 0.0998698 0.00327476C0.0727865 -0.00254712 0.0440105 -0.000606287 0.0186198 0.00909652Z" fill="#EFEEE8"/>
</svg>
