<svg width="1" height="3" viewBox="0 0 1 3" fill="none" xmlns="http://www.w3.org/2000/svg">
<path d="M0.745447 1.42245L0.79115 1.43021L0.836853 1.41857C0.843625 1.23809 0.850395 1.05762 0.857166 0.877145C0.838546 0.813105 0.833468 0.745185 0.833468 0.677265C0.853781 0.611284 0.869015 0.545305 0.841932 0.475444C0.850395 0.310493 0.850395 0.147485 0.745447 0C0.726827 0.0232875 0.708208 0.0446334 0.687895 0.0659799C0.655734 0.139722 0.638806 0.213465 0.626958 0.291088C0.620186 0.293028 0.615109 0.293029 0.608338 0.294969C0.555864 0.343484 0.511853 0.39782 0.474614 0.457978C0.476306 0.362889 0.461072 0.285266 0.334119 0.324078C0.285031 0.454097 0.23425 0.582176 0.185161 0.712195C0.139458 0.725779 0.102218 0.758769 0.0734419 0.815046C-0.0179646 1.05374 0.0108113 1.30796 0.00404087 1.55635C0.0158895 1.88043 -0.0552039 2.21615 0.127609 2.50724C0.329041 2.59068 0.195317 2.28989 0.320577 2.28601C0.489848 2.06867 0.366281 1.78728 0.444145 1.54859L0.535551 1.43215C0.535551 1.43215 0.535551 1.42439 0.535551 1.41857C0.596489 1.39334 0.643885 1.35647 0.676046 1.30601C0.694666 1.34483 0.716671 1.38558 0.745447 1.42245Z" fill="#E1067E"/>
</svg>
