<svg width="1" height="1" viewBox="0 0 1 1" fill="none" xmlns="http://www.w3.org/2000/svg">
<path d="M0.0321615 0.599899C-0.00338531 0.724097 0.0592445 0.821126 0.101562 0.923977C0.1625 0.923977 0.223438 0.922037 0.282682 0.922037C0.323307 1.01324 0.357161 0.982194 0.391016 0.916215C0.377474 0.885165 0.375781 0.854116 0.382552 0.821126C0.435026 0.658117 0.397786 0.498989 0.36901 0.339861C0.399479 0.339861 0.428255 0.324335 0.457031 0.285524C0.435026 0.223425 0.414714 0.161327 0.392708 0.0992279C0.314844 -0.0501976 0.233594 -0.00168279 0.152344 0.0565351C0.152344 0.0565351 0.150651 0.0565351 0.148958 0.0565351C0.130339 0.0526541 0.110026 0.0468324 0.0914062 0.0429509C0.0677081 0.0604161 0.0423177 0.0778819 0.0152344 0.0914656C0.0101561 0.128337 0.00338563 0.163268 0 0.198198C0.0101565 0.332099 0.0203127 0.465999 0.0304688 0.599899H0.0321615Z" fill="#EFEEE8"/>
</svg>
