<svg width="1" height="2" viewBox="0 0 1 2" fill="none" xmlns="http://www.w3.org/2000/svg">
<path d="M0.00984218 1.05374L0.0470818 1.05762H0.0826287C0.170649 1.17794 0.31453 1.26138 0.272212 1.46126C0.394087 1.4011 0.346691 1.26138 0.378853 1.16047C0.427941 1.0712 0.438098 0.987758 0.389009 0.915957C0.404244 0.869383 0.4144 0.820868 0.4144 0.770413C0.407629 0.731601 0.392394 0.698611 0.370389 0.669502C0.419478 0.609344 0.443175 0.537543 0.453332 0.456038C0.45841 0.374533 0.451639 0.29691 0.424556 0.221227C0.368696 0.0718018 0.184191 0.147485 0.128332 0C-0.0036997 0.0892667 0.03354 0.209584 0.0792432 0.331841C0.0860141 0.438573 0.0944776 0.543364 0.101248 0.648156C0.011535 0.766532 -0.0155482 0.904313 0.00814948 1.05568L0.00984218 1.05374Z" fill="#EFEEE8"/>
</svg>
