<svg width="1" height="2" viewBox="0 0 1 2" fill="none" xmlns="http://www.w3.org/2000/svg">
<path d="M0.0300455 1.35453L0.123144 1.47873C0.160384 1.50007 0.199316 1.51366 0.239941 1.51366C0.304264 1.49813 0.35166 1.45738 0.3889 1.39916C0.412597 1.35647 0.431218 1.31184 0.441374 1.26332C0.537858 1.32348 0.602181 1.26332 0.652962 1.15659C0.664811 1.12166 0.669889 1.08479 0.673275 1.04792C0.683431 1.01105 0.686816 0.968353 0.69528 0.929541C0.822233 0.652037 0.798535 0.374533 0.693587 0.0970289C0.683431 0.0718013 0.678353 0.0426931 0.67666 0.0155247C0.637728 0.0718016 0.61403 0.13002 0.600488 0.188237C0.586946 0.0892674 0.5514 0.00194046 0.412598 0L0.417676 0.0038807C0.412597 0.0679204 0.40752 0.1339 0.404134 0.19988C0.405827 0.500671 0.40752 0.799522 0.410905 1.10031C0.404134 1.09255 0.402441 1.08285 0.395671 1.07703C0.114681 0.89267 0.500618 0.450216 0.162077 0.289147C0.119759 0.269742 0.0825199 0.273623 0.0486653 0.310494C0.0435875 0.586057 0.0385091 0.85968 0.0334309 1.1333C-0.0122719 1.2051 -0.00888691 1.28079 0.0300455 1.35647V1.35453Z" fill="#EFEEE8"/>
</svg>
