<svg width="1" height="4" viewBox="0 0 1 4" fill="none" xmlns="http://www.w3.org/2000/svg">
<path d="M0.509505 0.646215C0.536589 0.547245 0.563672 0.446335 0.592448 0.347365C0.585677 0.279445 0.582292 0.209583 0.575521 0.141663C0.533203 0.0931483 0.489193 0.0465741 0.446875 0C0.428255 0.0407522 0.389323 0.09897 0.399479 0.116435C0.490885 0.277504 0.399479 0.419167 0.375781 0.568592C0.375781 0.607404 0.377474 0.646215 0.379167 0.685027C0.353776 0.698611 0.328385 0.716077 0.304688 0.737423C0.279297 0.766532 0.264063 0.803403 0.253906 0.842215C0.228516 0.79176 0.189583 0.764591 0.137109 0.762651C0.0778645 0.787878 0.0609378 0.832512 0.0863281 0.898492C0.0863281 0.937303 0.086328 0.978056 0.0846354 1.01881C0.0964845 1.12554 0.106641 1.23227 0.11849 1.339C0.106641 1.63203 0.0964846 1.92506 0.0863281 2.21809C0.101563 2.25302 0.118489 2.28989 0.133724 2.32482C0.133724 2.32482 0.133724 2.32482 0.135417 2.32482H0.133724C0.121875 2.40245 0.111719 2.47813 0.0998698 2.55381C-0.0152339 2.86431 0.0964843 3.20585 0 3.51634L0.00846354 3.55127C0.104948 3.72593 0.192968 3.57262 0.282682 3.54351C0.291146 3.43096 0.297917 3.32228 0.304688 3.20973C0.304688 2.99432 0.302995 2.77892 0.302995 2.56351C0.282683 2.47037 0.264063 2.37334 0.170964 2.33647C0.198047 2.33841 0.221745 2.32482 0.240365 2.29183C0.245443 2.27631 0.248828 2.26078 0.252214 2.24526C0.284375 2.34423 0.341927 2.42185 0.479036 2.43932L0.485807 2.44708C0.485807 2.41215 0.492578 2.37722 0.502734 2.34229C0.526433 2.22973 0.55013 2.11524 0.575521 2.00269C0.539974 1.82803 0.670313 1.61457 0.482422 1.47291C0.517969 1.24974 0.555209 1.02657 0.592448 0.803403C0.626302 0.700552 0.575521 0.667562 0.50612 0.648156L0.509505 0.646215Z" fill="#E1067E"/>
</svg>
