<svg width="1" height="2" viewBox="0 0 1 2" fill="none" xmlns="http://www.w3.org/2000/svg">
<path d="M0.371242 0C0.356008 0.0155247 0.340774 0.0310495 0.325539 0.0485151C0.291685 0.124198 0.274758 0.203762 0.261216 0.285267C0.156268 0.240634 0.0902525 0.331841 0.0208515 0.413345C0.0106951 0.624869 -0.0485495 0.844156 0.093638 1.03239C0.0885602 1.03627 0.0834818 1.0421 0.0784036 1.04792C0.0597837 1.08867 0.0496277 1.1333 0.0513203 1.18182C0.0716328 1.28467 0.122414 1.36035 0.207049 1.40693C0.29507 1.44186 0.381398 1.43992 0.462648 1.38364C0.49481 1.34095 0.50158 1.29631 0.482961 1.24392C0.477883 1.21287 0.474497 1.17988 0.471112 1.14689C0.515122 1.06344 0.518508 0.985819 0.454185 0.912076C0.432179 0.904314 0.410174 0.902373 0.389862 0.904314C0.477883 0.789819 0.53882 0.665622 0.471112 0.502612C0.430487 0.337663 0.548977 0.130019 0.371242 0Z" fill="#EFEEE8"/>
</svg>
