<svg width="1" height="3" viewBox="0 0 1 3" fill="none" xmlns="http://www.w3.org/2000/svg">
<path d="M0.201401 0.781212C0.2945 0.697767 0.289422 0.7424 0.262339 0.837489C0.220021 0.988855 0.226792 1.13828 0.308042 1.27412C0.319891 1.28382 0.33174 1.29159 0.343589 1.29547C0.19463 1.44683 0.220021 1.64477 0.230177 1.83883C0.18786 1.68941 0.280958 1.50117 0.137078 1.38279C0.120151 1.38473 0.103224 1.38862 0.0846043 1.39056C0.0778335 1.45848 0.0710626 1.52252 0.0642918 1.59044C0.0659848 1.73986 0.0592134 1.89511 0.236948 1.90093C0.253875 1.97855 0.280958 2.04841 0.340203 2.10081C0.372365 2.062 0.402833 2.02319 0.434995 1.98438C0.470542 2.06782 0.497625 2.16485 0.614422 2.11828C0.648277 2.08141 0.68213 2.04647 0.717677 2.0096C0.715985 1.9378 0.714292 1.866 0.714292 1.79614C0.702443 1.72628 0.692287 1.65836 0.68213 1.59044L0.70075 1.17321C0.678745 1.14022 0.658432 1.10529 0.636427 1.0723C0.60088 1.04319 0.563641 1.03543 0.524708 1.04901C0.541636 0.946162 0.555177 0.83943 0.633042 0.765687C0.648277 0.721054 0.643198 0.680302 0.6195 0.64149C0.614422 0.612381 0.609344 0.583272 0.604266 0.554163C0.599188 0.532817 0.59411 0.513412 0.589031 0.490124C0.529786 0.360105 0.543329 0.181571 0.397755 0.102007C0.35713 0.088423 0.286037 0.270838 0.272495 0.0709574C0.26911 0.00303721 0.192938 -0.0105471 0.132 0.00691801C0.0270524 0.0845415 -0.00849489 0.197096 0.00166158 0.332937C0.0422866 0.497887 0.0355155 0.688064 0.201401 0.779271V0.781212Z" fill="#EFEEE8"/>
</svg>
