<svg width="1" height="5" viewBox="0 0 1 5" fill="none" xmlns="http://www.w3.org/2000/svg">
<path d="M0.391016 3.40961C0.384244 3.44066 0.377474 3.47171 0.372396 3.50276C0.357161 3.47171 0.341927 3.43872 0.321615 3.40767C0.316536 3.2369 0.311458 3.06807 0.30638 2.89924C0.309766 2.89924 0.311459 2.8973 0.314844 2.8973C0.429948 2.81385 0.436719 2.67413 0.457031 2.54023C0.465495 2.49753 0.465495 2.4529 0.462109 2.40827C0.455339 2.37334 0.436719 2.34229 0.414714 2.31706C0.416406 2.31706 0.418099 2.31512 0.419792 2.31512C0.451953 1.89983 0.458724 1.48067 0.502734 1.06732C0.512891 0.99164 0.517969 0.914016 0.519661 0.836393C0.519661 0.681146 0.523047 0.523958 0.465495 0.378414C0.44349 0.347365 0.419792 0.326018 0.396094 0.308553C0.426563 0.285266 0.445183 0.252276 0.45026 0.205702C0.441797 0.0950889 0.397786 0.0174657 0.294531 0C0.19974 0.0349308 0.103255 0.0698609 0.00846354 0.104792C0.0220052 0.188237 0.0236977 0.279444 0.108333 0.324078C-0.0575523 0.692789 0.116797 1.05568 0.120182 1.42051C0.152343 1.62039 0.137109 1.80863 0.0236979 1.97552L0.028776 2.18898C0.120183 2.17928 0.174349 2.22973 0.216667 2.30348C0.101563 2.22973 0.0135417 2.22197 0.00677083 2.41409C0.0118491 2.5247 0.0186197 2.63726 0.0236979 2.74787C0.0152345 2.89147 0.00677083 3.03314 0 3.17674C0.010156 3.20973 0.0186197 3.24466 0.0236979 3.28153C0.0914063 3.28541 0.130338 3.26795 0.155729 3.23884C0.145573 3.42514 0.0897138 3.61143 0.113411 3.79579C0.0846355 3.79967 0.0541666 3.81713 0.0253906 3.85595C0.0236976 3.88699 0.0203128 3.91998 0.0186198 3.95103C0.0101564 4.11016 0.0440103 4.25765 0.116797 4.39155C0.216667 4.35662 0.270834 4.26541 0.316536 4.1645C0.341927 4.13345 0.347005 4.10822 0.333464 4.08687C0.323308 4.07329 0.314844 4.06553 0.30638 4.06359C0.316536 4.05971 0.325 4.05777 0.336849 4.05194C0.352083 4.02478 0.365625 3.99761 0.377474 3.9685C0.384244 4.00149 0.392708 4.03254 0.404557 4.06359C0.433333 4.06553 0.46211 4.06359 0.490885 4.05777C0.499349 3.87729 0.506119 3.69876 0.514583 3.51828C0.600911 3.36886 0.607683 3.22137 0.50612 3.07777C0.316536 3.1224 0.457031 3.31258 0.392708 3.41155L0.391016 3.40961Z" fill="#E1067E"/>
</svg>
