<svg width="1" height="2" viewBox="0 0 1 2" fill="none" xmlns="http://www.w3.org/2000/svg">
<path d="M0.401172 0C0.335156 0.0912077 0.208203 0.102851 0.169271 0.23093C0.14388 0.33184 0.165885 0.419166 0.230208 0.492909C0.233594 0.49679 0.240364 0.498731 0.24375 0.504552C0.1625 0.580235 0.120182 0.663681 0.103255 0.751007C0.0846353 0.677264 0.0558594 0.603522 0.0423177 0.52978C0.0270834 0.613225 0.0152343 0.69667 0 0.780116C0.0016926 0.849977 0.00507823 0.921779 0.00677083 0.99164C0.0152343 1.02657 0.0203127 1.05956 0.0236979 1.09449C0.0677086 1.05762 0.0930986 1.01881 0.108333 0.978056C0.130338 1.09255 0.174349 1.20899 0.214974 1.32542L0.221745 1.3099C0.358854 1.20316 0.275912 1.03045 0.314844 0.89461C0.407943 0.952828 0.499349 0.96253 0.589063 0.886848C0.58737 0.741304 0.583985 0.59576 0.580599 0.452157C0.590755 0.339602 0.600912 0.227048 0.61276 0.114495C0.602604 0.0815048 0.595833 0.0485149 0.589063 0.0135841C0.526432 0.00970268 0.463802 0.00388142 0.399479 0H0.401172Z" fill="#E1067E"/>
</svg>
