<svg width="1" height="3" viewBox="0 0 1 3" fill="none" xmlns="http://www.w3.org/2000/svg">
<path d="M0.177734 0.49485C0.0372399 0.49485 0.0186199 0.601582 0.0270833 0.72772C0.0558593 0.904313 0.0846355 1.07897 0.113411 1.25362C0.0897138 1.32154 0.0660158 1.38752 0.0423177 1.45544C0.028776 1.56023 0.0152343 1.66308 0 1.76593C0.0355472 1.83968 0.0710939 1.91148 0.106641 1.98328C0.0812499 2.05314 0.0541667 2.123 0.0270833 2.19092L0.110026 2.39856C0.0473959 2.52858 0.111719 2.6392 0.152344 2.75369C0.220052 2.81191 0.296224 2.91476 0.304688 2.70906C0.297917 2.67607 0.296224 2.64308 0.304688 2.61009L0.292839 2.18898C0.284375 2.08807 0.275911 1.98522 0.265755 1.88431C0.30638 1.81251 0.347005 1.74071 0.38763 1.66696C0.316536 1.66502 0.25052 1.65726 0.211589 1.57576L0.26237 1.49813C0.274219 1.50201 0.286067 1.50395 0.301302 1.50395C0.391016 1.39916 0.438412 1.2672 0.494271 1.13912C0.451953 0.999402 0.409636 0.86162 0.367318 0.719958C0.379167 0.690849 0.387631 0.659799 0.392708 0.62875C0.402865 0.62875 0.411328 0.615166 0.418099 0.589938C0.423177 0.570533 0.414714 0.553067 0.392708 0.539483C0.477344 0.457978 0.40625 0.29691 0.473958 0.207643C0.477344 0.137782 0.480729 0.0679207 0.485807 0L0.028776 0.10091C0.01862 0.139722 0.0101565 0.178534 0 0.215405C0.0152343 0.347365 0.086328 0.43081 0.179427 0.49485H0.177734Z" fill="#EFEEE8"/>
</svg>
