<svg width="1" height="2" viewBox="0 0 1 2" fill="none" xmlns="http://www.w3.org/2000/svg">
<path d="M0.480752 1.176C0.612783 0.780116 0.594163 0.388117 0.416429 0C0.182836 0.153306 0.407965 0.471563 0.237002 0.648156C0.269163 0.813106 0.338564 0.976115 0.272549 1.14495C0.257314 1.14107 0.243773 1.13524 0.228538 1.13524C0.186221 1.14107 0.152367 1.16047 0.123591 1.19346C0.135439 1.22839 0.137132 1.26332 0.130361 1.30019C0.0372623 1.50395 -0.0456803 1.70578 0.0287989 1.87849L0.411351 1.87461C0.397809 1.83774 0.394424 1.79116 0.387653 1.74847C0.426585 1.70966 0.480752 1.70772 0.531533 1.69801C0.644945 1.66114 0.694033 1.56799 0.705882 1.44186C0.707575 1.34095 0.688955 1.24974 0.616169 1.18376C0.570466 1.15853 0.524762 1.16241 0.480752 1.176Z" fill="#E1067E"/>
</svg>
