<svg width="1" height="2" viewBox="0 0 1 2" fill="none" xmlns="http://www.w3.org/2000/svg">
<path d="M0.120935 0.65768C0.120935 0.65768 0.115856 0.659621 0.112471 0.663502C0.059997 0.725601 0.0295283 0.799343 0.0481482 0.88861C0.0566116 0.995342 0.06169 1.10013 0.0701534 1.20687L0.251273 1.23015C0.391768 1.25344 0.408695 1.13312 0.439164 1.02445C0.447627 0.845917 0.439164 0.675146 0.251273 0.614987C0.241117 0.614987 0.230961 0.614987 0.222497 0.616928C0.274971 0.570354 0.318982 0.517958 0.334216 0.434513C0.346065 0.380176 0.351143 0.32584 0.351143 0.271503C0.322367 0.143425 0.337601 -0.0273469 0.149711 0.0037025C0.114164 0.0483356 0.0786168 0.0910291 0.0430701 0.133722C0.0379918 0.316137 -0.0906537 0.533482 0.122627 0.65574L0.120935 0.65768Z" fill="#E1067E"/>
</svg>
