<svg width="1" height="2" viewBox="0 0 1 2" fill="none" xmlns="http://www.w3.org/2000/svg">
<path d="M0.20651 1.18958C0.20651 0.7937 0.20651 0.395879 0.20651 0C0.0829428 0.073742 0.137109 0.213464 0.116797 0.326019C0.0930992 0.574414 0.0710935 0.822809 0.0473958 1.06926C0.0321616 1.07314 0.0152343 1.08091 0 1.09255C0.0135417 1.23809 0.0253905 1.38558 0.0372396 1.53306C0.0964841 1.56605 0.155729 1.5971 0.213281 1.63009C0.218359 1.59904 0.226823 1.56605 0.238672 1.53694C0.238672 1.49619 0.238672 1.45738 0.238672 1.41663C0.260677 1.37588 0.260677 1.33318 0.245443 1.29049C0.235287 1.25362 0.221745 1.22063 0.20651 1.18958Z" fill="#E1067E"/>
</svg>
