<svg width="1" height="2" viewBox="0 0 1 2" fill="none" xmlns="http://www.w3.org/2000/svg">
<path d="M0.108333 0.522018C0.108333 0.490968 0.113411 0.459919 0.12526 0.43081C0.0744794 0.293028 0.172656 0.106732 0.0220052 0C0.0406247 0.209583 -0.0609372 0.438573 0.0863281 0.626809C0.0914064 0.638453 0.0964844 0.646215 0.103255 0.646215C-0.0626304 0.842214 0.101563 1.08673 0.0304688 1.29631C0.0203127 1.33512 0.0101565 1.37199 0 1.41081C0.00507823 1.48261 0.0101561 1.55441 0.0152344 1.62621C0.0727862 1.62233 0.132031 1.62039 0.191276 1.61845C0.169271 1.51754 0.148958 1.41469 0.126953 1.31378C0.24375 1.04598 0.242057 0.782056 0.108333 0.522018Z" fill="#E1067E"/>
</svg>
