<svg width="1" height="2" viewBox="0 0 1 2" fill="none" xmlns="http://www.w3.org/2000/svg">
<path d="M0.382552 0.246455C0.360547 0.26392 0.336849 0.279444 0.318229 0.30079C0.277604 0.19988 0.233594 0.10091 0.0981771 0.139722C0.0643234 0.176593 0.0321616 0.211524 0 0.250336C0.00677083 0.322137 0.011849 0.39588 0.0186198 0.467681C0.108333 0.504553 0.19974 0.543364 0.291146 0.578295C0.514583 0.686968 0.187891 1.03239 0.467187 1.11778C0.477344 0.791759 0.4875 0.465741 0.497656 0.141663C0.46888 0.0950887 0.441797 0.0465741 0.414714 0C0.404558 0.0815044 0.394401 0.16495 0.384245 0.248395L0.382552 0.246455Z" fill="#E1067E"/>
</svg>
