<svg width="1" height="2" viewBox="0 0 1 2" fill="none" xmlns="http://www.w3.org/2000/svg">
<path d="M0.604297 0.642334C0.595833 0.551126 0.56875 0.467682 0.511198 0.401701C0.458724 0.273623 0.558594 0.0892667 0.401172 0C0.404558 0.0291084 0.401172 0.0562771 0.389323 0.0815046C0.382553 0.267801 0.374089 0.456038 0.367318 0.642334C0.380859 0.671443 0.38763 0.702492 0.384245 0.735482C0.264062 0.756829 0.201433 0.842215 0.186198 0.976115C0.179428 1.00911 0.176042 1.04015 0.170964 1.0712C0.157422 1.03821 0.140495 1.00522 0.116797 0.972234C0.0880209 0.939244 0.0575523 0.906254 0.0270833 0.873264C0.0186199 0.976115 0.010156 1.07897 0 1.18182C0.00677083 1.29049 0.0135417 1.39916 0.0203125 1.50978C0.0744792 1.54665 0.118489 1.535 0.154036 1.47873C0.157422 1.47291 0.159114 1.46902 0.160807 1.4632C0.167578 1.51948 0.176042 1.57382 0.187891 1.62815C0.548437 1.53306 0.374088 1.24974 0.358854 1.02269C0.380859 1.07509 0.418099 1.10225 0.490885 1.07508C0.523047 1.14883 0.555208 1.22257 0.58737 1.29631C0.765104 1.10225 0.653386 0.865502 0.658464 0.648156C0.639844 0.644275 0.622917 0.644275 0.604297 0.642334Z" fill="#E1067E"/>
</svg>
