<svg width="1" height="2" viewBox="0 0 1 2" fill="none" xmlns="http://www.w3.org/2000/svg">
<path d="M0.275911 0.403642C0.211588 0.39588 0.172656 0.419167 0.147266 0.456038C0.186198 0.306613 0.19974 0.157188 0.120182 0.00194059C0.0795573 0.00194059 0.0389324 0 0 0C0.0016926 0.310494 0.00507823 0.619047 0.00677083 0.931482C0.123568 0.86162 0.0761719 0.729661 0.0964844 0.624869C0.0964844 0.619047 0.0981768 0.615166 0.0998698 0.611285C0.110026 0.795641 0.0524742 0.974174 0.0829427 1.15853C0.088021 1.19346 0.0964843 1.22451 0.108333 1.25556C0.104948 1.45932 0.101563 1.66308 0.0981771 1.86684C0.121875 1.87461 0.145573 1.88237 0.170964 1.88625C0.20651 1.9988 0.282682 1.99492 0.365625 1.97746L0.348698 1.4632C0.352083 1.29243 0.355468 1.11972 0.357161 0.948947C0.367318 0.75877 0.429948 0.558889 0.277604 0.401701L0.275911 0.403642Z" fill="#EFEEE8"/>
</svg>
