<svg width="1" height="1" viewBox="0 0 1 1" fill="none" xmlns="http://www.w3.org/2000/svg">
<path d="M0.0964844 0.0182751C0.0660158 0.0279779 0.0372398 0.0376805 0.00677083 0.0473839C0.00507823 0.111423 0.0016926 0.177403 0 0.241443C0.0778648 0.286076 0.0846354 0.369521 0.0914063 0.452966C-0.0643229 0.555817 0.0338541 0.73047 0.00507813 0.868252C0.0304689 0.874073 0.0558593 0.876014 0.08125 0.877955C0.115104 0.914826 0.147266 0.953638 0.18112 0.988568C0.216667 0.951697 0.252214 0.912886 0.28776 0.876014C0.34362 0.782866 0.347006 0.69748 0.297917 0.619857C0.302995 0.608213 0.306381 0.59657 0.311458 0.586867C0.321615 0.542234 0.326693 0.4976 0.323307 0.451026C0.318229 0.423857 0.304687 0.400571 0.289453 0.379224C0.302995 0.359819 0.316536 0.334591 0.328385 0.307422C0.345312 0.111423 0.333464 -0.0535266 0.0964844 0.0163345V0.0182751Z" fill="#EFEEE8"/>
</svg>
