<svg width="1" height="2" viewBox="0 0 1 2" fill="none" xmlns="http://www.w3.org/2000/svg">
<path d="M0.514583 0.66174C0.499349 0.636512 0.480729 0.622928 0.463802 0.617106C0.580599 0.487087 0.570443 0.353187 0.46888 0.209583C0.409635 0.205702 0.348698 0.203761 0.289453 0.201821C0.301302 -0.050455 0.0880209 0.10091 0.0152344 0C0.0524742 0.104792 0.0897133 0.207643 0.126953 0.312434C0.093099 0.489028 -0.00846365 0.648156 0.0236979 0.844155C0.0135414 0.875205 0.00507823 0.906254 0 0.941184C0.00677083 1.14689 0.015234 1.35453 0.0236979 1.56023C0.0507812 1.58158 0.0727863 1.58158 0.0914062 1.56023C0.116797 1.59322 0.147266 1.61457 0.186198 1.62233C0.257291 1.62233 0.313151 1.59128 0.348698 1.51754C0.391015 1.40693 0.397787 1.29049 0.401172 1.17211C0.416407 1.19734 0.438412 1.22063 0.467187 1.24198C0.616146 1.06344 0.600912 0.867442 0.514583 0.663681V0.66174Z" fill="#EFEEE8"/>
</svg>
