<svg width="1" height="1" viewBox="0 0 1 1" fill="none" xmlns="http://www.w3.org/2000/svg">
<path d="M0.553258 0.884907C0.580341 0.886848 0.607425 0.884907 0.632815 0.877145C0.639586 0.671443 0.646357 0.467682 0.653128 0.261979C0.619274 0.261979 0.58542 0.261979 0.551565 0.261979C0.546487 0.277504 0.541409 0.293028 0.538024 0.306613C0.538024 0.304672 0.538024 0.304672 0.538024 0.302731C0.524482 0.244514 0.500784 0.194059 0.46693 0.149425C0.463545 0.122257 0.458467 0.0931479 0.455081 0.0659799C0.378909 0.00194071 0.272269 0.0931481 0.202867 0C0.104691 0.00388142 0.0505238 0.0718016 0.0183623 0.170772C-0.0104137 0.293029 -0.00702837 0.411404 0.0403675 0.52784C0.169013 0.553067 0.211331 0.683086 0.280732 0.780116C0.34167 0.816987 0.4043 0.853858 0.465237 0.89267C0.490628 0.853858 0.509248 0.815046 0.522789 0.772353C0.529561 0.809225 0.539716 0.848036 0.553258 0.884907Z" fill="#EFEEE8"/>
</svg>
