<svg width="1" height="2" viewBox="0 0 1 2" fill="none" xmlns="http://www.w3.org/2000/svg">
<path d="M0.284056 1.34095C0.395774 1.20316 0.344993 1.04986 0.319603 0.898492C0.319603 0.855799 0.307754 0.818927 0.285749 0.787878C0.289134 0.787878 0.290827 0.785937 0.290827 0.785937C0.312832 0.782057 0.334837 0.778175 0.356842 0.772353C0.343301 0.512315 0.460098 0.234811 0.2739 0C0.168952 0.0504555 0.162181 0.141663 0.189264 0.248395C0.185879 0.283326 0.179108 0.316316 0.165566 0.347365C0.0758528 0.489028 0.0606183 0.636512 0.141868 0.791759L0.180801 0.787878C0.168952 0.7937 0.157103 0.803403 0.146946 0.815046C0.057233 0.968353 0.0369204 1.14883 0.00306623 1.32348C-0.002012 1.37393 -0.000319294 1.42633 0.00475894 1.47679C0.0284566 1.63203 0.0758528 1.77564 0.179108 1.88625L0.175722 1.89207C0.382233 1.75235 0.221426 1.51754 0.284056 1.34095Z" fill="#E1067E"/>
</svg>
