<svg width="1" height="2" viewBox="0 0 1 2" fill="none" xmlns="http://www.w3.org/2000/svg">
<path d="M0.417102 1.16243C0.445878 1.1566 0.476347 1.15078 0.505123 1.1469C0.493274 1.00136 0.560982 0.836408 0.417102 0.727735C0.413717 0.692805 0.410331 0.659815 0.408639 0.626825C0.398482 0.622944 0.391712 0.617122 0.383248 0.613241C0.391712 0.617122 0.400175 0.619063 0.406946 0.622944C0.516972 0.556964 0.489888 0.423064 0.523743 0.316331C0.493274 0.18049 0.516972 -0.00192511 0.320618 1.53523e-05L0.325696 0.00195594C0.310462 0.0465895 0.298613 0.0892826 0.286764 0.131975C0.2783 0.0854011 0.25968 0.0427085 0.220748 0.0077777C0.186894 0.0388271 0.15304 0.0679361 0.119185 0.0989855C0.124264 0.294985 0.127649 0.490984 0.132727 0.686983C-0.0297729 0.84223 -0.0179239 1.03823 0.0362427 1.24781C0.195357 1.40888 0.286764 1.16825 0.417102 1.16437V1.16243Z" fill="#EFEEE8"/>
</svg>
