<svg width="1" height="2" viewBox="0 0 1 2" fill="none" xmlns="http://www.w3.org/2000/svg">
<path d="M0.0795573 1.19928C0.14388 1.16823 0.206511 1.13912 0.269141 1.10808C0.355469 1.06344 0.397786 0.99164 0.377474 0.881026C0.374088 0.877145 0.374088 0.875204 0.372396 0.871323C0.380859 0.865502 0.389323 0.85968 0.389323 0.85968C0.421485 0.76265 0.455338 0.665621 0.458724 0.568592C0.462109 0.634572 0.467188 0.702492 0.462109 0.766532H0.50612L0.55013 0.76265C0.480729 0.574413 0.738021 0.391998 0.558594 0.199881C0.470573 0.289147 0.455339 0.39588 0.455339 0.506493C0.450261 0.456038 0.436719 0.405582 0.407943 0.353187C0.384245 0.318256 0.355469 0.302731 0.323307 0.304672C0.319922 0.203761 0.284375 0.114495 0.223438 0.0349303C0.206511 0.023287 0.191276 0.0116438 0.172656 0C0.115104 0.0407522 0.0575523 0.0795639 0 0.120317C0.0236977 0.261979 0.050781 0.401702 0.0744792 0.543364C0.0778644 0.76071 0.0778643 0.978055 0.0795573 1.19734V1.19928Z" fill="#E1067E"/>
</svg>
