<svg width="8" height="6" viewBox="0 0 8 6" fill="none" xmlns="http://www.w3.org/2000/svg">
<path d="M7.71198 0.052212C7.51055 0.193875 7.30911 0.337479 7.10768 0.481082C7.08906 0.471379 7.06875 0.463616 7.02643 0.446151C7.01458 0.484963 7.00104 0.523775 6.99258 0.562586C6.52539 0.894427 6.05651 1.22627 5.58086 1.54646C5.34388 1.70559 5.13398 1.96757 4.81576 1.92294C4.78529 1.91906 4.74128 1.96757 4.71589 2.0025C4.49922 2.30135 4.21146 2.48377 3.94063 2.70111C3.74766 2.85442 3.59531 2.95145 3.37865 2.80396C3.36003 3.09505 3.36003 3.09699 3.20938 3.22895C3.11797 3.30852 3.02318 3.38226 2.92669 3.45406C2.54245 3.74321 2.15313 4.02071 1.77565 4.31956C1.33724 4.66499 0.868359 4.94831 0.419792 5.26851C0.38763 5.2918 0.336849 5.28015 0.294531 5.28209C0.282683 5.28209 0.257292 5.26851 0.258984 5.26269C0.264063 5.09968 0.0440102 5.66051 0 5.67797C0.00677083 5.68962 0.0118493 5.70126 0.0169271 5.71678C0.18112 5.60617 0.341927 5.50526 0.497656 5.39077C0.822656 5.14819 1.1375 4.89009 1.46419 4.65528C2.10234 4.19925 2.74388 3.74903 3.38542 3.29687C3.42266 3.46182 3.45313 3.4657 3.57161 3.36867C3.69349 3.45988 3.79674 3.64424 3.97448 3.49093H3.97279C3.95925 3.48899 3.94232 3.49093 3.93385 3.48317C3.92539 3.47347 3.92201 3.44242 3.92539 3.44048C4.00156 3.37838 4.00156 3.38032 4.17422 3.47735C4.2724 3.53362 4.3875 3.49675 4.41628 3.39196C4.36042 3.28717 4.30117 3.1785 4.23685 3.05818C4.14206 3.11252 4.05404 3.20178 3.97109 3.19984C3.878 3.1979 3.78659 3.13192 3.6901 3.08341C3.72904 3.05624 3.76797 3.02907 3.80521 3.0019C4.3181 2.63901 4.8276 2.2703 5.3405 1.90741C5.64518 1.69201 5.95833 1.49213 6.25964 1.2709C6.52539 1.07684 6.78607 0.87114 7.04844 0.667378C7.04674 0.692606 7.0569 0.719774 7.08568 0.748883C7.13307 0.731417 7.18385 0.712011 7.25156 0.686784C7.22448 0.626625 7.1957 0.589754 7.16354 0.580052C7.2194 0.537359 7.27526 0.492725 7.33112 0.450032C7.51901 0.306429 7.70859 0.168647 7.89818 0.028925C7.83216 -0.0292924 7.7763 0.0114595 7.71537 0.0541526L7.71198 0.052212Z" fill="#392726"/>
</svg>
