<svg width="4" height="3" viewBox="0 0 4 3" fill="none" xmlns="http://www.w3.org/2000/svg">
<path d="M3.06042 0C3.07565 0.0834453 3.08581 0.147485 3.10104 0.227049C3.07734 0.238692 3.05365 0.250336 3.03164 0.26392C3.03164 0.26392 3.03164 0.26392 3.03164 0.261979L2.98932 0.240633C2.98086 0.261979 2.9724 0.281385 2.96562 0.302731C2.36133 0.659799 1.86706 1.2051 1.28646 1.59904C1.24245 1.62815 0.0846356 2.84296 0 2.96133C0.0609379 2.94387 0.396094 2.63338 0.71263 2.33258C0.826041 2.29377 0.936068 2.23362 1.00716 2.07255C0.978385 2.09195 0.949609 2.11136 0.922526 2.1327C1.13073 1.93088 1.29323 1.76981 1.3 1.76205C1.63008 1.39334 2.02448 1.12942 2.41211 0.849977C2.60508 0.710255 2.78112 0.541424 2.95716 0.374533C2.96562 0.378415 2.97409 0.382295 2.98255 0.388117C2.98932 0.368712 2.99779 0.349306 3.00456 0.3299C3.03672 0.300791 3.07057 0.269742 3.10273 0.240633C3.17552 0.195999 3.23477 0.161069 3.28047 0.13196L3.28555 0.0116435C3.22292 0.0543362 3.15521 0.0737425 3.06042 0Z" fill="#392726"/>
</svg>
