<svg width="2" height="2" viewBox="0 0 2 2" fill="none" xmlns="http://www.w3.org/2000/svg">
<path d="M1.60469 0C1.47096 0.114495 1.35755 0.250336 1.22044 0.326019C0.91914 0.490969 0.653385 0.712195 0.380859 0.92566C0.309765 0.979996 0.240364 1.03821 0.176042 1.10031C0.121875 1.15077 0.0744792 1.21093 0 1.29631C0.198047 1.29243 0.316537 1.21093 0.414714 1.08479C0.504427 0.972234 0.599219 0.910135 0.741406 0.879086C0.897135 0.846095 1.03763 0.712195 1.18997 0.632631C1.28815 0.580235 1.35078 0.444394 1.44219 0.366771C1.52852 0.294969 1.63177 0.248395 1.74518 0.180475C1.68594 0.104792 1.65039 0.0582178 1.60469 0Z" fill="#392726"/>
</svg>
