<svg width="1" height="2" viewBox="0 0 1 2" fill="none" xmlns="http://www.w3.org/2000/svg">
<path d="M0.249171 1.17953C0.259327 1.17177 0.266098 1.164 0.272869 1.1543C0.277947 1.20864 0.286411 1.26297 0.293181 1.31731C0.313494 1.36971 0.340577 1.41822 0.374431 1.46285C0.401515 1.52883 0.428598 1.59287 0.455681 1.65885C0.464145 1.58317 0.455681 1.50167 0.530161 1.45703C0.540317 1.32507 0.550473 1.19311 0.560629 1.06115C0.640186 0.98547 0.689275 0.907847 0.555551 0.836045L0.564015 0.826342L0.455681 0.830223C0.403208 0.845748 0.364275 0.870975 0.337192 0.898144C0.338884 0.836045 0.34227 0.773946 0.365968 0.717669C0.343963 0.581828 0.320265 0.444047 0.296567 0.306265C0.145916 0.18983 0.218702 0.370305 0.188234 0.414938C0.0646659 0.317909 0.144223 0.139375 0.0815929 0.0404047C0.00880633 -0.0740895 0.0358899 0.0889193 0.00372832 0.110266C0.0104996 0.251929 0.0172696 0.393592 0.0240408 0.535254C0.0562019 0.700204 -0.0893704 0.898144 0.0968273 1.03204C0.0968273 1.01264 0.0968273 0.989351 0.0968273 0.969946C0.118833 1.04757 0.164536 1.11937 0.250864 1.17953H0.249171Z" fill="#EFEEE8"/>
</svg>
