<svg width="2" height="1" viewBox="0 0 2 1" fill="none" xmlns="http://www.w3.org/2000/svg">
<path d="M0.0609375 0.607404C0.0406246 0.671443 0.0203129 0.733542 0 0.79564C0.0355472 0.805343 0.071094 0.813106 0.108333 0.822809C0.110026 0.815046 0.110026 0.805343 0.111719 0.797581C0.138802 0.822809 0.167578 0.86162 0.194661 0.86162C0.248828 0.857739 0.309765 0.836392 0.353776 0.799522C0.477344 0.690849 0.617839 0.587998 0.707552 0.448275C0.814193 0.279445 1.03086 0.29885 1.10365 0.10091C1.1138 0.073742 1.10703 0.0407522 1.10703 0C0.8125 0.0194056 0.65 0.318256 0.404557 0.438573C0.294531 0.492909 0.184505 0.576354 0.12526 0.723839C0.128646 0.69667 0.132031 0.671443 0.133724 0.644275C0.133724 0.632631 0.0863278 0.619047 0.0609375 0.607404Z" fill="#392726"/>
</svg>
