<svg width="1" height="6" viewBox="0 0 1 6" fill="none" xmlns="http://www.w3.org/2000/svg">
<path d="M0.149974 4.78161C0.105964 5.06687 0.24138 5.32109 0.254922 5.59471C0.434349 5.59277 0.424193 5.42976 0.44789 5.2978C0.468203 5.29586 0.488515 5.29392 0.507135 5.29004C0.515599 5.22794 0.525755 5.16778 0.534219 5.10762C0.607005 5.01253 0.598541 4.91357 0.552838 4.80877C0.540989 4.79131 0.527448 4.78161 0.513906 4.77384C0.583307 4.57784 0.513906 4.3799 0.512213 4.18196C0.449583 4.24794 0.424193 4.32169 0.417422 4.39737C0.412344 4.37796 0.408958 4.35856 0.402187 4.33915C0.383567 4.29452 0.354791 4.26153 0.317552 4.24212C0.36664 4.11404 0.273541 3.93745 0.424193 3.84624C0.480052 3.71428 0.430963 3.61531 0.356484 3.52022C0.524062 3.46395 0.518984 3.35139 0.473281 3.2272C0.474974 3.22525 0.476666 3.22525 0.478359 3.22331C0.490208 3.20779 0.502057 3.19421 0.513906 3.17868C0.508828 3.26989 0.496979 3.36498 0.596849 3.41737C0.639166 3.39603 0.671328 3.36498 0.695026 3.32617L0.706875 3.52216C0.70349 3.69876 0.698411 3.87535 0.695026 4.05194C0.696719 4.19555 0.674713 4.3605 0.87276 4.35662C0.874453 4.28676 0.876146 4.21883 0.877838 4.14897C0.744114 3.96462 0.94724 3.74145 0.827057 3.55515C0.815208 3.53769 0.801666 3.52605 0.786432 3.52022C0.86599 3.42514 0.859219 3.32422 0.799974 3.21943C0.733958 2.97686 0.887995 2.69159 0.693333 2.47231C0.66625 2.51306 0.637474 2.55187 0.61039 2.59262L0.469896 2.60233C0.464817 2.59456 0.459739 2.5868 0.452969 2.57904C0.425885 2.55963 0.397109 2.54605 0.36664 2.53829C0.383568 2.49171 0.381875 2.44514 0.354792 2.39468C0.337865 2.37722 0.319244 2.36169 0.302318 2.34617C0.356484 2.2375 0.381875 2.12882 0.310781 2.01239C0.271849 1.95029 0.192291 1.91924 0.214297 1.82027C0.215989 1.85714 0.232916 1.88237 0.263385 1.89595C0.346328 1.89983 0.410651 1.85132 0.461432 1.77952C0.493594 1.71548 0.510521 1.6495 0.513906 1.57576C0.515599 1.5059 0.510521 1.43603 0.498672 1.36617C0.478359 1.16435 0.490208 0.95865 0.458047 0.756829C0.456354 0.749066 0.452969 0.741304 0.449583 0.733542C0.551146 0.799522 0.48513 0.997461 0.620547 1.03239C0.757656 0.704433 0.689948 0.357068 0.679792 0.0155247C0.507136 0.114495 0.739036 0.479325 0.44112 0.49485C0.437734 0.473503 0.434349 0.452157 0.432656 0.43081C0.442813 0.39588 0.449583 0.360949 0.456354 0.324078C0.458047 0.275563 0.444505 0.234811 0.415729 0.201821C0.351406 0.153306 0.327708 0.0834453 0.332786 0C-0.0734637 0.124198 0.297239 0.413345 0.234609 0.609344C0.00778611 1.03239 0.073802 1.50395 0.0551821 1.96193C0.0551821 2.00074 0.0568748 2.03956 0.0568748 2.07643C-0.0311456 2.24914 -0.0345315 2.38886 0.173672 2.43738C0.190599 2.43544 0.207526 2.43155 0.22276 2.42379C0.226146 2.48007 0.231224 2.53635 0.232917 2.59262C0.17875 2.5965 0.124583 2.59845 0.0687238 2.60233L0.0721092 3.31258C0.0974995 3.32228 0.12289 3.32617 0.149974 3.32422C0.177057 3.39409 0.205833 3.46201 0.234609 3.52993C0.148281 3.5668 0.14151 3.64636 0.153359 3.73369C0.315859 3.87147 0.202448 4.07717 0.246458 4.24406C0.236302 4.246 0.226146 4.24794 0.217682 4.25182C0.193984 4.42842 0.171979 4.60695 0.148281 4.78549L0.149974 4.78161Z" fill="#EFEEE8"/>
</svg>
