<svg width="1" height="3" viewBox="0 0 1 3" fill="none" xmlns="http://www.w3.org/2000/svg">
<path d="M0.546348 0.754888C0.431243 0.611285 0.432936 0.471562 0.568353 0.33184L0.553118 0.128079C0.436322 0.0718018 0.299212 0.0873263 0.189186 0C0.0859311 0.073742 0.0419207 0.180474 0.0503841 0.316316C0.24166 0.492909 0.151947 0.652037 0.0249935 0.811165C-0.00378288 0.912076 -0.000397252 1.00911 0.045306 1.10419C0.0537694 1.1139 0.0622327 1.12166 0.0706966 1.13136C-0.0257881 1.25556 -0.0156314 1.39334 0.0537695 1.53694C0.109629 1.58934 0.165488 1.60875 0.22304 1.58352C0.221348 1.77564 0.245045 1.96775 0.255202 2.15987C0.229811 2.13659 0.207806 2.11718 0.184108 2.09389L0.187493 2.63726C0.287363 2.56546 0.280592 2.45678 0.280592 2.35199C0.299212 2.4529 0.329681 2.54411 0.470176 2.53441C0.419395 2.16569 0.561582 1.77952 0.380462 1.42633C0.37877 1.39722 0.377077 1.37005 0.375384 1.34095C0.48541 1.26332 0.475254 1.13524 0.483717 1.01299C0.673301 1.18182 0.451556 1.50007 0.664837 1.6592C0.658066 1.36617 0.651296 1.07508 0.644525 0.782056C0.615749 0.749066 0.583587 0.741304 0.54804 0.756829L0.546348 0.754888Z" fill="#E1067E"/>
</svg>
