<svg width="2" height="1" viewBox="0 0 2 1" fill="none" xmlns="http://www.w3.org/2000/svg">
<path d="M0.677083 0.612769C0.636458 0.637997 0.597526 0.663225 0.558594 0.688452C0.65 0.771897 0.699089 0.74861 0.726172 0.667106C0.727865 0.659344 0.721094 0.645759 0.710938 0.626353C0.805729 0.665165 0.905599 0.688452 1.01563 0.692333C0.981771 0.587541 0.914063 0.525443 0.822656 0.476928C0.804037 0.467225 0.78711 0.457523 0.76849 0.447819C0.820964 0.399305 0.868359 0.34885 0.929297 0.337206C1.08841 0.310038 1.2543 0.331384 1.37617 0.0888109C1.27969 0.0519397 1.17982 -0.0237431 1.13411 0.0073063C0.961459 0.123741 0.736328 0.164494 0.595833 0.35079C0.428255 0.255701 0.26237 0.160613 0.0964844 0.0674645C0.0829427 0.0597021 0.050781 0.0926921 0 0.123741C0.228515 0.300335 0.435026 0.502155 0.677083 0.612769Z" fill="#392726"/>
</svg>
