<svg width="2" height="1" viewBox="0 0 2 1" fill="none" xmlns="http://www.w3.org/2000/svg">
<path d="M1.01901 0.0224193C1.00716 0.0146569 0.988542 -0.00474857 0.981771 0.00107282C0.688932 0.22424 0.396094 0.449348 0.101562 0.672516C0.0863282 0.684159 0.0677084 0.689981 0.0490885 0.697743C0.0541668 0.697743 0.059245 0.697743 0.0626302 0.697743C0.0440107 0.707447 0.0236981 0.717149 0 0.728793C0.0609375 0.814179 0.106641 0.878218 0.154036 0.944198C0.154036 0.866574 0.155729 0.787011 0.157422 0.699684C0.167578 0.697743 0.177735 0.695803 0.187891 0.689981C0.291146 0.641466 0.389323 0.575486 0.484115 0.505625C0.661849 0.375606 0.836198 0.239765 1.01055 0.101983C1.0224 0.09228 1.01732 0.0495877 1.01901 0.0224193Z" fill="#392726"/>
</svg>
