<svg width="1" height="2" viewBox="0 0 1 2" fill="none" xmlns="http://www.w3.org/2000/svg">
<path d="M0.409211 0.698611C0.392283 0.613225 0.346581 0.56471 0.270408 0.555008C0.241633 0.555008 0.211164 0.551126 0.182388 0.545305C0.143455 0.36483 0.26533 0.149425 0.0909814 0C0.0875962 0.180474 0.085903 0.36289 0.0825178 0.543364C-0.0190447 0.62681 -0.000424984 0.749066 0.00465325 0.865502C0.0655907 0.869382 0.126528 0.871324 0.187466 0.875204C0.185773 1.1333 0.184081 1.38946 0.180695 1.64756C0.216242 1.64756 0.253481 1.64756 0.290721 1.64756C0.28395 1.4011 0.278872 1.15659 0.272101 0.910135C0.28395 0.906254 0.297492 0.902373 0.311033 0.898492C0.368586 0.848036 0.40244 0.783997 0.409211 0.700552V0.698611Z" fill="#E1067E"/>
</svg>
