<svg width="1" height="2" viewBox="0 0 1 2" fill="none" xmlns="http://www.w3.org/2000/svg">
<path d="M0.0795573 1.02851C0.0846355 0.947006 0.104948 0.873264 0.176042 0.834453C0.206511 0.910136 0.265755 0.9276 0.331771 0.931481C0.331771 0.972234 0.330078 1.01299 0.331771 1.05374C0.348698 1.23615 0.309766 1.43797 0.46888 1.57188C0.492578 1.56799 0.516276 1.56217 0.538281 1.55829C0.543359 1.45156 0.548437 1.34677 0.555208 1.20122C0.626302 1.31184 0.672005 1.38558 0.719401 1.45932C0.724479 1.14883 0.727865 0.836393 0.73125 0.525899C0.763412 0.469622 0.75664 0.421107 0.714323 0.378414C0.736328 0.211524 0.694011 0.0776235 0.539974 0C0.448568 0.112554 0.521354 0.236752 0.523047 0.357068C0.514583 0.359008 0.504427 0.360949 0.495964 0.36483C0.411328 0.426929 0.372396 0.508434 0.353776 0.597701C0.348698 0.560829 0.338541 0.523959 0.321615 0.485147C0.270833 0.603522 0.22513 0.710255 0.179427 0.816987C0.176041 0.650097 0.172656 0.483206 0.167578 0.316316C0.0575522 0.541424 0.00677083 0.782056 0 1.03821C0.030469 1.07897 0.0575522 1.07314 0.0795573 1.02851Z" fill="#EFEEE8"/>
</svg>
