<svg width="1" height="2" viewBox="0 0 1 2" fill="none" xmlns="http://www.w3.org/2000/svg">
<path d="M0.36224 0.622928C0.363932 0.586057 0.36224 0.549185 0.355469 0.510374C0.323307 0.294969 0.177734 0.163009 0.0710938 0C0.045703 0.00388092 0.0220051 0.00970306 0 0.0194059C0.0016926 0.341543 0.00677051 0.6598 0.00846354 0.979996C0.00677051 1.05568 0.00507791 1.12942 0.00169271 1.20316C0.0355469 1.27302 0.0677087 1.34289 0.0998698 1.41275C0.125261 1.5156 0.165885 1.5874 0.274219 1.53694C0.323307 1.44768 0.355469 1.35841 0.372396 1.26914C0.377474 1.28467 0.38086 1.29825 0.385938 1.31184C0.409636 1.31378 0.433334 1.31378 0.457031 1.31572C0.460417 1.05956 0.465495 0.803403 0.470573 0.547245C0.441797 0.547245 0.413021 0.547245 0.384245 0.547245C0.375781 0.572473 0.36901 0.597701 0.36224 0.622928Z" fill="#E1067E"/>
</svg>
