<svg width="1" height="2" viewBox="0 0 1 2" fill="none" xmlns="http://www.w3.org/2000/svg">
<path d="M0.0423177 0.406174C0.016927 0.476035 0.0152346 0.547837 0.0389323 0.619639C0.0592448 0.650688 0.0778645 0.685619 0.0964844 0.718609C0.0812497 0.893262 0.0186198 1.07568 0.167578 1.2251C0.201432 1.13389 0.235286 1.04075 0.269141 0.949538C0.392708 0.869974 0.325 0.718608 0.365625 0.607995C0.341927 0.493501 0.377474 0.355719 0.264062 0.274214C0.269141 0.12673 0.286068 -0.0343388 0.08125 0.0064134C0.0270833 0.0626903 0.00169303 0.132551 0 0.215997C0.00507823 0.281976 0.0220052 0.338254 0.0626302 0.380947C0.0558598 0.388709 0.0490881 0.396471 0.0423177 0.406174Z" fill="#EFEEE8"/>
</svg>
