<svg width="1" height="3" viewBox="0 0 1 3" fill="none" xmlns="http://www.w3.org/2000/svg">
<path d="M0.664767 2.39274C0.654611 2.31124 0.615679 2.25884 0.551356 2.22779C0.5412 2.22391 0.531043 2.22197 0.519194 2.22003C0.512423 2.06284 0.578439 1.88625 0.436252 1.76011C0.431173 1.80475 0.432866 1.85326 0.417632 1.89207C0.397319 1.85326 0.39732 1.79892 0.388856 1.74847C0.427788 1.7116 0.481954 1.70966 0.532736 1.69995C0.646147 1.66308 0.695236 1.56993 0.707085 1.44186C0.708777 1.34289 0.690158 1.25168 0.617371 1.18376C0.571669 1.15853 0.525965 1.16241 0.481955 1.17794C0.613986 0.780116 0.595366 0.388117 0.417632 0C0.184038 0.153306 0.409169 0.473503 0.238205 0.648156C0.270366 0.815047 0.339767 0.976115 0.273752 1.14495C0.258517 1.14107 0.244975 1.13718 0.229741 1.13524C0.187424 1.14107 0.153569 1.16047 0.124793 1.1954C0.134949 1.22839 0.138335 1.26332 0.131564 1.30019C-0.00215959 1.5874 -0.112186 1.87267 0.212814 2.07643C0.212814 2.08031 0.212814 2.08419 0.212814 2.08807C0.194195 2.19286 0.173882 2.29377 0.155262 2.39856C0.151877 2.43544 0.146799 2.47425 0.14172 2.515C0.165418 2.52082 0.189116 2.52858 0.211121 2.53247C0.195887 2.66637 0.17896 2.80221 0.162033 2.93611C0.407475 2.907 0.29745 2.67025 0.348231 2.52664C0.476877 2.59456 0.400705 2.75951 0.475184 2.86819C0.517502 2.74205 0.556434 2.62367 0.595366 2.5053C0.637684 2.48395 0.659689 2.44514 0.66646 2.39274H0.664767Z" fill="#E1067E"/>
</svg>
