<svg width="2" height="3" viewBox="0 0 2 3" fill="none" xmlns="http://www.w3.org/2000/svg">
<path d="M0.216407 2.83884C0.257032 2.79808 0.297657 2.75733 0.336589 2.71658C0.257032 2.31876 0.434766 1.89183 0.228256 1.51148C0.229948 1.51342 0.231641 1.51536 0.235026 1.5173L0.226563 1.51148C0.26211 1.47654 0.297656 1.44356 0.334896 1.40862C0.346745 1.37563 0.353516 1.34264 0.355209 1.30771C0.370443 1.34264 0.389063 1.37563 0.409375 1.40862C0.431381 1.48819 0.409375 1.5988 0.517709 1.62015C0.522787 1.59298 0.526172 1.56581 0.527865 1.5367C0.717448 1.69777 0.50586 2.00438 0.703907 2.16157C0.708985 2.06066 0.71237 1.95781 0.717448 1.85496C0.795313 1.71718 0.908724 1.5891 0.800391 1.40862C0.807161 1.29995 0.813933 1.19128 0.820704 1.08067C0.842709 0.977815 0.795313 0.940943 0.714063 0.933181C0.719141 0.876904 0.724219 0.820627 0.727605 0.76629C0.785156 0.758528 0.842709 0.750766 0.901954 0.743003C0.966277 0.743003 1.02891 0.743004 1.09323 0.741063C1.09492 0.663439 1.09492 0.587757 1.09661 0.510133C1.0306 0.552826 0.966277 0.595519 0.901954 0.636271C0.869792 0.5994 0.837631 0.562529 0.805469 0.525658C0.866407 0.413103 0.925652 0.30055 0.988282 0.187996C0.988282 0.156946 0.988281 0.125897 0.984896 0.0948475C0.863021 -0.0332309 0.742839 -0.0293501 0.620964 0.0929069C0.619271 0.129778 0.615886 0.166649 0.614193 0.20352C0.277344 0.255916 0.465235 0.531479 0.441537 0.717776C0.407683 0.733301 0.382292 0.760469 0.36198 0.79734C0.345052 0.838092 0.334896 0.878844 0.328125 0.917656C0.326433 0.845855 0.336589 0.774053 0.372136 0.704192C0.382292 0.564469 0.328126 0.484906 0.201172 0.475202C0.145313 0.484906 0.101302 0.517896 0.0725265 0.576113C-0.0036453 0.915716 -0.0933588 1.26114 0.226563 1.51342C0.20625 1.50759 0.185938 1.50565 0.165625 1.50177C0.0183597 1.62791 0.121615 1.81615 0.0792973 1.96945C0.0877607 2.26636 0.0437503 2.57686 0.218099 2.84078L0.216407 2.83884Z" fill="#E1067E"/>
</svg>
