<svg width="1" height="4" viewBox="0 0 1 4" fill="none" xmlns="http://www.w3.org/2000/svg">
<path d="M0.347982 0.98315C0.442774 0.84925 0.447852 0.678478 0.456316 0.509647C0.447852 0.443667 0.439389 0.375747 0.42754 0.313648C0.564649 0.393212 0.420769 0.639666 0.583269 0.703706C0.583269 0.527112 0.583269 0.348579 0.583269 0.170045C0.556186 0.173926 0.529102 0.171985 0.502019 0.164223C0.458008 0.0749562 0.430925 -0.0550634 0.312436 0.0303224C0.312436 0.0303224 0.312436 0.0303223 0.312436 0.0283818C0.237956 -0.0123709 0.16517 -0.01043 0.0957689 0.0419659C0.0534509 0.15452 0.0517584 0.269015 0.0974616 0.381569C0.0669926 0.494123 0.038217 0.604736 0.00774808 0.719231C0.0348314 0.831784 0.000977351 0.967625 0.104232 1.05107C0.0822273 1.31499 0.0602219 1.57697 0.0382168 1.84089C0.0500659 1.86612 0.0568368 1.89329 0.060222 1.92045C0.0517586 1.89523 0.0449877 1.86612 0.0382168 1.84089C0.0449877 2.23289 -0.0887363 2.63847 0.107618 3.01494L0.131316 2.59384C0.20918 2.45994 0.219337 2.32798 0.144857 2.19796C0.207488 2.21736 0.266733 2.2096 0.322592 2.16303C0.356446 2.10481 0.351368 2.03689 0.353061 1.97091C0.359831 2.00972 0.400456 2.03883 0.447852 2.06212C0.610352 1.97673 0.601889 1.80014 0.617123 1.63713C0.596811 1.37709 0.662826 1.06271 0.347982 0.98121V0.98315Z" fill="#E1067E"/>
</svg>
