<svg width="1" height="3" viewBox="0 0 1 3" fill="none" xmlns="http://www.w3.org/2000/svg">
<path d="M0.282682 0.0213465C0.148958 0.0892671 0.214974 0.242573 0.176042 0.351246C0.150651 0.417226 0.128646 0.483206 0.110026 0.549186C0.101563 0.520078 0.0930991 0.490968 0.08125 0.46186C0.0541667 0.457979 0.0270833 0.456038 0 0.456038C0.00338563 0.815047 0.00677062 1.17405 0.0101562 1.535C0.0998697 1.50201 0.0930987 1.40498 0.116797 1.3293C0.118489 1.29631 0.121875 1.26526 0.12526 1.23227C0.138802 1.26526 0.154036 1.29825 0.170964 1.3293C0.18112 1.55053 0.189583 1.76787 0.19974 1.9891C0.220052 2.02791 0.250521 2.0512 0.289453 2.05508C0.330078 2.04732 0.357162 2.02209 0.372396 1.98134C0.374089 1.91342 0.375781 1.8455 0.377474 1.77758C0.353776 1.44186 0.352083 1.10807 0.367318 0.774294C0.372396 0.780115 0.377474 0.785938 0.382552 0.7937C0.548437 0.52978 0.514583 0.26586 0.389323 0C0.353776 0.00776235 0.318229 0.0155247 0.284375 0.023287L0.282682 0.0213465Z" fill="#E1067E"/>
</svg>
