<svg width="1" height="1" viewBox="0 0 1 1" fill="none" xmlns="http://www.w3.org/2000/svg">
<path d="M0.416406 0.327959C0.40625 0.357068 0.399479 0.390058 0.394401 0.432751C0.385938 0.417226 0.380859 0.399761 0.377474 0.382296C0.365625 0.322138 0.365625 0.258098 0.363932 0.192118C0.42487 0.16495 0.433333 0.114495 0.453646 0C0.384245 0.0310494 0.321614 0.0523961 0.264063 0.0873264C0.184505 0.0232872 0.106641 -0.050455 0 0.0931482C0.0575523 0.355127 0.209896 0.498731 0.428255 0.626809C0.436719 0.586057 0.433334 0.553067 0.428255 0.523958C0.538281 0.446335 0.643229 0.372592 0.746484 0.29885L0.753255 0.112554C0.661849 0.163009 0.56875 0.213465 0.479037 0.26392C0.453646 0.279444 0.423178 0.300791 0.416406 0.326019V0.327959Z" fill="#392726"/>
</svg>
