<svg width="1" height="1" viewBox="0 0 1 1" fill="none" xmlns="http://www.w3.org/2000/svg">
<path d="M0.380859 0.149425C0.350391 0.100911 0.318229 0.0523962 0.28776 0.00388117C0.191276 0.106732 0.0947917 0.102851 0 0C0.0016926 0.143603 0.00507823 0.291088 0.00677083 0.436632C0.00846343 0.578295 0.0118491 0.719958 0.0135417 0.86162C0.0694009 0.830571 0.126953 0.797581 0.184505 0.766532C0.152344 0.655918 0.120182 0.545305 0.0880208 0.434691C0.174349 0.236751 0.20651 0.634571 0.292839 0.457978C0.433333 0.551127 0.36901 0.710254 0.389323 0.840274C0.538281 0.591879 0.538281 0.345424 0.384245 0.0989699C0.384245 0.0989699 0.382552 0.145544 0.382552 0.147485L0.380859 0.149425Z" fill="#E1067E"/>
</svg>
