<svg width="1" height="3" viewBox="0 0 1 3" fill="none" xmlns="http://www.w3.org/2000/svg">
<path d="M0.13576 0.613034C0.0866715 0.630499 0.049432 0.667371 0.0257343 0.719767C-0.0182763 0.890538 -0.0165835 1.04384 0.117141 1.14475C0.00203642 1.24567 -0.0148902 1.37957 0.0460468 1.54258C0.45399 1.53287 -0.00811993 1.78321 0.118833 1.85889C0.118833 1.85889 0.118833 1.85889 0.118833 1.86083C0.113755 1.86859 0.108677 1.88218 0.105292 1.89964C0.100213 2.03548 0.0951356 2.17327 0.09175 2.31105C0.233938 2.26641 0.266099 2.1461 0.262714 1.99667C0.271177 1.84919 0.325344 1.78321 0.455682 1.86083C0.47938 1.60467 0.491229 1.35046 0.37951 1.10982C0.62326 1.0322 0.640188 1.29806 0.748521 1.42614C0.750214 1.21268 0.750213 0.99727 0.753599 0.781866C0.631724 0.634381 0.513235 0.506302 0.340578 0.710063C0.305031 0.752757 0.31011 0.653786 0.276255 0.636321C0.296568 0.46943 0.415057 0.325827 0.364276 0.141472C0.325344 0.0677296 0.311802 -0.0545274 0.193312 0.026977L0.195005 0.0308582L0.171307 0.613034C0.159458 0.613034 0.147609 0.609153 0.13576 0.613034Z" fill="#E1067E"/>
</svg>
