<svg width="1" height="2" viewBox="0 0 1 2" fill="none" xmlns="http://www.w3.org/2000/svg">
<path d="M0.409866 0.55256C0.401403 0.535095 0.392939 0.523451 0.384475 0.517629C0.384475 0.515689 0.386168 0.511808 0.387861 0.511808C0.357392 0.447768 0.265986 0.4206 0.301533 0.31969C0.257523 0.199373 0.377705 -0.0451408 0.115335 0.0072552C0.027314 0.0771163 0.0103872 0.183848 0.00192336 0.294462C-0.00484747 0.408957 0.00530889 0.51763 0.0476265 0.622421C0.0628607 0.659292 0.0814807 0.674817 0.101793 0.674817C-0.0556286 1.02412 0.0950222 1.38701 0.0865588 1.74408C0.123798 1.78095 0.164423 1.78871 0.206741 1.7596C0.313382 1.72467 0.282913 1.61018 0.308304 1.53062C0.308304 1.48016 0.311689 1.43359 0.328616 1.39477C0.328616 1.4006 0.328616 1.40448 0.328616 1.4103C0.345543 1.38701 0.359085 1.36178 0.372626 1.33656C0.386168 1.32491 0.39971 1.31521 0.420022 1.30939C0.414944 1.28998 0.409866 1.26864 0.406481 1.24923C0.470804 1.02412 0.387861 0.78155 0.411559 0.55256H0.409866Z" fill="#E1067E"/>
</svg>
