<svg width="1" height="1" viewBox="0 0 1 1" fill="none" xmlns="http://www.w3.org/2000/svg">
<path d="M0.308667 0.10091C0.301896 0.0582173 0.281584 0.0213461 0.225725 0C0.224032 0.0349303 0.224032 0.073742 0.222339 0.108673C0.213876 0.120316 0.205412 0.128078 0.196949 0.137782C0.120777 0.260038 0.139397 0.426929 0.0530683 0.543364C-0.128052 0.919838 0.202027 0.863561 0.332365 0.974174C0.332365 0.894611 0.332365 0.816987 0.334058 0.737423C0.361141 0.706373 0.388225 0.677265 0.413615 0.648156C0.388225 0.547245 0.361141 0.446335 0.335751 0.345424C0.335751 0.26586 0.335751 0.186296 0.337443 0.106732C0.327287 0.104791 0.317131 0.102851 0.308667 0.10091Z" fill="#E1067E"/>
</svg>
