<svg width="1" height="1" viewBox="0 0 1 1" fill="none" xmlns="http://www.w3.org/2000/svg">
<path d="M0.110026 0.215405C0.132031 0.201821 0.147265 0.180474 0.184505 0.143603C0.160807 0.128079 0.140495 0.112554 0.120182 0.10091C0.121875 0.10091 0.12526 0.10091 0.128646 0.10091C0.14388 0.09897 0.155729 0.0601582 0.170964 0.0368711C0.138802 0.0232869 0.106641 0.00970281 0.0795573 0C0.0490888 0.0388117 0.0304689 0.0620986 0.011849 0.0834452C0.0304689 0.0853857 0.0473962 0.0912073 0.0660156 0.0950887C0.0473962 0.139722 0.0287759 0.190178 0 0.26392C0.0626301 0.236752 0.0880208 0.23093 0.108333 0.217346L0.110026 0.215405Z" fill="#392726"/>
</svg>
