<svg width="1" height="2" viewBox="0 0 1 2" fill="none" xmlns="http://www.w3.org/2000/svg">
<path d="M0.3512 0.25462C0.349508 0.1867 0.347815 0.118779 0.346122 0.048918C0.313961 0.0392147 0.2818 0.0295119 0.249638 0.0178686C-0.000882928 -0.0578144 -0.012732 0.118779 0.00588791 0.324481C0.017737 0.35359 0.0312786 0.378818 0.0465129 0.402105C0.0295856 0.423451 0.0160437 0.446738 0.00927333 0.475847C0.00588769 0.524362 0.0109659 0.572876 0.022815 0.61945C0.0278928 0.631094 0.032971 0.642737 0.0363567 0.654381C-0.0144248 0.735885 -0.00934625 0.827093 0.0482056 0.924123C0.0854454 0.964875 0.122685 1.00563 0.159924 1.04444C0.195471 1.00563 0.229326 0.966815 0.264872 0.928004C0.291956 0.926063 0.319039 0.922182 0.346122 0.91636C0.315654 0.770816 0.418909 0.588401 0.254716 0.479728C0.26318 0.390462 0.26995 0.301194 0.3512 0.25462Z" fill="#E1067E"/>
</svg>
