<svg width="1" height="5" viewBox="0 0 1 5" fill="none" xmlns="http://www.w3.org/2000/svg">
<path d="M0.341927 0.570817C0.517969 0.467966 0.511198 0.28361 0.448568 0.0720859C0.363933 -0.0113595 0.272526 -0.024944 0.176042 0.0449176C0.14388 0.0546205 0.113412 0.0643236 0.08125 0.0740264C0.0829426 0.244798 0.0846355 0.41557 0.0863281 0.584401C0.0677082 0.764875 0.0643228 0.941468 0.157422 1.1006C0.0440107 1.18792 0.088021 1.31406 0.0914062 1.42856C0.0829428 1.53141 0.0727868 1.6362 0.0643229 1.73905C0.0677086 1.9137 0.071094 2.08836 0.0744792 2.26301C0.103255 2.29018 0.132031 2.31734 0.160807 2.34257C0.106641 2.45513 0.0541667 2.56962 0 2.68217C0.132031 2.94609 0.00169271 3.24689 0.0897135 3.51663L0.052474 3.51275C0.06263 3.68352 0.0727867 3.85235 0.0829427 4.02312C0.140495 3.99207 0.198047 3.96102 0.257292 3.92803C0.338542 3.77861 0.333463 3.64277 0.220052 3.52051C0.299609 3.50498 0.316536 3.42542 0.323307 3.33809C0.323307 3.243 0.218359 3.15762 0.302995 3.05671C0.294531 2.86071 0.414713 2.64724 0.242057 2.47453C0.242057 2.47453 0.242058 2.47259 0.240365 2.47065C0.255599 2.46483 0.270833 2.45901 0.289453 2.4493C0.416406 2.15239 0.429947 1.85937 0.28776 1.56828C0.326692 1.56828 0.362239 1.55275 0.394401 1.52364C0.460417 1.4305 0.499349 1.32765 0.511198 1.20927C0.509505 1.07537 0.484114 0.94535 0.477344 0.81339C0.448567 0.720242 0.397786 0.642618 0.341927 0.568876V0.570817Z" fill="#EFEEE8"/>
</svg>
