<svg width="1" height="5" viewBox="0 0 1 5" fill="none" xmlns="http://www.w3.org/2000/svg">
<path d="M0.842969 2.39468C0.842969 2.15405 0.842969 1.91342 0.842969 1.67084C0.837891 1.5971 0.832812 1.52336 0.827734 1.44768C0.617839 1.59904 0.846354 1.92118 0.643229 2.07449C0.639844 1.8649 0.499349 1.68055 0.55013 1.45932C0.453646 1.49037 0.396094 1.56799 0.357161 1.66696C0.360547 1.72518 0.363932 1.7834 0.367318 1.84162C0.363932 1.84162 0.363932 1.83968 0.36224 1.83968C0.286068 1.8552 0.245443 1.89401 0.223438 1.94253C0.233594 1.81057 0.265755 1.68055 0.245443 1.54859C0.223437 1.43215 0.211588 1.31572 0.203125 1.19928C0.192969 1.09837 0.170964 1.00522 0.101562 0.933422C0.0998699 0.79564 0.0998697 0.655918 0.0981771 0.516196C0.0643229 0.343484 0.172656 0.141663 0.00846354 0C0.0101561 0.170772 0.0135419 0.341543 0.0169271 0.512315C0.0118489 1.13718 0.0050778 1.76205 0 2.38692C0.0118486 2.46843 0.00507802 2.55769 0.0372396 2.62949C0.0372396 2.6392 0.0355472 2.64502 0.0338542 2.65472C0.0406254 2.71294 0.0592446 2.76728 0.0897135 2.81773C0.0880205 2.9885 0.0880207 3.15927 0.0863281 3.33199C0.093099 3.50082 0.0998695 3.66771 0.108333 3.83654C0.223437 3.82296 0.267448 3.76086 0.284375 3.68517C0.28776 3.72593 0.289453 3.76862 0.291146 3.81131C0.289453 3.81131 0.28776 3.81131 0.286068 3.81325C0.172656 3.8967 0.204818 4.07717 0.0998698 4.16644L0.0914062 4.16062C0.0964845 4.33333 0.101562 4.50604 0.106641 4.67875C0.169271 4.69428 0.297917 4.82042 0.235286 4.60501C0.174349 4.39349 0.235286 4.40707 0.36224 4.48275C0.380859 4.59337 0.325 4.73503 0.463802 4.79325C0.560286 4.70204 0.563672 4.57396 0.570443 4.44394C0.570443 4.3799 0.56875 4.31586 0.563672 4.25377C0.589062 4.26735 0.616146 4.27511 0.646615 4.27705C0.680469 4.24406 0.716016 4.20719 0.74987 4.1742C0.621224 3.98402 0.643229 3.76086 0.638151 3.54351C0.611068 3.49111 0.585677 3.49306 0.558594 3.54157C0.528125 3.69488 0.611068 3.87341 0.50612 4.00925C0.507812 4.00149 0.509505 3.98985 0.511198 3.98014C0.509505 3.92775 0.497656 3.87923 0.473958 3.8346C0.470573 3.8346 0.468881 3.83266 0.467187 3.83072C0.563672 3.73757 0.548437 3.60755 0.536589 3.48141C0.517969 3.41349 0.494271 3.35139 0.458724 3.29512C0.460417 3.26989 0.462109 3.2466 0.463802 3.22137C0.492578 3.22137 0.521354 3.21167 0.548437 3.19615C0.553516 3.13405 0.561979 3.07195 0.56875 3.00985C0.648307 2.84102 0.685547 2.67607 0.553516 2.52664C0.570443 2.51306 0.585677 2.49559 0.599219 2.47425C0.621224 2.42185 0.634766 2.36946 0.639844 2.31706C0.655078 2.34423 0.675391 2.3714 0.695703 2.39856C0.700781 2.40051 0.705859 2.40245 0.71263 2.40439C0.597526 2.59068 0.665235 2.81191 0.634766 3.01373C0.822656 2.85072 0.807422 2.61397 0.809115 2.38304L0.842969 2.39468Z" fill="#EFEEE8"/>
</svg>
