<svg width="1" height="2" viewBox="0 0 1 2" fill="none" xmlns="http://www.w3.org/2000/svg">
<path d="M0.216674 0.232143C0.208211 0.232143 0.20144 0.230202 0.194669 0.230202C0.0152417 0.466954 0.0609448 0.713408 0.159122 0.963744C0.130346 0.963744 0.104956 0.975388 0.0863357 0.998675C0.08295 1.03555 0.0778723 1.07048 0.0677159 1.10541C-0.0135341 1.24513 -0.0253833 1.38873 0.0524815 1.53816C0.0609449 1.54786 0.0711015 1.55562 0.0812575 1.56339C0.0270909 1.62937 0.0287834 1.69729 0.0863357 1.76715C0.165893 1.8176 0.0778722 2.05629 0.269148 1.98061C0.267456 1.83507 0.267455 1.6934 0.265763 1.54786C0.26407 1.39844 0.262377 1.24707 0.260685 1.09764C0.267455 0.922992 0.274226 0.746399 0.280997 0.571746C0.504435 0.812378 0.231909 1.18109 0.448575 1.42366C0.460424 1.13452 0.473966 0.845369 0.487508 0.556221C0.590763 0.385449 0.599226 0.212737 0.504435 0.0342032C0.318237 -0.0764101 0.28269 0.106005 0.216674 0.230202V0.232143Z" fill="#E1067E"/>
</svg>
