<svg width="1" height="1" viewBox="0 0 1 1" fill="none" xmlns="http://www.w3.org/2000/svg">
<path d="M0.145573 0.0601582C0.145573 0.0601582 0.14388 0.0543367 0.142188 0.0504552C0.128646 0.0329901 0.115104 0.0174657 0.101563 0C0.0236981 0.052396 0.0118491 0.141663 0 0.23093C0.00507823 0.271682 0.0101566 0.310493 0.0152344 0.351246C0.0406251 0.380355 0.0677082 0.409463 0.093099 0.436632C0.106641 0.423048 0.11849 0.409463 0.132031 0.39588C0.121875 0.376474 0.111719 0.359009 0.103255 0.339603C0.133724 0.374533 0.1625 0.368712 0.186198 0.326019C0.187891 0.294969 0.192969 0.26586 0.204818 0.236752C0.179427 0.180475 0.204817 0.0912074 0.145573 0.0582176V0.0601582Z" fill="#EFEEE8"/>
</svg>
