<svg width="1" height="1" viewBox="0 0 1 1" fill="none" xmlns="http://www.w3.org/2000/svg">
<path d="M0.133506 0.677288C0.135199 0.576378 0.136892 0.475467 0.138584 0.376497C0.150434 0.51816 0.170746 0.659823 0.138584 0.803426C0.133506 0.836417 0.133506 0.871347 0.14197 0.906277C0.174131 0.939268 0.207986 0.972257 0.240147 1.00525C0.439887 1.01301 0.412803 0.826713 0.44835 0.690872C0.456814 0.539506 0.458506 0.386201 0.434808 0.236775C0.404339 0.116459 0.370486 -0.00191693 0.231683 2.35343e-05C0.199522 0.00778588 0.169053 0.0155484 0.136892 0.0252512C0.135199 0.0621224 0.135199 0.098993 0.133506 0.137805C0.133506 0.139746 0.133506 0.145567 0.133506 0.147508C0.0234804 0.32022 -0.10178 0.492932 0.133506 0.675348V0.677288Z" fill="#E1067E"/>
</svg>
