<svg width="1" height="3" viewBox="0 0 1 3" fill="none" xmlns="http://www.w3.org/2000/svg">
<path d="M0.370703 1.45931C0.38763 1.43602 0.399479 1.4108 0.409635 1.38751C0.409635 1.41274 0.414714 1.43602 0.428255 1.45931C0.633073 1.65531 0.428255 1.99297 0.626302 2.19091C0.63138 2.11717 0.638151 2.04343 0.643229 1.96774C0.682162 1.76786 0.69401 1.56798 0.636458 1.3681C0.604297 1.32541 0.573828 1.28272 0.541667 1.24002C0.545052 1.13717 0.548437 1.03432 0.553516 0.933412C0.551823 0.832501 0.548437 0.731592 0.546745 0.62874C0.580599 0.510365 0.639844 0.376464 0.504427 0.331831C0.507812 0.304662 0.509505 0.275554 0.509505 0.246445C0.507812 0.166881 0.485807 0.0950793 0.433333 0.0388019C0.172656 -0.0950984 0.191276 0.147474 0.154036 0.312425C0.152344 0.337652 0.154036 0.36288 0.154036 0.388108C0.111719 0.36288 0.0643227 0.368702 0 0.436622C0.0253903 0.572463 0.0507811 0.708304 0.0761719 0.844145C0.198047 0.985808 0.165885 0.719948 0.247135 0.7607C0.257292 1.09448 0.264062 1.42826 0.274219 1.76398C0.523047 1.75428 0.284375 1.53693 0.372396 1.45931H0.370703Z" fill="#EFEEE8"/>
</svg>
