<svg width="1" height="3" viewBox="0 0 1 3" fill="none" xmlns="http://www.w3.org/2000/svg">
<path d="M0.555208 1.65611C0.413021 1.36114 0.451953 1.0196 0.365625 0.711044C0.374088 0.505342 0.382552 0.2977 0.389323 0.0919972C0.379166 0.0648293 0.370703 0.0376604 0.365625 0.00855201C0.302995 -0.0147355 0.269141 0.0124329 0.240365 0.0551261C0.22513 0.0415419 0.20651 0.0298986 0.191276 0.0163144C0.01862 -0.0224969 0.0660156 0.105581 0.0795573 0.208432C0.093099 0.400551 0.106641 0.592669 0.120182 0.786727C0.213281 0.738213 0.20651 0.645064 0.19974 0.551916C0.213281 0.608193 0.238672 0.660589 0.284375 0.703282C0.274219 0.707163 0.265755 0.712985 0.257292 0.720747C0.194662 0.813895 0.164192 0.92645 0.113411 1.02542C0.0727865 1.11469 0.0490883 1.20783 0.0592448 1.31069C0.06263 1.33203 0.0660158 1.35532 0.069401 1.37861C-0.0101564 1.44265 0.0253907 1.56102 0 1.65029C0.0287759 1.75314 0.0592449 1.85793 0.0880208 1.96078C0.0897134 1.85793 0.0930991 1.75702 0.0947917 1.65417C0.111719 1.75702 0.148958 1.84823 0.248828 1.91227C0.248828 1.92779 0.258984 1.94332 0.28099 1.95884C0.304687 2.10827 0.238672 2.28486 0.38763 2.39353C0.414714 2.4207 0.438411 2.41488 0.457031 2.37801C0.411328 2.2053 0.440104 2.03646 0.472266 1.86569C0.558593 1.82688 0.563672 1.74538 0.553516 1.65805L0.555208 1.65611Z" fill="#EFEEE8"/>
</svg>
