<svg width="1" height="3" viewBox="0 0 1 3" fill="none" xmlns="http://www.w3.org/2000/svg">
<path d="M0.113411 2.21421C0.0575522 2.32676 0.0694015 2.4335 0.130339 2.54023C0.13711 2.61009 0.142188 2.67995 0.148958 2.74981L0.192969 2.7634L0.236979 2.75369C0.318229 2.75563 0.389323 2.73429 0.435026 2.64696C0.438411 2.57322 0.441797 2.49948 0.445182 2.42573C0.418099 2.34811 0.433333 2.24332 0.338542 2.20645C0.336849 2.20645 0.335157 2.20839 0.333464 2.21033C0.333464 2.17152 0.335156 2.13464 0.335156 2.09777C0.453646 2.02597 0.419792 1.89013 0.440104 1.77564C0.433333 1.72906 0.42487 1.68249 0.416406 1.63591C0.385937 1.31378 0.357161 0.99358 0.328385 0.671443C0.335156 0.630691 0.341927 0.589938 0.348698 0.549186C0.348698 0.407523 0.348698 0.26392 0.348698 0.120316C0.311458 0.0795637 0.274219 0.0407527 0.236979 0L0.160807 0.673383L0.126953 0.99358C0.0880207 1.05568 0.074479 1.12748 0.0846354 1.20316C0.0897132 1.23033 0.0964848 1.25944 0.103255 1.28661C-0.0423175 1.52142 0.0389324 1.80863 0 2.07061C0.0152347 2.15017 0.0389322 2.21809 0.111719 2.21421H0.113411Z" fill="#E1067E"/>
</svg>
