<svg width="1" height="2" viewBox="0 0 1 2" fill="none" xmlns="http://www.w3.org/2000/svg">
<path d="M0.788059 1.1954C0.78298 0.906254 0.777902 0.617107 0.772824 0.327959C0.737277 0.289147 0.696652 0.283325 0.652642 0.306613C0.29548 0.477384 0.70173 0.943125 0.407199 1.13524C0.400428 1.14301 0.397043 1.15271 0.391965 1.16047C0.393658 0.844155 0.39535 0.525899 0.398736 0.209583C0.393658 0.141663 0.38858 0.0737428 0.383501 0.00388117L0.388579 0C0.243006 0 0.205767 0.093148 0.192225 0.19988C0.175298 0.135841 0.1516 0.075683 0.110975 0.0155247C0.109283 0.0446336 0.104205 0.0756831 0.0940482 0.102851C-0.0176704 0.39588 -0.0430613 0.688909 0.0906628 0.981937C0.0991262 1.02269 0.102512 1.06732 0.114361 1.10613C0.117746 1.14495 0.122825 1.18376 0.134673 1.22063C0.18884 1.33318 0.256548 1.39528 0.358111 1.33318C0.368267 1.38558 0.38858 1.43021 0.41397 1.47679C0.452902 1.53889 0.503684 1.58352 0.571392 1.59904C0.61371 1.59904 0.656027 1.58546 0.693267 1.56023L0.791444 1.43021C0.833762 1.35065 0.837147 1.27302 0.786366 1.19346L0.788059 1.1954Z" fill="#E1067E"/>
</svg>
