<svg width="3" height="3" viewBox="0 0 3 3" fill="none" xmlns="http://www.w3.org/2000/svg">
<path d="M0.212357 2.6489C0.268217 2.65666 0.324076 2.68189 0.373165 2.71294C0.418868 2.74205 0.4578 2.7925 0.517045 2.84684C0.517045 2.76922 0.518738 2.73623 0.518738 2.70324H0.517045C0.486576 2.59844 0.456107 2.49365 0.417175 2.36363C0.605066 2.08419 0.880978 1.87072 1.08241 1.56993C1.27199 1.28855 1.54621 1.08091 1.76626 0.824749C1.99309 0.560829 2.20129 0.275563 2.41626 0C2.24699 0.0659797 2.08957 0.153306 1.97616 0.291088C1.39218 1.01299 0.769258 1.69025 0.144649 2.36752C0.0752476 2.44126 -0.0212366 2.50142 0.00415418 2.65278C0.0735551 2.65084 0.142956 2.6392 0.210665 2.6489H0.212357Z" fill="#392726"/>
</svg>
