<svg width="1" height="2" viewBox="0 0 1 2" fill="none" xmlns="http://www.w3.org/2000/svg">
<path d="M0.167578 0.820383C0.19974 0.71171 0.22513 0.603037 0.235286 0.500186C0.357161 0.337177 0.330078 0.174168 0.208203 0.0111583C0.208203 0.077138 0.208203 0.141177 0.208203 0.207158C0.186198 0.135356 0.150651 0.0674355 0.0947917 0.00145535C0.0710935 -0.000485116 0.0457029 -0.000485116 0.0220052 0.00145535C0.0152344 0.0383266 0.0067704 0.0751975 0 0.112069C0.00846343 0.370167 0.0186196 0.626324 0.028776 0.882482C0.028776 1.20462 0.0287759 1.52287 0.0270833 1.84307C0.179427 1.69365 0.0660153 1.48018 0.121875 1.30941C0.115104 1.16775 0.106641 1.02608 0.0998698 0.886363C0.126953 0.87666 0.150651 0.855313 0.169271 0.820383H0.167578Z" fill="#E1067E"/>
</svg>
