<svg width="1" height="4" viewBox="0 0 1 4" fill="none" xmlns="http://www.w3.org/2000/svg">
<path d="M0.507812 0.646215C0.534896 0.547245 0.563672 0.448276 0.590755 0.349306C0.585677 0.279445 0.580599 0.209583 0.575521 0.141663C0.53151 0.0950887 0.489193 0.0485145 0.445182 0C0.428255 0.0407522 0.38763 0.09897 0.397786 0.116435C0.490886 0.277504 0.397786 0.419167 0.374089 0.568592C0.375781 0.607404 0.377474 0.646215 0.377474 0.685027C0.352083 0.698611 0.328385 0.716077 0.304688 0.737423C0.279297 0.768472 0.26237 0.803403 0.253906 0.842215C0.226823 0.7937 0.187891 0.764591 0.135417 0.762651C0.0778648 0.787878 0.0592448 0.832512 0.0863281 0.898492C0.0863281 0.939244 0.0846354 0.978056 0.0846354 1.01881C0.0947914 1.12554 0.10664 1.23421 0.116797 1.34095C0.10664 1.63203 0.0947916 1.92506 0.0863281 2.21809C0.101563 2.25302 0.116797 2.28989 0.133724 2.32482H0.132031C0.121875 2.40245 0.110026 2.47813 0.0998698 2.55575C-0.0152344 2.86431 0.0947917 3.20585 0 3.51634L0.00846354 3.55127C0.104948 3.72593 0.191276 3.57262 0.282682 3.54351C0.289453 3.4329 0.296224 3.32228 0.304688 3.21167C0.304688 2.99433 0.301302 2.77892 0.301302 2.56351C0.28099 2.47037 0.264063 2.37334 0.170964 2.33647C0.198047 2.33841 0.221745 2.32676 0.240365 2.29183C0.24375 2.27631 0.248828 2.26078 0.250521 2.24526C0.284375 2.34423 0.341927 2.42185 0.477344 2.43932L0.484115 2.44902C0.484115 2.41215 0.490886 2.37722 0.501042 2.34229C0.526432 2.22973 0.55013 2.11524 0.573828 2.00269C0.538281 1.82803 0.668619 1.61457 0.480729 1.47485C0.517969 1.25168 0.555208 1.02657 0.590755 0.803403C0.624609 0.702492 0.575521 0.667562 0.504427 0.648156L0.507812 0.646215Z" fill="#E1067E"/>
</svg>
