<svg width="1" height="1" viewBox="0 0 1 1" fill="none" xmlns="http://www.w3.org/2000/svg">
<path d="M0.501042 0.644275C0.494271 0.574414 0.489193 0.504552 0.482422 0.434691C0.411328 0.359008 0.336849 0.357068 0.264062 0.432751C0.255599 0.456038 0.248828 0.479324 0.242057 0.502612C0.236979 0.479324 0.226823 0.454097 0.211589 0.43081C0.121875 0.302732 0.277604 0.0310494 0.0220052 0C0.0152344 0.0659797 0.00846343 0.13196 0 0.19794C0.1625 0.285267 -0.0812498 0.609344 0.192969 0.630691C0.201433 0.622928 0.209896 0.615166 0.216667 0.607404C0.198047 0.72772 0.228516 0.828631 0.38763 0.884907C0.421484 0.877145 0.455339 0.871323 0.490885 0.863561C0.494271 0.789818 0.497656 0.716076 0.502734 0.642334L0.501042 0.644275Z" fill="#E1067E"/>
</svg>
