<svg width="1" height="6" viewBox="0 0 1 6" fill="none" xmlns="http://www.w3.org/2000/svg">
<path d="M0.648026 2.54023C0.653105 2.27437 0.658183 2.01045 0.664954 1.74459C0.65649 1.60098 0.648026 1.45932 0.641256 1.31572C0.538 1.26332 0.478756 1.33124 0.424589 1.41663C0.39412 1.4632 0.434745 1.64174 0.309485 1.52724C0.422896 1.50978 0.419511 1.42439 0.363651 1.31184C0.290865 1.12942 0.49399 0.943125 0.360266 0.76071C0.422896 0.756829 0.483834 0.754888 0.543079 0.752948C0.573547 0.754888 0.605709 0.756829 0.636177 0.754888C0.636177 0.502612 0.636177 0.252276 0.636177 0C0.448287 0 0.460136 0.157188 0.455058 0.300791C0.361959 0.347365 0.270553 0.391998 0.177454 0.438573C0.141907 0.574413 0.23162 0.655918 0.280709 0.754888C0.192688 1.00328 0.138521 1.25944 0.184224 1.53306C0.177454 1.60486 0.172375 1.67861 0.165605 1.74847C0.241776 1.89013 0.157141 2.01627 0.136829 2.14823C0.143599 2.16764 0.152063 2.18316 0.162219 2.19868C0.102974 2.25884 0.0741982 2.33647 0.0589639 2.42573C0.0369584 2.63532 0.0369584 2.8449 0.0589639 3.05642C0.0741982 3.14763 0.114824 3.22331 0.174068 3.28735C0.192688 3.26989 0.209615 3.25436 0.228235 3.2369C0.240084 3.37662 0.253625 3.51634 0.360266 3.61531C0.351803 3.61725 0.343339 3.62307 0.334875 3.62696C0.304407 3.67547 0.285787 3.72399 0.270552 3.77444C0.263782 3.68905 0.236699 3.60561 0.174068 3.52799C0.141907 3.51634 0.106359 3.50664 0.0725056 3.495C-0.127234 3.68905 0.157141 3.87341 0.0826619 4.06553C0.145292 4.22272 0.0047976 4.46335 0.158834 4.58561C0.153756 4.62636 0.153756 4.66711 0.153756 4.7098C0.128365 4.71369 0.102974 4.71757 0.0775837 4.72339C0.109745 4.86505 0.140214 5.00865 0.172375 5.14838C0.20623 5.1542 0.228234 5.14255 0.243469 5.12315C0.273938 5.17554 0.31287 5.22212 0.370422 5.24735C0.500761 5.18719 0.419511 5.04164 0.460136 4.94461C0.487219 4.91939 0.497375 4.89222 0.492297 4.86311C0.485526 4.834 0.478756 4.82042 0.471985 4.82042C0.473678 4.50216 0.47537 4.1839 0.477063 3.86759C0.505839 3.81713 0.514303 3.7628 0.504146 3.70652C0.502454 3.7007 0.500761 3.69876 0.499068 3.69488C0.519381 3.66771 0.539693 3.64248 0.560006 3.61725C0.563391 3.5765 0.566776 3.53769 0.570162 3.49888C0.600631 3.39603 0.624329 3.29512 0.558313 3.20585C0.605709 3.10688 0.659875 3.01373 0.744511 2.95163C0.742818 2.91864 0.742818 2.88371 0.747896 2.85072C0.80037 2.74787 0.742818 2.67413 0.698808 2.5965C0.683573 2.5771 0.666646 2.55963 0.648026 2.54411V2.54023Z" fill="#E1067E"/>
</svg>
