<svg width="1" height="1" viewBox="0 0 1 1" fill="none" xmlns="http://www.w3.org/2000/svg">
<path d="M0.282738 0C0.226878 0.0349303 0.169326 0.0718014 0.115159 0.106732C0.106696 0.126138 0.10331 0.147484 0.0982324 0.168831C0.0356019 0.180474 -0.00163727 0.223167 5.53306e-05 0.312434C5.53306e-05 0.485146 0.00174804 0.659799 0.00174804 0.832512C0.0694564 0.89461 0.14055 0.896551 0.215029 0.849977C0.270889 0.782056 0.296279 0.700552 0.304743 0.609344C0.304743 0.555008 0.304743 0.498731 0.299665 0.446335C0.30305 0.432751 0.304743 0.421108 0.306436 0.409464C0.391071 0.265861 0.397842 0.128078 0.282738 0Z" fill="#EFEEE8"/>
</svg>
