<svg width="1" height="5" viewBox="0 0 1 5" fill="none" xmlns="http://www.w3.org/2000/svg">
<path d="M0.560388 1.02912C0.53669 0.998069 0.514685 0.965079 0.490987 0.93209C0.276013 0.848644 0.306482 0.681754 0.379269 0.497398C0.413123 0.394547 0.345414 0.262587 0.446977 0.177202C0.453748 0.142271 0.462211 0.1054 0.472367 0.0724099C0.372498 -0.034322 0.269242 -0.0110355 0.165987 0.0646475C0.0915077 0.212132 0.0830444 0.353795 0.182914 0.481874C0.169373 0.499339 0.155831 0.516804 0.142289 0.534269C0.121977 0.580844 0.106742 0.63324 0.0982789 0.685635C0.0864299 0.825357 0.0948934 0.961199 0.174451 1.07763C0.177836 1.08151 0.182915 1.08346 0.1863 1.08734C0.0508831 1.24452 0.108435 1.41918 0.176144 1.59383C0.181222 1.6113 0.184607 1.6307 0.189685 1.65011C0.176144 1.66563 0.162602 1.68504 0.152446 1.70444C0.125362 1.7743 0.116899 1.84805 0.108435 1.92179C0.0407268 2.15466 -0.0946897 2.39141 0.103357 2.62234C0.093201 2.63398 0.0830443 2.64369 0.0728883 2.65339C0.0728883 2.67862 0.074581 2.7019 0.074581 2.72713C0.0830444 2.76012 0.0965862 2.79117 0.110128 2.82028L0.0948935 3.26467C0.198149 3.20452 0.196456 3.10749 0.194763 3.01046C0.213383 3.09972 0.225232 3.19481 0.277706 3.26662C0.262472 3.28602 0.255701 3.30737 0.259086 3.3326C0.264164 3.36364 0.269243 3.37723 0.277706 3.37723C0.29294 3.55576 0.308174 3.73624 0.323409 3.91477C0.320024 3.99822 0.318331 4.0836 0.316638 4.16705C0.369112 4.15152 0.421586 4.136 0.47406 4.11853C0.47406 4.01568 0.47406 3.91283 0.472367 3.80998C0.468982 3.6198 0.467289 3.43156 0.465597 3.24333C0.465597 2.98135 0.567159 2.70967 0.401274 2.46709C0.496065 2.21288 0.538383 1.9606 0.384347 1.71221C0.516378 1.64623 0.468982 1.50068 0.497758 1.38813C0.472368 1.30662 0.482524 1.19989 0.384347 1.16302C0.384347 1.15914 0.384347 1.15526 0.384347 1.15138C0.458826 1.13973 0.519764 1.10868 0.557003 1.02912H0.560388Z" fill="#E1067E"/>
</svg>
