<svg width="1" height="2" viewBox="0 0 1 2" fill="none" xmlns="http://www.w3.org/2000/svg">
<path d="M0.331236 0.741304C0.380324 0.630691 0.382017 0.522018 0.326158 0.413345C0.260142 0.411404 0.219517 0.434692 0.194126 0.475444C0.216132 0.359009 0.261835 0.246455 0.244908 0.124198C0.205975 0.0834453 0.16535 0.0407522 0.126418 0C-0.0631652 0.052396 0.0079284 0.194059 0.04009 0.322137L0.068866 0.95865C0.0637878 1.23421 0.0570167 1.50784 0.0519389 1.7834C0.150116 1.75041 0.146731 1.65532 0.153501 1.56605C0.172121 1.45544 0.194126 1.34483 0.192434 1.23615C0.224595 1.28273 0.26522 1.29243 0.312616 1.26138C0.322773 1.1236 0.332929 0.985818 0.343085 0.848036C0.3397 0.811166 0.334621 0.776235 0.331236 0.739363V0.741304Z" fill="#EFEEE8"/>
</svg>
