<svg width="1" height="3" viewBox="0 0 1 3" fill="none" xmlns="http://www.w3.org/2000/svg">
<path d="M0.144474 0.417226C0.102156 0.481266 0.124162 0.566651 0.103849 0.640394C0.0327555 0.733542 0.213876 0.851917 0.0835369 0.941185C0.10385 0.979996 0.124162 1.01687 0.144474 1.05374C0.119084 1.18958 0.0936933 1.32348 0.0683026 1.45932C0.0750734 1.60098 0.0852298 1.74071 0.0936932 1.88043L0.0649172 1.87655C0.0936931 1.95805 0.0733807 2.06673 0.168172 2.10942C0.0936932 1.91148 0.69799 2.16958 0.339136 1.77758C0.344214 1.70772 0.350985 1.63591 0.356063 1.56411C0.279891 1.43992 0.237573 1.30601 0.283277 1.15271C0.290047 1.15271 0.293433 1.13524 0.295126 1.10419C0.295126 1.07508 0.284969 1.04792 0.266349 1.02463C0.313745 0.855799 0.45424 0.690849 0.271428 0.516196C0.26635 0.485147 0.261272 0.452157 0.257886 0.421107C0.288355 0.351246 0.318823 0.283326 0.349292 0.213465C0.215568 0.213465 0.168172 0.0679202 0.0767661 0C-0.0857339 0.0989695 0.0581463 0.203762 0.071688 0.306613C0.0378338 0.395879 0.0733805 0.421107 0.144474 0.415286V0.417226Z" fill="#EFEEE8"/>
</svg>
