<svg width="1" height="3" viewBox="0 0 1 3" fill="none" xmlns="http://www.w3.org/2000/svg">
<path d="M0.0448566 1.07134C0.0363932 1.07522 0.0279297 1.0791 0.0177733 1.08298C-0.00592442 1.12761 -0.00592442 1.17031 0.0177733 1.213C0.0262371 1.42452 0.0330073 1.63799 0.0414712 1.84951C0.0685545 1.86309 0.0973308 1.86698 0.127799 1.86309C0.158268 1.9349 0.192122 2.00864 0.222591 2.08044C0.386784 1.92907 0.283529 1.71949 0.313997 1.53902C0.313997 1.39347 0.312305 1.24793 0.312305 1.10238C0.258138 1.0985 0.205664 1.09656 0.151497 1.09462C0.146419 1.08686 0.143034 1.08104 0.137956 1.07522C0.131185 1.07328 0.127799 1.07134 0.121028 1.07134C0.126106 0.892802 0.131185 0.716208 0.13457 0.539615C0.187044 0.384368 0.198893 0.22718 0.170117 0.0641711C0.141341 0.017597 0.0990232 -0.00180871 0.0499347 0.000131756C0.0363931 0.29122 0.0245441 0.582308 0.0110024 0.871455C0.0211589 0.939376 0.0313148 1.00536 0.0431639 1.07134H0.0448566Z" fill="#E1067E"/>
</svg>
