<svg width="1" height="5" viewBox="0 0 1 5" fill="none" xmlns="http://www.w3.org/2000/svg">
<path d="M0.5514 3.00985C0.542936 2.87401 0.534473 2.74011 0.527702 2.60427C0.53278 2.49948 0.539551 2.39274 0.544629 2.28795C0.537858 2.1036 0.453223 2.1133 0.344889 2.18316C0.385514 2.11524 0.437988 2.06478 0.524316 2.07449L0.527702 1.87267C0.419368 1.71354 0.405827 1.535 0.437988 1.34677C0.439681 0.999402 0.605566 0.653978 0.448144 0.306613C0.527701 0.26586 0.529394 0.178534 0.542936 0.0989699C0.45153 0.0659801 0.361816 0.0329903 0.272103 0C0.173925 0.0174657 0.131608 0.0912078 0.123144 0.195999C0.128223 0.236752 0.146842 0.269742 0.175618 0.293029C0.151921 0.308553 0.129915 0.3299 0.109603 0.359008C0.0537431 0.49679 0.0571288 0.646215 0.0571288 0.7937C0.0588214 0.865501 0.0638998 0.939243 0.0723632 1.01105C0.116374 1.40498 0.121452 1.79892 0.153613 2.19286C0.155306 2.1948 0.156999 2.1948 0.156999 2.19674C0.134993 2.22003 0.119759 2.24914 0.111295 2.28213C0.10791 2.32482 0.109603 2.36752 0.116374 2.40827C0.134993 2.53441 0.143457 2.66637 0.25179 2.74399C0.253483 2.74593 0.256868 2.74593 0.260254 2.74593C0.255176 2.907 0.250098 3.06807 0.246712 3.22914C0.2264 3.25824 0.211165 3.28929 0.197624 3.3184C0.192545 3.28929 0.187467 3.26019 0.179004 3.23108C0.118066 3.13793 0.250098 2.95551 0.0706705 2.91476C-0.0258138 3.05254 -0.0190429 3.19226 0.0638997 3.33199C0.0706705 3.5047 0.0774414 3.67353 0.0859049 3.8443C0.112988 3.84818 0.140072 3.85206 0.167155 3.85012C0.179004 3.81907 0.187467 3.78997 0.194238 3.76086C0.204395 3.78608 0.217936 3.81325 0.231478 3.83848C0.243326 3.8443 0.25179 3.8443 0.260254 3.84818C0.25179 3.85206 0.243327 3.85789 0.234863 3.87147C0.221322 3.89088 0.2264 3.9161 0.25179 3.94521C0.294108 4.0403 0.344889 4.12569 0.441374 4.16062C0.509082 4.03254 0.542936 3.89476 0.534473 3.74339C0.53278 3.71428 0.529395 3.68129 0.526009 3.65218C0.500618 3.61725 0.471842 3.59785 0.443066 3.59591C0.465071 3.42125 0.412598 3.24466 0.404134 3.06807C0.427832 3.09524 0.465071 3.1127 0.529394 3.10882C0.534473 3.07389 0.542936 3.0409 0.553092 3.00791L0.5514 3.00985Z" fill="#EFEEE8"/>
</svg>
