<svg width="2" height="3" viewBox="0 0 2 3" fill="none" xmlns="http://www.w3.org/2000/svg">
<path d="M0.431871 2.18919C0.479267 2.27652 0.553746 2.29592 0.634996 2.28816C0.699319 2.33085 0.761949 2.37549 0.824579 2.41818C0.982001 2.13291 0.790725 1.80689 0.899058 1.51581C0.909215 1.48476 0.914293 1.45371 0.917678 1.42072C1.02432 1.444 0.99385 1.55462 1.01755 1.6303C1.01924 1.81077 1.01924 1.98931 1.02093 2.16784C1.16989 2.0126 1.08695 1.81272 1.10218 1.6303C1.10895 1.48282 1.11572 1.33533 1.12419 1.18979C1.08695 1.14515 1.04971 1.10052 1.01247 1.05589C0.982001 1.07141 0.951533 1.07529 0.919371 1.06559C0.883824 1.00155 0.84997 0.937511 0.814423 0.871531C0.76872 0.852125 0.728095 0.863769 0.694241 0.904521C0.633303 1.09858 0.690856 1.25383 0.802574 1.39355C0.785647 1.38967 0.767027 1.38967 0.743329 1.39549C0.709475 1.4246 0.685777 1.45565 0.663772 1.49058C0.662079 1.47117 0.662079 1.45177 0.660387 1.4343C0.614683 1.35862 0.548668 1.33145 0.470803 1.32757C0.470803 1.32757 0.470803 1.32757 0.469111 1.32757C0.519892 1.21501 0.484345 1.0947 0.438642 0.974382C0.436949 0.681353 0.435256 0.386384 0.433564 0.0933557C0.311689 -0.0153171 0.184736 -0.0327824 0.0493189 0.0603657C-0.0116186 0.141871 -0.0133112 0.231137 0.0290064 0.324285L0.0594751 0.314583C0.0577825 0.423255 0.0560899 0.531928 0.0527043 0.642542C0.149189 0.683294 0.142418 0.722106 0.0510116 0.758977C0.0527042 0.863769 0.0560898 0.970501 0.0577824 1.07529C0.0527042 1.23248 0.00700119 1.39743 0.128876 1.53133C0.13734 1.64 0.147496 1.74674 0.15596 1.85347C0.213512 1.84765 0.269371 1.84182 0.32523 1.836C0.340465 1.82436 0.352314 1.81272 0.360777 1.79913C0.404787 1.88064 0.445412 1.96602 0.430178 2.07469C0.430178 2.11351 0.428486 2.15038 0.426793 2.18919H0.431871Z" fill="#E1067E"/>
</svg>
