<svg width="1" height="3" viewBox="0 0 1 3" fill="none" xmlns="http://www.w3.org/2000/svg">
<path d="M0.208977 2.59456C0.205592 2.28407 0.202206 1.97552 0.200513 1.66502C0.202206 1.11002 0.203899 0.555007 0.205592 0C0.0295499 0.203761 0.210669 0.518137 0.0363207 0.723839C0.0464767 0.758769 0.0498626 0.79564 0.0464769 0.832512C0.0380135 0.865501 0.0380135 0.896551 0.0464769 0.9276C0.000774134 1.11584 -0.0246165 1.30407 0.034628 1.49619C0.0481696 1.54083 0.0650969 1.58546 0.0887946 1.62427C0.1108 1.6495 0.137883 1.66308 0.164967 1.66696C0.15481 1.66696 0.144654 1.66696 0.132805 1.6689C0.117571 1.68055 0.100643 1.69413 0.0837165 1.70772C0.0278573 1.82997 -0.00261161 1.95999 0.00415923 2.09971C0.0109301 2.16375 0.0312426 2.22585 0.0380134 2.28989C0.02955 2.36169 0.0227789 2.43155 0.0143155 2.50142C0.0346275 2.66443 0.104029 2.68771 0.212362 2.59068L0.208977 2.59456Z" fill="#EFEEE8"/>
</svg>
