<svg width="1" height="2" viewBox="0 0 1 2" fill="none" xmlns="http://www.w3.org/2000/svg">
<path d="M0.261109 0.00859983C0.18663 0.0454706 0.18663 0.136679 0.235719 0.214302C0.239104 0.288045 0.242489 0.361787 0.245875 0.433588C0.22387 0.447172 0.201865 0.462697 0.181552 0.478222C0.129078 0.520915 0.0799895 0.569429 0.0444427 0.631528C-0.0164948 0.773191 -0.0131096 0.914854 0.0444427 1.05846C0.0512136 1.12444 0.0579845 1.19236 0.0664479 1.26028C0.130771 1.34566 0.210328 1.34566 0.294964 1.30685C0.310198 1.29521 0.322047 1.27968 0.333896 1.26416C0.36775 1.29715 0.403297 1.29715 0.437151 1.26222C0.433765 1.15937 0.426995 1.05458 0.423609 0.951725C0.435458 0.907091 0.455771 0.866339 0.487932 0.833349C0.513323 0.796478 0.531943 0.757666 0.545484 0.713033C0.543792 0.559726 0.499781 0.435529 0.354208 0.392836C0.376213 0.30551 0.398219 0.218183 0.420224 0.130857C0.388062 0.0512929 0.337281 -0.026331 0.262802 0.00859983H0.261109Z" fill="#EFEEE8"/>
</svg>
