<svg width="1" height="2" viewBox="0 0 1 2" fill="none" xmlns="http://www.w3.org/2000/svg">
<path d="M0.203125 1.12452C0.264062 0.98674 0.345312 0.852839 0.314844 0.687889C0.331771 0.687889 0.348698 0.68983 0.365625 0.68983C0.365625 0.798503 0.365625 0.907176 0.365625 1.01391C0.377474 1.04302 0.384245 1.07213 0.389323 1.10317C0.482422 1.07407 0.546745 1.01003 0.563672 0.895532C0.583985 0.771335 0.577213 0.654899 0.490885 0.567573C0.68724 0.453078 0.699088 0.268723 0.616146 0.0513771C0.578906 -0.0029598 0.53151 -0.0146027 0.477344 0.0183871C0.311458 0.099892 0.321615 0.301713 0.260677 0.455019C0.231901 0.385157 0.19974 0.321118 0.103255 0.361871C0.123568 0.62385 0.0575523 0.870305 0 1.1187C0.00338563 1.14975 0.00338531 1.17886 0.00169271 1.20991C0.0863279 1.23125 0.155729 1.21185 0.204818 1.12452H0.203125Z" fill="#E1067E"/>
</svg>
