<svg width="1" height="3" viewBox="0 0 1 3" fill="none" xmlns="http://www.w3.org/2000/svg">
<path d="M0.807651 1.75817C0.809343 1.46708 0.812729 1.17405 0.816114 0.882967C0.750099 0.745185 0.880437 0.539484 0.70101 0.438573C0.699318 0.36289 0.699318 0.287207 0.695932 0.211524C0.695932 0.141663 0.699317 0.0737424 0.699317 0.00582176C0.636687 0.00194034 0.574057 0.00194046 0.511427 0C0.205047 0.227049 0.301531 0.489028 0.462338 0.754888C0.480958 0.770413 0.497885 0.778175 0.514812 0.785938C0.51312 0.816987 0.511427 0.848036 0.509734 0.879086C0.347234 1.0615 0.318458 0.791759 0.216895 0.768472C0.154265 0.830571 0.0780933 0.882967 0.0764007 0.997461V0.999402C0.0662446 0.999402 0.0577807 0.999402 0.0476246 0.999402C-0.00992768 1.22257 -0.0251617 1.4438 0.0577809 1.66308C0.0543957 1.70189 0.0510102 1.73877 0.0459319 1.77564C0.0696301 1.87849 0.0188484 2.01239 0.137338 2.07449C0.139031 2.22003 0.139031 2.36752 0.140724 2.51306C0.257521 2.44126 0.203354 2.30736 0.228744 2.20451C0.223666 2.09389 0.218588 1.98522 0.215203 1.87461C0.189812 1.82609 0.166114 1.82415 0.142416 1.86296C0.142416 1.71548 0.142416 1.56605 0.142416 1.41857C0.144109 1.42051 0.144109 1.42439 0.145802 1.42633C0.140723 1.45738 0.140723 1.48649 0.144109 1.51754C0.374317 1.52724 0.27614 1.25556 0.360776 1.13912C0.347234 1.21093 0.35739 1.27497 0.399708 1.33318C0.411557 1.33706 0.423406 1.33706 0.435255 1.34095C0.458953 1.40693 0.480958 1.47291 0.502963 1.54083C0.53851 1.57964 0.572364 1.62039 0.606218 1.65726C0.636687 1.76399 0.667156 1.86879 0.699317 1.97358C0.733172 1.94059 0.767026 1.90566 0.802573 1.87267V1.76011L0.807651 1.75817Z" fill="#E1067E"/>
</svg>
