<svg width="2" height="5" viewBox="0 0 2 5" fill="none" xmlns="http://www.w3.org/2000/svg">
<path d="M1.20138 3.59591C1.20477 3.57262 1.20815 3.54933 1.20984 3.52605C1.14552 3.30676 1.06935 3.0933 1.09643 2.8546C1.1269 2.8546 1.15737 2.85266 1.18784 2.84878C1.15906 2.77892 1.13029 2.70712 1.10151 2.63726C1.09643 2.34229 1.09305 2.04538 1.08797 1.75041C1.09813 1.71354 1.10828 1.67473 1.11844 1.63786C1.11336 1.56605 1.10997 1.49425 1.1049 1.42245C1.12182 1.25944 1.12013 1.10225 1.00164 0.983877L1.00333 0.972234C0.920392 0.995521 0.905157 1.06538 0.895001 1.13524C0.886537 1.02075 0.856068 0.912076 0.790053 0.809225C0.891616 0.574413 0.835756 0.320196 0.764662 0.0659799C0.746042 0.0446334 0.724037 0.0213466 0.703725 0C0.673256 0.0349308 0.642787 0.0718015 0.614011 0.106732C0.58185 0.238692 0.56323 0.370652 0.561537 0.502612C0.547996 0.483206 0.532762 0.46186 0.515834 0.440513C0.493829 0.436632 0.471824 0.434691 0.449819 0.43081C0.444741 0.36289 0.427813 0.29885 0.370261 0.246454C0.363491 0.556948 0.35672 0.865502 0.351642 1.176C0.311017 1.18376 0.348256 1.29437 0.321173 1.32154C0.321173 1.339 0.321173 1.35647 0.321173 1.37394C0.307631 1.41081 0.307631 1.44768 0.31948 1.48455C0.31948 1.50007 0.31948 1.51754 0.31948 1.53306C0.321173 1.64368 0.322866 1.75623 0.324558 1.86878C0.334715 1.87461 0.343178 1.87849 0.351642 1.88237V2.17346C0.322866 2.16375 0.290704 2.16375 0.255157 2.17734C0.241616 2.09195 0.222996 2.00851 0.187449 1.92894C0.172215 1.91148 0.155287 1.89401 0.140053 1.87655C-0.0478377 2.01433 0.077423 2.23361 0.0334124 2.40827C-0.0376816 2.57904 0.0283341 2.70906 0.119741 2.83132C0.097735 2.82938 0.0740373 2.83132 0.0520322 2.83908C-0.0156761 2.91476 -0.0122908 3.00015 0.0334124 3.08747C0.0300268 3.1224 0.0266417 3.15733 0.0215634 3.19032C0.00294354 3.24466 0.00971481 3.29318 0.0418759 3.33781C0.128204 3.39797 0.21961 3.39797 0.312709 3.36304C0.40073 3.31452 0.454897 3.23302 0.476902 3.12434C0.478595 3.07583 0.468438 3.02731 0.448126 2.98268C0.443048 2.97686 0.436277 2.97104 0.432892 2.96716C0.58185 2.76728 0.51922 2.53635 0.509063 2.31318C0.492137 2.29377 0.476902 2.27437 0.459975 2.2569V1.85326C0.490443 1.80863 0.509063 1.75817 0.51922 1.70189C0.525991 1.62621 0.520912 1.55441 0.507371 1.48455C0.527683 1.44768 0.542917 1.41081 0.553074 1.37005C0.575079 1.50201 0.622475 1.63591 0.554767 1.77176C0.554767 1.79892 0.556459 1.82803 0.56323 1.8552C0.64448 1.94447 0.718959 1.93088 0.790053 1.83774C0.803595 1.77564 0.817136 1.71548 0.832371 1.65532C0.840834 1.69219 0.854376 1.72906 0.88823 1.74265C0.886537 1.74459 0.884845 1.74653 0.881459 1.74847C0.820522 1.85714 0.820522 1.96775 0.884845 2.07643C0.900079 2.15793 0.923777 2.24138 0.852683 2.30542C0.876381 2.42379 0.867917 2.53441 0.808673 2.63726C0.818829 2.69936 0.850991 2.74205 0.896694 2.77116C0.86284 2.91088 0.857761 3.04866 0.900079 3.18838C0.896693 3.26407 0.891616 3.34169 0.886537 3.41737C0.893308 3.89088 0.900079 4.36438 0.90685 4.83788C0.935626 4.84176 0.966095 4.85147 0.991485 4.86699C1.05919 4.82042 1.12521 4.77384 1.19122 4.72921C1.20646 4.70398 1.21662 4.67681 1.22508 4.65159C1.22846 4.66905 1.23354 4.68458 1.24031 4.70204C1.29448 4.80877 1.38419 4.83206 1.48237 4.83012C1.545 4.79519 1.60763 4.76026 1.67195 4.72533C1.67195 4.39737 1.67195 4.06941 1.67195 3.74145C1.55008 3.63472 1.46037 3.69294 1.37912 3.78608C1.3825 3.68323 1.43836 3.56098 1.28602 3.52022C1.32326 3.67741 1.27417 3.85206 1.28263 4.01313C1.26909 4.08105 1.26232 4.15285 1.25386 4.22272C1.25216 4.23048 1.25216 4.2363 1.24878 4.24406C1.23693 4.21107 1.22 4.18002 1.1963 4.1548C1.19122 4.15091 1.18615 4.14703 1.18107 4.14315C1.18276 3.9782 1.18445 3.81325 1.18615 3.6483C1.19123 3.63278 1.198 3.61725 1.20307 3.59979L1.20138 3.59591Z" fill="#E1067E"/>
</svg>
