<svg width="1" height="3" viewBox="0 0 1 3" fill="none" xmlns="http://www.w3.org/2000/svg">
<path d="M0.785417 0.665621C0.790495 0.638453 0.790495 0.611284 0.788802 0.584117C0.685547 0.489028 0.726172 0.36289 0.727865 0.244514C0.683854 0.168831 0.743099 0.050455 0.646615 0C0.629688 0.0446336 0.614453 0.0892668 0.595833 0.1339C0.604297 0.29885 0.611068 0.46186 0.619531 0.624869C0.60599 0.603523 0.594141 0.580235 0.578906 0.558889C0.580599 0.685027 0.582292 0.813105 0.583984 0.941184C0.573828 0.898492 0.551823 0.857739 0.519661 0.816987C0.511198 0.7937 0.504427 0.772353 0.494271 0.749066C0.465495 0.698611 0.429948 0.655918 0.385937 0.622928C0.282682 0.574414 0.186198 0.578295 0.101562 0.673383C0.0186199 0.714136 0.010156 0.801462 0 0.888789C0.0998699 1.21675 0.0507809 1.54665 0.0186198 1.87849C0.125261 1.81639 0.204818 1.81057 0.196354 1.9891C0.199739 1.99104 0.201432 1.99298 0.203125 1.99492C0.204818 2.03373 0.206511 2.07061 0.208203 2.10942C0.218359 2.14241 0.22513 2.1754 0.228516 2.21033C0.252213 2.2569 0.279297 2.26078 0.311458 2.21809C0.30638 2.16181 0.309765 2.10165 0.314844 2.04344C0.345312 2.0415 0.377474 2.02985 0.409635 2.01239C0.53151 1.76787 0.607682 1.52142 0.607682 1.2672C0.699088 1.07897 0.726172 0.890729 0.656771 0.706373C0.700781 0.741304 0.743099 0.72772 0.785417 0.665621Z" fill="#E1067E"/>
</svg>
