<svg width="1" height="2" viewBox="0 0 1 2" fill="none" xmlns="http://www.w3.org/2000/svg">
<path d="M0.208203 1.02936C0.391016 0.843063 0.247136 0.588847 0.311458 0.377323C0.323307 0.342392 0.333464 0.307462 0.340234 0.27059C0.348698 0.305521 0.360547 0.340452 0.380859 0.377323L0.401172 1.01772C0.602604 0.796489 0.426563 0.507342 0.507812 0.262828C0.479037 0.189085 0.509505 0.0765315 0.399479 0.0590663C0.370703 0.0901157 0.353776 0.123106 0.34362 0.156096C0.335156 0.0998188 0.30638 0.0474231 0.242057 0.00472991C0.189583 -0.00885382 0.14388 0.0066705 0.106641 0.0532446C0.106641 0.125046 0.106641 0.198789 0.106641 0.27059C0.0710939 0.307462 0.0355468 0.344332 0 0.381204C0.00507823 0.557797 0.00846343 0.736331 0.0135417 0.912924C0.206511 0.73439 0.0609376 0.485995 0.110026 0.278353C0.323308 0.495698 0.123567 0.786786 0.208203 1.02936Z" fill="#E1067E"/>
</svg>
