<svg width="1" height="2" viewBox="0 0 1 2" fill="none" xmlns="http://www.w3.org/2000/svg">
<path d="M0.104286 1.75429C0.141526 1.68637 0.178766 1.61651 0.216005 1.54859C0.207542 1.46708 0.197385 1.38364 0.188922 1.30213C0.190615 1.2672 0.199078 1.23615 0.214312 1.20704C0.209234 1.12166 0.205849 1.03627 0.202463 0.952828C0.214313 0.99164 0.227854 1.02851 0.248167 1.06538C0.285406 1.1236 0.332802 1.1333 0.385276 1.09255C0.390354 1.02463 0.395433 0.956709 0.40051 0.886848C0.40051 0.591879 0.40051 0.29691 0.40051 0C0.0670469 0.0776235 0.214313 0.391998 0.168609 0.609344C0.168609 0.62875 0.168609 0.648156 0.168609 0.667562C0.151682 0.671443 0.133063 0.673383 0.116135 0.675324L0.0924374 0.869383C0.0687397 0.877145 0.0450418 0.882967 0.0213437 0.886848C0.05012 1.176 -0.0886825 1.48649 0.105979 1.75623L0.104286 1.75429Z" fill="#E1067E"/>
</svg>
