<svg width="1" height="2" viewBox="0 0 1 2" fill="none" xmlns="http://www.w3.org/2000/svg">
<path d="M0.324054 0.00964775C0.320668 0.0756274 0.31559 0.139667 0.312205 0.205647C0.254653 0.172657 0.193715 0.139667 0.136163 0.106677C0.026137 0.228934 -0.0314151 0.368656 0.0176733 0.54719C0.0396784 0.638398 0.0701472 0.727664 0.142934 0.783942C0.159861 0.791704 0.176788 0.795585 0.193715 0.801407C0.168324 0.859625 0.173403 0.917842 0.21572 0.972179C0.219105 1.03428 0.220799 1.09832 0.224184 1.16042C0.212335 1.174 0.198793 1.18952 0.186944 1.20699C0.17171 1.24774 0.164939 1.29238 0.164939 1.33895C0.178481 1.43016 0.217413 1.50778 0.256345 1.58734C0.300355 1.68631 0.339288 1.78723 0.41546 1.86097C0.444236 1.86097 0.473012 1.85515 0.500095 1.84738C0.506866 1.81827 0.513637 1.78722 0.5221 1.76006C0.5221 1.71736 0.523793 1.67273 0.525486 1.63004C0.561033 1.44956 0.615199 1.26909 0.525486 1.08861L0.484861 1.09444C0.491632 0.985763 0.498403 0.87709 0.503481 0.768417C0.506866 0.692734 0.511944 0.618991 0.51533 0.543309C0.511944 0.430755 0.508559 0.318201 0.505173 0.205647C0.5221 0.0465191 0.471319 -0.0311043 0.324054 0.0115883V0.00964775Z" fill="#E1067E"/>
</svg>
