<svg width="1" height="3" viewBox="0 0 1 3" fill="none" xmlns="http://www.w3.org/2000/svg">
<path d="M0.22513 2.08419C0.247135 2.03762 0.255599 1.98716 0.253906 1.93476C0.235286 1.80475 0.230208 1.67279 0.230208 1.54083C0.218359 1.47873 0.220052 1.40693 0.214974 1.339C0.507812 1.18958 0.421485 0.906254 0.416406 0.652037C0.44349 0.655918 0.46888 0.657859 0.495964 0.657859C0.589062 0.535602 0.617839 0.393939 0.600911 0.234811C0.58737 0.141663 0.556901 0.0601583 0.490885 0C0.455339 0 0.421484 0 0.38763 0C0.38763 0.153306 0.385938 0.308553 0.385938 0.461859C0.365625 0.411404 0.336849 0.366771 0.294531 0.33184C0.265755 0.327959 0.235286 0.324078 0.20651 0.327959C0.204818 0.545305 0.201432 0.764591 0.198047 0.983877C0.170964 1.04209 0.157422 1.09837 0.155729 1.15465C0.126953 1.11972 0.0812503 1.09449 0.011849 1.08673C0.00846376 1.3817 0.0050778 1.67667 0 1.97164C0.0355468 2.11136 0.0626303 2.27631 0.226823 2.08613L0.22513 2.08419Z" fill="#E1067E"/>
</svg>
