<svg width="1" height="2" viewBox="0 0 1 2" fill="none" xmlns="http://www.w3.org/2000/svg">
<path d="M0.277292 0.409464C0.241745 0.380355 0.214662 0.378415 0.190964 0.39782C0.187578 0.347365 0.185886 0.29691 0.184193 0.248395C0.170651 0.184356 0.146953 0.126138 0.111407 0.0756829C0.101251 0.0523958 0.0961724 0.0252275 0.097865 0C-0.0849475 0.576354 0.0453911 1.16435 0.0403129 1.74847L0.086016 1.74265C0.21974 1.62427 0.234974 1.45738 0.229896 1.29437C0.245131 1.31378 0.262058 1.33318 0.28237 1.35259C0.361928 1.21093 0.338229 1.06538 0.302683 0.917897C0.294219 0.749066 0.287448 0.578294 0.278985 0.409464H0.277292Z" fill="#EFEEE8"/>
</svg>
