<svg width="1" height="2" viewBox="0 0 1 2" fill="none" xmlns="http://www.w3.org/2000/svg">
<path d="M0.0321615 0.633548C0.023698 0.80626 0.0152343 0.978972 0.00677083 1.15168C0.00677083 1.25842 0.00677072 1.36709 0.00507812 1.47382C0.0135416 1.50681 0.023698 1.53786 0.0321615 1.56891C0.0541666 1.56503 0.0778647 1.56115 0.0998698 1.55533C0.108333 1.49517 0.11849 1.43501 0.126953 1.37485C0.265755 1.17497 0.192969 0.949863 0.187891 0.730577C0.191276 0.709231 0.191276 0.685944 0.187891 0.662657C0.203125 0.654894 0.216667 0.645191 0.231901 0.631607C0.286068 0.520993 0.292839 0.414262 0.216667 0.313351C0.214974 0.280361 0.20651 0.24543 0.198047 0.214381C0.231901 0.041669 0.165885 -0.0184893 0.0220052 0.0047977L0.0304687 0.517113C0.0203123 0.557865 0.0101565 0.600558 0 0.64131L0.0321615 0.635488V0.633548Z" fill="#EFEEE8"/>
</svg>
