<svg width="1" height="4" viewBox="0 0 1 4" fill="none" xmlns="http://www.w3.org/2000/svg">
<path d="M0.00908224 3.19809C0.00569661 3.34363 0.00400401 3.48529 0.00231141 3.63084C0.100488 3.7201 0.127572 3.60949 0.174968 3.55127C0.240983 3.47171 0.308692 3.3902 0.3764 3.3087C0.361166 2.83326 0.447493 2.34811 0.286686 1.88431C0.288379 1.73488 0.290072 1.5874 0.291765 1.43797C0.315462 0.966412 0.210515 0.487087 0.369629 0.0252276C0.306999 0.0174648 0.244369 0.00776235 0.181739 0C0.0378584 0.163009 0.117416 0.374533 0.0903322 0.56277C0.0175457 0.968353 -0.0518552 1.37393 0.0784833 1.78146L0.102181 1.76981C-0.0264651 2.13076 0.117416 2.49948 0.0835614 2.86625C-0.00615202 2.95745 -0.00953766 3.07583 0.00908224 3.20003V3.19809Z" fill="#E1067E"/>
</svg>
