<svg width="2" height="2" viewBox="0 0 2 2" fill="none" xmlns="http://www.w3.org/2000/svg">
<path d="M0.980078 0.00194059C0.717708 0.205703 0.453646 0.407523 0.191276 0.611285C0.191276 0.603522 0.189583 0.5977 0.187891 0.587998C0.111719 0.603522 0.0575523 0.613225 0 0.622928C0.0490889 0.801462 0.0897138 0.96059 0.133724 1.12166C0.22513 1.02851 0.233594 1.02075 0.198047 0.686968C0.401172 0.838333 0.411328 0.82669 0.426563 0.605463C0.360547 0.620988 0.299609 0.636512 0.196354 0.659799C0.196354 0.652037 0.194661 0.644275 0.192969 0.634572C0.264063 0.605463 0.333464 0.574414 0.401172 0.539483C0.541666 0.551127 0.578906 0.541424 0.736328 0.335721C0.841276 0.260038 0.941146 0.174653 1.03424 0.0756829C1.01562 0.0504554 0.997005 0.0252275 0.978385 0L0.980078 0.00194059Z" fill="#392726"/>
</svg>
