<svg width="18" height="25" viewBox="0 0 18 25" fill="none" xmlns="http://www.w3.org/2000/svg">
<path d="M4.32826 12.4721C4.32826 13.4133 4.44674 14.2788 4.68711 15.0725C4.92578 15.8682 5.24909 16.5571 5.65703 17.1412C6.06497 17.7273 6.54062 18.1814 7.08229 18.5054C7.62396 18.8295 8.19779 18.9906 8.80378 18.9906C9.40807 18.9906 9.9819 18.8295 10.5236 18.5054C11.0652 18.1814 11.5443 17.7273 11.959 17.1412C12.3737 16.5571 12.7004 15.8682 12.9408 15.0725C13.1794 14.2788 13.2996 13.4133 13.2996 12.4721C13.2996 11.5329 13.1794 10.6655 12.9408 9.87176C12.7004 9.07806 12.3737 8.38722 11.959 7.8031C11.5443 7.21898 11.0652 6.76294 10.5236 6.44081C9.9819 6.11673 9.40807 5.95372 8.80378 5.95372C8.19779 5.95372 7.62396 6.11673 7.08229 6.44081C6.54062 6.76294 6.06497 7.21898 5.65703 7.8031C5.24909 8.38722 4.92578 9.07806 4.68711 9.87176C4.44674 10.6655 4.32826 11.5329 4.32826 12.4721ZM0 12.4721C0 10.7179 0.21836 9.08195 0.655078 7.56829C1.0918 6.05269 1.69609 4.73115 2.46966 3.60367C3.24492 2.47619 4.16914 1.59322 5.2457 0.956709C6.32227 0.318256 7.50885 0 8.80378 0C10.0835 0 11.265 0.318256 12.3483 0.956709C13.4333 1.59322 14.3643 2.47619 15.1464 3.60367C15.9267 4.73115 16.5361 6.05269 16.9711 7.56829C17.4078 9.08195 17.6262 10.7179 17.6262 12.4721C17.6262 14.2264 17.4078 15.8624 16.9711 17.376C16.5361 18.8916 15.9267 20.2132 15.1464 21.3406C14.3643 22.4681 13.4333 23.3511 12.3483 23.9895C11.265 24.626 10.0835 24.9443 8.80378 24.9443C7.50885 24.9443 6.32227 24.626 5.2457 23.9895C4.16914 23.3511 3.24492 22.4681 2.46966 21.3406C1.69609 20.2132 1.0918 18.8916 0.655078 17.376C0.21836 15.8624 0 14.2264 0 12.4721Z" fill="#703B3B"/>
</svg>
