<svg width="1" height="1" viewBox="0 0 1 1" fill="none" xmlns="http://www.w3.org/2000/svg">
<path d="M0.201265 0.390127C0.235119 0.440582 0.307906 0.397889 0.355302 0.310563C0.401005 0.227117 0.421317 0.10292 0.290979 0.108742C0.243583 0.116504 0.208036 0.130088 0.182645 0.147553C0.175875 0.0369402 0.133557 -0.00187204 0.104781 6.89181e-05C0.0726192 6.89181e-05 0.0539996 0.0369403 0.0150672 0.0563459C-0.0170943 0.079633 0.00491077 0.141732 0.0556922 0.184425C0.0743121 0.20189 0.0980096 0.215474 0.120015 0.219355C0.11663 0.230998 0.114937 0.242642 0.114937 0.252345C0.118322 0.306682 0.170797 0.331909 0.199572 0.390127H0.201265Z" fill="#616739"/>
</svg>
