<svg width="1" height="4" viewBox="0 0 1 4" fill="none" xmlns="http://www.w3.org/2000/svg">
<path d="M0.0182128 0.906201C0.0283693 0.912023 0.0385251 0.913963 0.0486815 0.915904C0.0419107 1.01876 0.0385253 1.12161 0.0317545 1.22446C0.0605304 1.25163 0.0909994 1.25939 0.126546 1.25357C0.148552 1.23998 0.167171 1.21475 0.187484 1.19535C0.114697 1.34865 0.0994627 1.5136 0.111312 1.68826C0.118083 1.77558 0.136702 1.85903 0.175635 1.93471C0.182405 1.94053 0.189177 1.9483 0.195947 1.95606C0.192562 1.96382 0.189177 1.97158 0.185791 1.97935C0.163786 2.04533 0.158707 2.11325 0.163786 2.18311C0.168864 2.22774 0.17902 2.27237 0.189176 2.31701C0.22303 2.44703 0.214567 2.58287 0.224723 2.71677C0.189176 2.71289 0.153629 2.72453 0.11639 2.74588C0.0249834 2.87202 0.0317544 3.01368 0.0706868 3.15922C0.0960775 3.21162 0.133317 3.24849 0.185791 3.26207C0.300895 3.27566 0.375374 3.21356 0.42277 3.09712C0.415999 3.05443 0.409228 3.01368 0.402458 2.97099C0.410921 2.72065 0.419385 2.47225 0.429541 2.22386C0.387223 2.07443 0.492171 1.88232 0.329671 1.76976C0.326286 1.55436 0.324593 1.33701 0.3229 1.11967C0.3229 1.08668 0.324593 1.05369 0.324593 1.0207C0.402457 1.0304 0.454932 1.00517 0.431234 0.886795C0.458317 0.851865 0.487093 0.818875 0.514176 0.785885C0.40415 0.584064 0.426155 0.355075 0.412614 0.131907C0.267041 -0.110666 0.180713 0.0212938 0.151937 0.20759C0.145166 0.256105 0.138395 0.302678 0.133317 0.351193C0.123161 0.27551 0.0960774 0.203709 0.0419107 0.137729C0.0385251 0.351194 0.0334469 0.568539 0.0283691 0.782004C0.00636352 0.809172 -0.00379252 0.83634 0.00128572 0.865449C0.00636352 0.894558 0.0131351 0.908142 0.0199055 0.908142L0.0182128 0.906201Z" fill="#E1067E"/>
</svg>
