<svg width="2" height="2" viewBox="0 0 2 2" fill="none" xmlns="http://www.w3.org/2000/svg">
<path d="M1.00039 0.234811C1.0901 0.19794 1.17474 0.155247 1.18659 0C1.03255 0.0194056 0.897136 0.0349303 0.736328 0.0543364C0.790495 0.110613 0.820963 0.141663 0.851432 0.172712C0.819271 0.223168 0.790495 0.26586 0.748177 0.33184C0.729557 0.273622 0.717708 0.236752 0.704167 0.19794C0.465495 0.498731 0.233594 0.7937 0 1.08673C0.00507823 1.09255 0.00846332 1.10031 0.011849 1.10613C0.0880207 1.04986 0.164193 0.995521 0.236979 0.941184C0.260677 1.08091 0.350391 1.04792 0.440104 1.04792C0.435026 0.952828 0.4875 0.917898 0.541667 0.865502C0.556901 0.851917 0.56875 0.830571 0.580599 0.809225C0.636458 0.787878 0.680469 0.747126 0.721094 0.688908C0.770182 0.66368 0.797266 0.603522 0.797266 0.56083C0.800651 0.556948 0.804037 0.553067 0.805729 0.547245C0.802344 0.547245 0.798958 0.549186 0.795573 0.551127C0.795573 0.547245 0.795573 0.541423 0.79388 0.537542C0.748177 0.514255 0.714323 0.494849 0.663542 0.467681C0.765104 0.337662 0.881901 0.285266 1.00039 0.234811Z" fill="#392726"/>
</svg>
