<svg width="1" height="6" viewBox="0 0 1 6" fill="none" xmlns="http://www.w3.org/2000/svg">
<path d="M0.689659 5.05329C0.676118 5.07657 0.665961 5.09986 0.655805 5.12315C0.638878 5.0203 0.623644 4.91939 0.682889 4.83012L0.67104 4.81848C0.737055 4.76608 0.742134 4.69234 0.725206 4.61277C0.701509 4.55068 0.665961 4.5041 0.616873 4.46917C0.698123 4.38767 0.667654 4.25959 0.691352 4.1548C0.735362 4.08493 0.730284 4.01119 0.703201 3.93745C0.693045 3.92969 0.682889 3.92387 0.67104 3.92193C0.67104 3.70846 0.674425 3.49694 0.674425 3.28541C0.61518 3.24854 0.562706 3.2272 0.527159 3.2466C0.525467 3.2272 0.523774 3.20779 0.522081 3.19032C0.596561 3.19032 0.635493 3.1224 0.669347 3.04672C0.689659 2.94775 0.703201 2.84878 0.711665 2.75175C0.713357 2.75563 0.713357 2.75757 0.716743 2.75951C0.73367 2.7634 0.747212 2.7634 0.762446 2.75951C0.760753 2.85848 0.757368 2.95551 0.753982 3.05448C0.767524 3.12434 0.781066 3.19421 0.794607 3.26213C0.784451 3.26989 0.774295 3.27765 0.762446 3.28541C0.769217 3.50276 0.77768 3.71816 0.784451 3.93551L0.828462 3.94521H0.874165C0.87755 3.72399 0.882628 3.5047 0.889399 3.28347L0.855545 3.28929L0.884321 3.16898C0.880936 3.00985 0.875858 2.85266 0.870779 2.69353C0.880936 2.68189 0.889399 2.67025 0.897863 2.65666C0.93341 2.57516 0.928331 2.49753 0.886014 2.42185C0.884321 2.37722 0.880935 2.33259 0.879243 2.28795C0.874165 2.21615 0.867394 2.14823 0.860623 2.07643C0.819998 1.9697 1.04682 1.7737 0.77768 1.74265L0.781066 1.74653C0.765831 1.79698 0.716743 1.84744 0.691352 1.89983C0.691352 1.89595 0.691352 1.89207 0.689659 1.88819C0.642264 1.80863 0.654113 1.6689 0.559321 1.6398C0.559321 1.59904 0.555936 1.56023 0.549165 1.51948C0.518696 1.40692 0.491612 1.29049 0.403592 1.21481C0.406977 1.21093 0.412055 1.21093 0.417133 1.20899C0.523774 1.09061 0.574555 0.948947 0.540701 0.776235C0.500076 0.669502 0.430675 0.609344 0.330805 0.589938C0.32742 0.589938 0.324035 0.589938 0.320649 0.589938C0.320649 0.584116 0.320649 0.578295 0.318956 0.574414C0.310493 0.549186 0.303722 0.537542 0.293566 0.537542C0.142915 0.386177 0.217394 0.182415 0.200467 0C0.0193469 0.225108 0.129373 0.49485 0.110753 0.747126C0.110753 0.782056 0.105675 0.818927 0.100597 0.855799C0.110753 0.976115 0.0870555 1.11002 0.198774 1.18958C0.269868 1.12554 0.239399 1.03045 0.252941 0.948947C0.252941 1.03821 0.24617 1.12748 0.286795 1.21093C0.291873 1.21287 0.296951 1.21481 0.300337 1.21481C0.215701 1.34483 0.247862 1.48067 0.285102 1.61845C0.295259 1.74653 0.318956 1.87849 0.202159 1.96387C0.169998 1.92894 0.139529 1.89207 0.105675 1.8552C-0.0872939 2.08225 0.0481231 2.35781 0.0227324 2.61009C0.0836699 2.54411 0.144607 2.47619 0.205545 2.41021C0.234321 2.40439 0.26479 2.40245 0.296951 2.40439C0.298644 2.76728 0.300336 3.13017 0.303722 3.495L0.291873 3.51246C0.352811 3.57844 0.317264 3.70264 0.406977 3.74921C0.549165 3.73563 0.561014 3.61919 0.566092 3.49694C0.61518 3.62502 0.555936 3.78026 0.584712 3.91416C0.581326 3.91416 0.577941 3.91416 0.574555 3.9161C0.476378 3.98596 0.395128 4.07329 0.340962 4.19167C0.303722 4.29646 0.340961 4.39349 0.364659 4.49246L0.381587 4.4944C0.356196 4.53321 0.340961 4.57396 0.332498 4.6186C0.1463 4.71174 0.307107 4.90192 0.291873 5.04358C0.324035 5.17943 0.232628 5.3502 0.381587 5.45499C0.381587 5.45305 0.381587 5.45111 0.381587 5.44917C0.398514 5.53261 0.432368 5.61218 0.494998 5.68592C0.601639 5.66651 0.567785 5.55202 0.598253 5.48022C0.621951 5.45693 0.638878 5.4317 0.650727 5.40647C0.659191 5.43364 0.669347 5.45887 0.681196 5.48604C0.840311 5.34438 1.04174 5.20465 0.687967 5.05329H0.689659Z" fill="#E1067E"/>
</svg>
