<svg width="1" height="3" viewBox="0 0 1 3" fill="none" xmlns="http://www.w3.org/2000/svg">
<path d="M0.196354 1.89789C0.226823 1.89789 0.255599 1.9076 0.28099 1.92506C0.321615 2.09001 0.225131 2.29377 0.385937 2.42573C0.385937 2.2472 0.385937 2.06867 0.384245 1.88819L0.382552 1.13136C0.389323 1.09061 0.396094 1.04986 0.402865 1.00716C0.570443 0.617107 0.607682 0.258098 0.220052 0C0.045703 0.273623 0.245443 0.611285 0.101562 0.888789L0.104948 0.904313C0.0998697 1.01105 0.0947918 1.11778 0.0897135 1.22451C-0.00338553 1.34289 0.120182 1.44962 0.103255 1.56411L0.08125 1.55829C-0.00169303 1.65144 0.00846343 1.77564 0 1.89207C0.0338537 1.92894 0.069401 1.96387 0.103255 2.00074C0.133724 1.96581 0.165885 1.93088 0.198047 1.89595L0.196354 1.89789Z" fill="#E1067E"/>
</svg>
