<svg width="2" height="8" viewBox="0 0 2 8" fill="none" xmlns="http://www.w3.org/2000/svg">
<path d="M0.895547 4.60889C0.917552 4.51574 0.94125 4.42066 0.963256 4.32751C0.985261 4.5041 0.954792 4.69622 1.0462 4.85147C1.04281 4.86699 1.03943 4.88251 1.03435 4.89998C1.02589 4.9776 1.03266 5.05523 1.06313 5.12703C1.24086 5.34049 1.36104 5.19301 1.48122 5.0397C1.51 5.0397 1.53878 5.04164 1.56755 5.04358C1.56586 4.93297 1.56417 4.82236 1.56247 4.71174C1.58279 4.48469 1.60648 4.25765 1.48292 4.05388L1.47953 4.06359C1.31703 3.93551 1.25271 4.03448 1.19685 4.1548C1.18669 4.01119 1.20701 3.87729 1.28995 3.75892C1.32211 3.76862 1.35258 3.76668 1.38643 3.75115C1.5574 3.58038 1.60648 3.35139 1.57094 3.1127C1.53708 2.88371 1.62003 2.70324 1.68773 2.50918C1.73175 2.44126 1.75375 2.36363 1.74867 2.27825C1.74021 2.22197 1.72159 2.17152 1.69112 2.12688C1.75714 1.99298 1.76221 1.83579 1.79438 1.69025C1.79268 1.47096 1.7876 1.24586 1.7182 1.04404C1.6488 0.838333 1.52523 0.731601 1.39828 1.01493C1.39659 1.02075 1.3949 1.02657 1.3932 1.03433C1.38813 0.979996 1.38305 0.92566 1.37966 0.871323C1.36612 0.69667 1.4643 0.461859 1.19685 0.419167C1.16807 0.423048 1.1393 0.423048 1.10883 0.419167C1.07497 0.388117 1.04112 0.355127 1.00727 0.324078C1.0005 0.355127 0.993725 0.386177 0.985261 0.417226C0.905704 0.564711 0.888776 0.706373 1.00388 0.836393C0.99711 0.840274 0.990339 0.842215 0.983568 0.846096C0.93448 0.908194 0.912474 0.983877 0.898933 1.06344C0.876927 1.17406 0.893855 1.29049 0.875235 1.40304C0.854922 1.35841 0.829532 1.32154 0.792292 1.30407C0.792292 1.26332 0.790599 1.22257 0.785521 1.18182C0.766901 1.10031 0.756745 1.01687 0.751667 0.933422C0.763516 0.954768 0.782136 0.974174 0.809219 0.989699C0.814297 0.797581 0.817683 0.607404 0.822761 0.417226C0.795677 0.275563 0.854922 0.108673 0.724584 0C0.719505 0.0912072 0.71612 0.184356 0.712735 0.275563C0.692422 0.211524 0.661954 0.153306 0.604401 0.104792C0.575625 0.174653 0.546849 0.244514 0.518073 0.314375C0.518073 0.380355 0.518073 0.444394 0.518073 0.510374C0.49776 0.444394 0.463907 0.378414 0.421589 0.312434C0.392813 0.308553 0.364037 0.310494 0.335261 0.316316C0.338646 0.537543 0.342032 0.756828 0.345417 0.978055C0.299714 1.08479 0.25401 1.19346 0.208308 1.30019C0.389427 1.48649 0.326797 1.731 0.331875 1.95999C0.430052 1.98522 0.474063 1.91148 0.50961 1.82609C0.50961 1.82609 0.50961 1.82609 0.50961 1.82415C0.50961 1.83385 0.50961 1.84356 0.50961 1.85326C0.518073 1.99686 0.524844 2.14047 0.531615 2.28407C0.531615 2.31318 0.531615 2.34229 0.531615 2.3714C0.524844 2.37528 0.518074 2.37722 0.511302 2.3811C0.507917 2.38692 0.506224 2.39274 0.504532 2.39856C0.452057 2.36946 0.397891 2.35393 0.333568 2.38886C0.160912 2.49171 0.350495 2.71682 0.221849 2.8352C0.277708 3.05836 0.0711984 3.29512 0.243854 3.5144C0.235391 3.62113 0.226927 3.72981 0.216771 3.83654C0.221849 3.90834 0.22862 3.98208 0.235391 4.05194C0.17276 4.02672 0.111823 4.00343 0.049193 4.05777L0.0305732 4.27899C-0.0134375 4.35273 -0.0117447 4.41872 0.0475002 4.48081C0.116901 4.50798 0.204922 4.4944 0.238776 4.59725C0.482526 4.6477 0.308177 4.35468 0.424974 4.30034C0.399583 4.246 0.380964 4.1839 0.350495 4.13151C0.347109 4.12763 0.342032 4.12375 0.336953 4.11792C0.364037 4.06747 0.387734 4.01701 0.404662 3.96656C0.411433 3.99179 0.419896 4.01895 0.430052 4.04418C0.492683 3.97044 0.55362 3.89864 0.61625 3.8249C0.650104 3.83072 0.685651 3.83848 0.719505 3.8443C0.751667 3.86371 0.780443 3.86371 0.809219 3.85012C0.802449 3.92581 0.795677 4.00149 0.788907 4.07717C0.763516 4.10046 0.739818 4.12375 0.71612 4.14509C0.712734 4.28676 0.711042 4.42842 0.707657 4.57202L0.722891 4.60889C0.722891 4.60889 0.717813 4.60889 0.714427 4.60889L0.707657 4.57202C0.489297 4.66711 0.455443 4.81265 0.614558 5.01447C0.580703 5.06105 0.545157 5.10956 0.50961 5.15614C0.512995 5.22212 0.518073 5.28616 0.521459 5.35214C0.502839 5.28422 0.474063 5.2163 0.433438 5.15032L0.40974 5.1736C0.423282 5.0397 0.399584 4.94073 0.257396 4.94655C0.152448 5.11733 0.196459 5.25705 0.320026 5.38125C0.318334 5.52097 0.316641 5.66263 0.314948 5.80235C0.174453 5.87804 0.35388 5.95178 0.314948 6.02552C0.230313 6.17883 0.221849 6.33019 0.314948 6.48156C0.321719 6.73189 0.326797 6.98417 0.333568 7.23451C0.396199 7.19957 0.457135 7.16464 0.519766 7.12971C0.584089 7.16658 0.650104 7.2054 0.71612 7.24227C0.861693 6.97835 0.873542 6.70667 0.839688 6.4311C0.990339 6.28944 0.856615 6.08568 0.905703 5.92073C0.875234 5.92073 0.84138 5.92073 0.810912 5.92073C0.810912 6.03328 0.812604 6.14584 0.812604 6.25645C0.804141 6.20017 0.792292 6.1439 0.782136 6.08568C0.751667 6.02746 0.707657 5.99059 0.648412 5.97701C0.687344 5.8858 0.717813 5.79265 0.721198 5.69562C0.82276 5.75772 0.905704 5.77907 0.91586 5.59665C1.00727 5.44917 1.00896 5.29974 0.922631 5.15032L0.89724 4.60695L0.895547 4.60889Z" fill="#E1067E"/>
</svg>
