<svg width="1" height="2" viewBox="0 0 1 2" fill="none" xmlns="http://www.w3.org/2000/svg">
<path d="M0.21392 0.00436639C0.163138 -0.00727738 0.115743 0.00436664 0.073425 0.0392969C-0.0518356 0.204247 0.0226438 0.396364 0.0158729 0.576839C0.0158729 0.784482 0.0158729 0.992125 0.0158729 1.20171C-0.0213664 1.37054 0.0615761 1.45787 0.17668 1.52773C0.207149 1.51802 0.235925 1.50832 0.266394 1.49862C0.242696 1.33755 0.354415 1.14349 0.178373 1.01541L0.190222 0.982422C0.147904 0.930026 0.152982 0.864046 0.15806 0.796126C0.166524 0.819413 0.174988 0.8427 0.188529 0.865987C0.362878 0.728205 0.242696 0.534147 0.261316 0.365315L0.291784 0.371137C0.327331 0.231415 0.361185 0.0916925 0.212227 0.0024258L0.21392 0.00436639Z" fill="#EFEEE8"/>
</svg>
