<svg width="1" height="1" viewBox="0 0 1 1" fill="none" xmlns="http://www.w3.org/2000/svg">
<path d="M0.120182 0.324078C0.116797 0.308553 0.111719 0.293029 0.108333 0.277504C0.0727866 0.277504 0.0372394 0.277504 0 0.277504C0.00677083 0.492909 0.0152343 0.710255 0.0203125 0.92566C0.0490884 0.933422 0.076172 0.935363 0.104948 0.933422C0.11849 0.89461 0.130339 0.853858 0.138802 0.815046C0.152344 0.857739 0.170964 0.900432 0.198047 0.941184C0.26237 0.902373 0.326693 0.863561 0.392708 0.822809C0.465495 0.721898 0.511198 0.584117 0.644922 0.556948C0.695703 0.434692 0.699088 0.306613 0.66862 0.180475C0.634765 0.0756826 0.578906 0.00388092 0.473958 0C0.401172 0.09897 0.289453 0.00194033 0.209896 0.0679205C0.204818 0.0989699 0.201432 0.128079 0.196354 0.157188C0.160807 0.205702 0.135417 0.258098 0.120182 0.318256C0.120182 0.320197 0.120182 0.322137 0.120182 0.324078Z" fill="#E1067E"/>
</svg>
