<svg width="1" height="2" viewBox="0 0 1 2" fill="none" xmlns="http://www.w3.org/2000/svg">
<path d="M0.0438479 0.667008C0.0590822 0.680592 0.0743168 0.692236 0.089551 0.699998C0.0878584 0.725226 0.0878586 0.748512 0.0912438 0.771799C0.0844729 1.00273 0.00830092 1.24142 0.155567 1.45295C0.16403 1.51698 0.174186 1.58102 0.18265 1.64312C0.206348 1.647 0.230046 1.65283 0.255436 1.65671C0.265593 1.62372 0.274056 1.59073 0.28252 1.5558C0.28252 1.44324 0.280827 1.32875 0.280827 1.21619C0.272364 1.03378 0.2639 0.853304 0.255436 0.670889L0.287598 0.676711C0.277442 0.632077 0.267286 0.589384 0.257129 0.546691L0.265593 0.00526772C0.114942 -0.0199598 0.0438481 0.0440792 0.0810875 0.226495C0.0709315 0.259484 0.0624679 0.294415 0.0590823 0.331286C-0.0204747 0.438019 -0.0137044 0.550572 0.0438479 0.665067V0.667008Z" fill="#E1067E"/>
</svg>
