<svg width="1" height="2" viewBox="0 0 1 2" fill="none" xmlns="http://www.w3.org/2000/svg">
<path d="M0.340535 0.0834452C0.337149 0.0562773 0.333764 0.0271685 0.330378 0C0.274519 0.0310494 0.218659 0.0620988 0.161108 0.0931481L0.159415 0.0756829C0.00876394 0.0795638 0.00707134 0.172712 0.0578524 0.29691C0.061238 0.434691 0.064623 0.572473 0.0680086 0.708314C0.0273836 0.917897 -0.0657154 1.12554 0.0747795 1.33124C0.130639 1.29631 0.186498 1.26138 0.242358 1.22645C0.245743 1.04792 0.247436 0.867442 0.249128 0.688908C0.28129 0.663681 0.313452 0.636512 0.34392 0.609344C0.34392 0.434691 0.342227 0.260039 0.340535 0.0834452Z" fill="#EFEEE8"/>
</svg>
