<svg width="1" height="5" viewBox="0 0 1 5" fill="none" xmlns="http://www.w3.org/2000/svg">
<path d="M0.052387 3.63559C-0.0356338 3.88399 -0.0136288 4.1188 0.125173 4.33808V4.33226C0.302908 4.23523 0.170877 4.03535 0.230121 3.89951C0.230121 3.82771 0.230121 3.75785 0.228429 3.68605C0.247049 3.62977 0.236892 3.58708 0.199653 3.55603C0.211502 3.19508 0.223351 2.83413 0.2352 2.47318C0.270746 2.36645 0.307986 2.26166 0.247049 2.15298C0.238585 2.14328 0.230121 2.13746 0.221658 2.1297C0.304601 2.05207 0.255512 1.91429 0.31645 1.82697C0.389236 1.77069 0.40447 1.69112 0.3977 1.59798C0.348611 1.44855 0.285981 1.30107 0.321528 1.13418C0.338455 0.850851 0.460329 0.586932 0.440017 0.297784C0.44171 0.189112 0.458637 0.0629729 0.350304 0.0144584C0.240278 -0.0340561 0.174262 0.0455079 0.142101 0.163884L0.138715 1.49124C0.138715 1.69889 0.13533 1.90653 0.13533 2.11417C0.126866 2.11611 0.120095 2.11611 0.111632 2.11999C0.0557726 2.18403 0.0337677 2.26166 0.0269964 2.35092C0.0269964 2.44019 0.0473091 2.51976 0.104861 2.58574L0.13533 3.55021C0.099783 3.56379 0.0710069 3.5929 0.052387 3.63559Z" fill="#E1067E"/>
</svg>
