<svg width="1" height="3" viewBox="0 0 1 3" fill="none" xmlns="http://www.w3.org/2000/svg">
<path d="M0.561979 1.0712C0.56875 1.06344 0.578906 1.05568 0.585677 1.04598C0.629687 0.956709 0.63138 0.863561 0.604297 0.768472C0.485807 0.619047 0.401172 0.467681 0.582292 0.300791C0.589063 0.170772 0.546745 0.0679207 0.448568 0C0.345313 0.0834453 0.214974 0.0679206 0.103255 0.122257L0.0897135 0.316316C0.218359 0.446335 0.220052 0.580236 0.110026 0.716076C0.0761723 0.702493 0.0440104 0.710254 0.0169271 0.741304C0.0118489 1.01687 0.00507823 1.29437 0 1.57188C0.201432 1.42051 -0.0101564 1.11778 0.170964 0.96059C0.179427 1.07509 0.167578 1.19734 0.274219 1.26914C0.272526 1.29631 0.270833 1.32348 0.269141 1.35065C0.0964842 1.68443 0.231901 2.0512 0.184505 2.40051C0.316536 2.41021 0.345312 2.32482 0.363932 2.22779C0.363932 2.32676 0.357161 2.42961 0.451953 2.49754L0.455339 1.98328C0.433333 2.00463 0.411328 2.02597 0.389323 2.04538C0.396094 1.86296 0.419792 1.68249 0.418099 1.50007C0.472266 1.52336 0.526432 1.5059 0.578906 1.45544C0.644922 1.3196 0.655078 1.18764 0.561979 1.0712Z" fill="#EFEEE8"/>
</svg>
