<svg width="1" height="2" viewBox="0 0 1 2" fill="none" xmlns="http://www.w3.org/2000/svg">
<path d="M0.3512 0.252816C0.349507 0.184896 0.347815 0.116975 0.34443 0.0490545C0.313961 0.0374108 0.281799 0.027708 0.249638 0.0180052C-0.000882928 -0.0576778 -0.012732 0.116975 0.00588791 0.322677C0.017737 0.351786 0.0312786 0.377014 0.0465129 0.400301C0.0295856 0.421647 0.0160442 0.444934 0.00927333 0.475984C0.00588813 0.524498 0.0109659 0.571072 0.022815 0.617646C0.0278932 0.62929 0.0312789 0.640933 0.0363567 0.652577C-0.0144244 0.734081 -0.00934625 0.825289 0.0482056 0.922319C0.0854454 0.963071 0.122685 1.00382 0.159924 1.04263C0.195472 1.00382 0.229326 0.965011 0.264872 0.9262C0.291956 0.924259 0.319039 0.920378 0.346122 0.914556C0.315654 0.769012 0.418909 0.586597 0.254716 0.477924C0.26318 0.388657 0.26995 0.29939 0.3512 0.254757V0.252816Z" fill="#E1067E"/>
</svg>
