<svg width="2" height="6" viewBox="0 0 2 6" fill="none" xmlns="http://www.w3.org/2000/svg">
<path d="M0.573828 4.3702C0.607682 4.33721 0.641537 4.30228 0.675391 4.26735C0.678776 4.22272 0.685547 4.17808 0.692318 4.13345C0.699089 4.18584 0.709245 4.23824 0.719401 4.29064C0.734636 4.42454 0.74987 4.55844 0.787109 4.68652C0.814193 4.74667 0.837891 4.81071 0.873438 4.85729C0.871745 5.0203 0.868359 5.18137 0.866667 5.34437C1.03932 5.26869 1.07826 5.12315 1.03424 4.93103C1.0444 4.89222 1.05456 4.85341 1.06471 4.81653C1.06133 4.48664 1.05794 4.15674 1.05456 3.82878C0.958073 3.72398 0.864974 3.76086 0.770182 3.83072C0.736328 3.86565 0.716016 3.90252 0.702474 3.94133C0.699089 3.90446 0.692318 3.86953 0.678776 3.8346C0.672006 3.76086 0.665234 3.68711 0.658464 3.61531C0.758333 3.46006 0.790495 3.3087 0.653385 3.15733C0.602604 3.14181 0.558594 3.14763 0.514583 3.16316C0.534896 3.15539 0.553516 3.14957 0.573828 3.14181C0.646615 3.10688 0.697396 3.05448 0.71263 2.96716C0.748177 3.11464 0.741407 3.29706 0.949609 3.299C1.09349 3.27959 0.91237 3.07971 1.05117 3.05836C1.05625 3.01761 1.06302 2.9788 1.06641 2.93999C1.10703 2.83714 1.10026 2.73235 1.09349 2.62561C1.07826 2.58292 1.05794 2.54993 1.03086 2.51888C1.03086 2.29765 1.03086 2.07837 1.03086 1.85714L1.03424 1.37588C1.03424 1.37588 1.03763 1.37393 1.03932 1.37005C1.04779 1.35065 1.05456 1.32736 1.06302 1.30601C1.06302 1.23033 1.06302 1.15465 1.06302 1.08091C1.05625 1.04404 1.04948 1.00716 1.04271 0.972234C1.04271 0.857739 1.04271 0.745185 1.04271 0.632631C1.07656 0.5977 1.11042 0.56277 1.14427 0.525899C1.13581 0.456038 1.12734 0.384236 1.11888 0.312434C1.08672 0.271682 1.05625 0.230929 1.02578 0.190177L1.05456 0.19988C1.08503 0.172712 1.09518 0.147485 1.08503 0.122257C1.07656 0.0950886 1.06471 0.0815044 1.05625 0.0815044L1.03763 0.0950886C1.03086 0.0815044 1.0224 0.073742 1.01393 0.0659797C0.997006 0.0446331 0.978386 0.0213466 0.961458 0C0.956381 0.0252275 0.951302 0.052396 0.944531 0.0795639C0.890365 0.0950886 0.863281 0.13196 0.878516 0.197939C0.866667 0.351246 0.854817 0.500671 0.842969 0.652037C0.84974 0.758769 0.858203 0.865501 0.864974 0.970293C0.770182 1.00716 0.770182 1.10807 0.748177 1.19346C0.724479 1.23421 0.721094 1.27691 0.738021 1.32154C0.785417 1.4011 0.84974 1.44768 0.934375 1.4438C0.842969 1.59322 0.712631 1.73294 0.841276 1.927C0.837891 1.92894 0.836198 1.93282 0.834505 1.9367C0.820964 1.97552 0.822656 2.01433 0.837891 2.04926C0.744792 2.08419 0.68724 2.13853 0.658464 2.20645C0.644922 2.16181 0.626302 2.11718 0.600911 2.07449C0.561979 2.04344 0.523047 2.04538 0.485807 2.07643C0.451953 2.17928 0.418099 2.28407 0.385938 2.38692C0.489193 2.49365 0.536589 2.63338 0.577214 2.77892C0.572135 2.77892 0.56875 2.77698 0.565365 2.77698C0.470573 2.74593 0.426562 2.62755 0.333464 2.59262C0.257291 2.56157 0.176041 2.57128 0.0981771 2.56351C0.0575521 2.56545 0.0236981 2.58486 0 2.62367C0.0220055 2.7731 0.0440105 2.92058 0.0660156 3.06807C0.0761721 3.08941 0.0880207 3.10882 0.0998698 3.13017C0.101562 3.13211 0.104948 3.13405 0.106641 3.13793C0.103255 3.62113 0.09987 4.10628 0.0964844 4.59143C0.226823 4.52157 0.167578 4.37408 0.201432 4.26541C0.209896 4.22854 0.213282 4.19167 0.218359 4.1548C0.231901 4.19167 0.247136 4.22854 0.270833 4.26347L0.286068 4.48469L0.331771 4.4944L0.379167 4.48858C0.42487 4.38767 0.438412 4.2887 0.438412 4.19167C0.453646 4.26153 0.490886 4.32557 0.575521 4.3702H0.573828Z" fill="#E1067E"/>
</svg>
