<svg width="1" height="2" viewBox="0 0 1 2" fill="none" xmlns="http://www.w3.org/2000/svg">
<path d="M0.169062 0.553067C0.157213 0.543364 0.145364 0.535602 0.131823 0.52978C0.140286 0.498731 0.150443 0.467681 0.160599 0.436632C0.153828 0.291088 0.145364 0.143603 0.138593 0C-0.00190146 0.0659797 0.0708852 0.227049 0.025182 0.335721C0.0370311 0.39782 0.0488798 0.46186 0.0607289 0.525899C0.0505728 0.52978 0.0404163 0.531721 0.0319528 0.537542C-0.00867218 0.648156 -0.0137502 0.756829 0.0353382 0.867442L0.0370309 0.99358C0.0454944 1.12554 0.0539581 1.26138 0.0624216 1.39334C0.202916 1.2478 0.128437 1.04986 0.160599 0.879086C0.204609 0.772353 0.233385 0.665621 0.169062 0.553067Z" fill="#E1067E"/>
</svg>
