<svg width="1" height="2" viewBox="0 0 1 2" fill="none" xmlns="http://www.w3.org/2000/svg">
<path d="M0.404557 0.589938C0.409635 0.574414 0.413021 0.558889 0.418099 0.543364C0.402865 0.355127 0.61276 0.102851 0.301302 0C0.269141 0.0329898 0.235287 0.0659801 0.203125 0.0989699C0.299609 0.254217 0.297917 0.434691 0.304688 0.613225C0.299609 0.615166 0.292838 0.617107 0.289453 0.620988C0.169271 0.780116 0.150651 0.970293 0.160807 1.17017C0.177734 1.2051 0.192969 1.24198 0.20651 1.27885C0.204818 1.32736 0.203125 1.37782 0.203125 1.42633C0.140495 1.35453 0.0795573 1.28467 0.0186198 1.21287C0.011849 1.31572 0.00677083 1.42051 0 1.5253C0.0558593 1.53694 -0.0541669 1.75041 0.104948 1.6398C0.192968 1.66502 0.282683 1.69025 0.36901 1.71742L0.52474 0.655918C0.497656 0.632631 0.46888 0.611285 0.431641 0.591879C0.423177 0.589938 0.413021 0.589938 0.404557 0.589938Z" fill="#E1067E"/>
</svg>
