<svg width="1" height="4" viewBox="0 0 1 4" fill="none" xmlns="http://www.w3.org/2000/svg">
<path d="M0.346423 0.982493C0.442907 0.848593 0.446293 0.677821 0.454756 0.50899C0.446293 0.44301 0.439522 0.37703 0.427673 0.312991C0.56309 0.392555 0.419209 0.639009 0.581709 0.704989C0.581709 0.526455 0.581709 0.349862 0.581709 0.171328C0.554626 0.173268 0.527543 0.171328 0.502152 0.163566C0.456449 0.0742989 0.431058 -0.0557205 0.312569 0.0316058C0.312569 0.0316058 0.312569 0.0296651 0.310876 0.0277246C0.236397 -0.0130281 0.165303 -0.00914629 0.0959021 0.0413087C0.0535845 0.155803 0.0518916 0.268357 0.0975948 0.380911C0.0671263 0.493466 0.0366571 0.60602 0.00618858 0.718573C0.0349645 0.831128 -0.000582036 0.966968 0.104366 1.05041C0.0823606 1.31433 0.0603555 1.57631 0.0366573 1.84023C0.050199 1.86546 0.055277 1.89263 0.0603552 1.9198C0.0518914 1.89457 0.0451212 1.8674 0.0366573 1.84023C0.0451212 2.23223 -0.0886031 2.63781 0.107751 3.01623L0.131449 2.59318C0.209314 2.45928 0.21947 2.32732 0.144991 2.1973C0.207621 2.21865 0.266866 2.21088 0.321032 2.16237C0.354887 2.10415 0.351501 2.03623 0.353194 1.97025C0.359965 2.00906 0.40059 2.04011 0.447985 2.0634C0.610485 1.97607 0.602022 1.80142 0.617256 1.63841C0.596944 1.37643 0.661267 1.06206 0.346423 0.982493Z" fill="#E1067E"/>
</svg>
