<svg width="1" height="2" viewBox="0 0 1 2" fill="none" xmlns="http://www.w3.org/2000/svg">
<path d="M0.272754 0.665621C0.274447 0.597701 0.276139 0.52978 0.279525 0.46186C0.249056 0.421107 0.216895 0.380355 0.186426 0.339603C0.184734 0.217346 0.215202 0.0834453 0.0984053 0C-0.0674803 0.159128 0.0273114 0.36483 0.0239262 0.553067C0.0239262 0.59382 0.0222335 0.634572 0.0222335 0.673384C0.0374677 0.898492 -0.0674802 1.14301 0.0933272 1.34871C0.122103 1.33318 0.150879 1.32736 0.183041 1.32736C0.194889 1.25944 0.206739 1.19346 0.218588 1.12942C0.242285 1.12166 0.265983 1.11196 0.291374 1.10419C0.286296 0.95865 0.279525 0.811165 0.272754 0.665621Z" fill="#E1067E"/>
</svg>
