<svg width="1" height="3" viewBox="0 0 1 3" fill="none" xmlns="http://www.w3.org/2000/svg">
<path d="M0.526432 1.83385C0.553516 1.86684 0.578906 1.90177 0.604297 1.93671C0.707552 1.79698 0.690625 1.65338 0.616146 1.50784C0.583984 1.46708 0.551823 1.42633 0.519661 1.38558C0.526433 1.31184 0.534896 1.24003 0.541667 1.16823C0.541667 1.02657 0.541667 0.886848 0.541667 0.745185C0.700781 0.582176 0.578906 0.442454 0.516276 0.294969C0.504427 0.294969 0.492578 0.293028 0.479036 0.291088C0.479036 0.279444 0.477344 0.267801 0.479036 0.254217C0.489193 0.124197 0.445183 0.0329898 0.330078 0C-0.00169227 0.00970331 0.0440102 0.316316 0 0.551127C0.0033852 0.640394 0.0338542 0.778175 0.101562 0.752948C0.348698 0.655918 0.182813 0.86162 0.208203 0.923719C0.21836 0.939244 0.22513 0.956709 0.231901 0.972234C0.201433 0.999402 0.169271 1.02463 0.138802 1.04986C0.128646 1.0712 0.116797 1.09255 0.106641 1.1139C0.106641 1.11584 0.106641 1.11972 0.106641 1.12166C-0.0169274 1.25362 0.0812502 1.43409 0.0643229 1.58934C0.0947919 1.6689 0.123568 1.74459 0.154036 1.82221C0.284375 1.82609 0.345313 1.90372 0.341927 2.0512C0.404558 1.97746 0.465495 1.9076 0.529818 1.83385H0.526432Z" fill="#E1067E"/>
</svg>
