<svg width="1" height="1" viewBox="0 0 1 1" fill="none" xmlns="http://www.w3.org/2000/svg">
<path d="M0.883594 0.270027C0.837891 0.316601 0.798958 0.357354 0.756641 0.403928C0.709245 0.34571 0.661849 0.295255 0.607682 0.252562C0.60599 0.248681 0.604297 0.246741 0.604297 0.242859C0.602604 0.242859 0.600911 0.2448 0.599219 0.2448C0.479036 0.147771 0.336849 0.0895526 0.169271 0.0779093C0.18112 0.0720874 0.192969 0.0623846 0.20651 0.0546223C0.0880206 -0.0210607 0.0473959 -0.0230011 0.028776 0.0798499C0.01862 0.0798499 0.0101565 0.0740278 0 0.0682064C0.00507823 0.0895524 0.0118487 0.110899 0.0220052 0.128365C0.0203122 0.143889 0.0186198 0.157473 0.0186198 0.174939C0.0270832 0.169117 0.0338543 0.165235 0.0423177 0.159414C0.0744793 0.200166 0.115104 0.227334 0.165885 0.237037C0.264062 0.252562 0.353776 0.285552 0.435026 0.334067C0.404558 0.351532 0.372396 0.368997 0.341927 0.386463C0.348698 0.407809 0.357162 0.431096 0.365625 0.452442C0.404557 0.423334 0.44349 0.394225 0.482422 0.365116C0.539974 0.403928 0.595833 0.448561 0.65 0.500957C0.651693 0.502898 0.655078 0.504838 0.656771 0.506779C0.655078 0.508719 0.653386 0.51066 0.651693 0.512601C0.656771 0.512601 0.660157 0.512601 0.665234 0.514541C0.743099 0.584402 0.841276 0.630976 0.93099 0.685313C0.897135 0.613511 0.859896 0.547531 0.819271 0.487373C0.858203 0.452442 0.873437 0.386462 0.883594 0.268087V0.270027Z" fill="#392726"/>
</svg>
