<svg width="1" height="1" viewBox="0 0 1 1" fill="none" xmlns="http://www.w3.org/2000/svg">
<path d="M0.231901 0.853858C0.242057 0.716077 0.252214 0.591879 0.26237 0.46186C0.347005 0.405583 0.44349 0.36289 0.516276 0.289147C0.585677 0.215405 0.710937 0.194059 0.71263 0.0446335C0.543359 0.120316 0.409635 0.283326 0.216667 0.293029C0.209895 0.238692 0.201432 0.209583 0.204818 0.180475C0.211589 0.1339 0.223437 0.0892672 0.24375 0C0.218359 0.0116438 0.192969 0.0271686 0.167578 0.0407523L0 0.360949C0.0880204 0.473503 0.137109 0.617107 0.152344 0.785937C0.154036 0.805344 0.191276 0.820868 0.231901 0.855799V0.853858Z" fill="#392726"/>
</svg>
