<svg width="6" height="5" viewBox="0 0 6 5" fill="none" xmlns="http://www.w3.org/2000/svg">
<path d="M2.6694 2.25884C3.04688 1.9891 3.41927 1.70772 3.79505 1.43409C3.8526 1.39334 3.91016 1.35647 3.9694 1.3196C4.09974 1.39916 4.23177 1.40887 4.37396 1.25944C4.36888 1.18764 4.36549 1.11196 4.35365 1.03433C4.50937 1.0518 4.59909 0.877145 4.73112 0.818928C4.88516 0.751007 5.01888 0.611285 5.15599 0.492909C5.29141 0.378415 5.42682 0.192118 5.51484 0C5.10013 0.298851 4.70404 0.586057 4.31302 0.869383C4.30625 0.849977 4.29779 0.828631 4.28932 0.809225C4.24531 0.714136 4.22331 0.607403 4.19115 0.504553C4.10312 0.570532 4.05573 0.657859 4.13359 0.811165C3.91862 0.733542 3.98464 0.558889 3.95078 0.436632C3.87969 0.467681 3.80859 0.500672 3.73919 0.52978C3.79844 0.754888 3.8526 0.96059 3.90508 1.16435C3.85938 1.19734 3.81367 1.23033 3.76628 1.26332C3.14674 1.7116 2.52552 2.15987 1.90599 2.60815C1.73503 2.73041 1.56745 2.85848 1.39818 2.98268C1.30846 3.04672 1.22214 3.05254 1.11549 3.00597C0.924219 2.9264 0.748177 3.18062 0.863281 3.31646C0.60599 3.63084 0.235286 3.74145 0 4.07717C0.280989 4.08299 0.286068 4.08882 0.396094 3.97044C0.594141 3.74921 0.834505 3.60949 1.04948 3.46395C1.26953 3.49306 1.04102 3.34557 1.17643 3.44454C1.32708 3.12823 1.52344 3.24272 1.44896 3.14375C1.52682 3.07001 1.57591 3.01179 1.63516 2.97104C1.97878 2.73041 2.32747 2.49948 2.6694 2.2569V2.25884Z" fill="#392726"/>
</svg>
