<svg width="5" height="4" viewBox="0 0 5 4" fill="none" xmlns="http://www.w3.org/2000/svg">
<path d="M3.98633 0.174653C3.75273 0.335721 3.53099 0.516196 3.29232 0.665621C2.65247 1.06926 2.05833 1.55829 1.40664 1.94059C1.13919 2.09777 0.878516 2.27631 0.629687 2.47037C0.421485 2.63532 0.152344 2.71294 0 3.00791C0.159115 3.01179 0.309766 3.01567 0.418099 3.01761C0.560286 2.83326 0.627995 2.69547 0.729557 2.62173C0.95638 2.45096 1.18828 2.26078 1.44219 2.17346C1.72318 2.07837 1.83151 1.76011 2.08372 1.64756C2.24284 1.57382 2.3901 1.46708 2.54583 1.38364C2.67448 1.31378 2.81328 1.26526 2.94023 1.18764C3.26693 0.987758 3.63255 0.855799 3.86107 0.483206C3.89154 0.434691 3.95586 0.415286 4.00495 0.384236C4.09297 0.33184 4.18776 0.287207 4.26901 0.221227C4.32656 0.176593 4.36211 0.102851 4.28255 0C4.18607 0.0543364 4.08112 0.106732 3.98464 0.174653H3.98633Z" fill="#392726"/>
</svg>
