<svg width="1" height="2" viewBox="0 0 1 2" fill="none" xmlns="http://www.w3.org/2000/svg">
<path d="M0.275598 0.539915C0.280676 0.706805 0.287447 0.871756 0.292525 1.03865C0.290833 1.18031 0.290832 1.32197 0.28914 1.46557C0.287447 1.60142 0.287447 1.73726 0.285754 1.87504C0.468567 1.94684 0.383931 1.71979 0.458411 1.67322C0.512577 1.60724 0.51427 1.54126 0.465181 1.47916C0.473645 1.47334 0.482108 1.46363 0.492265 1.45587C0.565051 1.31421 0.554895 1.17837 0.47703 1.04447C0.468567 1.01342 0.463488 0.978488 0.460103 0.945498C0.441483 0.922211 0.417786 0.912508 0.390702 0.912508C0.482108 0.675756 0.526119 0.439005 0.356848 0.215837L0.336536 0.217778C0.273905 0.0994022 0.240052 -0.0733103 0.0623168 0.0334221C-0.0273966 0.202253 -0.0189334 0.367203 0.0792439 0.526331C0.091093 0.799954 0.102942 1.07358 0.114791 1.34914C0.321301 1.12015 0.0623166 0.770845 0.275598 0.541856V0.539915Z" fill="#EFEEE8"/>
</svg>
