<svg width="1" height="3" viewBox="0 0 1 3" fill="none" xmlns="http://www.w3.org/2000/svg">
<path d="M0.261604 2.26078C0.254833 2.35587 0.288687 2.39856 0.375015 2.37528C0.474885 2.23167 0.479963 2.05702 0.498583 1.88819C0.501968 1.72712 0.425797 1.59128 0.39702 1.43992C0.43426 1.45156 0.468114 1.43797 0.49689 1.39722C0.562906 1.15077 0.556135 0.941184 0.346239 0.82669C0.349624 0.815046 0.354702 0.805343 0.358088 0.79564C0.37163 0.741304 0.3784 0.686968 0.380093 0.632631C0.375015 0.586057 0.37163 0.535602 0.368244 0.485147C0.381786 0.349305 0.336083 0.201821 0.368244 0.0679205L0.35301 0.0756829C0.322541 0.0368711 0.285302 0.0116438 0.239598 0C0.146499 0.00970281 0.0567859 0.0232868 0.0838693 0.174653L0.104182 0.170772C0.10926 0.172713 0.110952 0.176593 0.114338 0.178534C0.107567 0.178534 0.100797 0.178534 0.0923328 0.178534C-0.00584407 0.285266 -0.0143082 0.417226 0.0144682 0.558889C0.0330881 0.607404 0.0567857 0.655918 0.0872547 0.696671C0.0415514 0.830571 -0.0870941 0.995521 0.173583 1.02463C0.180354 1.1236 0.185432 1.22451 0.192203 1.32348C0.165119 1.6398 0.183739 1.95223 0.261604 2.25884V2.26078Z" fill="#EFEEE8"/>
</svg>
