<svg width="3" height="2" viewBox="0 0 3 2" fill="none" xmlns="http://www.w3.org/2000/svg">
<path d="M0 1.87219C0.365625 1.60439 0.677084 1.37346 0.991927 1.15029C1.47266 0.806805 1.95677 0.467203 2.43919 0.1276C2.23268 -0.0276468 2.12266 -0.0412307 1.96354 0.0868478C1.87044 0.16059 1.78581 0.245976 1.69948 0.331362C1.55221 0.478846 1.40664 0.628272 1.25937 0.777697C1.07995 0.719479 0.973307 0.892191 0.836198 0.962052C0.685547 1.03774 0.545052 1.127 0.460417 1.31718C0.411328 1.42197 0.297917 1.37152 0.220052 1.22791V1.22985C0.169271 1.25702 0.120182 1.28419 0.069401 1.31136C0.0761719 1.39868 0.098177 1.48989 0.0897135 1.57722C0.0829427 1.65484 0.0440102 1.73052 0 1.87219Z" fill="#392726"/>
</svg>
