<svg width="1" height="3" viewBox="0 0 1 3" fill="none" xmlns="http://www.w3.org/2000/svg">
<path d="M0.313151 1.70448C0.323307 1.66955 0.330079 1.63462 0.336849 1.59969C0.355469 1.6385 0.382552 1.67538 0.42487 1.70837C0.45026 1.7433 0.475651 1.78017 0.501042 1.81704C0.533203 1.92183 0.58737 1.98199 0.690625 1.94512L0.697396 1.90825C0.895443 1.7724 0.714323 1.54342 0.795573 1.37847C0.797266 1.19411 0.800651 1.01169 0.802344 0.827339C0.820964 0.658508 1.07995 0.452806 0.743099 0.342192C0.68724 0.357717 0.646615 0.392648 0.621224 0.450865C0.577214 0.588647 0.563672 0.728369 0.560286 0.870032C0.541667 0.856448 0.523047 0.840923 0.499349 0.82928C0.436719 0.825398 0.375781 0.821517 0.313151 0.815696C0.313151 0.778824 0.30638 0.743894 0.289453 0.710904C0.292838 0.534311 0.296224 0.357717 0.299609 0.179183C0.22513 0.359658 0.203125 -0.290438 0.110026 0.165599C0.0863283 0.169481 0.0626304 0.173361 0.0389323 0.173361C0.0423179 0.359658 0.0457033 0.545954 0.0490885 0.73225C0.0423177 0.833161 0.0355469 0.934071 0.028776 1.03692C0.138802 1.09514 0.226823 1.06021 0.304688 0.980645C0.304688 1.00393 0.304688 1.02722 0.304688 1.05051C0.304688 1.04857 0.304687 1.04663 0.302995 1.04468L0.304688 1.05245C0.18112 1.11649 0.228515 1.2795 0.191276 1.39205C0.194662 1.28338 0.198047 1.1747 0.0389323 1.18247C0.0253906 1.24845 0.0118486 1.31443 0 1.38041C0.08125 1.58611 -0.0812499 1.84809 0.116797 2.02662C0.116797 1.88302 0.116797 1.73941 0.116797 1.59581C0.211589 1.56282 0.172656 1.85197 0.314844 1.70448H0.313151Z" fill="#E1067E"/>
</svg>
