<svg width="1" height="2" viewBox="0 0 1 2" fill="none" xmlns="http://www.w3.org/2000/svg">
<path d="M0.0761719 0.545305C0.0778645 0.76265 0.0795574 0.981936 0.08125 1.20122C0.143881 1.17017 0.206511 1.13912 0.270833 1.11002C0.357162 1.06538 0.397786 0.993581 0.377474 0.882967C0.375781 0.879086 0.375782 0.875204 0.372396 0.873264C0.382552 0.867443 0.391016 0.86162 0.391016 0.86162C0.421484 0.764591 0.455339 0.667562 0.458724 0.570532C0.462109 0.636513 0.46888 0.702492 0.463802 0.768472H0.507813L0.551823 0.764591C0.482422 0.576354 0.739714 0.391998 0.560287 0.201821C0.470573 0.291088 0.455339 0.39782 0.457031 0.508434C0.451953 0.457979 0.438411 0.407523 0.409635 0.355128C0.384245 0.320197 0.355469 0.304672 0.323307 0.306613C0.319922 0.203762 0.284375 0.116435 0.22513 0.0368707C0.208203 0.0252274 0.191276 0.0135842 0.174349 0C0.116797 0.0407522 0.0575523 0.0815047 0 0.122257C0.0253907 0.26198 0.0507811 0.403642 0.0761719 0.545305Z" fill="#E1067E"/>
</svg>
