<svg width="1" height="2" viewBox="0 0 1 2" fill="none" xmlns="http://www.w3.org/2000/svg">
<path d="M0.371231 0.685027C0.379695 0.574414 0.388159 0.4638 0.394929 0.351246C0.444018 0.221227 0.48295 0.0950886 0.344148 0C0.284903 0.155247 0.090242 0.0756831 0.0309971 0.234811C0.00391381 0.316315 -0.00454973 0.39782 0.0022211 0.483206C0.010685 0.566651 0.0360752 0.644275 0.0885492 0.706373C0.0665441 0.737423 0.0496169 0.772353 0.0428461 0.813106C0.0428461 0.867443 0.0530026 0.917897 0.0699294 0.966412C0.0191484 1.04209 0.0293042 1.13136 0.0800857 1.22645C0.11394 1.33318 0.0631587 1.48067 0.193497 1.54277C0.146102 1.33124 0.298445 1.24392 0.391544 1.11778H0.430476L0.469409 1.1139C0.493107 0.952828 0.46433 0.807284 0.369539 0.683086L0.371231 0.685027Z" fill="#E1067E"/>
</svg>
