<svg width="1" height="3" viewBox="0 0 1 3" fill="none" xmlns="http://www.w3.org/2000/svg">
<path d="M0 2.11904C0.0372394 2.15591 0.0727867 2.19278 0.110026 2.23159C0.231901 2.28205 0.260677 2.17919 0.297917 2.09187C0.331771 2.13262 0.363932 2.17337 0.397787 2.21413C0.460417 2.15979 0.489193 2.08605 0.50612 2.0026C0.694011 1.99678 0.687239 1.83183 0.688932 1.67464C0.680469 1.60478 0.673698 1.53492 0.666927 1.46506C0.648307 1.46118 0.629688 1.45924 0.611068 1.45536C0.460417 1.57955 0.558594 1.77943 0.514583 1.93662C0.524739 1.73286 0.551823 1.52134 0.392708 1.36415C0.40625 1.36027 0.418099 1.3525 0.431641 1.34086C0.517969 1.19726 0.524739 1.04201 0.480729 0.880942C0.451953 0.780032 0.445182 0.733457 0.545052 0.822725C0.719401 0.725695 0.71263 0.523874 0.754948 0.351162C0.766797 0.207558 0.727865 0.0891827 0.617839 0.00767838C0.553516 -0.0117277 0.473959 0.00379684 0.46888 0.0755989C0.455339 0.283241 0.380859 0.0930642 0.338542 0.108589C0.184505 0.190093 0.19974 0.37833 0.137109 0.518053C0.132031 0.539399 0.125261 0.560745 0.120182 0.584032C0.115104 0.615082 0.110026 0.646131 0.104948 0.677181C0.0795576 0.717933 0.0744794 0.760626 0.0914063 0.8072C0.172656 0.884823 0.186198 0.995437 0.204818 1.10799C0.1625 1.09247 0.123568 1.09829 0.0863281 1.13128C0.0643226 1.16621 0.0423176 1.20114 0.0203125 1.23801L0.0389323 1.67658C0.0270832 1.75032 0.0169272 1.82213 0.00507813 1.89393C0.00507813 1.96961 0.00338574 2.04529 0.00169271 2.12098L0 2.11904Z" fill="#E1067E"/>
</svg>
