<svg width="1" height="2" viewBox="0 0 1 2" fill="none" xmlns="http://www.w3.org/2000/svg">
<path d="M0.320874 0.879086C0.193921 0.747126 0.197306 0.603522 0.288713 0.450216C0.281942 0.298851 0.224389 0.147485 0.300562 0C0.0331135 0.0291089 0.121135 0.238692 0.127905 0.405583C0.114364 0.411404 0.100822 0.419167 0.0872804 0.426929C0.0381919 0.49679 0.0144941 0.578295 0.00433766 0.665621C-0.00581881 0.813106 -0.00412589 0.956709 0.0771241 1.08285C0.0872802 1.09449 0.0974365 1.10613 0.109286 1.11196C0.0398842 1.20899 0.0618896 1.31572 0.0940512 1.42439C0.104208 1.49619 0.112671 1.56799 0.12452 1.6398C0.158374 1.64174 0.190536 1.64368 0.22439 1.64756C0.202385 1.46514 0.36827 1.27497 0.209155 1.09837C0.246395 1.02657 0.281942 0.952828 0.319181 0.879086H0.320874Z" fill="#E1067E"/>
</svg>
