<svg width="1" height="2" viewBox="0 0 1 2" fill="none" xmlns="http://www.w3.org/2000/svg">
<path d="M0.275911 0.791759C0.248828 0.828631 0.230209 0.867442 0.213281 0.904313C0.20651 0.869382 0.198047 0.832511 0.189583 0.797581C0.1625 0.615166 0.338542 0.432751 0.196354 0.246454C0.177734 0.16495 0.160807 0.0834453 0.14388 0C0.0964844 0.0834453 0.0490884 0.16689 0 0.248395C0.142188 0.677265 0.0253902 1.11002 0.0186198 1.54277C0.0964842 1.55441 0.15573 1.52724 0.187891 1.44186C0.198047 1.40692 0.204818 1.37199 0.211589 1.339C0.228515 1.37393 0.248828 1.41275 0.274219 1.44962C0.29961 1.48067 0.328385 1.51172 0.355469 1.54471C0.367318 1.37005 0.377474 1.1954 0.389323 1.02075C0.357162 0.939244 0.379167 0.824749 0.274219 0.791759H0.275911Z" fill="#E1067E"/>
</svg>
