<svg width="1" height="3" viewBox="0 0 1 3" fill="none" xmlns="http://www.w3.org/2000/svg">
<path d="M0.120182 0.343484C0.104948 0.228989 0.0897133 0.114494 0.0727865 0C0.0609374 0 0.0490885 0.00194059 0.0355469 0.00194059C0.0236982 0.151366 0.0118491 0.29885 0 0.448275C0.00846343 0.756828 0.0186199 1.06538 0.0270833 1.37199C0.0270833 1.61069 0.0253906 1.84938 0.0253906 2.08807C0.0558596 2.05702 0.0880206 2.02791 0.11849 1.99686C0.11849 1.86102 0.120182 1.72518 0.120182 1.58934C0.111719 1.51754 0.103255 1.4438 0.093099 1.37199C0.0829429 1.22257 0.123568 1.08867 0.189583 0.962531L0.198047 0.966412C0.0863283 0.772353 0.203125 0.543364 0.121875 0.345424L0.120182 0.343484Z" fill="#EFEEE8"/>
</svg>
