<svg width="1" height="3" viewBox="0 0 1 3" fill="none" xmlns="http://www.w3.org/2000/svg">
<path d="M0.0820342 1.63591C0.0888055 1.99686 0.0955755 2.35587 0.102347 2.71488C0.295315 2.03373 0.153128 1.33706 0.180211 0.648156C0.188675 0.4638 0.198831 0.281385 0.207295 0.0970293C0.225915 0.0485148 0.215758 0.0155247 0.170055 0C0.120966 0.106732 0.0701852 0.213465 0.0210967 0.322137C0.0126329 0.351246 0.00924798 0.378414 0.0126332 0.407523C0.0583364 0.475443 0.0295605 0.580235 0.0938832 0.638453C0.0803415 0.648156 0.0667996 0.659799 0.0566436 0.683086C0.0380237 0.797581 -0.00260131 0.908194 0.00247693 1.02851C0.0109404 1.23421 -0.0364552 1.44962 0.0820342 1.63591Z" fill="#E1067E"/>
</svg>
