<svg width="1" height="2" viewBox="0 0 1 2" fill="none" xmlns="http://www.w3.org/2000/svg">
<path d="M0.647372 1.4438C0.642294 1.34677 0.637216 1.2478 0.630445 1.14883C0.5712 1.21675 0.513648 1.28467 0.454404 1.35259C0.454404 1.30407 0.452711 1.2575 0.451018 1.21093C0.46456 1.176 0.478101 1.14301 0.495029 1.10807C0.503492 0.919838 0.486565 0.739363 0.373154 0.587998C0.368075 0.586057 0.362998 0.584116 0.357919 0.580235C0.362998 0.411404 0.362997 0.242573 0.454404 0.0931482C0.423935 0.0620988 0.391773 0.0310494 0.361305 0C0.0650807 0.09897 0.26482 0.337662 0.251279 0.516196C0.254664 0.52978 0.259742 0.545305 0.263128 0.558889C0.252972 0.558889 0.244508 0.558889 0.236044 0.56083C-0.173591 0.787878 0.0769299 1.176 0.0650808 1.49813C0.070159 1.57964 0.0803149 1.6592 0.104013 1.73488C0.126018 1.7834 0.151409 1.82803 0.185263 1.86684C0.244508 1.86684 0.303753 1.86684 0.36469 1.86684C0.335914 1.78728 0.307138 1.70966 0.278362 1.63203C0.368075 1.60681 0.457789 1.57964 0.547503 1.55247C0.699847 1.6592 0.594898 1.45544 0.649065 1.4438H0.647372Z" fill="#EFEEE8"/>
</svg>
