<svg width="1" height="2" viewBox="0 0 1 2" fill="none" xmlns="http://www.w3.org/2000/svg">
<path d="M0.042686 1.33706C-0.0114807 1.52142 -0.0537984 1.70578 0.17641 1.77952C0.240733 1.69801 0.306748 1.61457 0.372764 1.53112C0.379535 1.45738 0.387999 1.3817 0.398155 1.30796C0.386306 1.29825 0.376149 1.29049 0.365993 1.28079C0.362608 1.22257 0.359223 1.16241 0.35753 1.10225C0.367686 0.99164 0.379535 0.881027 0.389691 0.770413C0.384613 0.733542 0.377843 0.698611 0.371071 0.66174C0.340603 0.586057 0.308441 0.512314 0.277972 0.436632C0.250889 0.273622 0.362608 0.0310494 0.0934672 0C0.0629982 0.0116438 0.0494566 0.0291088 0.0528422 0.0523958C0.0562274 0.0795643 0.0613059 0.0931481 0.0697693 0.0931481C0.0799258 0.209583 0.0917743 0.3299 0.101931 0.446335C0.103623 0.63069 0.105316 0.815046 0.107009 0.999402C0.107009 1.09061 0.105316 1.18376 0.103623 1.27497C0.0816184 1.29049 0.0613059 1.31184 0.042686 1.339V1.33706Z" fill="#E1067E"/>
</svg>
