<svg width="1" height="2" viewBox="0 0 1 2" fill="none" xmlns="http://www.w3.org/2000/svg">
<path d="M0.788836 1.1954C0.783757 0.906254 0.776987 0.617106 0.771908 0.327959C0.736362 0.289147 0.69743 0.285266 0.653419 0.306613C0.294565 0.477384 0.702507 0.943125 0.406283 1.13718C0.399513 1.14495 0.39782 1.15271 0.391049 1.16047C0.392742 0.844155 0.394434 0.525899 0.39782 0.211524C0.392742 0.141663 0.387663 0.0737423 0.384278 0.00388117L0.387664 0C0.242091 0 0.206544 0.093148 0.191309 0.19988C0.176075 0.137782 0.150684 0.075683 0.110059 0.0155247C0.110059 0.0465741 0.104981 0.0756831 0.0931324 0.102851C-0.0185861 0.39588 -0.0422844 0.688908 0.0914397 0.981937C0.0999036 1.02269 0.101596 1.06732 0.115138 1.10613C0.11683 1.14495 0.123601 1.18376 0.13545 1.22063C0.189617 1.33318 0.257325 1.39528 0.358888 1.33512C0.369044 1.38558 0.389356 1.43215 0.414747 1.47679C0.453679 1.53889 0.50446 1.58352 0.570476 1.59904C0.614487 1.59904 0.655112 1.58546 0.692351 1.56023L0.790528 1.43021C0.832846 1.35065 0.836231 1.27302 0.787143 1.1954H0.788836Z" fill="#E1067E"/>
</svg>
