<svg width="2" height="3" viewBox="0 0 2 3" fill="none" xmlns="http://www.w3.org/2000/svg">
<path d="M0.0812972 1.43021C-0.0591977 1.63009 0.0203593 1.8455 0.0423649 2.05702C0.074526 2.14629 0.0914534 2.25302 0.213328 2.21615C0.220099 2.01433 0.22687 1.81445 0.233641 1.61651C0.228563 1.54083 0.223484 1.46514 0.220099 1.38946L0.399526 1.38752C0.402912 1.31766 0.406297 1.2478 0.409683 1.17794C0.409683 1.176 0.409683 1.17406 0.409683 1.17212C0.424917 1.22257 0.446922 1.26914 0.479084 1.30796C0.482469 1.3099 0.487547 1.31184 0.490933 1.31378C0.367365 1.43798 0.380907 1.60681 0.391063 1.7737C0.423224 1.88043 0.42661 2.01627 0.573875 1.99686C0.575568 1.94059 0.578954 1.88625 0.580646 1.82997C0.597573 1.94641 0.619579 2.06284 0.650047 2.17734C0.68898 2.31318 0.710985 2.46843 0.873485 2.47231C0.697443 2.57128 0.611115 2.70906 0.768537 2.95939C0.854865 2.95551 0.942885 2.94775 1.03091 2.94193C1.02583 2.76728 1.10539 2.5771 0.951349 2.4335L0.953042 2.43156C0.953042 2.43156 0.951349 2.43156 0.951349 2.4335C1.15786 2.18316 0.71437 1.94641 0.9395 1.69801C1.02583 1.60487 1.04614 1.48649 1.04276 1.35841C1.03937 1.3099 1.03091 1.25944 1.01736 1.21287C1.00721 1.1857 0.998745 1.15853 0.986896 1.1333C0.990282 1.12942 0.993667 1.12748 0.997052 1.1236C1.05799 1.00716 1.06307 0.877146 1.06476 0.745185C1.06645 0.619047 1.06645 0.490969 1.06307 0.364831C1.05799 0.26392 1.04614 0.16301 1.00552 0.0718022C0.980125 0.029109 0.944579 0.00582188 0.898875 0C0.804084 0.0291089 0.77023 0.118376 0.743146 0.211524C0.741454 0.217346 0.743146 0.225109 0.741453 0.23287C0.726219 0.227049 0.710985 0.232871 0.697443 0.244514C0.685594 0.22899 0.670359 0.213465 0.65174 0.201821C0.606037 0.188237 0.560333 0.190178 0.516323 0.211524C0.384292 0.326019 0.385985 0.49679 0.377521 0.66174C0.377521 0.706374 0.377521 0.752948 0.377521 0.797581L0.313198 0.867443C0.182859 0.997462 0.0406718 1.11972 0.110073 1.35841C0.121922 1.37394 0.135464 1.38364 0.150698 1.38946C0.14562 1.38946 0.140542 1.38946 0.137157 1.38946C0.118537 1.40304 0.101609 1.41663 0.0829899 1.42827L0.0812972 1.43021Z" fill="#EFEEE8"/>
</svg>
