<svg width="1" height="2" viewBox="0 0 1 2" fill="none" xmlns="http://www.w3.org/2000/svg">
<path d="M0.470573 0.770469C0.512891 0.57641 0.521354 0.382351 0.490885 0.186352C0.479036 0.130075 0.458724 0.0815606 0.429948 0.0349865C0.38763 -0.0135285 0.347005 -0.0115872 0.308073 0.0408083C0.29961 0.174709 0.292838 0.306668 0.282682 0.44251C0.223437 0.506549 0.172656 0.57641 0.142188 0.663737C0.128646 0.605519 0.0947915 0.570588 0.0169271 0.582232C0.0118489 0.830627 0.00507823 1.08096 0 1.3313C0.030469 1.36817 0.0609374 1.40504 0.093099 1.44191C0.18112 1.33906 0.186198 1.22651 0.172656 1.11395C0.187891 1.12754 0.203125 1.13724 0.221745 1.14112C0.214974 1.31383 0.209896 1.48654 0.203125 1.65926C0.330078 1.65732 0.282683 1.4652 0.38763 1.43609C0.435026 1.36041 0.458724 1.28861 0.367318 1.23233C0.341927 1.20322 0.314844 1.17217 0.289453 1.14306C0.294531 1.14112 0.299609 1.14112 0.30638 1.13918C0.401172 1.04021 0.433334 0.902429 0.470573 0.770469Z" fill="#E1067E"/>
</svg>
