<svg width="1" height="5" viewBox="0 0 1 5" fill="none" xmlns="http://www.w3.org/2000/svg">
<path d="M0.366046 3.95686C0.398207 3.86565 0.465915 3.84624 0.542087 3.84624C0.550551 3.92193 0.548858 4.00343 0.628415 4.0403C0.653806 3.93939 0.597947 3.80549 0.723207 3.74921C0.75029 4.04612 0.911098 3.76862 0.992348 3.83266C1.0025 3.7201 1.02112 3.60561 0.91279 3.53575C0.877244 3.57456 0.834926 3.59203 0.792608 3.60755C0.792608 3.60561 0.792608 3.60367 0.792608 3.60367C0.789222 3.44648 0.745212 3.32617 0.592868 3.29706C0.553936 3.32811 0.526853 3.3611 0.509926 3.39409C0.501462 3.2369 0.489613 3.08165 0.36266 2.97298C0.454067 2.88565 0.474379 2.76728 0.479457 2.64308C0.504848 2.6392 0.530238 2.63143 0.553936 2.61203C0.636879 2.37334 0.584405 2.12688 0.589483 1.88237C0.597946 1.9173 0.608103 1.95223 0.633493 1.97552C0.746905 1.89983 0.7249 1.7737 0.729978 1.65532C0.696124 1.65532 0.663962 1.65144 0.630108 1.65144C0.582712 1.62621 0.535317 1.60098 0.486228 1.57576C0.501462 1.25944 0.672426 0.964471 0.56917 0.634572C0.516697 0.582176 0.432061 0.599641 0.391436 0.527839C0.377894 0.508433 0.366045 0.490968 0.354197 0.471562C0.359275 0.411404 0.36266 0.353186 0.366046 0.294969C0.345733 0.194059 0.389743 0.0679206 0.28141 0C0.278025 0.124198 0.274639 0.250336 0.269561 0.374533C0.261098 0.366771 0.252634 0.360949 0.242478 0.355127C0.184926 0.341543 0.132452 0.347365 0.10029 0.415285C0.0884416 0.688909 0.0748997 0.962531 0.061358 1.23809C0.0630506 1.30407 0.0647435 1.37199 0.0664361 1.43992C-0.0131213 1.66696 -0.0706735 1.88819 0.196775 2.01433C0.215394 2.00851 0.230629 2.00074 0.245863 1.99298C0.250941 2.01627 0.254327 2.03956 0.259405 2.06284L0.235707 2.0512C0.101983 2.05508 0.0833632 2.16375 0.0765924 2.28019C0.0816702 2.45484 0.0884416 2.62949 0.0935194 2.80415C0.122295 2.87207 0.149379 2.93999 0.176462 3.00791C0.149379 3.0409 0.122295 3.07195 0.0952122 3.103C0.191697 3.31452 0.173077 3.53769 0.151072 3.75892C0.193389 3.86565 0.222165 3.99179 0.364353 3.95686H0.366046Z" fill="#EFEEE8"/>
</svg>
