<svg width="1" height="1" viewBox="0 0 1 1" fill="none" xmlns="http://www.w3.org/2000/svg">
<path d="M0.00846354 0L0.0186198 0.00970293C0.011849 0.0446332 0.00677083 0.0795637 0 0.112554C0.00677083 0.294969 0.0135416 0.475444 0.0186198 0.655918C0.0490883 0.619047 0.0812498 0.582176 0.111719 0.543364C0.140495 0.479325 0.170963 0.415286 0.191276 0.355127C0.189583 0.419167 0.186198 0.481266 0.182813 0.545305C0.191276 0.613225 0.19974 0.681146 0.20651 0.749066C0.28099 0.764591 0.36224 0.799521 0.379167 0.66368C0.325 0.648156 0.289453 0.617107 0.313151 0.545305C0.382552 0.341543 0.523047 0.120316 0.208203 0.0194059C0.206511 0.0659799 0.204818 0.110613 0.201432 0.157187C0.177735 0.0950887 0.120183 0.0407527 0.00846354 0Z" fill="#E1067E"/>
</svg>
