<svg width="1" height="2" viewBox="0 0 1 2" fill="none" xmlns="http://www.w3.org/2000/svg">
<path d="M0.302995 0C0.304687 0.207643 0.30638 0.415285 0.308073 0.622928C0.299609 0.620988 0.292838 0.619047 0.284375 0.619047C0.247136 0.626809 0.208203 0.634572 0.169271 0.642334C0.169271 0.648156 0.169271 0.653978 0.167578 0.659799C-0.00677094 0.677265 0.00677083 0.836393 0 0.981937C0.0355468 1.09449 0.0710942 1.20704 0.104948 1.3196C0.223438 1.21093 0.191276 1.05762 0.19974 0.917897C0.218359 0.972234 0.240364 1.02463 0.264062 1.07703C0.267448 1.11972 0.269141 1.16047 0.269141 1.20316C0.331771 1.19928 0.394401 1.1954 0.457031 1.19152C0.455339 1.01299 0.453646 0.832512 0.45026 0.653978C0.404557 0.644275 0.358854 0.634572 0.313151 0.624869C0.429948 0.415285 0.445182 0.207643 0.302995 0Z" fill="#E1067E"/>
</svg>
