<svg width="1" height="4" viewBox="0 0 1 4" fill="none" xmlns="http://www.w3.org/2000/svg">
<path d="M0.13976 3.82878C0.163457 3.83654 0.188848 3.84236 0.214239 3.85012C0.248093 3.84624 0.281947 3.84236 0.315801 3.83848C0.351348 3.72981 0.386895 3.62113 0.422442 3.51246C0.417364 3.45618 0.410593 3.39797 0.405515 3.34169C0.501999 3.23496 0.439369 3.11852 0.400437 3.00403C0.400437 2.93611 0.400437 2.86819 0.398744 2.80027C0.368275 2.75951 0.344577 2.71488 0.329343 2.66637C0.325957 2.64696 0.324265 2.62949 0.320879 2.61203C0.315801 2.42961 0.309031 2.24526 0.30226 2.0609C0.310723 2.02597 0.32088 1.99104 0.329343 1.95611C0.256556 1.79892 0.422442 1.57576 0.224395 1.4535C0.224395 1.41081 0.224395 1.36811 0.224395 1.32542C0.36489 1.26914 0.28364 1.1139 0.331036 1.01687C0.369968 0.917897 0.36489 0.816987 0.339499 0.714136C0.331036 0.706374 0.322572 0.702492 0.315801 0.696671C0.371661 0.646216 0.358119 0.578295 0.329343 0.510375C0.32765 0.436632 0.32765 0.362889 0.325958 0.289147C0.317494 0.192118 0.309031 0.0970291 0.30226 0C-0.0176621 0.192118 0.2464 0.471562 0.219317 0.708314C0.192234 0.712196 0.16515 0.714136 0.138067 0.710255C0.129604 0.745185 0.119448 0.778175 0.110984 0.811165C0.10252 0.811165 0.0974419 0.82669 0.0957493 0.853858C0.0940567 0.879086 0.107598 0.898492 0.13976 0.910135C0.143145 0.914017 0.144838 0.915957 0.148223 0.919838C-0.0396675 0.981937 0.0381972 1.18376 0.0314264 1.339C0.0348116 1.37199 0.0314262 1.40304 0.0229628 1.43215C0.144838 1.49813 0.0144993 1.74653 0.204083 1.76399C0.173614 1.82997 0.144838 1.89401 0.114369 1.95999C0.109291 1.95999 0.104213 1.97552 0.10252 2.00657C0.0991349 2.03374 0.107598 2.05896 0.124525 2.08419C0.105906 2.10942 0.104213 2.14047 0.12114 2.1754C0.131296 2.20645 0.141453 2.2375 0.151609 2.26855C0.161765 2.27631 0.168536 2.28407 0.176999 2.29183C0.144838 2.30348 0.107598 2.3287 0.056817 2.36169C-0.00412009 2.65472 -0.0565945 2.94775 0.126218 3.21361C0.134681 3.24854 0.143145 3.28347 0.153301 3.3184C0.146531 3.48917 0.143145 3.65995 0.138067 3.83072L0.13976 3.82878Z" fill="#EFEEE8"/>
</svg>
