<svg width="1" height="4" viewBox="0 0 1 4" fill="none" xmlns="http://www.w3.org/2000/svg">
<path d="M0.0531175 1.80118C0.0192637 2.00494 -0.0636796 2.21258 0.0886643 2.40082C0.112362 2.41635 0.132675 2.43381 0.149602 2.45322C0.151294 2.45516 0.151295 2.4571 0.152987 2.4571C0.158065 2.46292 0.161451 2.46874 0.166529 2.4765C0.169915 2.50949 0.174992 2.54248 0.178378 2.57547L0.1733 2.56771C0.174992 2.57159 0.176685 2.57353 0.178378 2.57547C-0.0230545 2.75595 0.132675 3.01793 0.0649664 3.22945C0.0802007 3.32066 0.0751229 3.42351 0.1733 3.46232C0.176685 3.41963 0.18007 3.37694 0.183456 3.33424C0.205461 3.24303 0.230852 3.15377 0.249472 3.06256C0.256242 3.07614 0.266399 3.09167 0.27994 3.10719C0.266399 3.11302 0.25455 3.12078 0.242701 3.13436C0.21054 3.2081 0.213925 3.27797 0.264706 3.33812L0.27317 3.46038C0.271477 3.67385 0.371347 3.77281 0.550774 3.78058C0.603248 3.59816 0.420435 3.57876 0.37981 3.46038C0.450904 3.45844 0.52369 3.46232 0.544003 3.35559C0.415357 3.34395 0.366269 3.2508 0.356112 3.11496C0.37981 3.05092 0.403508 2.98494 0.425513 2.9209C0.425513 2.9209 0.427206 2.9209 0.428899 2.92284C0.471216 2.94224 0.511841 2.93642 0.549081 2.90343C0.550774 2.79476 0.552466 2.68609 0.555852 2.57547C0.596477 2.42411 0.549081 2.28439 0.515227 2.14272C0.488144 2.10391 0.469524 2.05928 0.454289 2.01464C0.450904 1.87492 0.445826 1.7352 0.444133 1.59548C0.418742 1.59354 0.395044 1.58771 0.371347 1.57607C0.388274 1.06764 0.581242 0.557263 0.359498 0.0507701C0.144524 -0.0967145 0.0954351 0.108988 0.0192633 0.262294C-0.0196691 0.41172 0.0311122 0.559203 0.0361904 0.708629C0.0802006 0.993895 -0.0399816 1.31991 0.181763 1.56249C0.166529 1.56831 0.152987 1.57607 0.139446 1.58771C0.0954354 1.64981 0.0683521 1.72356 0.0514248 1.80118H0.0531175Z" fill="#E1067E"/>
</svg>
