<svg width="1" height="2" viewBox="0 0 1 2" fill="none" xmlns="http://www.w3.org/2000/svg">
<path d="M0.358691 0.537542C0.355305 0.578295 0.367154 0.611285 0.390852 0.640393C0.517805 0.714136 0.646451 0.787878 0.773404 0.86162C0.73955 0.607403 0.866503 0.327959 0.680305 0.0989699C0.634602 0.205702 0.604133 0.343484 0.455175 0.248395C0.417935 0.258098 0.387466 0.281385 0.365461 0.316316C0.363768 0.339603 0.365462 0.36483 0.368847 0.390058C0.280826 0.357068 0.191112 0.322137 0.103092 0.289147C0.103092 0.182415 0.118326 0.0698611 0.0184561 0C0.0150705 0.16495 -0.039096 0.339603 0.0556957 0.485147C0.0658517 0.508434 0.0760083 0.52978 0.0912426 0.547245C-0.000163476 0.869383 0.0523102 1.18958 0.104784 1.50784C0.282519 1.37005 0.160643 1.15659 0.209732 0.985818C0.20804 0.836393 0.204654 0.686967 0.202961 0.537542C0.253742 0.537542 0.304524 0.537542 0.355305 0.537542H0.358691Z" fill="#E1067E"/>
</svg>
