<svg width="2" height="4" viewBox="0 0 2 4" fill="none" xmlns="http://www.w3.org/2000/svg">
<path d="M0.0645938 0.0737423C0.018891 0.170771 0.00873408 0.275564 0.00365628 0.382296C-0.00142195 0.516196 0.000270864 0.650097 0.000270864 0.785938C0.0036565 0.921779 0.00873419 1.0615 0.0730573 1.18376C0.0764425 1.18764 0.0781353 1.19152 0.0832136 1.19346C0.0713649 1.22063 0.0612086 1.2478 0.0510521 1.27885C0.0375104 1.32736 0.029047 1.37782 0.0239688 1.43021C0.0205836 1.56605 0.0425887 1.69219 0.132302 1.78922C0.370974 2.05314 -0.0962135 2.30348 0.120453 2.56546H0.11876L0.120453 2.5674C-0.0420468 2.71682 0.0425886 2.92058 0.0358177 3.103C0.128917 3.10882 0.220323 3.11464 0.313422 3.1224C0.477615 2.85654 0.386208 2.711 0.203396 2.60815C0.372667 2.60233 0.396365 2.43932 0.438682 2.29571C0.470843 2.1754 0.492849 2.0512 0.511469 1.92894C0.513162 1.98716 0.514854 2.04538 0.51824 2.10554C0.673968 2.12494 0.677354 1.98328 0.711208 1.87073C0.721365 1.69219 0.734907 1.5156 0.60626 1.38364C0.609646 1.3817 0.613032 1.3817 0.618109 1.37782C0.650271 1.33706 0.675662 1.28855 0.690896 1.23421C0.690896 1.23809 0.690896 1.23809 0.690896 1.24003C0.695974 1.31378 0.697667 1.38752 0.702745 1.46126L0.890635 1.46514C0.88725 1.54471 0.882172 1.62427 0.877094 1.70189C0.883865 1.91342 0.890635 2.12494 0.897406 2.33647C1.02605 2.37722 1.04467 2.26272 1.07683 2.16958C1.10053 1.94641 1.18347 1.71742 1.0379 1.50784C1.01928 1.49425 0.998968 1.48067 0.980349 1.46708C0.975271 1.46708 0.970193 1.46708 0.966807 1.46708C0.982042 1.46126 0.995583 1.45156 1.00913 1.43409C1.08191 1.18376 0.932953 1.0518 0.795844 0.914016L0.726443 0.840274C0.726443 0.7937 0.726443 0.745185 0.726443 0.698611C0.717979 0.523959 0.719672 0.345424 0.579177 0.223167C0.533474 0.201821 0.486078 0.19794 0.438682 0.213465C0.41837 0.225108 0.403135 0.240633 0.391286 0.258098C0.376052 0.246455 0.359125 0.240633 0.342198 0.246454C0.342198 0.238692 0.342198 0.23093 0.342198 0.223167C0.313422 0.124197 0.277875 0.0310494 0.178005 0C0.130609 0.00582188 0.0933698 0.0291088 0.0662865 0.0756829L0.0645938 0.0737423Z" fill="#E1067E"/>
</svg>
