<svg width="1" height="2" viewBox="0 0 1 2" fill="none" xmlns="http://www.w3.org/2000/svg">
<path d="M0.0179603 1.55247C0.0518145 1.731 0.158455 1.82997 0.302335 1.88819C0.322648 1.88431 0.344653 1.88237 0.366658 1.88237C0.364966 1.56993 0.363273 1.2575 0.36158 0.947006C0.364965 0.811165 0.366658 0.675323 0.368351 0.539483C0.322648 0.355127 0.522387 0.0718016 0.200773 0C0.124601 0.0232865 0.0721271 0.0795638 0.0399655 0.161068C0.00272572 0.306612 0.00611147 0.440513 0.0958249 0.56277C0.0975175 0.56471 0.100903 0.56471 0.102596 0.56665C-0.0108158 0.714135 -0.0158936 0.86162 0.0890541 1.01104C0.0772054 1.02657 0.0653563 1.04404 0.0535072 1.0615C-0.00912291 1.22063 -0.0108161 1.38558 0.0179603 1.55247Z" fill="#EFEEE8"/>
</svg>
