<svg width="1" height="1" viewBox="0 0 1 1" fill="none" xmlns="http://www.w3.org/2000/svg">
<path d="M0.479037 0.460045C0.479037 0.320322 0.479036 0.1806 0.477344 0.0428185C0.375781 0.066105 0.216666 -0.124072 0.184505 0.149551C0.172656 0.186422 0.172656 0.221352 0.182813 0.256283C0.0490884 0.322263 0.0321615 0.428995 0.0998698 0.566777C0.0694013 0.57648 0.0372397 0.582301 0.00507813 0.582301C0.00338553 0.652163 0.00169303 0.722024 0 0.793825C0.147266 0.978181 0.186198 0.859805 0.208203 0.694856C0.340235 0.685152 0.396094 0.595886 0.401172 0.452282C0.426563 0.454223 0.451953 0.458104 0.477344 0.458104L0.479037 0.460045Z" fill="#E1067E"/>
</svg>
