<svg width="2" height="2" viewBox="0 0 2 2" fill="none" xmlns="http://www.w3.org/2000/svg">
<path d="M0.648145 0.349306C0.648145 0.349306 0.639681 0.349305 0.634603 0.351246V0.349306C0.632911 0.349306 0.632911 0.351246 0.631218 0.351246C0.58213 0.357068 0.536426 0.372593 0.500879 0.399761C0.456869 0.432751 0.416244 0.471562 0.375619 0.512315C0.373926 0.492909 0.372233 0.471562 0.370541 0.454097C0.274056 0.487087 0.180958 0.518137 0.0878585 0.551127C0.0303062 0.570533 -0.0204747 0.593819 0.00830123 0.677265C0.0878586 0.669502 0.162338 0.663681 0.23851 0.657859C0.213119 0.686968 0.187728 0.714136 0.158952 0.743245C0.211426 0.867442 0.248666 0.952828 0.285905 1.04015C0.48226 1.02075 0.617676 0.894611 0.659994 0.72772C0.687077 0.617107 0.742937 0.568592 0.812338 0.52784C0.849578 0.539483 0.885124 0.545305 0.918978 0.541424C1.06624 0.525899 1.22536 0.485147 1.30492 0.287207C1.23044 0.196 1.15596 0.102851 1.07132 0C0.940984 0.106732 0.81403 0.209583 0.646452 0.349306H0.648145Z" fill="#392726"/>
</svg>
