<svg width="1" height="3" viewBox="0 0 1 3" fill="none" xmlns="http://www.w3.org/2000/svg">
<path d="M0.143223 1.31378C0.168614 1.28855 0.17877 1.25556 0.163536 1.21287C0.151687 1.02657 0.14153 0.840274 0.129681 0.655918C0.138145 0.551126 0.146609 0.444395 0.156765 0.339603C0.239708 0.215405 0.238015 0.102851 0.127989 0C0.105984 0.00388142 0.0822855 0.0077621 0.0602804 0.0116435C0.0568947 0.227049 0.0501242 0.444395 0.045046 0.659799C-0.0175841 0.884907 -0.0175839 1.10807 0.0619731 1.3293L0.0467387 1.3196C0.0399679 1.54277 0.033197 1.76593 0.0264262 1.9891C0.0433531 2.01239 0.0535097 2.03956 0.0568949 2.07255C0.0805931 2.07255 0.102598 2.07837 0.126296 2.08807C0.210931 1.85714 0.292181 1.62621 0.199082 1.37199C0.182155 1.34095 0.165228 1.32348 0.143223 1.31572V1.31378Z" fill="#E1067E"/>
</svg>
