<svg width="1" height="2" viewBox="0 0 1 2" fill="none" xmlns="http://www.w3.org/2000/svg">
<path d="M0.149278 1.32736C0.210216 1.30213 0.24407 1.49813 0.318549 1.3914C0.318549 1.10808 0.316856 0.82669 0.316856 0.543364C0.313471 0.39782 0.310085 0.252277 0.308393 0.104792C0.266075 0.0426929 0.213601 0 0.140815 0C0.0206322 0.073742 0.0494085 0.205703 0.0443302 0.322137C-0.0352272 0.653978 0.0138615 0.989699 0.0274031 1.32154C0.0290957 1.39334 0.032481 1.46514 0.0358667 1.53694C0.00878334 1.56411 0.0020124 1.5874 0.0138615 1.60681C0.0257105 1.62427 0.0375593 1.63203 0.0494083 1.63203C0.203444 1.60875 0.218679 1.81057 0.328705 1.85908C0.328705 1.74847 0.328705 1.6398 0.328705 1.53112C0.254226 1.47873 0.201752 1.40304 0.149278 1.32736Z" fill="#E1067E"/>
</svg>
