<svg width="1" height="3" viewBox="0 0 1 3" fill="none" xmlns="http://www.w3.org/2000/svg">
<path d="M0.218359 0.00194011C0.0440107 0.275563 0.24375 0.613225 0.0998698 0.890729L0.104948 0.906254C0.0981771 1.01299 0.0930991 1.11972 0.0880208 1.22645C-0.0033852 1.34483 0.120182 1.45156 0.103255 1.56605L0.0795573 1.56023C-0.00338531 1.65532 0.00677083 1.77758 0 1.89401C0.0338542 1.93088 0.0677083 1.96775 0.101562 2.00269C0.133724 1.96775 0.164193 1.93282 0.196354 1.89789C0.226823 1.89789 0.255599 1.9076 0.279297 1.92506C0.321614 2.09001 0.225131 2.29377 0.385938 2.42767C0.385938 2.2472 0.385937 2.06867 0.384245 1.88819L0.382552 1.13136C0.389323 1.09061 0.396094 1.04986 0.402865 1.0091C0.570442 0.617107 0.607682 0.258098 0.220052 0L0.218359 0.00194011Z" fill="#E1067E"/>
</svg>
