<svg width="1" height="2" viewBox="0 0 1 2" fill="none" xmlns="http://www.w3.org/2000/svg">
<path d="M0.45026 0C0.455339 0.174653 0.462109 0.349305 0.46888 0.523958C0.445182 0.525899 0.423177 0.539483 0.404557 0.56277C0.38086 0.609344 0.36224 0.657859 0.348698 0.706373C0.348698 0.688908 0.348698 0.669503 0.348698 0.650096C0.116797 0.539483 0.0338538 0.663681 0.028776 0.914016C0.0457029 0.935363 0.0626301 0.954768 0.08125 0.976115C0.0930986 0.987759 0.103255 0.999402 0.111719 1.01299C0.0897136 1.01299 0.0643231 1.01493 0.0338542 1.02075C0.0203125 1.04986 0.010156 1.07897 0 1.10807L0.546745 1.10419C0.539974 0.914016 0.53151 0.721898 0.52474 0.533661C0.52474 0.351246 0.621224 0.153306 0.451953 0.00194059L0.45026 0Z" fill="#E1067E"/>
</svg>
