<svg width="1" height="1" viewBox="0 0 1 1" fill="none" xmlns="http://www.w3.org/2000/svg">
<path d="M0.0643761 0.209583C0.0728396 0.203761 0.0829957 0.195999 0.0931522 0.188237C0.0863813 0.205703 0.0796108 0.223168 0.071147 0.242573C0.082996 0.242573 0.0999231 0.250336 0.108387 0.244514C0.125313 0.228989 0.138855 0.207643 0.152397 0.186296C0.140548 0.182415 0.125313 0.178534 0.113465 0.174653C0.130392 0.161069 0.145626 0.147484 0.143933 0.137782C0.137163 0.0892666 0.105001 0.0465741 0.0829959 0C0.0372931 0.0329898 -0.0016394 0.0543367 5.32003e-05 0.0582176C0.0169801 0.110614 0.0406783 0.161069 0.0626834 0.209583H0.0643761Z" fill="#392726"/>
</svg>
