<svg width="1" height="2" viewBox="0 0 1 2" fill="none" xmlns="http://www.w3.org/2000/svg">
<path d="M0.314782 1.6792C0.299548 1.52396 0.353714 1.35124 0.228454 1.22122C0.219991 1.19406 0.218298 1.16301 0.219991 1.1339C0.407881 0.780711 0.260616 0.392594 0.308011 0.0238825C0.274158 -0.0129888 0.243688 -0.0071668 0.221683 0.0413477C0.286006 0.309149 0.0405637 0.456633 0.0287146 0.693385C0.0219438 0.984473 0.0151728 1.27556 0.00670939 1.56471C-0.00683228 1.61128 -6.13367e-05 1.64815 0.0287146 1.67726C-0.00344697 1.71801 -0.00852488 1.76071 0.0202511 1.81116C0.108272 1.88296 0.199678 1.88296 0.292777 1.82475C0.333402 1.78205 0.340173 1.73354 0.31309 1.67726L0.314782 1.6792Z" fill="#E1067E"/>
</svg>
