<svg width="1" height="5" viewBox="0 0 1 5" fill="none" xmlns="http://www.w3.org/2000/svg">
<path d="M0.249723 3.51246C0.241259 3.5668 0.249723 3.61725 0.275113 3.66383C0.276807 3.96462 0.278499 4.26735 0.280192 4.5662C0.273421 4.5662 0.26665 4.57978 0.261572 4.60889C0.256494 4.63606 0.26665 4.66129 0.290348 4.68458C0.330973 4.77772 0.253108 4.91357 0.378369 4.97372C0.432535 4.9485 0.468082 4.9058 0.498551 4.85535C0.512093 4.87281 0.534098 4.88252 0.566259 4.87863C0.595035 4.74473 0.625504 4.61083 0.65428 4.47693C0.630582 4.47305 0.606885 4.46723 0.583186 4.46335C0.583186 4.4226 0.581494 4.38379 0.578108 4.34497C0.723681 4.22854 0.589957 4.00149 0.650895 3.85206C0.579801 3.66965 0.848942 3.49694 0.659358 3.31258C0.627197 3.32228 0.595035 3.33393 0.562874 3.34363C0.503629 3.41737 0.479931 3.49694 0.471468 3.57844C0.457926 3.52993 0.440999 3.48141 0.41053 3.43678C0.402067 3.4329 0.393603 3.42902 0.386832 3.42514C0.486702 3.33199 0.500244 3.20003 0.512093 3.06613C0.52902 3.08359 0.545947 3.09912 0.562874 3.11464C0.620426 3.05448 0.657666 2.98268 0.6729 2.89536C0.693212 2.69548 0.693212 2.49753 0.6729 2.29765C0.657666 2.21421 0.630582 2.14047 0.574723 2.08225C0.583186 2.06867 0.593343 2.05314 0.598421 2.03568C0.579801 1.91148 0.498551 1.79116 0.571337 1.65726C0.56626 1.58934 0.559488 1.51948 0.55441 1.45156C0.596728 1.1954 0.545947 0.950887 0.461311 0.714136C0.508707 0.620988 0.595035 0.545305 0.561181 0.415286C0.47316 0.372593 0.38514 0.327959 0.297119 0.285266C0.29204 0.149425 0.30389 0 0.124462 0C0.124462 0.238692 0.124462 0.477384 0.124462 0.716076C0.154931 0.716076 0.183707 0.716077 0.212483 0.712195C0.270036 0.714136 0.327587 0.718017 0.38514 0.719958C0.258186 0.89267 0.452848 1.06926 0.383447 1.24198C0.330973 1.35065 0.325895 1.43021 0.434228 1.44768C0.315738 1.55441 0.356363 1.38558 0.324202 1.34095C0.273421 1.26138 0.217561 1.19734 0.121077 1.2478C0.112613 1.38364 0.10415 1.51754 0.0973791 1.65338C0.102457 1.90566 0.109228 2.15599 0.114306 2.40827C0.0973789 2.42185 0.0804519 2.43932 0.0652177 2.45678C0.0245927 2.53053 -0.0295739 2.60039 0.0195145 2.69742C0.0228997 2.73041 0.0245929 2.76145 0.0212072 2.79444C0.102457 2.85266 0.154931 2.93999 0.198942 3.03508C0.136312 3.12046 0.160009 3.21555 0.187093 3.31064C0.190478 3.34945 0.193863 3.38632 0.197249 3.42514C0.215869 3.44842 0.234488 3.47365 0.254801 3.49888C0.253108 3.50082 0.251416 3.5047 0.251416 3.50858L0.249723 3.51246Z" fill="#EFEEE8"/>
</svg>
