<svg width="1" height="3" viewBox="0 0 1 3" fill="none" xmlns="http://www.w3.org/2000/svg">
<path d="M0.551927 1.1333C0.526536 1.10031 0.492682 1.08091 0.45375 1.07703C0.440208 1.07703 0.424974 1.08091 0.411432 1.08479C0.348802 0.92566 0.414817 0.772353 0.445286 0.615166C0.282786 0.448275 0.494375 0.145544 0.276015 0C0.106744 0.366771 0.0881244 0.739364 0.213385 1.11584C0.171067 1.10225 0.12875 1.09837 0.0847392 1.12166C0.0170309 1.1857 -0.00158881 1.27302 0.000103788 1.36811C0.0119529 1.48649 0.0576559 1.5777 0.165989 1.61069C0.213385 1.62039 0.265859 1.62233 0.301406 1.65726C0.294635 1.70383 0.292942 1.75623 0.276015 1.7931C0.260781 1.75817 0.260781 1.7116 0.257395 1.66696C0.121979 1.78922 0.184609 1.95417 0.177838 2.1036C0.167682 2.10748 0.157525 2.10748 0.147369 2.11136C0.0881245 2.14047 0.0491922 2.19092 0.0407288 2.26855C0.044114 2.31706 0.0661194 2.35393 0.106744 2.37334C0.143984 2.48589 0.181224 2.59844 0.220156 2.71682C0.29125 2.61591 0.220156 2.45872 0.342031 2.39468C0.389427 2.53052 0.284479 2.75563 0.518073 2.7828C0.502838 2.65472 0.487604 2.52664 0.470677 2.40051C0.492682 2.39468 0.514687 2.38886 0.536692 2.38304C0.533307 2.34617 0.528229 2.3093 0.524843 2.27243C0.506223 2.17346 0.487604 2.07837 0.468984 1.9794C0.468984 1.97552 0.468984 1.97164 0.468984 1.96775C0.77875 1.7737 0.673802 1.50395 0.548541 1.23227C0.541771 1.19928 0.543463 1.16629 0.553619 1.1333H0.551927Z" fill="#EFEEE8"/>
</svg>
