<svg width="1" height="2" viewBox="0 0 1 2" fill="none" xmlns="http://www.w3.org/2000/svg">
<path d="M0.093099 0.849977C0.106641 0.853858 0.118489 0.857739 0.130339 0.863561C0.12526 1.09449 0.118489 1.32736 0.113411 1.56023C0.147265 1.56023 0.182813 1.56023 0.216667 1.56023C0.214974 1.31572 0.211588 1.07314 0.209896 0.82863C0.267448 0.826689 0.326693 0.822809 0.384245 0.820868C0.38763 0.710255 0.40625 0.593819 0.309766 0.516196C0.308073 0.343484 0.304688 0.170772 0.301302 0C0.137109 0.141663 0.252214 0.345424 0.214974 0.516196C0.187891 0.522018 0.160807 0.523958 0.132031 0.525899C0.0592451 0.535602 0.0152343 0.580236 0 0.66174C0.00677083 0.741304 0.0389323 0.801462 0.093099 0.849977Z" fill="#EFEEE8"/>
</svg>
