<svg width="1" height="3" viewBox="0 0 1 3" fill="none" xmlns="http://www.w3.org/2000/svg">
<path d="M0.157422 0.442596C0.160808 0.725922 0.164193 1.01119 0.169271 1.29645C0.148958 1.37602 0.116797 1.45752 0.0981771 1.53709C0.0998697 1.45558 0.101563 1.37602 0.103255 1.29451C0.0897135 1.28675 0.0778646 1.27511 0.0643229 1.27317C0.0541669 1.27317 0.0321615 1.28287 0.0321615 1.28869C0.0203128 1.53321 0.010156 1.77772 0 2.02223C0.0118491 2.28421 0.0744794 2.38124 0.186198 2.31138C0.0609377 2.2551 0.106641 2.12314 0.0863281 2.02029L0.093099 1.72338C0.113411 1.7913 0.1625 1.85146 0.267448 1.90192C0.311459 1.70398 0.187891 1.47305 0.363932 1.30228C0.36901 1.50604 0.374089 1.70786 0.380859 1.91162C0.360547 2.14061 0.316536 2.37736 0.551823 2.60247C0.519661 2.32691 0.494271 2.12314 0.46888 1.91744C0.499349 1.53709 0.528125 1.15479 0.558594 0.776377C0.656771 0.564854 0.63138 0.353329 0.556901 0.139865C0.548438 0.110756 0.539974 0.0797067 0.533203 0.0486573C0.504427 0.00790513 0.46888 -0.0056791 0.42487 0.00208324C0.348698 0.126281 0.319922 0.262122 0.308073 0.401844C0.304688 0.38826 0.302994 0.374676 0.297917 0.363033C0.216667 0.310637 0.177734 0.353329 0.157422 0.442596Z" fill="#EFEEE8"/>
</svg>
