<svg width="1" height="1" viewBox="0 0 1 1" fill="none" xmlns="http://www.w3.org/2000/svg">
<path d="M0 0.559844C0.0541667 0.559844 0.0998698 0.54626 0.140495 0.522973C0.155729 0.631645 0.170964 0.738378 0.186198 0.847051C0.358854 0.901387 0.436719 0.804358 0.490885 0.633586C0.429948 0.544319 0.377474 0.488042 0.347005 0.420121C0.326693 0.373547 0.309765 0.325033 0.292839 0.278459C0.294531 0.268756 0.297916 0.259053 0.299609 0.24935C0.294531 0.25129 0.289453 0.253231 0.284375 0.255172C0.26237 0.187251 0.238672 0.11933 0.211589 0.0552912C0.18112 -0.0145699 0.123568 -0.0165104 0.0710938 0.0397665C0.086328 0.142617 0.101562 0.24741 0.115104 0.352201C0.0490884 0.408478 0.0101565 0.478339 0 0.559844Z" fill="#392726"/>
</svg>
