<svg width="1" height="2" viewBox="0 0 1 2" fill="none" xmlns="http://www.w3.org/2000/svg">
<path d="M0.474419 1.35647C0.465955 1.18764 0.54382 1.19346 0.64369 1.25362C0.613221 0.939244 0.567518 0.624869 0.662309 0.314375C0.652153 0.232871 0.64369 0.149425 0.564132 0.110613C0.484575 0.0213467 0.393168 0.0155248 0.294992 0.0640394C0.252674 0.0950887 0.21882 0.1339 0.191736 0.182415C0.149419 0.275563 0.122335 0.366771 0.105408 0.457978L0.110486 0C-0.0401646 0.223168 -0.0249303 0.446335 0.0850957 0.673384C0.0850957 0.914016 0.15619 1.14883 0.272986 1.37976C0.34408 1.42245 0.411789 1.42245 0.474419 1.35841V1.35647Z" fill="#EFEEE8"/>
</svg>
