<svg width="1" height="2" viewBox="0 0 1 2" fill="none" xmlns="http://www.w3.org/2000/svg">
<path d="M0.169271 0.857739C0.152344 0.822809 0.133724 0.785938 0.110026 0.751007C0.0101566 0.782057 0.030469 0.890729 0 0.966412C0.0101565 1.1333 0.0220054 1.29825 0.0321615 1.4632C0.0575522 1.43409 0.0846357 1.40304 0.110026 1.37394C0.133724 1.33901 0.152344 1.30407 0.169271 1.26914C0.174349 1.30019 0.182813 1.33318 0.191276 1.36617C0.223438 1.44574 0.277604 1.47485 0.352083 1.46126C0.345313 1.0518 0.235286 0.642334 0.36901 0.236752C0.323307 0.157188 0.279297 0.0776235 0.233594 0C0.216666 0.0776235 0.199739 0.155247 0.184505 0.23287C0.0473955 0.409464 0.216667 0.582176 0.189583 0.756829C0.18112 0.789819 0.174349 0.82475 0.167578 0.857739H0.169271Z" fill="#EFEEE8"/>
</svg>
