<svg width="1" height="1" viewBox="0 0 1 1" fill="none" xmlns="http://www.w3.org/2000/svg">
<path d="M0.216699 0.931481C0.228548 0.890729 0.237012 0.848036 0.245475 0.805344C0.262402 0.848036 0.284408 0.888788 0.313184 0.931481C0.343652 0.898492 0.372429 0.86162 0.401204 0.82863C0.402897 0.686967 0.40459 0.545305 0.40459 0.403642C0.374121 0.407523 0.345345 0.411405 0.313184 0.415285C0.297949 0.436632 0.282715 0.456038 0.270866 0.475444C0.26748 0.351246 0.250554 0.225108 0.220085 0.10091C0.193001 0.0659797 0.164225 0.0329898 0.135449 0C0.115137 0.0194056 0.096517 0.0407522 0.0762045 0.0620988C-0.00673811 0.359008 -0.0676758 0.655918 0.147298 0.921778C0.170996 0.923719 0.194694 0.9276 0.216699 0.931481Z" fill="#EFEEE8"/>
</svg>
