<svg width="1" height="1" viewBox="0 0 1 1" fill="none" xmlns="http://www.w3.org/2000/svg">
<path d="M0.309766 0.890729C0.401172 0.92372 0.441797 0.89267 0.416406 0.780116C0.446875 0.508434 0.460417 0.242574 0.318229 0C0.286068 0.00776284 0.253906 0.0155243 0.221745 0.0252276C0.177734 0.16495 0.39948 0.310494 0.214974 0.448275C0.248829 0.250336 0.274219 0.0582177 0.0236979 0.0291088C0.0186201 0.0620986 0.0118486 0.093148 0 0.122257C0.050781 0.265861 -0.0406249 0.457979 0.116797 0.564711C0.148958 0.527839 0.18112 0.490969 0.213281 0.456038C0.213281 0.452157 0.213281 0.452157 0.213281 0.450216C0.213281 0.558889 0.213281 0.669502 0.211589 0.778175C0.24375 0.815046 0.277605 0.851917 0.309766 0.888789V0.890729Z" fill="#E1067E"/>
</svg>
