<svg width="1" height="3" viewBox="0 0 1 3" fill="none" xmlns="http://www.w3.org/2000/svg">
<path d="M0.678776 1.47485C0.688933 1.50395 0.68724 1.53112 0.672005 1.55635C0.634766 1.61263 0.616146 1.6689 0.616146 1.72906C0.595833 1.69607 0.577214 1.66502 0.558594 1.63203C0.523047 1.58158 0.482422 1.54277 0.42487 1.53306C0.489193 1.48843 0.528125 1.43021 0.4875 1.33124C0.480729 1.29437 0.473958 1.2575 0.467188 1.22063C0.46888 1.04015 0.472266 0.857739 0.473958 0.677265C0.470573 0.535602 0.465495 0.393939 0.460417 0.252276C0.419792 0.207643 0.379167 0.161069 0.336849 0.116435C0.319922 0.192118 0.302995 0.26586 0.286068 0.341543C0.220052 0.227049 0.154037 0.114495 0.0880208 0C0.0643231 0.0116433 0.0389323 0.0194055 0.011849 0.0213465C0.110026 0.161069 0.0524741 0.424989 0.277604 0.467681C0.309766 0.52978 0.340234 0.593819 0.372396 0.659799C0.372396 0.66174 0.374088 0.66174 0.375781 0.663681C0.28776 0.671443 0.198047 0.677265 0.110026 0.685027C0.0727867 0.683087 0.0372398 0.679205 0 0.675324C0.00846343 0.86162 0.0152344 1.04598 0.0220052 1.23227C0.0203126 1.33318 0.0186201 1.43603 0.0169271 1.53694C0.035547 1.54277 0.0541667 1.54665 0.0744792 1.54859C0.164193 1.42245 0.209896 1.27885 0.196354 1.11584L0.203125 1.07703C0.231901 1.08673 0.258984 1.10225 0.286068 1.11972C0.286068 1.14689 0.289453 1.17405 0.296224 1.20122C0.282682 1.20898 0.270833 1.21869 0.257292 1.23033C0.198047 1.34289 0.203125 1.4535 0.267448 1.56217C0.279297 1.63009 0.291146 1.69801 0.302995 1.76399C0.299609 1.85326 0.294532 1.94447 0.382552 1.99492L0.38763 2.53635H0.428255L0.467188 2.52664C0.570443 2.56351 0.644922 2.68965 0.771875 2.66054C0.743099 2.51888 0.716016 2.37722 0.688932 2.23362L0.672005 2.21615C0.682162 2.20257 0.688932 2.18898 0.695703 2.17346C0.83112 1.94253 0.814193 1.70772 0.677083 1.47291L0.678776 1.47485Z" fill="#E1067E"/>
</svg>
