<svg width="1" height="4" viewBox="0 0 1 4" fill="none" xmlns="http://www.w3.org/2000/svg">
<path d="M0.161973 2.22003C0.287233 2.14435 0.317702 2.01627 0.302467 1.85714C0.294004 1.78534 0.28554 1.71354 0.277077 1.64174C0.255072 1.60875 0.233066 1.57382 0.211061 1.54083C0.297389 1.40887 0.375254 1.26332 0.551295 1.28079C0.490357 1.21481 0.431113 1.14883 0.370176 1.08285C0.38541 1.04986 0.392181 1.01299 0.390488 0.978056C0.368483 0.948947 0.339707 0.929541 0.307545 0.921779C0.307545 0.79176 0.305853 0.663681 0.305853 0.533661C0.294004 0.46186 0.283848 0.388118 0.271999 0.316316L0.283848 0.10091C0.224603 0.0679206 0.163665 0.0349303 0.10442 0C0.106113 0.326019 0.107806 0.652037 0.109499 0.978056C0.0265559 1.11001 -0.0293032 1.25362 0.0163996 1.42245C0.0163996 1.67667 0.0147068 1.92894 0.0130142 2.18316C0.0163994 2.3714 0.0180925 2.55963 0.0214777 2.74593C0.0214777 2.96133 0.0214777 3.17868 0.0214777 3.39409C0.0756444 3.39409 0.128118 3.39214 0.182285 3.3902C0.117962 3.22137 0.231374 3.01761 0.102728 2.86042C0.297389 2.83908 0.270306 2.6489 0.305853 2.50724C0.299082 2.47425 0.299082 2.4432 0.307545 2.41215C0.338014 2.25108 0.244915 2.24332 0.161973 2.22003Z" fill="#E1067E"/>
</svg>
