<svg width="1" height="2" viewBox="0 0 1 2" fill="none" xmlns="http://www.w3.org/2000/svg">
<path d="M0.121371 0.656146C0.121371 0.656146 0.1146 0.660027 0.112907 0.661968C0.0604334 0.726007 0.0299646 0.797809 0.0485845 0.889016C0.0553549 0.993808 0.0621263 1.10054 0.0705897 1.20533L0.25171 1.22862C0.390511 1.25191 0.409132 1.13353 0.4396 1.02292C0.448064 0.844383 0.4396 0.675552 0.25171 0.613453C0.241553 0.613453 0.231397 0.613453 0.221241 0.615394C0.275407 0.57076 0.319418 0.516424 0.334652 0.432979C0.346501 0.380583 0.351579 0.324306 0.349887 0.269969C0.321111 0.143831 0.338038 -0.0288814 0.150147 0.00410895C0.1146 0.0468016 0.0773609 0.0894946 0.0418137 0.134128C0.0384285 0.316544 -0.0902175 0.531949 0.121371 0.654205V0.656146Z" fill="#E1067E"/>
</svg>
