<svg width="1" height="1" viewBox="0 0 1 1" fill="none" xmlns="http://www.w3.org/2000/svg">
<path d="M0.400221 0.053598C0.400221 0.053598 0.410377 0.0206076 0.410377 0.0225486C0.197096 -0.0783619 0.236029 0.187499 0.148008 0.267062C0.142929 0.261241 0.137851 0.255419 0.131081 0.247657C0.109075 0.255419 0.0853776 0.25736 0.0599868 0.25736C0.0464452 0.32334 0.0345962 0.389319 0.0210546 0.45724C-0.0398829 0.596962 0.0515233 0.726982 0.0447525 0.864763C0.188633 0.767734 0.103997 0.596962 0.144622 0.465002C0.23095 0.465002 0.315586 0.463062 0.400221 0.463062C0.415456 0.562031 0.383294 0.680408 0.483164 0.746387C0.464544 0.515457 0.59319 0.2593 0.400221 0.053598Z" fill="#EFEEE8"/>
</svg>
