<svg width="1" height="1" viewBox="0 0 1 1" fill="none" xmlns="http://www.w3.org/2000/svg">
<path d="M0.00846354 0L0.0186198 0.00970293C0.013542 0.0446332 0.00677083 0.0776232 0 0.112554C0.00677083 0.294969 0.0135417 0.475444 0.0203125 0.655918C0.050781 0.619047 0.0812502 0.582177 0.111719 0.543364C0.142188 0.479325 0.172656 0.415286 0.192969 0.355127C0.189584 0.419167 0.186198 0.481265 0.184505 0.545305C0.191276 0.613226 0.19974 0.681146 0.208203 0.749066C0.282683 0.764591 0.363932 0.799522 0.379167 0.663681C0.325 0.648156 0.291146 0.617107 0.314844 0.543364C0.382552 0.341543 0.52474 0.120316 0.208203 0.0194059C0.206511 0.0659799 0.204817 0.110613 0.201432 0.157188C0.179427 0.0931478 0.121875 0.0407527 0.00846354 0Z" fill="#E1067E"/>
</svg>
