<svg width="1" height="3" viewBox="0 0 1 3" fill="none" xmlns="http://www.w3.org/2000/svg">
<path d="M0.0880735 0.770413C0.0931518 0.789819 0.0948446 0.811165 0.0982298 0.830571C0.0728395 0.875205 0.0626826 0.9276 0.050834 0.979996C0.0863807 1.09061 0.120235 1.20316 0.155782 1.31378C0.164245 1.34289 0.165938 1.37199 0.16086 1.40304C0.135469 1.39528 0.110079 1.40304 0.0846881 1.42439C0.0813029 1.61263 0.00851634 1.81251 0.165938 1.9697C0.201485 1.96581 0.240417 1.95999 0.275964 1.95611C0.428308 2.09971 0.28612 2.43544 0.546798 2.50918C0.528178 2.38692 0.502787 2.26466 0.490938 2.14241C0.470626 1.96193 0.577266 2.06284 0.636511 2.06284C0.636511 1.96193 0.636511 1.86102 0.636511 1.75817C0.492631 1.40692 0.790548 1.03433 0.600964 0.683086C0.585729 0.659799 0.568803 0.644275 0.54849 0.634572C0.556954 0.525899 0.565417 0.419166 0.573881 0.312434C0.565417 0.279444 0.565418 0.244514 0.572188 0.211524C0.584037 0.112554 0.556954 0.0679204 0.46724 0.120316C0.46724 0.287207 0.46724 0.456038 0.465548 0.624869H0.463855C0.352136 0.72966 0.343672 0.877145 0.335209 1.02463C0.348751 1.25362 0.321668 1.47485 0.264115 1.69413C0.264115 1.66308 0.262423 1.63397 0.26073 1.60486C0.255652 1.56799 0.248881 1.535 0.237032 1.50201C0.311511 1.30019 0.228568 1.06732 0.289506 0.863561C0.275964 0.830571 0.269194 0.79564 0.272579 0.756829C0.382605 0.655918 0.399532 0.551126 0.275964 0.448275C0.253959 0.518137 0.231954 0.587998 0.208256 0.657859C0.20487 0.584116 0.199793 0.508434 0.196407 0.434691C0.135469 0.29691 0.0762247 0.161069 0.0982298 0C-0.0676554 0.23287 0.0271359 0.498731 0.0254433 0.754888C0.0457558 0.762651 0.0677611 0.768472 0.0897662 0.772353L0.0880735 0.770413Z" fill="#E1067E"/>
</svg>
