<svg width="1" height="3" viewBox="0 0 1 3" fill="none" xmlns="http://www.w3.org/2000/svg">
<path d="M0.584023 0.705718L0.599257 1.37134C0.570481 1.39657 0.562018 1.41985 0.572174 1.44508C0.573867 1.44896 0.577252 1.4509 0.578945 1.45478C0.572174 1.45284 0.565403 1.44896 0.558632 1.44896C0.431679 1.47031 0.445221 1.68183 0.309804 1.69154C0.279335 1.69542 0.247173 1.70124 0.216705 1.70512C0.215012 1.74393 0.211627 1.78274 0.211627 1.82155C0.193007 1.85066 0.181158 1.88171 0.17608 1.91276C0.17608 1.84096 0.174387 1.76916 0.174387 1.6993C0.125299 1.66825 0.0846737 1.67601 0.0508195 1.72841C-0.020274 1.88365 -0.00165456 2.0486 0.0169653 2.21161C0.0372778 2.26401 0.0643612 2.30864 0.0982153 2.34745H0.13884L0.181158 2.33969L0.179465 2.09906C0.179465 2.09906 0.179465 2.10876 0.179465 2.11458C0.370742 2.19803 0.279335 2.44448 0.38259 2.57838C0.628033 2.61525 0.58233 2.43866 0.551861 2.27371C0.551861 2.27371 0.580637 2.26595 0.595872 2.26207C0.567095 2.32805 0.690663 2.2446 0.641575 2.28924C0.827772 2.23296 0.848085 2.09712 0.778684 1.91858C0.721132 1.79245 0.705897 1.65078 0.655116 1.52076C0.651731 1.51494 0.648345 1.51106 0.64496 1.50524C0.670351 1.513 0.694049 1.50912 0.721132 1.48971C0.765143 1.42956 0.785455 1.35775 0.795611 1.28207C0.809153 1.16176 0.802382 1.04144 0.80746 0.921122C0.810845 0.851262 0.800689 0.781401 0.793918 0.71154C0.800689 0.676609 0.80746 0.641678 0.814231 0.604807C0.868398 0.416571 0.892095 0.230274 0.812538 0.0420372C0.731288 -0.0161801 0.651731 -0.0142396 0.572174 0.0497996C0.473997 0.271027 0.480768 0.490313 0.584023 0.705718Z" fill="#E1067E"/>
</svg>
