<svg width="1" height="2" viewBox="0 0 1 2" fill="none" xmlns="http://www.w3.org/2000/svg">
<path d="M0.167578 0.820383C0.19974 0.71365 0.22513 0.604977 0.235286 0.500186C0.357161 0.339117 0.330078 0.176108 0.208203 0.0130989C0.208203 0.0790786 0.208203 0.143118 0.208203 0.207158C0.186198 0.137296 0.150651 0.069376 0.0947917 0.00145535C0.071094 -0.000485116 0.0457029 -0.000485116 0.0220052 0.00145535C0.0152339 0.0402676 0.00677083 0.0771381 0 0.114009C0.00846387 0.370167 0.01862 0.628265 0.028776 0.884422C0.028776 1.20462 0.0287759 1.52482 0.0270833 1.84501C0.179427 1.69559 0.0660157 1.48212 0.121875 1.31135C0.115104 1.16969 0.106641 1.02803 0.0998698 0.886363C0.126953 0.878601 0.150651 0.857254 0.169271 0.820383H0.167578Z" fill="#E1067E"/>
</svg>
