<svg width="1" height="3" viewBox="0 0 1 3" fill="none" xmlns="http://www.w3.org/2000/svg">
<path d="M0.397209 0C0.300724 0.0718016 0.251636 0.227048 0.109449 0.225108C0.14161 0.29885 0.175464 0.370652 0.205933 0.444394C0.202548 0.479325 0.19747 0.512315 0.192391 0.545305C-0.000577232 0.729661 0.146688 0.904313 0.197469 1.08091C0.177157 1.10613 0.165308 1.13524 0.167001 1.16435C0.168693 1.19928 0.173771 1.21675 0.17885 1.21675C0.226245 1.37976 0.182235 1.51948 0.102678 1.65144C0.109449 1.72712 0.114527 1.8028 0.121298 1.87655C-0.257869 2.28989 0.380282 2.01627 0.300725 2.22779C0.400595 2.18316 0.380282 2.06672 0.409058 1.98134L0.380282 1.98522C0.388745 1.83579 0.397209 1.68831 0.407365 1.54083C0.380282 1.39722 0.353198 1.25556 0.324423 1.11196C0.346428 1.07314 0.368433 1.03239 0.390438 0.995521C0.251636 0.900432 0.444605 0.776235 0.368433 0.675324C0.34812 0.599641 0.370126 0.508433 0.324423 0.440513C0.398902 0.446334 0.436141 0.421107 0.402287 0.326019C0.415829 0.217346 0.56648 0.104792 0.395516 0.00194059L0.397209 0Z" fill="#E1067E"/>
</svg>
