<svg width="1" height="1" viewBox="0 0 1 1" fill="none" xmlns="http://www.w3.org/2000/svg">
<path d="M0.132993 0.675348C0.134686 0.576378 0.136379 0.475467 0.138071 0.376497C0.151613 0.51816 0.170232 0.659823 0.138071 0.803426C0.132993 0.836416 0.134686 0.871347 0.141457 0.904337C0.173618 0.937327 0.207472 0.972257 0.239634 1.00525C0.439373 1.01301 0.413982 0.826713 0.447837 0.690872C0.4563 0.537566 0.457993 0.386201 0.435988 0.236775C0.403826 0.116459 0.369972 -0.00191693 0.23117 2.35343e-05C0.200701 0.00778588 0.16854 0.0155484 0.136378 0.0252512C0.136378 0.0621224 0.134686 0.0989933 0.132993 0.135865C0.132993 0.139746 0.132993 0.143627 0.132993 0.147508C0.0246597 0.32022 -0.102294 0.492933 0.132993 0.675348Z" fill="#E1067E"/>
</svg>
