<svg width="2" height="1" viewBox="0 0 2 1" fill="none" xmlns="http://www.w3.org/2000/svg">
<path d="M0.814222 0.244514C0.71943 0.359009 0.604326 0.456038 0.484143 0.531721C0.418128 0.572473 0.321643 0.547246 0.238701 0.556948C0.198076 0.560829 0.143909 0.558889 0.116826 0.587998C0.0677368 0.638453 0.0169562 0.704433 0.00172148 0.772353C-0.0152054 0.851918 0.096513 0.964471 0.1693 0.954769C0.267477 0.943125 0.384274 0.954768 0.460445 0.898492C0.658493 0.752947 0.829456 0.805343 1.01227 0.921779C1.06644 0.954768 1.13584 0.954768 1.19508 0.968353C1.17815 0.712195 1.16461 0.487087 1.15107 0.279444C1.22216 0.19794 1.28141 0.130019 1.39651 0C1.04274 0.0116433 0.96318 0.0640395 0.812529 0.244514H0.814222Z" fill="#392726"/>
</svg>
