<svg width="1" height="1" viewBox="0 0 1 1" fill="none" xmlns="http://www.w3.org/2000/svg">
<path d="M0.488836 0.911984C0.480372 0.768381 0.578549 0.630599 0.512534 0.481174C0.498992 0.411313 0.48545 0.341452 0.471909 0.271591C0.44821 0.271591 0.42282 0.269649 0.397429 0.261888C0.392351 0.267709 0.38558 0.273531 0.37881 0.281293C0.285711 0.197848 0.326336 -0.0815964 0.102898 0.0231955L0.113054 0.0561855C-0.0900706 0.271591 0.0470387 0.541332 0.0250336 0.787786C0.129981 0.715985 0.0961271 0.591788 0.113054 0.486996C0.202768 0.486996 0.292482 0.488936 0.382195 0.490877C0.426206 0.626718 0.336492 0.809133 0.487143 0.910043L0.488836 0.911984Z" fill="#E1067E"/>
</svg>
