<svg width="2" height="7" viewBox="0 0 2 7" fill="none" xmlns="http://www.w3.org/2000/svg">
<path d="M0.179597 2.77526H0.228685H0.276081C0.328555 2.87229 0.362409 2.82572 0.391185 2.75585C0.396264 2.73839 0.399649 2.72092 0.404727 2.70346C0.399649 2.87423 0.396264 3.04694 0.392878 3.21771C0.392878 3.22742 0.394571 3.23712 0.394571 3.24488C0.370873 3.37684 0.338711 3.50298 0.189753 3.55149C0.142357 3.74749 0.33194 3.74749 0.382722 3.86199C0.526602 3.74943 0.572305 3.92797 0.662019 3.98425C0.695873 3.94932 0.722956 3.90856 0.743269 3.86199C0.802514 3.66017 0.824519 3.45641 0.765274 3.24876C0.717878 3.10516 0.658633 2.97514 0.50629 2.96932C0.50629 2.87229 0.482592 2.78108 0.40642 2.69376C0.452123 2.51134 0.48767 2.32699 0.501211 2.13875C0.541836 2.19114 0.59431 2.22413 0.662019 2.22025L0.836368 2.22607C0.807592 2.42984 0.887149 2.57732 1.01918 2.69958C1.03272 2.70928 1.04796 2.7151 1.0615 2.72092C1.05473 2.81213 1.04796 2.90334 1.03949 2.99455C1.11059 3.04694 1.23415 3.06635 1.14952 3.21771C1.04626 3.21771 0.943008 3.21771 0.839753 3.21577C0.846524 3.32445 0.853295 3.43312 0.858373 3.54179C0.929466 3.63882 0.853295 3.80571 0.943008 3.89304C0.921003 3.90662 0.91254 3.92603 0.917618 3.94543C0.924389 3.9726 0.932852 3.98813 0.943008 3.98813C0.948087 4.02112 0.95655 4.05411 0.970092 4.08516C0.926081 4.23264 0.882071 4.37818 0.83806 4.52567C0.895612 4.66151 0.946394 4.80123 1.03949 4.91185C1.05473 4.91185 1.06827 4.90991 1.08012 4.90602L1.13428 4.98753C1.09366 5.07291 1.02426 5.08262 0.949779 5.08456C0.992097 5.16024 1.03441 5.23786 1.07673 5.31355C1.06658 5.42028 1.05811 5.52701 1.04796 5.63374L1.03611 6.07814C1.04288 6.11307 1.04288 6.148 1.03611 6.18293C1.04457 6.39833 1.12582 6.2916 1.19691 6.2295C1.23923 6.10919 1.30863 5.99275 1.24092 5.85497L1.32725 5.63568C1.30017 5.56388 1.27309 5.49014 1.24431 5.41834C1.28155 5.34072 1.31879 5.26309 1.35603 5.18741C1.34079 5.07874 1.32725 4.97006 1.31202 4.86139C1.28663 4.78959 1.26293 4.71779 1.23754 4.64793C1.26801 4.46163 1.29678 4.27727 1.32725 4.09292C1.33741 3.95902 1.3171 3.84646 1.16983 3.84646C1.26801 3.77854 1.34418 3.69122 1.35941 3.55149C1.34757 3.5088 1.33741 3.46611 1.32556 3.42342C1.33402 3.27981 1.34418 3.13427 1.35264 2.99067L1.32725 2.66659C1.31202 2.66659 1.29678 2.66271 1.28155 2.65882C1.30525 2.62778 1.32556 2.59284 1.34587 2.55403C1.34757 2.51716 1.35095 2.47835 1.35264 2.44148C1.34249 2.3658 1.33233 2.29011 1.32048 2.21637C1.32217 1.99903 1.32387 1.78168 1.32556 1.56627L1.34757 1.01903C1.34926 0.758991 1.35095 0.498952 1.35095 0.238914C1.3391 0.205924 1.33572 0.170993 1.34249 0.136063C1.10551 -0.17249 1.05981 0.116657 0.97517 0.287428C0.958242 0.368933 0.95655 0.450437 0.968399 0.531942C0.978555 0.566872 0.987019 0.603744 0.99379 0.638674C0.980248 0.654199 0.966706 0.671665 0.953165 0.685248C0.8753 0.795862 0.941316 0.904535 0.95655 1.01321C0.958243 1.13935 0.927774 1.27519 0.997175 1.38192C0.997175 1.42073 0.997175 1.45954 1.00225 1.49835C1.00564 1.51 1.00733 1.52164 1.00902 1.53523C0.948086 1.68077 0.953164 1.82437 1.03272 1.96798C1.02764 1.97574 1.02257 1.9835 1.01749 1.9932C1.01241 2.01067 1.01241 2.02813 1.0141 2.0456C0.946394 2.06889 0.895612 2.11546 0.860066 2.18338C0.860066 1.79526 0.860066 1.40521 0.861758 1.01709C0.814362 0.966634 0.761889 0.982158 0.768659 1.04814C0.807592 1.40327 0.648477 1.32952 0.475821 1.23638C0.475821 1.26548 0.472435 1.29459 0.472435 1.32176C0.452123 1.25384 0.419961 1.18786 0.372566 1.12576C0.313321 1.12576 0.255769 1.1277 0.194831 1.12964C0.182982 1.20339 0.30655 1.26548 0.210066 1.34505C0.264232 1.55851 0.304857 1.77198 0.26254 1.99514C0.26254 2.03784 0.26254 2.08053 0.26254 2.12322C0.264232 2.29982 0.267617 2.47641 0.26931 2.65106C0.20668 2.57538 0.14405 2.4997 0.0814198 2.42401C-0.111549 2.62583 0.086498 2.68211 0.182982 2.77526H0.179597Z" fill="#E1067E"/>
</svg>
