<svg width="4" height="3" viewBox="0 0 4 3" fill="none" xmlns="http://www.w3.org/2000/svg">
<path d="M0 2.3811C0.42487 2.24138 0.73125 1.83385 1.16966 1.7213C1.21198 1.78534 1.25768 1.85132 1.30169 1.91924C1.28815 1.81833 1.27292 1.71548 1.25937 1.61845C1.30169 1.56605 1.33724 1.52142 1.37109 1.47679C1.42526 1.44186 1.47604 1.40498 1.52682 1.36617C1.6487 1.32154 1.7875 1.31572 1.86198 1.16629C1.88229 1.12166 1.90937 1.08285 1.93815 1.04986C1.96016 1.03433 1.98385 1.01687 2.00755 1.00134C2.28177 0.799522 2.56276 0.607404 2.83021 0.390058C2.86237 0.362889 2.88945 0.326018 2.91823 0.281385C2.95547 0.258097 2.99102 0.236752 3.02656 0.207643C3.0401 0.195999 3.04687 0.147485 3.03672 0.124198C3.03333 0.118376 3.02318 0.112554 3.01302 0.108673C3.02995 0.075683 3.05195 0.0388117 3.07396 0C2.57969 0.221227 2.21406 0.500672 1.86536 0.807284C1.79935 0.865502 1.76888 0.979996 1.69948 1.02851C1.63854 1.07314 1.53529 1.03627 1.47096 1.07703C1.26615 1.21093 1.06471 1.35841 0.863281 1.50201C0.854818 1.37976 0.844661 1.27108 0.836198 1.13912C1.00208 1.11196 1.14766 1.11002 1.27969 1.05956C1.39818 1.01299 1.50651 0.919838 1.61146 0.836393C1.72487 0.747126 1.82982 0.642334 1.96354 0.522018C1.5099 0.471563 1.50651 0.46574 1.36263 0.570532C0.998698 0.836393 0.639844 1.11002 0.282682 1.3817C0.265755 1.39334 0.262369 1.42827 0.250521 1.4632C0.325 1.43992 0.391016 1.42051 0.460417 1.39722C0.528125 1.47679 0.595833 1.55635 0.665234 1.63785C0.583984 1.69219 0.497656 1.74071 0.414714 1.79116C0.465495 1.80475 0.521354 1.83579 0.565365 1.82027C0.614453 1.80086 0.660156 1.7737 0.705859 1.74653C0.4875 1.99298 0.191276 2.10748 0.00169271 2.37916L0 2.3811Z" fill="#392726"/>
</svg>
