<svg width="1" height="3" viewBox="0 0 1 3" fill="none" xmlns="http://www.w3.org/2000/svg">
<path d="M0.187702 1.09643C0.158926 1.04209 0.138614 0.950888 0.0979889 0.939244C0.0302806 0.915957 0.00150453 0.995521 0.00150453 1.06926C-0.00188067 1.22645 0.00150453 1.38364 0.00150453 1.53889C0.052286 1.44768 0.103067 1.35841 0.155541 1.2672C0.172468 1.37005 0.197859 1.46708 0.253718 1.55441C0.257104 1.55829 0.262181 1.56023 0.26726 1.56217C0.257104 1.5777 0.252025 1.59516 0.257103 1.61263C0.262181 1.63785 0.268953 1.6495 0.275723 1.6495C0.389135 1.81251 0.0725982 2.17928 0.477156 2.20257C0.472078 2.16764 0.475463 2.13076 0.483926 2.09583C0.3045 1.95999 0.531322 1.73294 0.421296 1.58352C0.558405 1.51172 0.499161 1.339 0.524551 1.20899C0.521166 1.16047 0.500854 1.12554 0.461921 1.10419C0.465306 0.923719 0.468692 0.741304 0.472077 0.558889L0.47377 0.333781C0.507624 0.258098 0.541478 0.184356 0.575333 0.110613C0.57364 0.0756831 0.570254 0.0388115 0.566869 0.00388117C0.502546 0.00194021 0.438223 0.00194046 0.3739 0C0.245255 0.075683 0.199551 0.182415 0.260489 0.3299C0.189395 0.318256 0.158926 0.355127 0.179239 0.446335C0.219864 0.593819 0.260489 0.741304 0.301114 0.888789C0.282494 0.972234 0.287572 1.07509 0.18601 1.10031L0.187702 1.09643Z" fill="#E1067E"/>
</svg>
