<svg width="1" height="2" viewBox="0 0 1 2" fill="none" xmlns="http://www.w3.org/2000/svg">
<path d="M0.643629 1.43021C0.69441 1.12748 0.745191 0.824749 0.65717 0.520077C0.670712 0.502612 0.682561 0.483206 0.691024 0.461859C0.780738 0.322137 0.729957 0.157187 0.726571 0C0.63178 0.0659797 0.647014 0.172712 0.645321 0.275563C0.562379 0.306612 0.477743 0.339602 0.393108 0.370652C0.396493 0.345424 0.398186 0.324077 0.396493 0.300791C0.376181 0.267801 0.347405 0.246454 0.311858 0.236751C0.171363 0.326018 0.142587 0.195999 0.0985765 0.0950885C-0.0774652 0.312434 0.0427172 0.576354 0.0105557 0.816987C0.130738 0.747126 0.252613 0.677264 0.372795 0.607403C0.3948 0.580235 0.40665 0.549186 0.404957 0.510374C0.452353 0.510374 0.501441 0.510374 0.55053 0.510374C0.548837 0.652037 0.545451 0.791759 0.543759 0.935362C0.589462 1.09643 0.474358 1.30019 0.641936 1.43021H0.643629Z" fill="#EFEEE8"/>
</svg>
