<svg width="1" height="3" viewBox="0 0 1 3" fill="none" xmlns="http://www.w3.org/2000/svg">
<path d="M0.409635 0.855799C0.573828 0.673383 0.440104 0.442454 0.46888 0.238692C0.450261 0.260039 0.431641 0.281385 0.414714 0.302732C0.402865 0.188237 0.375781 0.0815049 0.291146 0C0.258985 0.00776235 0.226823 0.0174658 0.194661 0.0252276C0.167578 0.0465742 0.159115 0.069861 0.167578 0.0912076C0.174349 0.114495 0.182812 0.126138 0.191276 0.126138C0.165885 0.607404 0.269141 1.1139 0 1.55247C0.0186199 1.75235 -0.0575517 1.99298 0.184505 2.09195C0.297917 1.9891 0.384245 1.86684 0.396094 1.69413C0.335156 1.41469 0.38086 1.13524 0.411328 0.855799H0.409635Z" fill="#E1067E"/>
</svg>
