<svg width="1" height="5" viewBox="0 0 1 5" fill="none" xmlns="http://www.w3.org/2000/svg">
<path d="M0.392708 3.40961C0.385938 3.43872 0.379167 3.46977 0.372396 3.50082C0.358854 3.46977 0.341928 3.43678 0.321615 3.40573C0.316537 3.2369 0.313151 3.06613 0.308073 2.8973C0.311459 2.8973 0.313151 2.89535 0.314844 2.89535C0.429948 2.81191 0.438412 2.67219 0.458724 2.54023C0.465495 2.49559 0.467187 2.45096 0.463802 2.40827C0.455338 2.3714 0.438412 2.34035 0.414714 2.31512C0.416406 2.31512 0.419792 2.31318 0.419792 2.31318C0.451953 1.89789 0.458724 1.47873 0.504427 1.06538C0.514583 0.989699 0.519662 0.912076 0.521354 0.836393C0.521354 0.679205 0.524739 0.523958 0.465495 0.376474C0.443489 0.345424 0.421484 0.324078 0.397786 0.306613C0.426562 0.283326 0.446875 0.250336 0.451953 0.205702C0.441797 0.0931479 0.397787 0.0174656 0.294531 0C0.19974 0.0329903 0.104948 0.0679208 0.0101563 0.102851C0.0236979 0.188237 0.0253907 0.279444 0.108333 0.322137C-0.0558593 0.690849 0.116797 1.05374 0.120182 1.41857C0.152344 1.61845 0.138802 1.80669 0.0253906 1.97552L0.028776 2.18704C0.120183 2.17734 0.174349 2.22973 0.218359 2.30348C0.103255 2.22779 0.0152343 2.22003 0.00677083 2.41215C0.0135417 2.5247 0.0203124 2.63532 0.0253906 2.74593C0.0169272 2.88953 0.00846343 3.0312 0 3.1748C0.0118491 3.20779 0.0203124 3.24466 0.0253906 3.27959C0.093099 3.28541 0.132031 3.26601 0.155729 3.23884C0.147266 3.42319 0.091406 3.60949 0.115104 3.79579C0.0846356 3.79773 0.0558593 3.81519 0.0270833 3.854C0.0236977 3.88505 0.0220051 3.91804 0.0203125 3.95103C0.010156 4.10822 0.0457033 4.25571 0.116797 4.38961C0.218359 4.35468 0.272526 4.26347 0.316536 4.16256C0.34362 4.13151 0.348698 4.10628 0.335156 4.08493C0.325 4.07135 0.316537 4.06553 0.308073 4.06165C0.316537 4.05777 0.326693 4.05583 0.336849 4.05C0.352083 4.02284 0.365625 3.99567 0.377474 3.9685C0.385937 3.99955 0.394401 4.03254 0.40625 4.06165C0.435026 4.06359 0.463802 4.06165 0.492578 4.05777C0.499349 3.87729 0.507813 3.69682 0.514583 3.51634C0.602604 3.36886 0.609375 3.22137 0.507813 3.07583C0.318229 3.12046 0.457031 3.31064 0.392708 3.40961Z" fill="#E1067E"/>
</svg>
