<svg width="1" height="4" viewBox="0 0 1 4" fill="none" xmlns="http://www.w3.org/2000/svg">
<path d="M0.506419 1.02463C0.558893 0.805344 0.514883 0.555007 0.514883 0.318256C0.489492 0.285266 0.459024 0.26586 0.421784 0.258098C0.418399 0.172712 0.416705 0.0873263 0.41332 0C0.323607 0.135841 0.2322 0.145544 0.140794 0.00194059C0.144179 0.13196 0.0950911 0.275563 0.176341 0.386177C0.130638 0.440513 0.0950909 0.498731 0.0730858 0.570532C0.0578516 0.648156 0.0629294 0.721898 0.0866275 0.79564C0.0900127 0.801462 0.0917054 0.807284 0.095091 0.813106C-0.0454039 1.02269 0.0138409 1.27885 0.0053775 1.51754C0.0206118 1.64756 0.0392317 1.7737 0.147565 1.84356C0.13233 1.85132 0.115404 1.86102 0.095091 1.88043C0.0104554 2.06478 0.0849349 2.19286 0.208503 2.30348C0.15095 2.43738 0.110325 2.57322 0.157721 2.72458C0.132331 2.9885 0.0595443 3.2563 0.223737 3.49694C0.36931 3.25824 0.311758 2.9885 0.304987 2.72846C0.335455 2.65666 0.365924 2.5868 0.396393 2.515C0.266054 2.35005 0.347304 2.14435 0.311758 1.95999C0.323607 1.92312 0.333763 1.88625 0.345612 1.84938C0.340534 1.55829 0.337148 1.2672 0.33207 0.976115C0.398086 0.972234 0.455638 1.23809 0.506419 1.02269V1.02463Z" fill="#E1067E"/>
</svg>
