<svg width="1" height="2" viewBox="0 0 1 2" fill="none" xmlns="http://www.w3.org/2000/svg">
<path d="M0.18112 0.195999C0.18112 0.275563 0.196354 0.360949 0.174349 0.434691C0.167578 0.362889 0.160808 0.291088 0.152344 0.219286C0.0677086 0.248395 0.0135417 0.306612 0 0.411404C0.0930991 0.504553 0.0660156 0.630691 0.0660156 0.749066C0.0677082 0.9276 0.0710934 1.10613 0.0727865 1.28273C0.165885 1.18958 0.182813 1.07897 0.179427 0.966412C0.184505 0.972234 0.187891 0.978056 0.192969 0.985818C0.309766 0.719957 0.286067 0.459919 0.294531 0.207643C0.264062 0.139723 0.233594 0.0698611 0.203125 0C0.196354 0.0659797 0.189583 0.13196 0.182812 0.195999H0.18112Z" fill="#E1067E"/>
</svg>
