<svg width="2" height="4" viewBox="0 0 2 4" fill="none" xmlns="http://www.w3.org/2000/svg">
<path d="M0.832812 2.41812C0.826042 2.42782 0.820964 2.44141 0.815885 2.45111C0.785417 2.54038 0.76849 2.63159 0.756641 2.72279C0.739713 2.71891 0.717708 2.71503 0.690625 2.71309C0.692318 2.61412 0.66862 2.51321 0.616146 2.41036C0.597526 2.39483 0.577213 2.38125 0.560286 2.37155C0.563672 2.36767 0.567057 2.36572 0.56875 2.3599C0.585677 2.34438 0.602604 2.32885 0.619531 2.31139C0.663541 2.21824 0.660156 2.12121 0.633073 2.02418C0.626302 2.00478 0.619532 1.98537 0.611068 1.96791C0.655078 1.90193 0.678776 1.834 0.680469 1.76608C0.690625 1.92327 0.656771 2.08822 0.677083 2.24347C0.87513 2.02224 0.721093 1.73698 0.783724 1.49246C0.77526 1.39155 0.743099 1.31199 0.677083 1.27123C0.678776 1.25765 0.680469 1.24407 0.680469 1.23048C0.678776 1.17809 0.675391 1.12375 0.670313 1.07135C0.622917 0.919988 0.672005 0.747276 0.585677 0.607554C0.555209 0.570682 0.523047 0.533811 0.492578 0.49694C0.490885 0.572623 0.489192 0.650247 0.485807 0.72787C0.463802 0.648306 0.428255 0.570683 0.379167 0.493059C0.319922 0.460069 0.258984 0.42708 0.19974 0.394089C0.198047 0.463951 0.194662 0.531871 0.192969 0.601732C-0.0220049 0.807434 0.230208 1.16644 0 1.36632C0.0016926 1.44201 0.00507823 1.51769 0.00677083 1.59531C0.0118491 1.77967 0.016927 1.96402 0.0220052 2.14838C0.0406251 2.14644 0.057552 2.14256 0.0761719 2.13868C0.0964844 2.12121 0.11849 2.10375 0.138802 2.08822C0.147266 2.07076 0.154036 2.05523 0.160807 2.03971C0.165885 2.0727 0.174349 2.10763 0.184505 2.14062C0.363933 1.98343 0.284375 1.77579 0.279297 1.57979C0.308073 1.55456 0.333463 1.52739 0.357161 1.49634C0.399479 1.44007 0.428255 1.37603 0.438411 1.30034C0.440104 1.25571 0.436718 1.21108 0.431641 1.16838C0.45026 1.13539 0.465495 1.10434 0.477344 1.07329C0.473959 1.17032 0.472266 1.26929 0.46888 1.36826C0.479037 1.40319 0.490885 1.44007 0.502734 1.475C0.492578 1.58367 0.482422 1.69234 0.472266 1.80101C0.331771 1.96402 0.416406 2.17361 0.379167 2.35796C0.411328 2.39483 0.441797 2.43559 0.472266 2.4744C0.501042 2.5986 0.438411 2.69368 0.389323 2.78877C0.50612 2.86057 0.477344 2.99059 0.490885 3.10509C0.52474 3.07598 0.558593 3.04881 0.592448 3.0197C0.633073 2.95954 0.658463 2.89745 0.673698 2.83535C0.66862 2.89551 0.663542 2.9576 0.656771 3.01776C0.66862 3.08956 0.677083 3.16137 0.688932 3.23123C0.697396 3.20794 0.707552 3.18465 0.717708 3.16137C0.710938 3.18465 0.702474 3.20794 0.688932 3.23123C0.714323 3.2778 0.739713 3.32437 0.765104 3.36901C0.93776 3.22735 1.06641 3.04687 1.1375 2.814C1.16966 2.92073 1.11211 3.07016 1.24922 3.12644C1.2526 3.0915 1.25937 3.05851 1.26615 3.02358C1.37279 2.8664 1.38125 2.6898 1.33385 2.50545C1.33047 2.49186 1.32539 2.48216 1.31862 2.46858C1.43034 2.46081 1.53529 2.43947 1.53529 2.24735C1.56745 2.21242 1.6013 2.17555 1.63516 2.14062C1.66732 2.10569 1.69271 2.06493 1.70794 2.01642C1.72995 1.89028 1.71641 1.77385 1.61823 1.68846C1.51159 1.65353 1.44388 1.76414 1.35078 1.78355L1.3474 1.78549C1.34401 1.71175 1.3237 1.64577 1.28138 1.58755C1.26615 1.57397 1.2526 1.5662 1.23568 1.55844C1.23568 1.25183 1.23737 0.945216 1.23906 0.638603C1.26953 0.590089 1.29323 0.531871 1.31523 0.473653C1.34401 0.359159 1.33893 0.246605 1.28815 0.139872C1.19844 0.0176153 1.09687 -0.054186 0.959766 0.0506054C1.14089 0.213615 0.878516 0.341694 0.934375 0.493059C0.946224 0.710405 0.959766 0.927751 0.973307 1.1451H0.963151C1.01224 1.1645 1.04609 1.1548 1.07318 1.12957C1.08333 1.25765 1.04948 1.39737 1.10703 1.51381C1.06471 1.48858 1.0224 1.45753 0.969922 1.475C0.934375 1.47694 0.898828 1.48082 0.863281 1.4847C0.868359 1.66129 0.87513 1.83789 0.881901 2.01448C0.866667 2.02224 0.84974 2.03 0.834505 2.03971C0.761719 2.17167 0.765104 2.29781 0.83112 2.41812H0.832812Z" fill="#E1067E"/>
</svg>
