<svg width="1" height="3" viewBox="0 0 1 3" fill="none" xmlns="http://www.w3.org/2000/svg">
<path d="M0.192191 0.768647C0.197269 0.887023 0.202347 1.00346 0.205733 1.12183C0.205733 1.3353 0.205733 1.54682 0.205733 1.76029C0.0127641 2.04361 0.148181 2.09213 0.375004 2.07466C0.412244 1.96987 0.449483 1.86508 0.488415 1.76223C0.478259 1.67684 0.478259 1.58757 0.397009 1.541C0.393624 1.46726 0.390238 1.39546 0.38516 1.32171L0.390238 1.32754C0.390238 1.32754 0.390238 1.32171 0.390238 1.31783C0.454561 1.24991 0.520577 1.18199 0.5849 1.11407C0.561202 0.997636 0.617061 0.850152 0.486723 0.774469C0.48503 0.739539 0.48503 0.704608 0.486723 0.667737C0.468103 0.636687 0.444405 0.61146 0.413936 0.590113C0.410551 0.582352 0.407165 0.572648 0.40378 0.564886C0.398702 0.376649 0.391931 0.188412 0.38516 0.00211574C0.356384 -0.00176568 0.325915 0.00017491 0.295447 0.00405633L0.292061 0.000174685C0.261593 0.0176403 0.249744 0.0409276 0.253129 0.0661551C0.254822 0.0758579 0.256514 0.0836202 0.2599 0.0894421C0.249743 0.0855612 0.239587 0.08168 0.227738 0.0777986C-0.0600223 0.291263 -0.0786419 0.520252 0.192191 0.768647Z" fill="#E1067E"/>
</svg>
