<svg width="1" height="3" viewBox="0 0 1 3" fill="none" xmlns="http://www.w3.org/2000/svg">
<path d="M0.0727865 1.09643C0.0829429 1.19734 0.091406 1.29631 0.101562 1.39722C0.155729 1.36229 0.211589 1.3293 0.265755 1.29437C0.328385 1.37588 0.392708 1.45932 0.453646 1.54083C0.463802 1.7116 0.473958 1.88237 0.482422 2.05314C0.517969 2.02597 0.553515 2.00074 0.589063 1.97552C0.685547 1.80863 0.709245 1.64562 0.617839 1.48649C0.621224 1.48455 0.624609 1.48261 0.629687 1.47873C0.680469 1.42633 0.704167 1.36423 0.688932 1.28467C0.607682 1.12942 0.509505 1.00522 0.328385 1.0518C0.308073 0.917897 0.289453 0.782056 0.218359 0.66368C0.209896 0.655918 0.19974 0.648156 0.189583 0.644274C0.265756 0.570532 0.26914 0.469622 0.258984 0.362889C0.208203 0.213464 0.211589 0.0155247 0.011849 0C0.00846376 0.215405 0.00338563 0.43081 0 0.646215C0.0338546 0.648156 0.0660156 0.652037 0.0998698 0.653978C0.0914064 0.801462 0.0812499 0.950887 0.0727865 1.09837V1.09643Z" fill="#E1067E"/>
</svg>
