<svg width="2" height="7" viewBox="0 0 2 7" fill="none" xmlns="http://www.w3.org/2000/svg">
<path d="M1.50651 1.23033C1.4625 1.12942 1.41849 1.02851 1.37617 0.92566C1.37956 0.716077 1.38294 0.508434 1.38464 0.29885C1.35755 0.293028 1.33047 0.291088 1.30339 0.294969C1.26276 0.357068 1.23229 0.419166 1.21367 0.483206C1.21367 0.421107 1.21367 0.359009 1.21198 0.29691C1.1849 0.23093 1.15781 0.164949 1.13073 0.0970293C1.07656 0.143603 1.04609 0.19988 1.02747 0.260039C1.02409 0.172712 1.0207 0.0853858 1.01732 0C0.892057 0.10091 0.949609 0.260039 0.922526 0.393939C0.927604 0.574414 0.932682 0.754888 0.936068 0.937303C0.961458 0.921779 0.978385 0.904314 0.991927 0.882967C0.985156 0.962531 0.978385 1.0421 0.958073 1.11778C0.952995 1.15659 0.952995 1.1954 0.952995 1.23421C0.917448 1.25168 0.89375 1.28467 0.873438 1.32736C0.854818 1.22257 0.871745 1.11196 0.851432 1.00716C0.839583 0.931481 0.815886 0.861621 0.770182 0.801462C0.765104 0.797581 0.756641 0.795641 0.74987 0.791759C0.861589 0.669503 0.844661 0.533661 0.76849 0.393939C0.761719 0.36483 0.754948 0.335721 0.748177 0.306613C0.716016 0.335721 0.683854 0.366771 0.651693 0.39588C0.622916 0.399761 0.595833 0.399761 0.567057 0.39588C0.314844 0.436632 0.407943 0.657859 0.394401 0.824749C0.391015 0.875204 0.385938 0.92566 0.380859 0.978056C0.379166 0.972234 0.379167 0.966412 0.377474 0.96059C0.255599 0.692789 0.13711 0.7937 0.0727865 0.989699C0.00677116 1.17988 0.00338563 1.39334 0 1.60098C0.030469 1.73877 0.035547 1.88625 0.0981771 2.01433C0.0710938 2.05702 0.0524739 2.10554 0.0440104 2.15793C0.0389322 2.23944 0.0592445 2.31124 0.101562 2.37528C0.165885 2.55963 0.24375 2.73235 0.213281 2.94775C0.179427 3.1748 0.22513 3.39215 0.389323 3.55321C0.419791 3.56874 0.450261 3.57068 0.479036 3.56098C0.558594 3.67353 0.578906 3.80161 0.56875 3.93551C0.514583 3.82296 0.451953 3.72787 0.299609 3.85012L0.296224 3.84042C0.179427 4.03254 0.201432 4.24989 0.220052 4.46335C0.218359 4.56814 0.216667 4.67293 0.214974 4.77772C0.242057 4.77578 0.270833 4.77578 0.297917 4.77384C0.411328 4.91939 0.526432 5.05911 0.69401 4.85729C0.724479 4.78937 0.73125 4.71563 0.721094 4.64188C0.717708 4.62636 0.714323 4.61083 0.710938 4.59531C0.797265 4.44782 0.770182 4.26735 0.790495 4.10046C0.810807 4.18779 0.832813 4.27705 0.853125 4.36632L0.829427 4.88058C0.748177 5.02224 0.748177 5.16196 0.836198 5.30168C0.844661 5.47634 0.924219 5.45693 1.01901 5.39677C1.02409 5.48992 1.05117 5.57725 1.08841 5.66457C1.03255 5.67622 0.991927 5.71115 0.963151 5.76742C0.952995 5.81982 0.942839 5.87416 0.932682 5.92849C0.934375 5.8237 0.934375 5.71697 0.936068 5.61024C0.905599 5.61024 0.87513 5.61024 0.844661 5.61024C0.890365 5.76742 0.763411 5.96148 0.908984 6.09344C0.876823 6.35542 0.886979 6.61352 1.02578 6.86191C1.08841 6.82698 1.14935 6.79205 1.21198 6.75712C1.27122 6.78817 1.33047 6.82116 1.38971 6.85609C1.39479 6.6174 1.39987 6.37871 1.40495 6.14002C1.49635 5.99835 1.48789 5.85475 1.40495 5.71115C1.3694 5.63934 1.53867 5.57142 1.40664 5.49768C1.40495 5.36572 1.40326 5.23182 1.40156 5.09986C1.51836 4.98149 1.56068 4.84759 1.46081 4.68846C1.32539 4.68264 1.30339 4.77578 1.31523 4.90192L1.29492 4.88058C1.25599 4.94461 1.22891 5.00671 1.21029 5.07075C1.21367 5.00865 1.21875 4.9485 1.22214 4.8864C1.18828 4.84176 1.15612 4.79519 1.12227 4.75056C1.27292 4.56038 1.24076 4.4226 1.03255 4.33333L1.02747 4.36632C1.02409 4.36632 1.0207 4.36632 1.01901 4.36632L1.03255 4.33333C1.03086 4.19749 1.02917 4.06359 1.02578 3.92775C1.00208 3.9064 0.980078 3.887 0.95638 3.86371C0.949609 3.79191 0.944531 3.7201 0.93776 3.6483C0.964844 3.66189 0.991927 3.66189 1.0207 3.64248C1.05456 3.63666 1.08672 3.63084 1.12057 3.62502C1.17982 3.69488 1.23737 3.7628 1.29661 3.83266C1.30677 3.80743 1.31523 3.7822 1.32201 3.75892C1.33724 3.80549 1.35924 3.85401 1.38464 3.90252C1.38125 3.9064 1.37617 3.91028 1.37109 3.9161C1.34401 3.96462 1.32708 4.02284 1.30169 4.07523C1.41172 4.12763 1.24753 4.40319 1.47773 4.35662C1.51159 4.25959 1.59453 4.27123 1.66055 4.246C1.71641 4.18779 1.7181 4.12375 1.67578 4.05583L1.65885 3.84624C1.59961 3.79579 1.54036 3.81713 1.48281 3.84042C1.48789 3.7725 1.49466 3.70458 1.49974 3.63666C1.48958 3.53381 1.48281 3.43096 1.47266 3.33005C1.63685 3.1224 1.44219 2.89924 1.49466 2.68577C1.37109 2.57516 1.55391 2.36169 1.38802 2.26272C1.32708 2.23167 1.2763 2.24332 1.22721 2.27243C1.22383 2.26855 1.22383 2.26272 1.21875 2.2569C1.21367 2.25302 1.2069 2.24914 1.20182 2.2472C1.20182 2.22003 1.20182 2.19092 1.20013 2.16375C1.2069 2.02791 1.21367 1.89401 1.22044 1.75623C1.22044 1.74653 1.22044 1.73877 1.22044 1.72906C1.22044 1.72906 1.22044 1.72906 1.22044 1.731C1.25599 1.81251 1.29661 1.88043 1.39141 1.85714C1.39479 1.64174 1.33555 1.40887 1.5082 1.23227L1.50651 1.23033Z" fill="#EFEEE8"/>
</svg>
