<svg width="1" height="1" viewBox="0 0 1 1" fill="none" xmlns="http://www.w3.org/2000/svg">
<path d="M0.196354 0.33184C0.174349 0.36289 0.155729 0.39588 0.14388 0.43081C0.137109 0.39588 0.128646 0.36289 0.120182 0.3299C0.0981772 0.250335 0.116797 0.147484 0.0203125 0.114495C0.0135412 0.293029 0.00677127 0.471562 0 0.650096C0.0203129 0.72966 0.0033852 0.830571 0.101562 0.86162C0.128646 0.811165 0.147265 0.76071 0.155729 0.710255C0.159114 0.716076 0.160807 0.723839 0.164193 0.731601C0.199739 0.783997 0.242057 0.7937 0.291146 0.756829C0.299609 0.574414 0.309765 0.393939 0.318229 0.211524C0.313151 0.141663 0.30638 0.0698611 0.301302 0C0.187891 0.0776235 0.226823 0.219286 0.198047 0.33184H0.196354Z" fill="#E1067E"/>
</svg>
