<svg width="1" height="6" viewBox="0 0 1 6" fill="none" xmlns="http://www.w3.org/2000/svg">
<path d="M0.690625 2.55769C0.705859 2.56546 0.722786 2.57128 0.743099 2.57322C0.959766 2.52082 0.95638 2.37528 0.864974 2.19092C0.864974 2.15211 0.868359 2.11136 0.868359 2.07061C0.848047 1.5874 0.917448 1.08867 0.678776 0.644275C0.612761 0.436632 1.00378 0.13196 0.575521 0C0.580599 0.0912077 0.555208 0.16495 0.4875 0.213465C0.457031 0.250336 0.44349 0.293029 0.445182 0.341543C0.450261 0.380355 0.458724 0.419167 0.46888 0.456038C0.465495 0.477384 0.463802 0.500671 0.462109 0.522018C0.145573 0.504553 0.391016 0.120316 0.208203 0.0174653C0.198047 0.378414 0.126953 0.743245 0.270833 1.09061C0.413021 1.05374 0.345312 0.842215 0.45026 0.774294C0.448567 0.782056 0.445182 0.789819 0.441797 0.797581C0.407942 1.01105 0.421484 1.22839 0.399479 1.4438C0.387631 1.51754 0.380859 1.58934 0.384245 1.66502C0.38763 1.74071 0.40625 1.81251 0.440104 1.87849C0.492578 1.95417 0.558594 2.00463 0.648307 2.00269C0.678776 1.98716 0.697396 1.95999 0.699089 1.92118C0.722786 2.02597 0.638151 2.05896 0.599219 2.12494C0.523047 2.2472 0.548437 2.36169 0.607682 2.47619C0.589062 2.49365 0.570442 2.51112 0.551823 2.52664C0.52474 2.58098 0.521354 2.62949 0.539974 2.67801C0.50612 2.68577 0.475651 2.69936 0.448568 2.72264C0.441797 2.73041 0.436719 2.74011 0.429948 2.74787L0.282682 2.73623C0.253906 2.69353 0.223437 2.65084 0.194661 2.60815C-0.0101561 2.84102 0.152344 3.14181 0.0829427 3.39797C0.0203126 3.50858 0.0135418 3.61531 0.0964844 3.71428C0.0812501 3.72204 0.0660157 3.73369 0.0541667 3.75309C-0.0727861 3.94909 0.142188 4.1839 0 4.3799C0.0016926 4.45171 0.00338563 4.52545 0.00677083 4.59725C0.214974 4.60113 0.191276 4.42842 0.192969 4.27511C0.189583 4.08882 0.184505 3.90446 0.18112 3.71816L0.192969 3.51052C0.220052 3.55127 0.252214 3.58426 0.297917 3.60755C0.401172 3.54933 0.389323 3.45036 0.384245 3.35527C0.396094 3.3708 0.407943 3.38632 0.421484 3.40185C0.423177 3.40379 0.42487 3.40379 0.426563 3.40573C0.377474 3.53575 0.374089 3.65412 0.55013 3.71622C0.472265 3.81519 0.419792 3.92193 0.479036 4.05971C0.638151 4.1548 0.539974 4.34109 0.590755 4.47693C0.55013 4.49828 0.521354 4.53127 0.501042 4.57978C0.494271 4.60113 0.490886 4.62054 0.485807 4.64188C0.479036 4.56038 0.451953 4.4847 0.385938 4.41289C0.384245 4.62054 0.313151 4.83012 0.384245 5.03776C0.369011 5.04552 0.355469 5.05523 0.341927 5.07657C0.296224 5.18525 0.286067 5.29004 0.36224 5.38901C0.372396 5.45305 0.380859 5.51903 0.391016 5.58307C0.411328 5.58695 0.431641 5.59083 0.451953 5.59083C0.479036 5.73055 0.467187 5.90326 0.656771 5.9052C0.672006 5.61606 0.8125 5.34826 0.76849 5.04747C0.743099 4.85923 0.719401 4.67293 0.69401 4.4847C0.683854 4.48081 0.673698 4.47887 0.663542 4.47693C0.710938 4.30034 0.590755 4.08493 0.761719 3.93939C0.77526 3.84624 0.76849 3.76086 0.675391 3.72399C0.705859 3.65024 0.734636 3.57844 0.765104 3.50664C0.793881 3.50664 0.820964 3.50276 0.848047 3.49306L0.84974 2.74399C0.792187 2.74011 0.734636 2.73817 0.677083 2.73429C0.682162 2.67607 0.685547 2.61591 0.68724 2.55575L0.690625 2.55769Z" fill="#E1067E"/>
</svg>
