<svg width="1" height="2" viewBox="0 0 1 2" fill="none" xmlns="http://www.w3.org/2000/svg">
<path d="M0.0761719 0.990433H0.123568L0.169271 0.994314L0.155729 1.31839C0.113412 1.39602 0.111719 1.47364 0.152344 1.55126L0.18112 1.86564V1.86176C0.218359 1.91415 0.257292 1.91609 0.299609 1.86952C0.325 1.83265 0.341927 1.78996 0.355469 1.74532C0.563672 1.64441 0.392708 1.36109 0.477344 1.20196C0.497656 1.15926 0.497656 1.11851 0.473958 1.0797C0.465495 1.07388 0.458724 1.07388 0.451953 1.07194L0.458724 0.443188C0.436719 0.443188 0.416406 0.447069 0.394401 0.44901C0.389323 0.35004 0.375781 0.25107 0.360547 0.150159C0.341927 0.0900009 0.311459 0.0395459 0.267448 0.000734136C0.130339 -0.00896867 0.050781 0.0783576 0 0.212258C0.264062 0.441247 0.192969 0.712929 0.0778646 0.990433H0.0761719Z" fill="#E1067E"/>
</svg>
