<svg width="1" height="3" viewBox="0 0 1 3" fill="none" xmlns="http://www.w3.org/2000/svg">
<path d="M0.191276 0.00194059C0.130339 0.00388155 0.0677088 0.0038813 0.00677083 0.00582176C0.00507823 0.0388116 0.0016926 0.0737424 0 0.106732C0.0321611 0.176593 0.0643228 0.246455 0.0964844 0.318256C0.0964844 0.390058 0.0964845 0.46186 0.0981771 0.531721C0.101562 0.704433 0.103255 0.877145 0.108333 1.04986C0.0710935 1.06926 0.0507815 1.10225 0.0473958 1.14689C0.0727866 1.27108 0.0152346 1.43603 0.147266 1.50201C0.0406253 1.64562 0.255599 1.85908 0.0863281 1.98716C0.094792 2.02209 0.0981772 2.05508 0.093099 2.09001C0.477344 2.06672 0.176042 1.71936 0.284375 1.56605C0.289453 1.56605 0.296224 1.55441 0.301302 1.52918C0.30638 1.51366 0.301302 1.49813 0.292839 1.48261C0.296224 1.48067 0.301302 1.47873 0.30638 1.47485C0.357161 1.39334 0.382552 1.30019 0.397786 1.20316C0.448568 1.28855 0.495964 1.37394 0.545052 1.46126C0.545052 1.31378 0.546745 1.16435 0.545052 1.01687C0.545052 0.945066 0.517969 0.871323 0.451953 0.89267C0.414714 0.904314 0.396094 0.989699 0.36901 1.04209C0.272526 1.01881 0.277604 0.921778 0.258984 0.842215C0.297917 0.702492 0.336849 0.56277 0.375781 0.423048C0.394401 0.335722 0.365625 0.302732 0.297917 0.312434C0.355469 0.170772 0.311458 0.0698611 0.189583 0L0.191276 0.00194059Z" fill="#EFEEE8"/>
</svg>
