<svg width="1" height="1" viewBox="0 0 1 1" fill="none" xmlns="http://www.w3.org/2000/svg">
<path d="M0.46888 0.865363C0.473958 0.696532 0.477344 0.529641 0.482422 0.360811C0.448568 0.32588 0.414714 0.29095 0.380859 0.256019C0.380859 0.188098 0.380859 0.118237 0.380859 0.0503168C0.345313 0.00762361 0.301302 -0.00790108 0.252214 0.00374268C0.191276 0.0444949 0.164193 0.0949501 0.155729 0.147346C0.145573 0.116297 0.130339 0.0852469 0.103255 0.0561385C-0.00169293 0.0716632 0.0287759 0.180337 0 0.250197C0.0761718 0.479187 -0.0914066 0.75475 0.0998698 0.964333L0.120182 0.356929C0.138802 0.32394 0.152344 0.29095 0.159115 0.256019C0.165885 0.289009 0.176042 0.321999 0.186198 0.356929C0.247135 0.55681 0.111719 0.797442 0.284375 0.974036C0.363932 0.746987 0.172656 0.469484 0.377474 0.263781C0.423177 0.459781 0.286068 0.694591 0.46888 0.865363Z" fill="#EFEEE8"/>
</svg>
