<svg width="1" height="2" viewBox="0 0 1 2" fill="none" xmlns="http://www.w3.org/2000/svg">
<path d="M0.104948 1.44891C0.128646 1.52653 0.0998698 1.63327 0.201432 1.66626C0.242057 1.69342 0.28099 1.6876 0.316536 1.65267C0.30638 1.31307 0.45026 0.967646 0.301302 0.637746C0.321615 0.637746 0.338542 0.624161 0.352083 0.58729C0.392708 0.48832 0.401172 0.38547 0.396094 0.278737C0.38763 0.173945 0.372396 0.0710943 0.28776 0.00705506C0.0406248 -0.0434004 0.152344 0.18947 0.111719 0.302024C0.145573 0.399054 0.0575521 0.424281 0.0304688 0.484439C0.0524739 0.527132 0.0592448 0.589231 0.0998698 0.608636C0.0964846 0.612518 0.0930992 0.612518 0.0897136 0.6164C0.0304691 0.78329 0.12526 0.975408 0.0236979 1.13648C0.0169271 1.17141 0.00846343 1.20634 0 1.24127C0.0930991 1.27426 0.104948 1.35964 0.104948 1.45085V1.44891Z" fill="#EFEEE8"/>
</svg>
