<svg width="1" height="5" viewBox="0 0 1 5" fill="none" xmlns="http://www.w3.org/2000/svg">
<path d="M0.726044 4.05206C0.726044 4.01907 0.72943 3.98414 0.736201 3.95309C0.819143 3.79978 0.858076 3.63677 0.812373 3.4563C0.734508 3.33404 0.704039 3.07012 0.533076 3.20596C0.522919 3.16909 0.507685 3.13222 0.487373 3.09923C0.473831 3.08564 0.461982 3.074 0.450133 3.06624C0.516148 3.01772 0.538154 2.94204 0.541539 2.85471L0.543232 2.8586C0.543232 2.8586 0.543232 2.85666 0.543232 2.85277L0.734508 2.7441C0.825914 2.49182 0.786982 2.23761 0.742972 1.98339C0.734508 1.83785 0.724352 1.6923 0.715888 1.54676C0.717581 1.39151 0.780211 1.22656 0.656643 1.09072C0.739586 0.840386 0.58555 0.867554 0.455211 0.873376C0.505993 0.727832 0.624482 0.782168 0.715888 0.75306C0.665107 0.646327 0.614326 0.539595 0.563544 0.432863C0.643102 0.316428 0.500914 0.227161 0.534768 0.118488C0.483987 0.0466861 0.417972 0.00981475 0.338414 0.000111943C0.258857 -0.00182852 0.187763 0.0214585 0.121748 0.0699731C-0.02044 0.240745 -0.035674 0.419279 0.10482 0.603634C0.111592 0.605575 0.116669 0.609456 0.12344 0.613337C0.106513 0.659911 0.118362 0.710367 0.155602 0.762762C0.184378 0.762762 0.213153 0.766644 0.24193 0.770525C0.275784 0.927713 0.230081 1.06355 0.152216 1.18775C0.125133 1.19745 0.0980496 1.2091 0.0709663 1.22268C-0.0255184 1.31777 -0.0136691 1.4245 0.0472684 1.53512C-0.0102835 2.12894 0.187763 2.70141 0.153909 3.29329C0.0523465 3.35345 0.0574246 3.44077 0.0709663 3.53198C0.0455756 3.57079 0.0235705 3.61154 0.0100288 3.65618C0.00833619 3.72992 0.0184924 3.7959 0.0743517 3.84247C0.148831 3.8774 0.16068 3.91427 0.0794298 3.95697C0.072659 4.04429 0.0455759 4.13938 0.157294 4.17043C0.192842 4.10251 0.228388 4.03265 0.263935 3.96473C0.390888 4.18208 0.609248 3.76873 0.726044 4.054V4.05206Z" fill="#E1067E"/>
</svg>
