<svg width="4" height="3" viewBox="0 0 4 3" fill="none" xmlns="http://www.w3.org/2000/svg">
<path d="M1.80781 0.863561C1.77396 0.912076 1.70964 0.929541 1.66055 0.95865C1.52174 1.04404 1.38294 1.12748 1.24753 1.21481C1.0918 1.31378 0.961459 1.44962 0.919141 1.6495C0.883594 1.81445 0.800651 1.89401 0.677083 1.96387C0.443489 2.09583 0.242057 2.28601 0 2.50142C0.235287 2.50336 0.384245 2.41215 0.52474 2.29765C0.675391 2.17346 0.807422 2.00463 0.971615 1.92312C1.38294 1.71742 1.73503 1.41469 2.07526 1.09643C2.36471 0.82669 2.66771 0.589938 2.98932 0.382296C3.04688 0.347365 3.08919 0.283325 3.16875 0.201821C3.07734 0.225108 3.03333 0.236751 2.93685 0.261979C3.00456 0.137782 3.0418 0.0679202 3.07734 0H3.07565C2.87591 0.0310494 2.68633 0.112554 2.53229 0.254217C2.2987 0.471563 2.00417 0.589938 1.80781 0.863561Z" fill="#392726"/>
</svg>
