<svg width="1" height="2" viewBox="0 0 1 2" fill="none" xmlns="http://www.w3.org/2000/svg">
<path d="M0.10407 1.10081C0.139617 1.14156 0.175164 1.18037 0.210711 1.21918C0.154851 1.35696 0.105763 1.49475 0.126076 1.64999C0.15993 1.64999 0.193784 1.64999 0.227638 1.64999C0.281805 1.63641 0.313966 1.59954 0.324122 1.53744L0.305503 1.19978C0.305503 1.02124 0.30381 0.842709 0.30381 0.666116C0.305503 0.446829 0.307195 0.227543 0.310581 0.0101974C0.281804 0.00243507 0.254721 -0.00144598 0.225945 0.000494484C0.163315 0.000494484 0.098992 0.000494484 0.0346693 0.000494484C0.0295911 0.111108 0.0228203 0.219781 0.0160495 0.330394C0.026206 0.365325 0.0312839 0.400255 0.0312839 0.437126C0.0482112 0.454592 0.0651377 0.464295 0.0803724 0.472057C0.0668307 0.497285 0.0499039 0.522512 0.0329766 0.545799C0.0346696 0.617601 0.036362 0.691343 0.036362 0.765086C0.0448254 0.77867 0.0549819 0.786432 0.0634453 0.792254C0.0414402 0.821363 0.0194346 0.850471 0.000815121 0.885402C-0.00595571 0.982431 0.0295911 1.05229 0.102378 1.10081H0.10407Z" fill="#E1067E"/>
</svg>
