<svg width="1" height="3" viewBox="0 0 1 3" fill="none" xmlns="http://www.w3.org/2000/svg">
<path d="M0.104948 1.35259C0.160808 1.25362 0.120182 1.12942 0.167578 1.02657C0.169271 0.999402 0.169271 0.972234 0.165885 0.945066C0.123567 0.811165 0.148958 0.667562 0.116797 0.531721C0.106641 0.520077 0.0947918 0.512315 0.0829427 0.508434C0.138802 0.448275 0.128646 0.378414 0.0998698 0.302731C0.0592448 0.205702 0.147266 0.050455 0 0C0.00338563 0.174653 0.00677073 0.347365 0.011849 0.522018C0.00846333 0.867442 0.00677062 1.21287 0.00338542 1.55829C0.00338542 1.79892 0.00169271 2.0415 0.00169271 2.28213C0.0575524 2.28213 0.111719 2.28213 0.167578 2.28019C0.172656 2.03373 0.174349 1.78534 0.0727865 1.55829C0.0829425 1.49037 0.0947916 1.42245 0.106641 1.35453L0.104948 1.35259Z" fill="#EFEEE8"/>
</svg>
