<svg width="2" height="2" viewBox="0 0 2 2" fill="none" xmlns="http://www.w3.org/2000/svg">
<path d="M0 1.47485C0.204818 1.2051 0.20651 1.21869 0.565365 1.17405C0.688932 1.15853 0.814193 1.0712 0.924219 0.99164C0.959766 0.966412 0.94961 0.86162 0.961458 0.778175C1.11211 0.747126 1.26615 0.72772 1.4151 0.683086C1.49635 0.657859 1.59115 0.586057 1.52852 0.4638C1.49297 0.390058 1.4151 0.33184 1.34401 0.29885C1.30508 0.281385 1.24414 0.339603 1.18997 0.349306C1.16289 0.355127 1.13242 0.326019 1.10026 0.310494C1.14089 0.219286 1.17812 0.1339 1.23568 0C0.922526 0.0834453 1.05456 0.440513 0.868359 0.566651C0.690625 0.686968 0.533203 0.844155 0.352083 0.995521C0.291146 0.933422 0.226823 0.869383 0.128646 0.774294C0.0812496 1.02851 0.0440106 1.23227 0 1.47485Z" fill="#392726"/>
</svg>
