<svg width="4" height="3" viewBox="0 0 4 3" fill="none" xmlns="http://www.w3.org/2000/svg">
<path d="M0.820964 1.87073C0.678776 1.98134 0.536588 2.09195 0.392708 2.20451C0.253906 2.31124 0.0795574 2.36363 0 2.5868C0.0490884 2.56157 0.101562 2.54023 0.147266 2.50724C0.538281 2.22973 0.927604 1.95029 1.31693 1.66696C1.42526 1.5874 1.53529 1.50784 1.64531 1.42827C1.86706 1.32348 1.95677 1.26138 2.04479 1.13524C2.38164 0.890729 2.71849 0.644275 3.05534 0.39782C3.08073 0.378415 3.10612 0.359008 3.12812 0.339603C3.24323 0.285266 3.3668 0.227048 3.50729 0.161069C3.4362 0.151365 3.37526 0.145544 3.32109 0.145544C3.35495 0.10091 3.3888 0.052396 3.41758 0C3.23815 0.0135842 3.12305 0.170772 2.97917 0.258098C2.82852 0.351246 2.69479 0.481266 2.5526 0.591879C2.44089 0.679205 2.33086 0.766532 2.21575 0.849977C2.24622 0.795641 2.28177 0.735482 2.3224 0.667562C2.29531 0.638453 2.26654 0.607404 2.23607 0.576354C2.1599 0.729661 1.98893 0.935363 1.81628 1.10031C1.76549 1.12942 1.71471 1.16047 1.66732 1.1954C1.52174 1.29825 1.38802 1.42439 1.24922 1.53694C1.10703 1.6495 0.963151 1.76011 0.820964 1.87073Z" fill="#392726"/>
</svg>
