<svg width="1" height="3" viewBox="0 0 1 3" fill="none" xmlns="http://www.w3.org/2000/svg">
<path d="M0.0438012 2.10166C0.0793484 2.10166 0.114895 2.10166 0.150442 2.10166V1.30601C0.199531 1.25168 0.226614 1.18958 0.243541 1.1236C0.265546 1.25556 0.312942 1.38946 0.245234 1.5253C0.245234 1.55247 0.248619 1.58158 0.25539 1.60875C0.334947 1.69801 0.409426 1.68443 0.48052 1.59128C0.570233 1.17211 0.731041 0.741304 0.338333 0.39588C0.334947 0.442454 0.329869 0.487088 0.326484 0.531721C0.277395 0.56083 0.250312 0.595761 0.23677 0.634572C0.214765 0.56277 0.184296 0.492909 0.150442 0.424988C0.125051 0.281385 0.185989 0.116435 0.062421 0C0.0556502 0.359008 0.0471867 0.716076 0.0404158 1.07314C-0.0137509 1.14883 -0.0137507 1.22451 0.0421085 1.30213V2.10166H0.0438012Z" fill="#E1067E"/>
</svg>
