<svg width="1" height="4" viewBox="0 0 1 4" fill="none" xmlns="http://www.w3.org/2000/svg">
<path d="M0.12035 2.31124C0.248996 2.29377 0.304855 2.22003 0.335324 2.12688C0.338709 2.14241 0.342095 2.15599 0.34548 2.17152C0.3641 2.20257 0.386105 2.21615 0.411496 2.21421C0.323475 2.2472 0.306548 2.34035 0.287928 2.42767C0.287928 2.63338 0.286236 2.83714 0.284543 3.0409C0.293007 3.14763 0.298084 3.25048 0.306548 3.35721C0.391183 3.38438 0.474126 3.52993 0.565532 3.36498L0.573996 3.33199C0.48259 3.03508 0.58923 2.71294 0.479204 2.41991C0.469048 2.34811 0.458891 2.27437 0.448735 2.20257H0.447043C0.462277 2.16958 0.477511 2.13464 0.492746 2.10166C0.48259 1.82415 0.472433 1.54665 0.462277 1.26914C0.472433 1.16823 0.484282 1.06538 0.494438 0.964471C0.494438 0.927601 0.492746 0.888788 0.492746 0.849977C0.516444 0.787878 0.501209 0.745185 0.44535 0.721898C0.394569 0.723839 0.357329 0.751007 0.333631 0.797581C0.325167 0.76071 0.308241 0.725779 0.284543 0.696671C0.262538 0.677264 0.23884 0.66174 0.215142 0.648156C0.215142 0.611285 0.218527 0.574414 0.218527 0.537542C0.196522 0.39782 0.108501 0.261979 0.196522 0.110613C0.206678 0.0931483 0.167746 0.0368713 0.150819 0C0.110194 0.0446336 0.069569 0.0873264 0.027251 0.1339C0.0221732 0.19794 0.0187874 0.26392 0.0120166 0.3299C0.0390999 0.423048 0.0661832 0.518137 0.0915739 0.611285C0.0255582 0.62875 -0.0218377 0.66174 0.0103239 0.758769C0.0441781 0.970293 0.0797246 1.18182 0.115272 1.39334C-0.0641555 1.52724 0.0594124 1.72906 0.0255583 1.89401C0.0492564 2.00269 0.0712616 2.10942 0.0949593 2.21615C0.105116 2.24914 0.110194 2.28213 0.110194 2.31706L0.116965 2.3093L0.12035 2.31124Z" fill="#EFEEE8"/>
</svg>
