<svg width="1" height="1" viewBox="0 0 1 1" fill="none" xmlns="http://www.w3.org/2000/svg">
<path d="M0.0981771 0.506493C0.18112 0.508434 0.264063 0.512315 0.38763 0.514255C0.411328 0.459919 0.441797 0.386177 0.482422 0.287207C0.392708 0.275563 0.330078 0.26586 0.270833 0.258098C0.272526 0.232871 0.275911 0.209583 0.279297 0.180475C0.282682 0.178534 0.286068 0.176593 0.28776 0.174653C0.299609 0.194059 0.313151 0.215405 0.328385 0.240633C0.341927 0.135841 0.350391 0.0815044 0.360547 0C0.297917 0.023287 0.264063 0.0349307 0.213281 0.0523958C0.22513 0.0698615 0.235286 0.0873265 0.245443 0.104792C0.147266 0.176593 0.0710935 0.232871 0 0.285266C0.0389324 0.374533 0.0677084 0.440513 0.0964844 0.506493H0.0981771Z" fill="#392726"/>
</svg>
