<svg width="1" height="3" viewBox="0 0 1 3" fill="none" xmlns="http://www.w3.org/2000/svg">
<path d="M0.600911 0.234811C0.58737 0.141663 0.556901 0.0601578 0.490885 0C0.455339 0 0.421484 0 0.38763 0C0.38763 0.153306 0.385938 0.308553 0.385938 0.4638C0.365625 0.411404 0.338542 0.366771 0.296224 0.331841C0.265755 0.327959 0.235287 0.326019 0.20651 0.327959C0.204818 0.547245 0.201432 0.764591 0.198047 0.983878C0.170964 1.0421 0.157422 1.09837 0.155729 1.15465C0.126953 1.12166 0.0812503 1.09643 0.011849 1.08673C0.00846376 1.3817 0.00507823 1.67667 0 1.97164C0.0355468 2.1133 0.0626303 2.27631 0.226823 2.08613C0.248828 2.03956 0.257292 1.9891 0.253906 1.93671C0.236979 1.80475 0.231901 1.67473 0.231901 1.54277C0.220052 1.48067 0.221745 1.40887 0.216667 1.34095C0.509505 1.18958 0.423177 0.908195 0.418099 0.653978C0.445182 0.657859 0.470573 0.6598 0.497656 0.657859C0.590755 0.537543 0.619531 0.393939 0.602604 0.236752L0.600911 0.234811Z" fill="#E1067E"/>
</svg>
