<svg width="1" height="2" viewBox="0 0 1 2" fill="none" xmlns="http://www.w3.org/2000/svg">
<path d="M0.101562 1.00029C0.137109 1.09732 0.174349 1.19629 0.209896 1.29332C0.365625 1.13419 0.301302 0.942075 0.284375 0.75966C0.302994 0.722789 0.323308 0.687858 0.34362 0.652928C0.369011 0.577245 0.367318 0.501562 0.340234 0.42782C0.333464 0.418117 0.326693 0.410355 0.319922 0.400652C0.362239 0.357959 0.380859 0.29586 0.385938 0.22794C0.385938 0.140613 0.357161 0.0668705 0.299609 0.00671266C0.0829427 -0.0359805 0.101562 0.132851 0.106641 0.290038C-0.0118492 0.373484 0.0253907 0.520968 0 0.643225C0.0440102 0.75772 -0.0270833 0.916848 0.101562 1.00029Z" fill="#E1067E"/>
</svg>
