<svg width="1" height="3" viewBox="0 0 1 3" fill="none" xmlns="http://www.w3.org/2000/svg">
<path d="M0.463802 1.28155C0.484115 1.24274 0.492578 1.20004 0.4875 1.15541C0.443489 1.02345 0.345313 0.957471 0.24375 0.891492C0.394401 0.705195 0.250521 0.520839 0.191276 0.334543C0.152344 0.22587 0.240364 0.0783857 0.120182 0.000762242C0.103255 -0.00894057 0.040625 0.0764447 0 0.117197C0.0033852 0.185118 0.00846333 0.254979 0.011849 0.320959C0.00846333 0.775056 0.00507802 1.22721 0.00338542 1.68131C0.0304688 1.68131 0.0609375 1.68131 0.0880208 1.68131C0.0880208 1.82103 0.0880212 1.96075 0.0863281 2.10048C0.0846355 2.20333 0.0846353 2.30812 0.0829427 2.41291L0.0964844 2.40709C0.252214 2.49442 -0.248828 2.92911 0.265755 2.82626C0.203125 2.70206 0.169271 2.5701 0.179427 2.42261C0.191276 2.41679 0.203125 2.40903 0.214974 2.39545C0.270833 2.30812 0.286068 2.20527 0.289453 2.10048C0.294531 1.99763 0.294531 1.89477 0.291146 1.79386C0.28776 1.69101 0.284375 1.58816 0.253906 1.49113C0.247135 1.47173 0.236979 1.45426 0.226823 1.4368C0.228516 1.43097 0.230208 1.42709 0.231901 1.42127C0.279297 1.31066 0.391016 1.33977 0.462109 1.28155H0.463802Z" fill="#EFEEE8"/>
</svg>
