<svg width="4" height="3" viewBox="0 0 4 3" fill="none" xmlns="http://www.w3.org/2000/svg">
<path d="M2.03294 0.520077C2.04987 0.52978 2.07357 0.553067 2.08034 0.547245C2.21406 0.448275 2.22422 0.692789 2.3207 0.663681C2.42565 0.634572 2.52552 0.570532 2.63047 0.547245C2.63385 0.547245 2.63555 0.547245 2.63893 0.547245C2.41888 0.710255 2.19206 0.86162 1.97031 1.02075C2.00078 0.954768 2.02956 0.888788 2.06003 0.822809C1.89583 0.979996 1.62161 0.783997 1.5082 1.06344C1.59453 1.12554 1.72995 1.05374 1.77565 1.16629C1.73841 1.19346 1.70117 1.22063 1.66224 1.24974C1.64023 1.26914 1.61654 1.28467 1.59284 1.30213C1.54375 1.26914 1.50312 1.24003 1.45573 1.20704C1.4151 1.31184 1.39818 1.41081 1.3474 1.47291C1.2526 1.535 1.15781 1.5971 1.06471 1.6592C0.975 1.63785 0.951302 1.70384 0.917448 1.76205C0.824349 1.83191 0.734635 1.90566 0.648307 1.9891C0.594141 2.0415 0.533203 2.09583 0.467187 2.123C0.274218 2.20062 0.13711 2.35781 0 2.51694C0.179427 2.56545 0.325 2.52082 0.448568 2.34811C0.499349 2.27631 0.605989 2.25884 0.658463 2.18704C0.685547 2.15211 0.710938 2.12106 0.739713 2.09001C0.722786 2.12106 0.70586 2.15211 0.690625 2.18316C0.707552 2.20062 0.724479 2.21809 0.741406 2.23361C0.851432 2.12688 0.963151 2.02015 1.07487 1.91148C1.15443 1.90954 1.24076 1.93476 1.33555 1.99104C1.3474 1.9988 1.36602 2.00074 1.37786 1.99686C1.44219 1.96969 1.5319 1.96193 1.56068 1.90954C1.61484 1.81639 1.52682 1.7737 1.46758 1.72906C1.44557 1.71354 1.43542 1.67861 1.40495 1.63203C1.49297 1.55247 1.5776 1.46514 1.67409 1.39722C1.71471 1.36811 1.75534 1.339 1.79766 1.31184C1.80443 1.39722 1.80612 1.48261 1.8112 1.57382C1.99232 1.4438 2.01094 1.43021 1.94323 1.21869C2.07865 1.1333 2.21237 1.04598 2.32578 0.929541C2.4612 0.7937 2.60339 0.675324 2.75065 0.564711C2.78112 0.572473 2.8099 0.580235 2.83867 0.576354C2.925 0.568592 3.00794 0.533661 3.09258 0.510374C3.03672 0.481266 2.98086 0.456038 2.92669 0.436632C3.03333 0.362889 3.14167 0.291088 3.25 0.217346C3.26523 0.207642 3.27539 0.184355 3.28555 0.155247C3.32617 0.244514 3.40742 0.287207 3.54961 0.291088C3.42266 0.16689 3.33971 0.0834448 3.25508 0C3.25508 0.0329898 3.26016 0.0601579 3.26523 0.0873264C3.22292 0.0892669 3.19076 0.0892671 3.17214 0.106732C3.06211 0.213465 2.94531 0.310494 2.82852 0.403642C2.55599 0.327959 2.29023 0.357068 2.02617 0.446335C2.02956 0.471562 2.03125 0.49679 2.03294 0.522018V0.520077Z" fill="#392726"/>
</svg>
