<svg width="1" height="3" viewBox="0 0 1 3" fill="none" xmlns="http://www.w3.org/2000/svg">
<path d="M0.0795573 1.67861C0.0795573 1.82027 0.0795574 1.96581 0.08125 2.10748C0.113412 2.14047 0.147266 2.17152 0.179427 2.20451C0.179427 1.95223 0.177734 1.70189 0.177734 1.44962C0.186198 1.1236 0.198047 0.799522 0.20651 0.473503C0.194661 0.316316 0.18112 0.161069 0.169271 0.00388117C0.155729 0.00388117 0.142188 0.00194046 0.128646 0C0.113412 0.122257 0.0947916 0.242573 0.0795573 0.36289C-0.00677094 0.572473 0.116797 0.815046 0 1.02075L0.00677083 1.01493C0.0778648 1.14689 0.11849 1.29049 0.108333 1.44768C0.0998699 1.52336 0.0897138 1.60098 0.0795573 1.67667V1.67861Z" fill="#E1067E"/>
</svg>
