<svg width="1" height="2" viewBox="0 0 1 2" fill="none" xmlns="http://www.w3.org/2000/svg">
<path d="M0.2778 0.00145572C0.254101 -0.00048524 0.230404 -0.00048524 0.208399 0.00145572C0.155925 0.0635545 0.12207 0.129534 0.100065 0.197455C0.100065 0.135356 0.100065 0.0732574 0.100065 0.0111587C-0.0150389 0.166406 -0.0404296 0.321653 0.0746746 0.474959C0.0848311 0.573929 0.110221 0.674839 0.138998 0.77769C0.155924 0.812621 0.179623 0.832026 0.205013 0.839789C0.198242 0.973689 0.191471 1.10759 0.183008 1.24149C0.238867 1.4045 0.130534 1.60632 0.274414 1.74798C0.274414 1.44331 0.274415 1.14058 0.272721 0.837848C0.281185 0.595275 0.291341 0.350761 0.299805 0.108188C0.293034 0.0732577 0.286263 0.036386 0.2778 0.00145572Z" fill="#EFEEE8"/>
</svg>
