<svg width="1" height="2" viewBox="0 0 1 2" fill="none" xmlns="http://www.w3.org/2000/svg">
<path d="M0.136438 1.32154C0.144902 1.1954 0.153365 1.06732 0.160136 0.941184L0.161829 0.822809C0.207532 0.718017 0.204147 0.615166 0.166907 0.510374C0.156751 0.504552 0.148287 0.502612 0.138131 0.500671C0.14998 0.438573 0.160136 0.378414 0.171985 0.318256C0.127975 0.215405 0.199069 0.0640392 0.0653446 0C0.0585738 0.137781 0.0518029 0.277504 0.0433394 0.415285C0.0534955 0.444394 0.0619594 0.473503 0.0721155 0.502612C0.0585738 0.508434 0.0467249 0.516196 0.0348759 0.525899C-0.024369 0.630691 0.00102182 0.731601 0.0433394 0.834452C0.0738084 0.995521 0.00271432 1.1857 0.136438 1.32154Z" fill="#EFEEE8"/>
</svg>
