<svg width="1" height="1" viewBox="0 0 1 1" fill="none" xmlns="http://www.w3.org/2000/svg">
<path d="M0.186198 0.312434C0.179427 0.345424 0.170964 0.376474 0.164193 0.409464C0.152344 0.376474 0.135417 0.345424 0.115104 0.314375C0.0863282 0.207643 0.123567 0.075683 0.0169271 0C0.0118488 0.0679202 0.00507823 0.1339 0 0.201821C0.00846387 0.372593 0.0169272 0.545305 0.0253906 0.718017C0.0727865 0.751007 0.111719 0.743245 0.145573 0.692789C0.148958 0.686967 0.150651 0.681146 0.154036 0.673384C0.1625 0.721899 0.179427 0.768472 0.20651 0.816987C0.299609 0.787878 0.284375 0.690849 0.301302 0.615166C0.296224 0.446335 0.289453 0.277504 0.284375 0.108673C0.191276 0.139722 0.208203 0.238692 0.189583 0.312434H0.186198Z" fill="#EFEEE8"/>
</svg>
