<svg width="2" height="3" viewBox="0 0 2 3" fill="none" xmlns="http://www.w3.org/2000/svg">
<path d="M0.635841 2.288C0.698471 2.33263 0.761102 2.37532 0.825425 2.41802C0.981154 2.13275 0.789878 1.80867 0.899904 1.51564C0.91006 1.48459 0.915138 1.45354 0.916831 1.4225C1.02347 1.44384 0.994696 1.55446 1.01839 1.63014C1.01839 1.81061 1.02009 1.98915 1.02178 2.16962C1.17074 2.01437 1.08779 1.81255 1.10134 1.63014C1.1098 1.48265 1.11657 1.33517 1.12334 1.18963C1.08779 1.14499 1.05056 1.10036 1.01332 1.05572C0.982847 1.07125 0.952378 1.07513 0.918524 1.06543C0.88467 1.00139 0.850815 0.937349 0.815268 0.87331C0.767873 0.851963 0.727247 0.863607 0.695086 0.9063C0.634148 1.09842 0.690008 1.25366 0.803419 1.39339C0.786492 1.38951 0.76618 1.38951 0.744175 1.39727C0.710321 1.42444 0.68493 1.45549 0.664617 1.49042C0.662925 1.47101 0.661232 1.4516 0.661232 1.43414C0.615529 1.35846 0.547821 1.33129 0.471649 1.32741H0.469956C0.519045 1.21485 0.48519 1.09454 0.439487 0.97422C0.437795 0.681192 0.434409 0.386222 0.432716 0.0951345C0.312534 -0.0154793 0.183888 -0.0329442 0.0484715 0.0602039C-0.0107734 0.143649 -0.0141585 0.232916 0.0298517 0.324124L0.0603205 0.314421C0.0586279 0.423094 0.0569348 0.531767 0.0535496 0.64238C0.148341 0.685073 0.141571 0.721944 0.0518569 0.758815C0.0535499 0.865547 0.0569347 0.970339 0.0586277 1.07513C0.0535495 1.23426 0.00784639 1.39921 0.128029 1.53117C0.138185 1.63984 0.148341 1.74657 0.156805 1.85331C0.212664 1.84748 0.268523 1.84166 0.326076 1.83584C0.34131 1.8242 0.353159 1.81255 0.35993 1.79897C0.40394 1.88241 0.446258 1.96586 0.431024 2.07453C0.431024 2.11334 0.429331 2.15022 0.427638 2.18903C0.475034 2.27635 0.547821 2.29576 0.630763 2.288H0.635841Z" fill="#E1067E"/>
</svg>
