<svg width="3" height="9" viewBox="0 0 3 9" fill="none" xmlns="http://www.w3.org/2000/svg">
<path d="M1.96174 5.28616C2.02776 4.93685 1.8551 5.02224 1.68921 5.09016C1.60796 5.15614 1.53687 5.2357 1.47424 5.32497C1.48947 5.19107 1.48101 5.06493 1.3896 4.96014C1.3896 4.95044 1.3896 4.93685 1.3896 4.92715C1.39637 4.92133 1.40145 4.91745 1.40822 4.90968C1.40822 4.89804 1.40822 4.8864 1.40822 4.87475C1.44208 4.91551 1.49624 4.94073 1.58257 4.94461C1.58596 4.82624 1.60119 4.70786 1.61812 4.59143C1.63843 4.65547 1.67736 4.71368 1.73661 4.7622C1.83986 4.81459 1.93635 4.81654 2.01591 4.7098C2.02098 4.60307 2.02606 4.49634 2.02945 4.39155C1.8314 4.17226 2.06838 3.82296 1.85171 3.61143C1.81109 3.65606 1.7857 3.70652 1.76708 3.76086C1.76031 3.6386 1.74846 3.51634 1.77893 3.40185C1.71122 3.27183 1.64182 3.30676 1.57411 3.39991L1.56565 3.39409C1.56565 3.39409 1.56734 3.39603 1.56734 3.39991C1.5064 3.39409 1.44716 3.39215 1.38622 3.38632C1.36421 3.3708 1.3439 3.35333 1.3219 3.33781C1.3202 3.19615 1.31851 3.05254 1.31851 2.91088C1.43192 2.77116 1.32867 2.57516 1.38622 2.41991C1.4133 2.41603 1.44208 2.41215 1.46747 2.41021C1.36083 2.09583 1.56395 1.82803 1.5758 1.53112C1.53687 1.41469 1.4607 1.36229 1.35406 1.35841C1.30666 1.36811 1.26604 1.39334 1.23387 1.43409C1.13062 1.66114 1.16109 1.90177 1.17632 2.14047C1.18648 2.1948 1.20002 2.24332 1.22033 2.29183C1.23895 2.32482 1.25927 2.35199 1.28466 2.37334C1.28466 2.48007 1.28466 2.58874 1.28466 2.69547C1.10861 3.25436 1.26096 3.83654 1.20171 4.40319C1.21695 4.4226 1.23049 4.4323 1.24572 4.43424C1.19325 4.56232 1.1594 4.69234 1.20002 4.82236C1.18817 4.82624 1.17801 4.82818 1.16786 4.83012C1.14924 4.83594 1.13062 4.8437 1.112 4.85147C1.15939 4.78743 1.17802 4.71174 1.12216 4.60695C1.11538 4.57202 1.10861 4.53709 1.10015 4.50216C1.0663 4.10822 1.22372 3.69488 1.0189 3.31452C0.959656 3.36692 0.93088 3.43872 0.913953 3.51828C0.908875 3.5144 0.902103 3.51052 0.897026 3.50858C0.89364 3.44454 0.888562 3.3805 0.885177 3.31646C0.891947 3.3184 0.897026 3.32034 0.905489 3.32228C1.03244 3.19032 0.905489 2.98462 1.01044 2.8449C0.969812 2.80027 0.910567 2.70712 0.89364 2.71682C0.751453 2.7925 0.846244 2.95357 0.81239 3.07195C0.805619 3.08747 0.800541 3.103 0.795463 3.11658C0.798848 2.80997 0.803927 2.50142 0.805619 2.1948C0.866557 2.11912 0.924109 2.04344 0.983354 1.96775C0.990125 1.93282 0.991817 1.89595 0.988432 1.85908C1.05106 1.67473 1.11369 1.49037 1.17632 1.30795C1.17632 1.27302 1.17632 1.24004 1.17971 1.2051C1.11031 1.11778 1.02736 1.10419 0.935958 1.1333C0.952885 1.10613 0.966426 1.07508 0.976583 1.04209C1.00536 0.89461 0.996895 0.758769 0.898718 0.644275C0.897026 0.572473 0.897025 0.500671 0.895333 0.42887C0.932572 0.384236 0.969812 0.339603 1.00874 0.294969C1.00028 0.287207 0.990125 0.279444 0.981661 0.271682C0.986739 0.168831 1.01382 0.0562769 0.89364 0C0.824239 0.023287 0.758224 0.0523958 0.698979 0.0989699C0.698979 0.141663 0.697286 0.186296 0.697286 0.23093C0.692208 0.23093 0.68713 0.232871 0.682052 0.234811C0.636348 0.250336 0.597417 0.279444 0.561869 0.314375C0.438302 0.516196 0.434916 0.712195 0.585567 0.898492C0.641427 0.935362 0.698979 0.941184 0.758224 0.919838C0.715906 0.999402 0.692208 1.07897 0.695593 1.15659C0.682052 1.10225 0.660047 1.04986 0.614343 1.00134C0.617729 1.16629 0.622807 1.33318 0.6245 1.49813C0.616036 1.50007 0.60588 1.50007 0.597416 1.50201C0.539864 1.55053 0.507703 1.61651 0.484005 1.68831C0.434916 1.63009 0.384135 1.56993 0.333354 1.50978C0.357052 1.49425 0.367208 1.47485 0.360437 1.45738C0.353667 1.43603 0.346895 1.42633 0.340125 1.42633C0.30627 1.50007 0.274109 1.57382 0.238562 1.64756C0.24364 1.72906 0.241948 1.81057 0.241948 1.89013C0.238562 1.9173 0.233484 1.94253 0.228406 1.96775C0.231791 2.22779 0.235177 2.48589 0.238562 2.74593C0.248719 2.90118 0.147156 3.07777 0.309656 3.20197C0.419682 3.16704 0.414604 3.05254 0.438302 2.95745C0.433223 2.88565 0.428145 2.81385 0.42476 2.74205C0.451843 2.70518 0.480619 2.67025 0.50601 2.63338C0.433223 2.56546 0.407833 2.48589 0.402755 2.40439H0.421375C0.546635 2.29377 0.588953 2.16181 0.58726 2.02015C0.602494 2.03373 0.614343 2.04926 0.629578 2.0609L0.63127 2.06284C0.63127 2.08031 0.63127 2.09777 0.63127 2.11524C0.507703 2.40051 0.58726 2.7207 0.583875 3.02731C0.602494 3.12434 0.634656 3.21361 0.71252 3.26989C0.698979 3.27377 0.683744 3.27959 0.670203 3.29318C0.641427 3.33587 0.622807 3.38244 0.609265 3.4329C0.546635 3.45813 0.484005 3.48141 0.419682 3.50664C0.384135 3.46589 0.348588 3.42319 0.313041 3.3805C-0.130449 3.52216 0.182702 3.91804 0.104838 4.1839C0.106531 4.2363 0.113302 4.2887 0.121765 4.34109C0.126843 4.3605 0.131921 4.37796 0.137 4.39737C0.0574422 4.4323 0.0405149 4.52933 0.0151246 4.62054C-0.00688094 4.83012 -0.0170368 5.03776 0.0726767 5.23182C0.09976 5.25123 0.121765 5.26481 0.140385 5.27257C0.138692 5.27451 0.137 5.27645 0.135307 5.2784C0.03713 5.37931 0.0405153 5.4938 0.103145 5.61606C0.113302 5.62382 0.125151 5.63158 0.135307 5.63934C0.131922 5.65487 0.131922 5.67233 0.133614 5.6898C0.21825 5.83534 0.123458 6.00806 0.196244 6.15554C0.206401 6.1633 0.21825 6.17106 0.230099 6.17495C0.226713 6.25257 0.22502 6.32825 0.221635 6.40394C0.211479 6.4835 0.209786 6.56306 0.213171 6.64263C0.208093 6.73772 0.206401 6.83475 0.203015 6.92983C0.209786 6.99776 0.21825 7.06568 0.22502 7.13554L0.269031 7.14136L0.311349 7.13942C0.377364 7.21316 0.441687 7.2869 0.507703 7.36259C0.512781 7.32183 0.517859 7.28108 0.522937 7.24033C0.522937 6.94148 0.50601 6.63875 0.529708 6.34184C0.541557 6.20017 0.528015 6.10897 0.42476 6.04881V5.60829L0.428145 5.61024L0.456921 5.60441C0.446765 5.57725 0.434916 5.55008 0.42476 5.52291V5.25317C0.419682 5.25317 0.414603 5.25317 0.409526 5.25317C0.40614 5.04747 0.404448 4.84176 0.401062 4.638C0.411219 4.63024 0.423068 4.62248 0.433224 4.61666C0.402755 4.32363 0.389213 4.03254 0.445073 3.73951C0.490776 3.73951 0.536479 3.73951 0.582182 3.74145C0.582182 3.74727 0.582182 3.75503 0.582182 3.7628C0.592338 3.95103 0.563562 4.1548 0.717599 4.29646C0.744682 4.30422 0.766687 4.30422 0.783614 4.30034C0.756531 4.32945 0.732833 4.36632 0.715906 4.40707C0.71252 4.41872 0.709135 4.4323 0.70575 4.44394L0.607572 4.50604C0.519552 4.63218 0.48739 4.76996 0.52463 4.92909C0.566947 5.03388 0.619422 5.10956 0.717599 5.0824C0.719292 5.1115 0.720984 5.14255 0.724369 5.17166C0.744682 5.17166 0.764994 5.16972 0.785307 5.16972C0.656661 5.226 0.616036 5.3502 0.592338 5.48604C0.577103 5.45887 0.560177 5.42976 0.539864 5.40065C0.541557 5.57336 0.541557 5.74608 0.544942 5.92073C0.558484 5.90132 0.570333 5.88386 0.582182 5.86445C0.58726 5.93043 0.597417 5.99641 0.616036 6.06239C0.590645 6.05463 0.566948 6.05463 0.541557 6.06433C0.539864 6.35154 0.538172 6.64069 0.536479 6.92789C0.553406 6.91043 0.56864 6.8949 0.585567 6.87744C0.599109 6.98417 0.629578 7.08314 0.710828 7.153C0.748068 7.16659 0.776843 7.16659 0.798849 7.153L0.79377 7.1627C0.710828 7.24421 0.641427 7.3296 0.717599 7.46544C0.79377 7.53142 0.788692 7.6265 0.797156 7.71577C0.790385 7.72159 0.785307 7.72547 0.780229 7.72936C0.673588 7.96029 0.644812 8.2145 0.604187 8.46678C0.656661 8.63949 0.604187 8.84325 0.709135 9.00238C0.795463 9.0082 0.871635 8.9888 0.917338 8.89371C0.932572 8.85102 0.9495 8.80832 0.966427 8.76757C1.00367 8.80056 1.06122 8.79474 1.10861 8.80832C1.17124 8.72876 1.23218 8.64919 1.29481 8.56963C1.25927 8.49977 1.22541 8.42797 1.19156 8.35811C1.19325 8.28825 1.19494 8.22032 1.19664 8.15046C1.22203 8.15823 1.24911 8.15629 1.27958 8.1427C1.28127 8.10001 1.28296 8.05731 1.28635 8.01462C1.28804 7.76235 1.28804 7.51007 1.28973 7.25973C1.28804 7.153 1.28635 7.04821 1.28296 6.94148C1.3439 6.98417 1.41838 6.96865 1.49455 6.94342C1.42007 7.05209 1.43531 7.17823 1.45393 7.30631C1.47424 7.44603 1.49963 7.58381 1.57072 7.70413C1.59611 7.74294 1.62828 7.77011 1.66552 7.78951C1.91604 7.62456 1.51825 7.31407 1.77554 7.15106C1.76538 7.07344 1.75523 6.99387 1.74338 6.91625C1.75184 6.84445 1.75861 6.77653 1.76708 6.70473L1.77385 6.46992C1.75523 6.38841 1.77216 6.28168 1.66382 6.26227C1.62828 6.369 1.59273 6.47574 1.55718 6.58441C1.46916 6.50873 1.38114 6.43498 1.29481 6.36124C1.28127 6.29138 1.37437 6.20988 1.2745 6.15166C1.29312 5.9479 1.437 5.79265 1.46747 5.59083C1.51825 5.72085 1.56734 5.85087 1.65705 5.95566C1.84663 5.99641 1.93466 5.8334 2.0413 5.70726C2.07007 5.55396 2.02606 5.41618 1.96005 5.28616H1.96174Z" fill="#E1067E"/>
</svg>
