<svg width="2" height="5" viewBox="0 0 2 5" fill="none" xmlns="http://www.w3.org/2000/svg">
<path d="M0.846332 2.12494C1.12901 1.99492 1.06638 1.76011 0.983441 1.52142C0.985134 1.44962 0.986827 1.37782 0.988519 1.30601C0.974978 1.01687 0.961436 0.72772 0.947894 0.436632C0.91404 0.366771 0.858181 0.360949 0.798936 0.374533C0.787087 0.380355 0.780316 0.388117 0.77016 0.393939C0.765082 0.261979 0.761696 0.130019 0.756618 0C0.643207 0.0718016 0.690603 0.203761 0.668598 0.310494C0.671983 0.374533 0.675369 0.434692 0.680447 0.498731C0.666905 0.518137 0.655056 0.537543 0.641514 0.556948C0.597504 0.632631 0.509483 0.615166 0.455316 0.671443C0.346983 1.01687 0.524717 1.3293 0.541645 1.66308C0.490863 1.68831 0.440082 1.71548 0.389301 1.74265C0.355447 1.74459 0.3199 1.74459 0.286046 1.74653C0.289431 1.87073 0.267426 2.00657 0.385915 2.08419C0.414691 2.0609 0.424847 2.02403 0.431618 1.98716C0.440082 2.24332 0.384222 2.5053 0.468858 2.75757C0.495941 2.77504 0.523025 2.78474 0.548415 2.78862C0.555186 2.92058 0.575499 3.04672 0.671983 3.13793C0.538259 3.25242 0.528103 3.41737 0.516254 3.58232C0.497634 3.54739 0.470551 3.51246 0.429926 3.48141C0.269119 3.51246 0.221722 3.6386 0.218337 3.80355C0.218337 3.80549 0.218337 3.80549 0.22003 3.80743C0.174327 3.79191 0.130316 3.77056 0.0930768 3.73175C-0.0220278 3.80549 -0.00340759 3.92581 0.0101341 4.04418C0.0947697 3.97626 0.265733 4.26929 0.291124 3.95686C0.423155 4.01701 0.365603 4.15868 0.392686 4.26347C0.475629 4.2266 0.473936 4.13927 0.4824 4.05777C0.561957 4.05971 0.633051 4.07911 0.668598 4.17614C0.817556 4.21301 0.849717 4.08105 0.893728 3.9685C0.87003 3.73175 0.851411 3.49888 0.952973 3.27765C0.924197 3.24272 0.89542 3.20973 0.866645 3.1748C0.89542 3.10494 0.924197 3.0312 0.952973 2.95939C0.959744 2.77698 0.966514 2.59262 0.971592 2.40827C0.964822 2.28407 0.944509 2.16958 0.804014 2.16569L0.778624 2.17928C0.785394 2.15405 0.78878 2.13076 0.793858 2.10554C0.810785 2.1133 0.82602 2.12106 0.844639 2.12688L0.846332 2.12494Z" fill="#E1067E"/>
</svg>
