<svg width="1" height="4" viewBox="0 0 1 4" fill="none" xmlns="http://www.w3.org/2000/svg">
<path d="M0.0182046 0.905666C0.0283606 0.911487 0.0385169 0.913428 0.0486733 0.917309C0.0419025 1.01822 0.0385167 1.12107 0.0317463 1.22392C0.0605222 1.25303 0.0909907 1.26079 0.126538 1.25303C0.148543 1.23945 0.167163 1.21422 0.187475 1.19675C0.114689 1.34812 0.101148 1.51501 0.111304 1.68966C0.118074 1.77699 0.136694 1.85849 0.175626 1.93418C0.182397 1.94194 0.189168 1.94776 0.195939 1.95552C0.192553 1.96329 0.189168 1.97105 0.185783 1.97881C0.16547 2.04479 0.158699 2.11271 0.16547 2.18257C0.168856 2.22721 0.179012 2.27184 0.189168 2.31647C0.223022 2.44649 0.214559 2.58233 0.224715 2.71623C0.189168 2.71235 0.153621 2.72399 0.116382 2.74534C0.0249752 2.87148 0.0317463 3.01314 0.0723713 3.15869C0.096069 3.21302 0.133309 3.24795 0.185783 3.26348C0.300887 3.27706 0.375366 3.21302 0.422762 3.09659C0.415991 3.05584 0.40922 3.01314 0.402449 2.97045C0.410913 2.72205 0.419377 2.47172 0.429533 2.22332C0.387215 2.0739 0.492163 1.88372 0.329663 1.77117C0.326277 1.55382 0.324585 1.33648 0.322892 1.12107C0.322892 1.08614 0.324585 1.05315 0.324585 1.02016C0.402449 1.02986 0.454924 1.00658 0.431225 0.88626C0.458309 0.853269 0.487085 0.81834 0.514168 0.785349C0.404142 0.583528 0.426147 0.354539 0.414298 0.131372C0.267033 -0.111202 0.180705 0.0226986 0.151929 0.207054C0.145158 0.255569 0.138387 0.302143 0.133309 0.350658C0.123153 0.276916 0.0960692 0.205114 0.0419025 0.137193C0.0385169 0.352599 0.0334392 0.568003 0.0300535 0.781468C0.00635584 0.808636 -0.00380073 0.835804 0.0012775 0.864913C0.00635574 0.894022 0.0131265 0.909547 0.0198973 0.909547L0.0182046 0.905666Z" fill="#E1067E"/>
</svg>
