<svg width="1" height="2" viewBox="0 0 1 2" fill="none" xmlns="http://www.w3.org/2000/svg">
<path d="M0.433333 0.591879C0.423177 0.591879 0.414714 0.591879 0.40625 0.591879C0.409636 0.576354 0.414714 0.56083 0.418099 0.545305C0.402865 0.357068 0.614453 0.104792 0.301302 0C0.269141 0.0329898 0.236979 0.0679207 0.204818 0.10091C0.299609 0.256157 0.299609 0.436631 0.304688 0.615166C0.299609 0.617106 0.294531 0.619047 0.289453 0.622928C0.169271 0.782057 0.150651 0.972234 0.1625 1.17211C0.177735 1.20705 0.192969 1.24392 0.20651 1.27885C0.20651 1.3293 0.204818 1.37782 0.203125 1.42827C0.142188 1.35647 0.0795573 1.28661 0.0186198 1.21481C0.0135416 1.31766 0.00677127 1.42245 0 1.5253C0.0575523 1.53888 -0.0541668 1.75235 0.106641 1.6398C0.201432 1.6689 0.294531 1.69607 0.391016 1.72518C0.358855 1.80669 0.328385 1.88819 0.299609 1.97164C0.36224 1.97164 0.42487 1.97164 0.4875 1.97164C0.523047 1.93088 0.55013 1.88431 0.572135 1.83385C0.597526 1.75235 0.609375 1.6689 0.614453 1.58352C0.602605 1.24198 0.866666 0.834453 0.435026 0.591879H0.433333Z" fill="#E1067E"/>
</svg>
