<svg width="1" height="2" viewBox="0 0 1 2" fill="none" xmlns="http://www.w3.org/2000/svg">
<path d="M0.132158 0.310494C0.113538 0.203761 0.166012 0.0718016 0.0475228 0C0.0475228 0.376474 0.0475227 0.752948 0.0458301 1.12748C0.0322884 1.15853 0.0204393 1.18958 0.0102832 1.22257C-0.00495147 1.26526 -0.00325812 1.30407 0.0153614 1.34289C0.0153614 1.3817 0.0153615 1.41857 0.0170541 1.45738C0.0272105 1.48649 0.0356736 1.5156 0.0390593 1.54665C0.0949185 1.5156 0.150778 1.48455 0.206637 1.4535C0.218486 1.31378 0.230335 1.17405 0.242184 1.03627C0.22695 1.02463 0.213409 1.01687 0.198174 1.01493C0.176169 0.780115 0.154163 0.545305 0.132158 0.310494Z" fill="#EFEEE8"/>
</svg>
