<svg width="1" height="2" viewBox="0 0 1 2" fill="none" xmlns="http://www.w3.org/2000/svg">
<path d="M0.150031 1.31378C0.117869 1.35259 0.0890933 1.3914 0.0569318 1.43021C-0.0124692 1.56799 -0.0293966 1.70383 0.0687807 1.83579C0.0924784 1.80475 0.117869 1.76981 0.141567 1.73877C0.200812 1.80669 0.260057 1.87461 0.320994 1.94447C0.317609 1.80475 0.373468 1.731 0.498729 1.72712C0.527505 1.65338 0.554588 1.58158 0.583364 1.50784C0.566437 1.36035 0.661229 1.18958 0.544432 1.06344C0.544432 1.05956 0.544432 1.05762 0.544432 1.05568C0.534275 1.03627 0.524119 1.01493 0.513963 0.995521C0.483494 0.970293 0.454718 0.947006 0.424249 0.921779C0.43102 0.906254 0.437791 0.890729 0.447947 0.875205C0.471645 0.816987 0.314223 0.620988 0.54951 0.714136C0.613833 0.737423 0.642609 0.607403 0.644302 0.522018C0.603677 0.29885 0.647687 0.00970281 0.332843 0C0.222817 0.0329898 0.180499 0.118376 0.190656 0.242573C0.190656 0.254217 0.190656 0.26392 0.188963 0.275563C0.177114 0.277504 0.166958 0.277503 0.155109 0.281385C0.0941718 0.417226 -0.0209332 0.553067 0.129718 0.706373C0.129718 0.840274 0.129718 0.974174 0.129718 1.10808C0.138182 1.176 0.144953 1.24392 0.151723 1.31378H0.150031Z" fill="#EFEEE8"/>
</svg>
