<svg width="1" height="2" viewBox="0 0 1 2" fill="none" xmlns="http://www.w3.org/2000/svg">
<path d="M0.236142 0.079564C0.198902 0.13196 0.173511 0.192118 0.15997 0.260039C0.156585 0.312435 0.154891 0.366771 0.153199 0.419167C0.127808 0.39588 0.0990324 0.399761 0.0617926 0.432751C0.0533292 0.609344 0.0431727 0.789818 0.0347093 0.968353C-0.0025305 1.1236 -0.0279207 1.27885 0.0567145 1.42633C0.0787196 1.40693 0.0956466 1.38558 0.112574 1.36423C0.105803 1.53889 0.12273 1.71354 0.264918 1.83968L0.312313 1.8455C0.307235 1.23033 0.442652 0.607403 0.253069 0C0.253069 0.027168 0.247991 0.0543365 0.237834 0.079564H0.236142Z" fill="#E1067E"/>
</svg>
