<svg width="1" height="1" viewBox="0 0 1 1" fill="none" xmlns="http://www.w3.org/2000/svg">
<path d="M0.257292 0.656937C0.277604 0.814124 0.313151 0.926679 0.453646 0.752026C0.451953 0.684105 0.45026 0.618125 0.448568 0.550205C0.418099 0.550205 0.389323 0.546323 0.358854 0.536621C0.42487 0.406601 0.40625 0.305691 0.28099 0.243592C0.289453 0.210602 0.289453 0.175671 0.277604 0.14074C0.248828 -0.117357 0.0964844 0.0631175 0.00169271 0.0398309C0.00169271 0.17179 0.0016926 0.30375 0 0.43571C0.0253903 0.433769 0.0490883 0.431829 0.0727865 0.429888C0.0778643 0.563789 0.130339 0.649175 0.255599 0.658877L0.257292 0.656937Z" fill="#EFEEE8"/>
</svg>
