<svg width="35" height="37" viewBox="0 0 35 37" fill="none" xmlns="http://www.w3.org/2000/svg">
<path d="M22.5621 0.723839C24.0398 1.20899 25.5413 1.9697 27.0664 3.00985L28.1396 1.9891C28.8861 1.30796 29.4988 0.842215 29.9813 0.589938C30.4637 0.341543 31.0155 0.215405 31.6384 0.215405C32.3849 0.215405 32.9757 0.401701 33.4124 0.778175C33.8474 1.15465 34.0658 1.70189 34.0658 2.41797C34.0658 2.70518 34.0184 3.00985 33.9253 3.33199L31.9651 10.7489C31.7484 11.6086 31.4759 12.2179 31.1492 12.575C30.8225 12.934 30.3316 13.1145 29.6783 13.1145C29.0266 13.1145 28.3969 12.8719 27.8823 12.3887C27.3694 11.9036 26.5671 10.91 25.4786 9.40602C24.3902 7.97193 23.4034 6.96088 22.5164 6.369C21.6294 5.77907 20.7204 5.48216 19.7861 5.48216C19.1022 5.48216 18.5267 5.7422 18.0595 6.26033C17.5923 6.78041 17.3604 7.41692 17.3604 8.16793C17.3604 9.02761 17.7328 9.82713 18.4793 10.5607C19.2258 11.2942 20.3938 12.2179 21.9798 13.3279C23.598 14.438 24.9353 15.4412 25.9932 16.3359C27.0512 17.2324 27.9534 18.3444 28.6999 19.6698C29.4464 20.9952 29.8204 22.5166 29.8204 24.236C29.8204 25.3479 29.663 26.458 29.3533 27.5699C28.6068 30.4362 27.1595 32.6135 25.0132 34.098C22.8668 35.5865 20.3616 36.3297 17.4992 36.3297C15.3529 36.3297 13.5484 36.0425 12.0859 35.47C10.6234 34.8956 9.13047 33.9292 7.60703 32.5669L5.92617 34.1796C5.14922 34.9325 4.51107 35.4429 4.01341 35.7107C3.51576 35.9804 2.95547 36.1143 2.33424 36.1143C1.61823 36.1143 1.05117 35.9164 0.63138 35.5224C0.209896 35.1285 0 34.591 0 33.9098C0 33.5527 0.0626303 33.1763 0.186198 32.7823L2.47305 24.7735C2.72188 23.842 3.0638 23.1803 3.50052 22.7844C3.93555 22.3905 4.49583 22.1945 5.17969 22.1945C5.86523 22.1945 6.54063 22.4817 7.11615 23.0542C7.69167 23.6286 8.44662 24.6668 9.3793 26.1707C10.3746 27.8202 11.3005 28.9652 12.1553 29.6114C13.0119 30.2557 14.0309 30.5778 15.2124 30.5778C16.0536 30.5778 16.6986 30.4265 17.1488 30.1218C17.5991 29.8171 17.919 29.3242 18.1052 28.6431C18.1678 28.4645 18.2 28.1967 18.2 27.8377C18.2 26.978 17.8411 26.1902 17.1268 25.4741C16.4108 24.7561 15.3072 23.8964 13.8125 22.895C12.2264 21.785 10.9349 20.7895 9.93958 19.9124C8.94427 19.0333 8.08099 17.933 7.34974 16.6075C6.62018 15.2821 6.25456 13.7238 6.25456 11.9307C6.25456 10.6771 6.42552 9.44095 6.76745 8.22227C7.42083 5.74996 8.75807 3.76086 10.7809 2.2569C12.802 0.752947 15.1193 0 17.7328 0C19.4763 0 21.0844 0.242573 22.5638 0.725779L22.5621 0.723839Z" fill="#FFFCDD"/>
</svg>
