<svg width="1" height="2" viewBox="0 0 1 2" fill="none" xmlns="http://www.w3.org/2000/svg">
<path d="M0.182812 0C0.071094 0.0776235 0.0998697 0.205703 0.0981771 0.322138C0.0694012 0.36095 0.0389322 0.399761 0.0101562 0.438573C0.0118489 0.502612 0.0135414 0.566652 0.0169271 0.630691C0.0118489 0.768473 0.00507823 0.908195 0 1.04598C0.0220051 1.05374 0.0457029 1.06344 0.069401 1.0712C0.0812497 1.1333 0.0914065 1.1954 0.101562 1.2575C0.132031 1.2575 0.160807 1.26332 0.187891 1.27691C0.340235 1.08285 0.240365 0.851918 0.253906 0.638453C0.253906 0.599642 0.252214 0.56083 0.252214 0.523959C0.250521 0.345425 0.340235 0.151366 0.182812 0Z" fill="#EFEEE8"/>
</svg>
