<svg width="1" height="5" viewBox="0 0 1 5" fill="none" xmlns="http://www.w3.org/2000/svg">
<path d="M0.235286 1.65637C0.0863281 1.96298 0.0998697 2.27347 0.233594 2.58591C0.253906 2.59755 0.269141 2.60337 0.284375 2.60919C0.284375 2.60919 0.284375 2.61113 0.282682 2.61113C0.0998698 2.79549 0.228516 3.0206 0.220052 3.22824C0.309766 3.33497 0.198047 3.4223 0.198047 3.52321C0.204817 3.61636 0.223437 3.6998 0.30638 3.71533C0.18789 3.84535 0.18112 3.99089 0.267448 4.14614C0.328385 4.18107 0.389323 4.21406 0.45026 4.24705C0.460416 4.06851 0.472265 3.88804 0.482422 3.70757L0.445182 3.71339C0.536589 3.42812 0.399479 3.10986 0.538281 2.83236C0.480729 2.71204 0.42487 2.59367 0.36901 2.47335C0.399479 2.44618 0.429948 2.41708 0.460417 2.38991C0.463802 2.20555 0.467187 2.0212 0.470573 1.83684C0.460416 1.72817 0.451953 1.61755 0.441797 1.50888C0.446875 1.38662 0.492578 1.25466 0.372396 1.16346C0.470573 0.994625 0.467187 0.808329 0.446875 0.618151C0.448568 0.439618 0.451953 0.259144 0.453646 0.080609C0.419792 0.0689658 0.387631 0.0592628 0.353776 0.0476191C0.250521 -0.026123 0.155729 -0.0125394 0.0643229 0.0767279C-2.19544e-07 0.297954 -0.00846332 0.495894 0.177734 0.602627C0.120183 0.68025 0.0660154 0.761755 0.0355469 0.860725C0.027083 1.00045 0.0016926 1.13823 0 1.27795C0.0118491 1.40215 0.0541668 1.51276 0.123568 1.60979C0.155729 1.64084 0.194661 1.65637 0.235286 1.65637Z" fill="#E1067E"/>
</svg>
