<svg width="1" height="4" viewBox="0 0 1 4" fill="none" xmlns="http://www.w3.org/2000/svg">
<path d="M0.415177 0.770413C0.415177 0.770413 0.420254 0.758769 0.42364 0.754888C0.445645 0.685027 0.450723 0.613225 0.435489 0.539483C0.416869 0.471563 0.381323 0.415286 0.339005 0.366771C0.415177 0.260039 0.369474 0.126138 0.371166 0.00194047C0.284838 0.137782 0.19851 0.128079 0.113874 0C0.110489 0.0795639 0.107103 0.161069 0.105411 0.244514C0.0698641 0.250336 0.0410878 0.269742 0.0173901 0.300791C0.0156975 0.523959 -0.0249275 0.76265 0.0241609 0.970293C0.0732493 1.176 0.127416 0.923719 0.190046 0.927601C0.186661 1.20316 0.181583 1.47873 0.176505 1.75429C0.188354 1.78922 0.19851 1.82415 0.208666 1.86102C0.176505 2.03373 0.252676 2.22973 0.129109 2.38498C0.159577 2.4529 0.186661 2.51888 0.215437 2.5868C0.210359 2.8352 0.154499 3.08941 0.293302 3.31646C0.449031 3.08747 0.381322 2.83326 0.355932 2.58486C0.401635 2.44126 0.362702 2.31124 0.306843 2.1851C0.425333 2.08031 0.494734 1.95805 0.415177 1.78534C0.398249 1.76593 0.37963 1.75623 0.364395 1.74847C0.469343 1.68249 0.48627 1.56411 0.499812 1.44186C0.493041 1.21481 0.548901 0.972234 0.415177 0.772354V0.770413Z" fill="#EFEEE8"/>
</svg>
