<svg width="1" height="6" viewBox="0 0 1 6" fill="none" xmlns="http://www.w3.org/2000/svg">
<path d="M0.229316 5.19883C0.241165 5.1736 0.249628 5.15032 0.256399 5.12509C0.268248 5.14838 0.283483 5.1736 0.305488 5.19495C0.335957 5.26287 0.303795 5.3696 0.405358 5.38901C0.466295 5.32109 0.496764 5.24346 0.513691 5.16584C0.513691 5.16778 0.513691 5.16778 0.513691 5.16972C0.654186 5.07269 0.566165 4.90968 0.598326 4.77966C0.584785 4.64576 0.737128 4.46529 0.559394 4.37796C0.55093 4.33527 0.537389 4.29646 0.511998 4.26153L0.528925 4.25959C0.552623 4.1645 0.586478 4.07329 0.550931 3.97238C0.500149 3.86177 0.422285 3.77832 0.329186 3.71234C0.3258 3.71234 0.322415 3.71234 0.319029 3.7104C0.346113 3.58426 0.290253 3.43678 0.337649 3.31646C0.341035 3.43096 0.352884 3.54157 0.4883 3.55515C0.574629 3.51052 0.540774 3.39215 0.596634 3.33005L0.586477 3.31258C0.58817 2.9691 0.591555 2.62367 0.593248 2.28019C0.622024 2.28019 0.652493 2.28019 0.679576 2.28601C0.737128 2.34811 0.796373 2.41215 0.853925 2.47425C0.828535 2.23556 0.958873 1.97552 0.774368 1.76011C0.743899 1.79504 0.71343 1.82803 0.682962 1.86296C0.571243 1.78146 0.593248 1.65532 0.603404 1.535C0.640644 1.40498 0.671113 1.27303 0.58817 1.15271C0.593248 1.15077 0.598327 1.15077 0.601712 1.14883C0.642337 1.0712 0.635566 0.985818 0.633873 0.900432C0.647415 0.978056 0.618639 1.06732 0.684654 1.12942C0.791295 1.0518 0.767597 0.92566 0.779446 0.811165C0.774368 0.778175 0.770982 0.743245 0.76929 0.708314C0.752363 0.471563 0.855618 0.213465 0.682962 0C0.66942 0.172712 0.738821 0.366771 0.594941 0.512315C0.586477 0.512315 0.579706 0.523959 0.572936 0.545305C0.571243 0.551127 0.571243 0.555008 0.571243 0.56083C0.566165 0.56083 0.564472 0.56083 0.561087 0.56083C0.466295 0.578295 0.398587 0.636512 0.361347 0.737423C0.329186 0.902373 0.376582 1.03433 0.479837 1.14689C0.483222 1.15077 0.4883 1.15077 0.491686 1.15271C0.408743 1.22451 0.38166 1.33512 0.352884 1.44186C0.346113 1.47873 0.342727 1.51754 0.342727 1.55635C0.253013 1.58352 0.264862 1.71548 0.21916 1.78922C0.21916 1.79504 0.21916 1.79698 0.21916 1.80086C0.193769 1.75235 0.148066 1.70384 0.134524 1.65532L0.136217 1.65338C-0.121075 1.68249 0.0955916 1.86684 0.0566596 1.9697C0.0515813 2.03568 0.0465033 2.10166 0.0397325 2.16958C0.0380399 2.21227 0.0363469 2.25496 0.0329617 2.29765C-0.00597074 2.36752 -0.0110484 2.44126 0.0211127 2.51888C0.0295766 2.53247 0.03804 2.54217 0.048196 2.55381C0.0431182 2.70518 0.03804 2.8546 0.0346544 3.00403L0.0617377 3.11852L0.031269 3.1127C0.0346542 3.32228 0.0397324 3.52993 0.0448106 3.73951H0.088821L0.129446 3.73175C0.136217 3.52605 0.142988 3.32034 0.149759 3.11658C0.139603 3.10882 0.129446 3.10106 0.11929 3.09329C0.132831 3.02732 0.146373 2.96328 0.158222 2.8973C0.154837 2.80415 0.153144 2.71294 0.149759 2.61785C0.1633 2.61979 0.178535 2.62173 0.195462 2.61785C0.197154 2.61591 0.197154 2.61203 0.198847 2.61009C0.207311 2.70324 0.21916 2.79639 0.237779 2.88953C0.271634 2.96134 0.30718 3.02343 0.378274 3.02537C0.376582 3.04284 0.374889 3.06031 0.373196 3.07777C0.341035 3.06225 0.290253 3.08165 0.234394 3.11658C0.234394 3.31646 0.236087 3.51634 0.236087 3.71816C0.22593 3.72205 0.217467 3.72593 0.207311 3.73369C0.18192 3.80355 0.176842 3.87341 0.21916 3.93939C0.241165 4.03836 0.210696 4.16062 0.288561 4.23824C0.242857 4.26929 0.209004 4.31586 0.185305 4.37408C0.170071 4.44976 0.175149 4.51769 0.236087 4.56814L0.22593 4.57978C0.28179 4.66517 0.268248 4.76026 0.251321 4.85729C0.242858 4.83594 0.232701 4.81265 0.220852 4.79131C-0.115997 4.93491 0.0752795 5.06881 0.22593 5.20077L0.229316 5.19883Z" fill="#EFEEE8"/>
</svg>
