<svg width="2" height="4" viewBox="0 0 2 4" fill="none" xmlns="http://www.w3.org/2000/svg">
<path d="M0.00677083 1.59531C0.0118486 1.77967 0.016927 1.96208 0.0220052 2.14838C0.0406247 2.14644 0.0592446 2.14256 0.0761719 2.13868C0.0964844 2.12121 0.11849 2.10375 0.138802 2.08822C0.147266 2.07076 0.154036 2.05523 0.160807 2.03971C0.167578 2.0727 0.174349 2.10763 0.184505 2.14062C0.363932 1.98343 0.284375 1.77385 0.28099 1.57979C0.308073 1.55456 0.335156 1.52739 0.358854 1.49634C0.401172 1.44007 0.429948 1.37603 0.438412 1.30034C0.441797 1.25571 0.438412 1.21108 0.431641 1.16644C0.450261 1.13539 0.465495 1.10434 0.477344 1.07329C0.473958 1.17032 0.472266 1.26929 0.470573 1.36826C0.480729 1.40319 0.492578 1.44007 0.502734 1.475C0.492578 1.58367 0.482422 1.69234 0.472266 1.80101C0.331771 1.96208 0.416406 2.17361 0.380859 2.35796C0.411328 2.39483 0.441797 2.43559 0.472266 2.4744C0.501042 2.5986 0.438411 2.69174 0.389323 2.78877C0.50612 2.86057 0.479036 2.99059 0.490885 3.10509C0.52474 3.07598 0.558594 3.04881 0.594141 3.0197C0.633073 2.95955 0.658464 2.89745 0.673698 2.83535C0.66862 2.89551 0.663541 2.9576 0.658464 3.01776C0.66862 3.08956 0.678776 3.16137 0.688932 3.23123C0.699089 3.20794 0.707552 3.18465 0.717708 3.16137C0.712631 3.18465 0.702474 3.20794 0.688932 3.23123C0.714323 3.2778 0.739714 3.32243 0.765104 3.36901C0.93776 3.22735 1.0681 3.04687 1.13919 2.814C1.17135 2.92073 1.11211 3.06822 1.24922 3.12644C1.2543 3.0915 1.25937 3.05851 1.26615 3.02358C1.37448 2.8664 1.38125 2.6898 1.33555 2.50545C1.33047 2.49186 1.32539 2.48216 1.32031 2.46858C1.43203 2.46081 1.53529 2.43947 1.53529 2.24735C1.56914 2.21242 1.60299 2.17555 1.63516 2.14062C1.66901 2.10569 1.69271 2.06493 1.70964 2.01642C1.72995 1.88834 1.7181 1.77385 1.61992 1.68846C1.51328 1.65353 1.44557 1.76414 1.35078 1.78161C1.35078 1.78161 1.34909 1.78549 1.3474 1.78549C1.3457 1.71175 1.32539 1.64577 1.28138 1.58755C1.26784 1.57397 1.2526 1.5662 1.23568 1.55844C1.23568 1.25183 1.23906 0.945216 1.23906 0.638603C1.27122 0.590088 1.29323 0.531871 1.31693 0.473653C1.34401 0.359159 1.33893 0.246605 1.28984 0.139873C1.19844 0.0176155 1.09857 -0.0541863 0.961458 0.0506056C1.14258 0.213615 0.878516 0.341693 0.934375 0.493059C0.947917 0.710405 0.959766 0.927751 0.973307 1.1451H0.963151C1.01393 1.1645 1.04779 1.1548 1.07318 1.12957C1.08333 1.25765 1.04948 1.39737 1.10703 1.51381C1.06471 1.48664 1.0224 1.45753 0.969922 1.475C0.934375 1.47694 0.898828 1.48082 0.863281 1.4847C0.870052 1.66129 0.876823 1.83789 0.881901 2.01448C0.866666 2.02224 0.851432 2.02806 0.834505 2.03971C0.763411 2.17167 0.765105 2.2978 0.83112 2.41812C0.826042 2.42976 0.819271 2.44141 0.814193 2.45305C0.783724 2.54038 0.766797 2.63159 0.756641 2.72473C0.738021 2.71891 0.716016 2.71503 0.690625 2.71503C0.692318 2.61606 0.666927 2.51515 0.614453 2.4123C0.595833 2.39677 0.577214 2.38319 0.558594 2.37155C0.561979 2.36961 0.565365 2.36573 0.567057 2.36184C0.583985 2.34438 0.600911 2.32885 0.617839 2.31333C0.663541 2.22018 0.658464 2.12315 0.63138 2.02418C0.626302 2.00478 0.617839 1.98731 0.609375 1.96791C0.655078 1.90192 0.677083 1.83595 0.678776 1.76802C0.690625 1.92327 0.656771 2.08822 0.677083 2.24347C0.873438 2.02418 0.719401 1.73892 0.782031 1.49246C0.773568 1.39155 0.741406 1.31393 0.675391 1.27318C0.677083 1.25959 0.678776 1.24601 0.678776 1.23048C0.678776 1.17809 0.673698 1.12375 0.66862 1.07135C0.621224 0.921929 0.670313 0.749217 0.583984 0.609495C0.553515 0.572623 0.521354 0.533812 0.490885 0.49694C0.489193 0.574564 0.4875 0.650247 0.485807 0.72787C0.463802 0.650247 0.428256 0.572623 0.379167 0.493059C0.31823 0.460069 0.257291 0.427079 0.198047 0.394089C0.196354 0.463951 0.194661 0.533812 0.192969 0.601732C-0.0236979 0.809375 0.230208 1.16644 0 1.36826C0.00169303 1.44395 0.00338553 1.51963 0.00507813 1.59725L0.00677083 1.59531Z" fill="#E1067E"/>
</svg>
