<svg width="2" height="8" viewBox="0 0 2 8" fill="none" xmlns="http://www.w3.org/2000/svg">
<path d="M0.895547 4.60889C0.917552 4.51574 0.939557 4.4226 0.963256 4.32751C0.985261 4.5041 0.954792 4.69622 1.04451 4.85147C1.04281 4.86699 1.03773 4.88251 1.03435 4.89998C1.02419 4.97954 1.03096 5.05523 1.06313 5.12703C1.24086 5.34049 1.35935 5.19301 1.47953 5.0397C1.50831 5.0397 1.53708 5.04164 1.56755 5.04358C1.56586 4.93297 1.56417 4.82236 1.56247 4.71174C1.58279 4.48664 1.60648 4.25959 1.48292 4.05388L1.47953 4.06359C1.31703 3.93551 1.25271 4.03642 1.19516 4.1548C1.185 4.01313 1.20701 3.87729 1.28826 3.75892C1.32042 3.76862 1.35258 3.76668 1.38474 3.75115C1.5574 3.58038 1.60649 3.35139 1.57094 3.1127C1.53539 2.88371 1.62003 2.70324 1.68604 2.50918C1.73174 2.44126 1.75375 2.36557 1.74698 2.27825C1.74021 2.22197 1.7199 2.17152 1.69112 2.12688C1.75714 1.99298 1.76221 1.83579 1.79438 1.69025C1.79099 1.4729 1.78591 1.24586 1.7182 1.04598C1.6488 0.840274 1.52523 0.731601 1.39828 1.01493C1.3949 1.02075 1.3949 1.02851 1.3932 1.03433C1.38813 0.979997 1.38305 0.925659 1.37797 0.871323C1.36443 0.69667 1.4626 0.4638 1.19685 0.421107C1.16638 0.423048 1.1376 0.423048 1.10883 0.421107C1.07497 0.388117 1.04112 0.357068 1.00727 0.324078C1.0005 0.355127 0.992032 0.388117 0.985261 0.417226C0.904011 0.564711 0.887084 0.708314 1.00388 0.836393C0.99711 0.840274 0.990339 0.842215 0.981875 0.848036C0.934479 0.908194 0.910782 0.983877 0.898933 1.06344C0.875235 1.176 0.893854 1.29049 0.873542 1.40304C0.854922 1.35841 0.829531 1.32348 0.792292 1.30407C0.792292 1.26332 0.790599 1.22257 0.785521 1.18182C0.765209 1.10031 0.756745 1.01687 0.749974 0.933422C0.763516 0.954768 0.782136 0.974174 0.809219 0.989699C0.814297 0.799521 0.817683 0.609344 0.822761 0.417226C0.793985 0.275563 0.854922 0.108673 0.722891 0C0.719506 0.0931481 0.71612 0.184356 0.711042 0.275563C0.692422 0.211524 0.66026 0.153306 0.602709 0.104792C0.573932 0.174653 0.546849 0.244514 0.518073 0.316316C0.518073 0.380355 0.518073 0.446335 0.51638 0.510374C0.496068 0.444394 0.463906 0.378414 0.421589 0.312434C0.392812 0.308553 0.364037 0.310494 0.335261 0.316316C0.338646 0.537542 0.342031 0.758769 0.345417 0.979996C0.298021 1.08673 0.252318 1.19346 0.208308 1.30019C0.389427 1.48649 0.326797 1.73294 0.330183 1.96193C0.430052 1.98522 0.47237 1.91342 0.50961 1.82609C0.50961 1.82609 0.50961 1.82609 0.50961 1.82415C0.50961 1.83385 0.50961 1.84356 0.50961 1.8552C0.51638 1.99686 0.523151 2.14241 0.531615 2.28407C0.531615 2.31318 0.531615 2.34229 0.529922 2.3714C0.523151 2.37528 0.518073 2.37722 0.511302 2.3811C0.507917 2.38692 0.506224 2.39274 0.502839 2.39856C0.452057 2.36946 0.396198 2.35587 0.333568 2.38886C0.159219 2.49171 0.350495 2.71682 0.220157 2.8352C0.277709 3.05836 0.0711984 3.29512 0.243854 3.5144C0.233698 3.62113 0.225235 3.72981 0.216771 3.83654C0.221849 3.90834 0.22862 3.98208 0.233698 4.05388C0.172761 4.02866 0.11013 4.00537 0.0475002 4.05777L0.0305732 4.27899C-0.0134375 4.35274 -0.0117447 4.41872 0.0475002 4.48081C0.116901 4.50798 0.203229 4.49634 0.238776 4.59725C0.480834 4.6477 0.308177 4.35662 0.423282 4.30034C0.397891 4.246 0.380964 4.18584 0.350495 4.13151C0.345417 4.12763 0.340339 4.12375 0.336953 4.11986C0.364037 4.06941 0.387735 4.01701 0.402969 3.96656C0.411432 3.99179 0.419896 4.01895 0.430052 4.04612C0.49099 3.97238 0.55362 3.89864 0.61625 3.8249C0.650104 3.83266 0.685651 3.83848 0.719505 3.8443C0.749974 3.86371 0.780443 3.86565 0.807526 3.85012C0.800756 3.92581 0.793985 4.00343 0.787214 4.07911C0.763516 4.1024 0.739818 4.12569 0.714427 4.14509C0.711042 4.28676 0.709349 4.43036 0.707657 4.57202L0.722891 4.60889C0.722891 4.60889 0.71612 4.60889 0.714427 4.60889L0.707657 4.57202C0.489297 4.66711 0.453751 4.81459 0.614558 5.01447C0.579011 5.06105 0.543464 5.10956 0.507917 5.15614C0.511302 5.22212 0.51638 5.28616 0.521459 5.35214C0.502839 5.28422 0.47237 5.21824 0.431745 5.15032L0.40974 5.1736C0.423282 5.0397 0.399584 4.94073 0.255703 4.94849C0.152448 5.11733 0.196459 5.25705 0.320026 5.38125C0.318334 5.52097 0.316641 5.66263 0.314948 5.80235C0.174453 5.87804 0.352188 5.95178 0.314948 6.02746C0.230313 6.17883 0.220157 6.33019 0.314948 6.48156C0.320026 6.73189 0.326797 6.98417 0.331875 7.23451C0.394505 7.19958 0.457136 7.16464 0.518073 7.12971C0.584089 7.16853 0.650104 7.2054 0.714427 7.24227C0.861693 6.98029 0.871849 6.70861 0.837995 6.4311C0.990339 6.29138 0.856615 6.08568 0.905703 5.92267C0.873542 5.92267 0.841381 5.92267 0.809219 5.92267C0.810912 6.03328 0.810912 6.14584 0.812604 6.25645C0.802448 6.20017 0.792292 6.1439 0.780443 6.08762C0.751667 6.02746 0.707657 5.99059 0.648412 5.97895C0.687344 5.8858 0.71612 5.79265 0.721198 5.69562C0.821068 5.75772 0.905703 5.77907 0.91586 5.59665C1.00727 5.44917 1.00727 5.29974 0.920938 5.15032L0.895547 4.60695V4.60889Z" fill="#E1067E"/>
</svg>
