<svg width="1" height="3" viewBox="0 0 1 3" fill="none" xmlns="http://www.w3.org/2000/svg">
<path d="M0.440926 0.188237C0.440926 0.188237 0.449389 0.182415 0.452775 0.180475L0.473087 0.186296C0.503556 0.0252275 0.408764 0.0116433 0.308894 0C0.263191 0.0135842 0.222566 0.0388115 0.190405 0.0815046L0.173478 0.0718017C0.207332 0.213464 0.159936 0.368711 0.173478 0.514255C0.170093 0.564711 0.166707 0.617106 0.163321 0.669502C0.163321 0.72772 0.171785 0.783997 0.185327 0.838333C0.188712 0.851918 0.19379 0.86162 0.197176 0.873264C-0.0228766 0.99164 -0.0313397 1.21287 0.0397538 1.47485C0.0702228 1.51754 0.104077 1.53112 0.143009 1.51948C0.114233 1.67861 0.0329827 1.82415 0.0363684 1.99298C0.0566809 2.17152 0.0617592 2.35587 0.166707 2.50724C0.258113 2.53247 0.29366 2.48589 0.286889 2.38498C0.369832 2.06284 0.388452 1.731 0.359676 1.39916C0.366446 1.29243 0.373218 1.18764 0.379988 1.08285C0.6559 1.0518 0.51879 0.879086 0.469702 0.737423C0.501863 0.692789 0.527254 0.644275 0.547566 0.589938C0.578035 0.442454 0.567879 0.302731 0.464624 0.190177C0.45616 0.190177 0.449389 0.190177 0.440926 0.190177V0.188237Z" fill="#E1067E"/>
</svg>
