<svg width="1" height="3" viewBox="0 0 1 3" fill="none" xmlns="http://www.w3.org/2000/svg">
<path d="M0.494271 0.964471C0.465495 0.95865 0.440104 0.95865 0.419792 0.95865C0.426563 0.945066 0.436719 0.935363 0.448568 0.923719C0.465495 0.902373 0.482422 0.884908 0.497656 0.865502C0.494271 0.62875 0.414714 0.510374 0.194661 0.615166C0.194661 0.632631 0.194661 0.650097 0.194661 0.669502C0.18112 0.620988 0.164193 0.576354 0.142188 0.531721C0.123568 0.508433 0.103256 0.49679 0.08125 0.49485C0.0863282 0.3299 0.0930988 0.16495 0.0981771 0C-0.0626303 0.141663 0.0304691 0.3299 0.028776 0.502612C0.0203126 0.749067 0.0101565 0.995521 0 1.24198C0.00677083 1.34095 0.0135417 1.43991 0.0203125 1.53694C0.0744792 1.43409 0.130339 1.3293 0.186198 1.22451C0.24375 1.23227 0.302995 1.23615 0.36224 1.24392C0.360547 1.34871 0.357161 1.45544 0.355469 1.56023C0.365625 1.72712 0.374089 1.89401 0.384245 2.0609L0.423177 2.07061H0.463802C0.595833 1.70578 0.660156 1.33901 0.495964 0.964471H0.494271Z" fill="#EFEEE8"/>
</svg>
