<svg width="1" height="1" viewBox="0 0 1 1" fill="none" xmlns="http://www.w3.org/2000/svg">
<path d="M0.0874626 0.516196C0.109468 0.584117 0.077306 0.613225 0.0248324 0.62875C0.0400666 0.758769 0.117931 0.723839 0.189025 0.710255C0.195796 0.646215 0.204259 0.580236 0.21103 0.518137C0.209338 0.456038 0.205952 0.39782 0.202567 0.337662C0.222879 0.39588 0.249963 0.454097 0.280431 0.514255C0.309208 0.551127 0.337984 0.586057 0.36676 0.622928C0.37353 0.450216 0.380301 0.279444 0.385379 0.106732C0.378608 0.0756824 0.37353 0.0426928 0.368452 0.00970293L0.376916 0C0.270275 0.0388117 0.216108 0.0892668 0.194103 0.149425C0.192411 0.104792 0.189025 0.062099 0.187332 0.0194059C-0.112277 0.114495 0.0214469 0.324078 0.0874626 0.516196Z" fill="#EFEEE8"/>
</svg>
