<svg width="1" height="6" viewBox="0 0 1 6" fill="none" xmlns="http://www.w3.org/2000/svg">
<path d="M0.689659 5.05523C0.676118 5.07851 0.664269 5.1018 0.655805 5.12509C0.638878 5.02224 0.623644 4.92133 0.682889 4.83206L0.67104 4.82042C0.735362 4.76802 0.742133 4.69428 0.725206 4.61471C0.701508 4.55262 0.664269 4.50604 0.616873 4.47111C0.698123 4.38961 0.667654 4.26153 0.691352 4.15674C0.735362 4.08687 0.730284 4.01313 0.703201 3.93745C0.693045 3.93163 0.682889 3.92581 0.67104 3.92387C0.67104 3.7104 0.674425 3.49888 0.674425 3.28735C0.61518 3.25048 0.562707 3.22914 0.527159 3.2466C0.525467 3.22914 0.522081 3.20973 0.522081 3.19032C0.59656 3.19032 0.635492 3.12434 0.669347 3.04866C0.689659 2.94969 0.703201 2.85072 0.711665 2.75369C0.713357 2.75563 0.713357 2.75951 0.716743 2.76145C0.73367 2.76534 0.747212 2.76339 0.762446 2.76145C0.760753 2.86042 0.757367 2.95745 0.753982 3.05642C0.767524 3.12628 0.781066 3.19615 0.794607 3.26407C0.784451 3.27183 0.774295 3.27959 0.762446 3.28735C0.769217 3.50276 0.777681 3.7201 0.784451 3.93551L0.828461 3.94715H0.874165C0.87755 3.72593 0.882628 3.50664 0.889399 3.28541L0.855545 3.29123L0.884321 3.17092C0.880936 3.01179 0.875857 2.8546 0.870779 2.69547C0.880936 2.68383 0.889399 2.67219 0.897862 2.65666C0.933409 2.5771 0.928331 2.49948 0.886014 2.42379C0.88432 2.37916 0.880936 2.33453 0.879243 2.28795C0.874165 2.21809 0.867394 2.14823 0.860623 2.07837C0.819998 1.9697 1.04682 1.77564 0.77768 1.74459L0.781066 1.74653C0.765831 1.79892 0.716742 1.84938 0.691352 1.90177C0.691352 1.89595 0.691352 1.89401 0.689659 1.88819C0.642264 1.81057 0.654112 1.67085 0.559321 1.64174C0.559321 1.60098 0.555935 1.56023 0.549165 1.52142C0.518696 1.40887 0.491612 1.29243 0.403592 1.21481C0.406977 1.21287 0.412055 1.21287 0.415441 1.21093C0.523774 1.09061 0.574556 0.950887 0.540701 0.778175C0.500076 0.671443 0.428982 0.609344 0.330805 0.591879C0.327419 0.591879 0.324034 0.591879 0.320649 0.591879C0.320649 0.586057 0.320649 0.580235 0.318956 0.574414C0.310492 0.551127 0.303722 0.539483 0.293566 0.539483C0.142915 0.386177 0.215701 0.184356 0.200467 0C0.0193471 0.227048 0.129373 0.49679 0.110753 0.747126C0.10906 0.783997 0.105675 0.820868 0.100597 0.857739C0.110753 0.976115 0.0870554 1.11196 0.198774 1.19152C0.269867 1.12554 0.239399 1.03239 0.252941 0.950887C0.252941 1.04015 0.24617 1.12942 0.286795 1.21287C0.291873 1.21481 0.296951 1.21481 0.300336 1.21675C0.215701 1.34483 0.247862 1.48261 0.285102 1.62039C0.295258 1.74653 0.318956 1.87849 0.202159 1.96581C0.169998 1.92894 0.137836 1.89401 0.105675 1.85714C-0.0872936 2.08419 0.0481229 2.35975 0.0227322 2.61203C0.0836697 2.54411 0.144607 2.47813 0.205545 2.41215C0.234321 2.40633 0.26479 2.40439 0.296951 2.40439C0.298644 2.76922 0.300336 3.13211 0.303722 3.495L0.291873 3.5144C0.351117 3.58038 0.315571 3.70458 0.406977 3.75115C0.549165 3.73757 0.561014 3.62113 0.564399 3.49888C0.61518 3.62696 0.555936 3.7822 0.584711 3.9161C0.581326 3.9161 0.57794 3.9161 0.574555 3.91804C0.476378 3.98596 0.395128 4.07523 0.340961 4.19167C0.303722 4.29646 0.340962 4.39543 0.364659 4.4944L0.381586 4.49634C0.356196 4.53321 0.340961 4.5759 0.332498 4.62054C0.144607 4.71368 0.307107 4.90386 0.291873 5.04358C0.324034 5.18137 0.232628 5.35214 0.379894 5.45693C0.379894 5.45305 0.379894 5.45305 0.379894 5.45111C0.398514 5.53455 0.432367 5.61412 0.493305 5.68786C0.599945 5.66651 0.567784 5.55396 0.598253 5.48216C0.621951 5.45887 0.638878 5.43364 0.650727 5.40841C0.65919 5.43558 0.669347 5.46081 0.681196 5.48604C0.840311 5.34632 1.04174 5.20659 0.687967 5.05523H0.689659Z" fill="#E1067E"/>
</svg>
