<svg width="1" height="2" viewBox="0 0 1 2" fill="none" xmlns="http://www.w3.org/2000/svg">
<path d="M0.252214 0.498731C0.238672 0.39782 0.22513 0.29885 0.209896 0.19988C0.201432 0.13196 0.191276 0.0659802 0.182812 0C0.150651 0.0271685 0.116797 0.0543362 0.0846354 0.0815046C0.106641 0.221227 0.0135419 0.370652 0.111719 0.504552C0.0744794 0.539483 0.0372394 0.576355 0 0.613225C0.00507823 0.747126 -1.08158e-07 0.884907 0.0186198 1.01881C0.0321615 1.12166 0.0947917 1.22645 0.196354 1.19346C0.301302 1.15853 0.274219 1.03045 0.267448 0.929541C0.088021 0.795641 0.34362 0.638453 0.250521 0.498731H0.252214Z" fill="#EFEEE8"/>
</svg>
