<svg width="1" height="2" viewBox="0 0 1 2" fill="none" xmlns="http://www.w3.org/2000/svg">
<path d="M0.494271 0.814076C0.490886 0.744215 0.489193 0.670473 0.485807 0.598671C0.484115 0.416256 0.482422 0.229959 0.480729 0.0475446C0.46211 0.0359008 0.445182 0.0242571 0.428255 0.0106734C0.345312 0.00679199 0.253906 -0.0242574 0.186198 0.0417228C0.177734 0.0359009 0.170964 0.03202 0.160807 0.0261981C0.0677087 0.0688908 0.0727865 0.169801 0.0592448 0.259068C0.0152346 0.332811 0.0118487 0.406553 0.0626302 0.476414C0.0677084 0.497761 0.0727862 0.519107 0.0761719 0.540453C0.0558594 0.522988 0.0321613 0.509404 0.00338542 0.497761C0.00338542 0.637483 0 0.777205 0 0.918868C0.0778644 0.920808 0.157422 0.928571 0.196354 0.82572C0.189584 0.732572 0.167578 0.649126 0.120182 0.585087L0.14388 0.588968C0.157422 0.544335 0.159114 0.497761 0.1625 0.449246C0.191276 0.577325 0.238672 0.701522 0.277604 0.82766C0.282682 0.897521 0.28776 0.967383 0.292839 1.03724C0.353776 1.03724 0.41302 1.03724 0.473958 1.03724C0.480729 0.963502 0.4875 0.891699 0.495964 0.817957L0.494271 0.814076Z" fill="#E1067E"/>
</svg>
