<svg width="1" height="3" viewBox="0 0 1 3" fill="none" xmlns="http://www.w3.org/2000/svg">
<path d="M0.186198 2.31006C0.365625 2.07525 0.236979 1.79969 0.267448 1.54547C0.299609 1.50472 0.333463 1.46397 0.363932 1.42322C0.379167 1.40381 0.394401 1.38634 0.407943 1.36888C0.42487 1.26603 0.392708 1.20393 0.323307 1.17094C0.34362 1.13989 0.36224 1.1069 0.372396 1.06809C0.419792 0.84104 0.401172 0.60817 0.401172 0.37724C0.399479 0.289914 0.385938 0.204528 0.358854 0.123023C0.321615 0.0434591 0.277604 -0.0244615 0.184505 0.00852839L0.196354 0.0143501C0.186198 0.41217 0.172656 0.811932 0.160807 1.20975C0.108333 1.21363 0.0541667 1.21945 0 1.22334C0.0338542 1.33007 0.0677083 1.43874 0.101562 1.54547C0.130338 1.79969 0.228516 2.0442 0.184505 2.31006H0.186198Z" fill="#E1067E"/>
</svg>
