<svg width="1" height="3" viewBox="0 0 1 3" fill="none" xmlns="http://www.w3.org/2000/svg">
<path d="M0.287234 0.0570073C0.224604 -0.0225566 0.155203 -0.0109132 0.0841093 0.0434232C0.0502551 0.0919378 0.02825 0.144334 0.016401 0.202551C-0.0106824 0.384967 -0.0174533 0.563501 0.102729 0.712926C0.102729 1.29898 0.0993437 1.8831 0.0993437 2.46916C0.106115 2.61276 0.112885 2.75636 0.117963 2.90191C0.20937 2.8631 0.20937 2.76801 0.222911 2.68068C0.219526 2.4905 0.161974 2.29256 0.302469 2.12955C0.30924 1.54738 0.317703 0.965202 0.326167 0.383026C0.260151 0.284056 0.260151 0.173443 0.288927 0.0589479L0.287234 0.0570073Z" fill="#E1067E"/>
</svg>
