<svg width="1" height="2" viewBox="0 0 1 2" fill="none" xmlns="http://www.w3.org/2000/svg">
<path d="M0.0930644 1.75041C0.126919 1.78534 0.164158 1.7931 0.204783 1.77176C0.27757 1.71548 0.301267 1.62039 0.3402 1.53694C0.345278 1.45738 0.336815 1.38364 0.270799 1.33706C0.29619 1.23615 0.32158 1.13524 0.346971 1.03433C0.331736 0.999402 0.304653 0.978056 0.270799 0.972234C0.267414 0.972234 0.265721 0.972234 0.262335 0.974174C0.257257 0.848036 0.297882 0.733541 0.345278 0.620988C0.323272 0.613225 0.301267 0.611285 0.279262 0.611285C0.204783 0.415286 0.346971 0.176593 0.181085 0C0.15908 0.108673 0.192934 0.242573 0.0676738 0.29691C0.074445 0.33184 0.0795227 0.366771 0.0862936 0.401701C0.11507 0.471563 0.145538 0.541423 0.174314 0.609344C0.0727519 0.754888 0.164158 0.890729 0.191241 1.03045H0.155695C0.162465 1.14495 -0.138837 1.16047 0.0795227 1.34289C0.0862936 1.47873 0.0913716 1.61457 0.0964498 1.75235L0.0930644 1.75041Z" fill="#EFEEE8"/>
</svg>
