<svg width="1" height="1" viewBox="0 0 1 1" fill="none" xmlns="http://www.w3.org/2000/svg">
<path d="M0.0164531 0.223167C-0.00385937 0.366771 -0.00216667 0.510374 0.00460417 0.653978C0.0384583 0.782057 0.0130677 0.958649 0.202651 0.952828C0.23312 0.921779 0.265281 0.888789 0.29575 0.857739C0.304213 0.824749 0.304214 0.7937 0.299135 0.76071C0.268667 0.62681 0.287287 0.490969 0.299135 0.355127C0.300828 0.450216 0.302521 0.545305 0.304214 0.640394C0.527651 0.467681 0.405776 0.304672 0.304214 0.141663C0.304214 0.137781 0.304214 0.1339 0.304214 0.130019C0.304214 0.0950885 0.302521 0.0601579 0.300828 0.0252276C0.270359 0.0155248 0.239891 0.00776235 0.211115 0C0.0790831 0 0.0469217 0.110613 0.0164531 0.225108V0.223167Z" fill="#EFEEE8"/>
</svg>
