<svg width="2" height="2" viewBox="0 0 2 2" fill="none" xmlns="http://www.w3.org/2000/svg">
<path d="M0 1.45544C0.264062 1.42051 0.514583 1.37782 0.580599 1.0091C0.670312 1.02657 0.739713 0.99358 0.798958 0.933422C0.798958 0.954768 0.798958 0.978056 0.802344 1.00328C1.00547 0.939244 1.00716 0.937303 1.02917 0.648156L1.03255 0.646215C1.05964 0.677265 1.08503 0.708314 1.11211 0.737423C1.08503 0.706373 1.05964 0.675324 1.03424 0.646215C1.06302 0.642334 1.09857 0.652037 1.14258 0.685027C1.24922 0.547245 1.46758 0.570533 1.54036 0.316316C1.39818 0.312435 1.2763 0.308553 1.15443 0.304672C1.14596 0.234811 1.1375 0.157188 1.11549 0C0.952995 0.215405 0.832813 0.374533 0.714323 0.531721C0.832813 0.809225 0.832812 0.807284 0.594141 0.886848C0.561979 0.898491 0.536588 0.941184 0.494271 0.983877C0.507812 0.989699 0.521354 0.99358 0.533203 0.997461C0.353776 1.16241 0.125261 1.22063 0 1.45544Z" fill="#392726"/>
</svg>
