<svg width="1" height="2" viewBox="0 0 1 2" fill="none" xmlns="http://www.w3.org/2000/svg">
<path d="M0.416056 0.101595C0.361889 0.134586 0.304337 0.165635 0.248478 0.196684C0.245093 0.134585 0.241707 0.0724865 0.238322 0.0103878C0.0978268 -0.028424 0.0504309 0.043378 0.0673582 0.194743C0.06228 0.301476 0.0588945 0.408208 0.0555093 0.51494C0.0588945 0.584801 0.0639726 0.656603 0.0673582 0.726464C0.0741286 0.829315 0.0809002 0.934107 0.085978 1.03696L0.0470457 1.03114C-0.0392821 1.20191 0.013192 1.37268 0.0470457 1.54345C0.0470457 1.5842 0.0487384 1.6269 0.0487384 1.66571C0.0588945 1.69288 0.0639728 1.72198 0.0707436 1.74915C0.0961344 1.75886 0.123218 1.76274 0.150301 1.76274C0.223087 1.69288 0.260327 1.59585 0.302645 1.5027C0.339884 1.42896 0.377124 1.35521 0.388973 1.26789C0.388973 1.22519 0.382202 1.18444 0.366968 1.14369C0.356811 1.12622 0.344962 1.11264 0.331421 1.09906C0.334806 1.04084 0.338192 0.980681 0.341577 0.920523C0.380509 0.868127 0.385587 0.81379 0.361889 0.757514C0.377124 0.753632 0.392358 0.749751 0.409285 0.741989C0.480379 0.687652 0.507462 0.604207 0.529468 0.516881C0.57517 0.34805 0.519311 0.21609 0.416056 0.0996547V0.101595Z" fill="#EFEEE8"/>
</svg>
