<svg width="1" height="2" viewBox="0 0 1 2" fill="none" xmlns="http://www.w3.org/2000/svg">
<path d="M0.393834 1.36526C0.42261 1.33033 0.451386 1.2954 0.481855 1.26047C0.476777 1.02372 0.471699 0.786969 0.464928 0.550217C0.392141 0.542455 0.35998 0.575445 0.346438 0.629781C0.317662 0.546336 0.270267 0.480356 0.212714 0.418257C0.204251 0.292119 0.19748 0.165981 0.189016 0.0379021C0.15347 -0.0106125 0.114537 -0.0125533 0.0739121 0.0320803C0.0468288 0.0767139 0.0265161 0.125228 0.01636 0.177624C-0.0107233 0.36198 -0.00395259 0.546335 0.0349798 0.728751C0.0722196 0.854889 0.102688 0.982968 0.192402 1.07806C0.19748 1.08 0.202558 1.08194 0.207636 1.08388C0.182245 1.11105 0.158547 1.14016 0.133157 1.16926C0.0468287 1.22166 0.0688338 1.28958 0.112844 1.36138C0.212714 1.38661 0.168704 1.56902 0.288886 1.57291C0.283808 1.4099 0.277037 1.24495 0.271959 1.08194C0.287194 1.07612 0.302428 1.06835 0.319355 1.05477C0.305813 1.1615 0.309199 1.26823 0.393834 1.36526Z" fill="#EFEEE8"/>
</svg>
