<svg width="2" height="2" viewBox="0 0 2 2" fill="none" xmlns="http://www.w3.org/2000/svg">
<path d="M0.795573 0.304672C0.690625 0.339602 0.585677 0.376474 0.480729 0.415285C0.365625 0.403642 0.238672 0.510374 0.182813 0.659799C0.182813 0.659799 0.182813 0.6598 0.182813 0.66174C0.118489 0.667561 0.0795575 0.72966 0.0626302 0.82669C0.0914061 0.809225 0.120182 0.791759 0.148958 0.774294C0.132031 0.836393 0.116797 0.904313 0.0981771 0.981937C0.0626299 0.985818 0.030469 0.989699 0 0.99358C0.0270833 1.02851 0.052474 1.0518 0.0795573 1.05956V1.0615C0.0795573 1.0615 0.0812501 1.0615 0.0829427 1.0615C0.118489 1.06926 0.157422 1.04986 0.203125 0.989699C0.257292 0.956709 0.30638 0.9276 0.352083 0.89267C0.65 0.671443 0.946224 0.450216 1.24414 0.228989L1.2526 0C1.10872 0.0853863 0.968229 0.182415 0.84974 0.320197C0.822656 0.308553 0.809114 0.29885 0.797266 0.302731L0.795573 0.304672Z" fill="#392726"/>
</svg>
