<svg width="1" height="2" viewBox="0 0 1 2" fill="none" xmlns="http://www.w3.org/2000/svg">
<path d="M0.203599 0.922978C-0.0012186 0.761909 0.21037 0.441713 0.0157084 0.276763C0.0427917 0.538742 -0.0807763 0.822067 0.103729 1.0627C0.137583 1.04718 0.171438 1.02971 0.205292 1.01419L0.198521 1.053C0.337323 1.14226 0.415188 1.05688 0.47951 0.932681C0.509979 1.03553 0.471047 1.17914 0.577688 1.23929C0.581073 1.2063 0.589536 1.17525 0.603078 1.14421C0.560761 0.99478 0.633547 0.812365 0.55399 0.670702C0.555682 0.653237 0.559068 0.633831 0.56076 0.616366C0.562453 0.562029 0.557375 0.507693 0.547219 0.455297C0.509979 0.340802 0.491359 0.208842 0.383026 0.146743C0.383026 -0.0337309 0.305162 -0.0240279 0.203599 0.0497146C0.203599 0.269001 0.203599 0.488287 0.203599 0.707573C0.203599 0.779375 0.203599 0.853117 0.203599 0.924919V0.922978Z" fill="#E1067E"/>
</svg>
