<svg width="1" height="2" viewBox="0 0 1 2" fill="none" xmlns="http://www.w3.org/2000/svg">
<path d="M0.364788 0.520077C0.346168 0.457978 0.325855 0.39588 0.300465 0.333781C0.264918 0.23093 0.327548 0.0853857 0.200595 0.0213465C0.166741 0.0135841 0.132886 0.00582139 0.0990323 0C-0.0177645 0.252276 -0.049926 0.502612 0.105803 0.751007C0.110881 0.745186 0.11596 0.739363 0.121038 0.731601C0.136272 1.04986 0.134579 1.36617 0.112574 1.68443C0.112574 1.74847 0.114266 1.81251 0.115959 1.87655C0.131194 1.9173 0.156585 1.94059 0.195517 1.94641C0.232756 1.94253 0.261532 1.92118 0.280152 1.88431C0.288616 1.67473 0.298772 1.46708 0.307235 1.25944C0.324162 1.22839 0.337704 1.19734 0.351246 1.16823C0.354632 1.19734 0.356324 1.22839 0.359709 1.2575C0.381715 1.33124 0.374944 1.42245 0.461272 1.4535C0.462965 1.11196 0.46635 0.772353 0.469735 0.43081C0.444345 0.432751 0.418954 0.434691 0.393564 0.436632C0.381715 0.4638 0.373251 0.490969 0.36648 0.520077H0.364788Z" fill="#EFEEE8"/>
</svg>
