<svg width="3" height="1" viewBox="0 0 3 1" fill="none" xmlns="http://www.w3.org/2000/svg">
<path d="M0.561979 0.29691C0.369011 0.419166 0.184505 0.535602 0 0.650096C0.0423176 0.735482 0.0846353 0.787878 0.123568 0.811165C0.116797 0.834452 0.115104 0.861621 0.121875 0.896551C0.137109 0.989699 0.240365 1.00522 0.418099 0.933422C0.526432 0.890729 0.646615 0.865502 0.738021 0.787878C0.814193 0.745185 0.886979 0.683086 0.952995 0.584117C0.914062 0.589938 0.883594 0.597701 0.853125 0.601582C0.854818 0.59576 0.858203 0.589938 0.858203 0.584117C0.820964 0.560829 0.782031 0.537542 0.743099 0.514255C0.743099 0.504553 0.743099 0.492909 0.743099 0.481265C0.841276 0.444395 0.936068 0.436632 1.04271 0.465741C1.10365 0.481265 1.17135 0.459919 1.22891 0.417226C1.2306 0.421108 1.23229 0.423048 1.23398 0.426929C1.40495 0.343484 1.56745 0.225108 1.76719 0.293029C1.78073 0.364831 1.79427 0.438572 1.81966 0.568592C1.9026 0.407523 2.05495 0.465741 2.13789 0.326019C2.00586 0.339603 1.93815 0.294969 1.93646 0.188237C1.84844 0.163009 1.78073 0.137782 1.70964 0.122257C1.66393 0.114495 1.61146 0.110614 1.56914 0.128079C1.49974 0.161069 1.44219 0.219286 1.35755 0.225108C1.35755 0.223167 1.35924 0.221227 1.35924 0.219286C1.37448 0.16495 1.32201 0.0853863 1.29661 0C1.06302 0.112554 0.851432 0.19794 0.743099 0.442454C0.743099 0.438572 0.743099 0.436632 0.743099 0.434691C0.68724 0.46186 0.661849 0.500671 0.646615 0.545305C0.582292 0.551127 0.514584 0.469622 0.438412 0.490968C0.446875 0.481265 0.453646 0.469622 0.462109 0.457978C0.492578 0.407523 0.595834 0.415286 0.560287 0.294969L0.561979 0.29691Z" fill="#392726"/>
</svg>
