<svg width="1" height="1" viewBox="0 0 1 1" fill="none" xmlns="http://www.w3.org/2000/svg">
<path d="M0.121875 0.324078C0.116797 0.308553 0.113412 0.291088 0.108333 0.275563C0.0727866 0.275563 0.0372398 0.275563 0 0.275563C0.00677083 0.492909 0.0152348 0.710255 0.0220052 0.92566C0.0490885 0.933422 0.0778646 0.935363 0.104948 0.933422C0.120182 0.89461 0.130338 0.853858 0.138802 0.815046C0.154036 0.857739 0.170963 0.898492 0.19974 0.941184C0.264062 0.900432 0.328386 0.863561 0.392708 0.822809C0.465495 0.719958 0.511198 0.584117 0.646615 0.555008C0.697396 0.432751 0.699088 0.306612 0.66862 0.178534C0.634766 0.075683 0.578906 0.00388142 0.475651 0C0.402865 0.0970296 0.289453 0.00194033 0.209896 0.0679205C0.206511 0.0970294 0.201433 0.128079 0.198047 0.157188C0.160808 0.203762 0.135417 0.258098 0.121875 0.318256C0.121875 0.320197 0.121875 0.322137 0.121875 0.324078Z" fill="#E1067E"/>
</svg>
