<svg width="3" height="3" viewBox="0 0 3 3" fill="none" xmlns="http://www.w3.org/2000/svg">
<path d="M0.534606 1.34871C0.34333 1.48649 0.177444 1.67279 0.00986625 1.84938C-0.0121393 1.87267 0.00648094 1.96969 0.028486 2.02015C0.0386425 2.04344 0.1182 2.05702 0.140205 2.03762C0.14359 2.03568 0.145283 2.03373 0.148668 2.03179C0.236689 2.09583 0.333173 2.08613 0.438121 1.94059C0.429658 1.9076 0.421194 1.87461 0.411038 1.83774C0.708955 1.63397 1.0238 1.4632 1.31833 1.2478C1.28617 1.30019 1.25401 1.35259 1.21 1.42633C1.37927 1.4011 1.47744 1.37976 1.38773 1.19346C1.49437 1.11196 1.59763 1.02463 1.6958 0.92566C1.82106 0.799521 1.98695 0.733542 2.04112 0.518137C2.05804 0.454097 2.13422 0.39588 2.19515 0.36289C2.28825 0.310494 2.38474 0.267801 2.47953 0.225108L2.48968 0C2.42536 0.0407522 2.37627 0.0679205 2.33226 0.0989699C1.73135 0.514256 1.12875 0.919838 0.536299 1.34871H0.534606Z" fill="#392726"/>
</svg>
