<svg width="1" height="2" viewBox="0 0 1 2" fill="none" xmlns="http://www.w3.org/2000/svg">
<path d="M0.0846591 0.915957C0.0998934 0.950887 0.0998935 0.985817 0.0863518 1.02269C0.0457268 1.09837 0.0372633 1.17405 0.0846591 1.25168C0.101586 1.27885 0.111742 1.3099 0.116821 1.34483C0.17268 1.3817 0.218383 1.37005 0.25393 1.3099C0.287784 1.19734 0.308097 1.08673 0.321638 0.974174C0.426586 0.820867 0.443513 0.667562 0.328409 0.516196C0.319946 0.384236 0.303018 0.254216 0.279321 0.122256C0.255622 0.0640391 0.21669 0.0232865 0.164216 0C0.033878 0.0232865 -0.0202888 0.104791 0.00679452 0.254216C0.148982 0.457978 0.0897373 0.690848 0.0846591 0.917897V0.915957Z" fill="#E1067E"/>
</svg>
