<svg width="1" height="1" viewBox="0 0 1 1" fill="none" xmlns="http://www.w3.org/2000/svg">
<path d="M0.00169271 0.172712C-0.00338509 0.273623 0.0677083 0.250336 0.115104 0.26586C0.152344 0.234811 0.189583 0.201821 0.228516 0.170772C0.228516 0.170772 0.230208 0.170772 0.230208 0.172712L0.228516 0.170772C0.287761 0.172712 0.328385 0.141663 0.355469 0.0853858C0.350391 0.0562774 0.345313 0.0291084 0.340234 0C0.279297 0 0.216667 1.24227e-07 0.154036 0.00194059C0.140495 0.054336 0.176042 0.0873266 0.189583 0.130019C0.192969 0.141663 0.198047 0.153306 0.20651 0.161069C0.150651 0.139723 0.0930987 0.151366 0.0355469 0.16689C0.0236978 0.168831 0.0118491 0.170772 0 0.172712H0.00169271Z" fill="#DAD7C5"/>
</svg>
