<svg width="1" height="2" viewBox="0 0 1 2" fill="none" xmlns="http://www.w3.org/2000/svg">
<path d="M0.441075 1.11002C0.44446 1.06732 0.442767 1.02657 0.442767 0.981937C0.512168 0.978056 0.573106 0.95865 0.60696 0.879086C0.679747 0.921778 0.701752 0.997461 0.708523 1.08479C0.732221 1.1333 0.760997 1.13718 0.791465 1.09643C0.784695 0.82669 0.730528 0.570532 0.613731 0.333781C0.610346 0.510374 0.60696 0.685027 0.601882 0.86162C0.554487 0.749066 0.505398 0.636512 0.451231 0.512315C0.434304 0.553067 0.424147 0.591879 0.419069 0.630691C0.398757 0.535602 0.358132 0.450216 0.270111 0.386177C0.259955 0.380355 0.249798 0.380355 0.241335 0.376474C0.243028 0.250336 0.317507 0.118376 0.222715 0C0.0602153 0.0815044 0.014512 0.223167 0.0399028 0.399761C-0.00580049 0.446335 -0.0125712 0.49679 0.021283 0.555008C0.0246682 0.882967 0.0297464 1.21093 0.0348246 1.53888C0.0822205 1.4632 0.131309 1.38558 0.205788 1.2672C0.214252 1.42051 0.217637 1.53306 0.224408 1.64562C0.248106 1.6495 0.273496 1.65338 0.297194 1.6592C0.464772 1.51754 0.424147 1.30407 0.441075 1.11196V1.11002Z" fill="#E1067E"/>
</svg>
