<svg width="1" height="2" viewBox="0 0 1 2" fill="none" xmlns="http://www.w3.org/2000/svg">
<path d="M0.136912 0.0276535C0.108136 0.101395 0.111521 0.167376 0.158917 0.225593C0.138605 0.229475 0.121677 0.237237 0.103058 0.252761C-0.0577496 0.415771 0.0150372 0.621473 0.0251933 0.817472C0.0573548 1.06975 -0.0323588 1.35501 0.170766 1.5646H0.208006H0.245245C0.270636 1.54325 0.289256 1.51996 0.302797 1.49474C0.289256 1.66357 0.309568 1.8324 0.334959 2.00317C0.372199 2.00317 0.407746 2.00511 0.444985 2.00511C0.444985 1.74507 0.416209 1.48309 0.534698 1.24246C0.536391 1.09498 0.538084 0.949432 0.539777 0.803888C0.282485 0.724324 0.2791 0.470107 0.240167 0.241118C0.245245 0.169316 0.250324 0.0975146 0.257094 0.0276535C0.216469 -0.00921782 0.177537 -0.00921782 0.138605 0.0276535H0.136912Z" fill="#E1067E"/>
</svg>
