<svg width="1" height="2" viewBox="0 0 1 2" fill="none" xmlns="http://www.w3.org/2000/svg">
<path d="M0.765104 0C0.560286 0.141663 0.367318 0.234811 0.226823 0.39782C0.211589 0.388117 0.194661 0.376474 0.174349 0.36483C0.115104 0.483206 0.0575519 0.599641 0 0.716076C0.147266 0.912075 0.247135 1.14301 0.428255 1.34483C0.477344 1.17988 0.428255 1.07703 0.367318 0.987758C0.458724 0.892669 0.545052 0.805343 0.646615 0.702492C0.492578 0.704433 0.360547 0.677265 0.26237 0.82669C0.257292 0.815046 0.252214 0.803402 0.248828 0.791759C0.338542 0.56277 0.360547 0.504552 0.28776 0.440513C0.465495 0.345425 0.648307 0.254216 0.765104 0Z" fill="#392726"/>
</svg>
