<svg width="2" height="2" viewBox="0 0 2 2" fill="none" xmlns="http://www.w3.org/2000/svg">
<path d="M0.714323 0.785938C0.636459 0.842215 0.561979 0.902373 0.4875 0.962531H0.485807C0.472266 0.966412 0.463802 0.979996 0.453646 0.989699C0.355469 1.0712 0.260677 1.15271 0.174349 1.23033C0.186198 1.21287 0.194661 1.1954 0.208203 1.17405C0.0101559 1.24586 0.00338563 1.40304 0 1.53306C0.0423176 1.46126 0.0829426 1.38752 0.135417 1.30019C0.325 1.17794 0.514583 1.05568 0.705859 0.9276C0.717708 0.941185 0.73125 0.956709 0.74987 0.970293C0.969922 0.910135 1.17474 0.815046 1.29492 0.56277C1.29492 0.560829 1.29661 0.558889 1.29661 0.558889C1.34401 0.551127 1.38802 0.537543 1.42865 0.523958C1.43034 0.525899 1.43203 0.52784 1.43372 0.52978C1.44049 0.523958 1.44896 0.520077 1.45742 0.512315C1.63008 0.434691 1.7418 0.271682 1.79596 0C1.6707 0.0892667 1.54883 0.178534 1.42865 0.26586C1.43034 0.238692 1.4405 0.207643 1.4625 0.172712C1.44727 0.170772 1.43372 0.16689 1.41849 0.163009C1.36432 0.19794 1.31185 0.23287 1.25938 0.267801C1.2763 0.294969 1.29492 0.322137 1.31185 0.347365C1.11549 0.489028 0.924219 0.62875 0.732943 0.768472C0.726172 0.774294 0.721094 0.780116 0.714323 0.785938Z" fill="#392726"/>
</svg>
