<svg width="1" height="2" viewBox="0 0 1 2" fill="none" xmlns="http://www.w3.org/2000/svg">
<path d="M0.36224 0.620988C0.363932 0.586057 0.36224 0.547245 0.355469 0.510374C0.325 0.293029 0.177734 0.161069 0.0710938 0C0.0473961 0.00388092 0.0236981 0.00970306 0 0.0194059C0.0033852 0.339603 0.00677062 0.659799 0.0101563 0.979996C0.00846322 1.05374 0.00507845 1.12748 0.00338542 1.20316C0.035547 1.27302 0.0677083 1.34289 0.101563 1.41275C0.12526 1.51366 0.167578 1.58546 0.274219 1.53694C0.323308 1.44768 0.355469 1.35841 0.374089 1.26914C0.379167 1.28273 0.382552 1.29825 0.38763 1.31184C0.409635 1.31378 0.433333 1.31378 0.457031 1.31572C0.460416 1.05956 0.465495 0.803403 0.470573 0.547245C0.441797 0.547245 0.414713 0.547245 0.385938 0.547245C0.375782 0.572473 0.36901 0.597701 0.36224 0.622928V0.620988Z" fill="#E1067E"/>
</svg>
