<svg width="1" height="1" viewBox="0 0 1 1" fill="none" xmlns="http://www.w3.org/2000/svg">
<path d="M0.324732 0.433843C0.358586 0.412496 0.378898 0.362041 0.419523 0.356219L0.412753 0.348457C0.478768 0.280537 0.470305 0.208735 0.422909 0.131111C0.419523 0.117527 0.416138 0.105884 0.41106 0.0922995C0.417831 0.0806563 0.419523 0.0670719 0.416138 0.0515472L0.189315 0.0437849C0.150383 -0.0338386 0.089445 0.0166168 0.038664 0.0107949C-0.0256587 0.123349 -0.0155027 0.200972 0.113143 0.230081C0.140226 0.257249 0.152075 0.311586 0.1927 0.317408C0.201164 0.334873 0.21132 0.348457 0.224862 0.3601C0.199472 0.373685 0.172388 0.39115 0.150383 0.395031C0.14869 0.445487 0.113143 0.503704 0.184237 0.532813C0.263794 0.563862 0.29257 0.503704 0.326424 0.447427C0.326424 0.441605 0.324732 0.437724 0.324732 0.431902V0.433843Z" fill="#DAD7C5"/>
</svg>
