<svg width="1" height="2" viewBox="0 0 1 2" fill="none" xmlns="http://www.w3.org/2000/svg">
<path d="M0.255176 0C0.212858 0.0446336 0.17054 0.0873263 0.128223 0.13196C0.112988 0.260038 0.160384 0.378414 0.184082 0.500671C0.155306 0.459919 0.112988 0.432751 0.0435873 0.436632C-0.0156576 0.551127 -0.0122722 0.665621 0.0402019 0.782056C0.0351237 0.820868 0.0300459 0.857739 0.0266602 0.896551C0.0368163 1.0421 0.0486652 1.1857 0.0588217 1.33124C0.109603 1.36423 0.150228 1.35453 0.185775 1.30407C0.184082 1.42051 0.206088 1.53694 0.2264 1.65338C0.234864 1.74653 0.229785 1.84744 0.33304 1.88237C0.327963 1.59128 0.321191 1.30213 0.316113 1.01105L0.346582 0.341543C0.378744 0.205702 0.454915 0.0543365 0.255176 0.00194059V0Z" fill="#E1067E"/>
</svg>
