<svg width="1" height="3" viewBox="0 0 1 3" fill="none" xmlns="http://www.w3.org/2000/svg">
<path d="M0.592081 0.531721C0.590388 0.349306 0.688565 0.149425 0.519295 0C0.524373 0.172712 0.531143 0.347365 0.537914 0.522018C0.514216 0.525899 0.492211 0.537542 0.473591 0.560829C0.448201 0.607404 0.431274 0.655918 0.417732 0.706373C0.417732 0.686967 0.417732 0.667562 0.417732 0.648156C0.185831 0.537543 0.102888 0.663681 0.0978102 0.912076C0.114738 0.933422 0.131665 0.952828 0.148591 0.974174C0.162133 0.985818 0.17229 0.999402 0.180753 1.01105C0.158748 1.01105 0.133357 1.01299 0.102888 1.01881C-0.0697677 1.41469 -0.00205933 1.8028 0.136743 2.1851H0.17906L0.219685 2.1754C0.231534 2.00074 0.239998 1.82415 0.251847 1.64756C0.248461 1.53694 0.246768 1.42439 0.245076 1.31378C0.306013 1.30601 0.368643 1.30019 0.429581 1.29437C0.487133 1.40498 0.544685 1.51366 0.60393 1.62427C0.610701 1.51948 0.617472 1.41469 0.624242 1.31184C0.615779 1.0518 0.605623 0.791759 0.595466 0.531721H0.592081Z" fill="#E1067E"/>
</svg>
