<svg width="1" height="6" viewBox="0 0 1 6" fill="none" xmlns="http://www.w3.org/2000/svg">
<path d="M0.870052 0.541424C0.873437 0.360949 0.87513 0.180474 0.880208 0C0.705859 0.149425 0.81927 0.36483 0.785417 0.545305C0.783724 0.690849 0.782031 0.838333 0.780339 0.983877C0.709245 1.0615 0.683854 1.16047 0.673698 1.26526C0.665235 1.38946 0.653386 1.51172 0.629688 1.63397C0.609375 1.7737 0.643229 1.91148 0.653385 2.04926C0.629687 1.9988 0.58737 1.95805 0.50612 1.94059C0.504427 1.94059 0.504427 1.94253 0.502734 1.94253C0.504427 1.88237 0.509505 1.82027 0.511198 1.76011C0.470573 1.65338 0.409635 1.57188 0.308073 1.54083C0.36224 1.7737 0.213281 1.96775 0.209896 2.18898C-0.0033852 2.02791 0.235286 1.68831 0.0169271 1.52918C0.0118489 1.60681 0.0067704 1.68443 0 1.76399C0 2.01821 0 2.27243 0 2.52858L0.0355469 2.515C0.0355469 2.75757 0.0203122 3.00791 0.218359 3.18062C0.186198 2.96716 0.257292 2.73623 0.135417 2.53829C0.142187 2.53635 0.147266 2.53247 0.154036 2.53052C0.177735 2.50336 0.198047 2.47425 0.213281 2.44514C0.21836 2.50142 0.231901 2.55575 0.255599 2.61203C0.269141 2.63338 0.286068 2.65084 0.302995 2.66637C0.164193 2.82355 0.204818 2.99821 0.289453 3.17674C0.296224 3.24078 0.302995 3.30676 0.309766 3.37274C0.338542 3.38826 0.367318 3.39797 0.399479 3.39991C0.401172 3.42514 0.402865 3.45036 0.404557 3.47753C0.367318 3.53575 0.340235 3.60173 0.323307 3.67547C0.309766 3.80937 0.292839 3.94327 0.396094 4.04418C0.394401 4.04418 0.391016 4.04612 0.389323 4.04612C0.363932 4.09464 0.352084 4.14509 0.348698 4.20137C0.352084 4.21107 0.352083 4.22078 0.353776 4.23242C0.245443 4.08687 0.330078 3.89864 0.297917 3.73757C0.270833 3.68517 0.242057 3.68323 0.216667 3.73757C0.209895 3.9685 0.231901 4.20525 0.0964844 4.40513C0.133724 4.44006 0.169271 4.47887 0.20651 4.5138C0.238672 4.51186 0.267448 4.50216 0.292839 4.48858C0.28776 4.55456 0.286068 4.62248 0.28776 4.6904C0.292839 4.82624 0.297917 4.96208 0.399479 5.05717C0.545052 4.99701 0.485807 4.84758 0.504427 4.73115C0.639844 4.65159 0.702474 4.63606 0.638151 4.85923C0.572135 5.08822 0.709245 4.95432 0.77526 4.93685C0.780339 4.75444 0.785417 4.57202 0.790495 4.38961L0.782031 4.39737C0.672005 4.30228 0.704167 4.1121 0.585677 4.02284C0.583985 4.02284 0.582292 4.02284 0.580599 4.0209C0.582292 3.9782 0.585677 3.93163 0.58737 3.88894C0.60599 3.97044 0.651693 4.03254 0.773568 4.04806C0.780339 3.87147 0.788802 3.69294 0.797266 3.51634C0.795573 3.33393 0.795573 3.15345 0.79388 2.97298C0.824349 2.92058 0.844662 2.86431 0.851432 2.80027C0.84974 2.7925 0.848047 2.78474 0.848047 2.77504C0.881901 2.69742 0.873438 2.60427 0.886979 2.51694C0.881901 1.85908 0.87513 1.19928 0.868359 0.541424H0.870052Z" fill="#E1067E"/>
</svg>
