<svg width="1" height="2" viewBox="0 0 1 2" fill="none" xmlns="http://www.w3.org/2000/svg">
<path d="M0.0236979 0.842214C0.108333 0.912076 0.196354 0.904313 0.284375 0.848036C0.319922 0.978056 0.240365 1.14106 0.372396 1.24198L0.379167 1.2575C0.418099 1.14689 0.460417 1.03627 0.480729 0.9276C0.494271 0.966412 0.519661 1.00328 0.560287 1.03821C0.563672 1.00522 0.56875 0.972234 0.577214 0.941184C0.578906 0.873264 0.580599 0.807284 0.582292 0.739363C0.56875 0.66174 0.556901 0.582176 0.543359 0.502612C0.529818 0.572473 0.502734 0.642334 0.484115 0.712195C0.46888 0.62875 0.428256 0.551126 0.352083 0.479325C0.355469 0.473503 0.360547 0.471562 0.363932 0.467681C0.426562 0.39782 0.448568 0.314375 0.421484 0.219286C0.384245 0.0970292 0.264063 0.0873263 0.203125 0C0.142188 0.00582139 0.0829423 0.00970268 0.0220052 0.0135841C0.016927 0.0465739 0.00846387 0.0776235 0 0.108673C0.0101565 0.215405 0.0203123 0.322137 0.0304688 0.42887C0.0287757 0.566651 0.0253904 0.704433 0.0220052 0.842214H0.0236979Z" fill="#EFEEE8"/>
</svg>
