<svg width="1" height="2" viewBox="0 0 1 2" fill="none" xmlns="http://www.w3.org/2000/svg">
<path d="M0.209308 1.42439C0.205922 1.38946 0.197459 1.35453 0.18561 1.3196C0.219464 1.27691 0.251625 1.23615 0.283787 1.19346C0.34811 1.16241 0.414125 1.12942 0.478448 1.09837C0.49199 1.17405 0.481834 1.26332 0.566469 1.29631C0.563084 1.04404 0.559698 0.791759 0.55462 0.539483C0.568162 0.467681 0.580011 0.39588 0.59186 0.324078C0.59186 0.248395 0.595245 0.174653 0.595245 0.0989699C0.586782 0.0679205 0.58001 0.0349303 0.574933 0C0.299021 0.137781 0.35488 0.326019 0.505532 0.531721C0.480141 0.533661 0.456443 0.547245 0.437823 0.576354C0.407354 0.634571 0.39212 0.698611 0.385349 0.76265H0.381964C0.34811 0.665621 0.275324 0.657859 0.199151 0.657859C0.0586569 0.813106 0.0468079 1.01493 0.0434222 1.22257C0.0501931 1.2478 0.0603494 1.27108 0.0688129 1.29437C0.0789689 1.30796 0.090818 1.31572 0.102667 1.32154C-0.0378279 1.49619 -0.0327496 1.67084 0.109438 1.84744C0.268552 1.74459 0.150063 1.55829 0.207615 1.42439H0.209308Z" fill="#E1067E"/>
</svg>
