<svg width="1" height="3" viewBox="0 0 1 3" fill="none" xmlns="http://www.w3.org/2000/svg">
<path d="M0.51433 0.123294C0.47032 0.0786608 0.405997 -0.0106063 0.38907 0.00103751C0.260424 0.0825419 0.355216 0.237789 0.312898 0.354224C0.250268 0.550223 0.0979242 0.744282 0.257039 0.940281C0.150398 1.01014 0.0471429 1.08 0.00143962 1.21973C-0.00363861 1.2663 0.00482504 1.31287 0.0251375 1.35363C0.0996167 1.41378 0.218106 1.38468 0.267195 1.50111C0.27058 1.50499 0.272273 1.51081 0.273966 1.51664C0.262117 1.5341 0.251961 1.55351 0.243497 1.57485C0.213028 1.6777 0.20795 1.78638 0.206257 1.89311C0.202872 2.00178 0.202872 2.10851 0.206257 2.21719C0.211336 2.3278 0.22657 2.43647 0.285815 2.52962C0.297663 2.54321 0.309513 2.55291 0.323054 2.55873C0.334903 2.71204 0.299356 2.85176 0.233341 2.98372C0.775007 3.09045 0.246882 2.63247 0.411075 2.54127L0.426309 2.54709C0.424616 2.43647 0.422924 2.3278 0.421231 2.21719C0.421231 2.0697 0.419539 1.92222 0.419539 1.77473C0.448315 1.77473 0.478783 1.77473 0.509252 1.77473C0.505867 1.29735 0.502482 0.819965 0.499096 0.34064C0.504174 0.268838 0.50756 0.197037 0.512638 0.125235L0.51433 0.123294Z" fill="#E1067E"/>
</svg>
