<svg width="1" height="2" viewBox="0 0 1 2" fill="none" xmlns="http://www.w3.org/2000/svg">
<path d="M0.175699 1.66548C0.206167 1.67518 0.238329 1.68683 0.270491 1.69653C0.30773 1.69071 0.343277 1.68683 0.380517 1.68295C0.434683 1.518 0.419449 1.35111 0.394058 1.18616C0.460074 1.13182 0.505777 1.06196 0.509162 0.966869C0.505777 0.929999 0.490542 0.90089 0.47023 0.873721C0.610725 0.569049 0.500699 0.299307 0.383902 0.0276253C0.287417 -0.0402953 0.219709 0.0315066 0.146923 0.0877835C0.097834 0.128536 0.053824 0.178991 0.0148916 0.231387C0.0352041 0.402159 0.0572089 0.57099 0.0775218 0.739821C-0.0308115 0.887305 -0.0223477 1.03285 0.0826 1.17839C0.104606 1.35111 -0.103598 1.58592 0.187548 1.68683L0.177392 1.66742L0.175699 1.66548Z" fill="#EFEEE8"/>
</svg>
