<svg width="4" height="3" viewBox="0 0 4 3" fill="none" xmlns="http://www.w3.org/2000/svg">
<path d="M0 2.33935L0.0440104 2.52759C0.115104 2.47713 0.186198 2.42668 0.258984 2.38204C0.323308 2.34323 0.38763 2.30636 0.453646 2.26755C0.441797 2.2986 0.445182 2.33741 0.4875 2.3898C0.551823 2.33353 0.611067 2.28113 0.666927 2.23068C0.653385 2.19769 0.639844 2.17634 0.624609 2.16082C0.672005 2.12783 0.717709 2.09289 0.760026 2.05408C0.758334 2.06185 0.754948 2.07155 0.753255 2.08125C0.864974 2.07543 0.924219 1.99198 0.981771 1.9066C1.0224 1.89107 1.06471 1.87555 1.10534 1.85614V1.85808C1.10872 1.85614 1.11211 1.8542 1.11549 1.85226C1.11719 1.85226 1.11888 1.85032 1.12057 1.85032L1.10703 1.84644C1.1375 1.81151 1.1612 1.76688 1.19505 1.73777C1.32201 1.63492 1.45065 1.53012 1.58438 1.43698C1.70286 1.35353 1.79596 1.21963 1.95508 1.20605C2.1125 1.19246 2.14635 0.926603 2.3224 0.930484C2.32578 0.936305 2.32917 0.940186 2.33255 0.944068C2.33424 0.940186 2.33594 0.936305 2.33932 0.930484C2.33932 0.930484 2.33932 0.930484 2.33763 0.930484L2.32578 0.928543H2.3224C2.3444 0.887791 2.4849 0.775237 2.65586 0.641336C2.67956 0.631633 2.70326 0.61999 2.72695 0.610287C2.72526 0.604465 2.72188 0.596703 2.72018 0.58894C2.99609 0.371595 3.31263 0.115437 3.31263 0.0106455C3.26354 0.00676412 3.228 -0.00876032 3.21107 0.00676437C2.94362 0.210526 2.4832 0.536544 2.02279 0.874207C2.02279 0.864504 2.02279 0.85286 2.02279 0.841217C1.94831 0.810167 1.86536 0.837336 1.77396 0.924662C1.86198 0.914959 1.92461 0.909137 1.98216 0.903315C1.5082 1.25262 1.03932 1.60775 0.782031 1.85032C0.648308 1.97646 0.495963 2.06185 0.341927 2.15305C0.230208 2.21903 0.113412 2.27531 0 2.33741V2.33935Z" fill="#392726"/>
</svg>
