<svg width="1" height="2" viewBox="0 0 1 2" fill="none" xmlns="http://www.w3.org/2000/svg">
<path d="M0.203125 1.12561C0.265756 0.985886 0.347005 0.853927 0.316537 0.687036C0.333464 0.688977 0.35039 0.688977 0.367318 0.690917C0.367318 0.797649 0.367318 0.906323 0.367318 1.01305C0.379166 1.04216 0.385938 1.07127 0.391016 1.10232C0.484115 1.07321 0.548438 1.01111 0.565365 0.896619C0.585677 0.770481 0.577214 0.654046 0.492578 0.56672C0.68724 0.452225 0.699089 0.267869 0.617839 0.0505235C0.578906 -0.00381288 0.533203 -0.0135158 0.479037 0.0175336C0.313151 0.0990385 0.323307 0.30086 0.26237 0.454166C0.233594 0.384304 0.201432 0.320265 0.103255 0.362958C0.12526 0.624937 0.0575523 0.871392 0 1.11785C0.00338563 1.1489 0.00507802 1.178 0.00338542 1.20905C0.086328 1.2304 0.157422 1.21099 0.20651 1.12367L0.203125 1.12561Z" fill="#E1067E"/>
</svg>
