<svg width="1" height="2" viewBox="0 0 1 2" fill="none" xmlns="http://www.w3.org/2000/svg">
<path d="M0.656771 0.648156C0.638151 0.646215 0.621224 0.646215 0.602604 0.644275C0.59414 0.553067 0.56875 0.469622 0.511198 0.403642C0.458724 0.275564 0.556901 0.0912077 0.399479 0C0.404557 0.0310494 0.401172 0.0582177 0.38763 0.0834452C0.380859 0.269742 0.374089 0.457978 0.367318 0.644275C0.380859 0.673384 0.385938 0.704433 0.382552 0.737423C0.374089 0.739363 0.367318 0.743245 0.358854 0.745185C0.363932 0.632631 0.36901 0.522018 0.374089 0.409464C0.341927 0.409464 0.30638 0.409464 0.272526 0.409464C0.170964 0.539483 0.11849 0.681146 0.201432 0.849977C0.209896 0.849977 0.21836 0.848036 0.228516 0.848036C0.206511 0.884908 0.191276 0.9276 0.186198 0.979996C0.179427 1.01105 0.174349 1.0421 0.170964 1.07508C0.157422 1.04015 0.138802 1.00716 0.116797 0.974174C0.0863279 0.941184 0.0575523 0.910135 0.0270833 0.877145C0.0186199 0.979997 0.00846387 1.08091 0 1.18376C0.00677127 1.29437 0.0135412 1.40304 0.0203125 1.51366C0.0727861 1.54859 0.116797 1.53889 0.154036 1.48261C0.157422 1.47679 0.157422 1.47291 0.160807 1.46708C0.165886 1.52142 0.174349 1.57576 0.187891 1.63009C0.548438 1.535 0.374088 1.25362 0.358854 1.02463C0.379166 1.07703 0.416406 1.10419 0.490885 1.07897C0.523047 1.15271 0.555208 1.22645 0.58737 1.30019C0.763412 1.10419 0.651693 0.869383 0.656771 0.650096V0.648156Z" fill="#E1067E"/>
</svg>
