<svg width="4" height="3" viewBox="0 0 4 3" fill="none" xmlns="http://www.w3.org/2000/svg">
<path d="M3.31602 0.000277137C3.18398 0.0371479 3.03333 0.0662569 2.93008 0.157465C2.69141 0.363167 2.40872 0.469899 2.17344 0.696948C1.96862 0.892947 1.7418 1.05596 1.5099 1.21314C1.5082 1.1491 1.5099 1.09865 1.48958 1.06178C1.39141 0.875482 1.22891 0.80368 1.05117 0.77069C1.05794 0.797858 1.07487 0.828907 1.06641 0.848313C1.00885 0.978333 0.976693 1.10835 0.995313 1.24031C0.765104 1.31017 0.624609 1.4169 0.53151 1.6129C0.685547 1.53916 0.836198 1.45766 1.00547 1.29853C1.01732 1.34316 1.03424 1.38974 1.05964 1.43631C1.07148 1.45766 1.07656 1.48289 1.07995 1.50811C1.07318 1.51393 1.06471 1.51782 1.05794 1.52558C0.804037 1.70799 0.548437 1.89041 0.296224 2.07865C0.201432 2.15239 0.110026 2.23389 0.028776 2.3251C0.00169271 2.35615 0.0118491 2.43183 0 2.53274C0.104948 2.48423 0.172656 2.46288 0.230208 2.42407C0.453646 2.2727 0.675391 2.12134 0.892057 1.96221C0.978386 1.90011 1.06302 1.83413 1.14596 1.76815C1.19167 1.8089 1.25599 1.81667 1.33724 1.81084C1.31185 1.76039 1.29154 1.71381 1.27122 1.67112C1.39479 1.57603 1.51667 1.48289 1.64531 1.39944C2.15313 1.0676 2.6474 0.712473 3.10951 0.299127C3.19414 0.223444 3.2737 0.072079 3.42096 0.128356C3.38542 0.0817818 3.33971 -0.00554475 3.31602 0.000277137Z" fill="#392726"/>
</svg>
