<svg width="32" height="31" viewBox="0 0 32 31" fill="none" xmlns="http://www.w3.org/2000/svg">
<path fill-rule="evenodd" clip-rule="evenodd" d="M20.7509 27.9425L22.4995 9.3187C22.618 8.04179 22.6603 6.29914 22.0949 5.13867C21.6582 4.24018 20.971 3.88894 20.0891 3.88894C19.3256 3.88894 18.5961 4.29258 17.9816 4.77966C17.1116 5.46857 16.3296 6.31467 15.6271 7.22092C14.8603 8.21062 14.1426 9.25078 13.4841 10.3394C12.9357 11.2476 12.4076 12.1927 11.9556 13.1708L10.5676 27.9639L13.1016 28.5227L12.9628 30.0151H0L0.14388 28.5014L2.8319 27.9406L5.09844 3.77638H2.26654L2.4138 2.20645L13.1896 0L12.3568 8.89953C13.1625 7.46544 14.063 6.09926 15.0736 4.84759C16.1958 3.45424 17.4823 2.25302 18.9533 1.37588C20.3667 0.531721 21.8783 0.112554 23.4728 0.112554C24.6441 0.112554 25.8934 0.285266 26.9648 0.863561C27.8806 1.35453 28.6254 2.08419 29.1434 3.08359C29.6698 4.1024 29.9626 5.24735 30.1031 6.41558C30.269 7.78175 30.2487 9.18091 30.1201 10.551L28.4866 27.9561L31.266 28.5169L31.1255 30.0151H17.9698L18.1103 28.5033L20.7509 27.9425Z" fill="#BF6463"/>
</svg>
