<svg width="1" height="3" viewBox="0 0 1 3" fill="none" xmlns="http://www.w3.org/2000/svg">
<path d="M0.0665577 0.818012C0.0970263 1.21971 0.129188 1.62141 0.159657 2.02312C0.134266 2.24046 0.108875 2.45587 0.0733286 2.74695C0.320464 2.50826 0.27476 2.25793 0.254448 2.01729C0.259526 1.80189 0.266297 1.58842 0.271375 1.37496C0.457574 1.55349 0.325542 1.79801 0.372938 2.00565C0.482964 1.9552 0.537131 1.88922 0.557443 1.81741L0.564214 2.13179C0.542209 2.24046 0.589604 2.38018 0.459266 2.44034C0.576063 2.51408 0.642079 2.41123 0.653928 2.13373C0.643771 1.87563 0.633615 1.61753 0.621766 1.35944C0.621766 1.35361 0.598068 1.34197 0.586219 1.34391C0.572677 1.34585 0.559136 1.35944 0.545594 1.3672C0.54898 1.45064 0.550672 1.53603 0.552365 1.62141C0.532052 1.53797 0.498199 1.45064 0.476193 1.3672C0.479579 1.06835 0.484657 0.767556 0.489735 0.466765C0.46773 0.373617 0.427105 0.327043 0.342469 0.38332C0.337391 0.396904 0.334005 0.408548 0.33062 0.424073C0.318771 0.276588 0.288302 0.134925 0.208745 0.00296531C0.161349 -0.00673749 0.12411 0.00684686 0.0936411 0.05148C0.0868702 0.0844703 0.0784069 0.11746 0.0682504 0.148509C-0.00961436 0.371676 -0.0350047 0.594844 0.0682504 0.818012H0.0665577Z" fill="#E1067E"/>
</svg>
