<svg width="1" height="4" viewBox="0 0 1 4" fill="none" xmlns="http://www.w3.org/2000/svg">
<path d="M0.722163 1.15866C0.696773 1.14508 0.671382 1.13537 0.644299 1.12567C0.56982 1.0073 0.527502 0.879217 0.559664 0.729792C0.588439 0.725911 0.615523 0.72397 0.642606 0.72203C0.67646 0.671574 0.68831 0.62306 0.671382 0.580367C0.678154 0.576486 0.683231 0.574546 0.690002 0.570664C0.825419 0.396012 0.810184 0.229121 0.674768 0.0641711C0.612138 0.017597 0.542737 -0.00180871 0.468257 0.000131756C0.393779 0.0078941 0.331148 0.0447655 0.282059 0.110745C0.312528 0.215537 0.178804 0.298982 0.253283 0.409595C0.205887 0.510506 0.158492 0.611416 0.109403 0.714268C0.195731 0.739495 0.309143 0.687099 0.356539 0.826822C0.232971 0.822941 0.0873978 0.795772 0.166955 1.03446C0.0484654 1.1606 0.10771 1.31779 0.109403 1.46527C0.100939 1.60306 0.0924759 1.74084 0.0840124 1.87862C0.0416948 2.11925 0.00614774 2.36183 0.092476 2.60052L0.273596 2.70337C0.273596 2.70337 0.273596 2.70531 0.273596 2.70725L0.275288 2.70531C0.276981 2.78681 0.298987 2.86056 0.363309 2.90519C0.35146 2.91295 0.337918 2.92265 0.32607 2.93624C0.30745 2.96923 0.293909 3.00222 0.283752 3.03715C0.121252 2.90907 0.092476 3.15747 0.0179968 3.2739C-0.0243208 3.44467 0.0112259 3.59992 0.0907833 3.74546C0.0975541 3.77651 0.10094 3.80756 0.10094 3.83861C0.212659 3.57081 0.419169 3.96087 0.541044 3.75517C0.574898 3.81921 0.607059 3.88519 0.640914 3.94922C0.745862 3.92206 0.720471 3.83085 0.7137 3.7474C0.637528 3.70665 0.649377 3.67172 0.718778 3.64067C0.772945 3.59604 0.783101 3.532 0.781408 3.46408C0.767867 3.42139 0.745862 3.38257 0.722163 3.3457C0.735705 3.26032 0.740784 3.17687 0.644299 3.11865C0.612138 2.55782 0.800028 2.01446 0.745861 1.45363C0.803413 1.3469 0.81357 1.24599 0.722163 1.15672V1.15866Z" fill="#EFEEE8"/>
</svg>
