<svg width="1" height="3" viewBox="0 0 1 3" fill="none" xmlns="http://www.w3.org/2000/svg">
<path d="M0.603632 1.76156C0.612096 1.68782 0.618866 1.61602 0.62733 1.54422C0.703502 1.13863 0.705195 0.734992 0.62733 0.33135C0.613788 0.29836 0.605325 0.26343 0.600246 0.226558C0.522382 0.13147 0.430976 0.129529 0.334491 0.179984C0.331106 0.183866 0.329413 0.187747 0.32772 0.189687C0.312486 0.0635491 0.260012 -0.0179553 0.127981 0.0033908C0.227851 0.139232 0.227851 0.282835 0.151679 0.43226C0.138137 0.436141 0.122903 0.438082 0.105976 0.447785C0.0585798 0.517646 0.03996 0.59721 0.0331892 0.682596C0.0348818 1.13669 -0.0649877 1.59467 0.0738142 2.04489C0.124596 2.12833 0.185533 2.12833 0.251549 2.07012C0.342955 2.03907 0.241393 1.84501 0.386965 1.86247C0.415742 1.89352 0.447903 1.90711 0.485142 1.90128C0.542695 1.87412 0.573163 1.81784 0.601939 1.76156H0.603632Z" fill="#E1067E"/>
</svg>
