<svg width="1" height="2" viewBox="0 0 1 2" fill="none" xmlns="http://www.w3.org/2000/svg">
<path d="M0 0.335736C0.0355468 0.446349 0.00677083 0.589953 0.121875 0.659814C0.132031 0.655933 0.140494 0.652052 0.147266 0.64817C0.140494 0.652052 0.132031 0.657873 0.121875 0.663695C0.118489 0.698626 0.115104 0.733557 0.111719 0.768487C-0.0389322 0.882982 0.0321615 1.05763 0.0186198 1.21094C0.0507814 1.21676 0.0812503 1.22258 0.113411 1.22841C0.250521 1.23423 0.345312 1.4865 0.512891 1.31573C0.572135 1.09645 0.582292 0.888803 0.411328 0.723853C0.414714 0.518151 0.419792 0.310509 0.42487 0.102866C0.389323 0.0718163 0.353776 0.0407669 0.318229 0.00971752C0.277604 0.0446478 0.257292 0.0912218 0.248828 0.139737C0.238672 0.0931627 0.223438 0.0485293 0.208203 0.00195518L0.213281 1.45902e-05C0.00677105 -0.00192637 0.0321611 0.190192 0 0.335736Z" fill="#E1067E"/>
</svg>
