<svg width="6" height="4" viewBox="0 0 6 4" fill="none" xmlns="http://www.w3.org/2000/svg">
<path d="M5.04089 0.00194059C4.9918 0.00582201 4.92578 -0.00388117 4.9224 0.0116435C4.85299 0.244514 4.66341 0.293028 4.5026 0.388117C4.2487 0.539483 3.99648 0.702492 3.74766 0.863561C3.69857 0.89461 3.64102 0.937304 3.6207 0.99164C3.53945 1.22839 3.34648 1.33124 3.18398 1.4535C2.76419 1.76593 2.32578 2.04732 1.89414 2.34229C1.63516 2.51888 1.37786 2.69353 1.11719 2.87013C0.846354 3.05448 0.573828 3.23496 0.304688 3.41931C0.201432 3.49111 0.071094 3.52993 0 3.7007C0.208203 3.73951 0.355469 3.63666 0.499349 3.53963C0.710937 3.39991 0.915755 3.2466 1.12227 3.09718C2.22591 2.29377 3.33125 1.49037 4.4332 0.683086C4.60924 0.555007 4.93255 0.190177 5.03919 0L5.04089 0.00194059Z" fill="#392726"/>
</svg>
