<svg width="1" height="4" viewBox="0 0 1 4" fill="none" xmlns="http://www.w3.org/2000/svg">
<path d="M0.105751 1.48261C0.0989809 1.51754 0.095595 1.55247 0.0939024 1.58934C0.0939024 1.65726 0.105751 1.72324 0.129449 1.78534C0.142991 1.81057 0.158225 1.82997 0.176845 1.84744C-0.0550559 2.42185 -0.00427461 2.99627 0.187001 3.56874L0.18023 3.57844C0.247939 3.6386 0.312262 3.6386 0.369814 3.55904C0.369814 3.49306 0.371507 3.42708 0.373199 3.3611C0.300413 3.13793 0.295335 2.9167 0.376585 2.69353C0.368121 2.66248 0.366428 2.63338 0.369814 2.60039C0.268251 2.38498 0.366429 2.13853 0.313954 1.91536C0.33596 1.91924 0.356272 1.91924 0.378277 1.9173C0.435829 1.88237 0.495074 1.84744 0.554319 1.81251C0.556012 1.63397 0.557704 1.4535 0.56109 1.27497C0.489996 1.19928 0.413824 1.24003 0.337652 1.25362C0.319032 1.25944 0.300413 1.2672 0.281793 1.27497C0.329189 1.21093 0.347808 1.13524 0.290257 1.03045C0.285178 0.99358 0.278407 0.960591 0.269944 0.92566C0.242861 0.620988 0.329189 0.304672 0.276715 0L0.0583555 0.421107C0.0566625 0.584117 0.0668193 0.745185 0.137913 0.900432C0.149762 0.915957 0.159918 0.92566 0.171767 0.933422C0.102366 0.95865 0.0515844 1.00911 0.0211159 1.08867C-0.000889186 1.24586 -0.0381291 1.41081 0.107444 1.48455L0.105751 1.48261Z" fill="#E1067E"/>
</svg>
