<svg width="1" height="1" viewBox="0 0 1 1" fill="none" xmlns="http://www.w3.org/2000/svg">
<path d="M0.323307 0.128079C0.323307 0.128079 0.325 0.126138 0.325 0.124198C0.325 0.124198 0.323308 0.126138 0.321615 0.126138C0.260678 0.079564 0.206511 0.0388117 0.157422 0C0.0981774 0.0601583 0.050781 0.110614 0 0.161069C0.0490884 0.195999 0.0947916 0.227049 0.140495 0.258098C0.0964842 0.308553 0.120182 0.345425 0.189583 0.417226C0.201432 0.380355 0.211589 0.347365 0.22513 0.316316C0.238672 0.324078 0.248828 0.333781 0.26237 0.341543C0.304687 0.287207 0.338542 0.242573 0.38763 0.180475C0.363933 0.161069 0.341928 0.145544 0.321615 0.128079H0.323307Z" fill="#392726"/>
</svg>
