<svg width="2" height="4" viewBox="0 0 2 4" fill="none" xmlns="http://www.w3.org/2000/svg">
<path d="M1.73892 3.31442C1.73723 3.01169 1.43254 3.17664 1.35637 2.99034C1.38176 2.95929 1.40715 2.9263 1.43424 2.89526C1.40885 2.81569 1.38515 2.73613 1.35976 2.65462C1.35299 2.43145 1.34622 2.20635 1.33775 1.98124C1.33945 1.80465 1.34114 1.62999 1.34283 1.4534C1.35129 1.30786 1.43932 1.17007 1.38007 1.01677C1.41392 0.900332 1.42747 0.783897 1.36484 0.671343C1.35468 0.638353 1.34452 0.605363 1.33606 0.574313C1.41731 0.376373 1.24804 0.215305 1.27682 0.0251274C1.24127 0.0231865 1.20572 0.0231867 1.17017 0.0212463C1.1414 0.0425928 1.12109 0.0736422 1.10416 0.106632C1.08893 0.0348305 1.05338 -0.00980336 0.96705 0.0018404C0.924732 0.0445331 0.895956 0.0969289 0.879029 0.155147C0.821477 0.401601 0.836711 0.644174 0.909498 0.882867C0.923039 0.983777 0.887493 1.10021 0.958586 1.18366C0.902727 1.21665 0.855331 1.26322 0.816399 1.3195C0.743612 1.43399 0.740227 1.54655 0.814706 1.66104C0.826555 1.68045 0.838404 1.70179 0.846868 1.7212C0.831633 1.7833 0.818091 1.84152 0.802857 1.90167C0.752076 1.98124 0.752076 2.06274 0.765617 2.14619C0.736842 2.15589 0.708065 2.16948 0.680982 2.18888C0.66744 2.2374 0.657284 2.28785 0.648821 2.34025C0.652206 2.29949 0.650513 2.26068 0.640357 2.22187C0.724992 2.08409 0.618352 1.92302 0.682675 1.78136C0.682675 1.74449 0.682675 1.70568 0.682675 1.6688C0.645435 1.62223 0.62343 1.55819 0.572649 1.5252C0.552336 1.20306 0.689446 0.865402 0.489706 0.56461C0.482935 0.636413 0.476164 0.710155 0.469394 0.783897C0.383066 0.750907 0.296737 0.717917 0.210409 0.684927L0.205331 0.679105C0.107154 0.886748 0.169784 1.07498 0.262883 1.25934C0.267961 1.26322 0.274732 1.26904 0.27981 1.27487C0.191789 1.40488 0.203638 1.53296 0.31705 1.65716C0.330591 1.65716 0.342441 1.66104 0.354289 1.66104C0.347519 1.67851 0.340748 1.69791 0.333977 1.71732C0.320435 2.01811 0.345826 2.3189 0.340748 2.61969C0.269654 2.49549 0.345826 2.28009 0.188404 2.21217C0.0174405 2.43146 -0.121362 2.6488 0.164706 2.85062C0.083456 3.03886 0.0529873 3.24262 0.195175 3.39787C0.303508 3.51624 0.384758 3.33577 0.481242 3.2989C0.591268 3.17664 0.472779 2.9884 0.540487 2.85256C0.548951 2.85256 0.559107 2.85256 0.567571 2.85256C0.591268 2.84674 0.613274 2.8351 0.633586 2.82151C0.645435 2.84092 0.658977 2.85838 0.674211 2.87197C0.652206 2.98258 0.640357 3.08737 0.74192 3.14753C0.630201 3.31248 0.591268 3.48325 0.745305 3.66567C0.787623 3.68895 0.833326 3.69478 0.879029 3.68313C1.02291 3.60745 0.994133 3.4425 1.0246 3.3086C1.03984 3.32412 1.05676 3.33771 1.07538 3.34935C1.10924 3.35323 1.13801 3.34741 1.16679 3.32801C1.31913 3.61909 1.48671 3.5046 1.65429 3.33189C1.68137 3.32607 1.70846 3.32024 1.73723 3.31248L1.73892 3.31442Z" fill="#E1067E"/>
</svg>
