<svg width="1" height="2" viewBox="0 0 1 2" fill="none" xmlns="http://www.w3.org/2000/svg">
<path d="M0.236364 0.0815046C0.199125 0.135841 0.173734 0.195999 0.160193 0.261979C0.156807 0.316316 0.155114 0.368712 0.153422 0.421107C0.128031 0.399761 0.0975626 0.401702 0.0603228 0.434691C0.0518593 0.613225 0.0433956 0.791759 0.0349322 0.970293C-0.00230765 1.12554 -0.0276979 1.28079 0.0552447 1.42827C0.0772502 1.40887 0.0958694 1.38752 0.112797 1.36811C0.111104 1.3914 0.111104 1.41469 0.111104 1.43992L0.324385 1.43603C0.351469 0.95671 0.400557 0.473503 0.251599 0C0.251599 0.0291089 0.248213 0.0562771 0.238057 0.0815046H0.236364Z" fill="#E1067E"/>
</svg>
