<svg width="2" height="2" viewBox="0 0 2 2" fill="none" xmlns="http://www.w3.org/2000/svg">
<path d="M1.26784 0.215685C1.18151 0.268081 1.0918 0.318536 1.01224 0.384516C0.814192 0.547525 0.622917 0.720238 0.426563 0.883247C0.277604 1.0055 0.11849 1.11418 0 1.34899C0.192969 1.21897 0.352083 1.11612 0.507813 1.0055C0.58737 0.951167 0.665234 0.89295 0.741406 0.834732C0.722786 0.871604 0.705859 0.910415 0.683854 0.945346C0.661849 0.980276 0.629687 1.00356 0.572135 1.06566C0.717708 1.04043 0.853125 0.920118 0.978386 0.704713C0.936067 0.718297 0.902214 0.726059 0.87513 0.733822C1.14427 0.524238 1.40664 0.301071 1.65716 0.0604382C1.69271 0.0274484 1.75026 0.0196859 1.79935 0.00416122V0.000280043C1.73333 0.002221 1.66393 -0.00748268 1.60638 0.0177453C1.48958 0.0720812 1.37956 0.147765 1.26784 0.217626V0.215685Z" fill="#392726"/>
</svg>
