<svg width="1" height="2" viewBox="0 0 1 2" fill="none" xmlns="http://www.w3.org/2000/svg">
<path d="M0.0678954 0.698611C-0.0218181 0.914016 -0.0387453 1.12166 0.116984 1.3099C0.149145 1.28661 0.171151 1.26138 0.186385 1.23615C0.189771 1.36035 0.198234 1.48261 0.240552 1.60098C0.279484 1.67861 0.338729 1.7116 0.413208 1.7116C0.45214 1.70189 0.485995 1.68055 0.511385 1.64562C0.531698 1.6689 0.557088 1.6689 0.584171 1.64562C0.592635 1.42827 0.601099 1.20899 0.609562 0.99164C0.602791 0.956709 0.594328 0.923719 0.584171 0.888789C0.618026 0.685027 0.511385 0.514255 0.475838 0.327959C0.514771 0.219286 0.553703 0.108673 0.592635 0C0.516463 0.104791 0.291333 -0.0543363 0.303182 0.211524C0.240551 0.215405 0.177921 0.217346 0.115291 0.219286C0.00865047 0.370652 -0.00150567 0.514255 0.120369 0.650096C0.101749 0.655918 0.0831295 0.669502 0.0662027 0.696671L0.0678954 0.698611Z" fill="#E1067E"/>
</svg>
