<svg width="1" height="3" viewBox="0 0 1 3" fill="none" xmlns="http://www.w3.org/2000/svg">
<path d="M0.60398 1.7615C0.610751 1.6897 0.619214 1.61596 0.625985 1.54416C0.70385 1.14052 0.70385 0.736874 0.625985 0.331291C0.612443 0.298301 0.60398 0.263371 0.600594 0.22844C0.521037 0.131411 0.431323 0.12947 0.333147 0.181866C0.331454 0.183807 0.328068 0.187688 0.326376 0.189628C0.311141 0.065431 0.26036 -0.0180139 0.126636 0.0033322C0.226506 0.139174 0.226506 0.282776 0.152027 0.432202C0.136792 0.436083 0.121558 0.438023 0.104631 0.447726C0.0589281 0.517587 0.040308 0.597152 0.0335372 0.682537C0.0352298 1.13857 -0.0646403 1.59461 0.0724694 2.04483C0.124943 2.13021 0.184188 2.13022 0.250204 2.07006C0.34161 2.03901 0.240047 1.84495 0.387313 1.86241C0.416089 1.89346 0.446558 1.90705 0.483798 1.90317C0.543042 1.876 0.573511 1.81972 0.602287 1.7615H0.60398Z" fill="#E1067E"/>
</svg>
