<svg width="1" height="2" viewBox="0 0 1 2" fill="none" xmlns="http://www.w3.org/2000/svg">
<path d="M0.616938 1.04598C0.638943 0.937303 0.63048 0.828631 0.608475 0.721898C0.554308 0.547245 0.579699 0.337662 0.435819 0.203762C0.444282 0.120316 0.425662 0.050455 0.356261 0C0.234386 0.073742 0.26824 0.207643 0.259777 0.326019C0.231001 0.327959 0.202225 0.329899 0.171756 0.33184C0.159907 0.49679 0.0481885 0.66368 0.159907 0.82863C0.0854279 0.888788 0.0583445 0.99164 0.00417787 1.06732C-0.00259296 1.09643 -0.000900142 1.1236 0.00756329 1.15271C0.0397249 1.29825 0.0837354 1.4438 0.00587058 1.58934C0.0295687 1.65532 0.0532666 1.7213 0.0769643 1.78728C0.107433 1.78922 0.139595 1.78728 0.168371 1.78146C0.281782 1.72906 0.329178 1.6398 0.354569 1.53889C0.356261 1.63009 0.374881 1.71742 0.437511 1.79698C0.596626 1.92312 0.52384 1.72712 0.561079 1.68055C0.550923 1.54471 0.540767 1.41081 0.53061 1.27497L0.527225 1.19734C0.533995 1.19346 0.542459 1.19152 0.54923 1.18764C0.583084 1.14689 0.606782 1.10031 0.620324 1.04598H0.616938Z" fill="#EFEEE8"/>
</svg>
