<svg width="1" height="3" viewBox="0 0 1 3" fill="none" xmlns="http://www.w3.org/2000/svg">
<path d="M0.0998698 2.19092C0.123568 2.21809 0.147266 2.24526 0.170964 2.27243C0.179427 2.20839 0.189584 2.14435 0.19974 2.08031C0.201433 1.89983 0.204818 1.71936 0.208203 1.53888C0.291146 1.44186 0.291146 1.32154 0.282682 1.19734C0.279297 1.12748 0.275911 1.05762 0.270833 0.987758C0.279297 0.950887 0.289453 0.914016 0.297917 0.875204C0.321614 0.865501 0.347005 0.861621 0.370703 0.857739C0.463802 0.721898 0.463802 0.576354 0.40625 0.423048L0.36901 0.434691C0.372396 0.291088 0.375781 0.145544 0.377474 0C0.318229 0.0698611 0.257292 0.139722 0.196354 0.209583C0.196354 0.283325 0.194661 0.357068 0.194661 0.42887C0.165886 0.539483 0.140495 0.652037 0.111719 0.764591C0.0829428 0.766532 0.0541667 0.770413 0.0270833 0.776235C0.0186195 0.881026 0.00846343 0.985818 0 1.09061C0.0287759 1.09061 0.0558594 1.09643 0.0829427 1.11002C0.0897135 1.46902 0.0947917 1.82997 0.101562 2.19092H0.0998698Z" fill="#E1067E"/>
</svg>
