<svg width="1" height="2" viewBox="0 0 1 2" fill="none" xmlns="http://www.w3.org/2000/svg">
<path d="M0.0933447 1.42245C0.13397 1.46126 0.174595 1.50007 0.21522 1.53888C0.218605 1.50395 0.225376 1.46902 0.232147 1.43409C0.220298 1.4011 0.221991 1.36811 0.233839 1.33318C0.230454 1.18376 0.223683 1.03627 0.218605 0.888789C0.227069 0.851918 0.237225 0.815046 0.245688 0.778175C0.159361 0.512315 0.325246 0.275563 0.308319 0.0194061C0.279542 0.0174651 0.250766 0.00970281 0.221991 0C-0.0200669 0.0213466 0.0324073 0.248395 0.000245724 0.417226C-0.00144688 0.570532 0.00363082 0.725779 0.079803 0.86162C0.0950373 0.882967 0.111964 0.89461 0.127199 0.902372C-0.0166813 1.0615 -0.00652522 1.23809 0.0933447 1.42439V1.42245Z" fill="#E1067E"/>
</svg>
