<svg width="1" height="2" viewBox="0 0 1 2" fill="none" xmlns="http://www.w3.org/2000/svg">
<path d="M0.0186198 0.869383C0.0220054 1.1236 0.0253908 1.37782 0.028776 1.63203C0.0541668 1.63397 0.0795573 1.63786 0.106641 1.6398C0.350391 1.41081 0.236979 1.17211 0.142188 0.933423C0.177734 0.931482 0.214974 0.92372 0.248828 0.908195C0.253906 0.904314 0.258984 0.902373 0.265755 0.898492C0.330078 1.01881 0.28099 1.16629 0.301302 1.29825C0.360547 1.30602 0.387631 1.2672 0.399479 1.20705C0.458724 1.23421 0.516276 1.26332 0.577214 1.29049C0.573828 1.0421 0.573828 0.7937 0.572135 0.545305C0.572135 0.36289 0.573828 0.182415 0.573828 0C0.316536 0.145544 0.538282 0.368712 0.502734 0.551127C0.497657 0.653978 0.494271 0.756829 0.489193 0.85968C0.462109 0.832512 0.435026 0.805344 0.407943 0.780116C0.419792 0.762651 0.429948 0.739364 0.438412 0.716077C0.455339 0.518137 0.36224 0.436632 0.201432 0.432751C0.135417 0.502612 0.0677083 0.574414 0 0.646216C0.00677083 0.719958 0.011849 0.7937 0.0186198 0.867442V0.869383Z" fill="#E1067E"/>
</svg>
