<svg width="3" height="14" viewBox="0 0 3 14" fill="none" xmlns="http://www.w3.org/2000/svg">
<path d="M1.50217 10.6988C1.61051 10.5397 1.61897 10.3845 1.52756 10.2292C1.53264 10.2292 1.53433 10.2292 1.53772 10.2292C1.56142 10.2215 1.58173 10.2079 1.60035 10.1923C1.61051 10.3165 1.5428 10.499 1.76623 10.466C1.79332 10.433 1.8204 10.4 1.84918 10.367C1.87795 10.3379 1.90673 10.3107 1.93551 10.2836C1.96428 10.3088 1.99644 10.3165 2.03368 10.303C2.09123 10.2952 2.14709 10.2855 2.20465 10.2777C2.24019 10.303 2.27743 10.3049 2.31467 10.2816C2.31806 10.1652 2.29944 10.041 2.40946 9.96918C2.37392 9.89738 2.34006 9.82752 2.30621 9.75571C2.29605 9.65286 2.41962 9.55195 2.30959 9.44716C2.32652 9.3773 2.18264 9.30356 2.31298 9.23564C2.32483 9.15413 2.32483 9.06681 2.40269 9.02217C2.45855 9.02023 2.5161 9.01829 2.57196 9.01635C2.58043 8.91544 2.5872 8.81647 2.59566 8.71362L2.57873 8.7272C2.50426 8.636 2.43147 8.53703 2.31298 8.61077C2.3079 8.57584 2.29944 8.54285 2.29267 8.50986C2.30452 8.47493 2.31636 8.44194 2.32821 8.40701C2.40439 8.43612 2.48056 8.46523 2.55842 8.49627C2.61936 8.37596 2.52457 8.29445 2.50256 8.19548C2.66845 8.01501 2.54827 7.77632 2.60243 7.57256C2.60243 7.29699 2.60243 7.01949 2.60243 6.74198C2.67014 6.62749 2.67183 6.51688 2.5872 6.4082C2.29774 6.56927 2.38069 6.8526 2.38407 7.10876C2.33837 6.81379 2.2842 6.51882 2.31636 6.21414C2.25373 6.15787 2.18772 6.14816 2.11662 6.19474C1.99475 6.41014 1.97105 6.6469 1.99814 6.89335C2.00998 6.94381 2.02522 6.98844 2.04384 7.02919C2.03876 7.06994 2.03368 7.10876 2.0303 7.14757C2.05061 7.26012 2.02522 7.3882 2.1217 7.47164C2.12001 7.51822 2.12001 7.56673 2.11832 7.61331C2.06415 7.63854 2.02522 7.68123 2.01168 7.75303C2.01337 7.76661 2.01676 7.77826 2.02014 7.79184C1.94735 7.82095 1.90673 7.88887 1.88642 7.97426C1.91519 8.1819 1.87287 8.42641 2.04722 8.56031C1.81532 8.79901 1.91181 9.09398 1.94058 9.37536C1.97105 9.46851 2.0066 9.55583 2.0997 9.583C2.07939 9.62764 2.07939 9.67615 2.09462 9.73049C2.10139 9.74213 2.11155 9.74989 2.12001 9.7596C2.06923 9.83528 2.02014 9.91096 1.97105 9.9847C1.96428 10.0177 1.95751 10.0487 1.95243 10.0798C1.80855 10.0313 1.83902 9.84498 1.751 9.75183C1.76116 9.37342 1.77301 8.99306 1.78316 8.61465C1.94566 8.42835 1.81363 8.18966 1.8678 7.98396C1.84241 7.9141 1.81532 7.84424 1.78824 7.77438C1.78655 7.42701 1.78655 7.0777 1.78485 6.73034C1.7747 6.66242 1.76623 6.5945 1.75608 6.52852C1.75608 6.49165 1.75608 6.45284 1.75608 6.41402C1.76962 6.38686 1.77301 6.35581 1.76454 6.32476C1.73069 6.15011 1.751 5.97157 1.72222 5.79692C1.73746 5.79498 1.751 5.79498 1.76623 5.79304C1.76285 5.62032 1.76116 5.44955 1.75946 5.27878C1.74931 5.24967 1.73577 5.23803 1.72053 5.23997C1.7273 5.07114 1.71207 4.90231 1.73238 4.73542C1.77301 4.59181 1.77808 4.45403 1.68837 4.32983C1.67821 4.29879 1.67314 4.26774 1.66636 4.23669C1.67652 4.0271 1.68668 3.81752 1.69514 3.60794C1.70191 3.60794 1.71037 3.59435 1.71545 3.56913C1.72222 3.54196 1.71376 3.51867 1.69006 3.49344C1.6579 3.46045 1.62405 3.42746 1.59189 3.39641C1.71037 3.20429 1.68668 2.99083 1.66806 2.77543C1.63928 2.67063 1.6105 2.56584 1.58173 2.46105L1.58004 2.25341C1.52418 2.18743 1.46662 2.18743 1.41077 2.25535C1.38199 2.40283 1.44631 2.5736 1.32274 2.69586C1.34983 2.71915 1.37522 2.74438 1.40399 2.7696C1.39892 2.83558 1.39553 2.90156 1.39215 2.96754C1.36168 3.00441 1.33121 3.04129 1.30074 3.07816C1.21949 3.21012 1.27366 3.31297 1.3566 3.40806C1.39045 3.43328 1.42769 3.44881 1.46662 3.45269C1.426 3.56718 1.47509 3.70108 1.42261 3.8117C1.41754 4.02516 1.34983 4.25027 1.49032 4.44433L1.48355 4.64033C1.45647 4.64033 1.43108 4.64421 1.40569 4.65197C1.25673 4.56853 1.37014 4.33372 1.22965 4.24445C1.32613 4.40164 0.999438 4.73736 1.39722 4.76841C1.37522 4.93918 1.35491 5.10801 1.3329 5.27878C1.32444 5.37969 1.31597 5.48448 1.3092 5.58539C1.33967 5.75617 1.13824 5.93664 1.32444 6.10159C1.35152 6.10353 1.38199 6.10547 1.41077 6.10547C1.40399 6.17339 1.39553 6.24131 1.38707 6.30923C1.35152 6.42179 1.3329 6.5227 1.48186 6.5227C1.46832 6.53434 1.45478 6.54793 1.44123 6.56539C1.43446 6.5848 1.42769 6.6042 1.42261 6.62361C1.37522 6.63331 1.34814 6.67989 1.32952 6.7381C1.32444 6.80214 1.32105 6.86812 1.31597 6.93216C1.42939 6.99814 1.40399 7.12622 1.41923 7.23683C1.44631 7.22325 1.4734 7.20966 1.49879 7.19608C1.5191 7.40372 1.49032 7.60555 1.4497 7.80543C1.43277 7.77438 1.41415 7.74915 1.37522 7.74333C1.28212 7.75885 1.21272 7.81901 1.1467 7.88887C1.1467 7.86752 1.1467 7.84618 1.1467 7.82483C1.13993 7.75109 1.12808 7.67929 1.10269 7.61137C1.08407 7.56867 1.06037 7.52986 1.03329 7.49493C1.04176 7.38238 1.05022 7.26594 1.05868 7.15339C1.15009 6.9962 1.16363 6.83319 1.09084 6.66242C1.07392 6.63525 1.0536 6.61585 1.0316 6.60226C1.03329 6.5421 1.03498 6.48 1.03668 6.41985C1.01975 6.37327 0.992666 6.34222 0.950349 6.32476C0.950349 6.32282 0.948656 6.32088 0.946963 6.317C0.968968 6.32088 0.989281 6.32476 1.00959 6.33446C1.13993 6.07442 1.18902 5.82021 0.974047 5.58539C0.984203 5.58539 0.994359 5.58345 0.994359 5.58345H1.04006C1.04345 5.48254 1.05022 5.38163 1.0536 5.27878C1.05191 5.18563 1.04853 5.09055 1.04514 4.9974C1.06376 4.92171 1.07222 4.84021 1.08069 4.76065C1.07899 4.72183 1.06545 4.6869 1.04514 4.65779C1.06037 4.64809 1.07561 4.63451 1.09084 4.6151C1.11285 4.57241 1.12808 4.52778 1.13655 4.47732C1.15517 4.32207 1.15686 4.16877 1.07899 4.02904C1.06715 4.01546 1.0536 4.00382 1.04176 3.99411C1.04683 3.97471 1.05191 3.9553 1.0536 3.93396C1.0773 3.8932 1.101 3.85245 1.12639 3.81364C0.996052 3.73796 1.0536 3.60794 1.05699 3.49538C1.08746 3.4294 1.09254 3.3673 1.05191 3.31491C1.0773 3.27416 1.07561 3.2334 1.0553 3.19265C1.0553 3.09756 1.0553 3.00247 1.0553 2.90739C1.08069 2.90156 1.10269 2.88992 1.12301 2.86857C1.101 2.78125 1.0773 2.69586 1.0536 2.60853C1.08069 2.60271 1.10946 2.59495 1.13655 2.58525C1.16871 2.55226 1.19241 2.51539 1.20933 2.46881C1.25504 2.29222 1.25165 2.1098 1.23642 1.92933C1.22457 1.84977 1.20256 1.77408 1.15686 1.71004C1.15347 1.7081 1.1484 1.70616 1.14501 1.70228C1.23642 1.59749 1.23642 1.46941 1.20764 1.33163C1.17717 1.24818 1.13316 1.18414 1.04345 1.19385C0.996052 1.25012 0.948656 1.30834 0.90126 1.36462C0.918187 1.24236 0.884333 1.1531 0.781078 1.10846C0.809854 1.0386 0.784464 0.964858 0.762458 0.893056C0.733682 0.811552 0.730297 0.728107 0.737068 0.642721C0.737068 0.596147 0.730297 0.551513 0.708292 0.516583C0.770922 0.493296 0.811547 0.440899 0.828474 0.367157C0.836938 0.287594 0.821703 0.217732 0.767536 0.163396C0.655818 -0.0772374 0.489932 0.00232755 0.325739 0.0624854C0.310505 0.0935347 0.300349 0.124584 0.296963 0.161455C0.334203 0.196386 0.36975 0.231316 0.406989 0.266247C0.466234 0.332227 0.523786 0.400148 0.583031 0.466127C0.459463 0.689295 0.427302 0.939631 0.420531 1.19773C0.410375 1.24042 0.400218 1.28311 0.390062 1.32581C0.225869 1.24042 0.403604 0.984264 0.227562 0.902759C0.236026 1.10846 0.15139 1.32969 0.312198 1.50628C0.340974 1.46941 0.371443 1.4306 0.400219 1.39179C0.43238 1.50434 0.464541 1.6169 0.49501 1.72945C0.31389 1.90604 0.445922 2.14862 0.39514 2.35238C0.401911 2.41448 0.408682 2.48046 0.415453 2.5445C0.415453 2.58525 0.415453 2.62794 0.415453 2.66869C0.415453 2.73855 0.415453 2.80842 0.415453 2.87828C0.398526 2.80259 0.366364 2.73079 0.310505 2.66481C0.141234 2.76184 0.271573 2.95396 0.20725 3.08592C0.200479 3.11697 0.193708 3.14802 0.190323 3.17907C0.180166 3.1519 0.166624 3.12279 0.148005 3.09368C0.114151 3.06069 0.0802968 3.0277 0.0481352 2.99471C0.0413644 3.01994 0.0312078 3.04711 0.0193592 3.07234C0.0582911 3.21012 -0.102516 3.41388 0.124307 3.4915C0.14462 3.47016 0.158161 3.44687 0.171703 3.42358C0.17001 3.72825 0.220791 4.03875 0.131078 4.33566C0.100609 4.36865 0.071833 4.40358 0.0430571 4.43657C0.0379793 4.46762 0.0379791 4.49673 0.0464425 4.52777C0.124307 4.63257 0.205557 4.72766 0.340974 4.64033C0.366365 4.60734 0.381599 4.56853 0.39514 4.52777C0.396833 4.53166 0.396833 4.53748 0.400219 4.54136C0.489932 4.6248 0.406989 4.83827 0.583031 4.85767C0.559333 4.89066 0.533943 4.92365 0.510245 4.95859C0.510245 5.18757 0.510244 5.4185 0.511937 5.64943C0.510244 5.64943 0.508552 5.64943 0.506859 5.64943C0.466234 5.66496 0.435766 5.69019 0.410375 5.72706C0.403604 5.5524 0.39514 5.37969 0.390062 5.20504C0.415453 5.18563 0.437458 5.16235 0.454385 5.1313C0.47639 5.06726 0.478083 5.00128 0.461156 4.93336C0.435765 4.8635 0.391755 4.81692 0.324047 4.8014C0.229255 4.80334 0.163239 4.84991 0.134463 4.95859C0.131078 5.03039 0.124307 5.10025 0.120922 5.17205L0.14462 5.68242C0.178474 5.71347 0.212328 5.71541 0.249568 5.68436C0.268187 5.66302 0.278344 5.63779 0.2885 5.61256C0.293578 5.63779 0.298656 5.66108 0.305427 5.68436C0.322354 5.76005 0.305427 5.85708 0.396833 5.89007C0.479776 6.03755 0.259723 6.0783 0.308812 6.21414C0.312198 6.24713 0.313891 6.28012 0.315583 6.31117C0.442536 6.36745 0.43238 6.19474 0.484854 6.12876C0.484854 6.1307 0.483161 6.13458 0.483161 6.13652C0.454385 6.28983 0.474698 6.43731 0.508552 6.57897C0.467927 6.53434 0.418838 6.50329 0.349437 6.49165C0.185244 6.58091 0.324047 6.72258 0.303734 6.83707C0.312198 7.04278 0.320661 7.25042 0.327432 7.45612L0.298656 8.58748C0.141234 8.71362 0.261416 8.81259 0.322354 8.91932C0.315583 8.95231 0.308813 8.98724 0.302041 9.02217C0.34436 9.09203 0.384984 9.1619 0.425609 9.23176C0.418838 9.26863 0.412068 9.3055 0.405297 9.34043C0.271573 9.40253 0.33251 9.55001 0.296963 9.65674C0.296963 9.72467 0.296963 9.79065 0.296963 9.85857C0.219099 9.89544 0.227563 9.975 0.22587 10.0507C0.381599 10.1632 0.276651 10.3418 0.310505 10.4854C0.207249 10.5572 0.312198 10.6193 0.317276 10.6853C0.342666 10.6891 0.368057 10.695 0.391755 10.7027C0.408682 10.8774 0.26988 11.0947 0.49501 11.217C0.501781 11.1956 0.506859 11.1743 0.511937 11.1529C0.51363 11.2112 0.510244 11.2713 0.498396 11.3315C0.493317 11.3509 0.49501 11.3703 0.498396 11.3877C0.447614 11.4227 0.417146 11.4712 0.423916 11.5449C0.415453 11.642 0.396833 11.7409 0.461156 11.8147C0.415453 11.9641 0.327432 12.0902 0.283422 12.2397C0.401911 12.4007 0.200479 12.6452 0.391755 12.7869C0.31389 12.9383 0.36975 13.0411 0.488239 13.1188C0.566104 13.1498 0.621964 13.1168 0.671052 13.0625C0.67613 13.1401 0.682901 13.2158 0.687979 13.2915C0.684593 13.4351 0.681208 13.5767 0.677823 13.7203C0.682901 13.7514 0.682901 13.7824 0.677823 13.8154C0.73876 13.7165 0.798005 13.6194 0.85725 13.5224C0.862328 13.6078 0.880948 13.6873 0.955427 13.732C1.06545 13.6544 1.03837 13.5243 1.04853 13.4079C1.01975 13.3536 0.992666 13.2992 0.96389 13.2449C0.972354 13.2294 0.980817 13.2119 0.985896 13.1944C0.994359 13.1479 0.990974 13.1032 0.979125 13.0605C0.997745 13.0372 1.01298 13.012 1.02144 12.979C1.02652 12.9499 1.02821 12.9228 1.02821 12.8956C1.06376 12.7947 1.02821 12.6685 1.05868 12.5637C1.09931 12.4104 1.101 12.2552 1.06715 12.0999C1.08915 12.034 1.10777 11.9641 1.12639 11.8981C1.16702 11.6847 1.1704 11.4712 1.13655 11.2577C1.12301 11.2053 1.10269 11.1568 1.07222 11.1141C1.0553 11.0986 1.03837 11.0908 1.01975 11.085C1.03668 10.986 1.05191 10.8871 1.06715 10.79C1.11623 10.7085 1.12639 10.6232 1.09592 10.5319C1.07899 10.5067 1.06207 10.4893 1.04345 10.4757C1.22457 10.2001 1.13316 9.93425 1.01806 9.66839C0.997745 9.64704 0.977432 9.6354 0.953734 9.6257C0.987588 9.56554 1.02144 9.50538 1.05699 9.44522C1.09931 9.32879 1.07222 9.22788 1.02652 9.12891H1.02821C1.05699 8.88245 1.27366 8.61659 0.984203 8.40701C0.989281 8.37208 0.980817 8.33909 0.958812 8.31386C0.979124 8.31968 0.999437 8.31968 1.02144 8.3158C1.13316 8.22265 1.1484 8.09457 1.15009 7.96261C1.15178 8.00337 1.15517 8.04412 1.15686 8.08681C1.28212 8.14697 1.30243 8.35073 1.43785 8.39342C1.42261 8.46522 1.42939 8.53703 1.45308 8.60689C1.46155 8.62047 1.46662 8.636 1.47509 8.64958C1.42092 8.70586 1.36845 8.76213 1.31428 8.81841C1.3109 9.02605 1.30751 9.22982 1.30412 9.43746C1.27873 9.44522 1.25504 9.44716 1.22965 9.44522C1.22457 9.48015 1.22626 9.51314 1.23811 9.54613L1.22118 9.75766C1.23134 9.86633 1.22118 9.9847 1.32444 10.0507C1.3566 10.0953 1.39045 10.138 1.42092 10.1826C1.41754 10.3534 1.41415 10.5242 1.40907 10.695C1.44123 10.695 1.4734 10.695 1.50386 10.695L1.50217 10.6988Z" fill="#EFEEE8"/>
</svg>
