<svg width="1" height="4" viewBox="0 0 1 4" fill="none" xmlns="http://www.w3.org/2000/svg">
<path d="M0.0522697 1.80147C0.0201082 2.00523 -0.0645268 2.21287 0.0895093 2.40111C0.111515 2.41469 0.131827 2.43216 0.148754 2.4535C0.150447 2.45545 0.15214 2.45545 0.15214 2.45739C0.157217 2.46321 0.160603 2.46903 0.165681 2.47679C0.169066 2.50978 0.174145 2.54277 0.17753 2.57576L0.174145 2.568C0.175837 2.56994 0.175837 2.57382 0.17753 2.57576C-0.0239023 2.75624 0.13352 3.01822 0.0641187 3.22974C0.0793529 3.32095 0.0759674 3.42186 0.174145 3.46261C0.175837 3.41992 0.180916 3.37722 0.182608 3.33453C0.204614 3.24332 0.231697 3.15212 0.248624 3.06091C0.255395 3.07643 0.267244 3.09196 0.280785 3.10748C0.267244 3.1133 0.253702 3.12107 0.241853 3.13465C0.211384 3.20839 0.213077 3.27631 0.265551 3.33841L0.274015 3.46067C0.270629 3.67413 0.370499 3.7731 0.551619 3.78087C0.6024 3.59651 0.419587 3.5771 0.380655 3.46067C0.451749 3.45679 0.524535 3.46261 0.544848 3.35588C0.416202 3.34229 0.365421 3.24915 0.355265 3.11524C0.378962 3.05121 0.402661 2.98523 0.426358 2.92119C0.426358 2.92119 0.426358 2.92119 0.428051 2.92313C0.472062 2.94059 0.510994 2.93671 0.548233 2.90372C0.551619 2.79311 0.553311 2.68443 0.555004 2.57576C0.597322 2.4244 0.548233 2.28467 0.514379 2.14301C0.487296 2.10226 0.468676 2.05957 0.453442 2.01299C0.450056 1.87327 0.446671 1.73355 0.443285 1.59382C0.417895 1.59382 0.394197 1.588 0.372192 1.57636C0.37727 1.37648 0.411124 1.1766 0.436514 0.976718C0.544848 0.836996 0.451749 0.644878 0.50253 0.493512C0.494066 0.456642 0.48391 0.421711 0.475447 0.38678C0.466983 0.384839 0.460212 0.38484 0.451749 0.382899C0.436515 0.272286 0.409432 0.161673 0.360343 0.0510588C0.143676 -0.0964258 0.0945874 0.107336 0.0201083 0.260642C-0.0205167 0.412008 0.0319574 0.559492 0.0353426 0.706977C0.0793533 0.994184 -0.0391363 1.31826 0.180916 1.56083C0.167374 1.5686 0.15214 1.57636 0.138598 1.58606C0.0945872 1.6501 0.069197 1.7219 0.0522697 1.79953V1.80147Z" fill="#E1067E"/>
</svg>
