<svg width="1" height="2" viewBox="0 0 1 2" fill="none" xmlns="http://www.w3.org/2000/svg">
<path d="M0.479037 0.39782C0.450261 0.36677 0.421485 0.335721 0.391016 0.304672C0.358854 0.300791 0.326693 0.29691 0.294531 0.293029C0.236979 0.289147 0.179427 0.287207 0.120182 0.285266C0.113411 0.178534 0.125261 0.0659802 0.0270833 0C0.0270833 0.0291089 0.0169273 0.0523956 0 0.0718012C0.00507823 0.432751 0.0101561 0.7937 0.0152344 1.15465C0.20651 0.935363 0.0473958 0.653978 0.115104 0.411404C0.172656 0.483206 0.230208 0.553067 0.28776 0.622929C0.279297 0.751007 0.104948 0.892669 0.267448 0.987758C0.338541 1.03045 0.382552 0.851917 0.392708 0.739363C0.507813 0.813106 0.490886 0.941184 0.495964 1.0615C0.379167 1.18764 0.296224 1.32542 0.391016 1.5156C0.448568 1.43215 0.504427 1.34871 0.560287 1.26526C0.627995 1.20316 0.629688 1.13718 0.577214 1.0712C0.599219 1.06344 0.619531 1.04598 0.634766 1.01687C0.716016 0.801462 0.739713 0.593819 0.578906 0.407523C0.545052 0.403642 0.512891 0.401701 0.479037 0.39782Z" fill="#E1067E"/>
</svg>
