<svg width="1" height="2" viewBox="0 0 1 2" fill="none" xmlns="http://www.w3.org/2000/svg">
<path d="M0.646563 0.564548C0.653334 0.415123 0.661797 0.265698 0.668568 0.116273C0.636407 0.0929859 0.66349 -0.0777854 0.587318 0.0425307C0.521303 0.147323 0.604246 0.335559 0.473907 0.43647C0.443438 0.391836 0.51961 0.199718 0.360495 0.323916C0.336797 0.467519 0.311406 0.613063 0.287709 0.756666C0.314792 0.814884 0.316484 0.882804 0.318177 0.948784C0.289401 0.917735 0.248776 0.892507 0.192917 0.875042L0.0795056 0.873102L0.0879691 0.882805C-0.0525258 0.958488 -0.00174432 1.03805 0.0811983 1.1215C0.0930474 1.25928 0.103203 1.399 0.115052 1.53872C0.192917 1.58336 0.184454 1.67068 0.192917 1.75025C0.221693 1.68039 0.250469 1.61246 0.279245 1.5426C0.314792 1.49797 0.343568 1.44557 0.365573 1.39124C0.370652 1.33302 0.380808 1.2748 0.385886 1.21853C0.392656 1.22823 0.40112 1.23599 0.409584 1.24375C0.50099 1.18165 0.548386 1.10597 0.572084 1.02253C0.572084 1.04387 0.572084 1.06716 0.572084 1.09045C0.768438 0.948785 0.616094 0.739201 0.648256 0.564548H0.646563Z" fill="#E1067E"/>
</svg>
