<svg width="1" height="5" viewBox="0 0 1 5" fill="none" xmlns="http://www.w3.org/2000/svg">
<path d="M0.0523871 3.63461C-0.0356342 3.88494 -0.0136283 4.11781 0.125174 4.3371V4.33128C0.302908 4.23425 0.170877 4.03437 0.230121 3.89853C0.230121 3.82866 0.230121 3.75686 0.228429 3.687C0.247048 3.63072 0.236893 3.58609 0.199653 3.55698C0.211502 3.19603 0.223351 2.83314 0.236892 2.47219C0.270746 2.3674 0.307986 2.26261 0.247049 2.152C0.238585 2.1423 0.230122 2.13647 0.221658 2.13065C0.304601 2.05109 0.255513 1.91331 0.31645 1.82598C0.389236 1.77164 0.404471 1.69014 0.3977 1.59699C0.348611 1.44757 0.285981 1.30202 0.321528 1.13319C0.338455 0.851805 0.46033 0.585945 0.440017 0.296797C0.44171 0.188125 0.458637 0.0619864 0.350304 0.0154123C0.240277 -0.0350432 0.174262 0.0445214 0.142101 0.164837L0.138715 1.49026C0.138715 1.6979 0.137022 1.90554 0.13533 2.11319C0.126866 2.11513 0.120096 2.11513 0.111632 2.11901C0.0557726 2.18305 0.0337673 2.26261 0.0269965 2.34994C0.0269965 2.4392 0.0473092 2.51877 0.104861 2.58475L0.137023 3.54922C0.0997827 3.56474 0.0726992 3.59191 0.0523871 3.63461Z" fill="#E1067E"/>
</svg>
