<svg width="4" height="3" viewBox="0 0 4 3" fill="none" xmlns="http://www.w3.org/2000/svg">
<path d="M3.5293 0.0761614C3.09766 0.361427 2.64401 0.596239 2.24792 0.953307C1.95677 1.21529 1.62669 1.42099 1.30846 1.64221C1.17474 1.73342 1.02409 1.79358 0.888672 1.88285C0.594141 2.07497 0.302994 2.27485 0 2.48055C0.0457028 2.54071 0.0812503 2.58534 0.126953 2.64356C0.475651 2.3971 0.814193 2.14871 1.15781 1.91584C1.93477 1.38994 2.7168 0.871802 3.49375 0.345903C3.60039 0.274101 3.69518 0.175131 3.81875 0.0703397C3.75273 0.0160032 3.7375 -0.00340237 3.72904 0.000478559C3.66133 0.0218251 3.58854 0.0373498 3.5293 0.078102V0.0761614Z" fill="#392726"/>
</svg>
