<svg width="1" height="3" viewBox="0 0 1 3" fill="none" xmlns="http://www.w3.org/2000/svg">
<path d="M0 2.11988C0.0372398 2.15675 0.0727866 2.19362 0.108333 2.23244C0.230208 2.28289 0.258985 2.18004 0.297917 2.09077C0.330078 2.13152 0.363932 2.17422 0.396094 2.21497C0.458724 2.16063 0.4875 2.08689 0.504427 2.00345C0.69401 1.99762 0.685547 1.83267 0.68724 1.67549C0.680469 1.60563 0.673698 1.53577 0.665234 1.4659C0.646615 1.46202 0.629688 1.46008 0.611068 1.4562C0.460416 1.5804 0.558594 1.78028 0.514583 1.93747C0.523047 1.7337 0.551823 1.52218 0.392708 1.36499C0.404557 1.35917 0.418099 1.35141 0.429948 1.34171C0.516276 1.1981 0.523047 1.04092 0.479037 0.881787C0.451953 0.780876 0.44349 0.734302 0.543359 0.823569C0.719401 0.72654 0.71263 0.524719 0.754948 0.352007C0.765104 0.208403 0.727865 0.0880872 0.617839 0.00658234C0.553515 -0.0108828 0.473958 0.00464175 0.46888 0.0745029C0.453646 0.284086 0.38086 0.0939087 0.338542 0.109433C0.184506 0.190938 0.198047 0.379175 0.137109 0.516957C0.130339 0.540244 0.12526 0.56159 0.11849 0.584877C0.115104 0.615927 0.110026 0.646976 0.104948 0.678025C0.0795572 0.718777 0.0744793 0.761471 0.0897136 0.808045C0.172656 0.885668 0.186198 0.996282 0.203125 1.10689C0.1625 1.09331 0.123568 1.09913 0.0863281 1.13018C0.0626304 1.16705 0.0406249 1.20198 0.0186198 1.23885L0.0389323 1.67743C0.0270832 1.75117 0.0169272 1.82297 0.00507813 1.89477C0.00338553 1.97046 0.00169271 2.04614 0.00169271 2.12182L0 2.11988Z" fill="#E1067E"/>
</svg>
