<svg width="1" height="1" viewBox="0 0 1 1" fill="none" xmlns="http://www.w3.org/2000/svg">
<path d="M0.104948 0.359009C0.0947915 0.380355 0.0863282 0.399761 0.0744792 0.419167C0.0880208 0.432751 0.101562 0.448276 0.116797 0.4638C0.14388 0.432751 0.170964 0.401702 0.198047 0.372593C0.203125 0.329899 0.208203 0.287207 0.214974 0.246454C0.201432 0.151365 0.189583 0.0562769 0.108333 0C0.0930991 0.0194056 0.0795572 0.0368709 0.0643229 0.056277C0.0643229 0.0582175 0.0626305 0.0620989 0.0609375 0.0640394C0 0.0989697 0.0253907 0.194059 0 0.252276C0.0118491 0.283326 0.0186199 0.314375 0.0203125 0.347365C0.0457032 0.391999 0.0744791 0.39782 0.106641 0.360949L0.104948 0.359009Z" fill="#E1067E"/>
</svg>
