<svg width="1" height="3" viewBox="0 0 1 3" fill="none" xmlns="http://www.w3.org/2000/svg">
<path d="M0.466314 1.7116C0.405377 1.70772 0.346132 1.70578 0.285194 1.70384L0.308892 1.59322C0.33259 1.55635 0.356288 1.51948 0.379986 1.48261C0.374908 1.30213 0.371523 1.12166 0.366444 0.941185C0.373215 0.900432 0.378293 0.861621 0.385064 0.822809C0.388449 0.601582 0.391835 0.380356 0.39522 0.159129C0.407069 0.0485153 0.347825 0.0135842 0.266575 0C0.215794 0.00582188 0.173476 0.0310495 0.141314 0.0795645C0.066835 0.36289 -0.07366 0.650097 0.132851 0.929541C0.0871474 0.941185 0.0702204 0.981938 0.0769912 1.04792C0.0905329 1.06344 0.102382 1.0712 0.115924 1.07509C-0.026264 1.23227 -0.0364207 1.41275 0.0786839 1.61651C0.0786839 1.61651 0.0803768 1.61651 0.0820694 1.61845C0.0160536 1.69219 0.0143609 1.7834 0.0397516 1.88237C0.0634493 1.92894 0.0973036 1.96193 0.143007 1.9794C0.17009 1.97358 0.203944 1.97358 0.23272 1.96581C0.247955 2.01821 0.256418 2.07255 0.263189 2.12882C0.237798 2.05702 0.176861 2.03568 0.0939183 2.03956C0.0973035 2.14241 0.100689 2.24526 0.104075 2.34811C0.183632 2.35393 0.261496 2.35199 0.271653 2.23362C0.276731 2.29765 0.283502 2.36169 0.298736 2.42379C0.23272 2.39468 0.165012 2.41603 0.095611 2.48007C0.095611 2.58874 0.0939183 2.69548 0.0939183 2.80221C0.192095 2.7207 0.288579 2.6392 0.385064 2.55575L0.378293 2.59068C0.55772 2.319 0.444309 2.00851 0.464621 1.71548L0.466314 1.7116Z" fill="#E1067E"/>
</svg>
