<svg width="1" height="2" viewBox="0 0 1 2" fill="none" xmlns="http://www.w3.org/2000/svg">
<path d="M0.509505 0.535602C0.50612 0.446335 0.507812 0.357068 0.499349 0.269742C0.494271 0.227048 0.511198 0.139722 0.435026 0.168831C0.407943 0.180474 0.401172 0.256157 0.384245 0.300791C0.311458 0.19988 0.235287 0.120317 0.111719 0.203762C0.106641 0.122257 0.110026 0.0349303 0.0236979 0C0.015234 0.0679206 0.00846343 0.135841 0 0.203762L0.0203125 1.07897C0.20651 0.844155 0.0710935 0.560829 0.108333 0.302731C0.367318 0.492909 0.0270834 0.947006 0.374089 1.09643C0.391016 1.12748 0.392708 1.16047 0.380859 1.19152C0.350391 1.23421 0.358854 1.2672 0.401172 1.29243C0.602604 1.0712 0.446875 0.782056 0.507812 0.535602H0.509505Z" fill="#E1067E"/>
</svg>
