<svg width="2" height="2" viewBox="0 0 2 2" fill="none" xmlns="http://www.w3.org/2000/svg">
<path d="M0.282682 0.98092C0.404557 1.00227 0.548438 0.905237 0.636458 1.10706C0.578906 1.17692 0.53151 1.26619 0.497656 1.38456C0.76849 1.26231 0.966537 1.11094 1.10365 0.864485C0.93776 0.907178 0.775261 0.957633 0.653386 1.08959C0.739714 0.88195 0.8125 0.709238 0.898828 0.501595C1.01732 0.507417 1.17305 0.513239 1.34063 0.521001C1.41172 0.35217 1.46589 0.22021 1.52174 0.0882504C1.43542 -0.0204224 1.35586 -0.0301251 1.25938 0.0669039C1.21029 0.115418 1.14766 0.167814 1.08672 0.173636C0.89375 0.191101 0.78711 0.332764 0.68724 0.497714C0.633073 0.586981 0.572136 0.676248 0.53151 0.740287C0.451954 0.717 0.384245 0.670426 0.348698 0.693713C0.235287 0.767455 0.0710935 0.769396 0 1.01003C0.118489 0.996445 0.203125 0.969276 0.282682 0.98092Z" fill="#392726"/>
</svg>
