<svg width="39" height="38" viewBox="0 0 39 38" fill="none" xmlns="http://www.w3.org/2000/svg">
<path d="M38.0741 2.3287L36.1512 2.20451C35.8211 2.20451 35.5553 2.3287 35.3539 2.58098C35.1525 2.83326 35.034 3.14763 34.9967 3.52605L31.2068 33.9933V34.3717C31.2068 35.0858 31.4996 35.4215 32.0853 35.3788L34.0082 35.2527L33.734 37.5814H19.5051L19.7793 35.2527L22.4707 35.3788C23.1309 35.3788 23.5151 34.917 23.6251 33.9933L25.438 19.5145H12.7461L10.9891 33.9933V34.3076C10.9891 35.0218 11.2819 35.3769 11.8676 35.3769L14.559 35.2527L14.2848 37.5814H0L0.274219 35.2527L2.19714 35.3769H2.30716C2.93008 35.3769 3.2957 34.917 3.40573 33.9913L7.14323 3.52605L7.1974 3.14763C7.1974 2.85654 7.12292 2.61397 6.97734 2.42379C6.83008 2.23556 6.61003 2.16181 6.31888 2.20451L4.3401 2.3287L4.61602 0H18.9008L18.6249 2.3287L15.9876 2.20451C15.6203 2.20451 15.3292 2.3287 15.1091 2.58098C14.8891 2.83326 14.7604 3.14763 14.7249 3.52605L13.022 17.312H25.7122L27.4168 3.52605V3.27377C27.4168 2.56157 27.1223 2.20451 26.5366 2.20451L23.8452 2.3287L24.1194 0H38.3483L38.0741 2.3287Z" fill="#F4D0E3"/>
</svg>
