<svg width="1" height="3" viewBox="0 0 1 3" fill="none" xmlns="http://www.w3.org/2000/svg">
<path d="M0.11565 1.57828C0.117343 1.6462 0.117343 1.71606 0.120728 1.78398C0.107186 1.89265 0.0919518 1.99939 0.0784101 2.10806C0.056405 2.53887 0.334009 2.25554 0.464348 2.32152C0.454191 2.24778 0.586223 2.19345 0.486353 2.10806C0.486353 2.03432 0.488046 1.95863 0.488046 1.88295C0.476196 1.66755 0.464348 1.45408 0.450806 1.24062C0.455884 1.19792 0.459269 1.15523 0.462655 1.11254C0.459269 1.00775 0.455884 0.902956 0.452499 0.798164C0.488046 0.607986 0.405103 0.3887 0.557447 0.227632C0.526978 0.15777 0.496509 0.0879093 0.46604 0.0180482C0.356014 -0.0343478 0.286614 0.0355134 0.223983 0.12284C0.15289 0.268384 0.108879 0.423631 0.0970299 0.592462C0.100415 0.675907 0.120728 0.75159 0.169816 0.813688C0.161353 0.823392 0.156275 0.833095 0.154582 0.842797C0.149504 0.842797 0.146119 0.842797 0.142733 0.842797C0.0936446 0.856382 0.0564049 0.887431 0.0293216 0.934005C-0.0299233 1.07567 0.00900919 1.20375 0.0716393 1.32988C0.0868736 1.41333 0.100415 1.49483 0.11565 1.57828Z" fill="#E1067E"/>
</svg>
