<svg width="1" height="3" viewBox="0 0 1 3" fill="none" xmlns="http://www.w3.org/2000/svg">
<path d="M0.643905 0.783997C0.615129 0.751007 0.581275 0.743245 0.545728 0.756829C0.430624 0.613226 0.432317 0.473503 0.567733 0.333781L0.552499 0.130019C0.435702 0.0737419 0.300285 0.0892667 0.190259 0C0.0870037 0.073742 0.041301 0.180474 0.0497644 0.318256C0.242733 0.494849 0.151327 0.653978 0.0260665 0.811165C-0.00270986 0.912076 0.000676208 1.01105 0.046379 1.10613C0.0531503 1.11584 0.0616135 1.1236 0.0700769 1.13136C-0.0247147 1.25556 -0.0162515 1.39334 0.0531498 1.53889C0.109009 1.59128 0.166561 1.60875 0.222421 1.58352C0.220728 1.77758 0.246119 1.96775 0.254582 2.16181C0.230884 2.13853 0.207186 2.11718 0.183488 2.09583L0.186874 2.6392C0.286744 2.56546 0.279973 2.45872 0.279973 2.35199C0.300285 2.45484 0.330754 2.54605 0.469556 2.53441C0.418775 2.16764 0.560962 1.77952 0.379843 1.42633C0.37815 1.39916 0.37815 1.37005 0.374764 1.34289C0.486483 1.26526 0.474634 1.13718 0.483098 1.01493C0.674374 1.18182 0.450936 1.50201 0.664218 1.66114C0.657447 1.36811 0.652369 1.07508 0.645598 0.783997H0.643905Z" fill="#E1067E"/>
</svg>
