<svg width="1" height="2" viewBox="0 0 1 2" fill="none" xmlns="http://www.w3.org/2000/svg">
<path d="M0.528125 1.11593C0.58737 0.964568 0.590755 0.815143 0.526432 0.665718C0.489192 0.599738 0.436719 0.549283 0.382552 0.504649C0.360547 0.487184 0.338541 0.471659 0.314844 0.458075C0.318229 0.380451 0.321614 0.302828 0.325 0.227145C0.377474 0.1437 0.377474 0.0466707 0.299609 0.0097994C0.220052 -0.0290123 0.165886 0.0544333 0.133724 0.137878C0.155729 0.229086 0.179427 0.322234 0.203125 0.415382C0.0490884 0.458075 0.00338563 0.588094 0 0.753044C0.0152343 0.797678 0.0355468 0.84037 0.0609375 0.879182C0.0964843 0.914112 0.115104 0.958746 0.130339 1.00532C0.125261 1.11399 0.120182 1.22267 0.115104 1.33134C0.150651 1.36821 0.187891 1.36821 0.223438 1.33328C0.235287 1.35074 0.248828 1.36627 0.264062 1.37791C0.353776 1.41867 0.436719 1.41867 0.50612 1.3294C0.512891 1.2576 0.521354 1.18774 0.529818 1.11593H0.528125Z" fill="#E1067E"/>
</svg>
