<svg width="1" height="3" viewBox="0 0 1 3" fill="none" xmlns="http://www.w3.org/2000/svg">
<path d="M0.311458 1.70414C0.321615 1.66921 0.330078 1.63428 0.336849 1.59935C0.353776 1.63816 0.380859 1.67503 0.423177 1.70802C0.45026 1.74489 0.475651 1.77982 0.501042 1.81863C0.531511 1.92148 0.585677 1.98164 0.688932 1.94477L0.697396 1.90984C0.895443 1.77206 0.714323 1.54307 0.79388 1.37812C0.797265 1.1957 0.798958 1.01135 0.802344 0.826992C0.820964 0.658162 1.07995 0.452459 0.743099 0.341846C0.68724 0.35737 0.646615 0.394242 0.621224 0.450518C0.577214 0.590241 0.563672 0.729963 0.558594 0.869685C0.541666 0.856101 0.523047 0.842517 0.499349 0.828933C0.436719 0.825051 0.374089 0.82117 0.311458 0.815349C0.311458 0.778477 0.30638 0.745488 0.28776 0.712498C0.292839 0.533964 0.294532 0.35737 0.299609 0.180777C0.223438 0.361251 0.201432 -0.290786 0.108333 0.165252C0.0863282 0.171074 0.0626304 0.173015 0.0389323 0.173015C0.0423175 0.359311 0.0457032 0.547548 0.0473958 0.731904C0.040625 0.834755 0.0338543 0.935665 0.028776 1.03658C0.137109 1.09673 0.225131 1.05986 0.304688 0.980299C0.304688 1.00359 0.304688 1.02687 0.304688 1.05016C0.304688 1.04822 0.302995 1.04628 0.302995 1.04434L0.304688 1.0521C0.18112 1.11614 0.228516 1.27915 0.191276 1.39364C0.194662 1.28303 0.196354 1.17436 0.0372396 1.18212C0.0253905 1.2481 0.0118491 1.31408 0 1.38006C0.08125 1.58576 -0.08125 1.84774 0.115104 2.02627C0.115104 1.88267 0.115104 1.73907 0.115104 1.59741C0.209896 1.56442 0.172656 1.85162 0.314844 1.70414H0.311458Z" fill="#E1067E"/>
</svg>
