<svg width="1" height="1" viewBox="0 0 1 1" fill="none" xmlns="http://www.w3.org/2000/svg">
<path d="M0.311458 0.890729C0.401172 0.92372 0.441797 0.894611 0.418099 0.780116C0.446875 0.510374 0.46211 0.242574 0.318229 0C0.286068 0.00970331 0.253906 0.0174653 0.221745 0.0252276C0.177735 0.16495 0.399479 0.312435 0.214974 0.448276C0.248828 0.250336 0.274219 0.0601582 0.0236979 0.0291088C0.0203123 0.0620986 0.0118491 0.0931482 0 0.124198C0.0524741 0.265861 -0.0406249 0.459919 0.116797 0.564711C0.148958 0.527839 0.18112 0.492909 0.213281 0.456038C0.213281 0.454097 0.213281 0.452157 0.213281 0.450216C0.213281 0.56083 0.213282 0.669502 0.211589 0.780116C0.245443 0.815047 0.277604 0.853858 0.309766 0.888789L0.311458 0.890729Z" fill="#E1067E"/>
</svg>
