<svg width="1" height="3" viewBox="0 0 1 3" fill="none" xmlns="http://www.w3.org/2000/svg">
<path d="M0.550141 0.409063C0.550141 0.381895 0.550141 0.356667 0.550141 0.329499C0.511208 0.154846 0.529828 -0.0993706 0.25561 0.0403516C0.19975 0.098569 0.177745 0.176193 0.17436 0.259638C0.17436 0.290687 0.179438 0.319796 0.18113 0.350845C0.0372502 0.39742 0.101573 0.537142 0.135427 0.66328C0.133735 0.771953 0.132042 0.878685 0.130349 0.985417C0.133735 1.09409 0.13712 1.20082 0.140505 1.30755C0.108344 1.35219 0.0761824 1.39876 0.0423283 1.4434C-0.0186092 1.65492 -0.00676028 1.8645 0.0338647 2.07603C0.0406356 2.15559 0.0474063 2.23321 0.0524845 2.31278C0.260687 2.10319 0.0457136 1.74613 0.260688 1.54042C0.275922 1.5152 0.281 1.48997 0.281 1.46474C0.291157 1.48997 0.303005 1.5152 0.321625 1.53848C0.413032 1.62193 0.162511 1.84898 0.42488 1.86062C0.435037 1.50743 0.4435 1.15425 0.451964 0.801062C0.538292 0.758369 0.504438 1.03975 0.631391 0.890329C0.658474 0.746725 0.685557 0.603122 0.712641 0.459518C0.644932 0.387717 0.594152 0.381895 0.551834 0.409063H0.550141Z" fill="#E1067E"/>
</svg>
