<svg width="1" height="2" viewBox="0 0 1 2" fill="none" xmlns="http://www.w3.org/2000/svg">
<path d="M0.28565 0.120316C0.294113 0.120316 0.300884 0.108673 0.309348 0.0873264C0.317812 0.0659803 0.309347 0.0446336 0.283957 0.023287C0.253488 0.0155247 0.22302 0.00776235 0.190858 0C0.111301 0.0776235 0.0859104 0.178534 0.0757539 0.287207C0.0588271 0.265861 0.0402073 0.246455 0.02328 0.225108C0.0503633 0.419167 -0.0765894 0.638453 0.0791393 0.811165C0.106223 1.07508 0.151926 1.339 0.092681 1.60487C0.10453 1.76981 0.18578 1.88431 0.294113 1.98134C0.522629 1.89013 0.451536 1.6592 0.470155 1.47096C0.214556 1.05568 0.312733 0.576354 0.287342 0.120316H0.28565Z" fill="#EFEEE8"/>
</svg>
