<svg width="1" height="2" viewBox="0 0 1 2" fill="none" xmlns="http://www.w3.org/2000/svg">
<path d="M0.0423177 1.40887C0.152344 1.33512 0.133724 1.20899 0.138802 1.09255C0.179427 1.08867 0.221745 1.08479 0.26237 1.08285C0.380859 0.952828 0.453646 0.818928 0.314844 0.650096C0.277604 0.650096 0.242057 0.650096 0.203125 0.650096C0.0660157 0.459919 0.451953 0.0970296 0.0389323 0C0.0389323 0.215405 0.0406251 0.43081 0.0423177 0.646215C0.0423177 0.686967 0.0423177 0.72772 0.0423177 0.766532C0.028776 0.912076 0.0135417 1.05568 0 1.20122C0.0152343 1.27108 0.0287762 1.34095 0.0440104 1.41081L0.0423177 1.40887Z" fill="#E1067E"/>
</svg>
