<svg width="1" height="2" viewBox="0 0 1 2" fill="none" xmlns="http://www.w3.org/2000/svg">
<path d="M0.213508 0.906254C0.201659 1.01105 0.188117 1.11778 0.176268 1.22451C0.201659 1.30019 0.186425 1.4011 0.277831 1.43603C0.274445 1.26138 0.27106 1.08867 0.267674 0.914016C0.287987 0.910135 0.306607 0.898492 0.323534 0.879086C0.35231 0.830571 0.364159 0.776235 0.367544 0.723839C0.425097 0.914016 0.345539 1.12748 0.387857 1.32154C0.521581 1.04598 0.53343 0.770413 0.409862 0.49679C0.418326 0.490968 0.425096 0.487087 0.431867 0.481265C0.560513 0.343484 0.570669 0.186296 0.484341 0.0174652C0.45218 0.0116438 0.420018 0.00582188 0.387857 0C0.294758 0.0446336 0.210122 0.205702 0.0967109 0.0310494C-0.0590183 0.147485 0.0188462 0.316316 0.0239244 0.469622C0.0171532 0.492909 0.0137683 0.518137 0.0154609 0.543364C0.218586 0.564711 0.166112 0.770413 0.2152 0.906254H0.213508Z" fill="#E1067E"/>
</svg>
