<svg width="1" height="1" viewBox="0 0 1 1" fill="none" xmlns="http://www.w3.org/2000/svg">
<path d="M0.0786952 0.0090963C0.0617683 0.0129777 0.0431484 0.0149181 0.0245285 0.0149181C0.0296067 0.274957 -0.0685704 0.548579 0.0956222 0.789212C0.161638 0.754281 0.227653 0.715469 0.295362 0.678599C0.214112 0.600975 0.205648 0.492303 0.203956 0.381689C0.217497 0.434085 0.241195 0.482599 0.290284 0.525292C0.297055 0.4205 0.303825 0.31959 0.310596 0.214798C0.303825 0.146878 0.297055 0.0770169 0.290284 0.0090963C0.261508 -0.000606505 0.232732 -0.00254684 0.203956 0.00327454C0.212419 0.0750766 0.202263 0.150759 0.195492 0.224501C0.185336 0.141056 0.15656 0.0634327 0.0786952 0.0090963Z" fill="#E1067E"/>
</svg>
