<svg width="1" height="2" viewBox="0 0 1 2" fill="none" xmlns="http://www.w3.org/2000/svg">
<path d="M0.0353464 1.72839C0.12506 1.78272 0.211388 1.78272 0.294331 1.71674C0.321414 1.66823 0.318028 1.62748 0.28756 1.5906C0.312951 1.56344 0.321414 1.52657 0.30618 1.48387C0.301102 1.20831 0.294331 0.932746 0.28756 0.657183C0.275711 0.432074 0.0421176 0.292352 0.103055 0.0381353C0.0810496 -0.00649828 0.0539663 -0.0123202 0.0218047 0.0226106C0.0675079 0.371916 -0.0729873 0.740628 0.104747 1.07441C0.10644 1.10352 0.104747 1.13069 0.0979766 1.15785C-0.0222058 1.27817 0.0285755 1.44312 0.0150339 1.5906C-0.0103569 1.643 -0.00358559 1.68957 0.0353464 1.73033V1.72839Z" fill="#EFEEE8"/>
</svg>
