<svg width="2" height="2" viewBox="0 0 2 2" fill="none" xmlns="http://www.w3.org/2000/svg">
<path d="M0.851432 0.966412C0.775261 0.983877 0.738021 0.989699 0.697396 0.999402C0.700781 0.919838 0.699089 0.900432 0.663542 0.857739C0.682162 0.840274 0.700781 0.824749 0.717708 0.809225C0.721094 0.813106 0.722787 0.815046 0.724479 0.818928C0.738021 0.844155 0.797265 0.865502 0.814193 0.851917C0.841276 0.830571 0.861589 0.780116 0.861589 0.741304C0.859896 0.692789 0.834505 0.644274 0.805729 0.553067C0.949609 0.467681 1.0918 0.386177 1.24245 0.29691C1.22383 0.314375 1.20521 0.333781 1.1849 0.353187C1.25599 0.359008 1.31693 0.343484 1.37109 0.318256C1.36771 0.341543 1.3694 0.380355 1.36771 0.403642C1.44219 0.393939 1.5099 0.386177 1.58776 0.376474C1.58438 0.401701 1.58268 0.424988 1.58268 0.448275C1.58268 0.457978 1.64193 0.479325 1.64701 0.471563C1.6707 0.438573 1.68932 0.397821 1.69948 0.359008C1.70456 0.339603 1.69948 0.318256 1.69102 0.283326C1.6944 0.240632 1.69948 0.192118 1.70456 0.130019C1.625 0.170771 1.5556 0.203761 1.49128 0.236752C1.52682 0.207643 1.55898 0.172712 1.59115 0.139722C1.63685 0.0912077 1.61992 0.025228 1.54544 0C1.46758 0.0776235 1.38971 0.153306 1.31185 0.228989C1.23906 0.178534 1.1849 0.139722 1.13242 0.102851C1.10365 0.128079 1.07995 0.141662 1.06641 0.16495C0.910677 0.405582 0.724479 0.599642 0.473958 0.704433C0.435026 0.721898 0.411328 0.782056 0.380859 0.822809C0.38763 0.836393 0.394401 0.849977 0.401172 0.863561C0.413021 0.86162 0.423177 0.857739 0.435026 0.853858C0.341927 0.968353 0.250521 1.05568 0.106641 1.07703C0.0880212 1.07897 0.0778647 1.15271 0.0660156 1.21481C0.0389323 1.24392 0.0152343 1.28079 0 1.33124C0.0236977 1.31378 0.0490883 1.29437 0.0727865 1.27885C0.0914059 1.29437 0.111719 1.31184 0.130339 1.3293C0.223438 1.2478 0.316536 1.16435 0.411328 1.08285C0.401172 1.12166 0.391016 1.16047 0.382552 1.19928C0.421485 1.21093 0.445182 1.21869 0.46888 1.22451C0.473958 1.1857 0.485807 1.14495 0.480729 1.10807C0.479037 1.09449 0.435026 1.09061 0.411328 1.08091C0.419792 1.07508 0.428255 1.06732 0.435026 1.05956C0.599219 1.1954 0.646615 1.18376 0.851432 0.968353V0.966412Z" fill="#392726"/>
</svg>
