<svg width="27" height="30" viewBox="0 0 27 30" fill="none" xmlns="http://www.w3.org/2000/svg">
<path fill-rule="evenodd" clip-rule="evenodd" d="M17.2842 27.3759L17.3486 26.6889C18.1289 26.7995 18.1746 26.7122 18.4641 27.5738C17.743 28.0201 16.1467 28.0201 14.6419 27.958L14.6436 27.9367L17.2842 27.3759ZM17.6668 23.2929L18.0527 19.1866C18.0883 19.1536 18.1272 19.1167 18.1712 19.074C19.219 20.8652 18.8161 23.4074 17.9241 23.4074C17.8225 23.4074 17.7379 23.3647 17.6668 23.2929ZM18.5589 13.7879L18.6113 13.2309C18.6909 13.3784 18.7738 13.5375 18.8635 13.7258L18.5589 13.7879ZM18.9837 9.26824L19.0328 8.75204C19.0514 8.5444 19.0684 8.32512 19.0819 8.09807C19.4458 8.47066 19.6151 8.99462 19.2122 9.22943C19.2021 9.23719 19.1141 9.26242 18.9837 9.26824ZM10.3255 9.27406C10.2426 9.40408 10.1613 9.53604 10.0801 9.66994C10.0885 9.5438 10.1021 9.41378 10.119 9.27018C10.1918 9.27018 10.2612 9.27212 10.3255 9.27406ZM7.78138 20.1491L7.70859 20.9079C6.85547 20.7992 6.90794 20.6478 6.49661 19.7765C7.08568 19.4 6.2918 19.4893 7.1737 19.4893C7.46992 19.4893 7.65951 19.7726 7.78138 20.1491ZM7.62904 21.7656L7.51901 22.93C7.45638 22.9824 7.38021 23.0425 7.29388 23.1182C7.05859 22.5904 7.09922 22.7553 7.00612 21.9616C5.69596 22.7417 5.82292 21.2261 5.79414 20.807H6.48646C6.71159 21.6628 6.60326 21.2746 7.00612 21.9616L7.62904 21.7656ZM2.28685 29.4484H0.743099L0.678776 28.1521C2.30547 28.1521 2.40195 28.6955 2.28685 29.4484ZM0.661849 13.5647L0.754948 12.5634C0.778646 12.4217 0.795573 12.2994 0.792188 12.1636L0.903906 10.9837C2.44089 9.82519 1.47943 9.63889 2.19714 7.4926C3.11289 7.75652 3.24154 8.09613 3.99648 10.3259C4.21654 10.9779 4.17253 10.4928 4.24193 11.5348L2.8556 12.6216C2.28346 13.3978 2.4832 13.3027 2.5526 14.7116C1.3237 14.5854 1.45573 14.2109 0.661849 13.5647ZM1.49297 4.69816L1.63177 3.20973H0C0.538281 2.87207 0.214974 2.97104 1.10026 2.94775C0.744792 1.59516 0.692318 2.54217 0.358854 1.35065L2.27839 0.95865C2.54076 2.06672 2.13958 2.29765 2.08372 2.45096C1.47096 4.16838 2.13789 4.04612 1.49297 4.69816ZM6.35612 0.122257L6.95872 0L6.67943 0.302731C6.52539 0.269742 6.42383 0.211524 6.35612 0.122257ZM8.98828 7.27332L8.91211 8.09807L8.8681 7.23257C8.91042 7.24615 8.94935 7.25973 8.98828 7.27332ZM8.92057 8.27854C9.078 7.9991 9.2405 7.72159 9.40469 7.44797C10.0462 7.78175 9.4707 8.01462 8.92565 8.38721L8.92057 8.27854ZM26.6686 9.81937C26.6635 9.87176 26.6585 9.92804 26.6534 9.98432L26.6449 10.0872C26.3572 10.7373 26.782 10.3841 25.8358 10.483C25.8578 9.1421 25.5633 9.9785 26.2827 9.27018L26.6686 9.81743V9.81937ZM20.822 29.4484H19.8487C20.0671 29.2737 20.475 29.3164 20.8169 29.3087L20.822 29.4484ZM23.5354 5.10374C23.2714 4.09658 23.2714 4.04612 22.3251 3.94909C22.5977 5.10374 22.4402 5.07269 23.5354 5.10374ZM6.0362 7.72547C6.14622 6.95118 6.23932 7.18017 6.20885 6.56889C6.18685 6.12255 5.46914 5.41036 5.14753 6.13419C4.71081 7.11807 5.50638 7.56829 6.0362 7.72547ZM24.2023 16.887C24.7305 16.887 24.4664 16.79 25.1113 16.5978L25.025 14.8649C24.3225 14.8843 24.1905 14.9969 23.6539 15.154C23.6911 15.8798 23.6285 16.887 24.2023 16.887ZM20.9439 3.5047C21.8664 3.5047 22.2303 3.67741 22.7635 2.9264C22.4995 2.21809 22.3962 2.38692 21.4077 1.64368C18.5402 -0.514255 20.5495 2.82743 20.9439 3.5047ZM22.2016 29.3087L22.144 28.1521H21.4517L21.5092 29.3087H22.2016ZM1.50482 21.5114C2.38672 21.5114 1.59284 21.5987 2.1819 21.2223C1.7401 20.4654 2.03633 20.6265 1.21706 20.3548C1.09349 21.1194 1.24583 20.5935 1.02917 21.2223C1.03255 21.2261 1.47435 21.5114 1.50482 21.5114Z" fill="#B05F5D"/>
</svg>
