<svg width="1" height="2" viewBox="0 0 1 2" fill="none" xmlns="http://www.w3.org/2000/svg">
<path d="M0.203125 1.08673H0.164193C0.192969 0.941184 0.289453 0.797581 0.182812 0.644275C0.213281 0.570533 0.245442 0.49679 0.275911 0.424988C0.280989 0.388117 0.287761 0.351246 0.294531 0.314375C0.1625 0.256157 0.198047 0.112554 0.176042 0C0 0.186296 0.148958 0.440513 0.0710938 0.644275C0.0473956 0.644275 0.0253908 0.648156 0.00169271 0.655918C0.0524742 0.774294 0.0930992 0.896551 0.0897135 1.02851C0.0863283 1.02851 0.0829426 1.02463 0.08125 1.02463C0.0440106 1.03045 0.0169273 1.05374 0 1.09255C0.0270833 1.19928 0.0541667 1.30602 0.08125 1.41275C0.010156 1.46126 0.0016926 1.53889 0.00677083 1.62233C0.0490884 1.70966 0.0727866 1.81057 0.148958 1.86878C0.192969 1.89207 0.231901 1.88431 0.267448 1.84744C0.272526 1.70189 0.277604 1.56023 0.282682 1.41469C0.512891 1.22451 0.196354 1.2051 0.204818 1.08479L0.203125 1.08673Z" fill="#E1067E"/>
</svg>
