<svg width="1" height="2" viewBox="0 0 1 2" fill="none" xmlns="http://www.w3.org/2000/svg">
<path d="M0.494106 0.873264C0.612595 0.698611 0.492413 0.523958 0.482257 0.349306C0.450095 0.347365 0.419626 0.345424 0.389158 0.343484C0.380694 0.219286 0.414548 0.0795639 0.287595 0C0.214809 0.0523955 0.194496 0.126138 0.204652 0.213465C0.0523089 0.357068 0.0793918 0.578295 0.0218399 0.76071C-0.00185824 0.875204 -0.00862875 0.987759 0.0133764 1.10419C0.026918 1.16047 0.050616 1.20899 0.0861628 1.25168C0.0946262 1.25556 0.101397 1.25944 0.109861 1.26138C0.109861 1.28661 0.108168 1.31184 0.106475 1.33512L0.631215 1.33124C0.639678 1.29437 0.648142 1.25556 0.656606 1.21869C0.665069 1.18764 0.666762 1.15659 0.659991 1.12748C0.600746 1.04598 0.573663 0.937303 0.495798 0.875205L0.494106 0.873264Z" fill="#E1067E"/>
</svg>
