<svg width="1" height="3" viewBox="0 0 1 3" fill="none" xmlns="http://www.w3.org/2000/svg">
<path d="M0.250521 1.86758C0.252214 1.93162 0.248828 1.99372 0.279297 2.05C0.331771 2.09269 0.38763 2.10239 0.446875 2.08299C0.377474 2.20524 0.385937 2.33138 0.462109 2.45752L0.482422 2.85728C0.66862 2.49827 0.541667 2.11598 0.55013 1.74338C0.541667 1.76861 0.536588 1.79578 0.528125 1.82101C0.53151 1.79384 0.536589 1.76667 0.55013 1.74338C0.528125 1.49499 0.507812 1.24659 0.4875 0.996259C0.585677 0.916695 0.551823 0.788616 0.578906 0.681884C0.55013 0.575152 0.523047 0.46842 0.492578 0.361687C0.536589 0.254955 0.534896 0.148223 0.494271 0.0395499C0.428256 -0.00896463 0.360547 -0.0128458 0.289453 0.0279064C0.289453 0.0279064 0.289453 0.0279065 0.289453 0.029847C0.176042 -0.0535984 0.150651 0.0686588 0.110026 0.155985C0.0846353 0.163747 0.0592448 0.165688 0.0321615 0.161807C0.0321615 0.330638 0.0321615 0.499469 0.0321615 0.6683C0.187891 0.606201 0.0507812 0.37333 0.179427 0.297648C0.169271 0.357806 0.1625 0.419905 0.152344 0.482004C0.160807 0.643072 0.164193 0.804141 0.255599 0.93222C-0.0423177 1.0079 0.0186195 1.30675 0 1.55321C0.0152343 1.70845 0.00677073 1.8734 0.160807 1.95685C0.204818 1.93356 0.24375 1.90445 0.250521 1.86758Z" fill="#EFEEE8"/>
</svg>
