<svg width="1" height="2" viewBox="0 0 1 2" fill="none" xmlns="http://www.w3.org/2000/svg">
<path d="M0.832045 1.12038C0.681394 1.11456 0.683087 1.21741 0.686472 1.32026C0.650925 1.21353 0.696628 1.05829 0.579832 0.998127L0.581524 0.990365C0.581524 0.990365 0.579832 0.994246 0.579832 0.996187C0.579832 0.974841 0.579832 0.951553 0.579832 0.928266C0.65431 1.00395 0.738946 1.03888 0.840509 0.982603C0.833738 0.885573 0.82866 0.790484 0.821889 0.695396C0.825274 0.518802 0.828659 0.340268 0.832045 0.165616C0.808347 0.165616 0.786342 0.161735 0.764337 0.155913C0.676316 -0.274897 0.656004 0.342209 0.58491 0.171438C0.588295 0.338328 0.59168 0.507159 0.595066 0.674049C0.579832 0.705099 0.571368 0.738089 0.571368 0.773019C0.512124 0.778841 0.454571 0.782722 0.395326 0.786603C0.371629 0.798247 0.353008 0.809891 0.337774 0.825415C0.334389 0.691515 0.320847 0.557614 0.278529 0.427595C0.253139 0.373259 0.215899 0.338328 0.163425 0.324744C-0.156497 0.429536 0.0889458 0.625535 0.105873 0.784663C0.109258 0.957375 0.110951 1.13203 0.114337 1.30668C0.190508 1.46387 0.0178522 1.67927 0.205743 1.80929L0.212514 1.84422C0.312384 1.87721 0.363165 1.82094 0.393634 1.72197C0.417332 1.68898 0.442722 1.65405 0.46642 1.61912C0.505352 1.58807 0.532435 1.55313 0.549363 1.51626C0.556134 1.54925 0.562905 1.58224 0.571368 1.61523C0.706785 1.75496 0.671238 1.48133 0.760951 1.51238C0.760951 1.64822 0.760951 1.78406 0.760951 1.91991C0.94715 1.75107 0.793113 1.50268 0.870977 1.30862C0.859129 1.24652 0.845587 1.18248 0.833738 1.12038H0.832045Z" fill="#EFEEE8"/>
</svg>
