<svg width="22" height="44" viewBox="0 0 22 44" fill="none" xmlns="http://www.w3.org/2000/svg">
<path d="M5.4792 1.95799C5.44535 1.98321 5.42334 1.99486 5.40303 2.02009C5.41319 2.00844 5.43519 1.98321 5.4792 1.95799ZM1.18649 6.95888L1.15433 7.02098L1.2085 6.93365L1.24066 6.88319L1.18649 6.95888ZM16.0028 4.29445C15.9266 4.16831 15.8606 4.04412 15.7844 3.91798L15.8826 4.09457L16.0028 4.29445ZM13.2572 9.32057V9.29534C13.2453 9.27012 13.2352 9.24489 13.225 9.2313C13.2352 9.25653 13.2453 9.28176 13.2572 9.32057ZM7.71188 30.7155L7.65772 30.8164L7.62555 30.8785L7.71188 30.7155ZM1.83988 37.2864C1.83988 37.3116 1.83988 37.362 1.82972 37.4125C1.83988 37.362 1.83988 37.3368 1.83988 37.2864ZM21.2637 36.7585C21.2637 37.0981 21.2417 37.4494 21.1554 37.7521C21.1114 37.9015 21.0792 38.0412 21.0132 38.1654C20.959 38.2664 20.9049 38.3925 20.8608 38.505L20.9049 38.4294C20.8168 38.606 20.7525 38.7437 20.6543 38.9456C20.6645 38.932 20.6645 38.932 20.6763 38.9067C20.6645 38.9203 20.6543 38.9456 20.6425 38.9708C20.6323 38.9824 20.6323 38.996 20.6222 39.0077V39.0212C20.5782 39.1086 20.3818 39.4482 20.2396 39.6869L20.2176 39.7237L20.3158 39.5607C19.9891 40.1254 19.7166 40.4903 19.4339 40.8299C19.4339 40.8415 19.4339 40.8415 19.4119 40.8551C19.4119 40.8551 19.3899 40.8803 19.3476 40.9308C19.3036 40.9812 19.2494 41.0317 19.1935 41.1054L19.3137 40.9812C19.2155 41.0938 19.1174 41.2063 18.9989 41.3441C19.0632 41.2704 19.1292 41.1947 19.1935 41.119C19.0632 41.2704 18.8888 41.445 18.6722 41.6333C18.6062 41.709 18.4538 41.8351 18.2896 41.9729C18.1271 42.099 17.9409 42.2252 17.8004 42.2989H17.8106C17.3197 42.5764 16.8627 42.7025 16.4276 42.7646C16.2093 42.8015 15.9909 42.8151 15.7624 42.8267C15.5339 42.8403 15.3054 42.852 15.065 42.8655C14.4556 42.9412 13.0067 43.0286 12.0368 43.1295C12.1891 43.1159 12.0147 43.1042 11.8404 43.1159C11.6119 43.1411 11.209 43.1411 11.2412 43.1663L11.3174 43.1547C11.143 43.1916 10.6758 43.2168 10.3051 43.2537L10.2391 43.2304C9.28102 43.3546 7.72204 43.405 7.19899 43.4807C6.97048 43.4924 6.67764 43.5059 6.44743 43.5176L6.45928 43.5312C5.81605 43.5816 5.49951 43.6068 4.70563 43.6689H4.86813C4.63962 43.6825 4.49743 43.6825 4.36709 43.6825C4.30277 43.6825 4.2249 43.6825 4.14873 43.6825C4.12842 43.6825 4.10641 43.6825 4.09457 43.6825C4.0624 43.6825 4.05225 43.6825 4.03024 43.6689C3.98623 43.6689 3.94222 43.6573 3.88805 43.6437C3.84404 43.6437 3.80003 43.6437 3.75772 43.6437L3.60537 43.6068L3.45303 43.5564L3.37516 43.5312L3.29899 43.4924C3.25667 43.4691 3.20251 43.4555 3.1585 43.4303C2.9723 43.3293 2.78779 43.1916 2.6236 43.015C2.4611 42.8403 2.31891 42.6385 2.19873 42.3998C2.0904 42.1747 1.98207 41.9224 1.91605 41.6721C1.91605 41.6837 1.91605 41.7225 1.98206 41.8855C1.96006 41.8215 1.93805 41.7478 1.91605 41.6721C1.90589 41.6333 1.89404 41.5828 1.87204 41.5343C1.86188 41.4838 1.85003 41.4334 1.83988 41.3829C1.82972 41.3325 1.81787 41.282 1.80772 41.2316C1.79587 41.1811 1.78571 41.1307 1.77386 41.0686C1.75355 40.9677 1.73154 40.8551 1.7197 40.7542C1.70954 40.7037 1.70954 40.6533 1.69769 40.6028C1.69769 40.5776 1.68753 40.5543 1.68753 40.5291L1.67568 40.4903V40.4534C1.67568 40.3641 1.67568 40.2904 1.67568 40.2263C1.67568 40.1254 1.68753 40.0633 1.68753 40.0886C1.68753 40.0381 1.68753 39.7742 1.69769 39.4598C1.70954 39.1086 1.73154 38.6933 1.7417 38.3925L1.7197 38.4798C1.75355 37.9908 1.76371 37.9772 1.80772 37.2864C1.81787 37.1622 1.80772 37.1486 1.80772 37.2359C1.82972 36.8594 1.83988 36.873 1.87204 36.2811L1.85003 36.5198C1.89404 35.9668 1.89404 36.0056 1.9279 35.7048C1.96006 35.3516 2.02438 34.6491 2.02438 34.5734C2.03623 34.5346 2.04639 34.4221 2.06839 34.2707C2.06839 34.259 2.06839 34.259 2.06839 34.2338C2.06839 34.2338 2.06839 34.2222 2.06839 34.2086C2.08024 34.1077 2.10055 33.9951 2.1124 33.869C2.1124 33.8185 2.0904 33.9447 2.0904 33.9951C2.21058 33.0772 2.30876 32.6387 2.41709 32.0235C2.41709 32.0099 2.41709 31.973 2.42894 31.9226C2.29691 32.5746 2.21058 33.1277 2.21058 33.1665C2.19873 33.1529 2.29691 32.5746 2.19873 33.0404C2.28675 32.5746 2.44925 31.7848 2.58128 31.2317L2.59144 31.156L2.58128 31.2181L2.66761 30.8669C2.71162 30.6903 2.73363 30.5778 2.77764 30.4147C2.78779 30.3391 2.95029 29.7744 3.03832 29.4968C3.03832 29.5221 3.14665 29.1708 3.06032 29.4968C3.06032 29.4968 3.02816 29.5861 2.98415 29.7355L2.95029 29.85L2.96214 29.8364C2.90798 30.013 2.84196 30.2517 2.76579 30.5273C2.8318 30.3138 2.89613 30.0887 2.98415 29.7744C3.03832 29.6346 3.09248 29.4852 3.11449 29.3959C3.16865 29.2077 3.24483 28.9321 3.321 28.6934C3.39717 28.4548 3.47334 28.2529 3.48519 28.2025C3.63753 27.8008 3.83389 27.337 4.0404 26.9353C4.23675 26.52 4.44326 26.1687 4.58545 25.9669C4.70563 25.7651 4.71579 25.7282 4.7598 25.6525C4.69378 25.7535 4.62946 25.8544 4.56345 25.9553C4.68363 25.7535 4.86813 25.4643 5.03233 25.2256C5.19483 24.9869 5.34717 24.7851 5.38102 24.7482C5.71787 24.2825 5.17282 24.9869 5.65355 24.3718L5.58753 24.4474C6.04457 23.8439 6.45928 23.417 6.8943 22.9901C7.33102 22.5631 7.79821 22.1595 8.38727 21.6317L8.24509 21.7578C8.92048 21.1679 9.60772 20.5275 10.2611 19.8366C10.5878 19.4834 10.9145 19.1322 11.209 18.7673C11.5137 18.3909 11.7964 18.0008 12.0469 17.5875C12.3414 17.1101 12.3753 17.0713 12.5496 16.7705L12.592 16.6579C12.6901 16.4949 12.7883 16.3183 12.8763 16.1417C13.0608 15.7653 13.203 15.414 13.3215 15.024C13.4417 14.6339 13.5399 14.1953 13.6381 13.6287L13.6279 13.78C13.6601 13.5802 13.7041 13.2522 13.7142 12.9766C13.7261 12.8389 13.7261 12.7244 13.7362 12.637C13.7362 12.5497 13.7362 12.5109 13.7362 12.5245C13.7362 12.4857 13.7582 12.3848 13.7464 12.2217L13.7362 12.2101C13.7362 11.8705 13.7362 11.5193 13.7142 11.1797C13.6922 10.9778 13.6702 10.8905 13.6601 10.8536C13.6499 10.8148 13.6499 10.8148 13.6381 10.8148C13.6381 10.8148 13.6279 10.7896 13.6059 10.7023C13.5839 10.6149 13.5517 10.4636 13.4756 10.1861C13.4197 9.98619 13.3215 9.69705 13.2572 9.48358C13.225 9.37103 13.1912 9.28176 13.1692 9.2313C13.1489 9.18279 13.1489 9.16921 13.159 9.19443C13.225 9.33222 13.3114 9.59613 13.3215 9.59613C13.2792 9.47 13.2453 9.35744 13.1912 9.2313C13.1912 9.21966 13.1912 9.20802 13.181 9.19443C13.1692 9.16921 13.159 9.15756 13.159 9.14398C13.1489 9.13233 13.1489 9.10711 13.137 9.09352L13.115 9.04307L13.1269 9.05665C13.1049 8.99261 13.0828 8.9441 13.0608 8.89364C13.0388 8.8296 13.0067 8.77915 12.9847 8.71705C12.9847 8.72869 13.0828 8.96738 13.1489 9.13233C13.1692 9.20802 13.115 9.0683 13.0287 8.86841C12.9407 8.66659 12.8002 8.41626 12.702 8.23967C12.57 8.00097 12.4938 7.88842 12.4515 7.81274C12.4075 7.7487 12.3956 7.72541 12.3956 7.72541C12.3956 7.71182 12.4176 7.72541 12.2111 7.43626C12.0266 7.20921 11.8184 6.99575 11.6017 6.81916V6.80751C11.5035 6.72018 11.4375 6.68137 11.4054 6.66973C11.4274 6.68137 11.2953 6.58046 11.1108 6.48149C10.9365 6.39223 10.7181 6.33013 10.5658 6.31654C10.5878 6.31654 10.62 6.33013 10.642 6.34177C10.62 6.34177 10.5878 6.34177 10.5658 6.33013C10.5438 6.33013 10.5116 6.33013 10.4896 6.34177C10.4355 6.34177 10.3914 6.35536 10.3474 6.35536C10.2509 6.367 10.1629 6.38058 10.0766 6.39223C9.90225 6.41745 9.73805 6.44268 9.58571 6.48149C9.28102 6.55524 8.99665 6.63092 8.6818 6.78228C8.52946 6.85797 8.38727 6.93365 8.24509 7.02098L8.14691 7.05785C8.01657 7.13353 7.95225 7.18399 7.86423 7.25967C7.82022 7.2849 7.76605 7.32177 7.70173 7.37222C7.63571 7.42268 7.55954 7.47313 7.46136 7.54882C7.11266 7.79915 6.77412 8.11353 6.45928 8.46671C6.13259 8.80438 5.81605 9.16921 5.51136 9.54568C4.90199 10.3006 4.32308 11.1292 3.80003 11.9578L3.91006 11.7832C3.78988 11.9578 3.68154 12.1344 3.58337 12.2974C3.46319 12.4488 3.33285 12.5614 3.21266 12.6623C2.96214 12.8621 2.69977 13.0019 2.4391 13.0892C2.17842 13.1649 1.90589 13.1901 1.62152 13.1261C1.33884 13.064 1.05615 12.901 0.793784 12.6118C0.815789 12.637 0.847951 12.6623 0.869956 12.6739C0.739617 12.5361 0.68545 12.4604 0.663445 12.4352C0.64144 12.41 0.653288 12.4236 0.673601 12.4488C0.695607 12.474 0.717612 12.4993 0.707456 12.4857C0.707456 12.474 0.673602 12.4352 0.587273 12.311C0.555112 12.2722 0.401075 12.0587 0.282586 11.7579C0.162403 11.4552 0.0743828 11.0787 0.0422212 10.8148C0.0642268 10.9526 0.0862315 11.0923 0.118393 11.2165C0.0963876 11.1176 0.0963876 11.0787 0.0642264 10.8284C0.0100598 10.5509 -0.0237946 10.0871 0.020216 9.58449C0.0422211 9.33222 0.0862317 9.08188 0.140398 8.84319C0.17256 8.71705 0.206414 8.6045 0.238575 8.49C0.260581 8.44149 0.270737 8.37745 0.292742 8.32699C0.304591 8.30176 0.314747 8.27654 0.324904 8.25131C0.324904 8.23967 0.336753 8.21444 0.346909 8.20279L0.368914 8.16398C0.412925 8.11353 0.631284 7.76228 0.825945 7.47313C0.859799 7.42268 0.881804 7.38581 0.90381 7.34699L0.869956 7.39745C1.01214 7.18399 1.07816 7.08308 1.11032 7.03262C1.13233 6.98411 1.16449 6.94529 1.18649 6.89484C1.34899 6.65615 1.46917 6.46791 1.5792 6.29132C1.43701 6.50672 1.31683 6.69496 1.21865 6.83274L1.2305 6.81916L1.16449 6.92007C1.06631 7.07143 1.0223 7.14711 1.0443 7.1083C0.859799 7.37222 1.0443 7.08308 1.03415 7.08308C1.17464 6.85797 1.46917 6.40581 1.51318 6.367C1.59951 6.2428 1.66553 6.15353 1.75355 6.01575L1.93805 5.75183L1.90589 5.80229L1.94821 5.75183C1.96006 5.74019 1.97022 5.71496 1.98206 5.70138C2.0904 5.53837 2.1124 5.51314 2.10055 5.52672C2.37308 5.13667 2.68962 4.68451 2.89613 4.42059C2.65746 4.76019 2.9723 4.35655 2.98415 4.37014C2.96214 4.39536 2.65746 4.76019 2.30876 5.23758C2.34092 5.19877 2.36292 5.17354 2.37308 5.17354C2.47126 5.04934 2.55928 4.93485 2.64561 4.81065V4.79706C2.79795 4.59524 2.96214 4.38178 3.1805 4.11786C3.19066 4.10622 3.19066 4.10622 3.21266 4.06934L3.23467 4.04412C3.29899 3.96843 3.36501 3.89275 3.44118 3.80542C3.41917 3.83065 3.39717 3.86752 3.37516 3.87917C3.48519 3.75497 3.60537 3.61525 3.72386 3.47747C3.73571 3.46582 3.74587 3.45224 3.75772 3.44059L3.77972 3.41537C3.84404 3.33968 3.91006 3.264 3.97438 3.21355C3.98623 3.21355 4.0404 3.16309 4.11657 3.07576C4.07256 3.11458 4.03024 3.15145 3.97438 3.21355L3.99639 3.17668C4.0624 3.11458 4.09457 3.10099 4.11657 3.08935C4.21475 3.00008 4.33493 2.87588 4.48727 2.73616C4.59561 2.62361 4.61761 2.58674 4.91214 2.33446L4.76996 2.47224C4.85798 2.3985 4.91214 2.35969 4.95615 2.30923C4.97816 2.28401 5.02048 2.24713 5.07464 2.20832C5.15251 2.13458 5.22868 2.07054 5.34717 1.96963C5.33701 1.98321 5.32686 1.99486 5.32686 1.99486C5.48936 1.85708 5.68571 1.71929 5.86006 1.58151C5.93623 1.51747 6.0124 1.45537 6.14274 1.35446L6.08858 1.40492C6.09873 1.39328 6.12074 1.37969 6.13259 1.36805H6.12074C6.13259 1.36805 6.14274 1.35446 6.15459 1.34282C6.34925 1.2031 6.60147 1.04009 6.81813 0.915892C7.00433 0.801397 7.15667 0.725714 7.19899 0.714071C7.17868 0.714071 7.37334 0.601517 7.63571 0.487022C7.91839 0.362825 8.26709 0.261914 8.44144 0.211459C8.32126 0.24833 8.30095 0.261914 8.27894 0.273558C9.0305 0.0232224 9.83623 -0.0524605 10.62 0.0348658L10.686 0.0600934C10.708 0.0600934 10.73 0.0600934 10.752 0.0600934C10.8282 0.0736777 10.9687 0.0989048 11.1108 0.124132C11.2953 0.14936 11.4494 0.161004 11.7321 0.261914C11.6779 0.24833 11.622 0.236687 11.5679 0.223103C11.9606 0.349241 12.2331 0.461795 12.4836 0.601517C12.7341 0.725715 12.9525 0.865437 13.2453 1.06532L13.225 1.0789C13.4315 1.21668 13.6922 1.4185 13.8886 1.58151C14.1069 1.79498 14.564 2.23355 15.0007 2.8002V2.78662C15.0549 2.8623 15.065 2.88753 15.065 2.88753C15.3917 3.31446 15.7082 3.81707 15.9486 4.28281C15.9689 4.30804 16.0349 4.43223 16.123 4.59524L16.1433 4.62047C16.2753 4.88439 16.4158 5.18712 16.5258 5.43746C16.7205 5.88961 16.8847 6.31654 17.015 6.73183C17.0489 6.79393 17.059 6.81916 17.0269 6.72019C17.1572 7.1083 17.2875 7.54882 17.4179 8.01262L17.4297 8.05143V8.06307C17.4839 8.26489 17.5279 8.47836 17.5821 8.68018C17.6142 8.80438 17.6362 8.90529 17.6481 8.96738C17.7344 9.37103 17.7564 9.55926 17.7886 9.75914C17.8546 10.1628 17.8986 10.5257 17.9189 10.7644C17.9409 10.941 17.9629 11.1176 17.9849 11.2806C17.9849 11.2553 17.9849 11.2553 17.9849 11.2165L17.9629 11.0166C17.9409 10.8284 17.9189 10.5897 17.9528 10.8148V10.8905C17.9748 11.0283 17.9951 11.2922 18.0171 11.5057C18.0391 11.7191 18.0509 11.8589 18.0509 11.7696C18.073 12.1965 18.0611 11.9578 18.0289 11.6318C18.0509 11.8821 18.0611 12.1092 18.0831 12.311C18.1051 12.6623 18.1051 13.0271 18.0933 13.4036C18.0831 13.5918 18.073 13.78 18.0611 13.9819C18.0509 14.1817 18.0171 14.3836 17.9951 14.597V14.5834C17.9629 14.8105 17.9088 15.1501 17.8546 15.4392C17.8647 15.4257 17.8868 15.2762 17.9088 15.1617C17.8004 15.8274 17.6904 16.4057 17.6041 16.7705L17.6904 16.4309C17.6362 16.6327 17.6041 16.8074 17.5601 16.9723L17.5922 16.7705C17.5702 16.8714 17.5499 16.9587 17.5279 17.0344C17.5161 17.0965 17.5059 17.147 17.5059 17.147C17.4517 17.3235 17.5059 17.0965 17.4399 17.2847C17.4179 17.3856 17.3857 17.4866 17.3535 17.5875C17.3197 17.6884 17.2994 17.8009 17.2554 17.9018C17.2554 17.9135 17.2114 18.0901 17.3417 17.6748C17.2994 17.8126 17.2554 17.9639 17.1894 18.1658L17.2232 18.0901C17.103 18.4782 17.059 18.5539 17.015 18.6431C16.993 18.68 16.9727 18.7305 16.9388 18.8062C16.9067 18.8818 16.8525 19.006 16.7763 19.1943C16.8305 19.1069 16.7103 19.3845 16.6562 19.497C16.7983 19.1943 16.7103 19.3456 16.58 19.6096C16.5258 19.7221 16.4818 19.7978 16.4496 19.8735C16.4378 19.8987 16.4158 19.9356 16.4056 19.9608L16.4158 19.9356C16.3295 20.1122 16.2855 20.1743 16.1991 20.3392L16.2956 20.149C16.0248 20.6517 15.6761 21.2688 15.2935 21.8471C15.2834 21.8703 15.3155 21.8471 15.2394 21.9596C15.065 22.1983 14.9787 22.3361 14.8805 22.4622C14.7823 22.6 14.6841 22.7261 14.4878 22.9648C14.5758 22.8387 14.5961 22.8135 14.4556 22.9765C14.3456 23.1143 14.2153 23.2792 14.0748 23.4422C14.0409 23.4791 14.0088 23.5179 13.9868 23.5431C13.7041 23.8691 13.4095 24.1835 13.2572 24.3465L13.4417 24.1331C13.115 24.4979 12.9847 24.6105 12.8205 24.7618C12.7883 24.7987 12.7562 24.8239 12.724 24.8608L12.8002 24.7851C12.6901 24.886 12.5496 25.0238 12.3093 25.2625L12.6681 24.9365C12.4176 25.1752 12.2111 25.3886 12.2771 25.3382C12.0368 25.5516 12.1451 25.4391 11.9707 25.5904C11.9284 25.6273 11.8743 25.6778 11.8184 25.7282C11.8082 25.7399 11.7964 25.7535 11.7761 25.7651C11.6779 25.8544 11.5899 25.93 11.5679 25.9417L11.2852 26.2192C11.0448 26.4443 10.9043 26.5821 10.7621 26.7082C10.7723 26.6966 10.8062 26.6714 10.8383 26.6461C10.6758 26.8091 10.5218 26.9586 10.3694 27.1099C10.3914 27.0847 10.4134 27.0731 10.4456 27.0342C10.2933 27.1973 10.1528 27.337 10.1409 27.3486L10.0969 27.3991C10.0647 27.4379 10.0207 27.4864 9.95641 27.5504C9.85824 27.6514 9.77022 27.7639 9.67204 27.8648L9.5197 28.0395L9.5417 28.0142L9.65173 27.89C9.61787 27.9269 9.58571 27.9638 9.55355 28.0026L9.5417 28.0142C9.22686 28.3674 8.93233 28.7303 8.64795 29.1204C8.51761 29.2717 8.22308 29.6851 7.99457 30.0887C7.84222 30.3526 7.71188 30.5913 7.61371 30.7912C7.36318 31.257 7.09066 31.8469 6.90615 32.3243C6.8943 32.3359 6.8943 32.3612 6.88415 32.3747L6.91631 32.2991C6.84014 32.4873 6.80798 32.5998 6.77582 32.6891C6.71996 32.8638 6.66579 33.0287 6.63363 33.1529C6.66579 33.052 6.69795 32.9394 6.7318 32.8133C6.7098 32.8638 6.68779 32.9142 6.66579 32.9899C6.64378 33.0772 6.61162 33.1665 6.58962 33.2422C6.56761 33.3159 6.55746 33.3916 6.53545 33.4421L6.50329 33.5177V33.5294C6.45928 33.7448 6.48128 33.6303 6.5236 33.5061C6.55746 33.38 6.60147 33.2286 6.56761 33.3664C6.56761 33.4304 6.49144 33.6808 6.42712 33.9835C6.35095 34.2843 6.28493 34.6607 6.24092 34.9499L6.26292 34.8121C6.19691 35.2507 6.08858 35.893 6.04457 36.6343C6.03441 36.7333 6.02256 36.8594 6.0124 36.9972C6.0124 37.0613 6.00225 37.1117 6.00225 37.1738C6.00225 37.1854 6.00225 37.2107 6.00225 37.2243H6.03441C6.18675 37.2107 6.3391 37.2107 6.50329 37.199C6.51345 37.199 6.51345 37.199 6.54561 37.199C6.55746 37.199 6.55746 37.199 6.55746 37.199C6.74196 37.1854 6.91631 37.1738 7.0805 37.1622C6.91631 37.1622 6.84014 37.1738 6.93831 37.1486C7.15667 37.1369 6.93831 37.1738 7.26501 37.1486C7.34118 37.1369 7.40719 37.1369 7.47152 37.1234C7.63571 37.1117 7.82022 37.0865 7.85407 37.0729L7.41735 37.1117C7.63571 37.0729 7.98441 37.0729 8.21292 37.0477L8.18076 37.036C8.52946 37.0108 8.70381 37.0108 8.88832 36.9972C9.04066 36.9856 9.18285 36.972 9.31318 36.972L9.20485 36.9856C9.24717 36.9856 9.30303 36.9856 9.34535 36.9856C9.42152 36.9856 9.47738 36.972 9.57555 36.972H9.56371C9.84639 36.9468 10.1308 36.9215 10.2831 36.9099L10.3373 36.8982C10.5015 36.8847 10.8383 36.873 11.1769 36.8594C11.1972 36.8594 11.2192 36.8594 11.253 36.8594H11.2412C11.2953 36.8594 11.3512 36.8478 11.4155 36.8478C11.4815 36.8478 11.5357 36.8342 11.6017 36.8342C11.3174 36.8478 10.8603 36.873 10.5556 36.8847C10.8163 36.8594 11.4274 36.8226 11.5679 36.8226L11.231 36.8478C11.4054 36.8478 11.6119 36.8342 11.8404 36.8226C12.0689 36.809 12.2873 36.7837 12.4938 36.7721C12.5056 36.7721 12.5056 36.7721 12.5158 36.7721H12.5276C12.614 36.7585 12.8205 36.7333 13.071 36.7216H13.0608C13.1489 36.7081 13.1912 36.7081 13.2132 36.7081C13.594 36.6828 14.0088 36.646 14.1831 36.6207C14.6401 36.5955 15.087 36.5586 15.5559 36.5198C15.7844 36.4946 16.0248 36.4441 16.2313 36.2947C16.2855 36.2559 16.3295 36.219 16.3836 36.1686C16.4378 36.1181 16.4818 36.0677 16.536 36.0172C16.5901 35.9668 16.6341 35.9182 16.6883 35.8678L16.7323 35.829C16.7543 35.8173 16.7425 35.8173 16.7543 35.7921L16.8085 35.6912C16.624 36.0813 16.9168 35.503 16.9727 35.4525C17.0269 35.3652 17.081 35.2507 17.1453 35.1265C17.081 35.239 16.9727 35.4021 17.1453 35.076C16.9608 35.4273 17.4077 34.6239 17.2334 34.9751L17.2435 34.9635C17.3756 34.7112 17.494 34.4725 17.6582 34.2474C17.7243 34.1581 17.6802 34.2086 17.6142 34.2843C17.5499 34.36 17.494 34.4609 17.494 34.4473C17.6684 34.1581 17.7243 34.1213 17.7564 34.0825L17.8004 34.032C17.8224 34.0068 17.8647 33.9699 17.9409 33.9078C17.8766 33.9699 18.1153 33.7817 18.4318 33.6943C18.2896 33.7312 18.1491 33.8069 18.0069 33.8942C18.1813 33.7933 18.3235 33.7448 18.4318 33.7196C18.5401 33.6943 18.6163 33.6691 18.7043 33.6439C18.7805 33.6187 18.8668 33.6051 18.9769 33.5934C19.0852 33.5798 19.2274 33.5798 19.4237 33.6187C19.3357 33.5934 19.2595 33.5798 19.1732 33.5798C19.3679 33.5934 19.7166 33.6555 20.0433 33.8942C20.3716 34.1213 20.6103 34.5094 20.7305 34.7481C20.7525 34.7869 20.7745 34.8238 20.7965 34.8626C20.8168 34.913 20.8388 34.9383 20.8067 34.8626C20.937 35.1129 21.0352 35.4156 21.1012 35.7281C21.2417 36.056 21.2637 36.4209 21.2637 36.7585ZM1.49118 6.46791C1.48102 6.48149 1.43701 6.53195 1.34899 6.68137L1.31683 6.74541L1.32868 6.72019L1.49118 6.46791ZM2.84196 30.3895L2.92998 30.0635L2.94014 30.0383L2.91813 30.114C2.86397 30.2886 2.85381 30.3526 2.84196 30.3895ZM14.7383 22.7378C14.7383 22.7261 14.7062 22.763 14.674 22.8018C14.6401 22.8387 14.608 22.8892 14.564 22.9513C14.6181 22.8892 14.674 22.8135 14.7383 22.7378ZM3.00615 4.40701C3.01631 4.40701 3.01631 4.40701 3.00615 4.40701V4.40701ZM3.02816 29.8248L3.06032 29.7103L3.03832 29.786L3.00615 29.8869L3.02816 29.8248ZM3.60537 3.69093C3.61553 3.67929 3.38701 3.94321 3.61553 3.69093C3.78988 3.50269 3.74587 3.54151 3.60537 3.69093ZM17.3637 7.66137C17.3197 7.48672 17.2655 7.32177 17.2114 7.15876L17.2554 7.29654C17.2994 7.41103 17.3315 7.53523 17.3637 7.66137ZM7.99457 30.2265L7.9624 30.3138C8.1266 30.0383 8.09274 30.0635 7.99457 30.2265ZM9.55355 36.972C9.66188 36.972 9.85824 36.9468 10.0647 36.9235C9.9124 36.9351 9.65173 36.9603 9.55355 36.972ZM9.65173 43.2925L10.0004 43.2672L9.81423 43.2789L9.65173 43.2925Z" fill="#DCD8CC"/>
</svg>
