<svg width="1" height="3" viewBox="0 0 1 3" fill="none" xmlns="http://www.w3.org/2000/svg">
<path d="M0.0680808 0.819059C0.0985498 1.22076 0.129019 1.62246 0.16118 2.02416C0.134096 2.23957 0.108706 2.45691 0.0731589 2.748C0.320295 2.50931 0.274591 2.25897 0.254279 2.01834C0.26105 1.80294 0.266128 1.58947 0.272899 1.37601C0.457404 1.5526 0.327065 1.79906 0.372768 2.0067C0.482794 1.9543 0.536961 1.89026 0.557274 1.81846L0.564044 2.13284C0.542039 2.24151 0.589435 2.38123 0.459096 2.44139C0.577586 2.51319 0.641909 2.41228 0.653758 2.13478C0.643602 1.87668 0.633446 1.61858 0.621596 1.36048C0.621596 1.35466 0.597899 1.34302 0.587742 1.34496C0.572508 1.3469 0.560659 1.36048 0.547117 1.36825C0.54881 1.45169 0.550503 1.53708 0.552195 1.62246C0.531883 1.53902 0.498029 1.45169 0.476024 1.36825C0.481102 1.06745 0.484487 0.766664 0.489565 0.467813C0.469253 0.372725 0.426935 0.328091 0.3423 0.384368C0.337221 0.396012 0.333836 0.409596 0.332143 0.42512C0.318602 0.277635 0.289826 0.134032 0.208576 0.0020725C0.162872 -0.00568985 0.12394 0.00789451 0.0951641 0.0505872C0.0883937 0.0835775 0.0782369 0.116567 0.0697735 0.149557C-0.00978391 0.372725 -0.0351743 0.595892 0.0680808 0.819059Z" fill="#E1067E"/>
</svg>
