<svg width="1" height="5" viewBox="0 0 1 5" fill="none" xmlns="http://www.w3.org/2000/svg">
<path d="M0.422084 2.49171C0.367917 2.45678 0.325599 2.43155 0.295131 2.41797C0.301901 2.41021 0.310365 2.40051 0.320521 2.39274C0.330678 2.35975 0.340834 2.32676 0.352683 2.29571C0.369609 2.2569 0.369609 2.22585 0.349297 2.19868C0.366224 2.17346 0.376381 2.14629 0.372995 2.11718C0.369609 2.08419 0.366224 2.06867 0.359453 2.06867C0.327292 1.9988 0.296823 1.92894 0.266355 1.86102C0.464401 1.84162 0.327292 1.58158 0.457631 1.51172C0.447474 1.47873 0.444089 1.44574 0.447474 1.41275C0.439011 1.2478 0.523646 1.03433 0.323907 0.970293C0.327292 0.966412 0.330678 0.964472 0.33237 0.96059C0.366224 0.947006 0.381459 0.9276 0.379766 0.900432C0.378073 0.871323 0.372995 0.855799 0.362839 0.855799C0.354375 0.820868 0.344219 0.785938 0.334063 0.749066C0.305287 0.752947 0.276511 0.751007 0.249427 0.747126C0.220651 0.498731 0.498256 0.201821 0.163099 0C0.154636 0.10091 0.146173 0.203762 0.137709 0.304672C0.137709 0.382295 0.136016 0.459919 0.134323 0.537542C0.103854 0.611284 0.0903126 0.681146 0.147865 0.735482C0.139401 0.739364 0.130938 0.745186 0.122474 0.752947C0.0953909 0.86162 0.0903128 0.966412 0.130938 1.07314C0.180026 1.176 0.0970835 1.339 0.244349 1.39916C0.244349 1.4438 0.244349 1.48843 0.244349 1.53306C0.0344534 1.66308 0.208802 1.89789 0.132631 2.06478C0.142787 2.10165 0.152943 2.13853 0.161407 2.1754C0.154636 2.36946 0.147865 2.56351 0.141094 2.75563C0.139401 2.77504 0.137708 2.7925 0.134323 2.81385C0.117396 2.86625 0.0920056 2.91282 0.0598441 2.95357C0.0598441 3.02537 0.0598444 3.09718 0.0581514 3.16898C0.0175264 3.29123 -0.0467967 3.41543 0.0530732 3.52605C0.047995 3.5862 0.0412243 3.64636 0.0344534 3.70652C0.0733858 3.82101 0.110625 3.93551 0.147865 4.05C0.183412 4.05388 0.218958 4.05777 0.254506 4.06359C0.281589 4.05583 0.308673 4.04806 0.334063 4.0403C0.327292 3.85983 0.323907 3.68129 0.317136 3.50082C0.327292 3.46395 0.337448 3.42708 0.345912 3.3902C0.537188 3.10688 0.484714 2.79833 0.418698 2.49171H0.422084Z" fill="#E1067E"/>
</svg>
