<svg width="1" height="5" viewBox="0 0 1 5" fill="none" xmlns="http://www.w3.org/2000/svg">
<path d="M0.236979 1.65442C0.0863282 1.96298 0.0998698 2.27347 0.235286 2.58591C0.253906 2.59561 0.270833 2.60337 0.286068 2.60919L0.284375 2.61113C0.101562 2.79549 0.228516 3.0206 0.220052 3.2263C0.309766 3.33303 0.198047 3.4223 0.198047 3.52321C0.20651 3.61636 0.223438 3.6998 0.30638 3.71533C0.18789 3.84341 0.182813 3.98895 0.269141 4.14614C0.328386 4.17913 0.389323 4.21212 0.45026 4.24705C0.462109 4.06851 0.472266 3.88804 0.484115 3.70757L0.445182 3.71145C0.536589 3.42812 0.399479 3.10986 0.538281 2.83236C0.482422 2.71204 0.426563 2.59367 0.36901 2.47335C0.399479 2.44618 0.429948 2.41708 0.460417 2.38991C0.463802 2.20361 0.467188 2.0212 0.470573 1.8349C0.462109 1.72623 0.451953 1.61755 0.441797 1.50888C0.446875 1.38662 0.492578 1.25272 0.372396 1.16346C0.470573 0.994625 0.467188 0.808329 0.448568 0.618151C0.45026 0.439617 0.451953 0.259143 0.453646 0.0786683C0.419792 0.0689655 0.38763 0.0592627 0.353776 0.0476189C0.250521 -0.0261231 0.155729 -0.012539 0.0660156 0.0767277C0.00169293 0.297955 -0.00677073 0.495894 0.177734 0.602627C0.120182 0.68025 0.0660155 0.759814 0.0372396 0.858784C0.0287762 0.998506 0.0016926 1.13629 0 1.27795C0.0135417 1.40215 0.0541668 1.51276 0.123568 1.60979C0.157422 1.64084 0.194662 1.65637 0.236979 1.65637V1.65442Z" fill="#E1067E"/>
</svg>
