<svg width="4" height="4" viewBox="0 0 4 4" fill="none" xmlns="http://www.w3.org/2000/svg">
<path d="M0.355469 2.89535C0.275911 2.92446 0.191276 2.94775 0.111719 2.9788C0.467188 2.71488 0.826041 2.4529 1.18151 2.18704C1.22383 2.15599 1.26276 2.12106 1.3 2.08419C1.32201 2.13076 1.34401 2.17928 1.36602 2.22779C1.38294 2.21615 1.40156 2.20645 1.42018 2.1948C1.39818 2.14823 1.37786 2.09777 1.35417 2.05314C1.35247 2.04926 1.33385 2.05896 1.31523 2.06867C1.37956 2.00657 1.44557 1.94253 1.51836 1.89983C2.00586 1.62233 2.46628 1.30019 2.9013 0.923719C2.99779 0.840274 3.10104 0.764591 3.2043 0.690849C3.20768 0.700552 3.21276 0.710255 3.21615 0.719958C3.33633 0.700552 3.4582 0.679205 3.59701 0.657859C3.57669 0.576354 3.56315 0.512315 3.54284 0.42887C3.69349 0.306613 3.84414 0.184356 3.99648 0.0640394C3.91862 -0.0349307 3.98125 0.0970291 3.90508 0C3.71719 0.149425 3.53945 0.320197 3.33971 0.444394C2.78281 0.787878 2.29193 1.21675 1.74349 1.57576C1.72487 1.58934 1.69948 1.59904 1.6707 1.60681C1.71133 1.52142 1.75195 1.43215 1.80781 1.31572C1.61315 1.44768 1.58268 1.46708 1.59961 1.63203C1.56068 1.64562 1.52513 1.66114 1.50143 1.68443C1.20352 1.9891 0.822656 2.13076 0.453646 2.30348L0.0947917 2.98268L0 3.1651C0.145573 3.12046 0.267448 3.04672 0.353776 2.89147L0.355469 2.89535Z" fill="#392726"/>
</svg>
