<svg width="2" height="2" viewBox="0 0 2 2" fill="none" xmlns="http://www.w3.org/2000/svg">
<path d="M1.26953 0.00846532C1.18828 -0.00899984 1.17474 -0.0109402 1.13919 0.119079C0.958073 0.169534 0.810807 0.280147 0.699089 0.4548C0.685547 0.464503 0.672005 0.472266 0.660156 0.481968C0.658464 0.491671 0.656771 0.501374 0.655078 0.511077C0.643229 0.52272 0.633073 0.532424 0.622917 0.544067C0.59414 0.55377 0.560286 0.555711 0.526432 0.55183C0.431641 0.540186 0.338542 0.528542 0.233594 0.516899C0.203125 0.538245 0.159115 0.569294 0.11849 0.602285C0.0778646 0.633334 0.038932 0.668264 0 0.701255C0.0050778 0.710957 0.0118489 0.722601 0.0169271 0.732304C0.120182 0.689611 0.223437 0.646918 0.323307 0.606166C0.365625 0.689611 0.40625 0.745888 0.347005 0.823512C0.330078 0.844858 0.335156 0.930244 0.352083 0.939947C0.355469 0.941887 0.360547 0.943828 0.365625 0.945769C0.245443 1.07773 0.132031 1.21551 0.0829427 1.40375C0.172656 1.34941 0.264062 1.29507 0.352083 1.23492C0.457031 1.16505 0.458724 1.13401 0.372396 0.947709C0.402865 0.955472 0.438411 0.951591 0.472266 0.947709C0.489193 0.945769 0.502735 0.922482 0.521354 0.91666C0.536589 0.912779 0.555208 0.920541 0.570443 0.922482C0.565364 0.98264 0.561979 1.03504 0.556901 1.12236C0.605989 1.08549 0.65 1.06608 0.65 1.05056C0.644922 0.974878 0.627995 0.901135 0.617839 0.844858C0.707552 0.714839 0.792187 0.592582 0.890365 0.448978C0.839584 0.431513 0.797265 0.402404 0.760026 0.410167C0.883594 0.32284 1.00716 0.233573 1.13073 0.144306C1.12565 0.163712 1.11888 0.186999 1.11211 0.212227C1.14258 0.171475 1.16797 0.138485 1.19167 0.107435C1.19505 0.107435 1.19674 0.107435 1.20013 0.105495C1.20521 0.101613 1.21029 0.0996728 1.21536 0.0977323C1.21198 0.0957918 1.20859 0.093851 1.20521 0.0919105C1.22721 0.0628016 1.24583 0.0356338 1.26615 0.00846532H1.26953Z" fill="#392726"/>
</svg>
