<svg width="1" height="3" viewBox="0 0 1 3" fill="none" xmlns="http://www.w3.org/2000/svg">
<path d="M0.190681 0.770413C0.19576 0.886848 0.200838 1.00522 0.205916 1.12166C0.205916 1.33512 0.205916 1.54859 0.204223 1.76205C0.0112544 2.04538 0.146671 2.09389 0.375187 2.07449C0.412426 1.97164 0.449665 1.86684 0.486905 1.76399C0.478441 1.67861 0.476749 1.58934 0.397192 1.54083C0.392114 1.46902 0.388728 1.39722 0.38365 1.32348L0.388728 1.3293C0.388728 1.3293 0.388728 1.32348 0.388728 1.3196C0.454744 1.25168 0.519067 1.18182 0.585082 1.1139C0.559692 0.999402 0.615551 0.851917 0.485213 0.776234C0.485213 0.741304 0.485213 0.704433 0.485213 0.669503C0.466593 0.638453 0.442895 0.613226 0.414119 0.591879C0.410733 0.582176 0.405655 0.574414 0.403963 0.564711C0.397191 0.378415 0.392114 0.190178 0.385343 0.00388141C0.354874 -1.15668e-08 0.324405 -1.23996e-07 0.293937 0.00582176L0.290551 0C0.261775 0.0194061 0.248233 0.0407526 0.253312 0.0679205C0.255005 0.0776233 0.256697 0.0834452 0.25839 0.0912076C0.248233 0.0873266 0.238077 0.081505 0.226228 0.0795645C-0.0598394 0.293029 -0.0784593 0.522018 0.192374 0.770413H0.190681Z" fill="#E1067E"/>
</svg>
