<svg width="2" height="2" viewBox="0 0 2 2" fill="none" xmlns="http://www.w3.org/2000/svg">
<path d="M0 1.21481C0.179427 1.14883 0.338541 1.05956 0.490885 0.95865C0.490885 0.962531 0.489193 0.968353 0.489193 0.972234C0.570443 0.99358 0.614453 0.945065 0.661849 0.875205C0.699089 0.818927 0.754948 0.772353 0.809115 0.741304C0.863281 0.714136 0.915756 0.692789 0.934375 0.622928C1.07995 0.502612 1.22214 0.380355 1.3694 0.26586C1.44557 0.205702 1.52513 0.149425 1.60807 0.0912076C1.62331 0.0815048 1.63854 0.0718019 1.65547 0.0601582C1.65378 0.0601582 1.65208 0.0601582 1.65039 0.0601582C1.65547 0.0562773 1.66055 0.0523961 1.66732 0.0485147C1.64023 0.0291085 1.62331 0.0116433 1.61823 0.0155247C1.6013 0.0252275 1.58437 0.0349303 1.56745 0.0465741C1.46419 0.0310494 1.37448 0.0174652 1.27292 0C1.28646 0.0776235 1.29831 0.139722 1.31016 0.211524C1.09349 0.349306 0.876823 0.487088 0.663542 0.634572C0.511198 0.739364 0.36901 0.861621 0.226823 0.981937C0.252214 0.96059 0.274219 0.929541 0.297917 0.888789C0.182812 0.886848 0.110026 0.92566 0.0778646 1.00716C0.133724 1.02851 0.177734 1.02269 0.218359 0.989699C0.191276 1.01299 0.164193 1.03627 0.137109 1.05762C0.0947918 1.09255 0.0626305 1.14301 0 1.21481Z" fill="#392726"/>
</svg>
