<svg width="2" height="3" viewBox="0 0 2 3" fill="none" xmlns="http://www.w3.org/2000/svg">
<path d="M0.971615 0.546519C0.942838 0.494123 0.903907 0.461133 0.848047 0.45143C0.727865 0.461133 0.677083 0.536816 0.68724 0.670717C0.721093 0.736696 0.729557 0.804617 0.729557 0.872538C0.721093 0.833725 0.71263 0.794914 0.697396 0.758043C0.678776 0.721172 0.653385 0.697885 0.621224 0.68236C0.599218 0.505767 0.77526 0.243787 0.457031 0.195273C0.453646 0.160343 0.451953 0.125412 0.45026 0.0885406C0.333464 -0.0278941 0.218359 -0.0317759 0.104948 0.0904812C0.103255 0.11959 0.101563 0.150639 0.103255 0.181689C0.159115 0.286481 0.216667 0.393213 0.275911 0.499945C0.245442 0.534875 0.214974 0.571747 0.184505 0.604737C0.121875 0.565925 0.0609375 0.525172 0 0.48442C0 0.558162 0.00169271 0.631904 0.00169271 0.703707C0.0626302 0.703707 0.123568 0.703707 0.184505 0.705647C0.238672 0.713409 0.294531 0.719231 0.350391 0.726994C0.353776 0.78133 0.357161 0.831785 0.36224 0.886122C0.286067 0.893884 0.240365 0.928815 0.260677 1.02584C0.267448 1.13064 0.274218 1.23349 0.28099 1.33634C0.177734 1.50905 0.286068 1.62937 0.358854 1.75939C0.363932 1.85641 0.367318 1.95344 0.372396 2.05047C0.558594 1.90105 0.358854 1.60996 0.539974 1.45859C0.539974 1.48382 0.543359 1.51099 0.55013 1.53816C0.651693 1.51681 0.629688 1.41202 0.651693 1.33828C0.672005 1.30723 0.688932 1.27424 0.702474 1.24125C0.705859 1.2723 0.710937 1.30529 0.722786 1.33828C0.756641 1.36933 0.790495 1.40038 0.824349 1.43337L0.817578 1.43919C0.817578 1.43919 0.820963 1.43725 0.824349 1.43531C0.627995 1.79432 0.795573 2.1999 0.719401 2.57443C0.758333 2.61324 0.797266 2.654 0.834505 2.69281C0.998698 2.44247 0.95638 2.1475 0.966536 1.86418C0.924218 1.72057 1.02409 1.54204 0.883594 1.42172C0.864974 1.4256 0.846354 1.42949 0.826042 1.43337C1.12904 1.19467 1.0444 0.868657 0.971615 0.544578V0.546519Z" fill="#EFEEE8"/>
</svg>
