<svg width="1" height="2" viewBox="0 0 1 2" fill="none" xmlns="http://www.w3.org/2000/svg">
<path d="M0.499349 1.22645C0.507812 1.20316 0.516276 1.18182 0.523047 1.15853C0.521354 0.964472 0.509505 0.770413 0.375781 0.622928C0.304687 0.622928 0.233594 0.630691 0.201432 0.721898H0.198047C0.192969 0.66174 0.177734 0.601582 0.148958 0.547245C0.130339 0.520077 0.110026 0.506493 0.0846354 0.504553C0.228516 0.310493 0.28099 0.130019 0.0186198 0C0.0152342 0.0310494 0.00846387 0.0620988 0 0.0931482C0 0.16495 0.00169271 0.234811 0.00169271 0.306613C0.0135418 0.374533 0.0253905 0.442454 0.0372396 0.512315C0.033854 0.751007 0.030469 0.987759 0.0270833 1.22645C0.106641 1.1954 0.0981774 1.11196 0.110026 1.04015C0.170964 1.0712 0.233594 1.10031 0.294531 1.13136C0.325 1.17017 0.357161 1.21093 0.38763 1.24974C0.377474 1.28273 0.369011 1.31572 0.365625 1.35065C0.419792 1.47679 0.309766 1.65338 0.460417 1.75041C0.595833 1.58352 0.599219 1.41857 0.465495 1.25362C0.477344 1.2478 0.489192 1.23809 0.499349 1.22645Z" fill="#EFEEE8"/>
</svg>
